<svg width="524" height="324" viewBox="0 0 524 324" fill="none" xmlns="http://www.w3.org/2000/svg">
<g filter="url(#filter0_d_7870_4479)">
<path d="M8 28C8 16.9543 16.9543 8 28 8H488C499.046 8 508 16.9543 508 28V308H8V28Z" fill="white"/>
<path d="M8 28C8 16.9543 16.9543 8 28 8H488C499.046 8 508 16.9543 508 28V38H8V28Z" fill="#909CA8"/>
<path d="M76.832 75.784H82.76V84.328C81.896 84.632 81.008 84.856 80.096 85C79.184 85.16 78.16 85.24 77.024 85.24C75.376 85.24 73.976 84.888 72.824 84.184C71.688 83.48 70.816 82.472 70.208 81.16C69.616 79.848 69.32 78.272 69.32 76.432C69.32 74.64 69.648 73.088 70.304 71.776C70.96 70.464 71.912 69.448 73.16 68.728C74.408 67.992 75.92 67.624 77.696 67.624C78.608 67.624 79.472 67.72 80.288 67.912C81.12 68.088 81.88 68.336 82.568 68.656L81.632 70.816C81.072 70.544 80.448 70.32 79.76 70.144C79.088 69.952 78.384 69.856 77.648 69.856C76.464 69.856 75.456 70.128 74.624 70.672C73.792 71.2 73.16 71.96 72.728 72.952C72.296 73.928 72.08 75.096 72.08 76.456C72.08 77.736 72.264 78.872 72.632 79.864C73 80.856 73.576 81.632 74.36 82.192C75.144 82.752 76.16 83.032 77.408 83.032C77.824 83.032 78.192 83.016 78.512 82.984C78.832 82.936 79.128 82.888 79.4 82.84C79.688 82.776 79.944 82.72 80.168 82.672V78.016H76.832V75.784ZM91.1497 71.824C92.6697 71.824 93.8137 72.184 94.5817 72.904C95.3657 73.608 95.7577 74.72 95.7577 76.24V85H93.9097L93.4057 83.2H93.3097C92.9417 83.664 92.5737 84.048 92.2057 84.352C91.8537 84.656 91.4377 84.88 90.9577 85.024C90.4937 85.168 89.9177 85.24 89.2297 85.24C88.5097 85.24 87.8617 85.104 87.2857 84.832C86.7097 84.544 86.2537 84.112 85.9177 83.536C85.5817 82.944 85.4137 82.208 85.4137 81.328C85.4137 80.016 85.8777 79.016 86.8057 78.328C87.7497 77.64 89.1817 77.264 91.1017 77.2L93.1657 77.128V76.408C93.1657 75.448 92.9657 74.776 92.5657 74.392C92.1817 74.008 91.6377 73.816 90.9337 73.816C90.3417 73.816 89.7577 73.912 89.1817 74.104C88.6057 74.296 88.0457 74.528 87.5017 74.8L86.7097 72.952C87.3017 72.632 87.9737 72.368 88.7257 72.16C89.4937 71.936 90.3017 71.824 91.1497 71.824ZM91.6057 78.832C90.2937 78.896 89.3817 79.144 88.8697 79.576C88.3577 79.992 88.1017 80.584 88.1017 81.352C88.1017 82.024 88.2777 82.512 88.6297 82.816C88.9977 83.12 89.4697 83.272 90.0457 83.272C90.9257 83.272 91.6617 82.992 92.2537 82.432C92.8617 81.872 93.1657 81.032 93.1657 79.912V78.784L91.6057 78.832ZM101.924 71.152C101.924 71.68 101.908 72.184 101.876 72.664C101.86 73.128 101.836 73.496 101.804 73.768H101.924C102.26 73.224 102.716 72.768 103.292 72.4C103.884 72.032 104.636 71.848 105.548 71.848C107.004 71.848 108.172 72.408 109.052 73.528C109.948 74.648 110.396 76.312 110.396 78.52C110.396 80.008 110.196 81.248 109.796 82.24C109.396 83.232 108.828 83.984 108.092 84.496C107.356 84.992 106.5 85.24 105.524 85.24C104.596 85.24 103.844 85.064 103.268 84.712C102.708 84.344 102.26 83.912 101.924 83.416H101.732L101.276 85H99.3318V66.76H101.924V71.152ZM104.876 73.912C104.156 73.912 103.58 74.072 103.148 74.392C102.716 74.712 102.404 75.2 102.212 75.856C102.02 76.512 101.924 77.344 101.924 78.352V78.544C101.924 80.032 102.132 81.176 102.548 81.976C102.98 82.76 103.78 83.152 104.948 83.152C105.86 83.152 106.548 82.752 107.012 81.952C107.492 81.152 107.732 80 107.732 78.496C107.732 76.976 107.492 75.832 107.012 75.064C106.548 74.296 105.836 73.912 104.876 73.912ZM118.267 71.824C119.787 71.824 120.931 72.184 121.699 72.904C122.483 73.608 122.875 74.72 122.875 76.24V85H121.027L120.523 83.2H120.427C120.059 83.664 119.691 84.048 119.323 84.352C118.971 84.656 118.555 84.88 118.075 85.024C117.611 85.168 117.035 85.24 116.347 85.24C115.627 85.24 114.979 85.104 114.403 84.832C113.827 84.544 113.371 84.112 113.035 83.536C112.699 82.944 112.531 82.208 112.531 81.328C112.531 80.016 112.995 79.016 113.923 78.328C114.867 77.64 116.299 77.264 118.219 77.2L120.283 77.128V76.408C120.283 75.448 120.083 74.776 119.683 74.392C119.299 74.008 118.755 73.816 118.051 73.816C117.459 73.816 116.875 73.912 116.299 74.104C115.723 74.296 115.163 74.528 114.619 74.8L113.827 72.952C114.419 72.632 115.091 72.368 115.843 72.16C116.611 71.936 117.419 71.824 118.267 71.824ZM118.723 78.832C117.411 78.896 116.499 79.144 115.987 79.576C115.475 79.992 115.219 80.584 115.219 81.352C115.219 82.024 115.395 82.512 115.747 82.816C116.115 83.12 116.587 83.272 117.163 83.272C118.043 83.272 118.779 82.992 119.371 82.432C119.979 81.872 120.283 81.032 120.283 79.912V78.784L118.723 78.832ZM132.617 71.824C132.825 71.824 133.057 71.84 133.313 71.872C133.569 71.888 133.785 71.912 133.961 71.944L133.697 74.32C133.521 74.272 133.321 74.232 133.097 74.2C132.873 74.168 132.649 74.152 132.425 74.152C131.993 74.152 131.577 74.248 131.177 74.44C130.777 74.616 130.417 74.88 130.097 75.232C129.777 75.568 129.521 75.984 129.329 76.48C129.137 76.976 129.041 77.544 129.041 78.184V85H126.449V72.064H128.489L128.825 74.368H128.969C129.209 73.904 129.505 73.48 129.857 73.096C130.225 72.712 130.641 72.408 131.105 72.184C131.569 71.944 132.073 71.824 132.617 71.824ZM138.768 72.064V85H136.152V72.064H138.768ZM137.496 67.144C137.88 67.144 138.216 67.256 138.504 67.48C138.792 67.704 138.936 68.08 138.936 68.608C138.936 69.12 138.792 69.496 138.504 69.736C138.216 69.96 137.88 70.072 137.496 70.072C137.08 70.072 136.728 69.96 136.44 69.736C136.152 69.496 136.008 69.12 136.008 68.608C136.008 68.08 136.152 67.704 136.44 67.48C136.728 67.256 137.08 67.144 137.496 67.144ZM146.994 83.176C147.33 83.176 147.658 83.144 147.978 83.08C148.298 83.016 148.578 82.944 148.818 82.864V84.784C148.546 84.912 148.186 85.016 147.738 85.096C147.306 85.192 146.85 85.24 146.37 85.24C145.698 85.24 145.082 85.12 144.522 84.88C143.962 84.64 143.514 84.224 143.178 83.632C142.842 83.04 142.674 82.216 142.674 81.16V74.008H141.018V72.856L142.794 71.896L143.682 69.16H145.29V72.064H148.722V74.008H145.29V81.112C145.29 81.816 145.45 82.336 145.77 82.672C146.09 83.008 146.498 83.176 146.994 83.176ZM161.234 85.24C159.794 85.24 158.626 84.68 157.73 83.56C156.85 82.44 156.41 80.776 156.41 78.568C156.41 76.344 156.858 74.664 157.754 73.528C158.65 72.392 159.826 71.824 161.282 71.824C161.906 71.824 162.442 71.912 162.89 72.088C163.338 72.248 163.73 72.472 164.066 72.76C164.402 73.048 164.682 73.368 164.906 73.72H165.05C165.018 73.496 164.978 73.176 164.93 72.76C164.898 72.328 164.882 71.944 164.882 71.608V66.76H167.474V85H165.434L164.978 83.272H164.882C164.658 83.64 164.378 83.976 164.042 84.28C163.706 84.568 163.306 84.8 162.842 84.976C162.394 85.152 161.858 85.24 161.234 85.24ZM161.93 83.152C163.05 83.152 163.834 82.808 164.282 82.12C164.746 81.416 164.978 80.368 164.978 78.976V78.592C164.978 77.072 164.762 75.912 164.33 75.112C163.898 74.312 163.09 73.912 161.906 73.912C160.978 73.912 160.274 74.336 159.794 75.184C159.314 76.016 159.074 77.16 159.074 78.616C159.074 80.072 159.314 81.192 159.794 81.976C160.274 82.76 160.986 83.152 161.93 83.152ZM176.017 71.824C177.089 71.824 178.017 72.064 178.801 72.544C179.585 73.008 180.185 73.68 180.601 74.56C181.033 75.44 181.249 76.48 181.249 77.68V79.072H173.113C173.145 80.4 173.465 81.416 174.073 82.12C174.681 82.824 175.537 83.176 176.641 83.176C177.425 83.176 178.121 83.104 178.729 82.96C179.353 82.8 179.985 82.568 180.625 82.264V84.376C180.017 84.664 179.393 84.88 178.753 85.024C178.129 85.168 177.369 85.24 176.473 85.24C175.305 85.24 174.265 84.992 173.353 84.496C172.441 84 171.729 83.264 171.217 82.288C170.705 81.296 170.449 80.08 170.449 78.64C170.449 77.184 170.681 75.952 171.145 74.944C171.609 73.936 172.257 73.168 173.089 72.64C173.937 72.096 174.913 71.824 176.017 71.824ZM176.017 73.792C175.201 73.792 174.545 74.088 174.049 74.68C173.553 75.272 173.265 76.112 173.185 77.2H178.681C178.681 76.528 178.585 75.936 178.393 75.424C178.201 74.912 177.905 74.512 177.505 74.224C177.121 73.936 176.625 73.792 176.017 73.792ZM203.812 71.824C205.188 71.824 206.22 72.2 206.908 72.952C207.612 73.704 207.964 74.912 207.964 76.576V85H205.372V76.912C205.372 75.92 205.188 75.176 204.82 74.68C204.468 74.168 203.916 73.912 203.164 73.912C202.124 73.912 201.38 74.272 200.932 74.992C200.5 75.696 200.284 76.72 200.284 78.064V85H197.668V76.912C197.668 76.256 197.588 75.704 197.428 75.256C197.268 74.808 197.028 74.472 196.708 74.248C196.388 74.024 195.972 73.912 195.46 73.912C194.74 73.912 194.172 74.088 193.756 74.44C193.34 74.792 193.044 75.312 192.868 76C192.692 76.672 192.604 77.496 192.604 78.472V85H190.012V72.064H192.052L192.436 73.792H192.556C192.812 73.344 193.116 72.976 193.468 72.688C193.836 72.4 194.252 72.184 194.716 72.04C195.18 71.896 195.66 71.824 196.156 71.824C197.068 71.824 197.836 72 198.46 72.352C199.084 72.688 199.548 73.208 199.852 73.912H200.02C200.404 73.192 200.94 72.664 201.628 72.328C202.316 71.992 203.044 71.824 203.812 71.824ZM216.423 71.824C217.495 71.824 218.423 72.064 219.207 72.544C219.991 73.008 220.591 73.68 221.007 74.56C221.439 75.44 221.655 76.48 221.655 77.68V79.072H213.519C213.551 80.4 213.871 81.416 214.479 82.12C215.087 82.824 215.943 83.176 217.047 83.176C217.831 83.176 218.527 83.104 219.135 82.96C219.759 82.8 220.391 82.568 221.031 82.264V84.376C220.423 84.664 219.799 84.88 219.159 85.024C218.535 85.168 217.775 85.24 216.879 85.24C215.711 85.24 214.671 84.992 213.759 84.496C212.847 84 212.135 83.264 211.623 82.288C211.111 81.296 210.855 80.08 210.855 78.64C210.855 77.184 211.087 75.952 211.551 74.944C212.015 73.936 212.663 73.168 213.495 72.64C214.343 72.096 215.319 71.824 216.423 71.824ZM216.423 73.792C215.607 73.792 214.951 74.088 214.455 74.68C213.959 75.272 213.671 76.112 213.591 77.2H219.087C219.087 76.528 218.991 75.936 218.799 75.424C218.607 74.912 218.311 74.512 217.911 74.224C217.527 73.936 217.031 73.792 216.423 73.792ZM232.79 81.352C232.79 82.2 232.598 82.912 232.214 83.488C231.83 84.064 231.27 84.504 230.534 84.808C229.798 85.096 228.894 85.24 227.822 85.24C226.974 85.24 226.23 85.168 225.59 85.024C224.966 84.896 224.39 84.704 223.862 84.448V82.216C224.422 82.488 225.062 82.736 225.782 82.96C226.502 83.168 227.19 83.272 227.846 83.272C228.694 83.272 229.31 83.12 229.694 82.816C230.078 82.512 230.27 82.104 230.27 81.592C230.27 81.304 230.19 81.048 230.03 80.824C229.886 80.584 229.606 80.344 229.19 80.104C228.774 79.848 228.174 79.56 227.39 79.24C226.622 78.904 225.974 78.576 225.446 78.256C224.934 77.92 224.534 77.528 224.246 77.08C223.974 76.616 223.838 76.024 223.838 75.304C223.838 74.184 224.27 73.328 225.134 72.736C225.998 72.128 227.126 71.824 228.518 71.824C229.286 71.824 229.998 71.904 230.654 72.064C231.31 72.208 231.95 72.432 232.574 72.736L231.782 74.68C231.414 74.504 231.038 74.36 230.654 74.248C230.286 74.12 229.918 74.016 229.55 73.936C229.182 73.856 228.814 73.816 228.446 73.816C227.758 73.816 227.238 73.936 226.886 74.176C226.534 74.416 226.358 74.752 226.358 75.184C226.358 75.504 226.438 75.776 226.598 76C226.774 76.224 227.07 76.448 227.486 76.672C227.918 76.896 228.51 77.16 229.262 77.464C230.014 77.768 230.654 78.08 231.182 78.4C231.71 78.72 232.11 79.112 232.382 79.576C232.654 80.04 232.79 80.632 232.79 81.352ZM243.806 81.352C243.806 82.2 243.614 82.912 243.23 83.488C242.846 84.064 242.286 84.504 241.55 84.808C240.814 85.096 239.91 85.24 238.838 85.24C237.99 85.24 237.246 85.168 236.606 85.024C235.982 84.896 235.406 84.704 234.878 84.448V82.216C235.438 82.488 236.078 82.736 236.798 82.96C237.518 83.168 238.206 83.272 238.862 83.272C239.71 83.272 240.326 83.12 240.71 82.816C241.094 82.512 241.286 82.104 241.286 81.592C241.286 81.304 241.206 81.048 241.046 80.824C240.902 80.584 240.622 80.344 240.206 80.104C239.79 79.848 239.19 79.56 238.406 79.24C237.638 78.904 236.99 78.576 236.462 78.256C235.95 77.92 235.55 77.528 235.262 77.08C234.99 76.616 234.854 76.024 234.854 75.304C234.854 74.184 235.286 73.328 236.15 72.736C237.014 72.128 238.142 71.824 239.534 71.824C240.302 71.824 241.014 71.904 241.67 72.064C242.326 72.208 242.966 72.432 243.59 72.736L242.798 74.68C242.43 74.504 242.054 74.36 241.67 74.248C241.302 74.12 240.934 74.016 240.566 73.936C240.198 73.856 239.83 73.816 239.462 73.816C238.774 73.816 238.254 73.936 237.902 74.176C237.55 74.416 237.374 74.752 237.374 75.184C237.374 75.504 237.454 75.776 237.614 76C237.79 76.224 238.086 76.448 238.502 76.672C238.934 76.896 239.526 77.16 240.278 77.464C241.03 77.768 241.67 78.08 242.198 78.4C242.726 78.72 243.126 79.112 243.398 79.576C243.67 80.04 243.806 80.632 243.806 81.352ZM251.486 71.824C253.006 71.824 254.15 72.184 254.918 72.904C255.702 73.608 256.094 74.72 256.094 76.24V85H254.246L253.742 83.2H253.646C253.278 83.664 252.91 84.048 252.542 84.352C252.19 84.656 251.774 84.88 251.294 85.024C250.83 85.168 250.254 85.24 249.566 85.24C248.846 85.24 248.198 85.104 247.622 84.832C247.046 84.544 246.59 84.112 246.254 83.536C245.918 82.944 245.75 82.208 245.75 81.328C245.75 80.016 246.214 79.016 247.142 78.328C248.086 77.64 249.518 77.264 251.438 77.2L253.502 77.128V76.408C253.502 75.448 253.302 74.776 252.902 74.392C252.518 74.008 251.974 73.816 251.27 73.816C250.678 73.816 250.094 73.912 249.518 74.104C248.942 74.296 248.382 74.528 247.838 74.8L247.046 72.952C247.638 72.632 248.31 72.368 249.062 72.16C249.83 71.936 250.638 71.824 251.486 71.824ZM251.942 78.832C250.63 78.896 249.718 79.144 249.206 79.576C248.694 79.992 248.438 80.584 248.438 81.352C248.438 82.024 248.614 82.512 248.966 82.816C249.334 83.12 249.806 83.272 250.382 83.272C251.262 83.272 251.998 82.992 252.59 82.432C253.198 81.872 253.502 81.032 253.502 79.912V78.784L251.942 78.832ZM263.868 71.824C264.652 71.824 265.348 71.984 265.956 72.304C266.58 72.624 267.108 73.112 267.54 73.768H267.636L267.924 72.064H270.06V85.168C270.06 86.384 269.852 87.408 269.436 88.24C269.02 89.072 268.388 89.696 267.54 90.112C266.692 90.544 265.62 90.76 264.324 90.76C263.428 90.76 262.612 90.696 261.876 90.568C261.156 90.44 260.484 90.24 259.86 89.968V87.736C260.276 87.96 260.724 88.144 261.204 88.288C261.684 88.448 262.188 88.56 262.716 88.624C263.26 88.704 263.82 88.744 264.396 88.744C265.388 88.744 266.148 88.44 266.676 87.832C267.22 87.24 267.492 86.4 267.492 85.312V84.88C267.492 84.672 267.5 84.4 267.516 84.064C267.532 83.712 267.548 83.456 267.564 83.296H267.468C267.068 83.968 266.564 84.464 265.956 84.784C265.364 85.088 264.66 85.24 263.844 85.24C262.34 85.24 261.156 84.656 260.292 83.488C259.428 82.304 258.996 80.664 258.996 78.568C258.996 77.16 259.188 75.96 259.572 74.968C259.972 73.96 260.532 73.184 261.252 72.64C261.988 72.096 262.86 71.824 263.868 71.824ZM264.492 73.936C263.884 73.936 263.372 74.12 262.956 74.488C262.54 74.84 262.22 75.36 261.996 76.048C261.788 76.736 261.684 77.584 261.684 78.592C261.684 80.096 261.924 81.24 262.404 82.024C262.884 82.808 263.588 83.2 264.516 83.2C265.06 83.2 265.524 83.12 265.908 82.96C266.292 82.8 266.604 82.552 266.844 82.216C267.1 81.88 267.284 81.456 267.396 80.944C267.524 80.416 267.588 79.784 267.588 79.048V78.568C267.588 77.464 267.476 76.576 267.252 75.904C267.044 75.216 266.708 74.72 266.244 74.416C265.796 74.096 265.212 73.936 264.492 73.936ZM278.603 71.824C279.675 71.824 280.603 72.064 281.387 72.544C282.171 73.008 282.771 73.68 283.187 74.56C283.619 75.44 283.835 76.48 283.835 77.68V79.072H275.699C275.731 80.4 276.051 81.416 276.659 82.12C277.267 82.824 278.123 83.176 279.227 83.176C280.011 83.176 280.707 83.104 281.315 82.96C281.939 82.8 282.571 82.568 283.211 82.264V84.376C282.603 84.664 281.979 84.88 281.339 85.024C280.715 85.168 279.955 85.24 279.059 85.24C277.891 85.24 276.851 84.992 275.939 84.496C275.027 84 274.315 83.264 273.803 82.288C273.291 81.296 273.035 80.08 273.035 78.64C273.035 77.184 273.267 75.952 273.731 74.944C274.195 73.936 274.843 73.168 275.675 72.64C276.523 72.096 277.499 71.824 278.603 71.824ZM278.603 73.792C277.787 73.792 277.131 74.088 276.635 74.68C276.139 75.272 275.851 76.112 275.771 77.2H281.267C281.267 76.528 281.171 75.936 280.979 75.424C280.787 74.912 280.491 74.512 280.091 74.224C279.707 73.936 279.211 73.792 278.603 73.792Z" fill="black"/>
<path d="M73.768 115L70.478 106.236H70.422C70.4407 106.423 70.4547 106.661 70.464 106.95C70.4827 107.239 70.4967 107.557 70.506 107.902C70.5153 108.238 70.52 108.583 70.52 108.938V115H69.358V105.004H71.22L74.3 113.194H74.356L77.492 105.004H79.34V115H78.094V108.854C78.094 108.527 78.0987 108.205 78.108 107.888C78.1173 107.561 78.1313 107.258 78.15 106.978C78.1687 106.689 78.1827 106.446 78.192 106.25H78.136L74.804 115H73.768ZM84.7892 107.356C85.4332 107.356 85.9838 107.496 86.4412 107.776C86.9078 108.056 87.2625 108.453 87.5052 108.966C87.7572 109.47 87.8832 110.063 87.8832 110.744V111.486H82.7452C82.7638 112.335 82.9785 112.984 83.3892 113.432C83.8092 113.871 84.3925 114.09 85.1392 114.09C85.6152 114.09 86.0352 114.048 86.3992 113.964C86.7725 113.871 87.1552 113.74 87.5472 113.572V114.65C87.1645 114.818 86.7865 114.939 86.4132 115.014C86.0398 115.098 85.5965 115.14 85.0832 115.14C84.3738 115.14 83.7438 114.995 83.1932 114.706C82.6518 114.417 82.2272 113.987 81.9192 113.418C81.6205 112.839 81.4712 112.135 81.4712 111.304C81.4712 110.483 81.6065 109.778 81.8772 109.19C82.1572 108.602 82.5445 108.149 83.0392 107.832C83.5432 107.515 84.1265 107.356 84.7892 107.356ZM84.7752 108.364C84.1872 108.364 83.7205 108.555 83.3752 108.938C83.0392 109.311 82.8385 109.834 82.7732 110.506H86.5952C86.5952 110.077 86.5298 109.703 86.3992 109.386C86.2685 109.069 86.0678 108.821 85.7972 108.644C85.5358 108.457 85.1952 108.364 84.7752 108.364ZM94.6795 112.928C94.6795 113.413 94.5582 113.819 94.3155 114.146C94.0728 114.473 93.7275 114.72 93.2795 114.888C92.8315 115.056 92.2995 115.14 91.6835 115.14C91.1608 115.14 90.7082 115.098 90.3255 115.014C89.9522 114.93 89.6208 114.813 89.3315 114.664V113.544C89.6302 113.693 89.9895 113.833 90.4095 113.964C90.8388 114.085 91.2728 114.146 91.7115 114.146C92.3368 114.146 92.7895 114.048 93.0695 113.852C93.3495 113.647 93.4895 113.376 93.4895 113.04C93.4895 112.853 93.4382 112.685 93.3355 112.536C93.2328 112.387 93.0462 112.237 92.7755 112.088C92.5142 111.939 92.1362 111.771 91.6415 111.584C91.1562 111.397 90.7408 111.211 90.3955 111.024C90.0502 110.837 89.7842 110.613 89.5975 110.352C89.4108 110.091 89.3175 109.755 89.3175 109.344C89.3175 108.709 89.5742 108.219 90.0875 107.874C90.6102 107.529 91.2915 107.356 92.1315 107.356C92.5888 107.356 93.0135 107.403 93.4055 107.496C93.8068 107.58 94.1802 107.701 94.5255 107.86L94.1055 108.84C93.9002 108.747 93.6808 108.667 93.4475 108.602C93.2235 108.527 92.9948 108.471 92.7615 108.434C92.5282 108.387 92.2902 108.364 92.0475 108.364C91.5435 108.364 91.1562 108.448 90.8855 108.616C90.6242 108.775 90.4935 108.994 90.4935 109.274C90.4935 109.479 90.5542 109.657 90.6755 109.806C90.7968 109.946 90.9975 110.086 91.2775 110.226C91.5668 110.357 91.9495 110.515 92.4255 110.702C92.9015 110.879 93.3075 111.061 93.6435 111.248C93.9795 111.435 94.2362 111.663 94.4135 111.934C94.5908 112.195 94.6795 112.527 94.6795 112.928ZM101.379 112.928C101.379 113.413 101.257 113.819 101.015 114.146C100.772 114.473 100.427 114.72 99.9787 114.888C99.5307 115.056 98.9987 115.14 98.3827 115.14C97.8601 115.14 97.4074 115.098 97.0247 115.014C96.6514 114.93 96.3201 114.813 96.0307 114.664V113.544C96.3294 113.693 96.6887 113.833 97.1087 113.964C97.5381 114.085 97.9721 114.146 98.4107 114.146C99.0361 114.146 99.4887 114.048 99.7687 113.852C100.049 113.647 100.189 113.376 100.189 113.04C100.189 112.853 100.137 112.685 100.035 112.536C99.9321 112.387 99.7454 112.237 99.4747 112.088C99.2134 111.939 98.8354 111.771 98.3407 111.584C97.8554 111.397 97.4401 111.211 97.0947 111.024C96.7494 110.837 96.4834 110.613 96.2967 110.352C96.1101 110.091 96.0167 109.755 96.0167 109.344C96.0167 108.709 96.2734 108.219 96.7867 107.874C97.3094 107.529 97.9907 107.356 98.8307 107.356C99.2881 107.356 99.7127 107.403 100.105 107.496C100.506 107.58 100.879 107.701 101.225 107.86L100.805 108.84C100.599 108.747 100.38 108.667 100.147 108.602C99.9227 108.527 99.6941 108.471 99.4607 108.434C99.2274 108.387 98.9894 108.364 98.7467 108.364C98.2427 108.364 97.8554 108.448 97.5847 108.616C97.3234 108.775 97.1927 108.994 97.1927 109.274C97.1927 109.479 97.2534 109.657 97.3747 109.806C97.4961 109.946 97.6967 110.086 97.9767 110.226C98.2661 110.357 98.6487 110.515 99.1247 110.702C99.6007 110.879 100.007 111.061 100.343 111.248C100.679 111.435 100.935 111.663 101.113 111.934C101.29 112.195 101.379 112.527 101.379 112.928ZM106.034 107.37C106.949 107.37 107.625 107.571 108.064 107.972C108.503 108.373 108.722 109.013 108.722 109.89V115H107.826L107.588 113.936H107.532C107.317 114.207 107.093 114.435 106.86 114.622C106.636 114.799 106.375 114.93 106.076 115.014C105.787 115.098 105.432 115.14 105.012 115.14C104.564 115.14 104.158 115.061 103.794 114.902C103.439 114.743 103.159 114.501 102.954 114.174C102.749 113.838 102.646 113.418 102.646 112.914C102.646 112.167 102.94 111.593 103.528 111.192C104.116 110.781 105.021 110.557 106.244 110.52L107.518 110.478V110.03C107.518 109.405 107.383 108.971 107.112 108.728C106.841 108.485 106.459 108.364 105.964 108.364C105.572 108.364 105.199 108.425 104.844 108.546C104.489 108.658 104.158 108.789 103.85 108.938L103.472 108.014C103.799 107.837 104.186 107.687 104.634 107.566C105.082 107.435 105.549 107.37 106.034 107.37ZM106.398 111.374C105.465 111.411 104.816 111.561 104.452 111.822C104.097 112.083 103.92 112.452 103.92 112.928C103.92 113.348 104.046 113.656 104.298 113.852C104.559 114.048 104.891 114.146 105.292 114.146C105.927 114.146 106.454 113.973 106.874 113.628C107.294 113.273 107.504 112.732 107.504 112.004V111.332L106.398 111.374ZM113.7 107.356C114.194 107.356 114.638 107.449 115.03 107.636C115.431 107.823 115.772 108.107 116.052 108.49H116.122L116.29 107.496H117.27V115.126C117.27 115.835 117.148 116.428 116.906 116.904C116.663 117.389 116.294 117.753 115.8 117.996C115.305 118.239 114.675 118.36 113.91 118.36C113.368 118.36 112.869 118.318 112.412 118.234C111.964 118.159 111.562 118.043 111.208 117.884V116.75C111.45 116.871 111.716 116.974 112.006 117.058C112.295 117.151 112.608 117.221 112.944 117.268C113.28 117.315 113.625 117.338 113.98 117.338C114.624 117.338 115.128 117.147 115.492 116.764C115.865 116.391 116.052 115.877 116.052 115.224V114.93C116.052 114.818 116.056 114.659 116.066 114.454C116.075 114.239 116.084 114.09 116.094 114.006H116.038C115.776 114.389 115.45 114.673 115.058 114.86C114.675 115.047 114.227 115.14 113.714 115.14C112.743 115.14 111.982 114.799 111.432 114.118C110.89 113.437 110.62 112.485 110.62 111.262C110.62 110.459 110.741 109.769 110.984 109.19C111.236 108.602 111.59 108.149 112.048 107.832C112.505 107.515 113.056 107.356 113.7 107.356ZM113.868 108.392C113.448 108.392 113.088 108.504 112.79 108.728C112.5 108.952 112.276 109.279 112.118 109.708C111.968 110.137 111.894 110.66 111.894 111.276C111.894 112.2 112.062 112.909 112.398 113.404C112.743 113.889 113.242 114.132 113.896 114.132C114.278 114.132 114.605 114.085 114.876 113.992C115.146 113.889 115.37 113.735 115.548 113.53C115.725 113.315 115.856 113.045 115.94 112.718C116.024 112.391 116.066 112.004 116.066 111.556V111.262C116.066 110.581 115.986 110.03 115.828 109.61C115.678 109.19 115.44 108.882 115.114 108.686C114.787 108.49 114.372 108.392 113.868 108.392ZM122.551 107.356C123.195 107.356 123.746 107.496 124.203 107.776C124.67 108.056 125.024 108.453 125.267 108.966C125.519 109.47 125.645 110.063 125.645 110.744V111.486H120.507C120.526 112.335 120.74 112.984 121.151 113.432C121.571 113.871 122.154 114.09 122.901 114.09C123.377 114.09 123.797 114.048 124.161 113.964C124.534 113.871 124.917 113.74 125.309 113.572V114.65C124.926 114.818 124.548 114.939 124.175 115.014C123.802 115.098 123.358 115.14 122.845 115.14C122.136 115.14 121.506 114.995 120.955 114.706C120.414 114.417 119.989 113.987 119.681 113.418C119.382 112.839 119.233 112.135 119.233 111.304C119.233 110.483 119.368 109.778 119.639 109.19C119.919 108.602 120.306 108.149 120.801 107.832C121.305 107.515 121.888 107.356 122.551 107.356ZM122.537 108.364C121.949 108.364 121.482 108.555 121.137 108.938C120.801 109.311 120.6 109.834 120.535 110.506H124.357C124.357 110.077 124.292 109.703 124.161 109.386C124.03 109.069 123.83 108.821 123.559 108.644C123.298 108.457 122.957 108.364 122.537 108.364Z" fill="black"/>
<rect x="221" y="204" width="44" height="12" rx="4" fill="#F6BE00"/>
<rect x="160" y="204" width="35" height="12" rx="4" fill="#F6BE00"/>
<rect x="120" y="141" width="58" height="12" rx="4" fill="#F6BE00"/>
<path d="M85.028 148.326C85.028 148.923 84.8833 149.432 84.594 149.852C84.3047 150.263 83.8893 150.58 83.348 150.804C82.816 151.028 82.186 151.14 81.458 151.14C81.0847 151.14 80.7253 151.121 80.38 151.084C80.044 151.047 79.736 150.995 79.456 150.93C79.176 150.855 78.9287 150.767 78.714 150.664V149.46C79.05 149.609 79.4653 149.745 79.96 149.866C80.464 149.987 80.982 150.048 81.514 150.048C82.0087 150.048 82.424 149.983 82.76 149.852C83.096 149.721 83.348 149.535 83.516 149.292C83.684 149.049 83.768 148.765 83.768 148.438C83.768 148.111 83.698 147.836 83.558 147.612C83.418 147.388 83.1753 147.183 82.83 146.996C82.494 146.8 82.0227 146.595 81.416 146.38C80.9867 146.221 80.6087 146.053 80.282 145.876C79.9647 145.689 79.6987 145.479 79.484 145.246C79.2693 145.013 79.106 144.747 78.994 144.448C78.8913 144.149 78.84 143.804 78.84 143.412C78.84 142.88 78.9753 142.427 79.246 142.054C79.5167 141.671 79.89 141.377 80.366 141.172C80.8513 140.967 81.4067 140.864 82.032 140.864C82.5827 140.864 83.0867 140.915 83.544 141.018C84.0013 141.121 84.4167 141.256 84.79 141.424L84.398 142.502C84.0527 142.353 83.6747 142.227 83.264 142.124C82.8627 142.021 82.4427 141.97 82.004 141.97C81.584 141.97 81.234 142.031 80.954 142.152C80.674 142.273 80.464 142.446 80.324 142.67C80.184 142.885 80.114 143.137 80.114 143.426C80.114 143.762 80.184 144.042 80.324 144.266C80.464 144.49 80.6927 144.691 81.01 144.868C81.3273 145.045 81.7567 145.237 82.298 145.442C82.886 145.657 83.3807 145.89 83.782 146.142C84.1927 146.385 84.5007 146.679 84.706 147.024C84.9207 147.369 85.028 147.803 85.028 148.326ZM89.7156 143.37C90.6303 143.37 91.3069 143.571 91.7456 143.972C92.1843 144.373 92.4036 145.013 92.4036 145.89V151H91.5076L91.2696 149.936H91.2136C90.9989 150.207 90.7749 150.435 90.5416 150.622C90.3176 150.799 90.0563 150.93 89.7576 151.014C89.4683 151.098 89.1136 151.14 88.6936 151.14C88.2456 151.14 87.8396 151.061 87.4756 150.902C87.1209 150.743 86.8409 150.501 86.6356 150.174C86.4303 149.838 86.3276 149.418 86.3276 148.914C86.3276 148.167 86.6216 147.593 87.2096 147.192C87.7976 146.781 88.7029 146.557 89.9256 146.52L91.1996 146.478V146.03C91.1996 145.405 91.0643 144.971 90.7936 144.728C90.5229 144.485 90.1403 144.364 89.6456 144.364C89.2536 144.364 88.8803 144.425 88.5256 144.546C88.1709 144.658 87.8396 144.789 87.5316 144.938L87.1536 144.014C87.4803 143.837 87.8676 143.687 88.3156 143.566C88.7636 143.435 89.2303 143.37 89.7156 143.37ZM90.0796 147.374C89.1463 147.411 88.4976 147.561 88.1336 147.822C87.7789 148.083 87.6016 148.452 87.6016 148.928C87.6016 149.348 87.7276 149.656 87.9796 149.852C88.2409 150.048 88.5723 150.146 88.9736 150.146C89.6083 150.146 90.1356 149.973 90.5556 149.628C90.9756 149.273 91.1856 148.732 91.1856 148.004V147.332L90.0796 147.374ZM95.9533 151H94.7213V140.36H95.9533V151ZM104.603 143.496V151H103.595L103.413 150.006H103.357C103.198 150.267 102.993 150.482 102.741 150.65C102.489 150.818 102.213 150.939 101.915 151.014C101.616 151.098 101.303 151.14 100.977 151.14C100.379 151.14 99.8753 151.047 99.4646 150.86C99.0633 150.664 98.76 150.365 98.5546 149.964C98.3493 149.563 98.2466 149.045 98.2466 148.41V143.496H99.4926V148.326C99.4926 148.923 99.628 149.371 99.8986 149.67C100.169 149.969 100.589 150.118 101.159 150.118C101.719 150.118 102.157 150.015 102.475 149.81C102.801 149.595 103.03 149.287 103.161 148.886C103.301 148.475 103.371 147.981 103.371 147.402V143.496H104.603ZM109.491 150.132C109.678 150.132 109.869 150.118 110.065 150.09C110.261 150.053 110.42 150.015 110.541 149.978V150.916C110.41 150.981 110.224 151.033 109.981 151.07C109.738 151.117 109.505 151.14 109.281 151.14C108.889 151.14 108.525 151.075 108.189 150.944C107.862 150.804 107.596 150.566 107.391 150.23C107.186 149.894 107.083 149.423 107.083 148.816V144.448H106.019V143.86L107.097 143.37L107.587 141.774H108.315V143.496H110.485V144.448H108.315V148.788C108.315 149.245 108.422 149.586 108.637 149.81C108.861 150.025 109.146 150.132 109.491 150.132ZM115.05 147.164C115.05 146.399 115.12 145.652 115.26 144.924C115.41 144.196 115.638 143.501 115.946 142.838C116.254 142.175 116.642 141.564 117.108 141.004H118.27C117.841 141.583 117.477 142.208 117.178 142.88C116.889 143.552 116.67 144.247 116.52 144.966C116.371 145.685 116.296 146.413 116.296 147.15C116.296 147.869 116.371 148.583 116.52 149.292C116.67 150.001 116.889 150.683 117.178 151.336C117.468 151.999 117.827 152.624 118.256 153.212H117.108C116.642 152.661 116.254 152.059 115.946 151.406C115.638 150.762 115.41 150.081 115.26 149.362C115.12 148.643 115.05 147.911 115.05 147.164ZM119.248 147.164C119.248 146.399 119.318 145.652 119.458 144.924C119.607 144.196 119.836 143.501 120.144 142.838C120.452 142.175 120.839 141.564 121.306 141.004H122.468C122.038 141.583 121.674 142.208 121.376 142.88C121.086 143.552 120.867 144.247 120.718 144.966C120.568 145.685 120.494 146.413 120.494 147.15C120.494 147.869 120.568 148.583 120.718 149.292C120.867 150.001 121.086 150.683 121.376 151.336C121.665 151.999 122.024 152.624 122.454 153.212H121.306C120.839 152.661 120.452 152.059 120.144 151.406C119.836 150.762 119.607 150.081 119.458 149.362C119.318 148.643 119.248 147.911 119.248 147.164ZM127.645 143.356C128.569 143.356 129.311 143.678 129.871 144.322C130.44 144.966 130.725 145.937 130.725 147.234C130.725 148.083 130.594 148.802 130.333 149.39C130.081 149.969 129.721 150.407 129.255 150.706C128.797 150.995 128.256 151.14 127.631 151.14C127.248 151.14 126.907 151.089 126.609 150.986C126.31 150.883 126.053 150.753 125.839 150.594C125.633 150.426 125.456 150.244 125.307 150.048H125.223C125.241 150.207 125.26 150.407 125.279 150.65C125.297 150.893 125.307 151.103 125.307 151.28V154.36H124.075V143.496H125.083L125.251 144.518H125.307C125.456 144.303 125.633 144.107 125.839 143.93C126.053 143.753 126.305 143.613 126.595 143.51C126.893 143.407 127.243 143.356 127.645 143.356ZM127.421 144.392C126.917 144.392 126.511 144.49 126.203 144.686C125.895 144.873 125.671 145.157 125.531 145.54C125.391 145.923 125.316 146.408 125.307 146.996V147.234C125.307 147.85 125.372 148.373 125.503 148.802C125.633 149.231 125.853 149.558 126.161 149.782C126.478 150.006 126.907 150.118 127.449 150.118C127.906 150.118 128.279 149.992 128.569 149.74C128.867 149.488 129.087 149.147 129.227 148.718C129.376 148.279 129.451 147.78 129.451 147.22C129.451 146.361 129.283 145.675 128.947 145.162C128.62 144.649 128.111 144.392 127.421 144.392ZM136.188 143.356C136.328 143.356 136.477 143.365 136.636 143.384C136.804 143.393 136.949 143.412 137.07 143.44L136.916 144.574C136.795 144.546 136.659 144.523 136.51 144.504C136.37 144.485 136.235 144.476 136.104 144.476C135.815 144.476 135.539 144.537 135.278 144.658C135.017 144.779 134.783 144.952 134.578 145.176C134.373 145.391 134.209 145.652 134.088 145.96C133.976 146.268 133.92 146.613 133.92 146.996V151H132.688V143.496H133.696L133.836 144.868H133.892C134.051 144.588 134.242 144.336 134.466 144.112C134.69 143.879 134.947 143.697 135.236 143.566C135.525 143.426 135.843 143.356 136.188 143.356ZM141.096 143.356C141.74 143.356 142.29 143.496 142.748 143.776C143.214 144.056 143.569 144.453 143.812 144.966C144.064 145.47 144.19 146.063 144.19 146.744V147.486H139.052C139.07 148.335 139.285 148.984 139.696 149.432C140.116 149.871 140.699 150.09 141.446 150.09C141.922 150.09 142.342 150.048 142.706 149.964C143.079 149.871 143.462 149.74 143.854 149.572V150.65C143.471 150.818 143.093 150.939 142.72 151.014C142.346 151.098 141.903 151.14 141.39 151.14C140.68 151.14 140.05 150.995 139.5 150.706C138.958 150.417 138.534 149.987 138.226 149.418C137.927 148.839 137.778 148.135 137.778 147.304C137.778 146.483 137.913 145.778 138.184 145.19C138.464 144.602 138.851 144.149 139.346 143.832C139.85 143.515 140.433 143.356 141.096 143.356ZM141.082 144.364C140.494 144.364 140.027 144.555 139.682 144.938C139.346 145.311 139.145 145.834 139.08 146.506H142.902C142.902 146.077 142.836 145.703 142.706 145.386C142.575 145.069 142.374 144.821 142.104 144.644C141.842 144.457 141.502 144.364 141.082 144.364ZM143.07 140.416C142.986 140.547 142.864 140.705 142.706 140.892C142.547 141.079 142.37 141.275 142.174 141.48C141.987 141.676 141.796 141.867 141.6 142.054C141.413 142.231 141.236 142.385 141.068 142.516H140.256V142.348C140.396 142.171 140.545 141.961 140.704 141.718C140.872 141.475 141.035 141.228 141.194 140.976C141.352 140.715 141.483 140.481 141.586 140.276H143.07V140.416ZM149.712 143.356C150.608 143.356 151.285 143.575 151.742 144.014C152.199 144.443 152.428 145.143 152.428 146.114V151H151.21V146.198C151.21 145.591 151.075 145.139 150.804 144.84C150.533 144.541 150.109 144.392 149.53 144.392C148.699 144.392 148.125 144.625 147.808 145.092C147.491 145.559 147.332 146.231 147.332 147.108V151H146.1V143.496H147.094L147.276 144.518H147.346C147.514 144.257 147.719 144.042 147.962 143.874C148.214 143.697 148.489 143.566 148.788 143.482C149.087 143.398 149.395 143.356 149.712 143.356ZM161.278 147.234C161.278 147.859 161.194 148.415 161.026 148.9C160.868 149.376 160.634 149.782 160.326 150.118C160.028 150.454 159.659 150.711 159.22 150.888C158.791 151.056 158.31 151.14 157.778 151.14C157.284 151.14 156.826 151.056 156.406 150.888C155.986 150.711 155.622 150.454 155.314 150.118C155.006 149.782 154.764 149.376 154.586 148.9C154.418 148.415 154.334 147.859 154.334 147.234C154.334 146.403 154.474 145.703 154.754 145.134C155.034 144.555 155.436 144.117 155.958 143.818C156.481 143.51 157.102 143.356 157.82 143.356C158.502 143.356 159.099 143.51 159.612 143.818C160.135 144.117 160.541 144.555 160.83 145.134C161.129 145.703 161.278 146.403 161.278 147.234ZM155.608 147.234C155.608 147.822 155.683 148.335 155.832 148.774C155.991 149.203 156.234 149.535 156.56 149.768C156.887 150.001 157.302 150.118 157.806 150.118C158.31 150.118 158.726 150.001 159.052 149.768C159.379 149.535 159.617 149.203 159.766 148.774C159.925 148.335 160.004 147.822 160.004 147.234C160.004 146.637 159.925 146.128 159.766 145.708C159.608 145.288 159.365 144.966 159.038 144.742C158.721 144.509 158.306 144.392 157.792 144.392C157.027 144.392 156.472 144.644 156.126 145.148C155.781 145.652 155.608 146.347 155.608 147.234ZM171.463 143.356C172.312 143.356 172.947 143.575 173.367 144.014C173.787 144.443 173.997 145.143 173.997 146.114V151H172.779V146.17C172.779 145.582 172.653 145.139 172.401 144.84C172.158 144.541 171.776 144.392 171.253 144.392C170.525 144.392 170.002 144.602 169.685 145.022C169.377 145.442 169.223 146.053 169.223 146.856V151H168.005V146.17C168.005 145.778 167.949 145.451 167.837 145.19C167.725 144.919 167.557 144.719 167.333 144.588C167.109 144.457 166.82 144.392 166.465 144.392C165.961 144.392 165.564 144.499 165.275 144.714C164.986 144.919 164.776 145.223 164.645 145.624C164.524 146.025 164.463 146.52 164.463 147.108V151H163.231V143.496H164.225L164.407 144.518H164.477C164.636 144.257 164.827 144.042 165.051 143.874C165.284 143.697 165.541 143.566 165.821 143.482C166.101 143.398 166.39 143.356 166.689 143.356C167.268 143.356 167.748 143.459 168.131 143.664C168.523 143.869 168.808 144.187 168.985 144.616H169.055C169.307 144.187 169.648 143.869 170.077 143.664C170.516 143.459 170.978 143.356 171.463 143.356ZM178.765 147.164C178.765 147.911 178.69 148.643 178.541 149.362C178.401 150.081 178.177 150.762 177.869 151.406C177.57 152.059 177.183 152.661 176.707 153.212H175.559C175.988 152.624 176.348 151.999 176.637 151.336C176.926 150.683 177.146 150.001 177.295 149.292C177.444 148.583 177.519 147.869 177.519 147.15C177.519 146.413 177.444 145.685 177.295 144.966C177.146 144.247 176.926 143.552 176.637 142.88C176.348 142.208 175.984 141.583 175.545 141.004H176.707C177.183 141.564 177.57 142.175 177.869 142.838C178.177 143.501 178.401 144.196 178.541 144.924C178.69 145.652 178.765 146.399 178.765 147.164ZM182.962 147.164C182.962 147.911 182.888 148.643 182.738 149.362C182.598 150.081 182.374 150.762 182.066 151.406C181.768 152.059 181.38 152.661 180.904 153.212H179.756C180.186 152.624 180.545 151.999 180.834 151.336C181.124 150.683 181.343 150.001 181.492 149.292C181.642 148.583 181.716 147.869 181.716 147.15C181.716 146.413 181.642 145.685 181.492 144.966C181.343 144.247 181.124 143.552 180.834 142.88C180.545 142.208 180.181 141.583 179.742 141.004H180.904C181.38 141.564 181.768 142.175 182.066 142.838C182.374 143.501 182.598 144.196 182.738 144.924C182.888 145.652 182.962 146.399 182.962 147.164ZM186.208 149.53C186.124 149.857 186.016 150.211 185.886 150.594C185.755 150.977 185.61 151.355 185.452 151.728C185.302 152.111 185.153 152.47 185.004 152.806H184.094C184.187 152.451 184.276 152.069 184.36 151.658C184.453 151.257 184.537 150.86 184.612 150.468C184.686 150.067 184.747 149.703 184.794 149.376H186.11L186.208 149.53ZM83.642 183.97C83.11 183.97 82.6293 184.063 82.2 184.25C81.7707 184.427 81.4067 184.693 81.108 185.048C80.8093 185.393 80.5807 185.818 80.422 186.322C80.2633 186.817 80.184 187.377 80.184 188.002C80.184 188.823 80.31 189.537 80.562 190.144C80.8233 190.751 81.206 191.217 81.71 191.544C82.2233 191.871 82.8627 192.034 83.628 192.034C84.0667 192.034 84.482 191.997 84.874 191.922C85.266 191.847 85.6487 191.754 86.022 191.642V192.734C85.6487 192.874 85.2613 192.977 84.86 193.042C84.468 193.107 83.9967 193.14 83.446 193.14C82.4287 193.14 81.5793 192.93 80.898 192.51C80.2167 192.09 79.7033 191.493 79.358 190.718C79.022 189.943 78.854 189.033 78.854 187.988C78.854 187.232 78.9567 186.541 79.162 185.916C79.3767 185.291 79.6847 184.749 80.086 184.292C80.4967 183.835 81.0007 183.485 81.598 183.242C82.1953 182.99 82.8813 182.864 83.656 182.864C84.1693 182.864 84.664 182.915 85.14 183.018C85.616 183.121 86.0407 183.265 86.414 183.452L85.91 184.516C85.602 184.376 85.2567 184.25 84.874 184.138C84.5007 184.026 84.09 183.97 83.642 183.97ZM90.9337 185.356C91.5777 185.356 92.1284 185.496 92.5857 185.776C93.0524 186.056 93.407 186.453 93.6497 186.966C93.9017 187.47 94.0277 188.063 94.0277 188.744V189.486H88.8897C88.9084 190.335 89.123 190.984 89.5337 191.432C89.9537 191.871 90.537 192.09 91.2837 192.09C91.7597 192.09 92.1797 192.048 92.5437 191.964C92.917 191.871 93.2997 191.74 93.6917 191.572V192.65C93.309 192.818 92.931 192.939 92.5577 193.014C92.1844 193.098 91.741 193.14 91.2277 193.14C90.5184 193.14 89.8884 192.995 89.3377 192.706C88.7964 192.417 88.3717 191.987 88.0637 191.418C87.765 190.839 87.6157 190.135 87.6157 189.304C87.6157 188.483 87.751 187.778 88.0217 187.19C88.3017 186.602 88.689 186.149 89.1837 185.832C89.6877 185.515 90.271 185.356 90.9337 185.356ZM90.9197 186.364C90.3317 186.364 89.865 186.555 89.5197 186.938C89.1837 187.311 88.983 187.834 88.9177 188.506H92.7397C92.7397 188.077 92.6744 187.703 92.5437 187.386C92.413 187.069 92.2124 186.821 91.9417 186.644C91.6804 186.457 91.3397 186.364 90.9197 186.364ZM98.948 193.14C98.2854 193.14 97.6927 193.005 97.17 192.734C96.6567 192.463 96.2507 192.043 95.952 191.474C95.6627 190.905 95.518 190.177 95.518 189.29C95.518 188.366 95.672 187.615 95.98 187.036C96.288 186.457 96.7034 186.033 97.226 185.762C97.758 185.491 98.36 185.356 99.032 185.356C99.4147 185.356 99.7834 185.398 100.138 185.482C100.493 185.557 100.782 185.65 101.006 185.762L100.628 186.784C100.404 186.7 100.143 186.621 99.844 186.546C99.5454 186.471 99.2654 186.434 99.004 186.434C98.5 186.434 98.0847 186.541 97.758 186.756C97.4314 186.971 97.1887 187.288 97.03 187.708C96.8714 188.128 96.792 188.651 96.792 189.276C96.792 189.873 96.8714 190.382 97.03 190.802C97.1887 191.222 97.4267 191.539 97.744 191.754C98.0614 191.969 98.458 192.076 98.934 192.076C99.3447 192.076 99.704 192.034 100.012 191.95C100.329 191.866 100.619 191.763 100.88 191.642V192.734C100.628 192.865 100.348 192.963 100.04 193.028C99.7414 193.103 99.3774 193.14 98.948 193.14ZM103.897 185.496V193H102.665V185.496H103.897ZM103.295 182.682C103.481 182.682 103.645 182.747 103.785 182.878C103.934 182.999 104.009 183.195 104.009 183.466C104.009 183.727 103.934 183.923 103.785 184.054C103.645 184.185 103.481 184.25 103.295 184.25C103.089 184.25 102.917 184.185 102.777 184.054C102.637 183.923 102.567 183.727 102.567 183.466C102.567 183.195 102.637 182.999 102.777 182.878C102.917 182.747 103.089 182.682 103.295 182.682ZM112.809 185.356C113.453 185.356 114.003 185.496 114.461 185.776C114.927 186.056 115.282 186.453 115.525 186.966C115.777 187.47 115.903 188.063 115.903 188.744V189.486H110.765C110.783 190.335 110.998 190.984 111.409 191.432C111.829 191.871 112.412 192.09 113.159 192.09C113.635 192.09 114.055 192.048 114.419 191.964C114.792 191.871 115.175 191.74 115.567 191.572V192.65C115.184 192.818 114.806 192.939 114.433 193.014C114.059 193.098 113.616 193.14 113.103 193.14C112.393 193.14 111.763 192.995 111.213 192.706C110.671 192.417 110.247 191.987 109.939 191.418C109.64 190.839 109.491 190.135 109.491 189.304C109.491 188.483 109.626 187.778 109.897 187.19C110.177 186.602 110.564 186.149 111.059 185.832C111.563 185.515 112.146 185.356 112.809 185.356ZM112.795 186.364C112.207 186.364 111.74 186.555 111.395 186.938C111.059 187.311 110.858 187.834 110.793 188.506H114.615C114.615 188.077 114.549 187.703 114.419 187.386C114.288 187.069 114.087 186.821 113.817 186.644C113.555 186.457 113.215 186.364 112.795 186.364ZM122.699 190.928C122.699 191.413 122.578 191.819 122.335 192.146C122.092 192.473 121.747 192.72 121.299 192.888C120.851 193.056 120.319 193.14 119.703 193.14C119.18 193.14 118.728 193.098 118.345 193.014C117.972 192.93 117.64 192.813 117.351 192.664V191.544C117.65 191.693 118.009 191.833 118.429 191.964C118.858 192.085 119.292 192.146 119.731 192.146C120.356 192.146 120.809 192.048 121.089 191.852C121.369 191.647 121.509 191.376 121.509 191.04C121.509 190.853 121.458 190.685 121.355 190.536C121.252 190.387 121.066 190.237 120.795 190.088C120.534 189.939 120.156 189.771 119.661 189.584C119.176 189.397 118.76 189.211 118.415 189.024C118.07 188.837 117.804 188.613 117.617 188.352C117.43 188.091 117.337 187.755 117.337 187.344C117.337 186.709 117.594 186.219 118.107 185.874C118.63 185.529 119.311 185.356 120.151 185.356C120.608 185.356 121.033 185.403 121.425 185.496C121.826 185.58 122.2 185.701 122.545 185.86L122.125 186.84C121.92 186.747 121.7 186.667 121.467 186.602C121.243 186.527 121.014 186.471 120.781 186.434C120.548 186.387 120.31 186.364 120.067 186.364C119.563 186.364 119.176 186.448 118.905 186.616C118.644 186.775 118.513 186.994 118.513 187.274C118.513 187.479 118.574 187.657 118.695 187.806C118.816 187.946 119.017 188.086 119.297 188.226C119.586 188.357 119.969 188.515 120.445 188.702C120.921 188.879 121.327 189.061 121.663 189.248C121.999 189.435 122.256 189.663 122.433 189.934C122.61 190.195 122.699 190.527 122.699 190.928ZM127.018 192.132C127.205 192.132 127.396 192.118 127.592 192.09C127.788 192.053 127.947 192.015 128.068 191.978V192.916C127.938 192.981 127.751 193.033 127.508 193.07C127.266 193.117 127.032 193.14 126.808 193.14C126.416 193.14 126.052 193.075 125.716 192.944C125.39 192.804 125.124 192.566 124.918 192.23C124.713 191.894 124.61 191.423 124.61 190.816V186.448H123.546V185.86L124.624 185.37L125.114 183.774H125.842V185.496H128.012V186.448H125.842V190.788C125.842 191.245 125.95 191.586 126.164 191.81C126.388 192.025 126.673 192.132 127.018 192.132ZM139.48 185.496V193H138.472L138.29 192.006H138.234C138.075 192.267 137.87 192.482 137.618 192.65C137.366 192.818 137.09 192.939 136.792 193.014C136.493 193.098 136.18 193.14 135.854 193.14C135.256 193.14 134.752 193.047 134.342 192.86C133.94 192.664 133.637 192.365 133.432 191.964C133.226 191.563 133.124 191.045 133.124 190.41V185.496H134.37V190.326C134.37 190.923 134.505 191.371 134.776 191.67C135.046 191.969 135.466 192.118 136.036 192.118C136.596 192.118 137.034 192.015 137.352 191.81C137.678 191.595 137.907 191.287 138.038 190.886C138.178 190.475 138.248 189.981 138.248 189.402V185.496H139.48ZM145.474 185.356C146.37 185.356 147.047 185.575 147.504 186.014C147.961 186.443 148.19 187.143 148.19 188.114V193H146.972V188.198C146.972 187.591 146.837 187.139 146.566 186.84C146.295 186.541 145.871 186.392 145.292 186.392C144.461 186.392 143.887 186.625 143.57 187.092C143.253 187.559 143.094 188.231 143.094 189.108V193H141.862V185.496H142.856L143.038 186.518H143.108C143.276 186.257 143.481 186.042 143.724 185.874C143.976 185.697 144.251 185.566 144.55 185.482C144.849 185.398 145.157 185.356 145.474 185.356ZM157.653 185.356C157.793 185.356 157.942 185.365 158.101 185.384C158.269 185.393 158.414 185.412 158.535 185.44L158.381 186.574C158.26 186.546 158.124 186.523 157.975 186.504C157.835 186.485 157.7 186.476 157.569 186.476C157.28 186.476 157.004 186.537 156.743 186.658C156.482 186.779 156.248 186.952 156.043 187.176C155.838 187.391 155.674 187.652 155.553 187.96C155.441 188.268 155.385 188.613 155.385 188.996V193H154.153V185.496H155.161L155.301 186.868H155.357C155.516 186.588 155.707 186.336 155.931 186.112C156.155 185.879 156.412 185.697 156.701 185.566C156.99 185.426 157.308 185.356 157.653 185.356ZM162.505 185.37C163.419 185.37 164.096 185.571 164.535 185.972C164.973 186.373 165.193 187.013 165.193 187.89V193H164.297L164.059 191.936H164.003C163.788 192.207 163.564 192.435 163.331 192.622C163.107 192.799 162.845 192.93 162.547 193.014C162.257 193.098 161.903 193.14 161.483 193.14C161.035 193.14 160.629 193.061 160.265 192.902C159.91 192.743 159.63 192.501 159.425 192.174C159.219 191.838 159.117 191.418 159.117 190.914C159.117 190.167 159.411 189.593 159.999 189.192C160.587 188.781 161.492 188.557 162.715 188.52L163.989 188.478V188.03C163.989 187.405 163.853 186.971 163.583 186.728C163.312 186.485 162.929 186.364 162.435 186.364C162.043 186.364 161.669 186.425 161.315 186.546C160.96 186.658 160.629 186.789 160.321 186.938L159.943 186.014C160.269 185.837 160.657 185.687 161.105 185.566C161.553 185.435 162.019 185.37 162.505 185.37ZM162.869 189.374C161.935 189.411 161.287 189.561 160.923 189.822C160.568 190.083 160.391 190.452 160.391 190.928C160.391 191.348 160.517 191.656 160.769 191.852C161.03 192.048 161.361 192.146 161.763 192.146C162.397 192.146 162.925 191.973 163.345 191.628C163.765 191.273 163.975 190.732 163.975 190.004V189.332L162.869 189.374ZM171.08 185.356C172.004 185.356 172.746 185.678 173.306 186.322C173.876 186.966 174.16 187.937 174.16 189.234C174.16 190.083 174.03 190.802 173.768 191.39C173.516 191.969 173.157 192.407 172.69 192.706C172.233 192.995 171.692 193.14 171.066 193.14C170.684 193.14 170.343 193.089 170.044 192.986C169.746 192.883 169.489 192.753 169.274 192.594C169.069 192.426 168.892 192.244 168.742 192.048H168.658C168.677 192.207 168.696 192.407 168.714 192.65C168.733 192.893 168.742 193.103 168.742 193.28V196.36H167.51V185.496H168.518L168.686 186.518H168.742C168.892 186.303 169.069 186.107 169.274 185.93C169.489 185.753 169.741 185.613 170.03 185.51C170.329 185.407 170.679 185.356 171.08 185.356ZM170.856 186.392C170.352 186.392 169.946 186.49 169.638 186.686C169.33 186.873 169.106 187.157 168.966 187.54C168.826 187.923 168.752 188.408 168.742 188.996V189.234C168.742 189.85 168.808 190.373 168.938 190.802C169.069 191.231 169.288 191.558 169.596 191.782C169.914 192.006 170.343 192.118 170.884 192.118C171.342 192.118 171.715 191.992 172.004 191.74C172.303 191.488 172.522 191.147 172.662 190.718C172.812 190.279 172.886 189.78 172.886 189.22C172.886 188.361 172.718 187.675 172.382 187.162C172.056 186.649 171.547 186.392 170.856 186.392ZM179.694 185.356C180.618 185.356 181.36 185.678 181.92 186.322C182.489 186.966 182.774 187.937 182.774 189.234C182.774 190.083 182.643 190.802 182.382 191.39C182.13 191.969 181.77 192.407 181.304 192.706C180.846 192.995 180.305 193.14 179.68 193.14C179.297 193.14 178.956 193.089 178.658 192.986C178.359 192.883 178.102 192.753 177.888 192.594C177.682 192.426 177.505 192.244 177.356 192.048H177.272C177.29 192.207 177.309 192.407 177.328 192.65C177.346 192.893 177.356 193.103 177.356 193.28V196.36H176.124V185.496H177.132L177.3 186.518H177.356C177.505 186.303 177.682 186.107 177.888 185.93C178.102 185.753 178.354 185.613 178.644 185.51C178.942 185.407 179.292 185.356 179.694 185.356ZM179.47 186.392C178.966 186.392 178.56 186.49 178.252 186.686C177.944 186.873 177.72 187.157 177.58 187.54C177.44 187.923 177.365 188.408 177.356 188.996V189.234C177.356 189.85 177.421 190.373 177.552 190.802C177.682 191.231 177.902 191.558 178.21 191.782C178.527 192.006 178.956 192.118 179.498 192.118C179.955 192.118 180.328 191.992 180.618 191.74C180.916 191.488 181.136 191.147 181.276 190.718C181.425 190.279 181.5 189.78 181.5 189.22C181.5 188.361 181.332 187.675 180.996 187.162C180.669 186.649 180.16 186.392 179.47 186.392ZM187.635 185.356C188.279 185.356 188.83 185.496 189.287 185.776C189.754 186.056 190.108 186.453 190.351 186.966C190.603 187.47 190.729 188.063 190.729 188.744V189.486H185.591C185.61 190.335 185.824 190.984 186.235 191.432C186.655 191.871 187.238 192.09 187.985 192.09C188.461 192.09 188.881 192.048 189.245 191.964C189.618 191.871 190.001 191.74 190.393 191.572V192.65C190.01 192.818 189.632 192.939 189.259 193.014C188.886 193.098 188.442 193.14 187.929 193.14C187.22 193.14 186.59 192.995 186.039 192.706C185.498 192.417 185.073 191.987 184.765 191.418C184.466 190.839 184.317 190.135 184.317 189.304C184.317 188.483 184.452 187.778 184.723 187.19C185.003 186.602 185.39 186.149 185.885 185.832C186.389 185.515 186.972 185.356 187.635 185.356ZM187.621 186.364C187.033 186.364 186.566 186.555 186.221 186.938C185.885 187.311 185.684 187.834 185.619 188.506H189.441C189.441 188.077 189.376 187.703 189.245 187.386C189.114 187.069 188.914 186.821 188.643 186.644C188.382 186.457 188.041 186.364 187.621 186.364ZM193.871 193H192.639V182.36H193.871V193ZM202.545 193.14C201.612 193.14 200.865 192.818 200.305 192.174C199.745 191.521 199.465 190.55 199.465 189.262C199.465 187.974 199.745 187.003 200.305 186.35C200.875 185.687 201.626 185.356 202.559 185.356C202.951 185.356 203.292 185.407 203.581 185.51C203.871 185.603 204.123 185.734 204.337 185.902C204.552 186.07 204.734 186.257 204.883 186.462H204.967C204.958 186.341 204.939 186.163 204.911 185.93C204.893 185.687 204.883 185.496 204.883 185.356V182.36H206.115V193H205.121L204.939 191.992H204.883C204.734 192.207 204.552 192.403 204.337 192.58C204.123 192.748 203.866 192.883 203.567 192.986C203.278 193.089 202.937 193.14 202.545 193.14ZM202.741 192.118C203.535 192.118 204.09 191.903 204.407 191.474C204.734 191.035 204.897 190.377 204.897 189.5V189.276C204.897 188.343 204.743 187.629 204.435 187.134C204.127 186.63 203.558 186.378 202.727 186.378C202.065 186.378 201.565 186.644 201.229 187.176C200.903 187.699 200.739 188.403 200.739 189.29C200.739 190.186 200.903 190.881 201.229 191.376C201.565 191.871 202.069 192.118 202.741 192.118ZM211.397 185.356C212.041 185.356 212.591 185.496 213.049 185.776C213.515 186.056 213.87 186.453 214.113 186.966C214.365 187.47 214.491 188.063 214.491 188.744V189.486H209.353C209.371 190.335 209.586 190.984 209.997 191.432C210.417 191.871 211 192.09 211.747 192.09C212.223 192.09 212.643 192.048 213.007 191.964C213.38 191.871 213.763 191.74 214.155 191.572V192.65C213.772 192.818 213.394 192.939 213.021 193.014C212.647 193.098 212.204 193.14 211.691 193.14C210.981 193.14 210.351 192.995 209.801 192.706C209.259 192.417 208.835 191.987 208.527 191.418C208.228 190.839 208.079 190.135 208.079 189.304C208.079 188.483 208.214 187.778 208.485 187.19C208.765 186.602 209.152 186.149 209.647 185.832C210.151 185.515 210.734 185.356 211.397 185.356ZM211.383 186.364C210.795 186.364 210.328 186.555 209.983 186.938C209.647 187.311 209.446 187.834 209.381 188.506H213.203C213.203 188.077 213.137 187.703 213.007 187.386C212.876 187.069 212.675 186.821 212.405 186.644C212.143 186.457 211.803 186.364 211.383 186.364ZM221.69 193L218.848 185.496H220.164L221.76 189.92C221.834 190.125 221.914 190.354 221.998 190.606C222.082 190.858 222.156 191.101 222.222 191.334C222.287 191.558 222.334 191.749 222.362 191.908H222.418C222.455 191.749 222.506 191.553 222.572 191.32C222.646 191.087 222.726 190.844 222.81 190.592C222.903 190.34 222.982 190.116 223.048 189.92L224.644 185.496H225.96L223.104 193H221.69ZM233.671 189.234C233.671 189.859 233.587 190.415 233.419 190.9C233.26 191.376 233.027 191.782 232.719 192.118C232.42 192.454 232.052 192.711 231.613 192.888C231.184 193.056 230.703 193.14 230.171 193.14C229.676 193.14 229.219 193.056 228.799 192.888C228.379 192.711 228.015 192.454 227.707 192.118C227.399 191.782 227.156 191.376 226.979 190.9C226.811 190.415 226.727 189.859 226.727 189.234C226.727 188.403 226.867 187.703 227.147 187.134C227.427 186.555 227.828 186.117 228.351 185.818C228.874 185.51 229.494 185.356 230.213 185.356C230.894 185.356 231.492 185.51 232.005 185.818C232.528 186.117 232.934 186.555 233.223 187.134C233.522 187.703 233.671 188.403 233.671 189.234ZM228.001 189.234C228.001 189.822 228.076 190.335 228.225 190.774C228.384 191.203 228.626 191.535 228.953 191.768C229.28 192.001 229.695 192.118 230.199 192.118C230.703 192.118 231.118 192.001 231.445 191.768C231.772 191.535 232.01 191.203 232.159 190.774C232.318 190.335 232.397 189.822 232.397 189.234C232.397 188.637 232.318 188.128 232.159 187.708C232 187.288 231.758 186.966 231.431 186.742C231.114 186.509 230.698 186.392 230.185 186.392C229.42 186.392 228.864 186.644 228.519 187.148C228.174 187.652 228.001 188.347 228.001 189.234ZM238.13 192.132C238.316 192.132 238.508 192.118 238.704 192.09C238.9 192.053 239.058 192.015 239.18 191.978V192.916C239.049 192.981 238.862 193.033 238.62 193.07C238.377 193.117 238.144 193.14 237.92 193.14C237.528 193.14 237.164 193.075 236.828 192.944C236.501 192.804 236.235 192.566 236.03 192.23C235.824 191.894 235.722 191.423 235.722 190.816V186.448H234.658V185.86L235.736 185.37L236.226 183.774H236.954V185.496H239.124V186.448H236.954V190.788C236.954 191.245 237.061 191.586 237.276 191.81C237.5 192.025 237.784 192.132 238.13 192.132ZM244.182 185.356C244.322 185.356 244.472 185.365 244.63 185.384C244.798 185.393 244.943 185.412 245.064 185.44L244.91 186.574C244.789 186.546 244.654 186.523 244.504 186.504C244.364 186.485 244.229 186.476 244.098 186.476C243.809 186.476 243.534 186.537 243.272 186.658C243.011 186.779 242.778 186.952 242.572 187.176C242.367 187.391 242.204 187.652 242.082 187.96C241.97 188.268 241.914 188.613 241.914 188.996V193H240.682V185.496H241.69L241.83 186.868H241.886C242.045 186.588 242.236 186.336 242.46 186.112C242.684 185.879 242.941 185.697 243.23 185.566C243.52 185.426 243.837 185.356 244.182 185.356ZM249.09 185.356C249.734 185.356 250.285 185.496 250.742 185.776C251.209 186.056 251.563 186.453 251.806 186.966C252.058 187.47 252.184 188.063 252.184 188.744V189.486H247.046C247.065 190.335 247.279 190.984 247.69 191.432C248.11 191.871 248.693 192.09 249.44 192.09C249.916 192.09 250.336 192.048 250.7 191.964C251.073 191.871 251.456 191.74 251.848 191.572V192.65C251.465 192.818 251.087 192.939 250.714 193.014C250.341 193.098 249.897 193.14 249.384 193.14C248.675 193.14 248.045 192.995 247.494 192.706C246.953 192.417 246.528 191.987 246.22 191.418C245.921 190.839 245.772 190.135 245.772 189.304C245.772 188.483 245.907 187.778 246.178 187.19C246.458 186.602 246.845 186.149 247.34 185.832C247.844 185.515 248.427 185.356 249.09 185.356ZM249.076 186.364C248.488 186.364 248.021 186.555 247.676 186.938C247.34 187.311 247.139 187.834 247.074 188.506H250.896C250.896 188.077 250.831 187.703 250.7 187.386C250.569 187.069 250.369 186.821 250.098 186.644C249.837 186.457 249.496 186.364 249.076 186.364ZM264.868 185.356C265.008 185.356 265.157 185.365 265.316 185.384C265.484 185.393 265.628 185.412 265.75 185.44L265.596 186.574C265.474 186.546 265.339 186.523 265.19 186.504C265.05 186.485 264.914 186.476 264.784 186.476C264.494 186.476 264.219 186.537 263.958 186.658C263.696 186.779 263.463 186.952 263.258 187.176C263.052 187.391 262.889 187.652 262.768 187.96C262.656 188.268 262.6 188.613 262.6 188.996V193H261.368V185.496H262.376L262.516 186.868H262.572C262.73 186.588 262.922 186.336 263.146 186.112C263.37 185.879 263.626 185.697 263.916 185.566C264.205 185.426 264.522 185.356 264.868 185.356ZM269.776 185.356C270.42 185.356 270.97 185.496 271.428 185.776C271.894 186.056 272.249 186.453 272.492 186.966C272.744 187.47 272.87 188.063 272.87 188.744V189.486H267.732C267.75 190.335 267.965 190.984 268.376 191.432C268.796 191.871 269.379 192.09 270.126 192.09C270.602 192.09 271.022 192.048 271.386 191.964C271.759 191.871 272.142 191.74 272.534 191.572V192.65C272.151 192.818 271.773 192.939 271.4 193.014C271.026 193.098 270.583 193.14 270.07 193.14C269.36 193.14 268.73 192.995 268.18 192.706C267.638 192.417 267.214 191.987 266.906 191.418C266.607 190.839 266.458 190.135 266.458 189.304C266.458 188.483 266.593 187.778 266.864 187.19C267.144 186.602 267.531 186.149 268.026 185.832C268.53 185.515 269.113 185.356 269.776 185.356ZM269.762 186.364C269.174 186.364 268.707 186.555 268.362 186.938C268.026 187.311 267.825 187.834 267.76 188.506H271.582C271.582 188.077 271.516 187.703 271.386 187.386C271.255 187.069 271.054 186.821 270.784 186.644C270.522 186.457 270.182 186.364 269.762 186.364ZM278.392 185.356C279.288 185.356 279.965 185.575 280.422 186.014C280.879 186.443 281.108 187.143 281.108 188.114V193H279.89V188.198C279.89 187.591 279.755 187.139 279.484 186.84C279.213 186.541 278.789 186.392 278.21 186.392C277.379 186.392 276.805 186.625 276.488 187.092C276.171 187.559 276.012 188.231 276.012 189.108V193H274.78V185.496H275.774L275.956 186.518H276.026C276.194 186.257 276.399 186.042 276.642 185.874C276.894 185.697 277.169 185.566 277.468 185.482C277.767 185.398 278.075 185.356 278.392 185.356ZM286.094 193.14C285.161 193.14 284.414 192.818 283.854 192.174C283.294 191.521 283.014 190.55 283.014 189.262C283.014 187.974 283.294 187.003 283.854 186.35C284.423 185.687 285.175 185.356 286.108 185.356C286.5 185.356 286.841 185.407 287.13 185.51C287.419 185.603 287.671 185.734 287.886 185.902C288.101 186.07 288.283 186.257 288.432 186.462H288.516C288.507 186.341 288.488 186.163 288.46 185.93C288.441 185.687 288.432 185.496 288.432 185.356V182.36H289.664V193H288.67L288.488 191.992H288.432C288.283 192.207 288.101 192.403 287.886 192.58C287.671 192.748 287.415 192.883 287.116 192.986C286.827 193.089 286.486 193.14 286.094 193.14ZM286.29 192.118C287.083 192.118 287.639 191.903 287.956 191.474C288.283 191.035 288.446 190.377 288.446 189.5V189.276C288.446 188.343 288.292 187.629 287.984 187.134C287.676 186.63 287.107 186.378 286.276 186.378C285.613 186.378 285.114 186.644 284.778 187.176C284.451 187.699 284.288 188.403 284.288 189.29C284.288 190.186 284.451 190.881 284.778 191.376C285.114 191.871 285.618 192.118 286.29 192.118ZM294.945 185.356C295.589 185.356 296.14 185.496 296.597 185.776C297.064 186.056 297.419 186.453 297.661 186.966C297.913 187.47 298.039 188.063 298.039 188.744V189.486H292.901C292.92 190.335 293.135 190.984 293.545 191.432C293.965 191.871 294.549 192.09 295.295 192.09C295.771 192.09 296.191 192.048 296.555 191.964C296.929 191.871 297.311 191.74 297.703 191.572V192.65C297.321 192.818 296.943 192.939 296.569 193.014C296.196 193.098 295.753 193.14 295.239 193.14C294.53 193.14 293.9 192.995 293.349 192.706C292.808 192.417 292.383 191.987 292.075 191.418C291.777 190.839 291.627 190.135 291.627 189.304C291.627 188.483 291.763 187.778 292.033 187.19C292.313 186.602 292.701 186.149 293.195 185.832C293.699 185.515 294.283 185.356 294.945 185.356ZM294.931 186.364C294.343 186.364 293.877 186.555 293.531 186.938C293.195 187.311 292.995 187.834 292.929 188.506H296.751C296.751 188.077 296.686 187.703 296.555 187.386C296.425 187.069 296.224 186.821 295.953 186.644C295.692 186.457 295.351 186.364 294.931 186.364ZM304.657 193H299.169V192.188L303.201 186.448H299.407V185.496H304.559V186.42L300.583 192.048H304.657V193ZM305.759 189.794V188.702H309.147V189.794H305.759ZM312.553 193L309.711 185.496H311.027L312.623 189.92C312.698 190.125 312.777 190.354 312.861 190.606C312.945 190.858 313.02 191.101 313.085 191.334C313.15 191.558 313.197 191.749 313.225 191.908H313.281C313.318 191.749 313.37 191.553 313.435 191.32C313.51 191.087 313.589 190.844 313.673 190.592C313.766 190.34 313.846 190.116 313.911 189.92L315.507 185.496H316.823L313.967 193H312.553ZM324.534 189.234C324.534 189.859 324.45 190.415 324.282 190.9C324.124 191.376 323.89 191.782 323.582 192.118C323.284 192.454 322.915 192.711 322.476 192.888C322.047 193.056 321.566 193.14 321.034 193.14C320.54 193.14 320.082 193.056 319.662 192.888C319.242 192.711 318.878 192.454 318.57 192.118C318.262 191.782 318.02 191.376 317.842 190.9C317.674 190.415 317.59 189.859 317.59 189.234C317.59 188.403 317.73 187.703 318.01 187.134C318.29 186.555 318.692 186.117 319.214 185.818C319.737 185.51 320.358 185.356 321.076 185.356C321.758 185.356 322.355 185.51 322.868 185.818C323.391 186.117 323.797 186.555 324.086 187.134C324.385 187.703 324.534 188.403 324.534 189.234ZM318.864 189.234C318.864 189.822 318.939 190.335 319.088 190.774C319.247 191.203 319.49 191.535 319.816 191.768C320.143 192.001 320.558 192.118 321.062 192.118C321.566 192.118 321.982 192.001 322.308 191.768C322.635 191.535 322.873 191.203 323.022 190.774C323.181 190.335 323.26 189.822 323.26 189.234C323.26 188.637 323.181 188.128 323.022 187.708C322.864 187.288 322.621 186.966 322.294 186.742C321.977 186.509 321.562 186.392 321.048 186.392C320.283 186.392 319.728 186.644 319.382 187.148C319.037 187.652 318.864 188.347 318.864 189.234ZM332.759 185.496V193H331.751L331.569 192.006H331.513C331.354 192.267 331.149 192.482 330.897 192.65C330.645 192.818 330.37 192.939 330.071 193.014C329.772 193.098 329.46 193.14 329.133 193.14C328.536 193.14 328.032 193.047 327.621 192.86C327.22 192.664 326.916 192.365 326.711 191.964C326.506 191.563 326.403 191.045 326.403 190.41V185.496H327.649V190.326C327.649 190.923 327.784 191.371 328.055 191.67C328.326 191.969 328.746 192.118 329.315 192.118C329.875 192.118 330.314 192.015 330.631 191.81C330.958 191.595 331.186 191.287 331.317 190.886C331.457 190.475 331.527 189.981 331.527 189.402V185.496H332.759ZM340.027 190.928C340.027 191.413 339.906 191.819 339.663 192.146C339.421 192.473 339.075 192.72 338.627 192.888C338.179 193.056 337.647 193.14 337.031 193.14C336.509 193.14 336.056 193.098 335.673 193.014C335.3 192.93 334.969 192.813 334.679 192.664V191.544C334.978 191.693 335.337 191.833 335.757 191.964C336.187 192.085 336.621 192.146 337.059 192.146C337.685 192.146 338.137 192.048 338.417 191.852C338.697 191.647 338.837 191.376 338.837 191.04C338.837 190.853 338.786 190.685 338.683 190.536C338.581 190.387 338.394 190.237 338.123 190.088C337.862 189.939 337.484 189.771 336.989 189.584C336.504 189.397 336.089 189.211 335.743 189.024C335.398 188.837 335.132 188.613 334.945 188.352C334.759 188.091 334.665 187.755 334.665 187.344C334.665 186.709 334.922 186.219 335.435 185.874C335.958 185.529 336.639 185.356 337.479 185.356C337.937 185.356 338.361 185.403 338.753 185.496C339.155 185.58 339.528 185.701 339.873 185.86L339.453 186.84C339.248 186.747 339.029 186.667 338.795 186.602C338.571 186.527 338.343 186.471 338.109 186.434C337.876 186.387 337.638 186.364 337.395 186.364C336.891 186.364 336.504 186.448 336.233 186.616C335.972 186.775 335.841 186.994 335.841 187.274C335.841 187.479 335.902 187.657 336.023 187.806C336.145 187.946 336.345 188.086 336.625 188.226C336.915 188.357 337.297 188.515 337.773 188.702C338.249 188.879 338.655 189.061 338.991 189.248C339.327 189.435 339.584 189.663 339.761 189.934C339.939 190.195 340.027 190.527 340.027 190.928ZM350.475 193.154C350.475 192.986 350.48 192.79 350.489 192.566C350.498 192.342 350.517 192.151 350.545 191.992H350.461C350.246 192.309 349.948 192.58 349.565 192.804C349.192 193.028 348.706 193.14 348.109 193.14C347.204 193.14 346.466 192.818 345.897 192.174C345.337 191.521 345.057 190.55 345.057 189.262C345.057 188.403 345.188 187.685 345.449 187.106C345.71 186.527 346.074 186.093 346.541 185.804C347.008 185.505 347.544 185.356 348.151 185.356C348.739 185.356 349.22 185.468 349.593 185.692C349.966 185.916 350.265 186.191 350.489 186.518H350.545L350.727 185.496H351.707V196.36H350.475V193.154ZM348.347 192.118C348.86 192.118 349.271 192.025 349.579 191.838C349.896 191.651 350.125 191.367 350.265 190.984C350.405 190.592 350.48 190.107 350.489 189.528V189.276C350.489 188.324 350.33 187.605 350.013 187.12C349.696 186.625 349.131 186.378 348.319 186.378C347.647 186.378 347.148 186.644 346.821 187.176C346.494 187.699 346.331 188.403 346.331 189.29C346.331 190.177 346.494 190.872 346.821 191.376C347.157 191.871 347.666 192.118 348.347 192.118ZM360.362 185.496V193H359.354L359.172 192.006H359.116C358.958 192.267 358.752 192.482 358.5 192.65C358.248 192.818 357.973 192.939 357.674 193.014C357.376 193.098 357.063 193.14 356.736 193.14C356.139 193.14 355.635 193.047 355.224 192.86C354.823 192.664 354.52 192.365 354.314 191.964C354.109 191.563 354.006 191.045 354.006 190.41V185.496H355.252V190.326C355.252 190.923 355.388 191.371 355.658 191.67C355.929 191.969 356.349 192.118 356.918 192.118C357.478 192.118 357.917 192.015 358.234 191.81C358.561 191.595 358.79 191.287 358.92 190.886C359.06 190.475 359.13 189.981 359.13 189.402V185.496H360.362ZM363.977 185.496V193H362.745V185.496H363.977ZM363.375 182.682C363.561 182.682 363.725 182.747 363.865 182.878C364.014 182.999 364.089 183.195 364.089 183.466C364.089 183.727 364.014 183.923 363.865 184.054C363.725 184.185 363.561 184.25 363.375 184.25C363.169 184.25 362.997 184.185 362.857 184.054C362.717 183.923 362.647 183.727 362.647 183.466C362.647 183.195 362.717 182.999 362.857 182.878C362.997 182.747 363.169 182.682 363.375 182.682ZM82.032 206.37C82.9467 206.37 83.6233 206.571 84.062 206.972C84.5007 207.373 84.72 208.013 84.72 208.89V214H83.824L83.586 212.936H83.53C83.3153 213.207 83.0913 213.435 82.858 213.622C82.634 213.799 82.3727 213.93 82.074 214.014C81.7847 214.098 81.43 214.14 81.01 214.14C80.562 214.14 80.156 214.061 79.792 213.902C79.4373 213.743 79.1573 213.501 78.952 213.174C78.7467 212.838 78.644 212.418 78.644 211.914C78.644 211.167 78.938 210.593 79.526 210.192C80.114 209.781 81.0193 209.557 82.242 209.52L83.516 209.478V209.03C83.516 208.405 83.3807 207.971 83.11 207.728C82.8393 207.485 82.4567 207.364 81.962 207.364C81.57 207.364 81.1967 207.425 80.842 207.546C80.4873 207.658 80.156 207.789 79.848 207.938L79.47 207.014C79.7967 206.837 80.184 206.687 80.632 206.566C81.08 206.435 81.5467 206.37 82.032 206.37ZM82.396 210.374C81.4627 210.411 80.814 210.561 80.45 210.822C80.0953 211.083 79.918 211.452 79.918 211.928C79.918 212.348 80.044 212.656 80.296 212.852C80.5573 213.048 80.8887 213.146 81.29 213.146C81.9247 213.146 82.452 212.973 82.872 212.628C83.292 212.273 83.502 211.732 83.502 211.004V210.332L82.396 210.374ZM93.3097 206.496V214H92.3017L92.1197 213.006H92.0637C91.905 213.267 91.6997 213.482 91.4477 213.65C91.1957 213.818 90.9203 213.939 90.6217 214.014C90.323 214.098 90.0103 214.14 89.6837 214.14C89.0863 214.14 88.5823 214.047 88.1717 213.86C87.7703 213.664 87.467 213.365 87.2617 212.964C87.0563 212.563 86.9537 212.045 86.9537 211.41V206.496H88.1997V211.326C88.1997 211.923 88.335 212.371 88.6057 212.67C88.8763 212.969 89.2963 213.118 89.8657 213.118C90.4257 213.118 90.8643 213.015 91.1817 212.81C91.5083 212.595 91.737 212.287 91.8677 211.886C92.0077 211.475 92.0777 210.981 92.0777 210.402V206.496H93.3097ZM99.192 206.356C99.332 206.356 99.4813 206.365 99.64 206.384C99.808 206.393 99.9526 206.412 100.074 206.44L99.92 207.574C99.7986 207.546 99.6633 207.523 99.514 207.504C99.374 207.485 99.2386 207.476 99.108 207.476C98.8186 207.476 98.5433 207.537 98.282 207.658C98.0206 207.779 97.7873 207.952 97.582 208.176C97.3766 208.391 97.2133 208.652 97.092 208.96C96.98 209.268 96.924 209.613 96.924 209.996V214H95.692V206.496H96.7L96.84 207.868H96.896C97.0546 207.588 97.246 207.336 97.47 207.112C97.694 206.879 97.9506 206.697 98.24 206.566C98.5293 206.426 98.8466 206.356 99.192 206.356ZM104.044 206.37C104.958 206.37 105.635 206.571 106.074 206.972C106.512 207.373 106.732 208.013 106.732 208.89V214H105.836L105.598 212.936H105.542C105.327 213.207 105.103 213.435 104.87 213.622C104.646 213.799 104.384 213.93 104.086 214.014C103.796 214.098 103.442 214.14 103.022 214.14C102.574 214.14 102.168 214.061 101.804 213.902C101.449 213.743 101.169 213.501 100.964 213.174C100.758 212.838 100.656 212.418 100.656 211.914C100.656 211.167 100.95 210.593 101.538 210.192C102.126 209.781 103.031 209.557 104.254 209.52L105.528 209.478V209.03C105.528 208.405 105.392 207.971 105.122 207.728C104.851 207.485 104.468 207.364 103.974 207.364C103.582 207.364 103.208 207.425 102.854 207.546C102.499 207.658 102.168 207.789 101.86 207.938L101.482 207.014C101.808 206.837 102.196 206.687 102.644 206.566C103.092 206.435 103.558 206.37 104.044 206.37ZM104.408 210.374C103.474 210.411 102.826 210.561 102.462 210.822C102.107 211.083 101.93 211.452 101.93 211.928C101.93 212.348 102.056 212.656 102.308 212.852C102.569 213.048 102.9 213.146 103.302 213.146C103.936 213.146 104.464 212.973 104.884 212.628C105.304 212.273 105.514 211.732 105.514 211.004V210.332L104.408 210.374ZM113.918 214H112.686V203.36H113.918V214ZM117.527 206.496V214H116.295V206.496H117.527ZM116.925 203.682C117.112 203.682 117.275 203.747 117.415 203.878C117.565 203.999 117.639 204.195 117.639 204.466C117.639 204.727 117.565 204.923 117.415 205.054C117.275 205.185 117.112 205.25 116.925 205.25C116.72 205.25 116.547 205.185 116.407 205.054C116.267 204.923 116.197 204.727 116.197 204.466C116.197 204.195 116.267 203.999 116.407 203.878C116.547 203.747 116.72 203.682 116.925 203.682ZM122.803 206.356C123.447 206.356 123.998 206.496 124.455 206.776C124.922 207.056 125.276 207.453 125.519 207.966C125.771 208.47 125.897 209.063 125.897 209.744V210.486H120.759C120.778 211.335 120.992 211.984 121.403 212.432C121.823 212.871 122.406 213.09 123.153 213.09C123.629 213.09 124.049 213.048 124.413 212.964C124.786 212.871 125.169 212.74 125.561 212.572V213.65C125.178 213.818 124.8 213.939 124.427 214.014C124.054 214.098 123.61 214.14 123.097 214.14C122.388 214.14 121.758 213.995 121.207 213.706C120.666 213.417 120.241 212.987 119.933 212.418C119.634 211.839 119.485 211.135 119.485 210.304C119.485 209.483 119.62 208.778 119.891 208.19C120.171 207.602 120.558 207.149 121.053 206.832C121.557 206.515 122.14 206.356 122.803 206.356ZM122.789 207.364C122.201 207.364 121.734 207.555 121.389 207.938C121.053 208.311 120.852 208.834 120.787 209.506H124.609C124.609 209.077 124.544 208.703 124.413 208.386C124.282 208.069 124.082 207.821 123.811 207.644C123.55 207.457 123.209 207.364 122.789 207.364ZM134.079 206.496V214H133.071L132.889 213.006H132.833C132.675 213.267 132.469 213.482 132.217 213.65C131.965 213.818 131.69 213.939 131.391 214.014C131.093 214.098 130.78 214.14 130.453 214.14C129.856 214.14 129.352 214.047 128.941 213.86C128.54 213.664 128.237 213.365 128.031 212.964C127.826 212.563 127.723 212.045 127.723 211.41V206.496H128.969V211.326C128.969 211.923 129.105 212.371 129.375 212.67C129.646 212.969 130.066 213.118 130.635 213.118C131.195 213.118 131.634 213.015 131.951 212.81C132.278 212.595 132.507 212.287 132.637 211.886C132.777 211.475 132.847 210.981 132.847 210.402V206.496H134.079ZM141.33 214H140.098V203.36H141.33V214ZM146.606 206.356C147.25 206.356 147.8 206.496 148.258 206.776C148.724 207.056 149.079 207.453 149.322 207.966C149.574 208.47 149.7 209.063 149.7 209.744V210.486H144.562C144.58 211.335 144.795 211.984 145.206 212.432C145.626 212.871 146.209 213.09 146.956 213.09C147.432 213.09 147.852 213.048 148.216 212.964C148.589 212.871 148.972 212.74 149.364 212.572V213.65C148.981 213.818 148.603 213.939 148.23 214.014C147.856 214.098 147.413 214.14 146.9 214.14C146.19 214.14 145.56 213.995 145.01 213.706C144.468 213.417 144.044 212.987 143.736 212.418C143.437 211.839 143.288 211.135 143.288 210.304C143.288 209.483 143.423 208.778 143.694 208.19C143.974 207.602 144.361 207.149 144.856 206.832C145.36 206.515 145.943 206.356 146.606 206.356ZM146.592 207.364C146.004 207.364 145.537 207.555 145.192 207.938C144.856 208.311 144.655 208.834 144.59 209.506H148.412C148.412 209.077 148.346 208.703 148.216 208.386C148.085 208.069 147.884 207.821 147.614 207.644C147.352 207.457 147.012 207.364 146.592 207.364ZM154.617 210.164C154.617 209.399 154.687 208.652 154.827 207.924C154.976 207.196 155.205 206.501 155.513 205.838C155.821 205.175 156.208 204.564 156.675 204.004H157.837C157.407 204.583 157.043 205.208 156.745 205.88C156.455 206.552 156.236 207.247 156.087 207.966C155.937 208.685 155.863 209.413 155.863 210.15C155.863 210.869 155.937 211.583 156.087 212.292C156.236 213.001 156.455 213.683 156.745 214.336C157.034 214.999 157.393 215.624 157.823 216.212H156.675C156.208 215.661 155.821 215.059 155.513 214.406C155.205 213.762 154.976 213.081 154.827 212.362C154.687 211.643 154.617 210.911 154.617 210.164ZM158.814 210.164C158.814 209.399 158.884 208.652 159.024 207.924C159.173 207.196 159.402 206.501 159.71 205.838C160.018 205.175 160.405 204.564 160.872 204.004H162.034C161.605 204.583 161.241 205.208 160.942 205.88C160.653 206.552 160.433 207.247 160.284 207.966C160.135 208.685 160.06 209.413 160.06 210.15C160.06 210.869 160.135 211.583 160.284 212.292C160.433 213.001 160.653 213.683 160.942 214.336C161.231 214.999 161.591 215.624 162.02 216.212H160.872C160.405 215.661 160.018 215.059 159.71 214.406C159.402 213.762 159.173 213.081 159.024 212.362C158.884 211.643 158.814 210.911 158.814 210.164ZM166.301 214.14C165.368 214.14 164.621 213.818 164.061 213.174C163.501 212.521 163.221 211.55 163.221 210.262C163.221 208.974 163.501 208.003 164.061 207.35C164.631 206.687 165.382 206.356 166.315 206.356C166.707 206.356 167.048 206.407 167.337 206.51C167.627 206.603 167.879 206.734 168.093 206.902C168.308 207.07 168.49 207.257 168.639 207.462H168.723C168.714 207.341 168.695 207.163 168.667 206.93C168.649 206.687 168.639 206.496 168.639 206.356V203.36H169.871V214H168.877L168.695 212.992H168.639C168.49 213.207 168.308 213.403 168.093 213.58C167.879 213.748 167.622 213.883 167.323 213.986C167.034 214.089 166.693 214.14 166.301 214.14ZM166.497 213.118C167.291 213.118 167.846 212.903 168.163 212.474C168.49 212.035 168.653 211.377 168.653 210.5V210.276C168.653 209.343 168.499 208.629 168.191 208.134C167.883 207.63 167.314 207.378 166.483 207.378C165.821 207.378 165.321 207.644 164.985 208.176C164.659 208.699 164.495 209.403 164.495 210.29C164.495 211.186 164.659 211.881 164.985 212.376C165.321 212.871 165.825 213.118 166.497 213.118ZM175.096 206.37C176.011 206.37 176.688 206.571 177.126 206.972C177.565 207.373 177.784 208.013 177.784 208.89V214H176.888L176.65 212.936H176.594C176.38 213.207 176.156 213.435 175.922 213.622C175.698 213.799 175.437 213.93 175.138 214.014C174.849 214.098 174.494 214.14 174.074 214.14C173.626 214.14 173.22 214.061 172.856 213.902C172.502 213.743 172.222 213.501 172.016 213.174C171.811 212.838 171.708 212.418 171.708 211.914C171.708 211.167 172.002 210.593 172.59 210.192C173.178 209.781 174.084 209.557 175.306 209.52L176.58 209.478V209.03C176.58 208.405 176.445 207.971 176.174 207.728C175.904 207.485 175.521 207.364 175.026 207.364C174.634 207.364 174.261 207.425 173.906 207.546C173.552 207.658 173.22 207.789 172.912 207.938L172.534 207.014C172.861 206.837 173.248 206.687 173.696 206.566C174.144 206.435 174.611 206.37 175.096 206.37ZM175.46 210.374C174.527 210.411 173.878 210.561 173.514 210.822C173.16 211.083 172.982 211.452 172.982 211.928C172.982 212.348 173.108 212.656 173.36 212.852C173.622 213.048 173.953 213.146 174.354 213.146C174.989 213.146 175.516 212.973 175.936 212.628C176.356 212.273 176.566 211.732 176.566 211.004V210.332L175.46 210.374ZM182.608 213.132C182.795 213.132 182.986 213.118 183.182 213.09C183.378 213.053 183.537 213.015 183.658 212.978V213.916C183.527 213.981 183.341 214.033 183.098 214.07C182.855 214.117 182.622 214.14 182.398 214.14C182.006 214.14 181.642 214.075 181.306 213.944C180.979 213.804 180.713 213.566 180.508 213.23C180.303 212.894 180.2 212.423 180.2 211.816V207.448H179.136V206.86L180.214 206.37L180.704 204.774H181.432V206.496H183.602V207.448H181.432V211.788C181.432 212.245 181.539 212.586 181.754 212.81C181.978 213.025 182.263 213.132 182.608 213.132ZM188.059 206.356C188.703 206.356 189.253 206.496 189.711 206.776C190.177 207.056 190.532 207.453 190.775 207.966C191.027 208.47 191.153 209.063 191.153 209.744V210.486H186.015C186.033 211.335 186.248 211.984 186.659 212.432C187.079 212.871 187.662 213.09 188.409 213.09C188.885 213.09 189.305 213.048 189.669 212.964C190.042 212.871 190.425 212.74 190.817 212.572V213.65C190.434 213.818 190.056 213.939 189.683 214.014C189.309 214.098 188.866 214.14 188.353 214.14C187.643 214.14 187.013 213.995 186.463 213.706C185.921 213.417 185.497 212.987 185.189 212.418C184.89 211.839 184.741 211.135 184.741 210.304C184.741 209.483 184.876 208.778 185.147 208.19C185.427 207.602 185.814 207.149 186.309 206.832C186.813 206.515 187.396 206.356 188.059 206.356ZM188.045 207.364C187.457 207.364 186.99 207.555 186.645 207.938C186.309 208.311 186.108 208.834 186.043 209.506H189.865C189.865 209.077 189.799 208.703 189.669 208.386C189.538 208.069 189.337 207.821 189.067 207.644C188.805 207.457 188.465 207.364 188.045 207.364ZM195.513 210.164C195.513 210.911 195.438 211.643 195.289 212.362C195.149 213.081 194.925 213.762 194.617 214.406C194.318 215.059 193.931 215.661 193.455 216.212H192.307C192.736 215.624 193.096 214.999 193.385 214.336C193.674 213.683 193.894 213.001 194.043 212.292C194.192 211.583 194.267 210.869 194.267 210.15C194.267 209.413 194.192 208.685 194.043 207.966C193.894 207.247 193.674 206.552 193.385 205.88C193.096 205.208 192.732 204.583 192.293 204.004H193.455C193.931 204.564 194.318 205.175 194.617 205.838C194.925 206.501 195.149 207.196 195.289 207.924C195.438 208.652 195.513 209.399 195.513 210.164ZM199.71 210.164C199.71 210.911 199.636 211.643 199.486 212.362C199.346 213.081 199.122 213.762 198.814 214.406C198.516 215.059 198.128 215.661 197.652 216.212H196.504C196.934 215.624 197.293 214.999 197.582 214.336C197.872 213.683 198.091 213.001 198.24 212.292C198.39 211.583 198.464 210.869 198.464 210.15C198.464 209.413 198.39 208.685 198.24 207.966C198.091 207.247 197.872 206.552 197.582 205.88C197.293 205.208 196.929 204.583 196.49 204.004H197.652C198.128 204.564 198.516 205.175 198.814 205.838C199.122 206.501 199.346 207.196 199.486 207.924C199.636 208.652 199.71 209.399 199.71 210.164ZM207.936 206.37C208.851 206.37 209.528 206.571 209.966 206.972C210.405 207.373 210.624 208.013 210.624 208.89V214H209.728L209.49 212.936H209.434C209.22 213.207 208.996 213.435 208.762 213.622C208.538 213.799 208.277 213.93 207.978 214.014C207.689 214.098 207.334 214.14 206.914 214.14C206.466 214.14 206.06 214.061 205.696 213.902C205.342 213.743 205.062 213.501 204.856 213.174C204.651 212.838 204.548 212.418 204.548 211.914C204.548 211.167 204.842 210.593 205.43 210.192C206.018 209.781 206.924 209.557 208.146 209.52L209.42 209.478V209.03C209.42 208.405 209.285 207.971 209.014 207.728C208.744 207.485 208.361 207.364 207.866 207.364C207.474 207.364 207.101 207.425 206.746 207.546C206.392 207.658 206.06 207.789 205.752 207.938L205.374 207.014C205.701 206.837 206.088 206.687 206.536 206.566C206.984 206.435 207.451 206.37 207.936 206.37ZM208.3 210.374C207.367 210.411 206.718 210.561 206.354 210.822C206 211.083 205.822 211.452 205.822 211.928C205.822 212.348 205.948 212.656 206.2 212.852C206.462 213.048 206.793 213.146 207.194 213.146C207.829 213.146 208.356 212.973 208.776 212.628C209.196 212.273 209.406 211.732 209.406 211.004V210.332L208.3 210.374ZM207.488 203.276C207.591 203.481 207.717 203.715 207.866 203.976C208.025 204.228 208.188 204.475 208.356 204.718C208.534 204.961 208.692 205.171 208.832 205.348V205.516H208.006C207.848 205.385 207.67 205.231 207.474 205.054C207.278 204.867 207.082 204.676 206.886 204.48C206.7 204.275 206.527 204.079 206.368 203.892C206.219 203.705 206.102 203.547 206.018 203.416V203.276H207.488ZM215.949 210.164C215.949 209.399 216.019 208.652 216.159 207.924C216.308 207.196 216.537 206.501 216.845 205.838C217.153 205.175 217.54 204.564 218.007 204.004H219.169C218.739 204.583 218.375 205.208 218.077 205.88C217.787 206.552 217.568 207.247 217.419 207.966C217.269 208.685 217.195 209.413 217.195 210.15C217.195 210.869 217.269 211.583 217.419 212.292C217.568 213.001 217.787 213.683 218.077 214.336C218.366 214.999 218.725 215.624 219.155 216.212H218.007C217.54 215.661 217.153 215.059 216.845 214.406C216.537 213.762 216.308 213.081 216.159 212.362C216.019 211.643 215.949 210.911 215.949 210.164ZM220.146 210.164C220.146 209.399 220.216 208.652 220.356 207.924C220.505 207.196 220.734 206.501 221.042 205.838C221.35 205.175 221.737 204.564 222.204 204.004H223.366C222.937 204.583 222.573 205.208 222.274 205.88C221.985 206.552 221.765 207.247 221.616 207.966C221.467 208.685 221.392 209.413 221.392 210.15C221.392 210.869 221.467 211.583 221.616 212.292C221.765 213.001 221.985 213.683 222.274 214.336C222.563 214.999 222.923 215.624 223.352 216.212H222.204C221.737 215.661 221.35 215.059 221.042 214.406C220.734 213.762 220.505 213.081 220.356 212.362C220.216 211.643 220.146 210.911 220.146 210.164ZM226.205 206.482C226.205 206.659 226.196 206.841 226.177 207.028C226.168 207.215 226.154 207.383 226.135 207.532H226.219C226.378 207.271 226.579 207.056 226.821 206.888C227.064 206.72 227.335 206.594 227.633 206.51C227.932 206.417 228.24 206.37 228.557 206.37C229.164 206.37 229.668 206.468 230.069 206.664C230.48 206.851 230.788 207.145 230.993 207.546C231.199 207.947 231.301 208.47 231.301 209.114V214H230.083V209.198C230.083 208.591 229.948 208.139 229.677 207.84C229.407 207.541 228.982 207.392 228.403 207.392C227.843 207.392 227.405 207.499 227.087 207.714C226.77 207.919 226.541 208.227 226.401 208.638C226.271 209.039 226.205 209.534 226.205 210.122V214H224.973V203.36H226.205V206.482ZM236.526 206.356C237.17 206.356 237.72 206.496 238.178 206.776C238.644 207.056 238.999 207.453 239.242 207.966C239.494 208.47 239.62 209.063 239.62 209.744V210.486H234.482C234.5 211.335 234.715 211.984 235.126 212.432C235.546 212.871 236.129 213.09 236.876 213.09C237.352 213.09 237.772 213.048 238.136 212.964C238.509 212.871 238.892 212.74 239.284 212.572V213.65C238.901 213.818 238.523 213.939 238.15 214.014C237.776 214.098 237.333 214.14 236.82 214.14C236.11 214.14 235.48 213.995 234.93 213.706C234.388 213.417 233.964 212.987 233.656 212.418C233.357 211.839 233.208 211.135 233.208 210.304C233.208 209.483 233.343 208.778 233.614 208.19C233.894 207.602 234.281 207.149 234.776 206.832C235.28 206.515 235.863 206.356 236.526 206.356ZM236.512 207.364C235.924 207.364 235.457 207.555 235.112 207.938C234.776 208.311 234.575 208.834 234.51 209.506H238.332C238.332 209.077 238.266 208.703 238.136 208.386C238.005 208.069 237.804 207.821 237.534 207.644C237.272 207.457 236.932 207.364 236.512 207.364ZM247.802 206.496V214H246.794L246.612 213.006H246.556C246.397 213.267 246.192 213.482 245.94 213.65C245.688 213.818 245.413 213.939 245.114 214.014C244.815 214.098 244.503 214.14 244.176 214.14C243.579 214.14 243.075 214.047 242.664 213.86C242.263 213.664 241.959 213.365 241.754 212.964C241.549 212.563 241.446 212.045 241.446 211.41V206.496H242.692V211.326C242.692 211.923 242.827 212.371 243.098 212.67C243.369 212.969 243.789 213.118 244.358 213.118C244.918 213.118 245.357 213.015 245.674 212.81C246.001 212.595 246.229 212.287 246.36 211.886C246.5 211.475 246.57 210.981 246.57 210.402V206.496H247.802ZM253.684 206.356C253.824 206.356 253.973 206.365 254.132 206.384C254.3 206.393 254.445 206.412 254.566 206.44L254.412 207.574C254.291 207.546 254.155 207.523 254.006 207.504C253.866 207.485 253.731 207.476 253.6 207.476C253.311 207.476 253.035 207.537 252.774 207.658C252.513 207.779 252.279 207.952 252.074 208.176C251.869 208.391 251.705 208.652 251.584 208.96C251.472 209.268 251.416 209.613 251.416 209.996V214H250.184V206.496H251.192L251.332 207.868H251.388C251.547 207.588 251.738 207.336 251.962 207.112C252.186 206.879 252.443 206.697 252.732 206.566C253.021 206.426 253.339 206.356 253.684 206.356ZM258.592 206.356C259.236 206.356 259.787 206.496 260.244 206.776C260.711 207.056 261.065 207.453 261.308 207.966C261.56 208.47 261.686 209.063 261.686 209.744V210.486H256.548C256.567 211.335 256.781 211.984 257.192 212.432C257.612 212.871 258.195 213.09 258.942 213.09C259.418 213.09 259.838 213.048 260.202 212.964C260.575 212.871 260.958 212.74 261.35 212.572V213.65C260.967 213.818 260.589 213.939 260.216 214.014C259.843 214.098 259.399 214.14 258.886 214.14C258.177 214.14 257.547 213.995 256.996 213.706C256.455 213.417 256.03 212.987 255.722 212.418C255.423 211.839 255.274 211.135 255.274 210.304C255.274 209.483 255.409 208.778 255.68 208.19C255.96 207.602 256.347 207.149 256.842 206.832C257.346 206.515 257.929 206.356 258.592 206.356ZM258.578 207.364C257.99 207.364 257.523 207.555 257.178 207.938C256.842 208.311 256.641 208.834 256.576 209.506H260.398C260.398 209.077 260.333 208.703 260.202 208.386C260.071 208.069 259.871 207.821 259.6 207.644C259.339 207.457 258.998 207.364 258.578 207.364ZM266.046 210.164C266.046 210.911 265.972 211.643 265.822 212.362C265.682 213.081 265.458 213.762 265.15 214.406C264.852 215.059 264.464 215.661 263.988 216.212H262.84C263.27 215.624 263.629 214.999 263.918 214.336C264.208 213.683 264.427 213.001 264.576 212.292C264.726 211.583 264.8 210.869 264.8 210.15C264.8 209.413 264.726 208.685 264.576 207.966C264.427 207.247 264.208 206.552 263.918 205.88C263.629 205.208 263.265 204.583 262.826 204.004H263.988C264.464 204.564 264.852 205.175 265.15 205.838C265.458 206.501 265.682 207.196 265.822 207.924C265.972 208.652 266.046 209.399 266.046 210.164ZM270.244 210.164C270.244 210.911 270.169 211.643 270.02 212.362C269.88 213.081 269.656 213.762 269.348 214.406C269.049 215.059 268.662 215.661 268.186 216.212H267.038C267.467 215.624 267.826 214.999 268.116 214.336C268.405 213.683 268.624 213.001 268.774 212.292C268.923 211.583 268.998 210.869 268.998 210.15C268.998 209.413 268.923 208.685 268.774 207.966C268.624 207.247 268.405 206.552 268.116 205.88C267.826 205.208 267.462 204.583 267.024 204.004H268.186C268.662 204.564 269.049 205.175 269.348 205.838C269.656 206.501 269.88 207.196 270.02 207.924C270.169 208.652 270.244 209.399 270.244 210.164ZM271.809 213.244C271.809 212.899 271.893 212.656 272.061 212.516C272.229 212.376 272.429 212.306 272.663 212.306C272.905 212.306 273.111 212.376 273.279 212.516C273.456 212.656 273.545 212.899 273.545 213.244C273.545 213.58 273.456 213.823 273.279 213.972C273.111 214.121 272.905 214.196 272.663 214.196C272.429 214.196 272.229 214.121 272.061 213.972C271.893 213.823 271.809 213.58 271.809 213.244Z" fill="black"/>
<rect x="68.5" y="125.5" width="311" height="103" stroke="#AFB9C3"/>
<rect x="66" y="123" width="316" height="108" stroke="#F6BE00" stroke-width="4"/>
<mask id="path-12-inside-1_7870_4479" fill="white">
<path d="M68 249H173V286H68V249Z"/>
</mask>
<path d="M68 249H173V286H68V249Z" fill="#26374A"/>
<path d="M89.958 273H84.33V263.004H89.958V264.292H85.842V267.148H89.706V268.422H85.842V271.698H89.958V273ZM95.777 265.314C96.6543 265.314 97.3263 265.533 97.793 265.972C98.2596 266.411 98.493 267.115 98.493 268.086V273H97.023V268.296C97.023 267.708 96.897 267.269 96.645 266.98C96.4023 266.681 96.0103 266.532 95.469 266.532C94.7036 266.532 94.1716 266.761 93.873 267.218C93.5836 267.675 93.439 268.333 93.439 269.192V273H91.955V265.454H93.131L93.341 266.462H93.425C93.593 266.201 93.7983 265.986 94.041 265.818C94.2836 265.65 94.5543 265.524 94.853 265.44C95.1516 265.356 95.4596 265.314 95.777 265.314ZM104.497 265.314C104.628 265.314 104.773 265.323 104.931 265.342C105.09 265.351 105.221 265.365 105.323 265.384L105.169 266.77C105.067 266.742 104.945 266.719 104.805 266.7C104.665 266.681 104.535 266.672 104.413 266.672C104.133 266.672 103.863 266.728 103.601 266.84C103.349 266.943 103.121 267.097 102.915 267.302C102.71 267.498 102.547 267.741 102.425 268.03C102.313 268.319 102.257 268.651 102.257 269.024V273H100.773V265.454H101.949L102.145 266.798H102.201C102.36 266.527 102.551 266.28 102.775 266.056C102.999 265.832 103.256 265.655 103.545 265.524C103.835 265.384 104.152 265.314 104.497 265.314ZM109.415 265.314C110.078 265.314 110.647 265.454 111.123 265.734C111.599 266.005 111.963 266.397 112.215 266.91C112.476 267.423 112.607 268.03 112.607 268.73V269.542H107.539C107.558 270.317 107.758 270.909 108.141 271.32C108.533 271.731 109.079 271.936 109.779 271.936C110.264 271.936 110.694 271.894 111.067 271.81C111.45 271.717 111.842 271.581 112.243 271.404V272.636C111.87 272.804 111.487 272.93 111.095 273.014C110.712 273.098 110.255 273.14 109.723 273.14C108.995 273.14 108.351 272.995 107.791 272.706C107.231 272.417 106.792 271.987 106.475 271.418C106.167 270.839 106.013 270.13 106.013 269.29C106.013 268.441 106.153 267.722 106.433 267.134C106.722 266.546 107.119 266.098 107.623 265.79C108.136 265.473 108.734 265.314 109.415 265.314ZM109.415 266.462C108.883 266.462 108.454 266.635 108.127 266.98C107.81 267.325 107.623 267.815 107.567 268.45H111.123C111.123 268.058 111.062 267.713 110.941 267.414C110.82 267.115 110.633 266.882 110.381 266.714C110.129 266.546 109.807 266.462 109.415 266.462ZM117.063 265.314C117.548 265.314 117.987 265.407 118.379 265.594C118.771 265.781 119.102 266.065 119.373 266.448H119.443L119.611 265.454H120.815V273.098C120.815 273.807 120.689 274.405 120.437 274.89C120.185 275.375 119.798 275.739 119.275 275.982C118.762 276.234 118.113 276.36 117.329 276.36C116.788 276.36 116.288 276.323 115.831 276.248C115.374 276.173 114.954 276.057 114.571 275.898V274.596C114.842 274.727 115.126 274.834 115.425 274.918C115.724 275.011 116.041 275.077 116.377 275.114C116.713 275.161 117.058 275.184 117.413 275.184C118.029 275.184 118.505 275.007 118.841 274.652C119.177 274.307 119.345 273.817 119.345 273.182V272.93C119.345 272.809 119.35 272.65 119.359 272.454C119.368 272.249 119.378 272.099 119.387 272.006H119.331C119.07 272.398 118.748 272.687 118.365 272.874C117.992 273.051 117.558 273.14 117.063 273.14C116.111 273.14 115.364 272.799 114.823 272.118C114.291 271.427 114.025 270.471 114.025 269.248C114.025 268.427 114.146 267.727 114.389 267.148C114.632 266.56 114.977 266.107 115.425 265.79C115.882 265.473 116.428 265.314 117.063 265.314ZM117.371 266.546C116.979 266.546 116.648 266.653 116.377 266.868C116.106 267.073 115.901 267.377 115.761 267.778C115.621 268.179 115.551 268.674 115.551 269.262C115.551 270.139 115.705 270.807 116.013 271.264C116.33 271.721 116.792 271.95 117.399 271.95C117.754 271.95 118.052 271.903 118.295 271.81C118.547 271.717 118.752 271.572 118.911 271.376C119.079 271.18 119.2 270.933 119.275 270.634C119.359 270.326 119.401 269.957 119.401 269.528V269.248C119.401 268.604 119.326 268.086 119.177 267.694C119.037 267.293 118.818 267.003 118.519 266.826C118.22 266.639 117.838 266.546 117.371 266.546ZM124.625 265.454V273H123.141V265.454H124.625ZM123.897 262.584C124.121 262.584 124.317 262.649 124.485 262.78C124.653 262.911 124.737 263.13 124.737 263.438C124.737 263.737 124.653 263.956 124.485 264.096C124.317 264.227 124.121 264.292 123.897 264.292C123.654 264.292 123.449 264.227 123.281 264.096C123.122 263.956 123.043 263.737 123.043 263.438C123.043 263.13 123.122 262.911 123.281 262.78C123.449 262.649 123.654 262.584 123.897 262.584ZM131.967 270.872C131.967 271.367 131.846 271.782 131.603 272.118C131.36 272.454 131.01 272.711 130.553 272.888C130.096 273.056 129.545 273.14 128.901 273.14C128.369 273.14 127.912 273.098 127.529 273.014C127.156 272.939 126.81 272.827 126.493 272.678V271.376C126.829 271.535 127.216 271.679 127.655 271.81C128.094 271.931 128.523 271.992 128.943 271.992C129.503 271.992 129.904 271.903 130.147 271.726C130.399 271.549 130.525 271.311 130.525 271.012C130.525 270.844 130.478 270.695 130.385 270.564C130.292 270.424 130.114 270.284 129.853 270.144C129.601 269.995 129.228 269.827 128.733 269.64C128.257 269.444 127.851 269.253 127.515 269.066C127.179 268.87 126.922 268.641 126.745 268.38C126.568 268.109 126.479 267.764 126.479 267.344C126.479 266.691 126.74 266.191 127.263 265.846C127.795 265.491 128.495 265.314 129.363 265.314C129.82 265.314 130.25 265.361 130.651 265.454C131.062 265.538 131.458 265.669 131.841 265.846L131.351 266.98C131.136 266.877 130.912 266.793 130.679 266.728C130.455 266.653 130.226 266.593 129.993 266.546C129.769 266.499 129.536 266.476 129.293 266.476C128.845 266.476 128.504 266.546 128.271 266.686C128.038 266.826 127.921 267.022 127.921 267.274C127.921 267.451 127.972 267.605 128.075 267.736C128.187 267.867 128.378 267.997 128.649 268.128C128.92 268.259 129.288 268.417 129.755 268.604C130.222 268.781 130.618 268.963 130.945 269.15C131.281 269.337 131.533 269.565 131.701 269.836C131.878 270.107 131.967 270.452 131.967 270.872ZM136.452 271.936C136.648 271.936 136.849 271.917 137.054 271.88C137.26 271.843 137.437 271.801 137.586 271.754V272.874C137.428 272.949 137.213 273.009 136.942 273.056C136.672 273.112 136.401 273.14 136.13 273.14C135.72 273.14 135.342 273.07 134.996 272.93C134.66 272.79 134.39 272.547 134.184 272.202C133.979 271.857 133.876 271.376 133.876 270.76V266.588H132.826V265.916L133.932 265.356L134.45 263.76H135.36V265.454H137.516V266.588H135.36V270.732C135.36 271.143 135.458 271.446 135.654 271.642C135.86 271.838 136.126 271.936 136.452 271.936ZM142.82 265.314C142.95 265.314 143.095 265.323 143.254 265.342C143.412 265.351 143.543 265.365 143.646 265.384L143.492 266.77C143.389 266.742 143.268 266.719 143.128 266.7C142.988 266.681 142.857 266.672 142.736 266.672C142.456 266.672 142.185 266.728 141.924 266.84C141.672 266.943 141.443 267.097 141.238 267.302C141.032 267.498 140.869 267.741 140.748 268.03C140.636 268.319 140.58 268.651 140.58 269.024V273H139.096V265.454H140.272L140.468 266.798H140.524C140.682 266.527 140.874 266.28 141.098 266.056C141.322 265.832 141.578 265.655 141.868 265.524C142.157 265.384 142.474 265.314 142.82 265.314ZM147.737 265.314C148.4 265.314 148.969 265.454 149.445 265.734C149.921 266.005 150.285 266.397 150.537 266.91C150.799 267.423 150.929 268.03 150.929 268.73V269.542H145.861C145.88 270.317 146.081 270.909 146.463 271.32C146.855 271.731 147.401 271.936 148.101 271.936C148.587 271.936 149.016 271.894 149.389 271.81C149.772 271.717 150.164 271.581 150.565 271.404V272.636C150.192 272.804 149.809 272.93 149.417 273.014C149.035 273.098 148.577 273.14 148.045 273.14C147.317 273.14 146.673 272.995 146.113 272.706C145.553 272.417 145.115 271.987 144.797 271.418C144.489 270.839 144.335 270.13 144.335 269.29C144.335 268.441 144.475 267.722 144.755 267.134C145.045 266.546 145.441 266.098 145.945 265.79C146.459 265.473 147.056 265.314 147.737 265.314ZM147.737 266.462C147.205 266.462 146.776 266.635 146.449 266.98C146.132 267.325 145.945 267.815 145.889 268.45H149.445C149.445 268.058 149.385 267.713 149.263 267.414C149.142 267.115 148.955 266.882 148.703 266.714C148.451 266.546 148.129 266.462 147.737 266.462ZM156.505 265.314C156.636 265.314 156.78 265.323 156.939 265.342C157.098 265.351 157.228 265.365 157.331 265.384L157.177 266.77C157.074 266.742 156.953 266.719 156.813 266.7C156.673 266.681 156.542 266.672 156.421 266.672C156.141 266.672 155.87 266.728 155.609 266.84C155.357 266.943 155.128 267.097 154.923 267.302C154.718 267.498 154.554 267.741 154.433 268.03C154.321 268.319 154.265 268.651 154.265 269.024V273H152.781V265.454H153.957L154.153 266.798H154.209C154.368 266.527 154.559 266.28 154.783 266.056C155.007 265.832 155.264 265.655 155.553 265.524C155.842 265.384 156.16 265.314 156.505 265.314Z" fill="white"/>
<path d="M173 284H68V288H173V284Z" fill="black" fill-opacity="0.8" mask="url(#path-12-inside-1_7870_4479)"/>
<path d="M28 8.5H488C498.77 8.5 507.5 17.2304 507.5 28V307.5H8.5V28C8.5 17.2304 17.2304 8.5 28 8.5Z" stroke="#AFB9C3"/>
</g>
<defs>
<filter id="filter0_d_7870_4479" x="0" y="0" width="524" height="324" filterUnits="userSpaceOnUse" color-interpolation-filters="sRGB">
<feFlood flood-opacity="0" result="BackgroundImageFix"/>
<feColorMatrix in="SourceAlpha" type="matrix" values="0 0 0 0 0 0 0 0 0 0 0 0 0 0 0 0 0 0 127 0" result="hardAlpha"/>
<feOffset dx="4" dy="4"/>
<feGaussianBlur stdDeviation="6"/>
<feColorMatrix type="matrix" values="0 0 0 0 0 0 0 0 0 0 0 0 0 0 0 0 0 0 0.1 0"/>
<feBlend mode="normal" in2="BackgroundImageFix" result="effect1_dropShadow_7870_4479"/>
<feBlend mode="normal" in="SourceGraphic" in2="effect1_dropShadow_7870_4479" result="shape"/>
</filter>
</defs>
</svg>
