<svg width="524" height="324" viewBox="0 0 524 324" fill="none" xmlns="http://www.w3.org/2000/svg">
<g filter="url(#filter0_d_7870_4644)">
<path d="M8 28C8 16.9543 16.9543 8 28 8H488C499.046 8 508 16.9543 508 28V308H8V28Z" fill="white"/>
<path d="M8 28C8 16.9543 16.9543 8 28 8H488C499.046 8 508 16.9543 508 28V38H8V28Z" fill="#909CA8"/>
<rect width="500" height="270" transform="translate(8 38)" fill="white"/>
<path d="M79.232 85H70.088V67.864H79.232V70.072H72.752V74.968H78.848V77.152H72.752V82.768H79.232V85ZM88.6991 71.824C90.1071 71.824 91.1871 72.2 91.9391 72.952C92.7071 73.704 93.0911 74.912 93.0911 76.576V85H90.4991V76.936C90.4991 75.928 90.2991 75.176 89.8991 74.68C89.5151 74.168 88.9151 73.912 88.0991 73.912C86.8991 73.912 86.0751 74.304 85.6271 75.088C85.1791 75.872 84.9551 77 84.9551 78.472V85H82.3631V72.064H84.4031L84.7631 73.792H84.9071C85.1791 73.344 85.5071 72.976 85.8911 72.688C86.2751 72.4 86.7071 72.184 87.1871 72.04C87.6671 71.896 88.1711 71.824 88.6991 71.824ZM99.4679 85L94.8359 72.064H97.5959L100.02 79.624C100.148 79.944 100.26 80.304 100.356 80.704C100.468 81.104 100.564 81.488 100.644 81.856C100.724 82.224 100.78 82.544 100.812 82.816H100.908C100.94 82.544 100.996 82.224 101.076 81.856C101.172 81.472 101.276 81.088 101.388 80.704C101.5 80.304 101.612 79.944 101.724 79.624L104.148 72.064H106.932L102.276 85H99.4679ZM119.626 78.52C119.626 79.592 119.49 80.544 119.218 81.376C118.946 82.208 118.554 82.912 118.042 83.488C117.546 84.064 116.938 84.504 116.218 84.808C115.498 85.096 114.69 85.24 113.794 85.24C112.978 85.24 112.218 85.096 111.514 84.808C110.81 84.504 110.202 84.064 109.69 83.488C109.178 82.912 108.778 82.208 108.49 81.376C108.218 80.544 108.082 79.584 108.082 78.496C108.082 77.072 108.314 75.864 108.778 74.872C109.242 73.88 109.906 73.128 110.77 72.616C111.65 72.088 112.69 71.824 113.89 71.824C115.01 71.824 116.002 72.088 116.866 72.616C117.73 73.128 118.402 73.88 118.882 74.872C119.378 75.864 119.626 77.08 119.626 78.52ZM110.77 78.52C110.77 79.48 110.874 80.312 111.082 81.016C111.306 81.704 111.642 82.232 112.09 82.6C112.554 82.968 113.138 83.152 113.842 83.152C114.562 83.152 115.146 82.968 115.594 82.6C116.058 82.232 116.394 81.704 116.602 81.016C116.826 80.312 116.938 79.48 116.938 78.52C116.938 77.528 116.826 76.696 116.602 76.024C116.378 75.352 116.042 74.84 115.594 74.488C115.146 74.12 114.554 73.936 113.818 73.936C112.746 73.936 111.97 74.336 111.49 75.136C111.01 75.936 110.77 77.064 110.77 78.52ZM120.337 72.064H123.121L125.593 79.408C125.721 79.776 125.833 80.136 125.929 80.488C126.041 80.84 126.129 81.192 126.193 81.544C126.273 81.88 126.337 82.216 126.385 82.552H126.457C126.537 82.136 126.649 81.648 126.793 81.088C126.937 80.512 127.097 79.944 127.273 79.384L129.625 72.064H132.432L127.249 86.752C126.945 87.584 126.577 88.296 126.145 88.888C125.729 89.496 125.217 89.96 124.609 90.28C124.017 90.6 123.305 90.76 122.473 90.76C122.121 90.76 121.801 90.736 121.513 90.688C121.241 90.656 121.001 90.616 120.793 90.568V88.552C120.953 88.584 121.153 88.616 121.393 88.648C121.633 88.68 121.881 88.696 122.137 88.696C122.601 88.696 123.001 88.6 123.337 88.408C123.673 88.216 123.953 87.944 124.177 87.592C124.401 87.256 124.585 86.856 124.729 86.392L125.209 85L120.337 72.064ZM139.15 71.824C140.222 71.824 141.15 72.064 141.934 72.544C142.718 73.008 143.318 73.68 143.734 74.56C144.166 75.44 144.382 76.48 144.382 77.68V79.072H136.246C136.278 80.4 136.598 81.416 137.206 82.12C137.814 82.824 138.67 83.176 139.774 83.176C140.558 83.176 141.254 83.104 141.862 82.96C142.486 82.8 143.118 82.568 143.758 82.264V84.376C143.15 84.664 142.526 84.88 141.886 85.024C141.262 85.168 140.502 85.24 139.606 85.24C138.438 85.24 137.398 84.992 136.486 84.496C135.574 84 134.862 83.264 134.35 82.288C133.838 81.296 133.582 80.08 133.582 78.64C133.582 77.184 133.814 75.952 134.278 74.944C134.742 73.936 135.39 73.168 136.222 72.64C137.07 72.096 138.046 71.824 139.15 71.824ZM139.15 73.792C138.334 73.792 137.678 74.088 137.182 74.68C136.686 75.272 136.398 76.112 136.318 77.2H141.814C141.814 76.528 141.718 75.936 141.526 75.424C141.334 74.912 141.038 74.512 140.638 74.224C140.254 73.936 139.758 73.792 139.15 73.792ZM142.99 66.856C142.83 67.08 142.598 67.352 142.294 67.672C142.006 67.992 141.686 68.328 141.334 68.68C140.982 69.016 140.63 69.344 140.278 69.664C139.942 69.968 139.63 70.232 139.342 70.456H137.638V70.168C137.878 69.864 138.142 69.504 138.43 69.088C138.718 68.672 139.006 68.248 139.294 67.816C139.582 67.368 139.814 66.968 139.99 66.616H142.99V66.856ZM157.296 85.24C155.856 85.24 154.688 84.68 153.792 83.56C152.912 82.44 152.472 80.776 152.472 78.568C152.472 76.344 152.92 74.664 153.816 73.528C154.712 72.392 155.888 71.824 157.344 71.824C157.968 71.824 158.504 71.912 158.952 72.088C159.4 72.248 159.792 72.472 160.128 72.76C160.464 73.048 160.744 73.368 160.968 73.72H161.112C161.08 73.496 161.04 73.176 160.992 72.76C160.96 72.328 160.944 71.944 160.944 71.608V66.76H163.536V85H161.496L161.04 83.272H160.944C160.72 83.64 160.44 83.976 160.104 84.28C159.768 84.568 159.368 84.8 158.904 84.976C158.456 85.152 157.92 85.24 157.296 85.24ZM157.992 83.152C159.112 83.152 159.896 82.808 160.344 82.12C160.808 81.416 161.04 80.368 161.04 78.976V78.592C161.04 77.072 160.824 75.912 160.392 75.112C159.96 74.312 159.152 73.912 157.968 73.912C157.04 73.912 156.336 74.336 155.856 75.184C155.376 76.016 155.136 77.16 155.136 78.616C155.136 80.072 155.376 81.192 155.856 81.976C156.336 82.76 157.048 83.152 157.992 83.152ZM172.079 71.824C173.599 71.824 174.743 72.184 175.511 72.904C176.295 73.608 176.687 74.72 176.687 76.24V85H174.839L174.335 83.2H174.239C173.871 83.664 173.503 84.048 173.135 84.352C172.783 84.656 172.367 84.88 171.887 85.024C171.423 85.168 170.847 85.24 170.159 85.24C169.439 85.24 168.791 85.104 168.215 84.832C167.639 84.544 167.183 84.112 166.847 83.536C166.511 82.944 166.343 82.208 166.343 81.328C166.343 80.016 166.807 79.016 167.735 78.328C168.679 77.64 170.111 77.264 172.031 77.2L174.095 77.128V76.408C174.095 75.448 173.895 74.776 173.495 74.392C173.111 74.008 172.567 73.816 171.863 73.816C171.271 73.816 170.687 73.912 170.111 74.104C169.535 74.296 168.975 74.528 168.431 74.8L167.639 72.952C168.231 72.632 168.903 72.368 169.655 72.16C170.423 71.936 171.231 71.824 172.079 71.824ZM172.535 78.832C171.223 78.896 170.311 79.144 169.799 79.576C169.287 79.992 169.031 80.584 169.031 81.352C169.031 82.024 169.207 82.512 169.559 82.816C169.927 83.12 170.399 83.272 170.975 83.272C171.855 83.272 172.591 82.992 173.183 82.432C173.791 81.872 174.095 81.032 174.095 79.912V78.784L172.535 78.832ZM186.598 71.824C188.006 71.824 189.086 72.2 189.838 72.952C190.606 73.704 190.99 74.912 190.99 76.576V85H188.398V76.936C188.398 75.928 188.198 75.176 187.798 74.68C187.414 74.168 186.814 73.912 185.998 73.912C184.798 73.912 183.974 74.304 183.526 75.088C183.078 75.872 182.854 77 182.854 78.472V85H180.262V72.064H182.302L182.662 73.792H182.806C183.078 73.344 183.406 72.976 183.79 72.688C184.174 72.4 184.606 72.184 185.086 72.04C185.566 71.896 186.07 71.824 186.598 71.824ZM202.79 81.352C202.79 82.2 202.598 82.912 202.214 83.488C201.83 84.064 201.27 84.504 200.534 84.808C199.798 85.096 198.894 85.24 197.822 85.24C196.974 85.24 196.23 85.168 195.59 85.024C194.966 84.896 194.39 84.704 193.862 84.448V82.216C194.422 82.488 195.062 82.736 195.782 82.96C196.502 83.168 197.19 83.272 197.846 83.272C198.694 83.272 199.31 83.12 199.694 82.816C200.078 82.512 200.27 82.104 200.27 81.592C200.27 81.304 200.19 81.048 200.03 80.824C199.886 80.584 199.606 80.344 199.19 80.104C198.774 79.848 198.174 79.56 197.39 79.24C196.622 78.904 195.974 78.576 195.446 78.256C194.934 77.92 194.534 77.528 194.246 77.08C193.974 76.616 193.838 76.024 193.838 75.304C193.838 74.184 194.27 73.328 195.134 72.736C195.998 72.128 197.126 71.824 198.518 71.824C199.286 71.824 199.998 71.904 200.654 72.064C201.31 72.208 201.95 72.432 202.574 72.736L201.782 74.68C201.414 74.504 201.038 74.36 200.654 74.248C200.286 74.12 199.918 74.016 199.55 73.936C199.182 73.856 198.814 73.816 198.446 73.816C197.758 73.816 197.238 73.936 196.886 74.176C196.534 74.416 196.358 74.752 196.358 75.184C196.358 75.504 196.438 75.776 196.598 76C196.774 76.224 197.07 76.448 197.486 76.672C197.918 76.896 198.51 77.16 199.262 77.464C200.014 77.768 200.654 78.08 201.182 78.4C201.71 78.72 202.11 79.112 202.382 79.576C202.654 80.04 202.79 80.632 202.79 81.352ZM214.025 85H211.433V66.76H214.025V85ZM222.564 71.824C224.084 71.824 225.228 72.184 225.996 72.904C226.78 73.608 227.172 74.72 227.172 76.24V85H225.324L224.82 83.2H224.724C224.356 83.664 223.988 84.048 223.62 84.352C223.268 84.656 222.852 84.88 222.372 85.024C221.908 85.168 221.332 85.24 220.644 85.24C219.924 85.24 219.276 85.104 218.7 84.832C218.124 84.544 217.668 84.112 217.332 83.536C216.996 82.944 216.828 82.208 216.828 81.328C216.828 80.016 217.292 79.016 218.22 78.328C219.164 77.64 220.596 77.264 222.516 77.2L224.58 77.128V76.408C224.58 75.448 224.38 74.776 223.98 74.392C223.596 74.008 223.052 73.816 222.348 73.816C221.756 73.816 221.172 73.912 220.596 74.104C220.02 74.296 219.46 74.528 218.916 74.8L218.124 72.952C218.716 72.632 219.388 72.368 220.14 72.16C220.908 71.936 221.716 71.824 222.564 71.824ZM223.02 78.832C221.708 78.896 220.796 79.144 220.284 79.576C219.772 79.992 219.516 80.584 219.516 81.352C219.516 82.024 219.692 82.512 220.044 82.816C220.412 83.12 220.884 83.272 221.46 83.272C222.34 83.272 223.076 82.992 223.668 82.432C224.276 81.872 224.58 81.032 224.58 79.912V78.784L223.02 78.832ZM240.757 85.24C239.317 85.24 238.149 84.68 237.253 83.56C236.373 82.44 235.933 80.776 235.933 78.568C235.933 76.344 236.381 74.664 237.277 73.528C238.173 72.392 239.349 71.824 240.805 71.824C241.429 71.824 241.965 71.912 242.413 72.088C242.861 72.248 243.253 72.472 243.589 72.76C243.925 73.048 244.205 73.368 244.429 73.72H244.573C244.541 73.496 244.501 73.176 244.453 72.76C244.421 72.328 244.405 71.944 244.405 71.608V66.76H246.997V85H244.957L244.501 83.272H244.405C244.181 83.64 243.901 83.976 243.565 84.28C243.229 84.568 242.829 84.8 242.365 84.976C241.917 85.152 241.381 85.24 240.757 85.24ZM241.453 83.152C242.573 83.152 243.357 82.808 243.805 82.12C244.269 81.416 244.501 80.368 244.501 78.976V78.592C244.501 77.072 244.285 75.912 243.853 75.112C243.421 74.312 242.613 73.912 241.429 73.912C240.501 73.912 239.797 74.336 239.317 75.184C238.837 76.016 238.597 77.16 238.597 78.616C238.597 80.072 238.837 81.192 239.317 81.976C239.797 82.76 240.509 83.152 241.453 83.152ZM255.54 71.824C256.612 71.824 257.54 72.064 258.324 72.544C259.108 73.008 259.708 73.68 260.124 74.56C260.556 75.44 260.772 76.48 260.772 77.68V79.072H252.636C252.668 80.4 252.988 81.416 253.596 82.12C254.204 82.824 255.06 83.176 256.164 83.176C256.948 83.176 257.644 83.104 258.252 82.96C258.876 82.8 259.508 82.568 260.148 82.264V84.376C259.54 84.664 258.916 84.88 258.276 85.024C257.652 85.168 256.892 85.24 255.996 85.24C254.828 85.24 253.788 84.992 252.876 84.496C251.964 84 251.252 83.264 250.74 82.288C250.228 81.296 249.972 80.08 249.972 78.64C249.972 77.184 250.204 75.952 250.668 74.944C251.132 73.936 251.78 73.168 252.612 72.64C253.46 72.096 254.436 71.824 255.54 71.824ZM255.54 73.792C254.724 73.792 254.068 74.088 253.572 74.68C253.076 75.272 252.788 76.112 252.708 77.2H258.204C258.204 76.528 258.108 75.936 257.916 75.424C257.724 74.912 257.428 74.512 257.028 74.224C256.644 73.936 256.148 73.792 255.54 73.792ZM269.844 71.824C270.052 71.824 270.284 71.84 270.54 71.872C270.796 71.888 271.012 71.912 271.188 71.944L270.924 74.32C270.748 74.272 270.548 74.232 270.324 74.2C270.1 74.168 269.876 74.152 269.652 74.152C269.22 74.152 268.804 74.248 268.404 74.44C268.004 74.616 267.644 74.88 267.324 75.232C267.004 75.568 266.748 75.984 266.556 76.48C266.364 76.976 266.268 77.544 266.268 78.184V85H263.676V72.064H265.716L266.052 74.368H266.196C266.436 73.904 266.732 73.48 267.084 73.096C267.452 72.712 267.868 72.408 268.332 72.184C268.796 71.944 269.3 71.824 269.844 71.824ZM279.715 71.824C281.123 71.824 282.203 72.2 282.955 72.952C283.723 73.704 284.107 74.912 284.107 76.576V85H281.515V76.936C281.515 75.928 281.315 75.176 280.915 74.68C280.531 74.168 279.931 73.912 279.115 73.912C277.915 73.912 277.091 74.304 276.643 75.088C276.195 75.872 275.971 77 275.971 78.472V85H273.379V72.064H275.419L275.779 73.792H275.923C276.195 73.344 276.523 72.976 276.907 72.688C277.291 72.4 277.723 72.184 278.203 72.04C278.683 71.896 279.187 71.824 279.715 71.824ZM290.292 72.064V85H287.676V72.064H290.292ZM289.02 67.144C289.404 67.144 289.74 67.256 290.028 67.48C290.316 67.704 290.46 68.08 290.46 68.608C290.46 69.12 290.316 69.496 290.028 69.736C289.74 69.96 289.404 70.072 289.02 70.072C288.604 70.072 288.252 69.96 287.964 69.736C287.676 69.496 287.532 69.12 287.532 68.608C287.532 68.08 287.676 67.704 287.964 67.48C288.252 67.256 288.604 67.144 289.02 67.144ZM298.829 71.824C299.901 71.824 300.829 72.064 301.613 72.544C302.397 73.008 302.997 73.68 303.413 74.56C303.845 75.44 304.061 76.48 304.061 77.68V79.072H295.925C295.957 80.4 296.277 81.416 296.885 82.12C297.493 82.824 298.349 83.176 299.453 83.176C300.237 83.176 300.933 83.104 301.541 82.96C302.165 82.8 302.797 82.568 303.437 82.264V84.376C302.829 84.664 302.205 84.88 301.565 85.024C300.941 85.168 300.181 85.24 299.285 85.24C298.117 85.24 297.077 84.992 296.165 84.496C295.253 84 294.541 83.264 294.029 82.288C293.517 81.296 293.261 80.08 293.261 78.64C293.261 77.184 293.493 75.952 293.957 74.944C294.421 73.936 295.069 73.168 295.901 72.64C296.749 72.096 297.725 71.824 298.829 71.824ZM298.829 73.792C298.013 73.792 297.357 74.088 296.861 74.68C296.365 75.272 296.077 76.112 295.997 77.2H301.493C301.493 76.528 301.397 75.936 301.205 75.424C301.013 74.912 300.717 74.512 300.317 74.224C299.933 73.936 299.437 73.792 298.829 73.792ZM297.941 66.616C298.133 66.968 298.365 67.368 298.637 67.816C298.925 68.248 299.213 68.672 299.501 69.088C299.805 69.504 300.069 69.864 300.293 70.168V70.456H298.541C298.285 70.232 297.981 69.968 297.629 69.664C297.277 69.344 296.925 69.016 296.573 68.68C296.237 68.328 295.925 67.992 295.637 67.672C295.349 67.352 295.117 67.08 294.941 66.856V66.616H297.941ZM313.133 71.824C313.341 71.824 313.573 71.84 313.829 71.872C314.085 71.888 314.301 71.912 314.477 71.944L314.213 74.32C314.037 74.272 313.837 74.232 313.613 74.2C313.389 74.168 313.165 74.152 312.941 74.152C312.509 74.152 312.093 74.248 311.693 74.44C311.293 74.616 310.933 74.88 310.613 75.232C310.293 75.568 310.037 75.984 309.845 76.48C309.653 76.976 309.557 77.544 309.557 78.184V85H306.965V72.064H309.005L309.341 74.368H309.485C309.725 73.904 310.021 73.48 310.373 73.096C310.741 72.712 311.157 72.408 311.621 72.184C312.085 71.944 312.589 71.824 313.133 71.824ZM321.118 71.824C322.19 71.824 323.118 72.064 323.902 72.544C324.686 73.008 325.286 73.68 325.702 74.56C326.134 75.44 326.35 76.48 326.35 77.68V79.072H318.214C318.246 80.4 318.566 81.416 319.174 82.12C319.782 82.824 320.638 83.176 321.742 83.176C322.526 83.176 323.222 83.104 323.83 82.96C324.454 82.8 325.086 82.568 325.726 82.264V84.376C325.118 84.664 324.494 84.88 323.854 85.024C323.23 85.168 322.47 85.24 321.574 85.24C320.406 85.24 319.366 84.992 318.454 84.496C317.542 84 316.83 83.264 316.318 82.288C315.806 81.296 315.55 80.08 315.55 78.64C315.55 77.184 315.782 75.952 316.246 74.944C316.71 73.936 317.358 73.168 318.19 72.64C319.038 72.096 320.014 71.824 321.118 71.824ZM321.118 73.792C320.302 73.792 319.646 74.088 319.15 74.68C318.654 75.272 318.366 76.112 318.286 77.2H323.782C323.782 76.528 323.686 75.936 323.494 75.424C323.302 74.912 323.006 74.512 322.606 74.224C322.222 73.936 321.726 73.792 321.118 73.792ZM343.345 81.352C343.345 82.2 343.153 82.912 342.769 83.488C342.385 84.064 341.825 84.504 341.089 84.808C340.353 85.096 339.449 85.24 338.377 85.24C337.529 85.24 336.785 85.168 336.145 85.024C335.521 84.896 334.945 84.704 334.417 84.448V82.216C334.977 82.488 335.617 82.736 336.337 82.96C337.057 83.168 337.745 83.272 338.401 83.272C339.249 83.272 339.865 83.12 340.249 82.816C340.633 82.512 340.825 82.104 340.825 81.592C340.825 81.304 340.745 81.048 340.585 80.824C340.441 80.584 340.161 80.344 339.745 80.104C339.329 79.848 338.729 79.56 337.945 79.24C337.177 78.904 336.529 78.576 336.001 78.256C335.489 77.92 335.089 77.528 334.801 77.08C334.529 76.616 334.393 76.024 334.393 75.304C334.393 74.184 334.825 73.328 335.689 72.736C336.553 72.128 337.681 71.824 339.073 71.824C339.841 71.824 340.553 71.904 341.209 72.064C341.865 72.208 342.505 72.432 343.129 72.736L342.337 74.68C341.969 74.504 341.593 74.36 341.209 74.248C340.841 74.12 340.473 74.016 340.105 73.936C339.737 73.856 339.369 73.816 339.001 73.816C338.313 73.816 337.793 73.936 337.441 74.176C337.089 74.416 336.913 74.752 336.913 75.184C336.913 75.504 336.993 75.776 337.153 76C337.329 76.224 337.625 76.448 338.041 76.672C338.473 76.896 339.065 77.16 339.817 77.464C340.569 77.768 341.209 78.08 341.737 78.4C342.265 78.72 342.665 79.112 342.937 79.576C343.209 80.04 343.345 80.632 343.345 81.352ZM351.025 71.824C352.097 71.824 353.025 72.064 353.809 72.544C354.593 73.008 355.193 73.68 355.609 74.56C356.041 75.44 356.257 76.48 356.257 77.68V79.072H348.121C348.153 80.4 348.473 81.416 349.081 82.12C349.689 82.824 350.545 83.176 351.649 83.176C352.433 83.176 353.129 83.104 353.737 82.96C354.361 82.8 354.993 82.568 355.633 82.264V84.376C355.025 84.664 354.401 84.88 353.761 85.024C353.137 85.168 352.377 85.24 351.481 85.24C350.313 85.24 349.273 84.992 348.361 84.496C347.449 84 346.737 83.264 346.225 82.288C345.713 81.296 345.457 80.08 345.457 78.64C345.457 77.184 345.689 75.952 346.153 74.944C346.617 73.936 347.265 73.168 348.097 72.64C348.945 72.096 349.921 71.824 351.025 71.824ZM351.025 73.792C350.209 73.792 349.553 74.088 349.057 74.68C348.561 75.272 348.273 76.112 348.193 77.2H353.689C353.689 76.528 353.593 75.936 353.401 75.424C353.209 74.912 352.913 74.512 352.513 74.224C352.129 73.936 351.633 73.792 351.025 73.792ZM372.96 71.824C374.336 71.824 375.368 72.2 376.056 72.952C376.76 73.704 377.112 74.912 377.112 76.576V85H374.52V76.912C374.52 75.92 374.336 75.176 373.968 74.68C373.616 74.168 373.064 73.912 372.312 73.912C371.272 73.912 370.528 74.272 370.08 74.992C369.648 75.696 369.432 76.72 369.432 78.064V85H366.816V76.912C366.816 76.256 366.736 75.704 366.576 75.256C366.416 74.808 366.176 74.472 365.856 74.248C365.536 74.024 365.12 73.912 364.608 73.912C363.888 73.912 363.32 74.088 362.904 74.44C362.488 74.792 362.192 75.312 362.016 76C361.84 76.672 361.752 77.496 361.752 78.472V85H359.16V72.064H361.2L361.584 73.792H361.704C361.96 73.344 362.264 72.976 362.616 72.688C362.984 72.4 363.4 72.184 363.864 72.04C364.328 71.896 364.808 71.824 365.304 71.824C366.216 71.824 366.984 72 367.608 72.352C368.232 72.688 368.696 73.208 369 73.912H369.168C369.552 73.192 370.088 72.664 370.776 72.328C371.464 71.992 372.192 71.824 372.96 71.824ZM385.572 71.824C387.092 71.824 388.236 72.184 389.004 72.904C389.788 73.608 390.18 74.72 390.18 76.24V85H388.332L387.828 83.2H387.732C387.364 83.664 386.996 84.048 386.628 84.352C386.276 84.656 385.86 84.88 385.38 85.024C384.916 85.168 384.34 85.24 383.652 85.24C382.932 85.24 382.284 85.104 381.708 84.832C381.132 84.544 380.676 84.112 380.34 83.536C380.004 82.944 379.836 82.208 379.836 81.328C379.836 80.016 380.3 79.016 381.228 78.328C382.172 77.64 383.604 77.264 385.524 77.2L387.588 77.128V76.408C387.588 75.448 387.388 74.776 386.988 74.392C386.604 74.008 386.06 73.816 385.356 73.816C384.764 73.816 384.18 73.912 383.604 74.104C383.028 74.296 382.468 74.528 381.924 74.8L381.132 72.952C381.724 72.632 382.396 72.368 383.148 72.16C383.916 71.936 384.724 71.824 385.572 71.824ZM386.028 78.832C384.716 78.896 383.804 79.144 383.292 79.576C382.78 79.992 382.524 80.584 382.524 81.352C382.524 82.024 382.7 82.512 383.052 82.816C383.42 83.12 383.892 83.272 384.468 83.272C385.348 83.272 386.084 82.992 386.676 82.432C387.284 81.872 387.588 81.032 387.588 79.912V78.784L386.028 78.832ZM396.37 72.064V85H393.754V72.064H396.37ZM395.098 67.144C395.482 67.144 395.818 67.256 396.106 67.48C396.394 67.704 396.538 68.08 396.538 68.608C396.538 69.12 396.394 69.496 396.106 69.736C395.818 69.96 395.482 70.072 395.098 70.072C394.682 70.072 394.33 69.96 394.042 69.736C393.754 69.496 393.61 69.12 393.61 68.608C393.61 68.08 393.754 67.704 394.042 67.48C394.33 67.256 394.682 67.144 395.098 67.144ZM406.348 71.824C407.756 71.824 408.836 72.2 409.588 72.952C410.356 73.704 410.74 74.912 410.74 76.576V85H408.148V76.936C408.148 75.928 407.948 75.176 407.548 74.68C407.164 74.168 406.564 73.912 405.748 73.912C404.548 73.912 403.724 74.304 403.276 75.088C402.828 75.872 402.604 77 402.604 78.472V85H400.012V72.064H402.052L402.412 73.792H402.556C402.828 73.344 403.156 72.976 403.54 72.688C403.924 72.4 404.356 72.184 404.836 72.04C405.316 71.896 405.82 71.824 406.348 71.824ZM419.204 71.824C420.276 71.824 421.204 72.064 421.988 72.544C422.772 73.008 423.372 73.68 423.788 74.56C424.22 75.44 424.436 76.48 424.436 77.68V79.072H416.3C416.332 80.4 416.652 81.416 417.26 82.12C417.868 82.824 418.724 83.176 419.828 83.176C420.612 83.176 421.308 83.104 421.916 82.96C422.54 82.8 423.172 82.568 423.812 82.264V84.376C423.204 84.664 422.58 84.88 421.94 85.024C421.316 85.168 420.556 85.24 419.66 85.24C418.492 85.24 417.452 84.992 416.54 84.496C415.628 84 414.916 83.264 414.404 82.288C413.892 81.296 413.636 80.08 413.636 78.64C413.636 77.184 413.868 75.952 414.332 74.944C414.796 73.936 415.444 73.168 416.276 72.64C417.124 72.096 418.1 71.824 419.204 71.824ZM419.204 73.792C418.388 73.792 417.732 74.088 417.236 74.68C416.74 75.272 416.452 76.112 416.372 77.2H421.868C421.868 76.528 421.772 75.936 421.58 75.424C421.388 74.912 421.092 74.512 420.692 74.224C420.308 73.936 419.812 73.792 419.204 73.792Z" fill="black"/>
<rect width="182.5" height="105" transform="translate(68 106)" fill="#213045"/>
<path d="M101.856 160H79.968V156.064L88.272 147.088C89.872 145.328 91.2 143.808 92.256 142.528C93.312 141.216 94.096 139.968 94.608 138.784C95.152 137.568 95.424 136.256 95.424 134.848C95.424 133.088 94.96 131.776 94.032 130.912C93.136 130.016 91.952 129.568 90.48 129.568C89.04 129.568 87.744 129.872 86.592 130.48C85.44 131.056 84.24 131.872 82.992 132.928L80.16 129.52C81.056 128.72 82 128 82.992 127.36C84.016 126.72 85.152 126.208 86.4 125.824C87.68 125.44 89.12 125.248 90.72 125.248C92.768 125.248 94.528 125.632 96 126.4C97.504 127.136 98.656 128.192 99.456 129.568C100.288 130.944 100.704 132.56 100.704 134.416C100.704 135.792 100.496 137.072 100.08 138.256C99.696 139.44 99.12 140.608 98.352 141.76C97.616 142.912 96.72 144.096 95.664 145.312C94.64 146.496 93.504 147.776 92.256 149.152L86.592 155.248V155.488H101.856V160ZM114.915 154.96C114.659 156.08 114.307 157.296 113.859 158.608C113.443 159.92 112.979 161.216 112.467 162.496C111.987 163.808 111.507 165.04 111.027 166.192H107.235C107.523 164.944 107.811 163.616 108.099 162.208C108.387 160.832 108.659 159.472 108.915 158.128C109.171 156.784 109.363 155.552 109.491 154.432H114.579L114.915 154.96ZM142.265 133.648C142.265 135.184 141.977 136.528 141.401 137.68C140.825 138.8 140.025 139.712 139.001 140.416C138.009 141.12 136.825 141.632 135.449 141.952V142.144C138.073 142.464 140.025 143.328 141.305 144.736C142.617 146.112 143.273 147.936 143.273 150.208C143.273 152.192 142.825 153.968 141.929 155.536C141.033 157.072 139.641 158.288 137.753 159.184C135.897 160.048 133.513 160.48 130.601 160.48C128.841 160.48 127.225 160.336 125.753 160.048C124.313 159.76 122.921 159.28 121.577 158.608V154C122.921 154.736 124.361 155.296 125.897 155.68C127.465 156.064 128.937 156.256 130.313 156.256C132.969 156.256 134.873 155.712 136.025 154.624C137.177 153.504 137.753 151.952 137.753 149.968C137.753 148.688 137.449 147.648 136.841 146.848C136.233 146.016 135.305 145.408 134.057 145.024C132.809 144.608 131.225 144.4 129.305 144.4H126.521V140.224H129.353C131.145 140.224 132.601 139.984 133.721 139.504C134.873 138.992 135.705 138.288 136.217 137.392C136.761 136.496 137.033 135.472 137.033 134.32C137.033 132.784 136.569 131.6 135.641 130.768C134.745 129.904 133.449 129.472 131.753 129.472C130.665 129.472 129.657 129.6 128.729 129.856C127.833 130.112 127.001 130.448 126.233 130.864C125.497 131.28 124.809 131.744 124.169 132.256L121.721 128.752C122.521 128.112 123.433 127.52 124.457 126.976C125.481 126.432 126.617 126.016 127.865 125.728C129.113 125.408 130.505 125.248 132.041 125.248C135.401 125.248 137.945 126.032 139.673 127.6C141.401 129.136 142.265 131.152 142.265 133.648ZM152.924 160L165.596 130.24H148.988V125.728H171.164V129.376L158.54 160H152.924ZM176.927 145.408C176.927 143.424 177.055 141.472 177.311 139.552C177.567 137.632 178.015 135.824 178.655 134.128C179.327 132.4 180.239 130.88 181.391 129.568C182.543 128.224 184.015 127.184 185.807 126.448C187.599 125.68 189.759 125.296 192.287 125.296C192.927 125.296 193.631 125.328 194.399 125.392C195.199 125.424 195.871 125.52 196.415 125.68V129.952C195.839 129.76 195.199 129.616 194.495 129.52C193.823 129.424 193.119 129.376 192.383 129.376C190.399 129.376 188.735 129.712 187.391 130.384C186.079 131.056 185.023 131.984 184.223 133.168C183.455 134.352 182.895 135.728 182.543 137.296C182.191 138.832 181.983 140.512 181.919 142.336H182.159C182.607 141.568 183.151 140.88 183.791 140.272C184.463 139.664 185.263 139.184 186.191 138.832C187.151 138.48 188.255 138.304 189.503 138.304C191.391 138.304 193.023 138.72 194.399 139.552C195.775 140.384 196.847 141.584 197.615 143.152C198.383 144.72 198.767 146.624 198.767 148.864C198.767 151.264 198.335 153.344 197.471 155.104C196.607 156.832 195.391 158.16 193.823 159.088C192.255 160.016 190.383 160.48 188.207 160.48C186.639 160.48 185.167 160.176 183.791 159.568C182.415 158.96 181.215 158.032 180.191 156.784C179.167 155.536 178.367 153.968 177.791 152.08C177.215 150.16 176.927 147.936 176.927 145.408ZM188.159 156.256C189.791 156.256 191.103 155.664 192.095 154.48C193.119 153.264 193.631 151.392 193.631 148.864C193.631 146.848 193.183 145.248 192.287 144.064C191.391 142.88 190.047 142.288 188.255 142.288C187.039 142.288 185.967 142.576 185.039 143.152C184.143 143.728 183.439 144.464 182.927 145.36C182.415 146.256 182.159 147.168 182.159 148.096C182.159 149.088 182.271 150.064 182.495 151.024C182.751 151.984 183.135 152.864 183.647 153.664C184.159 154.464 184.783 155.104 185.519 155.584C186.287 156.032 187.167 156.256 188.159 156.256Z" fill="#F0F2F5"/>
<path d="M82.5 194.15C81.76 194.15 81.11 194.005 80.55 193.715C79.99 193.425 79.555 192.975 79.245 192.365C78.935 191.745 78.78 190.96 78.78 190.01C78.78 189.01 78.945 188.2 79.275 187.58C79.615 186.96 80.07 186.505 80.64 186.215C81.22 185.915 81.88 185.765 82.62 185.765C83.07 185.765 83.49 185.815 83.88 185.915C84.28 186.005 84.61 186.11 84.87 186.23L84.39 187.52C84.11 187.41 83.81 187.315 83.49 187.235C83.18 187.155 82.885 187.115 82.605 187.115C82.105 187.115 81.69 187.225 81.36 187.445C81.04 187.655 80.8 187.975 80.64 188.405C80.49 188.825 80.415 189.355 80.415 189.995C80.415 190.605 80.495 191.12 80.655 191.54C80.815 191.96 81.05 192.28 81.36 192.5C81.68 192.71 82.075 192.815 82.545 192.815C82.995 192.815 83.39 192.765 83.73 192.665C84.07 192.565 84.39 192.435 84.69 192.275V193.655C84.4 193.825 84.085 193.95 83.745 194.03C83.405 194.11 82.99 194.15 82.5 194.15ZM93.7235 189.95C93.7235 190.62 93.6335 191.215 93.4535 191.735C93.2735 192.255 93.0185 192.695 92.6885 193.055C92.3585 193.415 91.9585 193.69 91.4885 193.88C91.0185 194.06 90.4885 194.15 89.8985 194.15C89.3585 194.15 88.8585 194.06 88.3985 193.88C87.9385 193.69 87.5385 193.415 87.1985 193.055C86.8685 192.695 86.6085 192.255 86.4185 191.735C86.2285 191.215 86.1335 190.615 86.1335 189.935C86.1335 189.045 86.2835 188.29 86.5835 187.67C86.8935 187.05 87.3335 186.58 87.9035 186.26C88.4835 185.93 89.1635 185.765 89.9435 185.765C90.6835 185.765 91.3335 185.93 91.8935 186.26C92.4635 186.58 92.9085 187.05 93.2285 187.67C93.5585 188.29 93.7235 189.05 93.7235 189.95ZM87.7685 189.95C87.7685 190.55 87.8435 191.07 87.9935 191.51C88.1435 191.94 88.3785 192.27 88.6985 192.5C89.0185 192.73 89.4285 192.845 89.9285 192.845C90.4285 192.845 90.8385 192.73 91.1585 192.5C91.4785 192.27 91.7135 191.94 91.8635 191.51C92.0135 191.07 92.0885 190.55 92.0885 189.95C92.0885 189.33 92.0085 188.81 91.8485 188.39C91.6985 187.97 91.4635 187.65 91.1435 187.43C90.8335 187.2 90.4235 187.085 89.9135 187.085C89.1635 187.085 88.6185 187.335 88.2785 187.835C87.9385 188.335 87.7685 189.04 87.7685 189.95ZM102.699 185.915V194H101.424L101.199 192.935H101.124C100.954 193.215 100.734 193.445 100.464 193.625C100.194 193.805 99.8991 193.935 99.5791 194.015C99.2591 194.105 98.9291 194.15 98.5891 194.15C97.9591 194.15 97.4241 194.05 96.9841 193.85C96.5541 193.64 96.2241 193.32 95.9941 192.89C95.7741 192.45 95.6641 191.89 95.6641 191.21V185.915H97.2691V190.97C97.2691 191.6 97.3991 192.07 97.6591 192.38C97.9291 192.69 98.3441 192.845 98.9041 192.845C99.4641 192.845 99.9041 192.735 100.224 192.515C100.544 192.295 100.769 191.975 100.899 191.555C101.039 191.125 101.109 190.61 101.109 190.01V185.915H102.699ZM109.177 185.765C109.317 185.765 109.472 185.775 109.642 185.795C109.812 185.805 109.952 185.82 110.062 185.84L109.897 187.325C109.787 187.295 109.657 187.27 109.507 187.25C109.357 187.23 109.217 187.22 109.087 187.22C108.787 187.22 108.497 187.28 108.217 187.4C107.947 187.51 107.702 187.675 107.482 187.895C107.262 188.105 107.087 188.365 106.957 188.675C106.837 188.985 106.777 189.34 106.777 189.74V194H105.187V185.915H106.447L106.657 187.355H106.717C106.887 187.065 107.092 186.8 107.332 186.56C107.572 186.32 107.847 186.13 108.157 185.99C108.467 185.84 108.807 185.765 109.177 185.765ZM115.549 185.765C115.689 185.765 115.844 185.775 116.014 185.795C116.184 185.805 116.324 185.82 116.434 185.84L116.269 187.325C116.159 187.295 116.029 187.27 115.879 187.25C115.729 187.23 115.589 187.22 115.459 187.22C115.159 187.22 114.869 187.28 114.589 187.4C114.319 187.51 114.074 187.675 113.854 187.895C113.634 188.105 113.459 188.365 113.329 188.675C113.209 188.985 113.149 189.34 113.149 189.74V194H111.559V185.915H112.819L113.029 187.355H113.089C113.259 187.065 113.464 186.8 113.704 186.56C113.944 186.32 114.219 186.13 114.529 185.99C114.839 185.84 115.179 185.765 115.549 185.765ZM119.522 185.915V194H117.932V185.915H119.522ZM118.742 182.84C118.982 182.84 119.192 182.91 119.372 183.05C119.552 183.19 119.642 183.425 119.642 183.755C119.642 184.075 119.552 184.31 119.372 184.46C119.192 184.6 118.982 184.67 118.742 184.67C118.482 184.67 118.262 184.6 118.082 184.46C117.912 184.31 117.827 184.075 117.827 183.755C117.827 183.425 117.912 183.19 118.082 183.05C118.262 182.91 118.482 182.84 118.742 182.84ZM125.198 185.765C125.908 185.765 126.518 185.915 127.028 186.215C127.538 186.505 127.928 186.925 128.198 187.475C128.478 188.025 128.618 188.675 128.618 189.425V190.295H123.188C123.208 191.125 123.423 191.76 123.833 192.2C124.253 192.64 124.838 192.86 125.588 192.86C126.108 192.86 126.568 192.815 126.968 192.725C127.378 192.625 127.798 192.48 128.228 192.29V193.61C127.828 193.79 127.418 193.925 126.998 194.015C126.588 194.105 126.098 194.15 125.528 194.15C124.748 194.15 124.058 193.995 123.458 193.685C122.858 193.375 122.388 192.915 122.048 192.305C121.718 191.685 121.553 190.925 121.553 190.025C121.553 189.115 121.703 188.345 122.003 187.715C122.313 187.085 122.738 186.605 123.278 186.275C123.828 185.935 124.468 185.765 125.198 185.765ZM125.198 186.995C124.628 186.995 124.168 187.18 123.818 187.55C123.478 187.92 123.278 188.445 123.218 189.125H127.028C127.028 188.705 126.963 188.335 126.833 188.015C126.703 187.695 126.503 187.445 126.233 187.265C125.963 187.085 125.618 186.995 125.198 186.995ZM132.192 194H130.602V182.6H132.192V194ZM140.059 191.72C140.059 192.25 139.929 192.695 139.669 193.055C139.409 193.415 139.034 193.69 138.544 193.88C138.054 194.06 137.464 194.15 136.774 194.15C136.204 194.15 135.714 194.105 135.304 194.015C134.904 193.935 134.534 193.815 134.194 193.655V192.26C134.554 192.43 134.969 192.585 135.439 192.725C135.909 192.855 136.369 192.92 136.819 192.92C137.419 192.92 137.849 192.825 138.109 192.635C138.379 192.445 138.514 192.19 138.514 191.87C138.514 191.69 138.464 191.53 138.364 191.39C138.264 191.24 138.074 191.09 137.794 190.94C137.524 190.78 137.124 190.6 136.594 190.4C136.084 190.19 135.649 189.985 135.289 189.785C134.929 189.575 134.654 189.33 134.464 189.05C134.274 188.76 134.179 188.39 134.179 187.94C134.179 187.24 134.459 186.705 135.019 186.335C135.589 185.955 136.339 185.765 137.269 185.765C137.759 185.765 138.219 185.815 138.649 185.915C139.089 186.005 139.514 186.145 139.924 186.335L139.399 187.55C139.169 187.44 138.929 187.35 138.679 187.28C138.439 187.2 138.194 187.135 137.944 187.085C137.704 187.035 137.454 187.01 137.194 187.01C136.714 187.01 136.349 187.085 136.099 187.235C135.849 187.385 135.724 187.595 135.724 187.865C135.724 188.055 135.779 188.22 135.889 188.36C136.009 188.5 136.214 188.64 136.504 188.78C136.794 188.92 137.189 189.09 137.689 189.29C138.189 189.48 138.614 189.675 138.964 189.875C139.324 190.075 139.594 190.32 139.774 190.61C139.964 190.9 140.059 191.27 140.059 191.72ZM149.031 185.765C149.741 185.765 150.351 185.915 150.861 186.215C151.371 186.505 151.761 186.925 152.031 187.475C152.311 188.025 152.451 188.675 152.451 189.425V190.295H147.021C147.041 191.125 147.256 191.76 147.666 192.2C148.086 192.64 148.671 192.86 149.421 192.86C149.941 192.86 150.401 192.815 150.801 192.725C151.211 192.625 151.631 192.48 152.061 192.29V193.61C151.661 193.79 151.251 193.925 150.831 194.015C150.421 194.105 149.931 194.15 149.361 194.15C148.581 194.15 147.891 193.995 147.291 193.685C146.691 193.375 146.221 192.915 145.881 192.305C145.551 191.685 145.386 190.925 145.386 190.025C145.386 189.115 145.536 188.345 145.836 187.715C146.146 187.085 146.571 186.605 147.111 186.275C147.661 185.935 148.301 185.765 149.031 185.765ZM149.031 186.995C148.461 186.995 148.001 187.18 147.651 187.55C147.311 187.92 147.111 188.445 147.051 189.125H150.861C150.861 188.705 150.796 188.335 150.666 188.015C150.536 187.695 150.336 187.445 150.066 187.265C149.796 187.085 149.451 186.995 149.031 186.995ZM158.53 185.765C159.47 185.765 160.19 186 160.69 186.47C161.19 186.94 161.44 187.695 161.44 188.735V194H159.865V188.96C159.865 188.33 159.73 187.86 159.46 187.55C159.2 187.23 158.78 187.07 158.2 187.07C157.38 187.07 156.81 187.315 156.49 187.805C156.18 188.295 156.025 189 156.025 189.92V194H154.435V185.915H155.695L155.92 186.995H156.01C156.19 186.715 156.41 186.485 156.67 186.305C156.93 186.125 157.22 185.99 157.54 185.9C157.86 185.81 158.19 185.765 158.53 185.765ZM165.699 194L162.639 185.915H164.319L165.999 190.64C166.069 190.84 166.139 191.065 166.209 191.315C166.289 191.565 166.359 191.805 166.419 192.035C166.479 192.265 166.519 192.465 166.539 192.635H166.599C166.629 192.465 166.674 192.265 166.734 192.035C166.804 191.795 166.879 191.555 166.959 191.315C167.039 191.065 167.109 190.84 167.169 190.64L168.849 185.915H170.529L167.454 194H165.699ZM178.904 189.95C178.904 190.62 178.814 191.215 178.634 191.735C178.454 192.255 178.199 192.695 177.869 193.055C177.539 193.415 177.139 193.69 176.669 193.88C176.199 194.06 175.669 194.15 175.079 194.15C174.539 194.15 174.039 194.06 173.579 193.88C173.119 193.69 172.719 193.415 172.379 193.055C172.049 192.695 171.789 192.255 171.599 191.735C171.409 191.215 171.314 190.615 171.314 189.935C171.314 189.045 171.464 188.29 171.764 187.67C172.074 187.05 172.514 186.58 173.084 186.26C173.664 185.93 174.344 185.765 175.124 185.765C175.864 185.765 176.514 185.93 177.074 186.26C177.644 186.58 178.089 187.05 178.409 187.67C178.739 188.29 178.904 189.05 178.904 189.95ZM172.949 189.95C172.949 190.55 173.024 191.07 173.174 191.51C173.324 191.94 173.559 192.27 173.879 192.5C174.199 192.73 174.609 192.845 175.109 192.845C175.609 192.845 176.019 192.73 176.339 192.5C176.659 192.27 176.894 191.94 177.044 191.51C177.194 191.07 177.269 190.55 177.269 189.95C177.269 189.33 177.189 188.81 177.029 188.39C176.879 187.97 176.644 187.65 176.324 187.43C176.014 187.2 175.604 187.085 175.094 187.085C174.344 187.085 173.799 187.335 173.459 187.835C173.119 188.335 172.949 189.04 172.949 189.95ZM179.397 185.915H181.107L182.787 190.505C182.877 190.735 182.957 190.96 183.027 191.18C183.097 191.4 183.157 191.62 183.207 191.84C183.267 192.05 183.312 192.26 183.342 192.47H183.402C183.452 192.21 183.532 191.905 183.642 191.555C183.752 191.195 183.867 190.84 183.987 190.49L185.577 185.915H187.287L183.822 195.095C183.632 195.615 183.397 196.06 183.117 196.43C182.837 196.81 182.502 197.1 182.112 197.3C181.732 197.5 181.282 197.6 180.762 197.6C180.512 197.6 180.297 197.585 180.117 197.555C179.937 197.535 179.782 197.51 179.652 197.48V196.22C179.762 196.24 179.892 196.26 180.042 196.28C180.202 196.3 180.367 196.31 180.537 196.31C180.847 196.31 181.112 196.25 181.332 196.13C181.562 196.01 181.752 195.84 181.902 195.62C182.062 195.4 182.197 195.15 182.307 194.87L182.637 194L179.397 185.915ZM191.717 185.765C192.427 185.765 193.037 185.915 193.547 186.215C194.057 186.505 194.447 186.925 194.717 187.475C194.997 188.025 195.137 188.675 195.137 189.425V190.295H189.707C189.727 191.125 189.942 191.76 190.352 192.2C190.772 192.64 191.357 192.86 192.107 192.86C192.627 192.86 193.087 192.815 193.487 192.725C193.897 192.625 194.317 192.48 194.747 192.29V193.61C194.347 193.79 193.937 193.925 193.517 194.015C193.107 194.105 192.617 194.15 192.047 194.15C191.267 194.15 190.577 193.995 189.977 193.685C189.377 193.375 188.907 192.915 188.567 192.305C188.237 191.685 188.072 190.925 188.072 190.025C188.072 189.115 188.222 188.345 188.522 187.715C188.832 187.085 189.257 186.605 189.797 186.275C190.347 185.935 190.987 185.765 191.717 185.765ZM191.717 186.995C191.147 186.995 190.687 187.18 190.337 187.55C189.997 187.92 189.797 188.445 189.737 189.125H193.547C193.547 188.705 193.482 188.335 193.352 188.015C193.222 187.695 193.022 187.445 192.752 187.265C192.482 187.085 192.137 186.995 191.717 186.995ZM194.117 182.66C194.007 182.8 193.857 182.97 193.667 183.17C193.487 183.37 193.282 183.58 193.052 183.8C192.832 184.01 192.612 184.215 192.392 184.415C192.172 184.605 191.972 184.77 191.792 184.91H190.742V184.73C190.892 184.54 191.062 184.315 191.252 184.055C191.442 183.795 191.627 183.53 191.807 183.26C191.987 182.98 192.137 182.73 192.257 182.51H194.117V182.66ZM202.491 191.72C202.491 192.25 202.361 192.695 202.101 193.055C201.841 193.415 201.466 193.69 200.976 193.88C200.486 194.06 199.896 194.15 199.206 194.15C198.636 194.15 198.146 194.105 197.736 194.015C197.336 193.935 196.966 193.815 196.626 193.655V192.26C196.986 192.43 197.401 192.585 197.871 192.725C198.341 192.855 198.801 192.92 199.251 192.92C199.851 192.92 200.281 192.825 200.541 192.635C200.811 192.445 200.946 192.19 200.946 191.87C200.946 191.69 200.896 191.53 200.796 191.39C200.696 191.24 200.506 191.09 200.226 190.94C199.956 190.78 199.556 190.6 199.026 190.4C198.516 190.19 198.081 189.985 197.721 189.785C197.361 189.575 197.086 189.33 196.896 189.05C196.706 188.76 196.611 188.39 196.611 187.94C196.611 187.24 196.891 186.705 197.451 186.335C198.021 185.955 198.771 185.765 199.701 185.765C200.191 185.765 200.651 185.815 201.081 185.915C201.521 186.005 201.946 186.145 202.356 186.335L201.831 187.55C201.601 187.44 201.361 187.35 201.111 187.28C200.871 187.2 200.626 187.135 200.376 187.085C200.136 187.035 199.886 187.01 199.626 187.01C199.146 187.01 198.781 187.085 198.531 187.235C198.281 187.385 198.156 187.595 198.156 187.865C198.156 188.055 198.211 188.22 198.321 188.36C198.441 188.5 198.646 188.64 198.936 188.78C199.226 188.92 199.621 189.09 200.121 189.29C200.621 189.48 201.046 189.675 201.396 189.875C201.756 190.075 202.026 190.32 202.206 190.61C202.396 190.9 202.491 191.27 202.491 191.72Z" fill="white"/>
<path d="M78 195.875H203.136V196.625H78V195.875Z" fill="white"/>
<rect width="182.5" height="45" transform="translate(68 216)" fill="#03662A"/>
<path d="M86.1 244L84.96 240.91H80.82L79.68 244H78L82.065 233.245H83.745L87.795 244H86.1ZM83.43 236.485C83.4 236.375 83.345 236.21 83.265 235.99C83.195 235.76 83.125 235.53 83.055 235.3C82.985 235.06 82.93 234.865 82.89 234.715C82.84 234.915 82.78 235.135 82.71 235.375C82.65 235.605 82.59 235.82 82.53 236.02C82.47 236.21 82.42 236.365 82.38 236.485L81.3 239.5H84.51L83.43 236.485ZM96.0195 235.915V244H94.7445L94.5195 242.935H94.4445C94.2745 243.215 94.0545 243.445 93.7845 243.625C93.5145 243.805 93.2195 243.935 92.8995 244.015C92.5795 244.105 92.2495 244.15 91.9095 244.15C91.2795 244.15 90.7445 244.05 90.3045 243.85C89.8745 243.64 89.5445 243.32 89.3145 242.89C89.0945 242.45 88.9845 241.89 88.9845 241.21V235.915H90.5895V240.97C90.5895 241.6 90.7195 242.07 90.9795 242.38C91.2495 242.69 91.6645 242.845 92.2245 242.845C92.7845 242.845 93.2245 242.735 93.5445 242.515C93.8645 242.295 94.0895 241.975 94.2195 241.555C94.3595 241.125 94.4295 240.61 94.4295 240.01V235.915H96.0195ZM101.763 244.15C101.023 244.15 100.373 244.005 99.8127 243.715C99.2527 243.425 98.8177 242.975 98.5077 242.365C98.1977 241.745 98.0427 240.96 98.0427 240.01C98.0427 239.01 98.2077 238.2 98.5377 237.58C98.8777 236.96 99.3327 236.505 99.9027 236.215C100.483 235.915 101.143 235.765 101.883 235.765C102.333 235.765 102.753 235.815 103.143 235.915C103.543 236.005 103.873 236.11 104.133 236.23L103.653 237.52C103.373 237.41 103.073 237.315 102.753 237.235C102.443 237.155 102.148 237.115 101.868 237.115C101.368 237.115 100.953 237.225 100.623 237.445C100.303 237.655 100.063 237.975 99.9027 238.405C99.7527 238.825 99.6777 239.355 99.6777 239.995C99.6777 240.605 99.7577 241.12 99.9177 241.54C100.078 241.96 100.313 242.28 100.623 242.5C100.943 242.71 101.338 242.815 101.808 242.815C102.258 242.815 102.653 242.765 102.993 242.665C103.333 242.565 103.653 242.435 103.953 242.275V243.655C103.663 243.825 103.348 243.95 103.008 244.03C102.668 244.11 102.253 244.15 101.763 244.15ZM112.821 235.915V244H111.546L111.321 242.935H111.246C111.076 243.215 110.856 243.445 110.586 243.625C110.316 243.805 110.021 243.935 109.701 244.015C109.381 244.105 109.051 244.15 108.711 244.15C108.081 244.15 107.546 244.05 107.106 243.85C106.676 243.64 106.346 243.32 106.116 242.89C105.896 242.45 105.786 241.89 105.786 241.21V235.915H107.391V240.97C107.391 241.6 107.521 242.07 107.781 242.38C108.051 242.69 108.466 242.845 109.026 242.845C109.586 242.845 110.026 242.735 110.346 242.515C110.666 242.295 110.891 241.975 111.021 241.555C111.161 241.125 111.231 240.61 111.231 240.01V235.915H112.821ZM119.404 235.765C120.344 235.765 121.064 236 121.564 236.47C122.064 236.94 122.314 237.695 122.314 238.735V244H120.739V238.96C120.739 238.33 120.604 237.86 120.334 237.55C120.074 237.23 119.654 237.07 119.074 237.07C118.254 237.07 117.684 237.315 117.364 237.805C117.054 238.295 116.899 239 116.899 239.92V244H115.309V235.915H116.569L116.794 236.995H116.884C117.064 236.715 117.284 236.485 117.544 236.305C117.804 236.125 118.094 235.99 118.414 235.9C118.734 235.81 119.064 235.765 119.404 235.765ZM131.834 235.765C132.544 235.765 133.154 235.915 133.664 236.215C134.174 236.505 134.564 236.925 134.834 237.475C135.114 238.025 135.254 238.675 135.254 239.425V240.295H129.824C129.844 241.125 130.059 241.76 130.469 242.2C130.889 242.64 131.474 242.86 132.224 242.86C132.744 242.86 133.204 242.815 133.604 242.725C134.014 242.625 134.434 242.48 134.864 242.29V243.61C134.464 243.79 134.054 243.925 133.634 244.015C133.224 244.105 132.734 244.15 132.164 244.15C131.384 244.15 130.694 243.995 130.094 243.685C129.494 243.375 129.024 242.915 128.684 242.305C128.354 241.685 128.189 240.925 128.189 240.025C128.189 239.115 128.339 238.345 128.639 237.715C128.949 237.085 129.374 236.605 129.914 236.275C130.464 235.935 131.104 235.765 131.834 235.765ZM131.834 236.995C131.264 236.995 130.804 237.18 130.454 237.55C130.114 237.92 129.914 238.445 129.854 239.125H133.664C133.664 238.705 133.599 238.335 133.469 238.015C133.339 237.695 133.139 237.445 132.869 237.265C132.599 237.085 132.254 236.995 131.834 236.995ZM134.234 232.66C134.124 232.8 133.974 232.97 133.784 233.17C133.604 233.37 133.399 233.58 133.169 233.8C132.949 234.01 132.729 234.215 132.509 234.415C132.289 234.605 132.089 234.77 131.909 234.91H130.859V234.73C131.009 234.54 131.179 234.315 131.369 234.055C131.559 233.795 131.744 233.53 131.924 233.26C132.104 232.98 132.254 232.73 132.374 232.51H134.234V232.66ZM140.493 244.15C139.753 244.15 139.103 244.005 138.543 243.715C137.983 243.425 137.548 242.975 137.238 242.365C136.928 241.745 136.773 240.96 136.773 240.01C136.773 239.01 136.938 238.2 137.268 237.58C137.608 236.96 138.063 236.505 138.633 236.215C139.213 235.915 139.873 235.765 140.613 235.765C141.063 235.765 141.483 235.815 141.873 235.915C142.273 236.005 142.603 236.11 142.863 236.23L142.383 237.52C142.103 237.41 141.803 237.315 141.483 237.235C141.173 237.155 140.878 237.115 140.598 237.115C140.098 237.115 139.683 237.225 139.353 237.445C139.033 237.655 138.793 237.975 138.633 238.405C138.483 238.825 138.408 239.355 138.408 239.995C138.408 240.605 138.488 241.12 138.648 241.54C138.808 241.96 139.043 242.28 139.353 242.5C139.673 242.71 140.068 242.815 140.538 242.815C140.988 242.815 141.383 242.765 141.723 242.665C142.063 242.565 142.383 242.435 142.683 242.275V243.655C142.393 243.825 142.078 243.95 141.738 244.03C141.398 244.11 140.983 244.15 140.493 244.15ZM146.182 235.645C146.182 235.895 146.172 236.145 146.152 236.395C146.132 236.645 146.112 236.85 146.092 237.01H146.197C146.367 236.73 146.577 236.5 146.827 236.32C147.087 236.14 147.372 236.005 147.682 235.915C148.002 235.825 148.327 235.78 148.657 235.78C149.297 235.78 149.832 235.885 150.262 236.095C150.702 236.295 151.032 236.615 151.252 237.055C151.482 237.485 151.597 238.045 151.597 238.735V244H150.022V238.96C150.022 238.33 149.887 237.86 149.617 237.55C149.357 237.23 148.937 237.07 148.357 237.07C147.807 237.07 147.372 237.18 147.052 237.4C146.742 237.62 146.517 237.945 146.377 238.375C146.247 238.795 146.182 239.315 146.182 239.935V244H144.592V232.6H146.182V235.645ZM157.22 235.765C157.93 235.765 158.54 235.915 159.05 236.215C159.56 236.505 159.95 236.925 160.22 237.475C160.5 238.025 160.64 238.675 160.64 239.425V240.295H155.21C155.23 241.125 155.445 241.76 155.855 242.2C156.275 242.64 156.86 242.86 157.61 242.86C158.13 242.86 158.59 242.815 158.99 242.725C159.4 242.625 159.82 242.48 160.25 242.29V243.61C159.85 243.79 159.44 243.925 159.02 244.015C158.61 244.105 158.12 244.15 157.55 244.15C156.77 244.15 156.08 243.995 155.48 243.685C154.88 243.375 154.41 242.915 154.07 242.305C153.74 241.685 153.575 240.925 153.575 240.025C153.575 239.115 153.725 238.345 154.025 237.715C154.335 237.085 154.76 236.605 155.3 236.275C155.85 235.935 156.49 235.765 157.22 235.765ZM157.22 236.995C156.65 236.995 156.19 237.18 155.84 237.55C155.5 237.92 155.3 238.445 155.24 239.125H159.05C159.05 238.705 158.985 238.335 158.855 238.015C158.725 237.695 158.525 237.445 158.255 237.265C157.985 237.085 157.64 236.995 157.22 236.995ZM165.879 244.15C165.139 244.15 164.489 244.005 163.929 243.715C163.369 243.425 162.934 242.975 162.624 242.365C162.314 241.745 162.159 240.96 162.159 240.01C162.159 239.01 162.324 238.2 162.654 237.58C162.994 236.96 163.449 236.505 164.019 236.215C164.599 235.915 165.259 235.765 165.999 235.765C166.449 235.765 166.869 235.815 167.259 235.915C167.659 236.005 167.989 236.11 168.249 236.23L167.769 237.52C167.489 237.41 167.189 237.315 166.869 237.235C166.559 237.155 166.264 237.115 165.984 237.115C165.484 237.115 165.069 237.225 164.739 237.445C164.419 237.655 164.179 237.975 164.019 238.405C163.869 238.825 163.794 239.355 163.794 239.995C163.794 240.605 163.874 241.12 164.034 241.54C164.194 241.96 164.429 242.28 164.739 242.5C165.059 242.71 165.454 242.815 165.924 242.815C166.374 242.815 166.769 242.765 167.109 242.665C167.449 242.565 167.769 242.435 168.069 242.275V243.655C167.779 243.825 167.464 243.95 167.124 244.03C166.784 244.11 166.369 244.15 165.879 244.15Z" fill="white"/>
<rect width="182.5" height="130" transform="translate(265.5 106)" fill="#213045"/>
<path d="M288.46 138.736C290.54 138.736 292.364 139.136 293.932 139.936C295.532 140.736 296.78 141.888 297.676 143.392C298.572 144.896 299.02 146.736 299.02 148.912C299.02 151.312 298.54 153.376 297.58 155.104C296.62 156.832 295.212 158.16 293.356 159.088C291.532 160.016 289.292 160.48 286.636 160.48C284.94 160.48 283.356 160.32 281.884 160C280.412 159.68 279.148 159.216 278.092 158.608V153.952C279.18 154.624 280.508 155.168 282.076 155.584C283.644 156 285.116 156.208 286.492 156.208C287.964 156.208 289.228 155.968 290.284 155.488C291.372 154.976 292.204 154.224 292.78 153.232C293.388 152.208 293.692 150.928 293.692 149.392C293.692 147.312 293.1 145.728 291.916 144.64C290.732 143.52 288.876 142.96 286.348 142.96C285.484 142.96 284.556 143.04 283.564 143.2C282.572 143.36 281.756 143.52 281.116 143.68L278.812 142.288L280.012 125.728H296.764V130.24H284.524L283.852 139.216C284.364 139.12 284.988 139.024 285.724 138.928C286.492 138.8 287.404 138.736 288.46 138.736ZM305.215 145.408C305.215 143.424 305.343 141.472 305.599 139.552C305.855 137.632 306.303 135.824 306.943 134.128C307.615 132.4 308.527 130.88 309.679 129.568C310.831 128.224 312.303 127.184 314.095 126.448C315.887 125.68 318.047 125.296 320.575 125.296C321.215 125.296 321.919 125.328 322.687 125.392C323.487 125.424 324.159 125.52 324.703 125.68V129.952C324.127 129.76 323.487 129.616 322.783 129.52C322.111 129.424 321.407 129.376 320.671 129.376C318.687 129.376 317.023 129.712 315.679 130.384C314.367 131.056 313.311 131.984 312.511 133.168C311.743 134.352 311.183 135.728 310.831 137.296C310.479 138.832 310.271 140.512 310.207 142.336H310.447C310.895 141.568 311.439 140.88 312.079 140.272C312.751 139.664 313.551 139.184 314.479 138.832C315.439 138.48 316.543 138.304 317.791 138.304C319.679 138.304 321.311 138.72 322.687 139.552C324.063 140.384 325.135 141.584 325.903 143.152C326.671 144.72 327.055 146.624 327.055 148.864C327.055 151.264 326.623 153.344 325.759 155.104C324.895 156.832 323.679 158.16 322.111 159.088C320.543 160.016 318.671 160.48 316.495 160.48C314.927 160.48 313.455 160.176 312.079 159.568C310.703 158.96 309.503 158.032 308.479 156.784C307.455 155.536 306.655 153.968 306.079 152.08C305.503 150.16 305.215 147.936 305.215 145.408ZM316.447 156.256C318.079 156.256 319.391 155.664 320.383 154.48C321.407 153.264 321.919 151.392 321.919 148.864C321.919 146.848 321.471 145.248 320.575 144.064C319.679 142.88 318.335 142.288 316.543 142.288C315.327 142.288 314.255 142.576 313.327 143.152C312.431 143.728 311.727 144.464 311.215 145.36C310.703 146.256 310.447 147.168 310.447 148.096C310.447 149.088 310.559 150.064 310.783 151.024C311.039 151.984 311.423 152.864 311.935 153.664C312.447 154.464 313.071 155.104 313.807 155.584C314.575 156.032 315.455 156.256 316.447 156.256ZM336.322 160L348.994 130.24H332.386V125.728H354.562V129.376L341.938 160H336.322Z" fill="#F0F2F5"/>
<path d="M285.805 185.765C286.715 185.765 287.4 186 287.86 186.47C288.32 186.94 288.55 187.695 288.55 188.735V194H286.96V188.945C286.96 188.325 286.835 187.86 286.585 187.55C286.345 187.23 285.965 187.07 285.445 187.07C284.725 187.07 284.21 187.295 283.9 187.745C283.59 188.185 283.435 188.825 283.435 189.665V194H281.86V188.945C281.86 188.535 281.8 188.19 281.68 187.91C281.57 187.63 281.405 187.42 281.185 187.28C280.965 187.14 280.68 187.07 280.33 187.07C279.83 187.07 279.435 187.18 279.145 187.4C278.855 187.62 278.645 187.945 278.515 188.375C278.395 188.795 278.335 189.31 278.335 189.92V194H276.745V185.915H278.005L278.23 186.995H278.32C278.49 186.715 278.695 186.485 278.935 186.305C279.185 186.125 279.46 185.99 279.76 185.9C280.06 185.81 280.37 185.765 280.69 185.765C281.3 185.765 281.815 185.875 282.235 186.095C282.655 186.305 282.96 186.63 283.15 187.07H283.27C283.53 186.62 283.89 186.29 284.35 186.08C284.81 185.87 285.295 185.765 285.805 185.765ZM294.163 185.765C294.873 185.765 295.483 185.915 295.993 186.215C296.503 186.505 296.893 186.925 297.163 187.475C297.443 188.025 297.583 188.675 297.583 189.425V190.295H292.153C292.173 191.125 292.388 191.76 292.798 192.2C293.218 192.64 293.803 192.86 294.553 192.86C295.073 192.86 295.533 192.815 295.933 192.725C296.343 192.625 296.763 192.48 297.193 192.29V193.61C296.793 193.79 296.383 193.925 295.963 194.015C295.553 194.105 295.063 194.15 294.493 194.15C293.713 194.15 293.023 193.995 292.423 193.685C291.823 193.375 291.353 192.915 291.013 192.305C290.683 191.685 290.518 190.925 290.518 190.025C290.518 189.115 290.668 188.345 290.968 187.715C291.278 187.085 291.703 186.605 292.243 186.275C292.793 185.935 293.433 185.765 294.163 185.765ZM294.163 186.995C293.593 186.995 293.133 187.18 292.783 187.55C292.443 187.92 292.243 188.445 292.183 189.125H295.993C295.993 188.705 295.928 188.335 295.798 188.015C295.668 187.695 295.468 187.445 295.198 187.265C294.928 187.085 294.583 186.995 294.163 186.995ZM304.937 191.72C304.937 192.25 304.807 192.695 304.547 193.055C304.287 193.415 303.912 193.69 303.422 193.88C302.932 194.06 302.342 194.15 301.652 194.15C301.082 194.15 300.592 194.105 300.182 194.015C299.782 193.935 299.412 193.815 299.072 193.655V192.26C299.432 192.43 299.847 192.585 300.317 192.725C300.787 192.855 301.247 192.92 301.697 192.92C302.297 192.92 302.727 192.825 302.987 192.635C303.257 192.445 303.392 192.19 303.392 191.87C303.392 191.69 303.342 191.53 303.242 191.39C303.142 191.24 302.952 191.09 302.672 190.94C302.402 190.78 302.002 190.6 301.472 190.4C300.962 190.19 300.527 189.985 300.167 189.785C299.807 189.575 299.532 189.33 299.342 189.05C299.152 188.76 299.057 188.39 299.057 187.94C299.057 187.24 299.337 186.705 299.897 186.335C300.467 185.955 301.217 185.765 302.147 185.765C302.637 185.765 303.097 185.815 303.527 185.915C303.967 186.005 304.392 186.145 304.802 186.335L304.277 187.55C304.047 187.44 303.807 187.35 303.557 187.28C303.317 187.2 303.072 187.135 302.822 187.085C302.582 187.035 302.332 187.01 302.072 187.01C301.592 187.01 301.227 187.085 300.977 187.235C300.727 187.385 300.602 187.595 300.602 187.865C300.602 188.055 300.657 188.22 300.767 188.36C300.887 188.5 301.092 188.64 301.382 188.78C301.672 188.92 302.067 189.09 302.567 189.29C303.067 189.48 303.492 189.675 303.842 189.875C304.202 190.075 304.472 190.32 304.652 190.61C304.842 190.9 304.937 191.27 304.937 191.72ZM312.203 191.72C312.203 192.25 312.073 192.695 311.813 193.055C311.553 193.415 311.178 193.69 310.688 193.88C310.198 194.06 309.608 194.15 308.918 194.15C308.348 194.15 307.858 194.105 307.448 194.015C307.048 193.935 306.678 193.815 306.338 193.655V192.26C306.698 192.43 307.113 192.585 307.583 192.725C308.053 192.855 308.513 192.92 308.963 192.92C309.563 192.92 309.993 192.825 310.253 192.635C310.523 192.445 310.658 192.19 310.658 191.87C310.658 191.69 310.608 191.53 310.508 191.39C310.408 191.24 310.218 191.09 309.938 190.94C309.668 190.78 309.268 190.6 308.738 190.4C308.228 190.19 307.793 189.985 307.433 189.785C307.073 189.575 306.798 189.33 306.608 189.05C306.418 188.76 306.323 188.39 306.323 187.94C306.323 187.24 306.603 186.705 307.163 186.335C307.733 185.955 308.483 185.765 309.413 185.765C309.903 185.765 310.363 185.815 310.793 185.915C311.233 186.005 311.658 186.145 312.068 186.335L311.543 187.55C311.313 187.44 311.073 187.35 310.823 187.28C310.583 187.2 310.338 187.135 310.088 187.085C309.848 187.035 309.598 187.01 309.338 187.01C308.858 187.01 308.493 187.085 308.243 187.235C307.993 187.385 307.868 187.595 307.868 187.865C307.868 188.055 307.923 188.22 308.033 188.36C308.153 188.5 308.358 188.64 308.648 188.78C308.938 188.92 309.333 189.09 309.833 189.29C310.333 189.48 310.758 189.675 311.108 189.875C311.468 190.075 311.738 190.32 311.918 190.61C312.108 190.9 312.203 191.27 312.203 191.72ZM317.234 185.765C318.254 185.765 319.014 185.99 319.514 186.44C320.014 186.88 320.264 187.575 320.264 188.525V194H319.139L318.824 192.875H318.764C318.534 193.165 318.294 193.405 318.044 193.595C317.804 193.785 317.524 193.925 317.204 194.015C316.894 194.105 316.514 194.15 316.064 194.15C315.584 194.15 315.149 194.065 314.759 193.895C314.379 193.715 314.079 193.445 313.859 193.085C313.639 192.715 313.529 192.255 313.529 191.705C313.529 190.885 313.839 190.26 314.459 189.83C315.089 189.4 316.044 189.165 317.324 189.125L318.704 189.08V188.63C318.704 188.03 318.569 187.61 318.299 187.37C318.029 187.13 317.649 187.01 317.159 187.01C316.739 187.01 316.339 187.07 315.959 187.19C315.579 187.31 315.219 187.455 314.879 187.625L314.369 186.47C314.749 186.27 315.184 186.105 315.674 185.975C316.174 185.835 316.694 185.765 317.234 185.765ZM317.609 190.145C316.689 190.185 316.049 190.34 315.689 190.61C315.339 190.87 315.164 191.24 315.164 191.72C315.164 192.14 315.289 192.445 315.539 192.635C315.799 192.825 316.124 192.92 316.514 192.92C317.144 192.92 317.664 192.745 318.074 192.395C318.484 192.045 318.689 191.52 318.689 190.82V190.115L317.609 190.145ZM325.502 185.765C326.022 185.765 326.492 185.865 326.912 186.065C327.332 186.265 327.687 186.57 327.977 186.98H328.052L328.232 185.915H329.522V194.105C329.522 194.865 329.387 195.505 329.117 196.025C328.847 196.545 328.432 196.935 327.872 197.195C327.322 197.465 326.627 197.6 325.787 197.6C325.207 197.6 324.672 197.56 324.182 197.48C323.692 197.4 323.242 197.275 322.832 197.105V195.71C323.122 195.85 323.427 195.965 323.747 196.055C324.067 196.155 324.407 196.225 324.767 196.265C325.127 196.315 325.497 196.34 325.877 196.34C326.537 196.34 327.047 196.15 327.407 195.77C327.767 195.4 327.947 194.875 327.947 194.195V193.925C327.947 193.795 327.952 193.625 327.962 193.415C327.972 193.195 327.982 193.035 327.992 192.935H327.932C327.652 193.355 327.307 193.665 326.897 193.865C326.497 194.055 326.032 194.15 325.502 194.15C324.482 194.15 323.682 193.785 323.102 193.055C322.532 192.315 322.247 191.29 322.247 189.98C322.247 189.1 322.377 188.35 322.637 187.73C322.897 187.1 323.267 186.615 323.747 186.275C324.237 185.935 324.822 185.765 325.502 185.765ZM325.832 187.085C325.412 187.085 325.057 187.2 324.767 187.43C324.477 187.65 324.257 187.975 324.107 188.405C323.957 188.835 323.882 189.365 323.882 189.995C323.882 190.935 324.047 191.65 324.377 192.14C324.717 192.63 325.212 192.875 325.862 192.875C326.242 192.875 326.562 192.825 326.822 192.725C327.092 192.625 327.312 192.47 327.482 192.26C327.662 192.05 327.792 191.785 327.872 191.465C327.962 191.135 328.007 190.74 328.007 190.28V189.98C328.007 189.29 327.927 188.735 327.767 188.315C327.617 187.885 327.382 187.575 327.062 187.385C326.742 187.185 326.332 187.085 325.832 187.085ZM335.194 185.765C335.904 185.765 336.514 185.915 337.024 186.215C337.534 186.505 337.924 186.925 338.194 187.475C338.474 188.025 338.614 188.675 338.614 189.425V190.295H333.184C333.204 191.125 333.419 191.76 333.829 192.2C334.249 192.64 334.834 192.86 335.584 192.86C336.104 192.86 336.564 192.815 336.964 192.725C337.374 192.625 337.794 192.48 338.224 192.29V193.61C337.824 193.79 337.414 193.925 336.994 194.015C336.584 194.105 336.094 194.15 335.524 194.15C334.744 194.15 334.054 193.995 333.454 193.685C332.854 193.375 332.384 192.915 332.044 192.305C331.714 191.685 331.549 190.925 331.549 190.025C331.549 189.115 331.699 188.345 331.999 187.715C332.309 187.085 332.734 186.605 333.274 186.275C333.824 185.935 334.464 185.765 335.194 185.765ZM335.194 186.995C334.624 186.995 334.164 187.18 333.814 187.55C333.474 187.92 333.274 188.445 333.214 189.125H337.024C337.024 188.705 336.959 188.335 336.829 188.015C336.699 187.695 336.499 187.445 336.229 187.265C335.959 187.085 335.614 186.995 335.194 186.995ZM345.968 191.72C345.968 192.25 345.838 192.695 345.578 193.055C345.318 193.415 344.943 193.69 344.453 193.88C343.963 194.06 343.373 194.15 342.683 194.15C342.113 194.15 341.623 194.105 341.213 194.015C340.813 193.935 340.443 193.815 340.103 193.655V192.26C340.463 192.43 340.878 192.585 341.348 192.725C341.818 192.855 342.278 192.92 342.728 192.92C343.328 192.92 343.758 192.825 344.018 192.635C344.288 192.445 344.423 192.19 344.423 191.87C344.423 191.69 344.373 191.53 344.273 191.39C344.173 191.24 343.983 191.09 343.703 190.94C343.433 190.78 343.033 190.6 342.503 190.4C341.993 190.19 341.558 189.985 341.198 189.785C340.838 189.575 340.563 189.33 340.373 189.05C340.183 188.76 340.088 188.39 340.088 187.94C340.088 187.24 340.368 186.705 340.928 186.335C341.498 185.955 342.248 185.765 343.178 185.765C343.668 185.765 344.128 185.815 344.558 185.915C344.998 186.005 345.423 186.145 345.833 186.335L345.308 187.55C345.078 187.44 344.838 187.35 344.588 187.28C344.348 187.2 344.103 187.135 343.853 187.085C343.613 187.035 343.363 187.01 343.103 187.01C342.623 187.01 342.258 187.085 342.008 187.235C341.758 187.385 341.633 187.595 341.633 187.865C341.633 188.055 341.688 188.22 341.798 188.36C341.918 188.5 342.123 188.64 342.413 188.78C342.703 188.92 343.098 189.09 343.598 189.29C344.098 189.48 344.523 189.675 344.873 189.875C345.233 190.075 345.503 190.32 345.683 190.61C345.873 190.9 345.968 191.27 345.968 191.72ZM354.67 192.86C354.88 192.86 355.095 192.84 355.315 192.8C355.535 192.76 355.725 192.715 355.885 192.665V193.865C355.715 193.945 355.485 194.01 355.195 194.06C354.905 194.12 354.615 194.15 354.325 194.15C353.885 194.15 353.48 194.075 353.11 193.925C352.75 193.775 352.46 193.515 352.24 193.145C352.02 192.775 351.91 192.26 351.91 191.6V187.13H350.785V186.41L351.97 185.81L352.525 184.1H353.5V185.915H355.81V187.13H353.5V191.57C353.5 192.01 353.605 192.335 353.815 192.545C354.035 192.755 354.32 192.86 354.67 192.86ZM360.682 185.765C361.392 185.765 362.002 185.915 362.512 186.215C363.022 186.505 363.412 186.925 363.682 187.475C363.962 188.025 364.102 188.675 364.102 189.425V190.295H358.672C358.692 191.125 358.907 191.76 359.317 192.2C359.737 192.64 360.322 192.86 361.072 192.86C361.592 192.86 362.052 192.815 362.452 192.725C362.862 192.625 363.282 192.48 363.712 192.29V193.61C363.312 193.79 362.902 193.925 362.482 194.015C362.072 194.105 361.582 194.15 361.012 194.15C360.232 194.15 359.542 193.995 358.942 193.685C358.342 193.375 357.872 192.915 357.532 192.305C357.202 191.685 357.037 190.925 357.037 190.025C357.037 189.115 357.187 188.345 357.487 187.715C357.797 187.085 358.222 186.605 358.762 186.275C359.312 185.935 359.952 185.765 360.682 185.765ZM360.682 186.995C360.112 186.995 359.652 187.18 359.302 187.55C358.962 187.92 358.762 188.445 358.702 189.125H362.512C362.512 188.705 362.447 188.335 362.317 188.015C362.187 187.695 361.987 187.445 361.717 187.265C361.447 187.085 361.102 186.995 360.682 186.995ZM367.638 189.875L364.893 185.915H366.708L368.628 188.825L370.548 185.915H372.348L369.603 189.875L372.483 194H370.683L368.628 190.91L366.558 194H364.758L367.638 189.875ZM376.847 192.86C377.057 192.86 377.272 192.84 377.492 192.8C377.712 192.76 377.902 192.715 378.062 192.665V193.865C377.892 193.945 377.662 194.01 377.372 194.06C377.082 194.12 376.792 194.15 376.502 194.15C376.062 194.15 375.657 194.075 375.287 193.925C374.927 193.775 374.637 193.515 374.417 193.145C374.197 192.775 374.087 192.26 374.087 191.6V187.13H372.962V186.41L374.147 185.81L374.702 184.1H375.677V185.915H377.987V187.13H375.677V191.57C375.677 192.01 375.782 192.335 375.992 192.545C376.212 192.755 376.497 192.86 376.847 192.86ZM382.86 185.765C383.57 185.765 384.18 185.915 384.69 186.215C385.2 186.505 385.59 186.925 385.86 187.475C386.14 188.025 386.28 188.675 386.28 189.425V190.295H380.85C380.87 191.125 381.085 191.76 381.495 192.2C381.915 192.64 382.5 192.86 383.25 192.86C383.77 192.86 384.23 192.815 384.63 192.725C385.04 192.625 385.46 192.48 385.89 192.29V193.61C385.49 193.79 385.08 193.925 384.66 194.015C384.25 194.105 383.76 194.15 383.19 194.15C382.41 194.15 381.72 193.995 381.12 193.685C380.52 193.375 380.05 192.915 379.71 192.305C379.38 191.685 379.215 190.925 379.215 190.025C379.215 189.115 379.365 188.345 379.665 187.715C379.975 187.085 380.4 186.605 380.94 186.275C381.49 185.935 382.13 185.765 382.86 185.765ZM382.86 186.995C382.29 186.995 381.83 187.18 381.48 187.55C381.14 187.92 380.94 188.445 380.88 189.125H384.69C384.69 188.705 384.625 188.335 384.495 188.015C384.365 187.695 384.165 187.445 383.895 187.265C383.625 187.085 383.28 186.995 382.86 186.995ZM279.925 210.765C280.635 210.765 281.245 210.915 281.755 211.215C282.265 211.505 282.655 211.925 282.925 212.475C283.205 213.025 283.345 213.675 283.345 214.425V215.295H277.915C277.935 216.125 278.15 216.76 278.56 217.2C278.98 217.64 279.565 217.86 280.315 217.86C280.835 217.86 281.295 217.815 281.695 217.725C282.105 217.625 282.525 217.48 282.955 217.29V218.61C282.555 218.79 282.145 218.925 281.725 219.015C281.315 219.105 280.825 219.15 280.255 219.15C279.475 219.15 278.785 218.995 278.185 218.685C277.585 218.375 277.115 217.915 276.775 217.305C276.445 216.685 276.28 215.925 276.28 215.025C276.28 214.115 276.43 213.345 276.73 212.715C277.04 212.085 277.465 211.605 278.005 211.275C278.555 210.935 279.195 210.765 279.925 210.765ZM279.925 211.995C279.355 211.995 278.895 212.18 278.545 212.55C278.205 212.92 278.005 213.445 277.945 214.125H281.755C281.755 213.705 281.69 213.335 281.56 213.015C281.43 212.695 281.23 212.445 280.96 212.265C280.69 212.085 280.345 211.995 279.925 211.995ZM289.424 210.765C290.364 210.765 291.084 211 291.584 211.47C292.084 211.94 292.334 212.695 292.334 213.735V219H290.759V213.96C290.759 213.33 290.624 212.86 290.354 212.55C290.094 212.23 289.674 212.07 289.094 212.07C288.274 212.07 287.704 212.315 287.384 212.805C287.074 213.295 286.919 214 286.919 214.92V219H285.329V210.915H286.589L286.814 211.995H286.904C287.084 211.715 287.304 211.485 287.564 211.305C287.824 211.125 288.114 210.99 288.434 210.9C288.754 210.81 289.084 210.765 289.424 210.765ZM296.592 219L293.532 210.915H295.212L296.892 215.64C296.962 215.84 297.032 216.065 297.102 216.315C297.182 216.565 297.252 216.805 297.312 217.035C297.372 217.265 297.412 217.465 297.432 217.635H297.492C297.522 217.465 297.567 217.265 297.627 217.035C297.697 216.795 297.772 216.555 297.852 216.315C297.932 216.065 298.002 215.84 298.062 215.64L299.742 210.915H301.422L298.347 219H296.592ZM309.798 214.95C309.798 215.62 309.708 216.215 309.528 216.735C309.348 217.255 309.093 217.695 308.763 218.055C308.433 218.415 308.033 218.69 307.563 218.88C307.093 219.06 306.563 219.15 305.973 219.15C305.433 219.15 304.933 219.06 304.473 218.88C304.013 218.69 303.613 218.415 303.273 218.055C302.943 217.695 302.683 217.255 302.493 216.735C302.303 216.215 302.208 215.615 302.208 214.935C302.208 214.045 302.358 213.29 302.658 212.67C302.968 212.05 303.408 211.58 303.978 211.26C304.558 210.93 305.238 210.765 306.018 210.765C306.758 210.765 307.408 210.93 307.968 211.26C308.538 211.58 308.983 212.05 309.303 212.67C309.633 213.29 309.798 214.05 309.798 214.95ZM303.843 214.95C303.843 215.55 303.918 216.07 304.068 216.51C304.218 216.94 304.453 217.27 304.773 217.5C305.093 217.73 305.503 217.845 306.003 217.845C306.503 217.845 306.913 217.73 307.233 217.5C307.553 217.27 307.788 216.94 307.938 216.51C308.088 216.07 308.163 215.55 308.163 214.95C308.163 214.33 308.083 213.81 307.923 213.39C307.773 212.97 307.538 212.65 307.218 212.43C306.908 212.2 306.498 212.085 305.988 212.085C305.238 212.085 304.693 212.335 304.353 212.835C304.013 213.335 303.843 214.04 303.843 214.95ZM310.29 210.915H312L313.68 215.505C313.77 215.735 313.85 215.96 313.92 216.18C313.99 216.4 314.05 216.62 314.1 216.84C314.16 217.05 314.205 217.26 314.235 217.47H314.295C314.345 217.21 314.425 216.905 314.535 216.555C314.645 216.195 314.76 215.84 314.88 215.49L316.47 210.915H318.18L314.715 220.095C314.525 220.615 314.29 221.06 314.01 221.43C313.73 221.81 313.395 222.1 313.005 222.3C312.625 222.5 312.175 222.6 311.655 222.6C311.405 222.6 311.19 222.585 311.01 222.555C310.83 222.535 310.675 222.51 310.545 222.48V221.22C310.655 221.24 310.785 221.26 310.935 221.28C311.095 221.3 311.26 221.31 311.43 221.31C311.74 221.31 312.005 221.25 312.225 221.13C312.455 221.01 312.645 220.84 312.795 220.62C312.955 220.4 313.09 220.15 313.2 219.87L313.53 219L310.29 210.915ZM322.611 210.765C323.321 210.765 323.931 210.915 324.441 211.215C324.951 211.505 325.341 211.925 325.611 212.475C325.891 213.025 326.031 213.675 326.031 214.425V215.295H320.601C320.621 216.125 320.836 216.76 321.246 217.2C321.666 217.64 322.251 217.86 323.001 217.86C323.521 217.86 323.981 217.815 324.381 217.725C324.791 217.625 325.211 217.48 325.641 217.29V218.61C325.241 218.79 324.831 218.925 324.411 219.015C324.001 219.105 323.511 219.15 322.941 219.15C322.161 219.15 321.471 218.995 320.871 218.685C320.271 218.375 319.801 217.915 319.461 217.305C319.131 216.685 318.966 215.925 318.966 215.025C318.966 214.115 319.116 213.345 319.416 212.715C319.726 212.085 320.151 211.605 320.691 211.275C321.241 210.935 321.881 210.765 322.611 210.765ZM322.611 211.995C322.041 211.995 321.581 212.18 321.231 212.55C320.891 212.92 320.691 213.445 320.631 214.125H324.441C324.441 213.705 324.376 213.335 324.246 213.015C324.116 212.695 323.916 212.445 323.646 212.265C323.376 212.085 323.031 211.995 322.611 211.995ZM325.011 207.66C324.901 207.8 324.751 207.97 324.561 208.17C324.381 208.37 324.176 208.58 323.946 208.8C323.726 209.01 323.506 209.215 323.286 209.415C323.066 209.605 322.866 209.77 322.686 209.91H321.636V209.73C321.786 209.54 321.956 209.315 322.146 209.055C322.336 208.795 322.521 208.53 322.701 208.26C322.881 207.98 323.031 207.73 323.151 207.51H325.011V207.66ZM333.385 216.72C333.385 217.25 333.255 217.695 332.995 218.055C332.735 218.415 332.36 218.69 331.87 218.88C331.38 219.06 330.79 219.15 330.1 219.15C329.53 219.15 329.04 219.105 328.63 219.015C328.23 218.935 327.86 218.815 327.52 218.655V217.26C327.88 217.43 328.295 217.585 328.765 217.725C329.235 217.855 329.695 217.92 330.145 217.92C330.745 217.92 331.175 217.825 331.435 217.635C331.705 217.445 331.84 217.19 331.84 216.87C331.84 216.69 331.79 216.53 331.69 216.39C331.59 216.24 331.4 216.09 331.12 215.94C330.85 215.78 330.45 215.6 329.92 215.4C329.41 215.19 328.975 214.985 328.615 214.785C328.255 214.575 327.98 214.33 327.79 214.05C327.6 213.76 327.505 213.39 327.505 212.94C327.505 212.24 327.785 211.705 328.345 211.335C328.915 210.955 329.665 210.765 330.595 210.765C331.085 210.765 331.545 210.815 331.975 210.915C332.415 211.005 332.84 211.145 333.25 211.335L332.725 212.55C332.495 212.44 332.255 212.35 332.005 212.28C331.765 212.2 331.52 212.135 331.27 212.085C331.03 212.035 330.78 212.01 330.52 212.01C330.04 212.01 329.675 212.085 329.425 212.235C329.175 212.385 329.05 212.595 329.05 212.865C329.05 213.055 329.105 213.22 329.215 213.36C329.335 213.5 329.54 213.64 329.83 213.78C330.12 213.92 330.515 214.09 331.015 214.29C331.515 214.48 331.94 214.675 332.29 214.875C332.65 215.075 332.92 215.32 333.1 215.61C333.29 215.9 333.385 216.27 333.385 216.72Z" fill="white"/>
<path d="M275.5 195.875H387.015V196.625H275.5V195.875ZM275.5 220.875H334.03V221.625H275.5V220.875Z" fill="white"/>
<rect width="182.5" height="45" transform="translate(265.5 241)" fill="#03662A"/>
<path d="M283.6 269L282.46 265.91H278.32L277.18 269H275.5L279.565 258.245H281.245L285.295 269H283.6ZM280.93 261.485C280.9 261.375 280.845 261.21 280.765 260.99C280.695 260.76 280.625 260.53 280.555 260.3C280.485 260.06 280.43 259.865 280.39 259.715C280.34 259.915 280.28 260.135 280.21 260.375C280.15 260.605 280.09 260.82 280.03 261.02C279.97 261.21 279.92 261.365 279.88 261.485L278.8 264.5H282.01L280.93 261.485ZM293.519 260.915V269H292.244L292.019 267.935H291.944C291.774 268.215 291.554 268.445 291.284 268.625C291.014 268.805 290.719 268.935 290.399 269.015C290.079 269.105 289.749 269.15 289.409 269.15C288.779 269.15 288.244 269.05 287.804 268.85C287.374 268.64 287.044 268.32 286.814 267.89C286.594 267.45 286.484 266.89 286.484 266.21V260.915H288.089V265.97C288.089 266.6 288.219 267.07 288.479 267.38C288.749 267.69 289.164 267.845 289.724 267.845C290.284 267.845 290.724 267.735 291.044 267.515C291.364 267.295 291.589 266.975 291.719 266.555C291.859 266.125 291.929 265.61 291.929 265.01V260.915H293.519ZM299.263 269.15C298.523 269.15 297.873 269.005 297.313 268.715C296.753 268.425 296.318 267.975 296.008 267.365C295.698 266.745 295.543 265.96 295.543 265.01C295.543 264.01 295.708 263.2 296.038 262.58C296.378 261.96 296.833 261.505 297.403 261.215C297.983 260.915 298.643 260.765 299.383 260.765C299.833 260.765 300.253 260.815 300.643 260.915C301.043 261.005 301.373 261.11 301.633 261.23L301.153 262.52C300.873 262.41 300.573 262.315 300.253 262.235C299.943 262.155 299.648 262.115 299.368 262.115C298.868 262.115 298.453 262.225 298.123 262.445C297.803 262.655 297.563 262.975 297.403 263.405C297.253 263.825 297.178 264.355 297.178 264.995C297.178 265.605 297.258 266.12 297.418 266.54C297.578 266.96 297.813 267.28 298.123 267.5C298.443 267.71 298.838 267.815 299.308 267.815C299.758 267.815 300.153 267.765 300.493 267.665C300.833 267.565 301.153 267.435 301.453 267.275V268.655C301.163 268.825 300.848 268.95 300.508 269.03C300.168 269.11 299.753 269.15 299.263 269.15ZM310.321 260.915V269H309.046L308.821 267.935H308.746C308.576 268.215 308.356 268.445 308.086 268.625C307.816 268.805 307.521 268.935 307.201 269.015C306.881 269.105 306.551 269.15 306.211 269.15C305.581 269.15 305.046 269.05 304.606 268.85C304.176 268.64 303.846 268.32 303.616 267.89C303.396 267.45 303.286 266.89 303.286 266.21V260.915H304.891V265.97C304.891 266.6 305.021 267.07 305.281 267.38C305.551 267.69 305.966 267.845 306.526 267.845C307.086 267.845 307.526 267.735 307.846 267.515C308.166 267.295 308.391 266.975 308.521 266.555C308.661 266.125 308.731 265.61 308.731 265.01V260.915H310.321ZM316.904 260.765C317.844 260.765 318.564 261 319.064 261.47C319.564 261.94 319.814 262.695 319.814 263.735V269H318.239V263.96C318.239 263.33 318.104 262.86 317.834 262.55C317.574 262.23 317.154 262.07 316.574 262.07C315.754 262.07 315.184 262.315 314.864 262.805C314.554 263.295 314.399 264 314.399 264.92V269H312.809V260.915H314.069L314.294 261.995H314.384C314.564 261.715 314.784 261.485 315.044 261.305C315.304 261.125 315.594 260.99 315.914 260.9C316.234 260.81 316.564 260.765 316.904 260.765ZM329.334 260.765C330.044 260.765 330.654 260.915 331.164 261.215C331.674 261.505 332.064 261.925 332.334 262.475C332.614 263.025 332.754 263.675 332.754 264.425V265.295H327.324C327.344 266.125 327.559 266.76 327.969 267.2C328.389 267.64 328.974 267.86 329.724 267.86C330.244 267.86 330.704 267.815 331.104 267.725C331.514 267.625 331.934 267.48 332.364 267.29V268.61C331.964 268.79 331.554 268.925 331.134 269.015C330.724 269.105 330.234 269.15 329.664 269.15C328.884 269.15 328.194 268.995 327.594 268.685C326.994 268.375 326.524 267.915 326.184 267.305C325.854 266.685 325.689 265.925 325.689 265.025C325.689 264.115 325.839 263.345 326.139 262.715C326.449 262.085 326.874 261.605 327.414 261.275C327.964 260.935 328.604 260.765 329.334 260.765ZM329.334 261.995C328.764 261.995 328.304 262.18 327.954 262.55C327.614 262.92 327.414 263.445 327.354 264.125H331.164C331.164 263.705 331.099 263.335 330.969 263.015C330.839 262.695 330.639 262.445 330.369 262.265C330.099 262.085 329.754 261.995 329.334 261.995ZM331.734 257.66C331.624 257.8 331.474 257.97 331.284 258.17C331.104 258.37 330.899 258.58 330.669 258.8C330.449 259.01 330.229 259.215 330.009 259.415C329.789 259.605 329.589 259.77 329.409 259.91H328.359V259.73C328.509 259.54 328.679 259.315 328.869 259.055C329.059 258.795 329.244 258.53 329.424 258.26C329.604 257.98 329.754 257.73 329.874 257.51H331.734V257.66ZM337.993 269.15C337.253 269.15 336.603 269.005 336.043 268.715C335.483 268.425 335.048 267.975 334.738 267.365C334.428 266.745 334.273 265.96 334.273 265.01C334.273 264.01 334.438 263.2 334.768 262.58C335.108 261.96 335.563 261.505 336.133 261.215C336.713 260.915 337.373 260.765 338.113 260.765C338.563 260.765 338.983 260.815 339.373 260.915C339.773 261.005 340.103 261.11 340.363 261.23L339.883 262.52C339.603 262.41 339.303 262.315 338.983 262.235C338.673 262.155 338.378 262.115 338.098 262.115C337.598 262.115 337.183 262.225 336.853 262.445C336.533 262.655 336.293 262.975 336.133 263.405C335.983 263.825 335.908 264.355 335.908 264.995C335.908 265.605 335.988 266.12 336.148 266.54C336.308 266.96 336.543 267.28 336.853 267.5C337.173 267.71 337.568 267.815 338.038 267.815C338.488 267.815 338.883 267.765 339.223 267.665C339.563 267.565 339.883 267.435 340.183 267.275V268.655C339.893 268.825 339.578 268.95 339.238 269.03C338.898 269.11 338.483 269.15 337.993 269.15ZM343.682 260.645C343.682 260.895 343.672 261.145 343.652 261.395C343.632 261.645 343.612 261.85 343.592 262.01H343.697C343.867 261.73 344.077 261.5 344.327 261.32C344.587 261.14 344.872 261.005 345.182 260.915C345.502 260.825 345.827 260.78 346.157 260.78C346.797 260.78 347.332 260.885 347.762 261.095C348.202 261.295 348.532 261.615 348.752 262.055C348.982 262.485 349.097 263.045 349.097 263.735V269H347.522V263.96C347.522 263.33 347.387 262.86 347.117 262.55C346.857 262.23 346.437 262.07 345.857 262.07C345.307 262.07 344.872 262.18 344.552 262.4C344.242 262.62 344.017 262.945 343.877 263.375C343.747 263.795 343.682 264.315 343.682 264.935V269H342.092V257.6H343.682V260.645ZM354.72 260.765C355.43 260.765 356.04 260.915 356.55 261.215C357.06 261.505 357.45 261.925 357.72 262.475C358 263.025 358.14 263.675 358.14 264.425V265.295H352.71C352.73 266.125 352.945 266.76 353.355 267.2C353.775 267.64 354.36 267.86 355.11 267.86C355.63 267.86 356.09 267.815 356.49 267.725C356.9 267.625 357.32 267.48 357.75 267.29V268.61C357.35 268.79 356.94 268.925 356.52 269.015C356.11 269.105 355.62 269.15 355.05 269.15C354.27 269.15 353.58 268.995 352.98 268.685C352.38 268.375 351.91 267.915 351.57 267.305C351.24 266.685 351.075 265.925 351.075 265.025C351.075 264.115 351.225 263.345 351.525 262.715C351.835 262.085 352.26 261.605 352.8 261.275C353.35 260.935 353.99 260.765 354.72 260.765ZM354.72 261.995C354.15 261.995 353.69 262.18 353.34 262.55C353 262.92 352.8 263.445 352.74 264.125H356.55C356.55 263.705 356.485 263.335 356.355 263.015C356.225 262.695 356.025 262.445 355.755 262.265C355.485 262.085 355.14 261.995 354.72 261.995ZM363.379 269.15C362.639 269.15 361.989 269.005 361.429 268.715C360.869 268.425 360.434 267.975 360.124 267.365C359.814 266.745 359.659 265.96 359.659 265.01C359.659 264.01 359.824 263.2 360.154 262.58C360.494 261.96 360.949 261.505 361.519 261.215C362.099 260.915 362.759 260.765 363.499 260.765C363.949 260.765 364.369 260.815 364.759 260.915C365.159 261.005 365.489 261.11 365.749 261.23L365.269 262.52C364.989 262.41 364.689 262.315 364.369 262.235C364.059 262.155 363.764 262.115 363.484 262.115C362.984 262.115 362.569 262.225 362.239 262.445C361.919 262.655 361.679 262.975 361.519 263.405C361.369 263.825 361.294 264.355 361.294 264.995C361.294 265.605 361.374 266.12 361.534 266.54C361.694 266.96 361.929 267.28 362.239 267.5C362.559 267.71 362.954 267.815 363.424 267.815C363.874 267.815 364.269 267.765 364.609 267.665C364.949 267.565 365.269 267.435 365.569 267.275V268.655C365.279 268.825 364.964 268.95 364.624 269.03C364.284 269.11 363.869 269.15 363.379 269.15Z" fill="white"/>
<path d="M28 8.5H488C498.77 8.5 507.5 17.2304 507.5 28V307.5H8.5V28C8.5 17.2304 17.2304 8.5 28 8.5Z" stroke="#AFB9C3"/>
</g>
<defs>
<filter id="filter0_d_7870_4644" x="0" y="0" width="524" height="324" filterUnits="userSpaceOnUse" color-interpolation-filters="sRGB">
<feFlood flood-opacity="0" result="BackgroundImageFix"/>
<feColorMatrix in="SourceAlpha" type="matrix" values="0 0 0 0 0 0 0 0 0 0 0 0 0 0 0 0 0 0 127 0" result="hardAlpha"/>
<feOffset dx="4" dy="4"/>
<feGaussianBlur stdDeviation="6"/>
<feColorMatrix type="matrix" values="0 0 0 0 0 0 0 0 0 0 0 0 0 0 0 0 0 0 0.1 0"/>
<feBlend mode="normal" in2="BackgroundImageFix" result="effect1_dropShadow_7870_4644"/>
<feBlend mode="normal" in="SourceGraphic" in2="effect1_dropShadow_7870_4644" result="shape"/>
</filter>
</defs>
</svg>
