<svg width="524" height="324" viewBox="0 0 524 324" fill="none" xmlns="http://www.w3.org/2000/svg">
<g filter="url(#filter0_d_7884_4437)">
<g clip-path="url(#clip0_7884_4437)">
<path d="M8 28C8 16.9543 16.9543 8 28 8H488C499.046 8 508 16.9543 508 28V308H8V28Z" fill="white"/>
<path d="M8 28C8 16.9543 16.9543 8 28 8H488C499.046 8 508 16.9543 508 28V38H8V28Z" fill="#909CA8"/>
<rect width="500" height="270" transform="translate(8 38)" fill="#343C45"/>
<rect width="45" height="270" transform="translate(8 38)" fill="#21262C"/>
<path d="M28.88 82.44V84H19.4V81.6C19.4 80.96 19.5067 80.4067 19.72 79.94C19.9333 79.46 20.2333 79.0533 20.62 78.72C21.02 78.3733 21.5 78.0867 22.06 77.86C22.62 77.6333 23.2533 77.44 23.96 77.28C25.1467 77.0133 26 76.6333 26.52 76.14C27.0533 75.6467 27.32 75.04 27.32 74.32V74.2C27.32 73.84 27.26 73.4867 27.14 73.14C27.02 72.7933 26.8333 72.48 26.58 72.2C26.3267 71.92 26 71.7 25.6 71.54C25.2133 71.3667 24.7467 71.28 24.2 71.28C23.1733 71.28 22.3733 71.5933 21.8 72.22C21.24 72.8467 20.96 73.68 20.96 74.72V75.6H19.28V74.6C19.28 73.96 19.3867 73.3467 19.6 72.76C19.8133 72.1733 20.1267 71.6533 20.54 71.2C20.9533 70.7467 21.4667 70.3867 22.08 70.12C22.6933 69.8533 23.4 69.72 24.2 69.72C25.0133 69.72 25.72 69.8467 26.32 70.1C26.92 70.34 27.42 70.6667 27.82 71.08C28.22 71.48 28.5133 71.94 28.7 72.46C28.9 72.9667 29 73.4867 29 74.02V74.38C29 75.4467 28.6667 76.36 28 77.12C27.3333 77.8667 26.2667 78.4 24.8 78.72C23.52 79 22.58 79.3733 21.98 79.84C21.38 80.2933 21.08 80.96 21.08 81.84V82.44H28.88ZM35.6261 82.44V70.74H35.3861L33.0861 76H31.4261V75.88L34.0461 70H37.3061V82.44H41.2661V84H31.6661V82.44H35.6261ZM28.88 118.44V120H19.4V117.6C19.4 116.96 19.5067 116.407 19.72 115.94C19.9333 115.46 20.2333 115.053 20.62 114.72C21.02 114.373 21.5 114.087 22.06 113.86C22.62 113.633 23.2533 113.44 23.96 113.28C25.1467 113.013 26 112.633 26.52 112.14C27.0533 111.647 27.32 111.04 27.32 110.32V110.2C27.32 109.84 27.26 109.487 27.14 109.14C27.02 108.793 26.8333 108.48 26.58 108.2C26.3267 107.92 26 107.7 25.6 107.54C25.2133 107.367 24.7467 107.28 24.2 107.28C23.1733 107.28 22.3733 107.593 21.8 108.22C21.24 108.847 20.96 109.68 20.96 110.72V111.6H19.28V110.6C19.28 109.96 19.3867 109.347 19.6 108.76C19.8133 108.173 20.1267 107.653 20.54 107.2C20.9533 106.747 21.4667 106.387 22.08 106.12C22.6933 105.853 23.4 105.72 24.2 105.72C25.0133 105.72 25.72 105.847 26.32 106.1C26.92 106.34 27.42 106.667 27.82 107.08C28.22 107.48 28.5133 107.94 28.7 108.46C28.9 108.967 29 109.487 29 110.02V110.38C29 111.447 28.6667 112.36 28 113.12C27.3333 113.867 26.2667 114.4 24.8 114.72C23.52 115 22.58 115.373 21.98 115.84C21.38 116.293 21.08 116.96 21.08 117.84V118.44H28.88ZM41.1261 118.44V120H31.6461V117.6C31.6461 116.96 31.7528 116.407 31.9661 115.94C32.1794 115.46 32.4794 115.053 32.8661 114.72C33.2661 114.373 33.7461 114.087 34.3061 113.86C34.8661 113.633 35.4994 113.44 36.2061 113.28C37.3928 113.013 38.2461 112.633 38.7661 112.14C39.2994 111.647 39.5661 111.04 39.5661 110.32V110.2C39.5661 109.84 39.5061 109.487 39.3861 109.14C39.2661 108.793 39.0794 108.48 38.8261 108.2C38.5728 107.92 38.2461 107.7 37.8461 107.54C37.4594 107.367 36.9928 107.28 36.4461 107.28C35.4194 107.28 34.6194 107.593 34.0461 108.22C33.4861 108.847 33.2061 109.68 33.2061 110.72V111.6H31.5261V110.6C31.5261 109.96 31.6328 109.347 31.8461 108.76C32.0594 108.173 32.3728 107.653 32.7861 107.2C33.1994 106.747 33.7128 106.387 34.3261 106.12C34.9394 105.853 35.6461 105.72 36.4461 105.72C37.2594 105.72 37.9661 105.847 38.5661 106.1C39.1661 106.34 39.6661 106.667 40.0661 107.08C40.4661 107.48 40.7594 107.94 40.9461 108.46C41.1461 108.967 41.2461 109.487 41.2461 110.02V110.38C41.2461 111.447 40.9128 112.36 40.2461 113.12C39.5794 113.867 38.5128 114.4 37.0461 114.72C35.7661 115 34.8261 115.373 34.2261 115.84C33.6261 116.293 33.3261 116.96 33.3261 117.84V118.44H41.1261ZM28.88 154.44V156H19.4V153.6C19.4 152.96 19.5067 152.407 19.72 151.94C19.9333 151.46 20.2333 151.053 20.62 150.72C21.02 150.373 21.5 150.087 22.06 149.86C22.62 149.633 23.2533 149.44 23.96 149.28C25.1467 149.013 26 148.633 26.52 148.14C27.0533 147.647 27.32 147.04 27.32 146.32V146.2C27.32 145.84 27.26 145.487 27.14 145.14C27.02 144.793 26.8333 144.48 26.58 144.2C26.3267 143.92 26 143.7 25.6 143.54C25.2133 143.367 24.7467 143.28 24.2 143.28C23.1733 143.28 22.3733 143.593 21.8 144.22C21.24 144.847 20.96 145.68 20.96 146.72V147.6H19.28V146.6C19.28 145.96 19.3867 145.347 19.6 144.76C19.8133 144.173 20.1267 143.653 20.54 143.2C20.9533 142.747 21.4667 142.387 22.08 142.12C22.6933 141.853 23.4 141.72 24.2 141.72C25.0133 141.72 25.72 141.847 26.32 142.1C26.92 142.34 27.42 142.667 27.82 143.08C28.22 143.48 28.5133 143.94 28.7 144.46C28.9 144.967 29 145.487 29 146.02V146.38C29 147.447 28.6667 148.36 28 149.12C27.3333 149.867 26.2667 150.4 24.8 150.72C23.52 151 22.58 151.373 21.98 151.84C21.38 152.293 21.08 152.96 21.08 153.84V154.44H28.88ZM34.9861 149.04V146.72L39.5461 143.8V143.56H31.6261V142H40.9861V144.56L36.4261 147.48V147.72H37.2261C37.7594 147.72 38.2728 147.807 38.7661 147.98C39.2594 148.153 39.6928 148.407 40.0661 148.74C40.4528 149.073 40.7594 149.487 40.9861 149.98C41.2261 150.46 41.3461 151.02 41.3461 151.66V152.02C41.3461 152.62 41.2261 153.18 40.9861 153.7C40.7461 154.22 40.4128 154.673 39.9861 155.06C39.5594 155.433 39.0528 155.733 38.4661 155.96C37.8928 156.173 37.2661 156.28 36.5861 156.28C35.7994 156.28 35.0928 156.16 34.4661 155.92C33.8394 155.68 33.3061 155.353 32.8661 154.94C32.4261 154.513 32.0861 154.02 31.8461 153.46C31.6194 152.887 31.5061 152.28 31.5061 151.64V150.56H33.1861V151.52C33.1861 152.027 33.2661 152.48 33.4261 152.88C33.5994 153.267 33.8328 153.6 34.1261 153.88C34.4328 154.147 34.7928 154.353 35.2061 154.5C35.6194 154.647 36.0661 154.72 36.5461 154.72C36.9861 154.72 37.3928 154.647 37.7661 154.5C38.1528 154.353 38.4861 154.153 38.7661 153.9C39.0461 153.633 39.2661 153.327 39.4261 152.98C39.5861 152.62 39.6661 152.24 39.6661 151.84V151.72C39.6661 150.88 39.3994 150.227 38.8661 149.76C38.3328 149.28 37.6661 149.04 36.8661 149.04H34.9861ZM28.88 190.44V192H19.4V189.6C19.4 188.96 19.5067 188.407 19.72 187.94C19.9333 187.46 20.2333 187.053 20.62 186.72C21.02 186.373 21.5 186.087 22.06 185.86C22.62 185.633 23.2533 185.44 23.96 185.28C25.1467 185.013 26 184.633 26.52 184.14C27.0533 183.647 27.32 183.04 27.32 182.32V182.2C27.32 181.84 27.26 181.487 27.14 181.14C27.02 180.793 26.8333 180.48 26.58 180.2C26.3267 179.92 26 179.7 25.6 179.54C25.2133 179.367 24.7467 179.28 24.2 179.28C23.1733 179.28 22.3733 179.593 21.8 180.22C21.24 180.847 20.96 181.68 20.96 182.72V183.6H19.28V182.6C19.28 181.96 19.3867 181.347 19.6 180.76C19.8133 180.173 20.1267 179.653 20.54 179.2C20.9533 178.747 21.4667 178.387 22.08 178.12C22.6933 177.853 23.4 177.72 24.2 177.72C25.0133 177.72 25.72 177.847 26.32 178.1C26.92 178.34 27.42 178.667 27.82 179.08C28.22 179.48 28.5133 179.94 28.7 180.46C28.9 180.967 29 181.487 29 182.02V182.38C29 183.447 28.6667 184.36 28 185.12C27.3333 185.867 26.2667 186.4 24.8 186.72C23.52 187 22.58 187.373 21.98 187.84C21.38 188.293 21.08 188.96 21.08 189.84V190.44H28.88ZM36.1261 178H39.3861V187.8H41.5461V189.36H39.3861V192H37.7061V189.36H31.2261V187.04L36.1261 178ZM32.6661 187.56V187.8H37.7061V178.72H37.4661L32.6661 187.56ZM28.88 226.44V228H19.4V225.6C19.4 224.96 19.5067 224.407 19.72 223.94C19.9333 223.46 20.2333 223.053 20.62 222.72C21.02 222.373 21.5 222.087 22.06 221.86C22.62 221.633 23.2533 221.44 23.96 221.28C25.1467 221.013 26 220.633 26.52 220.14C27.0533 219.647 27.32 219.04 27.32 218.32V218.2C27.32 217.84 27.26 217.487 27.14 217.14C27.02 216.793 26.8333 216.48 26.58 216.2C26.3267 215.92 26 215.7 25.6 215.54C25.2133 215.367 24.7467 215.28 24.2 215.28C23.1733 215.28 22.3733 215.593 21.8 216.22C21.24 216.847 20.96 217.68 20.96 218.72V219.6H19.28V218.6C19.28 217.96 19.3867 217.347 19.6 216.76C19.8133 216.173 20.1267 215.653 20.54 215.2C20.9533 214.747 21.4667 214.387 22.08 214.12C22.6933 213.853 23.4 213.72 24.2 213.72C25.0133 213.72 25.72 213.847 26.32 214.1C26.92 214.34 27.42 214.667 27.82 215.08C28.22 215.48 28.5133 215.94 28.7 216.46C28.9 216.967 29 217.487 29 218.02V218.38C29 219.447 28.6667 220.36 28 221.12C27.3333 221.867 26.2667 222.4 24.8 222.72C23.52 223 22.58 223.373 21.98 223.84C21.38 224.293 21.08 224.96 21.08 225.84V226.44H28.88ZM31.8061 221.4V214H40.5661V215.56H33.4461V220.56H33.6861C33.8194 220.293 33.9928 220.04 34.2061 219.8C34.4194 219.547 34.6661 219.327 34.9461 219.14C35.2394 218.953 35.5661 218.807 35.9261 218.7C36.2861 218.58 36.6861 218.52 37.1261 218.52C37.7661 218.52 38.3528 218.627 38.8861 218.84C39.4328 219.053 39.8994 219.353 40.2861 219.74C40.6728 220.127 40.9728 220.593 41.1861 221.14C41.4128 221.687 41.5261 222.293 41.5261 222.96V223.32C41.5261 223.987 41.4194 224.62 41.2061 225.22C40.9928 225.807 40.6794 226.333 40.2661 226.8C39.8528 227.253 39.3394 227.613 38.7261 227.88C38.1128 228.147 37.4061 228.28 36.6061 228.28C35.7928 228.28 35.0728 228.16 34.4461 227.92C33.8194 227.68 33.2928 227.347 32.8661 226.92C32.4394 226.493 32.1128 225.993 31.8861 225.42C31.6728 224.833 31.5661 224.2 31.5661 223.52V222.96H33.2461V223.4C33.2461 224.507 33.5528 225.34 34.1661 225.9C34.7928 226.447 35.6061 226.72 36.6061 226.72C37.1394 226.72 37.6061 226.627 38.0061 226.44C38.4194 226.24 38.7594 225.98 39.0261 225.66C39.3061 225.327 39.5128 224.947 39.6461 224.52C39.7794 224.08 39.8461 223.627 39.8461 223.16V223.04C39.8461 222.627 39.7728 222.24 39.6261 221.88C39.4928 221.52 39.2994 221.207 39.0461 220.94C38.8061 220.673 38.5061 220.467 38.1461 220.32C37.7994 220.16 37.4194 220.08 37.0061 220.08C36.7261 220.08 36.4661 220.12 36.2261 220.2C35.9994 220.28 35.7994 220.387 35.6261 220.52C35.4528 220.64 35.3061 220.78 35.1861 220.94C35.0794 221.1 35.0061 221.253 34.9661 221.4H31.8061ZM28.88 262.44V264H19.4V261.6C19.4 260.96 19.5067 260.407 19.72 259.94C19.9333 259.46 20.2333 259.053 20.62 258.72C21.02 258.373 21.5 258.087 22.06 257.86C22.62 257.633 23.2533 257.44 23.96 257.28C25.1467 257.013 26 256.633 26.52 256.14C27.0533 255.647 27.32 255.04 27.32 254.32V254.2C27.32 253.84 27.26 253.487 27.14 253.14C27.02 252.793 26.8333 252.48 26.58 252.2C26.3267 251.92 26 251.7 25.6 251.54C25.2133 251.367 24.7467 251.28 24.2 251.28C23.1733 251.28 22.3733 251.593 21.8 252.22C21.24 252.847 20.96 253.68 20.96 254.72V255.6H19.28V254.6C19.28 253.96 19.3867 253.347 19.6 252.76C19.8133 252.173 20.1267 251.653 20.54 251.2C20.9533 250.747 21.4667 250.387 22.08 250.12C22.6933 249.853 23.4 249.72 24.2 249.72C25.0133 249.72 25.72 249.847 26.32 250.1C26.92 250.34 27.42 250.667 27.82 251.08C28.22 251.48 28.5133 251.94 28.7 252.46C28.9 252.967 29 253.487 29 254.02V254.38C29 255.447 28.6667 256.36 28 257.12C27.3333 257.867 26.2667 258.4 24.8 258.72C23.52 259 22.58 259.373 21.98 259.84C21.38 260.293 21.08 260.96 21.08 261.84V262.44H28.88ZM39.3061 254.08C39.3061 253.213 39.0394 252.52 38.5061 252C37.9728 251.467 37.2328 251.2 36.2861 251.2C35.8328 251.2 35.4128 251.28 35.0261 251.44C34.6528 251.6 34.3261 251.833 34.0461 252.14C33.7794 252.433 33.5661 252.787 33.4061 253.2C33.2594 253.613 33.1861 254.067 33.1861 254.56V256.64H33.4261C33.7461 256.053 34.1994 255.593 34.7861 255.26C35.3861 254.927 36.0528 254.76 36.7861 254.76C37.4261 254.76 38.0194 254.867 38.5661 255.08C39.1128 255.28 39.5794 255.58 39.9661 255.98C40.3661 256.38 40.6728 256.867 40.8861 257.44C41.1128 258 41.2261 258.64 41.2261 259.36V259.6C41.2261 260.293 41.0994 260.927 40.8461 261.5C40.6061 262.073 40.2661 262.567 39.8261 262.98C39.3994 263.393 38.8861 263.713 38.2861 263.94C37.6994 264.167 37.0594 264.28 36.3661 264.28C35.6728 264.28 35.0261 264.167 34.4261 263.94C33.8394 263.713 33.3261 263.4 32.8861 263C32.4594 262.587 32.1194 262.1 31.8661 261.54C31.6261 260.967 31.5061 260.34 31.5061 259.66V254.56C31.5061 253.827 31.6328 253.16 31.8861 252.56C32.1394 251.96 32.4861 251.453 32.9261 251.04C33.3661 250.613 33.8728 250.287 34.4461 250.06C35.0328 249.833 35.6594 249.72 36.3261 249.72C36.9928 249.72 37.6128 249.82 38.1861 250.02C38.7594 250.22 39.2528 250.513 39.6661 250.9C40.0794 251.273 40.3994 251.733 40.6261 252.28C40.8661 252.813 40.9861 253.413 40.9861 254.08H39.3061ZM36.3661 262.8C36.8461 262.8 37.2794 262.727 37.6661 262.58C38.0661 262.42 38.4061 262.2 38.6861 261.92C38.9661 261.64 39.1794 261.307 39.3261 260.92C39.4728 260.533 39.5461 260.107 39.5461 259.64V259.4C39.5461 258.933 39.4661 258.507 39.3061 258.12C39.1461 257.733 38.9261 257.4 38.6461 257.12C38.3661 256.84 38.0261 256.627 37.6261 256.48C37.2394 256.32 36.8194 256.24 36.3661 256.24C35.9128 256.24 35.4928 256.32 35.1061 256.48C34.7194 256.64 34.3794 256.86 34.0861 257.14C33.8061 257.42 33.5861 257.747 33.4261 258.12C33.2661 258.493 33.1861 258.893 33.1861 259.32V259.7C33.1861 260.14 33.2594 260.553 33.4061 260.94C33.5528 261.313 33.7661 261.64 34.0461 261.92C34.3261 262.2 34.6594 262.42 35.0461 262.58C35.4461 262.727 35.8861 262.8 36.3661 262.8ZM28.88 298.44V300H19.4V297.6C19.4 296.96 19.5067 296.407 19.72 295.94C19.9333 295.46 20.2333 295.053 20.62 294.72C21.02 294.373 21.5 294.087 22.06 293.86C22.62 293.633 23.2533 293.44 23.96 293.28C25.1467 293.013 26 292.633 26.52 292.14C27.0533 291.647 27.32 291.04 27.32 290.32V290.2C27.32 289.84 27.26 289.487 27.14 289.14C27.02 288.793 26.8333 288.48 26.58 288.2C26.3267 287.92 26 287.7 25.6 287.54C25.2133 287.367 24.7467 287.28 24.2 287.28C23.1733 287.28 22.3733 287.593 21.8 288.22C21.24 288.847 20.96 289.68 20.96 290.72V291.6H19.28V290.6C19.28 289.96 19.3867 289.347 19.6 288.76C19.8133 288.173 20.1267 287.653 20.54 287.2C20.9533 286.747 21.4667 286.387 22.08 286.12C22.6933 285.853 23.4 285.72 24.2 285.72C25.0133 285.72 25.72 285.847 26.32 286.1C26.92 286.34 27.42 286.667 27.82 287.08C28.22 287.48 28.5133 287.94 28.7 288.46C28.9 288.967 29 289.487 29 290.02V290.38C29 291.447 28.6667 292.36 28 293.12C27.3333 293.867 26.2667 294.4 24.8 294.72C23.52 295 22.58 295.373 21.98 295.84C21.38 296.293 21.08 296.96 21.08 297.84V298.44H28.88ZM31.6861 286H41.0461V288.44L35.1461 297.36C34.8661 297.787 34.6528 298.153 34.5061 298.46C34.3594 298.767 34.2861 299.08 34.2861 299.4V300H32.6461V299.28C32.6461 299.04 32.6661 298.813 32.7061 298.6C32.7594 298.387 32.8328 298.173 32.9261 297.96C33.0328 297.733 33.1594 297.5 33.3061 297.26C33.4661 297.007 33.6528 296.72 33.8661 296.4L39.6061 287.8V287.56H31.6861V286ZM28.88 334.44V336H19.4V333.6C19.4 332.96 19.5067 332.407 19.72 331.94C19.9333 331.46 20.2333 331.053 20.62 330.72C21.02 330.373 21.5 330.087 22.06 329.86C22.62 329.633 23.2533 329.44 23.96 329.28C25.1467 329.013 26 328.633 26.52 328.14C27.0533 327.647 27.32 327.04 27.32 326.32V326.2C27.32 325.84 27.26 325.487 27.14 325.14C27.02 324.793 26.8333 324.48 26.58 324.2C26.3267 323.92 26 323.7 25.6 323.54C25.2133 323.367 24.7467 323.28 24.2 323.28C23.1733 323.28 22.3733 323.593 21.8 324.22C21.24 324.847 20.96 325.68 20.96 326.72V327.6H19.28V326.6C19.28 325.96 19.3867 325.347 19.6 324.76C19.8133 324.173 20.1267 323.653 20.54 323.2C20.9533 322.747 21.4667 322.387 22.08 322.12C22.6933 321.853 23.4 321.72 24.2 321.72C25.0133 321.72 25.72 321.847 26.32 322.1C26.92 322.34 27.42 322.667 27.82 323.08C28.22 323.48 28.5133 323.94 28.7 324.46C28.9 324.967 29 325.487 29 326.02V326.38C29 327.447 28.6667 328.36 28 329.12C27.3333 329.867 26.2667 330.4 24.8 330.72C23.52 331 22.58 331.373 21.98 331.84C21.38 332.293 21.08 332.96 21.08 333.84V334.44H28.88ZM36.1861 336.28C35.4794 336.28 34.8394 336.187 34.2661 336C33.6928 335.8 33.1994 335.533 32.7861 335.2C32.3728 334.853 32.0528 334.453 31.8261 334C31.6128 333.533 31.5061 333.027 31.5061 332.48V332.24C31.5061 331.76 31.5794 331.333 31.7261 330.96C31.8728 330.587 32.0661 330.26 32.3061 329.98C32.5461 329.7 32.8194 329.467 33.1261 329.28C33.4461 329.093 33.7728 328.953 34.1061 328.86V328.62C33.7994 328.527 33.5128 328.387 33.2461 328.2C32.9794 328.013 32.7394 327.793 32.5261 327.54C32.3261 327.287 32.1661 327 32.0461 326.68C31.9261 326.347 31.8661 325.987 31.8661 325.6V325.36C31.8661 324.827 31.9728 324.34 32.1861 323.9C32.3994 323.447 32.6994 323.06 33.0861 322.74C33.4861 322.42 33.9528 322.173 34.4861 322C35.0328 321.813 35.6394 321.72 36.3061 321.72H36.4261C37.0794 321.72 37.6794 321.813 38.2261 322C38.7728 322.173 39.2394 322.42 39.6261 322.74C40.0261 323.06 40.3328 323.447 40.5461 323.9C40.7594 324.34 40.8661 324.827 40.8661 325.36V325.6C40.8661 325.987 40.8061 326.347 40.6861 326.68C40.5661 327 40.3994 327.287 40.1861 327.54C39.9861 327.793 39.7461 328.013 39.4661 328.2C39.1994 328.387 38.9194 328.527 38.6261 328.62V328.86C38.9594 328.953 39.2794 329.093 39.5861 329.28C39.9061 329.467 40.1861 329.7 40.4261 329.98C40.6661 330.26 40.8594 330.587 41.0061 330.96C41.1528 331.333 41.2261 331.76 41.2261 332.24V332.48C41.2261 333.027 41.1128 333.533 40.8861 334C40.6728 334.453 40.3594 334.853 39.9461 335.2C39.5328 335.533 39.0394 335.8 38.4661 336C37.8928 336.187 37.2528 336.28 36.5461 336.28H36.1861ZM36.4861 334.76C37.3928 334.76 38.1261 334.527 38.6861 334.06C39.2594 333.593 39.5461 332.987 39.5461 332.24V332.12C39.5461 331.293 39.2528 330.653 38.6661 330.2C38.0928 329.747 37.3461 329.52 36.4261 329.52H36.3061C35.3861 329.52 34.6328 329.747 34.0461 330.2C33.4728 330.653 33.1861 331.293 33.1861 332.12V332.24C33.1861 332.987 33.4661 333.593 34.0261 334.06C34.5994 334.527 35.3394 334.76 36.2461 334.76H36.4861ZM36.3661 327.96C37.2061 327.96 37.8861 327.74 38.4061 327.3C38.9261 326.86 39.1861 326.307 39.1861 325.64V325.52C39.1861 324.84 38.9261 324.293 38.4061 323.88C37.8994 323.453 37.2194 323.24 36.3661 323.24C35.5128 323.24 34.8261 323.453 34.3061 323.88C33.7994 324.293 33.5461 324.84 33.5461 325.52V325.64C33.5461 326.307 33.8061 326.86 34.3261 327.3C34.8461 327.74 35.5261 327.96 36.3661 327.96Z" fill="#909CA8"/>
<path d="M99.64 71.4C99.1733 71.4 98.8467 71.3067 98.66 71.12C98.4733 70.92 98.38 70.6733 98.38 70.38V70.06C98.38 69.7667 98.4733 69.5267 98.66 69.34C98.8467 69.14 99.1733 69.04 99.64 69.04C100.107 69.04 100.433 69.14 100.62 69.34C100.807 69.5267 100.9 69.7667 100.9 70.06V70.38C100.9 70.6733 100.807 70.92 100.62 71.12C100.433 71.3067 100.107 71.4 99.64 71.4ZM95.12 82.64H98.84V75.04H95.12V73.68H100.44V82.64H103.92V84H95.12V82.64ZM106.652 82.64H110.132V75.04H106.452V73.68H110.132V71.56C110.132 70.8667 110.312 70.3 110.672 69.86C111.046 69.42 111.626 69.2 112.412 69.2H115.872V70.56H111.732V73.68H115.872V75.04H111.732V82.64H115.412V84H106.652V82.64ZM291.255 86.76C290.695 86.76 290.275 86.6 289.995 86.28C289.715 85.9733 289.575 85.5867 289.575 85.12V83.86C289.575 83.5 289.608 83.1867 289.675 82.92C289.755 82.6533 289.848 82.4133 289.955 82.2C290.062 81.9867 290.182 81.8 290.315 81.64C290.448 81.4667 290.575 81.3067 290.695 81.16C290.922 80.8933 291.075 80.6667 291.155 80.48C291.248 80.28 291.295 80.0733 291.295 79.86C291.295 79.3533 291.062 78.9867 290.595 78.76C290.128 78.52 289.442 78.4 288.535 78.4H286.975V77.16H288.535C289.442 77.16 290.128 77.0467 290.595 76.82C291.062 76.58 291.295 76.2067 291.295 75.7C291.295 75.4867 291.248 75.2867 291.155 75.1C291.075 74.9 290.922 74.6667 290.695 74.4C290.575 74.2533 290.448 74.1 290.315 73.94C290.182 73.7667 290.062 73.58 289.955 73.38C289.848 73.1667 289.755 72.9267 289.675 72.66C289.608 72.38 289.575 72.06 289.575 71.7V70.44C289.575 69.9733 289.715 69.5867 289.995 69.28C290.275 68.96 290.695 68.8 291.255 68.8H294.775V70.04H290.955V71.58C290.955 72.1267 291.035 72.5467 291.195 72.84C291.355 73.1333 291.542 73.42 291.755 73.7C291.982 73.9933 292.195 74.3 292.395 74.62C292.595 74.9267 292.695 75.2933 292.695 75.72C292.695 76.28 292.495 76.7333 292.095 77.08C291.708 77.4267 291.175 77.6467 290.495 77.74V77.82C291.175 77.9133 291.708 78.1333 292.095 78.48C292.495 78.8267 292.695 79.28 292.695 79.84C292.695 80.2667 292.595 80.64 292.395 80.96C292.195 81.2667 291.982 81.5667 291.755 81.86C291.542 82.14 291.355 82.4267 291.195 82.72C291.035 83.0133 290.955 83.4333 290.955 83.98V85.52H294.775V86.76H291.255ZM348.936 149.78C348.936 148.807 349.043 147.873 349.256 146.98C349.483 146.073 349.783 145.233 350.156 144.46C350.543 143.687 350.989 142.993 351.496 142.38C352.003 141.753 352.536 141.227 353.096 140.8H354.716C354.129 141.24 353.576 141.753 353.056 142.34C352.549 142.913 352.096 143.547 351.696 144.24C351.309 144.92 351.003 145.66 350.776 146.46C350.549 147.247 350.436 148.067 350.436 148.92V150.64C350.436 151.493 350.549 152.32 350.776 153.12C351.003 153.907 351.309 154.647 351.696 155.34C352.096 156.02 352.549 156.647 353.056 157.22C353.576 157.807 354.129 158.32 354.716 158.76H353.096C352.536 158.347 352.003 157.827 351.496 157.2C350.989 156.573 350.543 155.873 350.156 155.1C349.783 154.327 349.483 153.493 349.256 152.6C349.043 151.693 348.936 150.753 348.936 149.78ZM148.869 221.78C148.869 222.753 148.755 223.693 148.529 224.6C148.315 225.493 148.015 226.327 147.629 227.1C147.255 227.873 146.815 228.573 146.309 229.2C145.802 229.827 145.269 230.347 144.709 230.76H143.089C143.662 230.32 144.209 229.807 144.729 229.22C145.249 228.647 145.702 228.02 146.089 227.34C146.489 226.647 146.802 225.907 147.029 225.12C147.255 224.32 147.369 223.493 147.369 222.64V220.92C147.369 220.067 147.255 219.247 147.029 218.46C146.802 217.66 146.489 216.92 146.089 216.24C145.702 215.547 145.249 214.913 144.729 214.34C144.209 213.753 143.662 213.24 143.089 212.8H144.709C145.269 213.227 145.802 213.753 146.309 214.38C146.815 214.993 147.255 215.687 147.629 216.46C148.015 217.233 148.315 218.073 148.529 218.98C148.755 219.873 148.869 220.807 148.869 221.78ZM98.62 248.8C99.18 248.8 99.6 248.96 99.88 249.28C100.16 249.587 100.3 249.973 100.3 250.44V251.7C100.3 252.06 100.26 252.38 100.18 252.66C100.113 252.927 100.027 253.167 99.92 253.38C99.8133 253.58 99.6933 253.767 99.56 253.94C99.4267 254.1 99.3 254.253 99.18 254.4C98.9533 254.667 98.7933 254.9 98.7 255.1C98.62 255.287 98.58 255.487 98.58 255.7C98.58 256.207 98.8133 256.58 99.28 256.82C99.7467 257.047 100.433 257.16 101.34 257.16H102.9V258.4H101.34C100.433 258.4 99.7467 258.52 99.28 258.76C98.8133 258.987 98.58 259.353 98.58 259.86C98.58 260.073 98.62 260.28 98.7 260.48C98.7933 260.667 98.9533 260.893 99.18 261.16C99.3 261.307 99.4267 261.467 99.56 261.64C99.6933 261.8 99.8133 261.987 99.92 262.2C100.027 262.413 100.113 262.653 100.18 262.92C100.26 263.187 100.3 263.5 100.3 263.86V265.12C100.3 265.587 100.16 265.973 99.88 266.28C99.6 266.6 99.18 266.76 98.62 266.76H95.1V265.52H98.92V263.98C98.92 263.433 98.84 263.013 98.68 262.72C98.52 262.427 98.3333 262.14 98.12 261.86C97.8933 261.567 97.68 261.267 97.48 260.96C97.28 260.64 97.18 260.267 97.18 259.84C97.18 259.28 97.3733 258.827 97.76 258.48C98.16 258.133 98.7 257.913 99.38 257.82V257.74C98.7 257.647 98.16 257.427 97.76 257.08C97.3733 256.733 97.18 256.28 97.18 255.72C97.18 255.293 97.28 254.927 97.48 254.62C97.68 254.3 97.8933 253.993 98.12 253.7C98.3333 253.42 98.52 253.133 98.68 252.84C98.84 252.547 98.92 252.127 98.92 251.58V250.04H95.1V248.8H98.62Z" fill="#FFFF00"/>
<path d="M130.517 82.64H133.537V75.04H130.517V73.68H135.137V76.28H135.237C135.45 75.4667 135.85 74.8333 136.437 74.38C137.037 73.9133 137.797 73.68 138.717 73.68H140.157V75.28H138.217C137.297 75.28 136.55 75.5467 135.977 76.08C135.417 76.6133 135.137 77.3133 135.137 78.18V82.64H139.137V84H130.517V82.64ZM147.149 84.24C146.402 84.24 145.729 84.1133 145.129 83.86C144.542 83.6067 144.035 83.2467 143.609 82.78C143.195 82.3 142.875 81.7333 142.649 81.08C142.422 80.4133 142.309 79.6733 142.309 78.86C142.309 78.0333 142.422 77.2867 142.649 76.62C142.889 75.9533 143.215 75.3867 143.629 74.92C144.042 74.44 144.535 74.0733 145.109 73.82C145.695 73.5667 146.342 73.44 147.049 73.44C147.742 73.44 148.369 73.5667 148.929 73.82C149.502 74.0733 149.989 74.4267 150.389 74.88C150.789 75.32 151.095 75.8467 151.309 76.46C151.522 77.0733 151.629 77.7467 151.629 78.48V79.24H143.989V79.72C143.989 80.1733 144.062 80.5933 144.209 80.98C144.355 81.3667 144.562 81.7 144.829 81.98C145.109 82.26 145.442 82.48 145.829 82.64C146.229 82.7867 146.669 82.86 147.149 82.86C147.842 82.86 148.442 82.7 148.949 82.38C149.455 82.06 149.842 81.62 150.109 81.06L151.289 81.86C150.982 82.5533 150.469 83.1267 149.749 83.58C149.042 84.02 148.175 84.24 147.149 84.24ZM147.049 74.76C146.609 74.76 146.202 74.84 145.829 75C145.455 75.16 145.129 75.38 144.849 75.66C144.582 75.94 144.369 76.2733 144.209 76.66C144.062 77.0333 143.989 77.4467 143.989 77.9V78.04H149.909V77.82C149.909 77.3667 149.835 76.9533 149.689 76.58C149.555 76.2067 149.362 75.8867 149.109 75.62C148.869 75.34 148.569 75.1267 148.209 74.98C147.862 74.8333 147.475 74.76 147.049 74.76ZM154.041 84V73.68H155.521V74.88H155.601C155.761 74.48 155.988 74.14 156.281 73.86C156.574 73.58 157.008 73.44 157.581 73.44C158.181 73.44 158.628 73.5933 158.921 73.9C159.214 74.1933 159.394 74.58 159.461 75.06H159.521C159.708 74.5933 159.974 74.2067 160.321 73.9C160.668 73.5933 161.148 73.44 161.761 73.44C162.601 73.44 163.161 73.7333 163.441 74.32C163.734 74.9067 163.881 75.7467 163.881 76.84V84H162.401V77.1C162.401 76.22 162.308 75.6133 162.121 75.28C161.948 74.9333 161.621 74.76 161.141 74.76C160.714 74.76 160.368 74.9 160.101 75.18C159.834 75.4467 159.701 75.86 159.701 76.42V84H158.221V77.1C158.221 76.22 158.128 75.6133 157.941 75.28C157.768 74.9333 157.448 74.76 156.981 74.76C156.554 74.76 156.201 74.9 155.921 75.18C155.654 75.4467 155.521 75.86 155.521 76.42V84H154.041ZM171.593 71.4C171.126 71.4 170.8 71.3067 170.613 71.12C170.426 70.92 170.333 70.6733 170.333 70.38V70.06C170.333 69.7667 170.426 69.5267 170.613 69.34C170.8 69.14 171.126 69.04 171.593 69.04C172.06 69.04 172.386 69.14 172.573 69.34C172.76 69.5267 172.853 69.7667 172.853 70.06V70.38C172.853 70.6733 172.76 70.92 172.573 71.12C172.386 71.3067 172.06 71.4 171.593 71.4ZM167.073 82.64H170.793V75.04H167.073V73.68H172.393V82.64H175.873V84H167.073V82.64ZM178.905 84V73.68H180.505V75.36H180.585C180.692 75.1067 180.825 74.8667 180.985 74.64C181.145 74.4 181.339 74.1933 181.565 74.02C181.805 73.8467 182.085 73.7067 182.405 73.6C182.725 73.4933 183.099 73.44 183.525 73.44C184.605 73.44 185.472 73.7867 186.125 74.48C186.779 75.16 187.105 76.1267 187.105 77.38V84H185.505V77.66C185.505 76.7133 185.299 76.0133 184.885 75.56C184.472 75.0933 183.865 74.86 183.065 74.86C182.745 74.86 182.432 74.9 182.125 74.98C181.819 75.06 181.545 75.18 181.305 75.34C181.065 75.5 180.872 75.7067 180.725 75.96C180.579 76.2133 180.505 76.5067 180.505 76.84V84H178.905ZM197.438 82.32H197.358C196.691 83.6 195.631 84.24 194.178 84.24C192.911 84.24 191.918 83.7667 191.198 82.82C190.491 81.8733 190.138 80.5467 190.138 78.84C190.138 77.1333 190.491 75.8067 191.198 74.86C191.918 73.9133 192.911 73.44 194.178 73.44C195.631 73.44 196.691 74.08 197.358 75.36H197.438V69.2H199.037V84H197.438V82.32ZM194.798 82.82C195.158 82.82 195.498 82.7733 195.818 82.68C196.138 82.5867 196.418 82.4533 196.658 82.28C196.898 82.0933 197.084 81.8733 197.218 81.62C197.364 81.3533 197.438 81.0467 197.438 80.7V76.98C197.438 76.6333 197.364 76.3333 197.218 76.08C197.084 75.8133 196.898 75.5933 196.658 75.42C196.418 75.2333 196.138 75.0933 195.818 75C195.498 74.9067 195.158 74.86 194.798 74.86C193.864 74.86 193.138 75.1467 192.618 75.72C192.111 76.28 191.858 77.0267 191.858 77.96V79.72C191.858 80.6533 192.111 81.4067 192.618 81.98C193.138 82.54 193.864 82.82 194.798 82.82ZM207.11 84.24C206.363 84.24 205.69 84.1133 205.09 83.86C204.503 83.6067 203.996 83.2467 203.57 82.78C203.156 82.3 202.836 81.7333 202.61 81.08C202.383 80.4133 202.27 79.6733 202.27 78.86C202.27 78.0333 202.383 77.2867 202.61 76.62C202.85 75.9533 203.176 75.3867 203.59 74.92C204.003 74.44 204.496 74.0733 205.07 73.82C205.656 73.5667 206.303 73.44 207.01 73.44C207.703 73.44 208.33 73.5667 208.89 73.82C209.463 74.0733 209.95 74.4267 210.35 74.88C210.75 75.32 211.056 75.8467 211.27 76.46C211.483 77.0733 211.59 77.7467 211.59 78.48V79.24H203.95V79.72C203.95 80.1733 204.023 80.5933 204.17 80.98C204.316 81.3667 204.523 81.7 204.79 81.98C205.07 82.26 205.403 82.48 205.79 82.64C206.19 82.7867 206.63 82.86 207.11 82.86C207.803 82.86 208.403 82.7 208.91 82.38C209.416 82.06 209.803 81.62 210.07 81.06L211.25 81.86C210.943 82.5533 210.43 83.1267 209.71 83.58C209.003 84.02 208.136 84.24 207.11 84.24ZM207.01 74.76C206.57 74.76 206.163 74.84 205.79 75C205.416 75.16 205.09 75.38 204.81 75.66C204.543 75.94 204.33 76.2733 204.17 76.66C204.023 77.0333 203.95 77.4467 203.95 77.9V78.04H209.87V77.82C209.87 77.3667 209.796 76.9533 209.65 76.58C209.516 76.2067 209.323 75.8867 209.07 75.62C208.83 75.34 208.53 75.1267 208.17 74.98C207.823 74.8333 207.436 74.76 207.01 74.76ZM214.462 82.64H217.482V75.04H214.462V73.68H219.082V76.28H219.182C219.395 75.4667 219.795 74.8333 220.382 74.38C220.982 73.9133 221.742 73.68 222.662 73.68H224.102V75.28H222.162C221.242 75.28 220.495 75.5467 219.922 76.08C219.362 76.6133 219.082 77.3133 219.082 78.18V82.64H223.082V84H214.462V82.64ZM226.114 87.38V85.9H235.714V87.38H226.114ZM245.406 82.32H245.326C244.66 83.6 243.6 84.24 242.146 84.24C240.88 84.24 239.886 83.7667 239.166 82.82C238.46 81.8733 238.106 80.5467 238.106 78.84C238.106 77.1333 238.46 75.8067 239.166 74.86C239.886 73.9133 240.88 73.44 242.146 73.44C243.6 73.44 244.66 74.08 245.326 75.36H245.406V69.2H247.006V84H245.406V82.32ZM242.766 82.82C243.126 82.82 243.466 82.7733 243.786 82.68C244.106 82.5867 244.386 82.4533 244.626 82.28C244.866 82.0933 245.053 81.8733 245.186 81.62C245.333 81.3533 245.406 81.0467 245.406 80.7V76.98C245.406 76.6333 245.333 76.3333 245.186 76.08C245.053 75.8133 244.866 75.5933 244.626 75.42C244.386 75.2333 244.106 75.0933 243.786 75C243.466 74.9067 243.126 74.86 242.766 74.86C241.833 74.86 241.106 75.1467 240.586 75.72C240.08 76.28 239.826 77.0267 239.826 77.96V79.72C239.826 80.6533 240.08 81.4067 240.586 81.98C241.106 82.54 241.833 82.82 242.766 82.82ZM257.338 82.32H257.258C257.152 82.5733 257.018 82.82 256.858 83.06C256.698 83.2867 256.498 83.4867 256.258 83.66C256.032 83.8333 255.758 83.9733 255.438 84.08C255.118 84.1867 254.745 84.24 254.318 84.24C253.238 84.24 252.372 83.9 251.718 83.22C251.065 82.5267 250.738 81.5533 250.738 80.3V73.68H252.338V80.02C252.338 80.9667 252.545 81.6733 252.958 82.14C253.372 82.5933 253.978 82.82 254.778 82.82C255.098 82.82 255.412 82.78 255.718 82.7C256.025 82.62 256.298 82.5 256.538 82.34C256.778 82.18 256.972 81.98 257.118 81.74C257.265 81.4867 257.338 81.1867 257.338 80.84V73.68H258.938V84H257.338V82.32ZM267.071 84.24C266.324 84.24 265.651 84.1133 265.051 83.86C264.464 83.6067 263.957 83.2467 263.531 82.78C263.117 82.3 262.797 81.7333 262.571 81.08C262.344 80.4133 262.231 79.6733 262.231 78.86C262.231 78.0333 262.344 77.2867 262.571 76.62C262.811 75.9533 263.137 75.3867 263.551 74.92C263.964 74.44 264.457 74.0733 265.031 73.82C265.617 73.5667 266.264 73.44 266.971 73.44C267.664 73.44 268.291 73.5667 268.851 73.82C269.424 74.0733 269.911 74.4267 270.311 74.88C270.711 75.32 271.017 75.8467 271.231 76.46C271.444 77.0733 271.551 77.7467 271.551 78.48V79.24H263.911V79.72C263.911 80.1733 263.984 80.5933 264.131 80.98C264.277 81.3667 264.484 81.7 264.751 81.98C265.031 82.26 265.364 82.48 265.751 82.64C266.151 82.7867 266.591 82.86 267.071 82.86C267.764 82.86 268.364 82.7 268.871 82.38C269.377 82.06 269.764 81.62 270.031 81.06L271.211 81.86C270.904 82.5533 270.391 83.1267 269.671 83.58C268.964 84.02 268.097 84.24 267.071 84.24ZM266.971 74.76C266.531 74.76 266.124 74.84 265.751 75C265.377 75.16 265.051 75.38 264.771 75.66C264.504 75.94 264.291 76.2733 264.131 76.66C263.984 77.0333 263.911 77.4467 263.911 77.9V78.04H269.831V77.82C269.831 77.3667 269.757 76.9533 269.611 76.58C269.477 76.2067 269.284 75.8867 269.031 75.62C268.791 75.34 268.491 75.1267 268.131 74.98C267.784 74.8333 267.397 74.76 266.971 74.76ZM142.929 156V145.68H144.529V147.36H144.609C144.715 147.107 144.849 146.867 145.009 146.64C145.169 146.4 145.362 146.193 145.589 146.02C145.829 145.847 146.109 145.707 146.429 145.6C146.749 145.493 147.122 145.44 147.549 145.44C148.629 145.44 149.495 145.787 150.149 146.48C150.802 147.16 151.129 148.127 151.129 149.38V156H149.529V149.66C149.529 148.713 149.322 148.013 148.909 147.56C148.495 147.093 147.889 146.86 147.089 146.86C146.769 146.86 146.455 146.9 146.149 146.98C145.842 147.06 145.569 147.18 145.329 147.34C145.089 147.5 144.895 147.707 144.749 147.96C144.602 148.213 144.529 148.507 144.529 148.84V156H142.929ZM158.961 156.24C158.241 156.24 157.588 156.113 157.001 155.86C156.428 155.607 155.934 155.247 155.521 154.78C155.121 154.3 154.814 153.733 154.601 153.08C154.388 152.413 154.281 151.667 154.281 150.84C154.281 150.027 154.388 149.287 154.601 148.62C154.814 147.953 155.121 147.387 155.521 146.92C155.934 146.44 156.428 146.073 157.001 145.82C157.588 145.567 158.241 145.44 158.961 145.44C159.681 145.44 160.328 145.567 160.901 145.82C161.488 146.073 161.981 146.44 162.381 146.92C162.794 147.387 163.108 147.953 163.321 148.62C163.534 149.287 163.641 150.027 163.641 150.84C163.641 151.667 163.534 152.413 163.321 153.08C163.108 153.733 162.794 154.3 162.381 154.78C161.981 155.247 161.488 155.607 160.901 155.86C160.328 156.113 159.681 156.24 158.961 156.24ZM158.961 154.86C159.854 154.86 160.574 154.593 161.121 154.06C161.668 153.527 161.941 152.7 161.941 151.58V150.1C161.941 148.98 161.668 148.153 161.121 147.62C160.574 147.087 159.854 146.82 158.961 146.82C158.068 146.82 157.348 147.087 156.801 147.62C156.254 148.153 155.981 148.98 155.981 150.1V151.58C155.981 152.7 156.254 153.527 156.801 154.06C157.348 154.593 158.068 154.86 158.961 154.86ZM171.453 156C170.666 156 170.086 155.78 169.713 155.34C169.353 154.9 169.173 154.333 169.173 153.64V147.04H165.733V145.68H168.293C168.64 145.68 168.88 145.613 169.013 145.48C169.16 145.333 169.233 145.087 169.233 144.74V142.04H170.773V145.68H175.473V147.04H170.773V154.64H175.473V156H171.453ZM183.585 143.4C183.119 143.4 182.792 143.307 182.605 143.12C182.419 142.92 182.325 142.673 182.325 142.38V142.06C182.325 141.767 182.419 141.527 182.605 141.34C182.792 141.14 183.119 141.04 183.585 141.04C184.052 141.04 184.379 141.14 184.565 141.34C184.752 141.527 184.845 141.767 184.845 142.06V142.38C184.845 142.673 184.752 142.92 184.565 143.12C184.379 143.307 184.052 143.4 183.585 143.4ZM179.065 154.64H182.785V147.04H179.065V145.68H184.385V154.64H187.865V156H179.065V154.64ZM190.598 154.64H194.077V147.04H190.398V145.68H194.077V143.56C194.077 142.867 194.258 142.3 194.618 141.86C194.991 141.42 195.571 141.2 196.358 141.2H199.818V142.56H195.678V145.68H199.818V147.04H195.678V154.64H199.358V156H190.598V154.64ZM210.27 145.68H211.87L206.75 158.26C206.63 158.553 206.496 158.807 206.35 159.02C206.203 159.247 206.03 159.427 205.83 159.56C205.63 159.707 205.39 159.813 205.11 159.88C204.83 159.96 204.496 160 204.11 160H202.59V158.64H204.99L206.15 155.8L201.99 145.68H203.63L205.37 150L206.91 153.92H206.99L208.53 150L210.27 145.68ZM218.922 156.18C218.375 156.18 217.989 156.067 217.762 155.84C217.549 155.613 217.442 155.327 217.442 154.98V154.62C217.442 154.273 217.549 153.987 217.762 153.76C217.989 153.533 218.375 153.42 218.922 153.42C219.469 153.42 219.849 153.533 220.062 153.76C220.289 153.987 220.402 154.273 220.402 154.62V154.98C220.402 155.327 220.289 155.613 220.062 155.84C219.849 156.067 219.469 156.18 218.922 156.18ZM231.034 156.24C229.954 156.24 229.021 156.06 228.234 155.7C227.461 155.327 226.801 154.833 226.254 154.22L227.334 153.28C227.827 153.8 228.367 154.2 228.954 154.48C229.541 154.76 230.247 154.9 231.074 154.9C231.874 154.9 232.527 154.76 233.034 154.48C233.554 154.187 233.814 153.733 233.814 153.12C233.814 152.853 233.761 152.633 233.654 152.46C233.561 152.273 233.427 152.127 233.254 152.02C233.081 151.913 232.887 151.833 232.674 151.78C232.461 151.713 232.234 151.66 231.994 151.62L230.374 151.38C230.014 151.327 229.621 151.253 229.194 151.16C228.781 151.067 228.401 150.92 228.054 150.72C227.707 150.507 227.414 150.227 227.174 149.88C226.947 149.533 226.834 149.08 226.834 148.52C226.834 148 226.934 147.553 227.134 147.18C227.347 146.793 227.641 146.473 228.014 146.22C228.387 145.953 228.827 145.76 229.334 145.64C229.841 145.507 230.394 145.44 230.994 145.44C231.927 145.44 232.734 145.587 233.414 145.88C234.107 146.173 234.701 146.58 235.194 147.1L234.154 148.08C234.034 147.933 233.881 147.787 233.694 147.64C233.521 147.48 233.301 147.34 233.034 147.22C232.781 147.087 232.481 146.98 232.134 146.9C231.787 146.82 231.387 146.78 230.934 146.78C230.121 146.78 229.494 146.92 229.054 147.2C228.627 147.48 228.414 147.887 228.414 148.42C228.414 148.687 228.461 148.913 228.554 149.1C228.661 149.273 228.801 149.413 228.974 149.52C229.147 149.627 229.341 149.713 229.554 149.78C229.781 149.833 230.007 149.88 230.234 149.92L231.854 150.16C232.227 150.213 232.621 150.287 233.034 150.38C233.447 150.473 233.827 150.627 234.174 150.84C234.521 151.04 234.807 151.313 235.034 151.66C235.274 152.007 235.394 152.46 235.394 153.02C235.394 154.047 234.994 154.84 234.194 155.4C233.407 155.96 232.354 156.24 231.034 156.24ZM243.086 156.24C242.34 156.24 241.666 156.113 241.066 155.86C240.48 155.607 239.973 155.247 239.546 154.78C239.133 154.3 238.813 153.733 238.586 153.08C238.36 152.413 238.246 151.673 238.246 150.86C238.246 150.033 238.36 149.287 238.586 148.62C238.826 147.953 239.153 147.387 239.566 146.92C239.98 146.44 240.473 146.073 241.046 145.82C241.633 145.567 242.28 145.44 242.986 145.44C243.68 145.44 244.306 145.567 244.866 145.82C245.44 146.073 245.926 146.427 246.326 146.88C246.726 147.32 247.033 147.847 247.246 148.46C247.46 149.073 247.566 149.747 247.566 150.48V151.24H239.926V151.72C239.926 152.173 240 152.593 240.146 152.98C240.293 153.367 240.5 153.7 240.766 153.98C241.046 154.26 241.38 154.48 241.766 154.64C242.166 154.787 242.606 154.86 243.086 154.86C243.78 154.86 244.38 154.7 244.886 154.38C245.393 154.06 245.78 153.62 246.046 153.06L247.226 153.86C246.92 154.553 246.406 155.127 245.686 155.58C244.98 156.02 244.113 156.24 243.086 156.24ZM242.986 146.76C242.546 146.76 242.14 146.84 241.766 147C241.393 147.16 241.066 147.38 240.786 147.66C240.52 147.94 240.306 148.273 240.146 148.66C240 149.033 239.926 149.447 239.926 149.9V150.04H245.846V149.82C245.846 149.367 245.773 148.953 245.626 148.58C245.493 148.207 245.3 147.887 245.046 147.62C244.806 147.34 244.506 147.127 244.146 146.98C243.8 146.833 243.413 146.76 242.986 146.76ZM250.858 156V145.68H252.458V147.36H252.538C252.645 147.107 252.778 146.867 252.938 146.64C253.098 146.4 253.292 146.193 253.518 146.02C253.758 145.847 254.038 145.707 254.358 145.6C254.678 145.493 255.052 145.44 255.478 145.44C256.558 145.44 257.425 145.787 258.078 146.48C258.732 147.16 259.058 148.127 259.058 149.38V156H257.458V149.66C257.458 148.713 257.252 148.013 256.838 147.56C256.425 147.093 255.818 146.86 255.018 146.86C254.698 146.86 254.385 146.9 254.078 146.98C253.772 147.06 253.498 147.18 253.258 147.34C253.018 147.5 252.825 147.707 252.678 147.96C252.532 148.213 252.458 148.507 252.458 148.84V156H250.858ZM269.391 154.32H269.311C268.644 155.6 267.584 156.24 266.131 156.24C264.864 156.24 263.871 155.767 263.151 154.82C262.444 153.873 262.091 152.547 262.091 150.84C262.091 149.133 262.444 147.807 263.151 146.86C263.871 145.913 264.864 145.44 266.131 145.44C267.584 145.44 268.644 146.08 269.311 147.36H269.391V141.2H270.991V156H269.391V154.32ZM266.751 154.82C267.111 154.82 267.451 154.773 267.771 154.68C268.091 154.587 268.371 154.453 268.611 154.28C268.851 154.093 269.037 153.873 269.171 153.62C269.317 153.353 269.391 153.047 269.391 152.7V148.98C269.391 148.633 269.317 148.333 269.171 148.08C269.037 147.813 268.851 147.593 268.611 147.42C268.371 147.233 268.091 147.093 267.771 147C267.451 146.907 267.111 146.86 266.751 146.86C265.817 146.86 265.091 147.147 264.571 147.72C264.064 148.28 263.811 149.027 263.811 149.96V151.72C263.811 152.653 264.064 153.407 264.571 153.98C265.091 154.54 265.817 154.82 266.751 154.82ZM274.083 159.38V157.9H283.683V159.38H274.083ZM291.055 156.24C290.308 156.24 289.635 156.113 289.035 155.86C288.448 155.607 287.942 155.247 287.515 154.78C287.102 154.3 286.782 153.733 286.555 153.08C286.328 152.413 286.215 151.673 286.215 150.86C286.215 150.033 286.328 149.287 286.555 148.62C286.795 147.953 287.122 147.387 287.535 146.92C287.948 146.44 288.442 146.073 289.015 145.82C289.602 145.567 290.248 145.44 290.955 145.44C291.648 145.44 292.275 145.567 292.835 145.82C293.408 146.073 293.895 146.427 294.295 146.88C294.695 147.32 295.002 147.847 295.215 148.46C295.428 149.073 295.535 149.747 295.535 150.48V151.24H287.895V151.72C287.895 152.173 287.968 152.593 288.115 152.98C288.262 153.367 288.468 153.7 288.735 153.98C289.015 154.26 289.348 154.48 289.735 154.64C290.135 154.787 290.575 154.86 291.055 154.86C291.748 154.86 292.348 154.7 292.855 154.38C293.362 154.06 293.748 153.62 294.015 153.06L295.195 153.86C294.888 154.553 294.375 155.127 293.655 155.58C292.948 156.02 292.082 156.24 291.055 156.24ZM290.955 146.76C290.515 146.76 290.108 146.84 289.735 147C289.362 147.16 289.035 147.38 288.755 147.66C288.488 147.94 288.275 148.273 288.115 148.66C287.968 149.033 287.895 149.447 287.895 149.9V150.04H293.815V149.82C293.815 149.367 293.742 148.953 293.595 148.58C293.462 148.207 293.268 147.887 293.015 147.62C292.775 147.34 292.475 147.127 292.115 146.98C291.768 146.833 291.382 146.76 290.955 146.76ZM297.947 156V145.68H299.427V146.88H299.507C299.667 146.48 299.894 146.14 300.187 145.86C300.481 145.58 300.914 145.44 301.487 145.44C302.087 145.44 302.534 145.593 302.827 145.9C303.121 146.193 303.301 146.58 303.367 147.06H303.427C303.614 146.593 303.881 146.207 304.227 145.9C304.574 145.593 305.054 145.44 305.667 145.44C306.507 145.44 307.067 145.733 307.347 146.32C307.641 146.907 307.787 147.747 307.787 148.84V156H306.307V149.1C306.307 148.22 306.214 147.613 306.027 147.28C305.854 146.933 305.527 146.76 305.047 146.76C304.621 146.76 304.274 146.9 304.007 147.18C303.741 147.447 303.607 147.86 303.607 148.42V156H302.127V149.1C302.127 148.22 302.034 147.613 301.847 147.28C301.674 146.933 301.354 146.76 300.887 146.76C300.461 146.76 300.107 146.9 299.827 147.18C299.561 147.447 299.427 147.86 299.427 148.42V156H297.947ZM318.759 156C318.133 156 317.686 155.84 317.419 155.52C317.153 155.2 316.986 154.8 316.919 154.32H316.819C316.593 154.92 316.226 155.393 315.719 155.74C315.226 156.073 314.559 156.24 313.719 156.24C312.639 156.24 311.779 155.96 311.139 155.4C310.499 154.84 310.179 154.073 310.179 153.1C310.179 152.14 310.526 151.4 311.219 150.88C311.926 150.36 313.059 150.1 314.619 150.1H316.819V149.08C316.819 148.32 316.606 147.753 316.179 147.38C315.753 146.993 315.146 146.8 314.359 146.8C313.666 146.8 313.099 146.94 312.659 147.22C312.219 147.487 311.866 147.853 311.599 148.32L310.519 147.52C310.653 147.253 310.833 146.993 311.059 146.74C311.286 146.487 311.566 146.267 311.899 146.08C312.233 145.88 312.613 145.727 313.039 145.62C313.466 145.5 313.939 145.44 314.459 145.44C315.673 145.44 316.633 145.747 317.339 146.36C318.059 146.973 318.419 147.827 318.419 148.92V154.6H319.859V156H318.759ZM313.999 154.9C314.413 154.9 314.786 154.853 315.119 154.76C315.466 154.653 315.766 154.52 316.019 154.36C316.273 154.187 316.466 153.987 316.599 153.76C316.746 153.52 316.819 153.267 316.819 153V151.3H314.619C313.659 151.3 312.959 151.433 312.519 151.7C312.079 151.967 311.859 152.353 311.859 152.86V153.28C311.859 153.813 312.046 154.22 312.419 154.5C312.806 154.767 313.333 154.9 313.999 154.9ZM327.492 143.4C327.025 143.4 326.698 143.307 326.512 143.12C326.325 142.92 326.232 142.673 326.232 142.38V142.06C326.232 141.767 326.325 141.527 326.512 141.34C326.698 141.14 327.025 141.04 327.492 141.04C327.958 141.04 328.285 141.14 328.472 141.34C328.658 141.527 328.752 141.767 328.752 142.06V142.38C328.752 142.673 328.658 142.92 328.472 143.12C328.285 143.307 327.958 143.4 327.492 143.4ZM322.972 154.64H326.692V147.04H322.972V145.68H328.292V154.64H331.772V156H322.972V154.64ZM334.444 154.64H338.044V142.56H334.444V141.2H339.644V154.64H343.244V156H334.444V154.64Z" fill="white"/>
<path d="M204.61 182.74V177.2H206.13V182.74H204.61ZM208.15 182.74V177.2H209.67V182.74H208.15ZM215.162 194.64H220.162V183.04H214.982V181.68H221.762V193.64C221.762 194.333 221.575 194.9 221.202 195.34C220.842 195.78 220.269 196 219.482 196H215.162V194.64ZM220.962 179.4C220.495 179.4 220.169 179.307 219.982 179.12C219.795 178.92 219.702 178.673 219.702 178.38V178.06C219.702 177.767 219.795 177.527 219.982 177.34C220.169 177.14 220.495 177.04 220.962 177.04C221.429 177.04 221.755 177.14 221.942 177.34C222.129 177.527 222.222 177.767 222.222 178.06V178.38C222.222 178.673 222.129 178.92 221.942 179.12C221.755 179.307 221.429 179.4 220.962 179.4ZM231.114 192.24C230.394 192.24 229.741 192.113 229.154 191.86C228.581 191.607 228.087 191.247 227.674 190.78C227.274 190.3 226.967 189.733 226.754 189.08C226.541 188.413 226.434 187.667 226.434 186.84C226.434 186.027 226.541 185.287 226.754 184.62C226.967 183.953 227.274 183.387 227.674 182.92C228.087 182.44 228.581 182.073 229.154 181.82C229.741 181.567 230.394 181.44 231.114 181.44C231.834 181.44 232.481 181.567 233.054 181.82C233.641 182.073 234.134 182.44 234.534 182.92C234.947 183.387 235.261 183.953 235.474 184.62C235.687 185.287 235.794 186.027 235.794 186.84C235.794 187.667 235.687 188.413 235.474 189.08C235.261 189.733 234.947 190.3 234.534 190.78C234.134 191.247 233.641 191.607 233.054 191.86C232.481 192.113 231.834 192.24 231.114 192.24ZM231.114 190.86C232.007 190.86 232.727 190.593 233.274 190.06C233.821 189.527 234.094 188.7 234.094 187.58V186.1C234.094 184.98 233.821 184.153 233.274 183.62C232.727 183.087 232.007 182.82 231.114 182.82C230.221 182.82 229.501 183.087 228.954 183.62C228.407 184.153 228.134 184.98 228.134 186.1V187.58C228.134 188.7 228.407 189.527 228.954 190.06C229.501 190.593 230.221 190.86 231.114 190.86ZM243.226 192.24C242.146 192.24 241.213 192.06 240.426 191.7C239.653 191.327 238.993 190.833 238.446 190.22L239.526 189.28C240.02 189.8 240.56 190.2 241.146 190.48C241.733 190.76 242.44 190.9 243.266 190.9C244.066 190.9 244.72 190.76 245.226 190.48C245.746 190.187 246.006 189.733 246.006 189.12C246.006 188.853 245.953 188.633 245.846 188.46C245.753 188.273 245.62 188.127 245.446 188.02C245.273 187.913 245.08 187.833 244.866 187.78C244.653 187.713 244.426 187.66 244.186 187.62L242.566 187.38C242.206 187.327 241.813 187.253 241.386 187.16C240.973 187.067 240.593 186.92 240.246 186.72C239.9 186.507 239.606 186.227 239.366 185.88C239.14 185.533 239.026 185.08 239.026 184.52C239.026 184 239.126 183.553 239.326 183.18C239.54 182.793 239.833 182.473 240.206 182.22C240.58 181.953 241.02 181.76 241.526 181.64C242.033 181.507 242.586 181.44 243.186 181.44C244.12 181.44 244.926 181.587 245.606 181.88C246.3 182.173 246.893 182.58 247.386 183.1L246.346 184.08C246.226 183.933 246.073 183.787 245.886 183.64C245.713 183.48 245.493 183.34 245.226 183.22C244.973 183.087 244.673 182.98 244.326 182.9C243.98 182.82 243.58 182.78 243.126 182.78C242.313 182.78 241.686 182.92 241.246 183.2C240.82 183.48 240.606 183.887 240.606 184.42C240.606 184.687 240.653 184.913 240.746 185.1C240.853 185.273 240.993 185.413 241.166 185.52C241.34 185.627 241.533 185.713 241.746 185.78C241.973 185.833 242.2 185.88 242.426 185.92L244.046 186.16C244.42 186.213 244.813 186.287 245.226 186.38C245.64 186.473 246.02 186.627 246.366 186.84C246.713 187.04 247 187.313 247.226 187.66C247.466 188.007 247.586 188.46 247.586 189.02C247.586 190.047 247.186 190.84 246.386 191.4C245.6 191.96 244.546 192.24 243.226 192.24ZM251.058 177.2H252.658V183.36H252.738C252.845 183.107 252.978 182.867 253.138 182.64C253.298 182.4 253.492 182.193 253.718 182.02C253.958 181.847 254.238 181.707 254.558 181.6C254.878 181.493 255.252 181.44 255.678 181.44C256.758 181.44 257.625 181.787 258.278 182.48C258.932 183.16 259.258 184.127 259.258 185.38V192H257.658V185.66C257.658 184.713 257.452 184.013 257.038 183.56C256.625 183.093 256.018 182.86 255.218 182.86C254.898 182.86 254.585 182.9 254.278 182.98C253.972 183.06 253.698 183.18 253.458 183.34C253.218 183.5 253.025 183.707 252.878 183.96C252.732 184.213 252.658 184.507 252.658 184.84V192H251.058V177.2ZM270.171 194.24H267.711C266.697 194.24 265.844 194.067 265.151 193.72C264.471 193.387 263.917 192.873 263.491 192.18C263.077 191.5 262.777 190.647 262.591 189.62C262.417 188.593 262.331 187.387 262.331 186C262.331 184.453 262.431 183.16 262.631 182.12C262.844 181.067 263.151 180.22 263.551 179.58C263.951 178.94 264.444 178.487 265.031 178.22C265.631 177.94 266.324 177.8 267.111 177.8C267.911 177.8 268.591 177.927 269.151 178.18C269.724 178.433 270.191 178.78 270.551 179.22C270.911 179.66 271.171 180.187 271.331 180.8C271.504 181.4 271.591 182.047 271.591 182.74V190.18H270.171V189.04H270.071C269.937 189.387 269.717 189.707 269.411 190C269.104 190.28 268.657 190.42 268.071 190.42C267.257 190.42 266.611 190.08 266.131 189.4C265.651 188.707 265.411 187.62 265.411 186.14C265.411 184.66 265.651 183.573 266.131 182.88C266.611 182.187 267.257 181.84 268.071 181.84C268.364 181.84 268.617 181.88 268.831 181.96C269.057 182.04 269.251 182.147 269.411 182.28C269.571 182.413 269.704 182.56 269.811 182.72C269.917 182.88 270.004 183.047 270.071 183.22H270.171V182.74C270.171 181.607 269.931 180.713 269.451 180.06C268.984 179.407 268.217 179.08 267.151 179.08C265.964 179.08 265.111 179.54 264.591 180.46C264.084 181.367 263.831 182.827 263.831 184.84V187.42C263.831 188.193 263.884 188.92 263.991 189.6C264.097 190.267 264.291 190.853 264.571 191.36C264.864 191.853 265.257 192.24 265.751 192.52C266.257 192.813 266.911 192.96 267.711 192.96H270.171V194.24ZM268.591 189.22C269.071 189.22 269.451 189.087 269.731 188.82C270.024 188.553 270.171 188.167 270.171 187.66V184.6C270.171 184.093 270.024 183.707 269.731 183.44C269.451 183.173 269.071 183.04 268.591 183.04C268.031 183.04 267.604 183.233 267.311 183.62C267.031 183.993 266.891 184.627 266.891 185.52V186.74C266.891 187.633 267.031 188.273 267.311 188.66C267.604 189.033 268.031 189.22 268.591 189.22ZM279.263 192.24C278.516 192.24 277.843 192.113 277.243 191.86C276.656 191.607 276.149 191.247 275.723 190.78C275.309 190.3 274.989 189.733 274.763 189.08C274.536 188.413 274.423 187.673 274.423 186.86C274.423 186.033 274.536 185.287 274.763 184.62C275.003 183.953 275.329 183.387 275.743 182.92C276.156 182.44 276.649 182.073 277.223 181.82C277.809 181.567 278.456 181.44 279.163 181.44C279.856 181.44 280.483 181.567 281.043 181.82C281.616 182.073 282.103 182.427 282.503 182.88C282.903 183.32 283.209 183.847 283.423 184.46C283.636 185.073 283.743 185.747 283.743 186.48V187.24H276.103V187.72C276.103 188.173 276.176 188.593 276.323 188.98C276.469 189.367 276.676 189.7 276.943 189.98C277.223 190.26 277.556 190.48 277.943 190.64C278.343 190.787 278.783 190.86 279.263 190.86C279.956 190.86 280.556 190.7 281.063 190.38C281.569 190.06 281.956 189.62 282.223 189.06L283.403 189.86C283.096 190.553 282.583 191.127 281.863 191.58C281.156 192.02 280.289 192.24 279.263 192.24ZM279.163 182.76C278.723 182.76 278.316 182.84 277.943 183C277.569 183.16 277.243 183.38 276.963 183.66C276.696 183.94 276.483 184.273 276.323 184.66C276.176 185.033 276.103 185.447 276.103 185.9V186.04H282.023V185.82C282.023 185.367 281.949 184.953 281.803 184.58C281.669 184.207 281.476 183.887 281.223 183.62C280.983 183.34 280.683 183.127 280.323 182.98C279.976 182.833 279.589 182.76 279.163 182.76ZM286.295 192L290.135 186.76L286.395 181.68H288.315L289.875 183.86L291.115 185.58H291.195L292.395 183.86L293.935 181.68H295.775L291.995 186.74L295.875 192H293.955L292.215 189.58L291.035 187.94H290.955L289.815 189.58L288.135 192H286.295ZM306.967 192C306.341 192 305.894 191.84 305.627 191.52C305.361 191.2 305.194 190.8 305.127 190.32H305.027C304.801 190.92 304.434 191.393 303.927 191.74C303.434 192.073 302.767 192.24 301.927 192.24C300.847 192.24 299.987 191.96 299.347 191.4C298.707 190.84 298.387 190.073 298.387 189.1C298.387 188.14 298.734 187.4 299.427 186.88C300.134 186.36 301.267 186.1 302.827 186.1H305.027V185.08C305.027 184.32 304.814 183.753 304.387 183.38C303.961 182.993 303.354 182.8 302.567 182.8C301.874 182.8 301.307 182.94 300.867 183.22C300.427 183.487 300.074 183.853 299.807 184.32L298.727 183.52C298.861 183.253 299.041 182.993 299.267 182.74C299.494 182.487 299.774 182.267 300.107 182.08C300.441 181.88 300.821 181.727 301.247 181.62C301.674 181.5 302.147 181.44 302.667 181.44C303.881 181.44 304.841 181.747 305.547 182.36C306.267 182.973 306.627 183.827 306.627 184.92V190.6H308.067V192H306.967ZM302.207 190.9C302.621 190.9 302.994 190.853 303.327 190.76C303.674 190.653 303.974 190.52 304.227 190.36C304.481 190.187 304.674 189.987 304.807 189.76C304.954 189.52 305.027 189.267 305.027 189V187.3H302.827C301.867 187.3 301.167 187.433 300.727 187.7C300.287 187.967 300.067 188.353 300.067 188.86V189.28C300.067 189.813 300.254 190.22 300.627 190.5C301.014 190.767 301.541 190.9 302.207 190.9ZM310.139 192V181.68H311.619V182.88H311.699C311.859 182.48 312.086 182.14 312.379 181.86C312.673 181.58 313.106 181.44 313.679 181.44C314.279 181.44 314.726 181.593 315.019 181.9C315.313 182.193 315.493 182.58 315.559 183.06H315.619C315.806 182.593 316.073 182.207 316.419 181.9C316.766 181.593 317.246 181.44 317.859 181.44C318.699 181.44 319.259 181.733 319.539 182.32C319.833 182.907 319.979 183.747 319.979 184.84V192H318.499V185.1C318.499 184.22 318.406 183.613 318.219 183.28C318.046 182.933 317.719 182.76 317.239 182.76C316.813 182.76 316.466 182.9 316.199 183.18C315.933 183.447 315.799 183.86 315.799 184.42V192H314.319V185.1C314.319 184.22 314.226 183.613 314.039 183.28C313.866 182.933 313.546 182.76 313.079 182.76C312.653 182.76 312.299 182.9 312.019 183.18C311.753 183.447 311.619 183.86 311.619 184.42V192H310.139ZM322.952 181.68H324.552V183.36H324.632C325.298 182.08 326.358 181.44 327.812 181.44C329.078 181.44 330.065 181.913 330.772 182.86C331.492 183.807 331.852 185.133 331.852 186.84C331.852 188.547 331.492 189.873 330.772 190.82C330.065 191.767 329.078 192.24 327.812 192.24C326.358 192.24 325.298 191.6 324.632 190.32H324.552V196H322.952V181.68ZM327.192 190.82C328.125 190.82 328.845 190.54 329.352 189.98C329.872 189.407 330.132 188.653 330.132 187.72V185.96C330.132 185.027 329.872 184.28 329.352 183.72C328.845 183.147 328.125 182.86 327.192 182.86C326.832 182.86 326.492 182.907 326.172 183C325.852 183.093 325.572 183.233 325.332 183.42C325.092 183.593 324.898 183.813 324.752 184.08C324.618 184.333 324.552 184.633 324.552 184.98V188.7C324.552 189.047 324.618 189.353 324.752 189.62C324.898 189.873 325.092 190.093 325.332 190.28C325.572 190.453 325.852 190.587 326.172 190.68C326.492 190.773 326.832 190.82 327.192 190.82ZM334.644 190.64H338.244V178.56H334.644V177.2H339.844V190.64H343.444V192H334.644V190.64ZM351.216 192.24C350.469 192.24 349.796 192.113 349.196 191.86C348.609 191.607 348.103 191.247 347.676 190.78C347.263 190.3 346.943 189.733 346.716 189.08C346.489 188.413 346.376 187.673 346.376 186.86C346.376 186.033 346.489 185.287 346.716 184.62C346.956 183.953 347.283 183.387 347.696 182.92C348.109 182.44 348.603 182.073 349.176 181.82C349.763 181.567 350.409 181.44 351.116 181.44C351.809 181.44 352.436 181.567 352.996 181.82C353.569 182.073 354.056 182.427 354.456 182.88C354.856 183.32 355.163 183.847 355.376 184.46C355.589 185.073 355.696 185.747 355.696 186.48V187.24H348.056V187.72C348.056 188.173 348.129 188.593 348.276 188.98C348.423 189.367 348.629 189.7 348.896 189.98C349.176 190.26 349.509 190.48 349.896 190.64C350.296 190.787 350.736 190.86 351.216 190.86C351.909 190.86 352.509 190.7 353.016 190.38C353.523 190.06 353.909 189.62 354.176 189.06L355.356 189.86C355.049 190.553 354.536 191.127 353.816 191.58C353.109 192.02 352.243 192.24 351.216 192.24ZM351.116 182.76C350.676 182.76 350.269 182.84 349.896 183C349.523 183.16 349.196 183.38 348.916 183.66C348.649 183.94 348.436 184.273 348.276 184.66C348.129 185.033 348.056 185.447 348.056 185.9V186.04H353.976V185.82C353.976 185.367 353.903 184.953 353.756 184.58C353.623 184.207 353.429 183.887 353.176 183.62C352.936 183.34 352.636 183.127 352.276 182.98C351.929 182.833 351.543 182.76 351.116 182.76ZM363.028 192.18C362.481 192.18 362.095 192.067 361.868 191.84C361.655 191.613 361.548 191.327 361.548 190.98V190.62C361.548 190.273 361.655 189.987 361.868 189.76C362.095 189.533 362.481 189.42 363.028 189.42C363.575 189.42 363.955 189.533 364.168 189.76C364.395 189.987 364.508 190.273 364.508 190.62V190.98C364.508 191.327 364.395 191.613 364.168 191.84C363.955 192.067 363.575 192.18 363.028 192.18ZM375.38 192.24C374.634 192.24 373.967 192.113 373.38 191.86C372.807 191.593 372.32 191.227 371.92 190.76C371.52 190.293 371.214 189.727 371 189.06C370.8 188.393 370.7 187.653 370.7 186.84C370.7 186.027 370.807 185.287 371.02 184.62C371.234 183.953 371.54 183.387 371.94 182.92C372.34 182.44 372.827 182.073 373.4 181.82C373.974 181.567 374.627 181.44 375.36 181.44C376.36 181.44 377.174 181.66 377.8 182.1C378.427 182.54 378.887 183.113 379.18 183.82L377.9 184.5C377.714 183.967 377.4 183.553 376.96 183.26C376.534 182.967 376 182.82 375.36 182.82C374.894 182.82 374.474 182.9 374.1 183.06C373.74 183.207 373.434 183.42 373.18 183.7C372.927 183.98 372.734 184.313 372.6 184.7C372.48 185.087 372.42 185.507 372.42 185.96V187.72C372.42 188.173 372.48 188.593 372.6 188.98C372.734 189.367 372.927 189.7 373.18 189.98C373.434 190.26 373.747 190.48 374.12 190.64C374.494 190.787 374.92 190.86 375.4 190.86C376.094 190.86 376.667 190.7 377.12 190.38C377.574 190.06 377.934 189.62 378.2 189.06L379.34 189.84C379.034 190.533 378.554 191.107 377.9 191.56C377.26 192.013 376.42 192.24 375.38 192.24ZM387.013 192.24C386.293 192.24 385.639 192.113 385.053 191.86C384.479 191.607 383.986 191.247 383.573 190.78C383.173 190.3 382.866 189.733 382.653 189.08C382.439 188.413 382.333 187.667 382.333 186.84C382.333 186.027 382.439 185.287 382.653 184.62C382.866 183.953 383.173 183.387 383.573 182.92C383.986 182.44 384.479 182.073 385.053 181.82C385.639 181.567 386.293 181.44 387.013 181.44C387.733 181.44 388.379 181.567 388.953 181.82C389.539 182.073 390.033 182.44 390.433 182.92C390.846 183.387 391.159 183.953 391.373 184.62C391.586 185.287 391.693 186.027 391.693 186.84C391.693 187.667 391.586 188.413 391.373 189.08C391.159 189.733 390.846 190.3 390.433 190.78C390.033 191.247 389.539 191.607 388.953 191.86C388.379 192.113 387.733 192.24 387.013 192.24ZM387.013 190.86C387.906 190.86 388.626 190.593 389.173 190.06C389.719 189.527 389.993 188.7 389.993 187.58V186.1C389.993 184.98 389.719 184.153 389.173 183.62C388.626 183.087 387.906 182.82 387.013 182.82C386.119 182.82 385.399 183.087 384.853 183.62C384.306 184.153 384.033 184.98 384.033 186.1V187.58C384.033 188.7 384.306 189.527 384.853 190.06C385.399 190.593 386.119 190.86 387.013 190.86ZM394.085 192V181.68H395.565V182.88H395.645C395.805 182.48 396.031 182.14 396.325 181.86C396.618 181.58 397.051 181.44 397.625 181.44C398.225 181.44 398.671 181.593 398.965 181.9C399.258 182.193 399.438 182.58 399.505 183.06H399.565C399.751 182.593 400.018 182.207 400.365 181.9C400.711 181.593 401.191 181.44 401.805 181.44C402.645 181.44 403.205 181.733 403.485 182.32C403.778 182.907 403.925 183.747 403.925 184.84V192H402.445V185.1C402.445 184.22 402.351 183.613 402.165 183.28C401.991 182.933 401.665 182.76 401.185 182.76C400.758 182.76 400.411 182.9 400.145 183.18C399.878 183.447 399.745 183.86 399.745 184.42V192H398.265V185.1C398.265 184.22 398.171 183.613 397.985 183.28C397.811 182.933 397.491 182.76 397.025 182.76C396.598 182.76 396.245 182.9 395.965 183.18C395.698 183.447 395.565 183.86 395.565 184.42V192H394.085ZM408.477 182.74V177.2H409.997V182.74H408.477ZM412.017 182.74V177.2H413.537V182.74H412.017Z" fill="#00FFFF"/>
</g>
<path d="M28 8.5H488C498.77 8.5 507.5 17.2304 507.5 28V307.5H8.5V28C8.5 17.2304 17.2304 8.5 28 8.5Z" stroke="#AFB9C3"/>
</g>
<defs>
<filter id="filter0_d_7884_4437" x="0" y="0" width="524" height="324" filterUnits="userSpaceOnUse" color-interpolation-filters="sRGB">
<feFlood flood-opacity="0" result="BackgroundImageFix"/>
<feColorMatrix in="SourceAlpha" type="matrix" values="0 0 0 0 0 0 0 0 0 0 0 0 0 0 0 0 0 0 127 0" result="hardAlpha"/>
<feOffset dx="4" dy="4"/>
<feGaussianBlur stdDeviation="6"/>
<feColorMatrix type="matrix" values="0 0 0 0 0 0 0 0 0 0 0 0 0 0 0 0 0 0 0.1 0"/>
<feBlend mode="normal" in2="BackgroundImageFix" result="effect1_dropShadow_7884_4437"/>
<feBlend mode="normal" in="SourceGraphic" in2="effect1_dropShadow_7884_4437" result="shape"/>
</filter>
<clipPath id="clip0_7884_4437">
<path d="M8 28C8 16.9543 16.9543 8 28 8H488C499.046 8 508 16.9543 508 28V308H8V28Z" fill="white"/>
</clipPath>
</defs>
</svg>
