<svg width="524" height="324" viewBox="0 0 524 324" fill="none" xmlns="http://www.w3.org/2000/svg">
<g filter="url(#filter0_d_7870_4651)">
<path d="M8 28C8 16.9543 16.9543 8 28 8H488C499.046 8 508 16.9543 508 28V308H8V28Z" fill="white"/>
<path d="M8 28C8 16.9543 16.9543 8 28 8H488C499.046 8 508 16.9543 508 28V38H8V28Z" fill="#909CA8"/>
<path d="M79.496 80.368C79.496 81.392 79.264 82.264 78.8 82.984C78.336 83.704 77.672 84.264 76.808 84.664C75.944 85.048 74.888 85.24 73.64 85.24C73.032 85.24 72.448 85.2 71.888 85.12C71.344 85.056 70.84 84.96 70.376 84.832C69.928 84.704 69.504 84.544 69.104 84.352V81.904C69.744 82.192 70.472 82.456 71.288 82.696C72.12 82.92 72.944 83.032 73.76 83.032C74.464 83.032 75.04 82.928 75.488 82.72C75.952 82.512 76.296 82.224 76.52 81.856C76.76 81.488 76.88 81.056 76.88 80.56C76.88 80.032 76.76 79.592 76.52 79.24C76.296 78.872 75.92 78.536 75.392 78.232C74.88 77.912 74.192 77.584 73.328 77.248C72.72 76.992 72.168 76.72 71.672 76.432C71.176 76.128 70.744 75.776 70.376 75.376C70.024 74.976 69.752 74.512 69.56 73.984C69.384 73.456 69.296 72.84 69.296 72.136C69.296 71.192 69.52 70.384 69.968 69.712C70.416 69.04 71.04 68.528 71.84 68.176C72.64 67.808 73.576 67.624 74.648 67.624C75.544 67.624 76.368 67.72 77.12 67.912C77.872 68.088 78.584 68.336 79.256 68.656L78.416 70.792C77.792 70.52 77.16 70.296 76.52 70.12C75.896 69.944 75.248 69.856 74.576 69.856C73.984 69.856 73.488 69.952 73.088 70.144C72.704 70.336 72.416 70.6 72.224 70.936C72.032 71.272 71.936 71.664 71.936 72.112C71.936 72.64 72.048 73.08 72.272 73.432C72.496 73.784 72.856 74.112 73.352 74.416C73.848 74.704 74.504 75.024 75.32 75.376C76.216 75.76 76.976 76.168 77.6 76.6C78.224 77.016 78.696 77.528 79.016 78.136C79.336 78.728 79.496 79.472 79.496 80.368ZM87.3556 85.24C86.2196 85.24 85.2196 85.008 84.3556 84.544C83.5076 84.08 82.8436 83.36 82.3636 82.384C81.8996 81.392 81.6676 80.136 81.6676 78.616C81.6676 77.016 81.9236 75.72 82.4356 74.728C82.9476 73.736 83.6436 73.008 84.5236 72.544C85.4036 72.064 86.4116 71.824 87.5476 71.824C88.2196 71.824 88.8596 71.904 89.4676 72.064C90.0916 72.208 90.6036 72.376 91.0036 72.568L90.2116 74.608C89.8116 74.448 89.3796 74.304 88.9156 74.176C88.4516 74.048 88.0116 73.984 87.5956 73.984C86.8596 73.984 86.2516 74.16 85.7716 74.512C85.3076 74.848 84.9556 75.36 84.7156 76.048C84.4756 76.72 84.3556 77.568 84.3556 78.592C84.3556 79.568 84.4756 80.392 84.7156 81.064C84.9556 81.736 85.3076 82.248 85.7716 82.6C86.2516 82.936 86.8276 83.104 87.4996 83.104C88.1556 83.104 88.7396 83.024 89.2516 82.864C89.7796 82.704 90.2676 82.496 90.7156 82.24V84.448C90.2676 84.72 89.7796 84.92 89.2516 85.048C88.7236 85.176 88.0916 85.24 87.3556 85.24ZM96.1113 71.632C96.1113 72.032 96.0953 72.432 96.0633 72.832C96.0473 73.232 96.0233 73.56 95.9913 73.816H96.1353C96.3913 73.368 96.7033 73 97.0713 72.712C97.4553 72.424 97.8793 72.208 98.3433 72.064C98.8233 71.92 99.3113 71.848 99.8073 71.848C100.751 71.848 101.551 72.016 102.207 72.352C102.879 72.672 103.383 73.184 103.719 73.888C104.071 74.576 104.247 75.472 104.247 76.576V85H101.631V76.936C101.631 75.928 101.439 75.176 101.055 74.68C100.671 74.168 100.071 73.912 99.2553 73.912C98.4713 73.912 97.8473 74.088 97.3833 74.44C96.9193 74.792 96.5913 75.312 96.3993 76C96.2073 76.672 96.1113 77.504 96.1113 78.496V85H93.5193V66.76H96.1113V71.632ZM112.712 71.824C113.784 71.824 114.712 72.064 115.496 72.544C116.28 73.008 116.88 73.68 117.296 74.56C117.728 75.44 117.944 76.48 117.944 77.68V79.072H109.808C109.84 80.4 110.16 81.416 110.768 82.12C111.376 82.824 112.232 83.176 113.336 83.176C114.12 83.176 114.816 83.104 115.424 82.96C116.048 82.8 116.68 82.568 117.32 82.264V84.376C116.712 84.664 116.088 84.88 115.448 85.024C114.824 85.168 114.064 85.24 113.168 85.24C112 85.24 110.96 84.992 110.048 84.496C109.136 84 108.424 83.264 107.912 82.288C107.4 81.296 107.144 80.08 107.144 78.64C107.144 77.184 107.376 75.952 107.84 74.944C108.304 73.936 108.952 73.168 109.784 72.64C110.632 72.096 111.608 71.824 112.712 71.824ZM112.712 73.792C111.896 73.792 111.24 74.088 110.744 74.68C110.248 75.272 109.96 76.112 109.88 77.2H115.376C115.376 76.528 115.28 75.936 115.088 75.424C114.896 74.912 114.6 74.512 114.2 74.224C113.816 73.936 113.32 73.792 112.712 73.792ZM124.999 85.24C123.559 85.24 122.391 84.68 121.495 83.56C120.615 82.44 120.175 80.776 120.175 78.568C120.175 76.344 120.623 74.664 121.519 73.528C122.415 72.392 123.591 71.824 125.047 71.824C125.671 71.824 126.207 71.912 126.655 72.088C127.103 72.248 127.495 72.472 127.831 72.76C128.167 73.048 128.447 73.368 128.671 73.72H128.815C128.783 73.496 128.743 73.176 128.695 72.76C128.663 72.328 128.647 71.944 128.647 71.608V66.76H131.239V85H129.199L128.743 83.272H128.647C128.423 83.64 128.143 83.976 127.807 84.28C127.471 84.568 127.071 84.8 126.607 84.976C126.159 85.152 125.623 85.24 124.999 85.24ZM125.695 83.152C126.815 83.152 127.599 82.808 128.047 82.12C128.511 81.416 128.743 80.368 128.743 78.976V78.592C128.743 77.072 128.527 75.912 128.095 75.112C127.663 74.312 126.855 73.912 125.671 73.912C124.743 73.912 124.039 74.336 123.559 75.184C123.079 76.016 122.839 77.16 122.839 78.616C122.839 80.072 123.079 81.192 123.559 81.976C124.039 82.76 124.751 83.152 125.695 83.152ZM145.519 72.064V85H143.479L143.119 83.296H142.975C142.735 83.744 142.407 84.112 141.991 84.4C141.591 84.688 141.151 84.896 140.671 85.024C140.191 85.168 139.695 85.24 139.183 85.24C138.239 85.24 137.439 85.08 136.783 84.76C136.143 84.424 135.647 83.912 135.295 83.224C134.959 82.52 134.791 81.624 134.791 80.536V72.064H137.407V80.152C137.407 81.16 137.599 81.912 137.983 82.408C138.367 82.904 138.967 83.152 139.783 83.152C140.583 83.152 141.207 82.976 141.655 82.624C142.119 82.272 142.447 81.76 142.639 81.088C142.831 80.4 142.927 79.576 142.927 78.616V72.064H145.519ZM151.752 85H149.16V66.76H151.752V85ZM160.29 71.824C161.362 71.824 162.29 72.064 163.074 72.544C163.858 73.008 164.458 73.68 164.874 74.56C165.306 75.44 165.522 76.48 165.522 77.68V79.072H157.386C157.418 80.4 157.738 81.416 158.346 82.12C158.954 82.824 159.81 83.176 160.914 83.176C161.698 83.176 162.394 83.104 163.002 82.96C163.626 82.8 164.258 82.568 164.898 82.264V84.376C164.29 84.664 163.666 84.88 163.026 85.024C162.402 85.168 161.642 85.24 160.746 85.24C159.578 85.24 158.538 84.992 157.626 84.496C156.714 84 156.002 83.264 155.49 82.288C154.978 81.296 154.722 80.08 154.722 78.64C154.722 77.184 154.954 75.952 155.418 74.944C155.882 73.936 156.53 73.168 157.362 72.64C158.21 72.096 159.186 71.824 160.29 71.824ZM160.29 73.792C159.474 73.792 158.818 74.088 158.322 74.68C157.826 75.272 157.538 76.112 157.458 77.2H162.954C162.954 76.528 162.858 75.936 162.666 75.424C162.474 74.912 162.178 74.512 161.778 74.224C161.394 73.936 160.898 73.792 160.29 73.792ZM182.517 81.352C182.517 82.2 182.325 82.912 181.941 83.488C181.557 84.064 180.997 84.504 180.261 84.808C179.525 85.096 178.621 85.24 177.549 85.24C176.701 85.24 175.957 85.168 175.317 85.024C174.693 84.896 174.117 84.704 173.589 84.448V82.216C174.149 82.488 174.789 82.736 175.509 82.96C176.229 83.168 176.917 83.272 177.573 83.272C178.421 83.272 179.037 83.12 179.421 82.816C179.805 82.512 179.997 82.104 179.997 81.592C179.997 81.304 179.917 81.048 179.757 80.824C179.613 80.584 179.333 80.344 178.917 80.104C178.501 79.848 177.901 79.56 177.117 79.24C176.349 78.904 175.701 78.576 175.173 78.256C174.661 77.92 174.261 77.528 173.973 77.08C173.701 76.616 173.565 76.024 173.565 75.304C173.565 74.184 173.997 73.328 174.861 72.736C175.725 72.128 176.853 71.824 178.245 71.824C179.013 71.824 179.725 71.904 180.381 72.064C181.037 72.208 181.677 72.432 182.301 72.736L181.509 74.68C181.141 74.504 180.765 74.36 180.381 74.248C180.013 74.12 179.645 74.016 179.277 73.936C178.909 73.856 178.541 73.816 178.173 73.816C177.485 73.816 176.965 73.936 176.613 74.176C176.261 74.416 176.085 74.752 176.085 75.184C176.085 75.504 176.165 75.776 176.325 76C176.501 76.224 176.797 76.448 177.213 76.672C177.645 76.896 178.237 77.16 178.989 77.464C179.741 77.768 180.381 78.08 180.909 78.4C181.437 78.72 181.837 79.112 182.109 79.576C182.381 80.04 182.517 80.632 182.517 81.352ZM190.197 71.824C191.269 71.824 192.197 72.064 192.981 72.544C193.765 73.008 194.365 73.68 194.781 74.56C195.213 75.44 195.429 76.48 195.429 77.68V79.072H187.293C187.325 80.4 187.645 81.416 188.253 82.12C188.861 82.824 189.717 83.176 190.821 83.176C191.605 83.176 192.301 83.104 192.909 82.96C193.533 82.8 194.165 82.568 194.805 82.264V84.376C194.197 84.664 193.573 84.88 192.933 85.024C192.309 85.168 191.549 85.24 190.653 85.24C189.485 85.24 188.445 84.992 187.533 84.496C186.621 84 185.909 83.264 185.397 82.288C184.885 81.296 184.629 80.08 184.629 78.64C184.629 77.184 184.861 75.952 185.325 74.944C185.789 73.936 186.437 73.168 187.269 72.64C188.117 72.096 189.093 71.824 190.197 71.824ZM190.197 73.792C189.381 73.792 188.725 74.088 188.229 74.68C187.733 75.272 187.445 76.112 187.365 77.2H192.861C192.861 76.528 192.765 75.936 192.573 75.424C192.381 74.912 192.085 74.512 191.685 74.224C191.301 73.936 190.805 73.792 190.197 73.792ZM204.668 71.824C206.076 71.824 207.156 72.2 207.908 72.952C208.676 73.704 209.06 74.912 209.06 76.576V85H206.468V76.936C206.468 75.928 206.268 75.176 205.868 74.68C205.484 74.168 204.884 73.912 204.068 73.912C202.868 73.912 202.044 74.304 201.596 75.088C201.148 75.872 200.924 77 200.924 78.472V85H198.332V72.064H200.372L200.732 73.792H200.876C201.148 73.344 201.476 72.976 201.86 72.688C202.244 72.4 202.676 72.184 203.156 72.04C203.636 71.896 204.14 71.824 204.668 71.824ZM216.781 85.24C215.341 85.24 214.173 84.68 213.277 83.56C212.397 82.44 211.957 80.776 211.957 78.568C211.957 76.344 212.405 74.664 213.301 73.528C214.197 72.392 215.373 71.824 216.829 71.824C217.453 71.824 217.989 71.912 218.437 72.088C218.885 72.248 219.277 72.472 219.613 72.76C219.949 73.048 220.229 73.368 220.453 73.72H220.597C220.565 73.496 220.525 73.176 220.477 72.76C220.445 72.328 220.429 71.944 220.429 71.608V66.76H223.021V85H220.981L220.525 83.272H220.429C220.205 83.64 219.925 83.976 219.589 84.28C219.253 84.568 218.853 84.8 218.389 84.976C217.941 85.152 217.405 85.24 216.781 85.24ZM217.477 83.152C218.597 83.152 219.381 82.808 219.829 82.12C220.293 81.416 220.525 80.368 220.525 78.976V78.592C220.525 77.072 220.309 75.912 219.877 75.112C219.445 74.312 218.637 73.912 217.453 73.912C216.525 73.912 215.821 74.336 215.341 75.184C214.861 76.016 214.621 77.16 214.621 78.616C214.621 80.072 214.861 81.192 215.341 81.976C215.821 82.76 216.533 83.152 217.477 83.152ZM229.284 72.064V85H226.668V72.064H229.284ZM228.012 67.144C228.396 67.144 228.732 67.256 229.02 67.48C229.308 67.704 229.452 68.08 229.452 68.608C229.452 69.12 229.308 69.496 229.02 69.736C228.732 69.96 228.396 70.072 228.012 70.072C227.596 70.072 227.244 69.96 226.956 69.736C226.668 69.496 226.524 69.12 226.524 68.608C226.524 68.08 226.668 67.704 226.956 67.48C227.244 67.256 227.596 67.144 228.012 67.144ZM239.262 71.824C240.67 71.824 241.75 72.2 242.502 72.952C243.27 73.704 243.654 74.912 243.654 76.576V85H241.062V76.936C241.062 75.928 240.862 75.176 240.462 74.68C240.078 74.168 239.478 73.912 238.662 73.912C237.462 73.912 236.638 74.304 236.19 75.088C235.742 75.872 235.518 77 235.518 78.472V85H232.926V72.064H234.966L235.326 73.792H235.47C235.742 73.344 236.07 72.976 236.454 72.688C236.838 72.4 237.27 72.184 237.75 72.04C238.23 71.896 238.734 71.824 239.262 71.824ZM251.422 71.824C252.206 71.824 252.902 71.984 253.51 72.304C254.134 72.624 254.662 73.112 255.094 73.768H255.19L255.478 72.064H257.614V85.168C257.614 86.384 257.406 87.408 256.99 88.24C256.574 89.072 255.942 89.696 255.094 90.112C254.246 90.544 253.174 90.76 251.878 90.76C250.982 90.76 250.166 90.696 249.43 90.568C248.71 90.44 248.038 90.24 247.414 89.968V87.736C247.83 87.96 248.278 88.144 248.758 88.288C249.238 88.448 249.742 88.56 250.27 88.624C250.814 88.704 251.374 88.744 251.95 88.744C252.942 88.744 253.702 88.44 254.23 87.832C254.774 87.24 255.046 86.4 255.046 85.312V84.88C255.046 84.672 255.054 84.4 255.07 84.064C255.086 83.712 255.102 83.456 255.118 83.296H255.022C254.622 83.968 254.118 84.464 253.51 84.784C252.918 85.088 252.214 85.24 251.398 85.24C249.894 85.24 248.71 84.656 247.846 83.488C246.982 82.304 246.55 80.664 246.55 78.568C246.55 77.16 246.742 75.96 247.126 74.968C247.526 73.96 248.086 73.184 248.806 72.64C249.542 72.096 250.414 71.824 251.422 71.824ZM252.046 73.936C251.438 73.936 250.926 74.12 250.51 74.488C250.094 74.84 249.774 75.36 249.55 76.048C249.342 76.736 249.238 77.584 249.238 78.592C249.238 80.096 249.478 81.24 249.958 82.024C250.438 82.808 251.142 83.2 252.07 83.2C252.614 83.2 253.078 83.12 253.462 82.96C253.846 82.8 254.158 82.552 254.398 82.216C254.654 81.88 254.838 81.456 254.95 80.944C255.078 80.416 255.142 79.784 255.142 79.048V78.568C255.142 77.464 255.03 76.576 254.806 75.904C254.598 75.216 254.262 74.72 253.798 74.416C253.35 74.096 252.766 73.936 252.046 73.936Z" fill="black"/>
<rect x="68.5" y="104.5" width="209" height="179" fill="white"/>
<rect width="210" height="30" transform="translate(68 104)" fill="white"/>
<rect width="210" height="30" transform="translate(68 104)" fill="white"/>
<path d="M149.133 126.424C148.909 126.424 148.717 126.408 148.557 126.376C148.397 126.352 148.253 126.324 148.125 126.292V125.008C148.253 125.04 148.389 125.068 148.533 125.092C148.677 125.116 148.829 125.128 148.989 125.128C149.189 125.128 149.377 125.088 149.553 125.008C149.729 124.928 149.869 124.78 149.973 124.564C150.077 124.348 150.129 124.04 150.129 123.64V115.432H151.665V123.604C151.665 124.276 151.557 124.816 151.341 125.224C151.133 125.64 150.837 125.944 150.453 126.136C150.077 126.328 149.637 126.424 149.133 126.424ZM156.784 117.376C157.624 117.376 158.26 117.56 158.692 117.928C159.132 118.288 159.352 118.856 159.352 119.632V124H158.284L157.984 123.1H157.936C157.752 123.332 157.56 123.528 157.36 123.688C157.168 123.84 156.944 123.948 156.688 124.012C156.44 124.084 156.136 124.12 155.776 124.12C155.392 124.12 155.044 124.048 154.732 123.904C154.428 123.76 154.188 123.54 154.012 123.244C153.836 122.94 153.748 122.56 153.748 122.104C153.748 121.432 153.992 120.928 154.48 120.592C154.976 120.248 155.724 120.06 156.724 120.028L157.852 119.992V119.668C157.852 119.252 157.752 118.956 157.552 118.78C157.352 118.604 157.072 118.516 156.712 118.516C156.384 118.516 156.068 118.564 155.764 118.66C155.46 118.756 155.164 118.868 154.876 118.996L154.396 117.94C154.716 117.772 155.08 117.636 155.488 117.532C155.904 117.428 156.336 117.376 156.784 117.376ZM157.06 120.952C156.396 120.976 155.936 121.092 155.68 121.3C155.424 121.5 155.296 121.772 155.296 122.116C155.296 122.42 155.388 122.64 155.572 122.776C155.756 122.912 155.992 122.98 156.28 122.98C156.72 122.98 157.092 122.856 157.396 122.608C157.7 122.352 157.852 121.976 157.852 121.48V120.928L157.06 120.952ZM165.206 117.376C165.934 117.376 166.502 117.564 166.91 117.94C167.326 118.316 167.534 118.924 167.534 119.764V124H166.022V120.064C166.022 119.576 165.926 119.212 165.734 118.972C165.542 118.724 165.238 118.6 164.822 118.6C164.214 118.6 163.798 118.792 163.574 119.176C163.35 119.552 163.238 120.1 163.238 120.82V124H161.726V117.496H162.89L163.106 118.348H163.19C163.334 118.124 163.51 117.94 163.718 117.796C163.926 117.652 164.158 117.548 164.414 117.484C164.67 117.412 164.934 117.376 165.206 117.376ZM175.678 117.496V124H174.49L174.286 123.16H174.214C174.078 123.384 173.902 123.568 173.686 123.712C173.47 123.848 173.234 123.948 172.978 124.012C172.722 124.084 172.458 124.12 172.186 124.12C171.706 124.12 171.29 124.036 170.938 123.868C170.586 123.7 170.318 123.444 170.134 123.1C169.95 122.748 169.858 122.296 169.858 121.744V117.496H171.37V121.444C171.37 121.924 171.466 122.288 171.658 122.536C171.85 122.776 172.154 122.896 172.57 122.896C172.978 122.896 173.298 122.812 173.53 122.644C173.762 122.468 173.926 122.216 174.022 121.888C174.118 121.56 174.166 121.156 174.166 120.676V117.496H175.678ZM180.677 117.376C181.517 117.376 182.153 117.56 182.585 117.928C183.025 118.288 183.245 118.856 183.245 119.632V124H182.177L181.877 123.1H181.829C181.645 123.332 181.453 123.528 181.253 123.688C181.061 123.84 180.837 123.948 180.581 124.012C180.333 124.084 180.029 124.12 179.669 124.12C179.285 124.12 178.937 124.048 178.625 123.904C178.321 123.76 178.081 123.54 177.905 123.244C177.729 122.94 177.641 122.56 177.641 122.104C177.641 121.432 177.885 120.928 178.373 120.592C178.869 120.248 179.617 120.06 180.617 120.028L181.745 119.992V119.668C181.745 119.252 181.645 118.956 181.445 118.78C181.245 118.604 180.965 118.516 180.605 118.516C180.277 118.516 179.961 118.564 179.657 118.66C179.353 118.756 179.057 118.868 178.769 118.996L178.289 117.94C178.609 117.772 178.973 117.636 179.381 117.532C179.797 117.428 180.229 117.376 180.677 117.376ZM180.953 120.952C180.289 120.976 179.829 121.092 179.573 121.3C179.317 121.5 179.189 121.772 179.189 122.116C179.189 122.42 179.281 122.64 179.465 122.776C179.649 122.912 179.885 122.98 180.173 122.98C180.613 122.98 180.985 122.856 181.289 122.608C181.593 122.352 181.745 121.976 181.745 121.48V120.928L180.953 120.952ZM189.027 117.376C189.123 117.376 189.235 117.38 189.363 117.388C189.491 117.396 189.599 117.412 189.687 117.436L189.555 118.84C189.483 118.824 189.387 118.812 189.267 118.804C189.155 118.788 189.055 118.78 188.967 118.78C188.727 118.78 188.495 118.82 188.271 118.9C188.055 118.972 187.859 119.084 187.683 119.236C187.515 119.38 187.379 119.568 187.275 119.8C187.179 120.032 187.131 120.308 187.131 120.628V124H185.619V117.496H186.783L186.999 118.624H187.071C187.199 118.392 187.359 118.184 187.551 118C187.743 117.808 187.963 117.656 188.211 117.544C188.467 117.432 188.739 117.376 189.027 117.376ZM190.401 117.496H192.045L193.341 121.168C193.397 121.328 193.445 121.484 193.485 121.636C193.533 121.78 193.573 121.928 193.605 122.08C193.637 122.232 193.661 122.384 193.677 122.536H193.725C193.757 122.336 193.805 122.116 193.869 121.876C193.941 121.636 194.013 121.4 194.085 121.168L195.333 117.496H196.965L194.193 124.864C194.033 125.288 193.829 125.652 193.581 125.956C193.341 126.26 193.053 126.488 192.717 126.64C192.389 126.8 192.017 126.88 191.601 126.88C191.409 126.88 191.237 126.868 191.085 126.844C190.941 126.828 190.813 126.808 190.701 126.784V125.584C190.789 125.6 190.893 125.616 191.013 125.632C191.141 125.648 191.273 125.656 191.409 125.656C191.657 125.656 191.869 125.604 192.045 125.5C192.229 125.404 192.381 125.268 192.501 125.092C192.629 124.916 192.733 124.72 192.813 124.504L193.005 123.976L190.401 117.496Z" fill="black"/>
<rect width="210" height="30" transform="translate(68 134)" fill="white"/>
<rect width="30" height="30" transform="translate(68 134)" fill="white"/>
<path d="M82.022 151.708C82.022 152.22 81.898 152.656 81.65 153.016C81.402 153.368 81.046 153.64 80.582 153.832C80.126 154.024 79.586 154.12 78.962 154.12C78.642 154.12 78.334 154.104 78.038 154.072C77.75 154.04 77.486 153.996 77.246 153.94C77.006 153.876 76.794 153.8 76.61 153.712V152.68C76.898 152.808 77.254 152.924 77.678 153.028C78.11 153.132 78.554 153.184 79.01 153.184C79.434 153.184 79.79 153.128 80.078 153.016C80.366 152.904 80.582 152.744 80.726 152.536C80.87 152.328 80.942 152.084 80.942 151.804C80.942 151.524 80.882 151.288 80.762 151.096C80.642 150.904 80.434 150.728 80.138 150.568C79.85 150.4 79.446 150.224 78.926 150.04C78.558 149.904 78.234 149.76 77.954 149.608C77.682 149.448 77.454 149.268 77.27 149.068C77.086 148.868 76.946 148.64 76.85 148.384C76.762 148.128 76.718 147.832 76.718 147.496C76.718 147.04 76.834 146.652 77.066 146.332C77.298 146.004 77.618 145.752 78.026 145.576C78.442 145.4 78.918 145.312 79.454 145.312C79.926 145.312 80.358 145.356 80.75 145.444C81.142 145.532 81.498 145.648 81.818 145.792L81.482 146.716C81.186 146.588 80.862 146.48 80.51 146.392C80.166 146.304 79.806 146.26 79.43 146.26C79.07 146.26 78.77 146.312 78.53 146.416C78.29 146.52 78.11 146.668 77.99 146.86C77.87 147.044 77.81 147.26 77.81 147.508C77.81 147.796 77.87 148.036 77.99 148.228C78.11 148.42 78.306 148.592 78.578 148.744C78.85 148.896 79.218 149.06 79.682 149.236C80.186 149.42 80.61 149.62 80.954 149.836C81.306 150.044 81.57 150.296 81.746 150.592C81.93 150.888 82.022 151.26 82.022 151.708ZM88.98 147.568V154H88.116L87.96 153.148H87.912C87.776 153.372 87.6 153.556 87.384 153.7C87.168 153.844 86.932 153.948 86.676 154.012C86.42 154.084 86.152 154.12 85.872 154.12C85.36 154.12 84.928 154.04 84.576 153.88C84.232 153.712 83.972 153.456 83.796 153.112C83.62 152.768 83.532 152.324 83.532 151.78V147.568H84.6V151.708C84.6 152.22 84.716 152.604 84.948 152.86C85.18 153.116 85.54 153.244 86.028 153.244C86.508 153.244 86.884 153.156 87.156 152.98C87.436 152.796 87.632 152.532 87.744 152.188C87.864 151.836 87.924 151.412 87.924 150.916V147.568H88.98Z" fill="black"/>
<rect width="30" height="30" transform="translate(98 134)" fill="white"/>
<path d="M108.868 154L106.048 146.488H106C106.016 146.648 106.028 146.852 106.036 147.1C106.052 147.348 106.064 147.62 106.072 147.916C106.08 148.204 106.084 148.5 106.084 148.804V154H105.088V145.432H106.684L109.324 152.452H109.372L112.06 145.432H113.644V154H112.576V148.732C112.576 148.452 112.58 148.176 112.588 147.904C112.596 147.624 112.608 147.364 112.624 147.124C112.64 146.876 112.652 146.668 112.66 146.5H112.612L109.756 154H108.868ZM121.423 150.772C121.423 151.308 121.351 151.784 121.207 152.2C121.071 152.608 120.871 152.956 120.607 153.244C120.351 153.532 120.035 153.752 119.659 153.904C119.291 154.048 118.879 154.12 118.423 154.12C117.999 154.12 117.607 154.048 117.247 153.904C116.887 153.752 116.575 153.532 116.311 153.244C116.047 152.956 115.839 152.608 115.687 152.2C115.543 151.784 115.471 151.308 115.471 150.772C115.471 150.06 115.591 149.46 115.831 148.972C116.071 148.476 116.415 148.1 116.863 147.844C117.311 147.58 117.843 147.448 118.459 147.448C119.043 147.448 119.555 147.58 119.995 147.844C120.443 148.1 120.791 148.476 121.039 148.972C121.295 149.46 121.423 150.06 121.423 150.772ZM116.563 150.772C116.563 151.276 116.627 151.716 116.755 152.092C116.891 152.46 117.099 152.744 117.379 152.944C117.659 153.144 118.015 153.244 118.447 153.244C118.879 153.244 119.235 153.144 119.515 152.944C119.795 152.744 119.999 152.46 120.127 152.092C120.263 151.716 120.331 151.276 120.331 150.772C120.331 150.26 120.263 149.824 120.127 149.464C119.991 149.104 119.783 148.828 119.503 148.636C119.231 148.436 118.875 148.336 118.435 148.336C117.779 148.336 117.303 148.552 117.007 148.984C116.711 149.416 116.563 150.012 116.563 150.772Z" fill="black"/>
<rect width="30" height="30" transform="translate(128 134)" fill="white"/>
<path d="M140.132 154H139.052V146.38H136.376V145.432H142.796V146.38H140.132V154ZM148.722 147.568V154H147.858L147.702 153.148H147.654C147.518 153.372 147.342 153.556 147.126 153.7C146.91 153.844 146.674 153.948 146.418 154.012C146.162 154.084 145.894 154.12 145.614 154.12C145.102 154.12 144.67 154.04 144.318 153.88C143.974 153.712 143.714 153.456 143.538 153.112C143.362 152.768 143.274 152.324 143.274 151.78V147.568H144.342V151.708C144.342 152.22 144.458 152.604 144.69 152.86C144.922 153.116 145.282 153.244 145.77 153.244C146.25 153.244 146.626 153.156 146.898 152.98C147.178 152.796 147.374 152.532 147.486 152.188C147.606 151.836 147.666 151.412 147.666 150.916V147.568H148.722Z" fill="black"/>
<rect width="30" height="30" transform="translate(158 134)" fill="white"/>
<path d="M175.156 145.432L172.876 154H171.784L170.116 148.384C170.068 148.216 170.02 148.044 169.972 147.868C169.924 147.692 169.88 147.524 169.84 147.364C169.8 147.204 169.764 147.068 169.732 146.956C169.708 146.836 169.692 146.748 169.684 146.692C169.676 146.748 169.66 146.836 169.636 146.956C169.62 147.068 169.592 147.204 169.552 147.364C169.512 147.524 169.468 147.696 169.42 147.88C169.38 148.056 169.332 148.236 169.276 148.42L167.656 154H166.564L164.296 145.432H165.424L166.756 150.664C166.804 150.848 166.848 151.032 166.888 151.216C166.928 151.392 166.964 151.568 166.996 151.744C167.036 151.912 167.068 152.076 167.092 152.236C167.116 152.396 167.14 152.552 167.164 152.704C167.188 152.544 167.212 152.38 167.236 152.212C167.268 152.044 167.304 151.872 167.344 151.696C167.384 151.512 167.428 151.328 167.476 151.144C167.524 150.96 167.572 150.78 167.62 150.604L169.132 145.432H170.248L171.82 150.64C171.876 150.824 171.928 151.012 171.976 151.204C172.024 151.388 172.068 151.568 172.108 151.744C172.148 151.92 172.18 152.092 172.204 152.26C172.236 152.42 172.264 152.568 172.288 152.704C172.312 152.504 172.344 152.296 172.384 152.08C172.424 151.856 172.472 151.624 172.528 151.384C172.584 151.144 172.644 150.9 172.708 150.652L174.028 145.432H175.156ZM178.578 147.448C179.13 147.448 179.602 147.568 179.994 147.808C180.394 148.048 180.698 148.388 180.906 148.828C181.122 149.26 181.23 149.768 181.23 150.352V150.988H176.826C176.842 151.716 177.026 152.272 177.378 152.656C177.738 153.032 178.238 153.22 178.878 153.22C179.286 153.22 179.646 153.184 179.958 153.112C180.278 153.032 180.606 152.92 180.942 152.776V153.7C180.614 153.844 180.29 153.948 179.97 154.012C179.65 154.084 179.27 154.12 178.83 154.12C178.222 154.12 177.682 153.996 177.21 153.748C176.746 153.5 176.382 153.132 176.118 152.644C175.862 152.148 175.734 151.544 175.734 150.832C175.734 150.128 175.85 149.524 176.082 149.02C176.322 148.516 176.654 148.128 177.078 147.856C177.51 147.584 178.01 147.448 178.578 147.448ZM178.566 148.312C178.062 148.312 177.662 148.476 177.366 148.804C177.078 149.124 176.906 149.572 176.85 150.148H180.126C180.126 149.78 180.07 149.46 179.958 149.188C179.846 148.916 179.674 148.704 179.442 148.552C179.218 148.392 178.926 148.312 178.566 148.312Z" fill="black"/>
<rect width="30" height="30" transform="translate(188 134)" fill="white"/>
<path d="M199.833 154H198.753V146.38H196.077V145.432H202.497V146.38H199.833V154ZM204.701 147.556C204.701 147.708 204.693 147.864 204.677 148.024C204.669 148.184 204.657 148.328 204.641 148.456H204.713C204.849 148.232 205.021 148.048 205.229 147.904C205.437 147.76 205.669 147.652 205.925 147.58C206.181 147.5 206.445 147.46 206.717 147.46C207.237 147.46 207.669 147.544 208.013 147.712C208.365 147.872 208.629 148.124 208.805 148.468C208.981 148.812 209.069 149.26 209.069 149.812V154H208.025V149.884C208.025 149.364 207.909 148.976 207.677 148.72C207.445 148.464 207.081 148.336 206.585 148.336C206.105 148.336 205.729 148.428 205.457 148.612C205.185 148.788 204.989 149.052 204.869 149.404C204.757 149.748 204.701 150.172 204.701 150.676V154H203.645V144.88H204.701V147.556Z" fill="black"/>
<rect width="30" height="30" transform="translate(218 134)" fill="white"/>
<path d="M229.654 154H228.574V145.432H233.362V146.38H229.654V149.416H233.134V150.364H229.654V154ZM237.653 147.448C237.773 147.448 237.901 147.456 238.037 147.472C238.181 147.48 238.305 147.496 238.409 147.52L238.277 148.492C238.173 148.468 238.057 148.448 237.929 148.432C237.809 148.416 237.693 148.408 237.581 148.408C237.333 148.408 237.097 148.46 236.873 148.564C236.649 148.668 236.449 148.816 236.273 149.008C236.097 149.192 235.957 149.416 235.853 149.68C235.757 149.944 235.709 150.24 235.709 150.568V154H234.653V147.568H235.517L235.637 148.744H235.685C235.821 148.504 235.985 148.288 236.177 148.096C236.369 147.896 236.589 147.74 236.837 147.628C237.085 147.508 237.357 147.448 237.653 147.448Z" fill="black"/>
<rect width="30" height="30" transform="translate(248 134)" fill="white"/>
<path d="M262.368 151.708C262.368 152.22 262.244 152.656 261.996 153.016C261.748 153.368 261.392 153.64 260.928 153.832C260.472 154.024 259.932 154.12 259.308 154.12C258.988 154.12 258.68 154.104 258.384 154.072C258.096 154.04 257.832 153.996 257.592 153.94C257.352 153.876 257.14 153.8 256.956 153.712V152.68C257.244 152.808 257.6 152.924 258.024 153.028C258.456 153.132 258.9 153.184 259.356 153.184C259.78 153.184 260.136 153.128 260.424 153.016C260.712 152.904 260.928 152.744 261.072 152.536C261.216 152.328 261.288 152.084 261.288 151.804C261.288 151.524 261.228 151.288 261.108 151.096C260.988 150.904 260.78 150.728 260.484 150.568C260.196 150.4 259.792 150.224 259.272 150.04C258.904 149.904 258.58 149.76 258.3 149.608C258.028 149.448 257.8 149.268 257.616 149.068C257.432 148.868 257.292 148.64 257.196 148.384C257.108 148.128 257.064 147.832 257.064 147.496C257.064 147.04 257.18 146.652 257.412 146.332C257.644 146.004 257.964 145.752 258.372 145.576C258.788 145.4 259.264 145.312 259.8 145.312C260.272 145.312 260.704 145.356 261.096 145.444C261.488 145.532 261.844 145.648 262.164 145.792L261.828 146.716C261.532 146.588 261.208 146.48 260.856 146.392C260.512 146.304 260.152 146.26 259.776 146.26C259.416 146.26 259.116 146.312 258.876 146.416C258.636 146.52 258.456 146.668 258.336 146.86C258.216 147.044 258.156 147.26 258.156 147.508C258.156 147.796 258.216 148.036 258.336 148.228C258.456 148.42 258.652 148.592 258.924 148.744C259.196 148.896 259.564 149.06 260.028 149.236C260.532 149.42 260.956 149.62 261.3 149.836C261.652 150.044 261.916 150.296 262.092 150.592C262.276 150.888 262.368 151.26 262.368 151.708ZM266.386 147.46C267.17 147.46 267.75 147.632 268.126 147.976C268.502 148.32 268.69 148.868 268.69 149.62V154H267.922L267.718 153.088H267.67C267.486 153.32 267.294 153.516 267.094 153.676C266.902 153.828 266.678 153.94 266.422 154.012C266.174 154.084 265.87 154.12 265.51 154.12C265.126 154.12 264.778 154.052 264.466 153.916C264.162 153.78 263.922 153.572 263.746 153.292C263.57 153.004 263.482 152.644 263.482 152.212C263.482 151.572 263.734 151.08 264.238 150.736C264.742 150.384 265.518 150.192 266.566 150.16L267.658 150.124V149.74C267.658 149.204 267.542 148.832 267.31 148.624C267.078 148.416 266.75 148.312 266.326 148.312C265.99 148.312 265.67 148.364 265.366 148.468C265.062 148.564 264.778 148.676 264.514 148.804L264.19 148.012C264.47 147.86 264.802 147.732 265.186 147.628C265.57 147.516 265.97 147.46 266.386 147.46ZM266.698 150.892C265.898 150.924 265.342 151.052 265.03 151.276C264.726 151.5 264.574 151.816 264.574 152.224C264.574 152.584 264.682 152.848 264.898 153.016C265.122 153.184 265.406 153.268 265.75 153.268C266.294 153.268 266.746 153.12 267.106 152.824C267.466 152.52 267.646 152.056 267.646 151.432V150.856L266.698 150.892Z" fill="black"/>
<rect width="210" height="30" transform="translate(68 164)" fill="white"/>
<rect width="30" height="30" transform="translate(68 164)" fill="white"/>
<rect width="30" height="30" transform="translate(98 164)" fill="white"/>
<rect width="30" height="30" transform="translate(128 164)" fill="white"/>
<rect width="30" height="30" transform="translate(158 164)" fill="white"/>
<rect width="30" height="30" transform="translate(188 164)" fill="white"/>
<rect width="30" height="30" transform="translate(218 164)" fill="white"/>
<path d="M233.689 183H232.829V178.01C232.829 177.817 232.829 177.653 232.829 177.52C232.835 177.387 232.842 177.263 232.849 177.15C232.855 177.03 232.862 176.907 232.869 176.78C232.762 176.887 232.665 176.977 232.579 177.05C232.492 177.123 232.382 177.217 232.249 177.33L231.489 177.95L231.029 177.36L232.959 175.86H233.689V183Z" fill="black"/>
<rect width="30" height="30" transform="translate(248 164)" fill="white"/>
<path d="M265.339 183H260.619V182.27L262.489 180.38C262.849 180.02 263.152 179.7 263.399 179.42C263.645 179.14 263.832 178.867 263.959 178.6C264.085 178.327 264.149 178.03 264.149 177.71C264.149 177.317 264.032 177.02 263.799 176.82C263.565 176.613 263.262 176.51 262.889 176.51C262.542 176.51 262.235 176.57 261.969 176.69C261.709 176.81 261.442 176.977 261.169 177.19L260.699 176.6C260.885 176.44 261.089 176.297 261.309 176.17C261.535 176.043 261.779 175.943 262.039 175.87C262.305 175.797 262.589 175.76 262.889 175.76C263.335 175.76 263.719 175.837 264.039 175.99C264.359 176.143 264.605 176.363 264.779 176.65C264.959 176.93 265.049 177.267 265.049 177.66C265.049 177.94 265.005 178.207 264.919 178.46C264.832 178.707 264.709 178.95 264.549 179.19C264.389 179.43 264.195 179.673 263.969 179.92C263.742 180.167 263.492 180.423 263.219 180.69L261.729 182.16V182.2H265.339V183Z" fill="black"/>
<rect width="210" height="30" transform="translate(68 194)" fill="white"/>
<rect width="30" height="30" transform="translate(68 194)" fill="white"/>
<path d="M85.0687 207.53C85.0687 207.85 85.0087 208.127 84.8887 208.36C84.7687 208.593 84.5953 208.783 84.3687 208.93C84.1487 209.077 83.8887 209.18 83.5887 209.24V209.28C84.162 209.347 84.5887 209.527 84.8687 209.82C85.1487 210.113 85.2887 210.497 85.2887 210.97C85.2887 211.383 85.192 211.753 84.9987 212.08C84.8053 212.4 84.5053 212.65 84.0987 212.83C83.6987 213.01 83.182 213.1 82.5487 213.1C82.1753 213.1 81.8287 213.07 81.5087 213.01C81.1887 212.957 80.882 212.857 80.5887 212.71V211.89C80.8887 212.037 81.212 212.153 81.5587 212.24C81.9053 212.32 82.2387 212.36 82.5587 212.36C83.1987 212.36 83.6587 212.237 83.9387 211.99C84.2253 211.737 84.3687 211.39 84.3687 210.95C84.3687 210.65 84.2887 210.41 84.1287 210.23C83.9753 210.043 83.7487 209.907 83.4487 209.82C83.1487 209.733 82.7887 209.69 82.3687 209.69H81.6787V208.94H82.3787C82.772 208.94 83.0987 208.883 83.3587 208.77C83.6253 208.657 83.8253 208.5 83.9587 208.3C84.0987 208.093 84.1687 207.857 84.1687 207.59C84.1687 207.243 84.052 206.977 83.8187 206.79C83.5853 206.597 83.2687 206.5 82.8687 206.5C82.6153 206.5 82.3853 206.527 82.1787 206.58C81.972 206.627 81.7787 206.697 81.5987 206.79C81.4253 206.877 81.2487 206.98 81.0687 207.1L80.6287 206.5C80.802 206.367 80.9987 206.243 81.2187 206.13C81.4453 206.017 81.6953 205.927 81.9687 205.86C82.242 205.793 82.5387 205.76 82.8587 205.76C83.6053 205.76 84.1587 205.927 84.5187 206.26C84.8853 206.593 85.0687 207.017 85.0687 207.53Z" fill="black"/>
<rect width="30" height="30" transform="translate(98 194)" fill="white"/>
<path d="M115.659 211.38H114.619V213H113.769V211.38H110.349V210.63L113.709 205.82H114.619V210.59H115.659V211.38ZM113.769 208.34C113.769 208.167 113.769 208.01 113.769 207.87C113.775 207.723 113.782 207.587 113.789 207.46C113.795 207.333 113.799 207.213 113.799 207.1C113.805 206.98 113.812 206.867 113.819 206.76H113.779C113.725 206.887 113.659 207.023 113.579 207.17C113.499 207.317 113.422 207.44 113.349 207.54L111.209 210.59H113.769V208.34Z" fill="black"/>
<rect x="128.5" y="194.5" width="149" height="29" fill="#F0F2F5"/>
<path d="M142.889 208.62C143.375 208.62 143.799 208.703 144.159 208.87C144.519 209.037 144.795 209.277 144.989 209.59C145.189 209.897 145.289 210.273 145.289 210.72C145.289 211.213 145.182 211.64 144.969 212C144.755 212.353 144.449 212.627 144.049 212.82C143.655 213.007 143.179 213.1 142.619 213.1C142.252 213.1 141.905 213.067 141.579 213C141.259 212.933 140.989 212.837 140.769 212.71V211.88C141.009 212.027 141.299 212.143 141.639 212.23C141.985 212.31 142.315 212.35 142.629 212.35C142.982 212.35 143.289 212.297 143.549 212.19C143.815 212.077 144.022 211.907 144.169 211.68C144.315 211.447 144.389 211.157 144.389 210.81C144.389 210.343 144.245 209.987 143.959 209.74C143.672 209.487 143.219 209.36 142.599 209.36C142.412 209.36 142.199 209.377 141.959 209.41C141.719 209.443 141.525 209.477 141.379 209.51L140.939 209.23L141.209 205.86H144.789V206.66H141.959L141.789 208.73C141.902 208.71 142.055 208.687 142.249 208.66C142.442 208.633 142.655 208.62 142.889 208.62Z" fill="black"/>
<path d="M170.689 209.95C170.689 209.537 170.715 209.13 170.769 208.73C170.829 208.33 170.929 207.953 171.069 207.6C171.209 207.24 171.402 206.923 171.649 206.65C171.895 206.37 172.205 206.153 172.579 206C172.959 205.84 173.419 205.76 173.959 205.76C174.099 205.76 174.252 205.767 174.419 205.78C174.592 205.793 174.732 205.817 174.839 205.85V206.6C174.719 206.56 174.582 206.53 174.429 206.51C174.282 206.49 174.132 206.48 173.979 206.48C173.519 206.48 173.135 206.557 172.829 206.71C172.522 206.863 172.279 207.073 172.099 207.34C171.925 207.607 171.799 207.913 171.719 208.26C171.639 208.607 171.589 208.977 171.569 209.37H171.629C171.729 209.21 171.855 209.067 172.009 208.94C172.162 208.813 172.345 208.713 172.559 208.64C172.779 208.567 173.032 208.53 173.319 208.53C173.732 208.53 174.092 208.617 174.399 208.79C174.712 208.957 174.955 209.203 175.129 209.53C175.302 209.85 175.389 210.24 175.389 210.7C175.389 211.193 175.295 211.62 175.109 211.98C174.922 212.34 174.659 212.617 174.319 212.81C173.985 213.003 173.585 213.1 173.119 213.1C172.779 213.1 172.462 213.037 172.169 212.91C171.875 212.783 171.615 212.59 171.389 212.33C171.169 212.07 170.995 211.743 170.869 211.35C170.749 210.95 170.689 210.483 170.689 209.95ZM173.109 212.36C173.529 212.36 173.869 212.227 174.129 211.96C174.389 211.687 174.519 211.267 174.519 210.7C174.519 210.247 174.402 209.887 174.169 209.62C173.942 209.353 173.599 209.22 173.139 209.22C172.825 209.22 172.552 209.287 172.319 209.42C172.085 209.547 171.902 209.71 171.769 209.91C171.642 210.11 171.579 210.317 171.579 210.53C171.579 210.75 171.609 210.967 171.669 211.18C171.735 211.393 171.832 211.59 171.959 211.77C172.092 211.95 172.252 212.093 172.439 212.2C172.632 212.307 172.855 212.36 173.109 212.36Z" fill="black"/>
<rect width="30" height="30" transform="translate(188 194)" fill="#24508F"/>
<path d="M201.249 213L203.929 207.13H200.409V205.86H205.529V206.81L202.829 213H201.249Z" fill="white"/>
<path d="M232.989 205.76C233.409 205.76 233.779 205.827 234.099 205.96C234.419 206.087 234.669 206.277 234.849 206.53C235.035 206.783 235.129 207.097 235.129 207.47C235.129 207.757 235.065 208.007 234.939 208.22C234.819 208.433 234.655 208.623 234.449 208.79C234.242 208.95 234.015 209.093 233.769 209.22C234.062 209.36 234.329 209.52 234.569 209.7C234.809 209.873 234.999 210.077 235.139 210.31C235.285 210.543 235.359 210.823 235.359 211.15C235.359 211.55 235.262 211.897 235.069 212.19C234.875 212.477 234.602 212.7 234.249 212.86C233.902 213.02 233.492 213.1 233.019 213.1C232.505 213.1 232.069 213.023 231.709 212.87C231.355 212.717 231.085 212.5 230.899 212.22C230.719 211.933 230.629 211.587 230.629 211.18C230.629 210.853 230.695 210.57 230.829 210.33C230.969 210.09 231.152 209.883 231.379 209.71C231.605 209.537 231.849 209.39 232.109 209.27C231.875 209.137 231.662 208.987 231.469 208.82C231.282 208.647 231.132 208.45 231.019 208.23C230.912 208.01 230.859 207.753 230.859 207.46C230.859 207.093 230.952 206.787 231.139 206.54C231.325 206.287 231.579 206.093 231.899 205.96C232.219 205.827 232.582 205.76 232.989 205.76ZM231.489 211.19C231.489 211.537 231.612 211.827 231.859 212.06C232.105 212.287 232.485 212.4 232.999 212.4C233.325 212.4 233.599 212.347 233.819 212.24C234.039 212.133 234.205 211.987 234.319 211.8C234.439 211.613 234.499 211.4 234.499 211.16C234.499 210.927 234.435 210.723 234.309 210.55C234.189 210.37 234.015 210.21 233.789 210.07C233.569 209.93 233.305 209.803 232.999 209.69L232.839 209.63C232.545 209.757 232.299 209.893 232.099 210.04C231.899 210.187 231.745 210.353 231.639 210.54C231.539 210.727 231.489 210.943 231.489 211.19ZM232.979 206.47C232.612 206.47 232.309 206.56 232.069 206.74C231.835 206.913 231.719 207.167 231.719 207.5C231.719 207.747 231.775 207.953 231.889 208.12C232.009 208.287 232.169 208.43 232.369 208.55C232.569 208.663 232.789 208.773 233.029 208.88C233.262 208.78 233.469 208.67 233.649 208.55C233.835 208.43 233.982 208.287 234.089 208.12C234.202 207.947 234.259 207.74 234.259 207.5C234.259 207.167 234.142 206.913 233.909 206.74C233.675 206.56 233.365 206.47 232.979 206.47Z" fill="black"/>
<path d="M265.339 208.91C265.339 209.317 265.309 209.723 265.249 210.13C265.195 210.53 265.099 210.91 264.959 211.27C264.819 211.623 264.625 211.94 264.379 212.22C264.132 212.493 263.819 212.71 263.439 212.87C263.059 213.023 262.599 213.1 262.059 213.1C261.925 213.1 261.769 213.09 261.589 213.07C261.415 213.057 261.272 213.033 261.159 213V212.25C261.279 212.29 261.419 212.323 261.579 212.35C261.739 212.37 261.892 212.38 262.039 212.38C262.505 212.38 262.889 212.303 263.189 212.15C263.495 211.997 263.739 211.79 263.919 211.53C264.099 211.263 264.229 210.957 264.309 210.61C264.389 210.257 264.435 209.887 264.449 209.5H264.389C264.289 209.653 264.162 209.793 264.009 209.92C263.855 210.047 263.669 210.147 263.449 210.22C263.235 210.293 262.982 210.33 262.689 210.33C262.282 210.33 261.922 210.247 261.609 210.08C261.302 209.907 261.062 209.66 260.889 209.34C260.722 209.02 260.639 208.63 260.639 208.17C260.639 207.67 260.732 207.24 260.919 206.88C261.112 206.52 261.379 206.243 261.719 206.05C262.059 205.857 262.459 205.76 262.919 205.76C263.259 205.76 263.575 205.827 263.869 205.96C264.162 206.087 264.419 206.28 264.639 206.54C264.859 206.8 265.029 207.127 265.149 207.52C265.275 207.913 265.339 208.377 265.339 208.91ZM262.919 206.5C262.505 206.5 262.165 206.637 261.899 206.91C261.639 207.183 261.509 207.6 261.509 208.16C261.509 208.62 261.619 208.983 261.839 209.25C262.065 209.51 262.412 209.64 262.879 209.64C263.199 209.64 263.475 209.577 263.709 209.45C263.942 209.317 264.122 209.15 264.249 208.95C264.382 208.75 264.449 208.543 264.449 208.33C264.449 208.117 264.415 207.903 264.349 207.69C264.289 207.47 264.195 207.27 264.069 207.09C263.942 206.91 263.782 206.767 263.589 206.66C263.395 206.553 263.172 206.5 262.919 206.5Z" fill="black"/>
<rect x="128.5" y="194.5" width="149" height="29" stroke="#AFB9C3"/>
<rect width="210" height="30" transform="translate(68 224)" fill="white"/>
<rect width="30" height="30" transform="translate(68 224)" fill="white"/>
<path d="M80.8273 243H79.9673V238.01C79.9673 237.817 79.9673 237.653 79.9673 237.52C79.974 237.387 79.9807 237.263 79.9873 237.15C79.994 237.03 80.0007 236.907 80.0073 236.78C79.9007 236.887 79.804 236.977 79.7173 237.05C79.6307 237.123 79.5207 237.217 79.3873 237.33L78.6273 237.95L78.1673 237.36L80.0973 235.86H80.8273V243ZM88.23 239.42C88.23 240 88.1867 240.517 88.1 240.97C88.0133 241.423 87.8733 241.81 87.68 242.13C87.4933 242.443 87.2467 242.683 86.94 242.85C86.64 243.017 86.2767 243.1 85.85 243.1C85.3167 243.1 84.8733 242.953 84.52 242.66C84.1733 242.367 83.9133 241.947 83.74 241.4C83.5733 240.847 83.49 240.187 83.49 239.42C83.49 238.647 83.5667 237.987 83.72 237.44C83.88 236.893 84.1333 236.477 84.48 236.19C84.8267 235.897 85.2833 235.75 85.85 235.75C86.3833 235.75 86.8267 235.897 87.18 236.19C87.5333 236.477 87.7967 236.893 87.97 237.44C88.1433 237.987 88.23 238.647 88.23 239.42ZM84.37 239.42C84.37 240.073 84.4167 240.617 84.51 241.05C84.61 241.483 84.7667 241.81 84.98 242.03C85.2 242.243 85.49 242.35 85.85 242.35C86.21 242.35 86.4967 242.243 86.71 242.03C86.93 241.817 87.09 241.493 87.19 241.06C87.29 240.62 87.34 240.073 87.34 239.42C87.34 238.767 87.29 238.227 87.19 237.8C87.09 237.367 86.93 237.043 86.71 236.83C86.4967 236.61 86.21 236.5 85.85 236.5C85.49 236.5 85.2 236.61 84.98 236.83C84.7667 237.043 84.61 237.367 84.51 237.8C84.4167 238.227 84.37 238.767 84.37 239.42Z" fill="black"/>
<rect width="30" height="30" transform="translate(98 224)" fill="white"/>
<path d="M110.827 243H109.967V238.01C109.967 237.817 109.967 237.653 109.967 237.52C109.974 237.387 109.981 237.263 109.987 237.15C109.994 237.03 110.001 236.907 110.007 236.78C109.901 236.887 109.804 236.977 109.717 237.05C109.631 237.123 109.521 237.217 109.387 237.33L108.627 237.95L108.167 237.36L110.097 235.86H110.827V243ZM116.55 243H115.69V238.01C115.69 237.817 115.69 237.653 115.69 237.52C115.697 237.387 115.703 237.263 115.71 237.15C115.717 237.03 115.723 236.907 115.73 236.78C115.623 236.887 115.527 236.977 115.44 237.05C115.353 237.123 115.243 237.217 115.11 237.33L114.35 237.95L113.89 237.36L115.82 235.86H116.55V243Z" fill="black"/>
<rect width="30" height="30" transform="translate(128 224)" fill="white"/>
<path d="M140.827 243H139.967V238.01C139.967 237.817 139.967 237.653 139.967 237.52C139.974 237.387 139.981 237.263 139.987 237.15C139.994 237.03 140.001 236.907 140.007 236.78C139.901 236.887 139.804 236.977 139.717 237.05C139.631 237.123 139.521 237.217 139.387 237.33L138.627 237.95L138.167 237.36L140.097 235.86H140.827V243ZM148.2 243H143.48V242.27L145.35 240.38C145.71 240.02 146.013 239.7 146.26 239.42C146.507 239.14 146.693 238.867 146.82 238.6C146.947 238.327 147.01 238.03 147.01 237.71C147.01 237.317 146.893 237.02 146.66 236.82C146.427 236.613 146.123 236.51 145.75 236.51C145.403 236.51 145.097 236.57 144.83 236.69C144.57 236.81 144.303 236.977 144.03 237.19L143.56 236.6C143.747 236.44 143.95 236.297 144.17 236.17C144.397 236.043 144.64 235.943 144.9 235.87C145.167 235.797 145.45 235.76 145.75 235.76C146.197 235.76 146.58 235.837 146.9 235.99C147.22 236.143 147.467 236.363 147.64 236.65C147.82 236.93 147.91 237.267 147.91 237.66C147.91 237.94 147.867 238.207 147.78 238.46C147.693 238.707 147.57 238.95 147.41 239.19C147.25 239.43 147.057 239.673 146.83 239.92C146.603 240.167 146.353 240.423 146.08 240.69L144.59 242.16V242.2H148.2V243Z" fill="black"/>
<rect width="30" height="30" transform="translate(158 224)" fill="white"/>
<path d="M170.827 243H169.967V238.01C169.967 237.817 169.967 237.653 169.967 237.52C169.974 237.387 169.981 237.263 169.987 237.15C169.994 237.03 170.001 236.907 170.007 236.78C169.901 236.887 169.804 236.977 169.717 237.05C169.631 237.123 169.521 237.217 169.387 237.33L168.627 237.95L168.167 237.36L170.097 235.86H170.827V243ZM177.93 237.53C177.93 237.85 177.87 238.127 177.75 238.36C177.63 238.593 177.457 238.783 177.23 238.93C177.01 239.077 176.75 239.18 176.45 239.24V239.28C177.023 239.347 177.45 239.527 177.73 239.82C178.01 240.113 178.15 240.497 178.15 240.97C178.15 241.383 178.053 241.753 177.86 242.08C177.667 242.4 177.367 242.65 176.96 242.83C176.56 243.01 176.043 243.1 175.41 243.1C175.037 243.1 174.69 243.07 174.37 243.01C174.05 242.957 173.743 242.857 173.45 242.71V241.89C173.75 242.037 174.073 242.153 174.42 242.24C174.767 242.32 175.1 242.36 175.42 242.36C176.06 242.36 176.52 242.237 176.8 241.99C177.087 241.737 177.23 241.39 177.23 240.95C177.23 240.65 177.15 240.41 176.99 240.23C176.837 240.043 176.61 239.907 176.31 239.82C176.01 239.733 175.65 239.69 175.23 239.69H174.54V238.94H175.24C175.633 238.94 175.96 238.883 176.22 238.77C176.487 238.657 176.687 238.5 176.82 238.3C176.96 238.093 177.03 237.857 177.03 237.59C177.03 237.243 176.913 236.977 176.68 236.79C176.447 236.597 176.13 236.5 175.73 236.5C175.477 236.5 175.247 236.527 175.04 236.58C174.833 236.627 174.64 236.697 174.46 236.79C174.287 236.877 174.11 236.98 173.93 237.1L173.49 236.5C173.663 236.367 173.86 236.243 174.08 236.13C174.307 236.017 174.557 235.927 174.83 235.86C175.103 235.793 175.4 235.76 175.72 235.76C176.467 235.76 177.02 235.927 177.38 236.26C177.747 236.593 177.93 237.017 177.93 237.53Z" fill="black"/>
<rect width="30" height="30" transform="translate(188 224)" fill="white"/>
<path d="M200.827 243H199.967V238.01C199.967 237.817 199.967 237.653 199.967 237.52C199.974 237.387 199.981 237.263 199.987 237.15C199.994 237.03 200.001 236.907 200.007 236.78C199.901 236.887 199.804 236.977 199.717 237.05C199.631 237.123 199.521 237.217 199.387 237.33L198.627 237.95L198.167 237.36L200.097 235.86H200.827V243ZM208.52 241.38H207.48V243H206.63V241.38H203.21V240.63L206.57 235.82H207.48V240.59H208.52V241.38ZM206.63 238.34C206.63 238.167 206.63 238.01 206.63 237.87C206.637 237.723 206.643 237.587 206.65 237.46C206.657 237.333 206.66 237.213 206.66 237.1C206.667 236.98 206.673 236.867 206.68 236.76H206.64C206.587 236.887 206.52 237.023 206.44 237.17C206.36 237.317 206.283 237.44 206.21 237.54L204.07 240.59H206.63V238.34Z" fill="black"/>
<rect width="30" height="30" transform="translate(218 224)" fill="white"/>
<path d="M230.827 243H229.967V238.01C229.967 237.817 229.967 237.653 229.967 237.52C229.974 237.387 229.981 237.263 229.987 237.15C229.994 237.03 230.001 236.907 230.007 236.78C229.901 236.887 229.804 236.977 229.717 237.05C229.631 237.123 229.521 237.217 229.387 237.33L228.627 237.95L228.167 237.36L230.097 235.86H230.827V243ZM235.75 238.62C236.237 238.62 236.66 238.703 237.02 238.87C237.38 239.037 237.657 239.277 237.85 239.59C238.05 239.897 238.15 240.273 238.15 240.72C238.15 241.213 238.043 241.64 237.83 242C237.617 242.353 237.31 242.627 236.91 242.82C236.517 243.007 236.04 243.1 235.48 243.1C235.113 243.1 234.767 243.067 234.44 243C234.12 242.933 233.85 242.837 233.63 242.71V241.88C233.87 242.027 234.16 242.143 234.5 242.23C234.847 242.31 235.177 242.35 235.49 242.35C235.843 242.35 236.15 242.297 236.41 242.19C236.677 242.077 236.883 241.907 237.03 241.68C237.177 241.447 237.25 241.157 237.25 240.81C237.25 240.343 237.107 239.987 236.82 239.74C236.533 239.487 236.08 239.36 235.46 239.36C235.273 239.36 235.06 239.377 234.82 239.41C234.58 239.443 234.387 239.477 234.24 239.51L233.8 239.23L234.07 235.86H237.65V236.66H234.82L234.65 238.73C234.763 238.71 234.917 238.687 235.11 238.66C235.303 238.633 235.517 238.62 235.75 238.62Z" fill="black"/>
<rect width="30" height="30" transform="translate(248 224)" fill="white"/>
<path d="M260.827 243H259.967V238.01C259.967 237.817 259.967 237.653 259.967 237.52C259.974 237.387 259.981 237.263 259.987 237.15C259.994 237.03 260.001 236.907 260.007 236.78C259.901 236.887 259.804 236.977 259.717 237.05C259.631 237.123 259.521 237.217 259.387 237.33L258.627 237.95L258.167 237.36L260.097 235.86H260.827V243ZM263.55 239.95C263.55 239.537 263.577 239.13 263.63 238.73C263.69 238.33 263.79 237.953 263.93 237.6C264.07 237.24 264.263 236.923 264.51 236.65C264.757 236.37 265.067 236.153 265.44 236C265.82 235.84 266.28 235.76 266.82 235.76C266.96 235.76 267.113 235.767 267.28 235.78C267.453 235.793 267.593 235.817 267.7 235.85V236.6C267.58 236.56 267.443 236.53 267.29 236.51C267.143 236.49 266.993 236.48 266.84 236.48C266.38 236.48 265.997 236.557 265.69 236.71C265.383 236.863 265.14 237.073 264.96 237.34C264.787 237.607 264.66 237.913 264.58 238.26C264.5 238.607 264.45 238.977 264.43 239.37H264.49C264.59 239.21 264.717 239.067 264.87 238.94C265.023 238.813 265.207 238.713 265.42 238.64C265.64 238.567 265.893 238.53 266.18 238.53C266.593 238.53 266.953 238.617 267.26 238.79C267.573 238.957 267.817 239.203 267.99 239.53C268.163 239.85 268.25 240.24 268.25 240.7C268.25 241.193 268.157 241.62 267.97 241.98C267.783 242.34 267.52 242.617 267.18 242.81C266.847 243.003 266.447 243.1 265.98 243.1C265.64 243.1 265.323 243.037 265.03 242.91C264.737 242.783 264.477 242.59 264.25 242.33C264.03 242.07 263.857 241.743 263.73 241.35C263.61 240.95 263.55 240.483 263.55 239.95ZM265.97 242.36C266.39 242.36 266.73 242.227 266.99 241.96C267.25 241.687 267.38 241.267 267.38 240.7C267.38 240.247 267.263 239.887 267.03 239.62C266.803 239.353 266.46 239.22 266 239.22C265.687 239.22 265.413 239.287 265.18 239.42C264.947 239.547 264.763 239.71 264.63 239.91C264.503 240.11 264.44 240.317 264.44 240.53C264.44 240.75 264.47 240.967 264.53 241.18C264.597 241.393 264.693 241.59 264.82 241.77C264.953 241.95 265.113 242.093 265.3 242.2C265.493 242.307 265.717 242.36 265.97 242.36Z" fill="black"/>
<rect width="210" height="30" transform="translate(68 254)" fill="white"/>
<rect width="30" height="30" transform="translate(68 254)" fill="white"/>
<path d="M80.8273 273H79.9673V268.01C79.9673 267.817 79.9673 267.653 79.9673 267.52C79.974 267.387 79.9807 267.263 79.9873 267.15C79.994 267.03 80.0007 266.907 80.0073 266.78C79.9007 266.887 79.804 266.977 79.7173 267.05C79.6307 267.123 79.5207 267.217 79.3873 267.33L78.6273 267.95L78.1673 267.36L80.0973 265.86H80.8273V273ZM84.36 273L87.29 266.66H83.44V265.86H88.23V266.54L85.33 273H84.36Z" fill="black"/>
<rect width="30" height="30" transform="translate(98 254)" fill="white"/>
<path d="M110.827 273H109.967V268.01C109.967 267.817 109.967 267.653 109.967 267.52C109.974 267.387 109.981 267.263 109.987 267.15C109.994 267.03 110.001 266.907 110.007 266.78C109.901 266.887 109.804 266.977 109.717 267.05C109.631 267.123 109.521 267.217 109.387 267.33L108.627 267.95L108.167 267.36L110.097 265.86H110.827V273ZM115.85 265.76C116.27 265.76 116.64 265.827 116.96 265.96C117.28 266.087 117.53 266.277 117.71 266.53C117.897 266.783 117.99 267.097 117.99 267.47C117.99 267.757 117.927 268.007 117.8 268.22C117.68 268.433 117.517 268.623 117.31 268.79C117.103 268.95 116.877 269.093 116.63 269.22C116.923 269.36 117.19 269.52 117.43 269.7C117.67 269.873 117.86 270.077 118 270.31C118.147 270.543 118.22 270.823 118.22 271.15C118.22 271.55 118.123 271.897 117.93 272.19C117.737 272.477 117.463 272.7 117.11 272.86C116.763 273.02 116.353 273.1 115.88 273.1C115.367 273.1 114.93 273.023 114.57 272.87C114.217 272.717 113.947 272.5 113.76 272.22C113.58 271.933 113.49 271.587 113.49 271.18C113.49 270.853 113.557 270.57 113.69 270.33C113.83 270.09 114.013 269.883 114.24 269.71C114.467 269.537 114.71 269.39 114.97 269.27C114.737 269.137 114.523 268.987 114.33 268.82C114.143 268.647 113.993 268.45 113.88 268.23C113.773 268.01 113.72 267.753 113.72 267.46C113.72 267.093 113.813 266.787 114 266.54C114.187 266.287 114.44 266.093 114.76 265.96C115.08 265.827 115.443 265.76 115.85 265.76ZM114.35 271.19C114.35 271.537 114.473 271.827 114.72 272.06C114.967 272.287 115.347 272.4 115.86 272.4C116.187 272.4 116.46 272.347 116.68 272.24C116.9 272.133 117.067 271.987 117.18 271.8C117.3 271.613 117.36 271.4 117.36 271.16C117.36 270.927 117.297 270.723 117.17 270.55C117.05 270.37 116.877 270.21 116.65 270.07C116.43 269.93 116.167 269.803 115.86 269.69L115.7 269.63C115.407 269.757 115.16 269.893 114.96 270.04C114.76 270.187 114.607 270.353 114.5 270.54C114.4 270.727 114.35 270.943 114.35 271.19ZM115.84 266.47C115.473 266.47 115.17 266.56 114.93 266.74C114.697 266.913 114.58 267.167 114.58 267.5C114.58 267.747 114.637 267.953 114.75 268.12C114.87 268.287 115.03 268.43 115.23 268.55C115.43 268.663 115.65 268.773 115.89 268.88C116.123 268.78 116.33 268.67 116.51 268.55C116.697 268.43 116.843 268.287 116.95 268.12C117.063 267.947 117.12 267.74 117.12 267.5C117.12 267.167 117.003 266.913 116.77 266.74C116.537 266.56 116.227 266.47 115.84 266.47Z" fill="black"/>
<rect width="30" height="30" transform="translate(128 254)" fill="white"/>
<path d="M140.827 273H139.967V268.01C139.967 267.817 139.967 267.653 139.967 267.52C139.974 267.387 139.981 267.263 139.987 267.15C139.994 267.03 140.001 266.907 140.007 266.78C139.901 266.887 139.804 266.977 139.717 267.05C139.631 267.123 139.521 267.217 139.387 267.33L138.627 267.95L138.167 267.36L140.097 265.86H140.827V273ZM148.2 268.91C148.2 269.317 148.17 269.723 148.11 270.13C148.057 270.53 147.96 270.91 147.82 271.27C147.68 271.623 147.487 271.94 147.24 272.22C146.993 272.493 146.68 272.71 146.3 272.87C145.92 273.023 145.46 273.1 144.92 273.1C144.787 273.1 144.63 273.09 144.45 273.07C144.277 273.057 144.133 273.033 144.02 273V272.25C144.14 272.29 144.28 272.323 144.44 272.35C144.6 272.37 144.753 272.38 144.9 272.38C145.367 272.38 145.75 272.303 146.05 272.15C146.357 271.997 146.6 271.79 146.78 271.53C146.96 271.263 147.09 270.957 147.17 270.61C147.25 270.257 147.297 269.887 147.31 269.5H147.25C147.15 269.653 147.023 269.793 146.87 269.92C146.717 270.047 146.53 270.147 146.31 270.22C146.097 270.293 145.843 270.33 145.55 270.33C145.143 270.33 144.783 270.247 144.47 270.08C144.163 269.907 143.923 269.66 143.75 269.34C143.583 269.02 143.5 268.63 143.5 268.17C143.5 267.67 143.593 267.24 143.78 266.88C143.973 266.52 144.24 266.243 144.58 266.05C144.92 265.857 145.32 265.76 145.78 265.76C146.12 265.76 146.437 265.827 146.73 265.96C147.023 266.087 147.28 266.28 147.5 266.54C147.72 266.8 147.89 267.127 148.01 267.52C148.137 267.913 148.2 268.377 148.2 268.91ZM145.78 266.5C145.367 266.5 145.027 266.637 144.76 266.91C144.5 267.183 144.37 267.6 144.37 268.16C144.37 268.62 144.48 268.983 144.7 269.25C144.927 269.51 145.273 269.64 145.74 269.64C146.06 269.64 146.337 269.577 146.57 269.45C146.803 269.317 146.983 269.15 147.11 268.95C147.243 268.75 147.31 268.543 147.31 268.33C147.31 268.117 147.277 267.903 147.21 267.69C147.15 267.47 147.057 267.27 146.93 267.09C146.803 266.91 146.643 266.767 146.45 266.66C146.257 266.553 146.033 266.5 145.78 266.5Z" fill="black"/>
<rect width="30" height="30" transform="translate(158 254)" fill="white"/>
<path d="M172.477 273H167.757V272.27L169.627 270.38C169.987 270.02 170.291 269.7 170.537 269.42C170.784 269.14 170.971 268.867 171.097 268.6C171.224 268.327 171.287 268.03 171.287 267.71C171.287 267.317 171.171 267.02 170.937 266.82C170.704 266.613 170.401 266.51 170.027 266.51C169.681 266.51 169.374 266.57 169.107 266.69C168.847 266.81 168.581 266.977 168.307 267.19L167.837 266.6C168.024 266.44 168.227 266.297 168.447 266.17C168.674 266.043 168.917 265.943 169.177 265.87C169.444 265.797 169.727 265.76 170.027 265.76C170.474 265.76 170.857 265.837 171.177 265.99C171.497 266.143 171.744 266.363 171.917 266.65C172.097 266.93 172.187 267.267 172.187 267.66C172.187 267.94 172.144 268.207 172.057 268.46C171.971 268.707 171.847 268.95 171.687 269.19C171.527 269.43 171.334 269.673 171.107 269.92C170.881 270.167 170.631 270.423 170.357 270.69L168.867 272.16V272.2H172.477V273ZM178.23 269.42C178.23 270 178.187 270.517 178.1 270.97C178.013 271.423 177.873 271.81 177.68 272.13C177.493 272.443 177.247 272.683 176.94 272.85C176.64 273.017 176.277 273.1 175.85 273.1C175.317 273.1 174.873 272.953 174.52 272.66C174.173 272.367 173.913 271.947 173.74 271.4C173.573 270.847 173.49 270.187 173.49 269.42C173.49 268.647 173.567 267.987 173.72 267.44C173.88 266.893 174.133 266.477 174.48 266.19C174.827 265.897 175.283 265.75 175.85 265.75C176.383 265.75 176.827 265.897 177.18 266.19C177.533 266.477 177.797 266.893 177.97 267.44C178.143 267.987 178.23 268.647 178.23 269.42ZM174.37 269.42C174.37 270.073 174.417 270.617 174.51 271.05C174.61 271.483 174.767 271.81 174.98 272.03C175.2 272.243 175.49 272.35 175.85 272.35C176.21 272.35 176.497 272.243 176.71 272.03C176.93 271.817 177.09 271.493 177.19 271.06C177.29 270.62 177.34 270.073 177.34 269.42C177.34 268.767 177.29 268.227 177.19 267.8C177.09 267.367 176.93 267.043 176.71 266.83C176.497 266.61 176.21 266.5 175.85 266.5C175.49 266.5 175.2 266.61 174.98 266.83C174.767 267.043 174.61 267.367 174.51 267.8C174.417 268.227 174.37 268.767 174.37 269.42Z" fill="black"/>
<rect width="30" height="30" transform="translate(188 254)" fill="white"/>
<path d="M202.477 273H197.757V272.27L199.627 270.38C199.987 270.02 200.291 269.7 200.537 269.42C200.784 269.14 200.971 268.867 201.097 268.6C201.224 268.327 201.287 268.03 201.287 267.71C201.287 267.317 201.171 267.02 200.937 266.82C200.704 266.613 200.401 266.51 200.027 266.51C199.681 266.51 199.374 266.57 199.107 266.69C198.847 266.81 198.581 266.977 198.307 267.19L197.837 266.6C198.024 266.44 198.227 266.297 198.447 266.17C198.674 266.043 198.917 265.943 199.177 265.87C199.444 265.797 199.727 265.76 200.027 265.76C200.474 265.76 200.857 265.837 201.177 265.99C201.497 266.143 201.744 266.363 201.917 266.65C202.097 266.93 202.187 267.267 202.187 267.66C202.187 267.94 202.144 268.207 202.057 268.46C201.971 268.707 201.847 268.95 201.687 269.19C201.527 269.43 201.334 269.673 201.107 269.92C200.881 270.167 200.631 270.423 200.357 270.69L198.867 272.16V272.2H202.477V273ZM206.55 273H205.69V268.01C205.69 267.817 205.69 267.653 205.69 267.52C205.697 267.387 205.703 267.263 205.71 267.15C205.717 267.03 205.723 266.907 205.73 266.78C205.623 266.887 205.527 266.977 205.44 267.05C205.353 267.123 205.243 267.217 205.11 267.33L204.35 267.95L203.89 267.36L205.82 265.86H206.55V273Z" fill="black"/>
<rect width="30" height="30" transform="translate(218 254)" fill="white"/>
<path d="M232.477 273H227.757V272.27L229.627 270.38C229.987 270.02 230.291 269.7 230.537 269.42C230.784 269.14 230.971 268.867 231.097 268.6C231.224 268.327 231.287 268.03 231.287 267.71C231.287 267.317 231.171 267.02 230.937 266.82C230.704 266.613 230.401 266.51 230.027 266.51C229.681 266.51 229.374 266.57 229.107 266.69C228.847 266.81 228.581 266.977 228.307 267.19L227.837 266.6C228.024 266.44 228.227 266.297 228.447 266.17C228.674 266.043 228.917 265.943 229.177 265.87C229.444 265.797 229.727 265.76 230.027 265.76C230.474 265.76 230.857 265.837 231.177 265.99C231.497 266.143 231.744 266.363 231.917 266.65C232.097 266.93 232.187 267.267 232.187 267.66C232.187 267.94 232.144 268.207 232.057 268.46C231.971 268.707 231.847 268.95 231.687 269.19C231.527 269.43 231.334 269.673 231.107 269.92C230.881 270.167 230.631 270.423 230.357 270.69L228.867 272.16V272.2H232.477V273ZM238.2 273H233.48V272.27L235.35 270.38C235.71 270.02 236.013 269.7 236.26 269.42C236.507 269.14 236.693 268.867 236.82 268.6C236.947 268.327 237.01 268.03 237.01 267.71C237.01 267.317 236.893 267.02 236.66 266.82C236.427 266.613 236.123 266.51 235.75 266.51C235.403 266.51 235.097 266.57 234.83 266.69C234.57 266.81 234.303 266.977 234.03 267.19L233.56 266.6C233.747 266.44 233.95 266.297 234.17 266.17C234.397 266.043 234.64 265.943 234.9 265.87C235.167 265.797 235.45 265.76 235.75 265.76C236.197 265.76 236.58 265.837 236.9 265.99C237.22 266.143 237.467 266.363 237.64 266.65C237.82 266.93 237.91 267.267 237.91 267.66C237.91 267.94 237.867 268.207 237.78 268.46C237.693 268.707 237.57 268.95 237.41 269.19C237.25 269.43 237.057 269.673 236.83 269.92C236.603 270.167 236.353 270.423 236.08 270.69L234.59 272.16V272.2H238.2V273Z" fill="black"/>
<rect width="30" height="30" transform="translate(248 254)" fill="white"/>
<path d="M262.477 273H257.757V272.27L259.627 270.38C259.987 270.02 260.291 269.7 260.537 269.42C260.784 269.14 260.971 268.867 261.097 268.6C261.224 268.327 261.287 268.03 261.287 267.71C261.287 267.317 261.171 267.02 260.937 266.82C260.704 266.613 260.401 266.51 260.027 266.51C259.681 266.51 259.374 266.57 259.107 266.69C258.847 266.81 258.581 266.977 258.307 267.19L257.837 266.6C258.024 266.44 258.227 266.297 258.447 266.17C258.674 266.043 258.917 265.943 259.177 265.87C259.444 265.797 259.727 265.76 260.027 265.76C260.474 265.76 260.857 265.837 261.177 265.99C261.497 266.143 261.744 266.363 261.917 266.65C262.097 266.93 262.187 267.267 262.187 267.66C262.187 267.94 262.144 268.207 262.057 268.46C261.971 268.707 261.847 268.95 261.687 269.19C261.527 269.43 261.334 269.673 261.107 269.92C260.881 270.167 260.631 270.423 260.357 270.69L258.867 272.16V272.2H262.477V273ZM267.93 267.53C267.93 267.85 267.87 268.127 267.75 268.36C267.63 268.593 267.457 268.783 267.23 268.93C267.01 269.077 266.75 269.18 266.45 269.24V269.28C267.023 269.347 267.45 269.527 267.73 269.82C268.01 270.113 268.15 270.497 268.15 270.97C268.15 271.383 268.053 271.753 267.86 272.08C267.667 272.4 267.367 272.65 266.96 272.83C266.56 273.01 266.043 273.1 265.41 273.1C265.037 273.1 264.69 273.07 264.37 273.01C264.05 272.957 263.743 272.857 263.45 272.71V271.89C263.75 272.037 264.073 272.153 264.42 272.24C264.767 272.32 265.1 272.36 265.42 272.36C266.06 272.36 266.52 272.237 266.8 271.99C267.087 271.737 267.23 271.39 267.23 270.95C267.23 270.65 267.15 270.41 266.99 270.23C266.837 270.043 266.61 269.907 266.31 269.82C266.01 269.733 265.65 269.69 265.23 269.69H264.54V268.94H265.24C265.633 268.94 265.96 268.883 266.22 268.77C266.487 268.657 266.687 268.5 266.82 268.3C266.96 268.093 267.03 267.857 267.03 267.59C267.03 267.243 266.913 266.977 266.68 266.79C266.447 266.597 266.13 266.5 265.73 266.5C265.477 266.5 265.247 266.527 265.04 266.58C264.833 266.627 264.64 266.697 264.46 266.79C264.287 266.877 264.11 266.98 263.93 267.1L263.49 266.5C263.663 266.367 263.86 266.243 264.08 266.13C264.307 266.017 264.557 265.927 264.83 265.86C265.103 265.793 265.4 265.76 265.72 265.76C266.467 265.76 267.02 265.927 267.38 266.26C267.747 266.593 267.93 267.017 267.93 267.53Z" fill="black"/>
<rect x="68.5" y="104.5" width="209" height="179" stroke="#AFB9C3"/>
<rect x="288.5" y="104.5" width="159" height="54" fill="#F0F2F5"/>
<path d="M296.23 123H295.33V116.65H293.1V115.86H298.45V116.65H296.23V123ZM300.287 117.63C300.287 117.757 300.28 117.887 300.267 118.02C300.26 118.153 300.25 118.273 300.237 118.38H300.297C300.41 118.193 300.553 118.04 300.727 117.92C300.9 117.8 301.093 117.71 301.307 117.65C301.52 117.583 301.74 117.55 301.967 117.55C302.4 117.55 302.76 117.62 303.047 117.76C303.34 117.893 303.56 118.103 303.707 118.39C303.853 118.677 303.927 119.05 303.927 119.51V123H303.057V119.57C303.057 119.137 302.96 118.813 302.767 118.6C302.573 118.387 302.27 118.28 301.857 118.28C301.457 118.28 301.143 118.357 300.917 118.51C300.69 118.657 300.527 118.877 300.427 119.17C300.333 119.457 300.287 119.81 300.287 120.23V123H299.407V115.4H300.287V117.63ZM310.068 117.64V123H309.348L309.218 122.29H309.178C309.065 122.477 308.918 122.63 308.738 122.75C308.558 122.87 308.362 122.957 308.148 123.01C307.935 123.07 307.712 123.1 307.478 123.1C307.052 123.1 306.692 123.033 306.398 122.9C306.112 122.76 305.895 122.547 305.748 122.26C305.602 121.973 305.528 121.603 305.528 121.15V117.64H306.418V121.09C306.418 121.517 306.515 121.837 306.708 122.05C306.902 122.263 307.202 122.37 307.608 122.37C308.008 122.37 308.322 122.297 308.548 122.15C308.782 121.997 308.945 121.777 309.038 121.49C309.138 121.197 309.188 120.843 309.188 120.43V117.64H310.068ZM314.27 117.54C314.37 117.54 314.477 117.547 314.59 117.56C314.71 117.567 314.813 117.58 314.9 117.6L314.79 118.41C314.703 118.39 314.607 118.373 314.5 118.36C314.4 118.347 314.303 118.34 314.21 118.34C314.003 118.34 313.807 118.383 313.62 118.47C313.433 118.557 313.267 118.68 313.12 118.84C312.973 118.993 312.857 119.18 312.77 119.4C312.69 119.62 312.65 119.867 312.65 120.14V123H311.77V117.64H312.49L312.59 118.62H312.63C312.743 118.42 312.88 118.24 313.04 118.08C313.2 117.913 313.383 117.783 313.59 117.69C313.797 117.59 314.023 117.54 314.27 117.54ZM319.391 121.52C319.391 121.867 319.304 122.157 319.131 122.39C318.957 122.623 318.711 122.8 318.391 122.92C318.071 123.04 317.691 123.1 317.251 123.1C316.877 123.1 316.554 123.07 316.281 123.01C316.014 122.95 315.777 122.867 315.571 122.76V121.96C315.784 122.067 316.041 122.167 316.341 122.26C316.647 122.347 316.957 122.39 317.271 122.39C317.717 122.39 318.041 122.32 318.241 122.18C318.441 122.033 318.541 121.84 318.541 121.6C318.541 121.467 318.504 121.347 318.431 121.24C318.357 121.133 318.224 121.027 318.031 120.92C317.844 120.813 317.574 120.693 317.221 120.56C316.874 120.427 316.577 120.293 316.331 120.16C316.084 120.027 315.894 119.867 315.761 119.68C315.627 119.493 315.561 119.253 315.561 118.96C315.561 118.507 315.744 118.157 316.111 117.91C316.484 117.663 316.971 117.54 317.571 117.54C317.897 117.54 318.201 117.573 318.481 117.64C318.767 117.7 319.034 117.787 319.281 117.9L318.981 118.6C318.834 118.533 318.677 118.477 318.511 118.43C318.351 118.377 318.187 118.337 318.021 118.31C317.854 118.277 317.684 118.26 317.511 118.26C317.151 118.26 316.874 118.32 316.681 118.44C316.494 118.553 316.401 118.71 316.401 118.91C316.401 119.057 316.444 119.183 316.531 119.29C316.617 119.39 316.761 119.49 316.961 119.59C317.167 119.683 317.441 119.797 317.781 119.93C318.121 120.057 318.411 120.187 318.651 120.32C318.891 120.453 319.074 120.617 319.201 120.81C319.327 120.997 319.391 121.233 319.391 121.52ZM322.586 123.1C321.919 123.1 321.386 122.87 320.986 122.41C320.586 121.943 320.386 121.25 320.386 120.33C320.386 119.41 320.586 118.717 320.986 118.25C321.393 117.777 321.929 117.54 322.596 117.54C322.876 117.54 323.119 117.577 323.326 117.65C323.533 117.717 323.713 117.81 323.866 117.93C324.019 118.05 324.149 118.183 324.256 118.33H324.316C324.309 118.243 324.296 118.117 324.276 117.95C324.263 117.777 324.256 117.64 324.256 117.54V115.4H325.136V123H324.426L324.296 122.28H324.256C324.149 122.433 324.019 122.573 323.866 122.7C323.713 122.82 323.529 122.917 323.316 122.99C323.109 123.063 322.866 123.1 322.586 123.1ZM322.726 122.37C323.293 122.37 323.689 122.217 323.916 121.91C324.149 121.597 324.266 121.127 324.266 120.5V120.34C324.266 119.673 324.156 119.163 323.936 118.81C323.716 118.45 323.309 118.27 322.716 118.27C322.243 118.27 321.886 118.46 321.646 118.84C321.413 119.213 321.296 119.717 321.296 120.35C321.296 120.99 321.413 121.487 321.646 121.84C321.886 122.193 322.246 122.37 322.726 122.37ZM328.868 117.55C329.522 117.55 330.005 117.693 330.318 117.98C330.632 118.267 330.788 118.723 330.788 119.35V123H330.148L329.978 122.24H329.938C329.785 122.433 329.625 122.597 329.458 122.73C329.298 122.857 329.112 122.95 328.898 123.01C328.692 123.07 328.438 123.1 328.138 123.1C327.818 123.1 327.528 123.043 327.268 122.93C327.015 122.817 326.815 122.643 326.668 122.41C326.522 122.17 326.448 121.87 326.448 121.51C326.448 120.977 326.658 120.567 327.078 120.28C327.498 119.987 328.145 119.827 329.018 119.8L329.928 119.77V119.45C329.928 119.003 329.832 118.693 329.638 118.52C329.445 118.347 329.172 118.26 328.818 118.26C328.538 118.26 328.272 118.303 328.018 118.39C327.765 118.47 327.528 118.563 327.308 118.67L327.038 118.01C327.272 117.883 327.548 117.777 327.868 117.69C328.188 117.597 328.522 117.55 328.868 117.55ZM329.128 120.41C328.462 120.437 327.998 120.543 327.738 120.73C327.485 120.917 327.358 121.18 327.358 121.52C327.358 121.82 327.448 122.04 327.628 122.18C327.815 122.32 328.052 122.39 328.338 122.39C328.792 122.39 329.168 122.267 329.468 122.02C329.768 121.767 329.918 121.38 329.918 120.86V120.38L329.128 120.41ZM331.604 117.64H332.544L333.704 120.69C333.77 120.87 333.83 121.043 333.884 121.21C333.944 121.377 333.997 121.54 334.044 121.7C334.09 121.853 334.127 122.003 334.154 122.15H334.194C334.234 121.983 334.297 121.767 334.384 121.5C334.47 121.227 334.56 120.953 334.654 120.68L335.744 117.64H336.694L334.384 123.74C334.257 124.073 334.107 124.363 333.934 124.61C333.767 124.863 333.56 125.057 333.314 125.19C333.074 125.33 332.78 125.4 332.434 125.4C332.274 125.4 332.134 125.39 332.014 125.37C331.894 125.357 331.79 125.34 331.704 125.32V124.62C331.777 124.633 331.864 124.647 331.964 124.66C332.07 124.673 332.18 124.68 332.294 124.68C332.5 124.68 332.677 124.64 332.824 124.56C332.977 124.487 333.107 124.377 333.214 124.23C333.32 124.09 333.41 123.923 333.484 123.73L333.764 123.02L331.604 117.64ZM338.211 121.95C338.151 122.183 338.074 122.437 337.981 122.71C337.888 122.983 337.784 123.253 337.671 123.52C337.564 123.793 337.458 124.05 337.351 124.29H336.701C336.768 124.037 336.831 123.763 336.891 123.47C336.958 123.183 337.018 122.9 337.071 122.62C337.124 122.333 337.168 122.073 337.201 121.84H338.141L338.211 121.95ZM341.524 124.9C341.364 124.9 341.224 124.887 341.104 124.86C340.984 124.84 340.878 124.81 340.784 124.77V124.01C340.891 124.037 341.004 124.06 341.124 124.08C341.244 124.1 341.371 124.11 341.504 124.11C341.671 124.11 341.828 124.077 341.974 124.01C342.128 123.943 342.251 123.827 342.344 123.66C342.438 123.493 342.484 123.26 342.484 122.96V115.86H343.384V122.89C343.384 123.35 343.308 123.727 343.154 124.02C343.001 124.32 342.784 124.54 342.504 124.68C342.224 124.827 341.898 124.9 341.524 124.9ZM347.179 117.55C347.832 117.55 348.315 117.693 348.629 117.98C348.942 118.267 349.099 118.723 349.099 119.35V123H348.459L348.289 122.24H348.249C348.095 122.433 347.935 122.597 347.769 122.73C347.609 122.857 347.422 122.95 347.209 123.01C347.002 123.07 346.749 123.1 346.449 123.1C346.129 123.1 345.839 123.043 345.579 122.93C345.325 122.817 345.125 122.643 344.979 122.41C344.832 122.17 344.759 121.87 344.759 121.51C344.759 120.977 344.969 120.567 345.389 120.28C345.809 119.987 346.455 119.827 347.329 119.8L348.239 119.77V119.45C348.239 119.003 348.142 118.693 347.949 118.52C347.755 118.347 347.482 118.26 347.129 118.26C346.849 118.26 346.582 118.303 346.329 118.39C346.075 118.47 345.839 118.563 345.619 118.67L345.349 118.01C345.582 117.883 345.859 117.777 346.179 117.69C346.499 117.597 346.832 117.55 347.179 117.55ZM347.439 120.41C346.772 120.437 346.309 120.543 346.049 120.73C345.795 120.917 345.669 121.18 345.669 121.52C345.669 121.82 345.759 122.04 345.939 122.18C346.125 122.32 346.362 122.39 346.649 122.39C347.102 122.39 347.479 122.267 347.779 122.02C348.079 121.767 348.229 121.38 348.229 120.86V120.38L347.439 120.41ZM353.334 117.54C353.974 117.54 354.458 117.697 354.784 118.01C355.111 118.317 355.274 118.817 355.274 119.51V123H354.404V119.57C354.404 119.137 354.308 118.813 354.114 118.6C353.921 118.387 353.618 118.28 353.204 118.28C352.611 118.28 352.201 118.447 351.974 118.78C351.748 119.113 351.634 119.593 351.634 120.22V123H350.754V117.64H351.464L351.594 118.37H351.644C351.764 118.183 351.911 118.03 352.084 117.91C352.264 117.783 352.461 117.69 352.674 117.63C352.888 117.57 353.108 117.54 353.334 117.54ZM361.416 117.64V123H360.696L360.566 122.29H360.526C360.413 122.477 360.266 122.63 360.086 122.75C359.906 122.87 359.709 122.957 359.496 123.01C359.283 123.07 359.059 123.1 358.826 123.1C358.399 123.1 358.039 123.033 357.746 122.9C357.459 122.76 357.243 122.547 357.096 122.26C356.949 121.973 356.876 121.603 356.876 121.15V117.64H357.766V121.09C357.766 121.517 357.863 121.837 358.056 122.05C358.249 122.263 358.549 122.37 358.956 122.37C359.356 122.37 359.669 122.297 359.896 122.15C360.129 121.997 360.293 121.777 360.386 121.49C360.486 121.197 360.536 120.843 360.536 120.43V117.64H361.416ZM365.148 117.55C365.801 117.55 366.284 117.693 366.598 117.98C366.911 118.267 367.068 118.723 367.068 119.35V123H366.428L366.258 122.24H366.218C366.064 122.433 365.904 122.597 365.738 122.73C365.578 122.857 365.391 122.95 365.178 123.01C364.971 123.07 364.718 123.1 364.418 123.1C364.098 123.1 363.808 123.043 363.548 122.93C363.294 122.817 363.094 122.643 362.948 122.41C362.801 122.17 362.728 121.87 362.728 121.51C362.728 120.977 362.938 120.567 363.358 120.28C363.778 119.987 364.424 119.827 365.298 119.8L366.208 119.77V119.45C366.208 119.003 366.111 118.693 365.918 118.52C365.724 118.347 365.451 118.26 365.098 118.26C364.818 118.26 364.551 118.303 364.298 118.39C364.044 118.47 363.808 118.563 363.588 118.67L363.318 118.01C363.551 117.883 363.828 117.777 364.148 117.69C364.468 117.597 364.801 117.55 365.148 117.55ZM365.408 120.41C364.741 120.437 364.278 120.543 364.018 120.73C363.764 120.917 363.638 121.18 363.638 121.52C363.638 121.82 363.728 122.04 363.908 122.18C364.094 122.32 364.331 122.39 364.618 122.39C365.071 122.39 365.448 122.267 365.748 122.02C366.048 121.767 366.198 121.38 366.198 120.86V120.38L365.408 120.41ZM371.223 117.54C371.323 117.54 371.43 117.547 371.543 117.56C371.663 117.567 371.766 117.58 371.853 117.6L371.743 118.41C371.656 118.39 371.56 118.373 371.453 118.36C371.353 118.347 371.256 118.34 371.163 118.34C370.956 118.34 370.76 118.383 370.573 118.47C370.386 118.557 370.22 118.68 370.073 118.84C369.926 118.993 369.81 119.18 369.723 119.4C369.643 119.62 369.603 119.867 369.603 120.14V123H368.723V117.64H369.443L369.543 118.62H369.583C369.696 118.42 369.833 118.24 369.993 118.08C370.153 117.913 370.336 117.783 370.543 117.69C370.75 117.59 370.976 117.54 371.223 117.54ZM372.014 117.64H372.954L374.114 120.69C374.181 120.87 374.241 121.043 374.294 121.21C374.354 121.377 374.407 121.54 374.454 121.7C374.501 121.853 374.537 122.003 374.564 122.15H374.604C374.644 121.983 374.707 121.767 374.794 121.5C374.881 121.227 374.971 120.953 375.064 120.68L376.154 117.64H377.104L374.794 123.74C374.667 124.073 374.517 124.363 374.344 124.61C374.177 124.863 373.971 125.057 373.724 125.19C373.484 125.33 373.191 125.4 372.844 125.4C372.684 125.4 372.544 125.39 372.424 125.37C372.304 125.357 372.201 125.34 372.114 125.32V124.62C372.187 124.633 372.274 124.647 372.374 124.66C372.481 124.673 372.591 124.68 372.704 124.68C372.911 124.68 373.087 124.64 373.234 124.56C373.387 124.487 373.517 124.377 373.624 124.23C373.731 124.09 373.821 123.923 373.894 123.73L374.174 123.02L372.014 117.64ZM381.059 123L383.989 116.66H380.139V115.86H384.929V116.54L382.029 123H381.059ZM393.22 123H388.5V122.27L390.37 120.38C390.73 120.02 391.033 119.7 391.28 119.42C391.526 119.14 391.713 118.867 391.84 118.6C391.966 118.327 392.03 118.03 392.03 117.71C392.03 117.317 391.913 117.02 391.68 116.82C391.446 116.613 391.143 116.51 390.77 116.51C390.423 116.51 390.116 116.57 389.85 116.69C389.59 116.81 389.323 116.977 389.05 117.19L388.58 116.6C388.766 116.44 388.97 116.297 389.19 116.17C389.416 116.043 389.66 115.943 389.92 115.87C390.186 115.797 390.47 115.76 390.77 115.76C391.216 115.76 391.6 115.837 391.92 115.99C392.24 116.143 392.486 116.363 392.66 116.65C392.84 116.93 392.93 117.267 392.93 117.66C392.93 117.94 392.886 118.207 392.8 118.46C392.713 118.707 392.59 118.95 392.43 119.19C392.27 119.43 392.076 119.673 391.85 119.92C391.623 120.167 391.373 120.423 391.1 120.69L389.61 122.16V122.2H393.22V123ZM398.972 119.42C398.972 120 398.929 120.517 398.842 120.97C398.756 121.423 398.616 121.81 398.422 122.13C398.236 122.443 397.989 122.683 397.682 122.85C397.382 123.017 397.019 123.1 396.592 123.1C396.059 123.1 395.616 122.953 395.262 122.66C394.916 122.367 394.656 121.947 394.482 121.4C394.316 120.847 394.232 120.187 394.232 119.42C394.232 118.647 394.309 117.987 394.462 117.44C394.622 116.893 394.876 116.477 395.222 116.19C395.569 115.897 396.026 115.75 396.592 115.75C397.126 115.75 397.569 115.897 397.922 116.19C398.276 116.477 398.539 116.893 398.712 117.44C398.886 117.987 398.972 118.647 398.972 119.42ZM395.112 119.42C395.112 120.073 395.159 120.617 395.252 121.05C395.352 121.483 395.509 121.81 395.722 122.03C395.942 122.243 396.232 122.35 396.592 122.35C396.952 122.35 397.239 122.243 397.452 122.03C397.672 121.817 397.832 121.493 397.932 121.06C398.032 120.62 398.082 120.073 398.082 119.42C398.082 118.767 398.032 118.227 397.932 117.8C397.832 117.367 397.672 117.043 397.452 116.83C397.239 116.61 396.952 116.5 396.592 116.5C396.232 116.5 395.942 116.61 395.722 116.83C395.509 117.043 395.352 117.367 395.252 117.8C395.159 118.227 395.112 118.767 395.112 119.42ZM404.665 123H399.945V122.27L401.815 120.38C402.175 120.02 402.478 119.7 402.725 119.42C402.972 119.14 403.158 118.867 403.285 118.6C403.412 118.327 403.475 118.03 403.475 117.71C403.475 117.317 403.358 117.02 403.125 116.82C402.892 116.613 402.588 116.51 402.215 116.51C401.868 116.51 401.562 116.57 401.295 116.69C401.035 116.81 400.768 116.977 400.495 117.19L400.025 116.6C400.212 116.44 400.415 116.297 400.635 116.17C400.862 116.043 401.105 115.943 401.365 115.87C401.632 115.797 401.915 115.76 402.215 115.76C402.662 115.76 403.045 115.837 403.365 115.99C403.685 116.143 403.932 116.363 404.105 116.65C404.285 116.93 404.375 117.267 404.375 117.66C404.375 117.94 404.332 118.207 404.245 118.46C404.158 118.707 404.035 118.95 403.875 119.19C403.715 119.43 403.522 119.673 403.295 119.92C403.068 120.167 402.818 120.423 402.545 120.69L401.055 122.16V122.2H404.665V123ZM408.738 123H407.878V118.01C407.878 117.817 407.878 117.653 407.878 117.52C407.884 117.387 407.891 117.263 407.898 117.15C407.904 117.03 407.911 116.907 407.918 116.78C407.811 116.887 407.714 116.977 407.628 117.05C407.541 117.123 407.431 117.217 407.298 117.33L406.538 117.95L406.078 117.36L408.008 115.86H408.738V123Z" fill="black"/>
<rect x="293.5" y="134.5" width="149" height="19" fill="white"/>
<path d="M303.2 143.91C303.2 144.317 303.17 144.723 303.11 145.13C303.057 145.53 302.96 145.91 302.82 146.27C302.68 146.623 302.487 146.94 302.24 147.22C301.993 147.493 301.68 147.71 301.3 147.87C300.92 148.023 300.46 148.1 299.92 148.1C299.787 148.1 299.63 148.09 299.45 148.07C299.277 148.057 299.133 148.033 299.02 148V147.25C299.14 147.29 299.28 147.323 299.44 147.35C299.6 147.37 299.753 147.38 299.9 147.38C300.367 147.38 300.75 147.303 301.05 147.15C301.357 146.997 301.6 146.79 301.78 146.53C301.96 146.263 302.09 145.957 302.17 145.61C302.25 145.257 302.297 144.887 302.31 144.5H302.25C302.15 144.653 302.023 144.793 301.87 144.92C301.717 145.047 301.53 145.147 301.31 145.22C301.097 145.293 300.843 145.33 300.55 145.33C300.143 145.33 299.783 145.247 299.47 145.08C299.163 144.907 298.923 144.66 298.75 144.34C298.583 144.02 298.5 143.63 298.5 143.17C298.5 142.67 298.593 142.24 298.78 141.88C298.973 141.52 299.24 141.243 299.58 141.05C299.92 140.857 300.32 140.76 300.78 140.76C301.12 140.76 301.437 140.827 301.73 140.96C302.023 141.087 302.28 141.28 302.5 141.54C302.72 141.8 302.89 142.127 303.01 142.52C303.137 142.913 303.2 143.377 303.2 143.91ZM300.78 141.5C300.367 141.5 300.027 141.637 299.76 141.91C299.5 142.183 299.37 142.6 299.37 143.16C299.37 143.62 299.48 143.983 299.7 144.25C299.927 144.51 300.273 144.64 300.74 144.64C301.06 144.64 301.337 144.577 301.57 144.45C301.803 144.317 301.983 144.15 302.11 143.95C302.243 143.75 302.31 143.543 302.31 143.33C302.31 143.117 302.277 142.903 302.21 142.69C302.15 142.47 302.057 142.27 301.93 142.09C301.803 141.91 301.643 141.767 301.45 141.66C301.257 141.553 301.033 141.5 300.78 141.5ZM304.443 147.46C304.443 147.213 304.503 147.04 304.623 146.94C304.743 146.84 304.886 146.79 305.053 146.79C305.226 146.79 305.373 146.84 305.493 146.94C305.619 147.04 305.683 147.213 305.683 147.46C305.683 147.7 305.619 147.873 305.493 147.98C305.373 148.087 305.226 148.14 305.053 148.14C304.886 148.14 304.743 148.087 304.623 147.98C304.503 147.873 304.443 147.7 304.443 147.46ZM304.443 143.18C304.443 142.927 304.503 142.75 304.623 142.65C304.743 142.55 304.886 142.5 305.053 142.5C305.226 142.5 305.373 142.55 305.493 142.65C305.619 142.75 305.683 142.927 305.683 143.18C305.683 143.42 305.619 143.593 305.493 143.7C305.373 143.807 305.226 143.86 305.053 143.86C304.886 143.86 304.743 143.807 304.623 143.7C304.503 143.593 304.443 143.42 304.443 143.18ZM311.628 144.42C311.628 145 311.585 145.517 311.498 145.97C311.412 146.423 311.272 146.81 311.078 147.13C310.892 147.443 310.645 147.683 310.338 147.85C310.038 148.017 309.675 148.1 309.248 148.1C308.715 148.1 308.272 147.953 307.918 147.66C307.572 147.367 307.312 146.947 307.138 146.4C306.972 145.847 306.888 145.187 306.888 144.42C306.888 143.647 306.965 142.987 307.118 142.44C307.278 141.893 307.532 141.477 307.878 141.19C308.225 140.897 308.682 140.75 309.248 140.75C309.782 140.75 310.225 140.897 310.578 141.19C310.932 141.477 311.195 141.893 311.368 142.44C311.542 142.987 311.628 143.647 311.628 144.42ZM307.768 144.42C307.768 145.073 307.815 145.617 307.908 146.05C308.008 146.483 308.165 146.81 308.378 147.03C308.598 147.243 308.888 147.35 309.248 147.35C309.608 147.35 309.895 147.243 310.108 147.03C310.328 146.817 310.488 146.493 310.588 146.06C310.688 145.62 310.738 145.073 310.738 144.42C310.738 143.767 310.688 143.227 310.588 142.8C310.488 142.367 310.328 142.043 310.108 141.83C309.895 141.61 309.608 141.5 309.248 141.5C308.888 141.5 308.598 141.61 308.378 141.83C308.165 142.043 308.008 142.367 307.908 142.8C307.815 143.227 307.768 143.767 307.768 144.42ZM317.351 144.42C317.351 145 317.308 145.517 317.221 145.97C317.134 146.423 316.994 146.81 316.801 147.13C316.614 147.443 316.368 147.683 316.061 147.85C315.761 148.017 315.398 148.1 314.971 148.1C314.438 148.1 313.994 147.953 313.641 147.66C313.294 147.367 313.034 146.947 312.861 146.4C312.694 145.847 312.611 145.187 312.611 144.42C312.611 143.647 312.688 142.987 312.841 142.44C313.001 141.893 313.254 141.477 313.601 141.19C313.948 140.897 314.404 140.75 314.971 140.75C315.504 140.75 315.948 140.897 316.301 141.19C316.654 141.477 316.918 141.893 317.091 142.44C317.264 142.987 317.351 143.647 317.351 144.42ZM313.491 144.42C313.491 145.073 313.538 145.617 313.631 146.05C313.731 146.483 313.888 146.81 314.101 147.03C314.321 147.243 314.611 147.35 314.971 147.35C315.331 147.35 315.618 147.243 315.831 147.03C316.051 146.817 316.211 146.493 316.311 146.06C316.411 145.62 316.461 145.073 316.461 144.42C316.461 143.767 316.411 143.227 316.311 142.8C316.211 142.367 316.051 142.043 315.831 141.83C315.618 141.61 315.331 141.5 314.971 141.5C314.611 141.5 314.321 141.61 314.101 141.83C313.888 142.043 313.731 142.367 313.631 142.8C313.538 143.227 313.491 143.767 313.491 144.42ZM325.891 148L325.031 145.79H322.201L321.351 148H320.441L323.231 140.83H324.041L326.821 148H325.891ZM323.961 142.83C323.941 142.777 323.908 142.68 323.861 142.54C323.815 142.4 323.768 142.257 323.721 142.11C323.681 141.957 323.648 141.84 323.621 141.76C323.588 141.893 323.551 142.03 323.511 142.17C323.478 142.303 323.441 142.427 323.401 142.54C323.368 142.653 323.338 142.75 323.311 142.83L322.501 144.99H324.761L323.961 142.83ZM330.948 148L328.598 141.74H328.558C328.571 141.873 328.581 142.043 328.588 142.25C328.601 142.457 328.611 142.683 328.618 142.93C328.625 143.17 328.628 143.417 328.628 143.67V148H327.798V140.86H329.128L331.328 146.71H331.368L333.608 140.86H334.928V148H334.038V143.61C334.038 143.377 334.041 143.147 334.048 142.92C334.055 142.687 334.065 142.47 334.078 142.27C334.091 142.063 334.101 141.89 334.108 141.75H334.068L331.688 148H330.948Z" fill="black"/>
<path d="M434.5 147.5L431.469 142.25L437.531 142.25L434.5 147.5Z" fill="black"/>
<rect x="293.5" y="134.5" width="149" height="19" stroke="black"/>
<path d="M278 132L288 122V142L278 132Z" fill="#AFB9C3"/>
<rect x="288.5" y="104.5" width="159" height="54" stroke="#AFB9C3"/>
<path d="M28 8.5H488C498.77 8.5 507.5 17.2304 507.5 28V307.5H8.5V28C8.5 17.2304 17.2304 8.5 28 8.5Z" stroke="#AFB9C3"/>
</g>
<defs>
<filter id="filter0_d_7870_4651" x="0" y="0" width="524" height="324" filterUnits="userSpaceOnUse" color-interpolation-filters="sRGB">
<feFlood flood-opacity="0" result="BackgroundImageFix"/>
<feColorMatrix in="SourceAlpha" type="matrix" values="0 0 0 0 0 0 0 0 0 0 0 0 0 0 0 0 0 0 127 0" result="hardAlpha"/>
<feOffset dx="4" dy="4"/>
<feGaussianBlur stdDeviation="6"/>
<feColorMatrix type="matrix" values="0 0 0 0 0 0 0 0 0 0 0 0 0 0 0 0 0 0 0.1 0"/>
<feBlend mode="normal" in2="BackgroundImageFix" result="effect1_dropShadow_7870_4651"/>
<feBlend mode="normal" in="SourceGraphic" in2="effect1_dropShadow_7870_4651" result="shape"/>
</filter>
</defs>
</svg>
