<svg width="524" height="324" viewBox="0 0 524 324" fill="none" xmlns="http://www.w3.org/2000/svg">
<g filter="url(#filter0_d_7870_4465)">
<path d="M8 28C8 16.9543 16.9543 8 28 8H488C499.046 8 508 16.9543 508 28V308H8V28Z" fill="white"/>
<path d="M8 28C8 16.9543 16.9543 8 28 8H488C499.046 8 508 16.9543 508 28V38H8V28Z" fill="#909CA8"/>
<path d="M77.12 85L72.416 70.432H72.32C72.352 70.752 72.376 71.184 72.392 71.728C72.424 72.272 72.448 72.856 72.464 73.48C72.496 74.104 72.512 74.72 72.512 75.328V85H70.088V67.864H73.832L78.344 81.616H78.416L83 67.864H86.744V85H84.2V75.184C84.2 74.624 84.208 74.048 84.224 73.456C84.24 72.848 84.264 72.28 84.296 71.752C84.328 71.224 84.352 70.792 84.368 70.456H84.272L79.448 85H77.12ZM95.5794 71.824C96.6514 71.824 97.5794 72.064 98.3634 72.544C99.1474 73.008 99.7474 73.68 100.163 74.56C100.595 75.44 100.811 76.48 100.811 77.68V79.072H92.6754C92.7074 80.4 93.0274 81.416 93.6354 82.12C94.2434 82.824 95.0994 83.176 96.2034 83.176C96.9874 83.176 97.6834 83.104 98.2914 82.96C98.9154 82.8 99.5474 82.568 100.187 82.264V84.376C99.5794 84.664 98.9554 84.88 98.3154 85.024C97.6914 85.168 96.9314 85.24 96.0354 85.24C94.8674 85.24 93.8274 84.992 92.9154 84.496C92.0034 84 91.2914 83.264 90.7794 82.288C90.2674 81.296 90.0114 80.08 90.0114 78.64C90.0114 77.184 90.2434 75.952 90.7074 74.944C91.1714 73.936 91.8194 73.168 92.6514 72.64C93.4994 72.096 94.4754 71.824 95.5794 71.824ZM95.5794 73.792C94.7634 73.792 94.1074 74.088 93.6114 74.68C93.1154 75.272 92.8274 76.112 92.7474 77.2H98.2434C98.2434 76.528 98.1474 75.936 97.9554 75.424C97.7634 74.912 97.4674 74.512 97.0674 74.224C96.6834 73.936 96.1874 73.792 95.5794 73.792ZM111.947 81.352C111.947 82.2 111.755 82.912 111.371 83.488C110.987 84.064 110.427 84.504 109.691 84.808C108.955 85.096 108.051 85.24 106.979 85.24C106.131 85.24 105.387 85.168 104.747 85.024C104.123 84.896 103.547 84.704 103.019 84.448V82.216C103.579 82.488 104.219 82.736 104.939 82.96C105.659 83.168 106.347 83.272 107.003 83.272C107.851 83.272 108.467 83.12 108.851 82.816C109.235 82.512 109.427 82.104 109.427 81.592C109.427 81.304 109.347 81.048 109.187 80.824C109.043 80.584 108.763 80.344 108.347 80.104C107.931 79.848 107.331 79.56 106.547 79.24C105.779 78.904 105.131 78.576 104.603 78.256C104.091 77.92 103.691 77.528 103.403 77.08C103.131 76.616 102.995 76.024 102.995 75.304C102.995 74.184 103.427 73.328 104.291 72.736C105.155 72.128 106.283 71.824 107.675 71.824C108.443 71.824 109.155 71.904 109.811 72.064C110.467 72.208 111.107 72.432 111.731 72.736L110.939 74.68C110.571 74.504 110.195 74.36 109.811 74.248C109.443 74.12 109.075 74.016 108.707 73.936C108.339 73.856 107.971 73.816 107.603 73.816C106.915 73.816 106.395 73.936 106.043 74.176C105.691 74.416 105.515 74.752 105.515 75.184C105.515 75.504 105.595 75.776 105.755 76C105.931 76.224 106.227 76.448 106.643 76.672C107.075 76.896 107.667 77.16 108.419 77.464C109.171 77.768 109.811 78.08 110.339 78.4C110.867 78.72 111.267 79.112 111.539 79.576C111.811 80.04 111.947 80.632 111.947 81.352ZM122.962 81.352C122.962 82.2 122.77 82.912 122.386 83.488C122.002 84.064 121.442 84.504 120.706 84.808C119.97 85.096 119.066 85.24 117.994 85.24C117.146 85.24 116.402 85.168 115.762 85.024C115.138 84.896 114.562 84.704 114.034 84.448V82.216C114.594 82.488 115.234 82.736 115.954 82.96C116.674 83.168 117.362 83.272 118.018 83.272C118.866 83.272 119.482 83.12 119.866 82.816C120.25 82.512 120.442 82.104 120.442 81.592C120.442 81.304 120.362 81.048 120.202 80.824C120.058 80.584 119.778 80.344 119.362 80.104C118.946 79.848 118.346 79.56 117.562 79.24C116.794 78.904 116.146 78.576 115.618 78.256C115.106 77.92 114.706 77.528 114.418 77.08C114.146 76.616 114.01 76.024 114.01 75.304C114.01 74.184 114.442 73.328 115.306 72.736C116.17 72.128 117.298 71.824 118.69 71.824C119.458 71.824 120.17 71.904 120.826 72.064C121.482 72.208 122.122 72.432 122.746 72.736L121.954 74.68C121.586 74.504 121.21 74.36 120.826 74.248C120.458 74.12 120.09 74.016 119.722 73.936C119.354 73.856 118.986 73.816 118.618 73.816C117.93 73.816 117.41 73.936 117.058 74.176C116.706 74.416 116.53 74.752 116.53 75.184C116.53 75.504 116.61 75.776 116.77 76C116.946 76.224 117.242 76.448 117.658 76.672C118.09 76.896 118.682 77.16 119.434 77.464C120.186 77.768 120.826 78.08 121.354 78.4C121.882 78.72 122.282 79.112 122.554 79.576C122.826 80.04 122.962 80.632 122.962 81.352ZM130.642 71.824C132.162 71.824 133.306 72.184 134.074 72.904C134.858 73.608 135.25 74.72 135.25 76.24V85H133.402L132.898 83.2H132.802C132.434 83.664 132.066 84.048 131.698 84.352C131.346 84.656 130.93 84.88 130.45 85.024C129.986 85.168 129.41 85.24 128.722 85.24C128.002 85.24 127.354 85.104 126.778 84.832C126.202 84.544 125.746 84.112 125.41 83.536C125.074 82.944 124.906 82.208 124.906 81.328C124.906 80.016 125.37 79.016 126.298 78.328C127.242 77.64 128.674 77.264 130.594 77.2L132.658 77.128V76.408C132.658 75.448 132.458 74.776 132.058 74.392C131.674 74.008 131.13 73.816 130.426 73.816C129.834 73.816 129.25 73.912 128.674 74.104C128.098 74.296 127.538 74.528 126.994 74.8L126.202 72.952C126.794 72.632 127.466 72.368 128.218 72.16C128.986 71.936 129.794 71.824 130.642 71.824ZM131.098 78.832C129.786 78.896 128.874 79.144 128.362 79.576C127.85 79.992 127.594 80.584 127.594 81.352C127.594 82.024 127.77 82.512 128.122 82.816C128.49 83.12 128.962 83.272 129.538 83.272C130.418 83.272 131.154 82.992 131.746 82.432C132.354 81.872 132.658 81.032 132.658 79.912V78.784L131.098 78.832ZM143.024 71.824C143.808 71.824 144.504 71.984 145.112 72.304C145.736 72.624 146.264 73.112 146.696 73.768H146.792L147.08 72.064H149.216V85.168C149.216 86.384 149.008 87.408 148.592 88.24C148.176 89.072 147.544 89.696 146.696 90.112C145.848 90.544 144.776 90.76 143.48 90.76C142.584 90.76 141.768 90.696 141.032 90.568C140.312 90.44 139.64 90.24 139.016 89.968V87.736C139.432 87.96 139.88 88.144 140.36 88.288C140.84 88.448 141.344 88.56 141.872 88.624C142.416 88.704 142.976 88.744 143.552 88.744C144.544 88.744 145.304 88.44 145.832 87.832C146.376 87.24 146.648 86.4 146.648 85.312V84.88C146.648 84.672 146.656 84.4 146.672 84.064C146.688 83.712 146.704 83.456 146.72 83.296H146.624C146.224 83.968 145.72 84.464 145.112 84.784C144.52 85.088 143.816 85.24 143 85.24C141.496 85.24 140.312 84.656 139.448 83.488C138.584 82.304 138.152 80.664 138.152 78.568C138.152 77.16 138.344 75.96 138.728 74.968C139.128 73.96 139.688 73.184 140.408 72.64C141.144 72.096 142.016 71.824 143.024 71.824ZM143.648 73.936C143.04 73.936 142.528 74.12 142.112 74.488C141.696 74.84 141.376 75.36 141.152 76.048C140.944 76.736 140.84 77.584 140.84 78.592C140.84 80.096 141.08 81.24 141.56 82.024C142.04 82.808 142.744 83.2 143.672 83.2C144.216 83.2 144.68 83.12 145.064 82.96C145.448 82.8 145.76 82.552 146 82.216C146.256 81.88 146.44 81.456 146.552 80.944C146.68 80.416 146.744 79.784 146.744 79.048V78.568C146.744 77.464 146.632 76.576 146.408 75.904C146.2 75.216 145.864 74.72 145.4 74.416C144.952 74.096 144.368 73.936 143.648 73.936ZM157.759 71.824C158.831 71.824 159.759 72.064 160.543 72.544C161.327 73.008 161.927 73.68 162.343 74.56C162.775 75.44 162.991 76.48 162.991 77.68V79.072H154.855C154.887 80.4 155.207 81.416 155.815 82.12C156.423 82.824 157.279 83.176 158.383 83.176C159.167 83.176 159.863 83.104 160.471 82.96C161.095 82.8 161.727 82.568 162.367 82.264V84.376C161.759 84.664 161.135 84.88 160.495 85.024C159.871 85.168 159.111 85.24 158.215 85.24C157.047 85.24 156.007 84.992 155.095 84.496C154.183 84 153.471 83.264 152.959 82.288C152.447 81.296 152.191 80.08 152.191 78.64C152.191 77.184 152.423 75.952 152.887 74.944C153.351 73.936 153.999 73.168 154.831 72.64C155.679 72.096 156.655 71.824 157.759 71.824ZM157.759 73.792C156.943 73.792 156.287 74.088 155.791 74.68C155.295 75.272 155.007 76.112 154.927 77.2H160.423C160.423 76.528 160.327 75.936 160.135 75.424C159.943 74.912 159.647 74.512 159.247 74.224C158.863 73.936 158.367 73.792 157.759 73.792ZM176.338 83.176C176.674 83.176 177.002 83.144 177.322 83.08C177.642 83.016 177.922 82.944 178.162 82.864V84.784C177.89 84.912 177.53 85.016 177.082 85.096C176.65 85.192 176.194 85.24 175.714 85.24C175.042 85.24 174.426 85.12 173.866 84.88C173.306 84.64 172.858 84.224 172.522 83.632C172.186 83.04 172.018 82.216 172.018 81.16V74.008H170.362V72.856L172.138 71.896L173.026 69.16H174.634V72.064H178.066V74.008H174.634V81.112C174.634 81.816 174.794 82.336 175.114 82.672C175.434 83.008 175.842 83.176 176.338 83.176ZM185.462 71.824C186.534 71.824 187.462 72.064 188.246 72.544C189.03 73.008 189.63 73.68 190.046 74.56C190.478 75.44 190.694 76.48 190.694 77.68V79.072H182.558C182.59 80.4 182.91 81.416 183.518 82.12C184.126 82.824 184.982 83.176 186.086 83.176C186.87 83.176 187.566 83.104 188.174 82.96C188.798 82.8 189.43 82.568 190.07 82.264V84.376C189.462 84.664 188.838 84.88 188.198 85.024C187.574 85.168 186.814 85.24 185.918 85.24C184.75 85.24 183.71 84.992 182.798 84.496C181.886 84 181.174 83.264 180.662 82.288C180.15 81.296 179.894 80.08 179.894 78.64C179.894 77.184 180.126 75.952 180.59 74.944C181.054 73.936 181.702 73.168 182.534 72.64C183.382 72.096 184.358 71.824 185.462 71.824ZM185.462 73.792C184.646 73.792 183.99 74.088 183.494 74.68C182.998 75.272 182.71 76.112 182.63 77.2H188.126C188.126 76.528 188.03 75.936 187.838 75.424C187.646 74.912 187.35 74.512 186.95 74.224C186.566 73.936 186.07 73.792 185.462 73.792ZM207.397 71.824C208.773 71.824 209.805 72.2 210.493 72.952C211.197 73.704 211.549 74.912 211.549 76.576V85H208.957V76.912C208.957 75.92 208.773 75.176 208.405 74.68C208.053 74.168 207.501 73.912 206.749 73.912C205.709 73.912 204.965 74.272 204.517 74.992C204.085 75.696 203.869 76.72 203.869 78.064V85H201.253V76.912C201.253 76.256 201.173 75.704 201.013 75.256C200.853 74.808 200.613 74.472 200.293 74.248C199.973 74.024 199.557 73.912 199.045 73.912C198.325 73.912 197.757 74.088 197.341 74.44C196.925 74.792 196.629 75.312 196.453 76C196.277 76.672 196.189 77.496 196.189 78.472V85H193.597V72.064H195.637L196.021 73.792H196.141C196.397 73.344 196.701 72.976 197.053 72.688C197.421 72.4 197.837 72.184 198.301 72.04C198.765 71.896 199.245 71.824 199.741 71.824C200.653 71.824 201.421 72 202.045 72.352C202.669 72.688 203.133 73.208 203.437 73.912H203.605C203.989 73.192 204.525 72.664 205.213 72.328C205.901 71.992 206.629 71.824 207.397 71.824ZM221.353 71.824C222.809 71.824 223.977 72.384 224.857 73.504C225.737 74.624 226.177 76.296 226.177 78.52C226.177 79.976 225.969 81.208 225.553 82.216C225.153 83.224 224.585 83.984 223.849 84.496C223.113 84.992 222.257 85.24 221.281 85.24C220.689 85.24 220.161 85.16 219.697 85C219.233 84.824 218.841 84.6 218.521 84.328C218.217 84.04 217.945 83.736 217.705 83.416H217.561C217.593 83.704 217.625 84.048 217.657 84.448C217.689 84.832 217.705 85.176 217.705 85.48V90.76H215.113V72.064H217.225L217.585 73.792H217.705C217.945 73.44 218.225 73.112 218.545 72.808C218.881 72.504 219.273 72.264 219.721 72.088C220.185 71.912 220.729 71.824 221.353 71.824ZM220.657 73.912C219.953 73.912 219.385 74.072 218.953 74.392C218.521 74.696 218.201 75.16 217.993 75.784C217.801 76.392 217.705 77.168 217.705 78.112V78.496C217.705 79.488 217.793 80.336 217.969 81.04C218.161 81.728 218.473 82.256 218.905 82.624C219.353 82.976 219.953 83.152 220.705 83.152C221.345 83.152 221.873 82.96 222.289 82.576C222.705 82.176 223.009 81.624 223.201 80.92C223.409 80.216 223.513 79.4 223.513 78.472C223.513 77.064 223.273 75.952 222.793 75.136C222.329 74.32 221.617 73.912 220.657 73.912ZM231.744 85H229.152V66.76H231.744V85ZM240.283 71.824C241.803 71.824 242.947 72.184 243.715 72.904C244.499 73.608 244.891 74.72 244.891 76.24V85H243.043L242.539 83.2H242.443C242.075 83.664 241.707 84.048 241.339 84.352C240.987 84.656 240.571 84.88 240.091 85.024C239.627 85.168 239.051 85.24 238.363 85.24C237.643 85.24 236.995 85.104 236.419 84.832C235.843 84.544 235.387 84.112 235.051 83.536C234.715 82.944 234.547 82.208 234.547 81.328C234.547 80.016 235.011 79.016 235.939 78.328C236.883 77.64 238.315 77.264 240.235 77.2L242.299 77.128V76.408C242.299 75.448 242.099 74.776 241.699 74.392C241.315 74.008 240.771 73.816 240.067 73.816C239.475 73.816 238.891 73.912 238.315 74.104C237.739 74.296 237.179 74.528 236.635 74.8L235.843 72.952C236.435 72.632 237.107 72.368 237.859 72.16C238.627 71.936 239.435 71.824 240.283 71.824ZM240.739 78.832C239.427 78.896 238.515 79.144 238.003 79.576C237.491 79.992 237.235 80.584 237.235 81.352C237.235 82.024 237.411 82.512 237.763 82.816C238.131 83.12 238.603 83.272 239.179 83.272C240.059 83.272 240.795 82.992 241.387 82.432C241.995 81.872 242.299 81.032 242.299 79.912V78.784L240.739 78.832ZM253.049 83.176C253.385 83.176 253.713 83.144 254.033 83.08C254.353 83.016 254.633 82.944 254.873 82.864V84.784C254.601 84.912 254.241 85.016 253.793 85.096C253.361 85.192 252.905 85.24 252.425 85.24C251.753 85.24 251.137 85.12 250.577 84.88C250.017 84.64 249.569 84.224 249.233 83.632C248.897 83.04 248.729 82.216 248.729 81.16V74.008H247.073V72.856L248.849 71.896L249.737 69.16H251.345V72.064H254.777V74.008H251.345V81.112C251.345 81.816 251.505 82.336 251.825 82.672C252.145 83.008 252.553 83.176 253.049 83.176ZM262.173 71.824C263.245 71.824 264.173 72.064 264.957 72.544C265.741 73.008 266.341 73.68 266.757 74.56C267.189 75.44 267.405 76.48 267.405 77.68V79.072H259.269C259.301 80.4 259.621 81.416 260.229 82.12C260.837 82.824 261.693 83.176 262.797 83.176C263.581 83.176 264.277 83.104 264.885 82.96C265.509 82.8 266.141 82.568 266.781 82.264V84.376C266.173 84.664 265.549 84.88 264.909 85.024C264.285 85.168 263.525 85.24 262.629 85.24C261.461 85.24 260.421 84.992 259.509 84.496C258.597 84 257.885 83.264 257.373 82.288C256.861 81.296 256.605 80.08 256.605 78.64C256.605 77.184 256.837 75.952 257.301 74.944C257.765 73.936 258.413 73.168 259.245 72.64C260.093 72.096 261.069 71.824 262.173 71.824ZM262.173 73.792C261.357 73.792 260.701 74.088 260.205 74.68C259.709 75.272 259.421 76.112 259.341 77.2H264.837C264.837 76.528 264.741 75.936 264.549 75.424C264.357 74.912 264.061 74.512 263.661 74.224C263.277 73.936 262.781 73.792 262.173 73.792Z" fill="black"/>
<path d="M73.768 115L70.478 106.236H70.422C70.4407 106.423 70.4547 106.661 70.464 106.95C70.4827 107.239 70.4967 107.557 70.506 107.902C70.5153 108.238 70.52 108.583 70.52 108.938V115H69.358V105.004H71.22L74.3 113.194H74.356L77.492 105.004H79.34V115H78.094V108.854C78.094 108.527 78.0987 108.205 78.108 107.888C78.1173 107.561 78.1313 107.258 78.15 106.978C78.1687 106.689 78.1827 106.446 78.192 106.25H78.136L74.804 115H73.768ZM84.7892 107.356C85.4332 107.356 85.9838 107.496 86.4412 107.776C86.9078 108.056 87.2625 108.453 87.5052 108.966C87.7572 109.47 87.8832 110.063 87.8832 110.744V111.486H82.7452C82.7638 112.335 82.9785 112.984 83.3892 113.432C83.8092 113.871 84.3925 114.09 85.1392 114.09C85.6152 114.09 86.0352 114.048 86.3992 113.964C86.7725 113.871 87.1552 113.74 87.5472 113.572V114.65C87.1645 114.818 86.7865 114.939 86.4132 115.014C86.0398 115.098 85.5965 115.14 85.0832 115.14C84.3738 115.14 83.7438 114.995 83.1932 114.706C82.6518 114.417 82.2272 113.987 81.9192 113.418C81.6205 112.839 81.4712 112.135 81.4712 111.304C81.4712 110.483 81.6065 109.778 81.8772 109.19C82.1572 108.602 82.5445 108.149 83.0392 107.832C83.5432 107.515 84.1265 107.356 84.7892 107.356ZM84.7752 108.364C84.1872 108.364 83.7205 108.555 83.3752 108.938C83.0392 109.311 82.8385 109.834 82.7732 110.506H86.5952C86.5952 110.077 86.5298 109.703 86.3992 109.386C86.2685 109.069 86.0678 108.821 85.7972 108.644C85.5358 108.457 85.1952 108.364 84.7752 108.364ZM94.6795 112.928C94.6795 113.413 94.5582 113.819 94.3155 114.146C94.0728 114.473 93.7275 114.72 93.2795 114.888C92.8315 115.056 92.2995 115.14 91.6835 115.14C91.1608 115.14 90.7082 115.098 90.3255 115.014C89.9522 114.93 89.6208 114.813 89.3315 114.664V113.544C89.6302 113.693 89.9895 113.833 90.4095 113.964C90.8388 114.085 91.2728 114.146 91.7115 114.146C92.3368 114.146 92.7895 114.048 93.0695 113.852C93.3495 113.647 93.4895 113.376 93.4895 113.04C93.4895 112.853 93.4382 112.685 93.3355 112.536C93.2328 112.387 93.0462 112.237 92.7755 112.088C92.5142 111.939 92.1362 111.771 91.6415 111.584C91.1562 111.397 90.7408 111.211 90.3955 111.024C90.0502 110.837 89.7842 110.613 89.5975 110.352C89.4108 110.091 89.3175 109.755 89.3175 109.344C89.3175 108.709 89.5742 108.219 90.0875 107.874C90.6102 107.529 91.2915 107.356 92.1315 107.356C92.5888 107.356 93.0135 107.403 93.4055 107.496C93.8068 107.58 94.1802 107.701 94.5255 107.86L94.1055 108.84C93.9002 108.747 93.6808 108.667 93.4475 108.602C93.2235 108.527 92.9948 108.471 92.7615 108.434C92.5282 108.387 92.2902 108.364 92.0475 108.364C91.5435 108.364 91.1562 108.448 90.8855 108.616C90.6242 108.775 90.4935 108.994 90.4935 109.274C90.4935 109.479 90.5542 109.657 90.6755 109.806C90.7968 109.946 90.9975 110.086 91.2775 110.226C91.5668 110.357 91.9495 110.515 92.4255 110.702C92.9015 110.879 93.3075 111.061 93.6435 111.248C93.9795 111.435 94.2362 111.663 94.4135 111.934C94.5908 112.195 94.6795 112.527 94.6795 112.928ZM101.379 112.928C101.379 113.413 101.257 113.819 101.015 114.146C100.772 114.473 100.427 114.72 99.9787 114.888C99.5307 115.056 98.9987 115.14 98.3827 115.14C97.8601 115.14 97.4074 115.098 97.0247 115.014C96.6514 114.93 96.3201 114.813 96.0307 114.664V113.544C96.3294 113.693 96.6887 113.833 97.1087 113.964C97.5381 114.085 97.9721 114.146 98.4107 114.146C99.0361 114.146 99.4887 114.048 99.7687 113.852C100.049 113.647 100.189 113.376 100.189 113.04C100.189 112.853 100.137 112.685 100.035 112.536C99.9321 112.387 99.7454 112.237 99.4747 112.088C99.2134 111.939 98.8354 111.771 98.3407 111.584C97.8554 111.397 97.4401 111.211 97.0947 111.024C96.7494 110.837 96.4834 110.613 96.2967 110.352C96.1101 110.091 96.0167 109.755 96.0167 109.344C96.0167 108.709 96.2734 108.219 96.7867 107.874C97.3094 107.529 97.9907 107.356 98.8307 107.356C99.2881 107.356 99.7127 107.403 100.105 107.496C100.506 107.58 100.879 107.701 101.225 107.86L100.805 108.84C100.599 108.747 100.38 108.667 100.147 108.602C99.9227 108.527 99.6941 108.471 99.4607 108.434C99.2274 108.387 98.9894 108.364 98.7467 108.364C98.2427 108.364 97.8554 108.448 97.5847 108.616C97.3234 108.775 97.1927 108.994 97.1927 109.274C97.1927 109.479 97.2534 109.657 97.3747 109.806C97.4961 109.946 97.6967 110.086 97.9767 110.226C98.2661 110.357 98.6487 110.515 99.1247 110.702C99.6007 110.879 100.007 111.061 100.343 111.248C100.679 111.435 100.935 111.663 101.113 111.934C101.29 112.195 101.379 112.527 101.379 112.928ZM106.034 107.37C106.949 107.37 107.625 107.571 108.064 107.972C108.503 108.373 108.722 109.013 108.722 109.89V115H107.826L107.588 113.936H107.532C107.317 114.207 107.093 114.435 106.86 114.622C106.636 114.799 106.375 114.93 106.076 115.014C105.787 115.098 105.432 115.14 105.012 115.14C104.564 115.14 104.158 115.061 103.794 114.902C103.439 114.743 103.159 114.501 102.954 114.174C102.749 113.838 102.646 113.418 102.646 112.914C102.646 112.167 102.94 111.593 103.528 111.192C104.116 110.781 105.021 110.557 106.244 110.52L107.518 110.478V110.03C107.518 109.405 107.383 108.971 107.112 108.728C106.841 108.485 106.459 108.364 105.964 108.364C105.572 108.364 105.199 108.425 104.844 108.546C104.489 108.658 104.158 108.789 103.85 108.938L103.472 108.014C103.799 107.837 104.186 107.687 104.634 107.566C105.082 107.435 105.549 107.37 106.034 107.37ZM106.398 111.374C105.465 111.411 104.816 111.561 104.452 111.822C104.097 112.083 103.92 112.452 103.92 112.928C103.92 113.348 104.046 113.656 104.298 113.852C104.559 114.048 104.891 114.146 105.292 114.146C105.927 114.146 106.454 113.973 106.874 113.628C107.294 113.273 107.504 112.732 107.504 112.004V111.332L106.398 111.374ZM113.7 107.356C114.194 107.356 114.638 107.449 115.03 107.636C115.431 107.823 115.772 108.107 116.052 108.49H116.122L116.29 107.496H117.27V115.126C117.27 115.835 117.148 116.428 116.906 116.904C116.663 117.389 116.294 117.753 115.8 117.996C115.305 118.239 114.675 118.36 113.91 118.36C113.368 118.36 112.869 118.318 112.412 118.234C111.964 118.159 111.562 118.043 111.208 117.884V116.75C111.45 116.871 111.716 116.974 112.006 117.058C112.295 117.151 112.608 117.221 112.944 117.268C113.28 117.315 113.625 117.338 113.98 117.338C114.624 117.338 115.128 117.147 115.492 116.764C115.865 116.391 116.052 115.877 116.052 115.224V114.93C116.052 114.818 116.056 114.659 116.066 114.454C116.075 114.239 116.084 114.09 116.094 114.006H116.038C115.776 114.389 115.45 114.673 115.058 114.86C114.675 115.047 114.227 115.14 113.714 115.14C112.743 115.14 111.982 114.799 111.432 114.118C110.89 113.437 110.62 112.485 110.62 111.262C110.62 110.459 110.741 109.769 110.984 109.19C111.236 108.602 111.59 108.149 112.048 107.832C112.505 107.515 113.056 107.356 113.7 107.356ZM113.868 108.392C113.448 108.392 113.088 108.504 112.79 108.728C112.5 108.952 112.276 109.279 112.118 109.708C111.968 110.137 111.894 110.66 111.894 111.276C111.894 112.2 112.062 112.909 112.398 113.404C112.743 113.889 113.242 114.132 113.896 114.132C114.278 114.132 114.605 114.085 114.876 113.992C115.146 113.889 115.37 113.735 115.548 113.53C115.725 113.315 115.856 113.045 115.94 112.718C116.024 112.391 116.066 112.004 116.066 111.556V111.262C116.066 110.581 115.986 110.03 115.828 109.61C115.678 109.19 115.44 108.882 115.114 108.686C114.787 108.49 114.372 108.392 113.868 108.392ZM122.551 107.356C123.195 107.356 123.746 107.496 124.203 107.776C124.67 108.056 125.024 108.453 125.267 108.966C125.519 109.47 125.645 110.063 125.645 110.744V111.486H120.507C120.526 112.335 120.74 112.984 121.151 113.432C121.571 113.871 122.154 114.09 122.901 114.09C123.377 114.09 123.797 114.048 124.161 113.964C124.534 113.871 124.917 113.74 125.309 113.572V114.65C124.926 114.818 124.548 114.939 124.175 115.014C123.802 115.098 123.358 115.14 122.845 115.14C122.136 115.14 121.506 114.995 120.955 114.706C120.414 114.417 119.989 113.987 119.681 113.418C119.382 112.839 119.233 112.135 119.233 111.304C119.233 110.483 119.368 109.778 119.639 109.19C119.919 108.602 120.306 108.149 120.801 107.832C121.305 107.515 121.888 107.356 122.551 107.356ZM122.537 108.364C121.949 108.364 121.482 108.555 121.137 108.938C120.801 109.311 120.6 109.834 120.535 110.506H124.357C124.357 110.077 124.292 109.703 124.161 109.386C124.03 109.069 123.83 108.821 123.559 108.644C123.298 108.457 122.957 108.364 122.537 108.364Z" fill="black"/>
<rect x="260" y="204" width="35" height="12" rx="4" fill="#F6BE00"/>
<rect x="194" y="204" width="35" height="12" rx="4" fill="#F6BE00"/>
<rect x="101" y="141" width="73" height="12" rx="4" fill="#F6BE00"/>
<path d="M87.002 151H85.742V146.338H80.618V151H79.358V141.004H80.618V145.232H85.742V141.004H87.002V151ZM90.799 143.496V151H89.567V143.496H90.799ZM90.197 140.682C90.3836 140.682 90.547 140.747 90.687 140.878C90.8363 140.999 90.911 141.195 90.911 141.466C90.911 141.727 90.8363 141.923 90.687 142.054C90.547 142.185 90.3836 142.25 90.197 142.25C89.9916 142.25 89.819 142.185 89.679 142.054C89.539 141.923 89.469 141.727 89.469 141.466C89.469 141.195 89.539 140.999 89.679 140.878C89.819 140.747 89.9916 140.682 90.197 140.682ZM96.183 147.164C96.183 146.399 96.253 145.652 96.393 144.924C96.5424 144.196 96.771 143.501 97.079 142.838C97.387 142.175 97.7744 141.564 98.241 141.004H99.403C98.9737 141.583 98.6097 142.208 98.311 142.88C98.0217 143.552 97.8024 144.247 97.653 144.966C97.5037 145.685 97.429 146.413 97.429 147.15C97.429 147.869 97.5037 148.583 97.653 149.292C97.8024 150.001 98.0217 150.683 98.311 151.336C98.6004 151.999 98.9597 152.624 99.389 153.212H98.241C97.7744 152.661 97.387 152.059 97.079 151.406C96.771 150.762 96.5424 150.081 96.393 149.362C96.253 148.643 96.183 147.911 96.183 147.164ZM100.38 147.164C100.38 146.399 100.45 145.652 100.59 144.924C100.74 144.196 100.968 143.501 101.276 142.838C101.584 142.175 101.972 141.564 102.438 141.004H103.6C103.171 141.583 102.807 142.208 102.508 142.88C102.219 143.552 102 144.247 101.85 144.966C101.701 145.685 101.626 146.413 101.626 147.15C101.626 147.869 101.701 148.583 101.85 149.292C102 150.001 102.219 150.683 102.508 151.336C102.798 151.999 103.157 152.624 103.586 153.212H102.438C101.972 152.661 101.584 152.059 101.276 151.406C100.968 150.762 100.74 150.081 100.59 149.362C100.45 148.643 100.38 147.911 100.38 147.164ZM108.666 144.448H106.776V151H105.544V144.448H104.228V143.874L105.544 143.454V143.02C105.544 142.376 105.637 141.853 105.824 141.452C106.02 141.051 106.3 140.757 106.664 140.57C107.028 140.383 107.466 140.29 107.98 140.29C108.278 140.29 108.549 140.318 108.792 140.374C109.044 140.421 109.258 140.477 109.436 140.542L109.114 141.508C108.964 141.461 108.792 141.415 108.596 141.368C108.4 141.321 108.199 141.298 107.994 141.298C107.583 141.298 107.275 141.438 107.07 141.718C106.874 141.989 106.776 142.418 106.776 143.006V143.496H108.666V144.448ZM111.252 143.496V151H110.02V143.496H111.252ZM110.65 140.682C110.837 140.682 111 140.747 111.14 140.878C111.289 140.999 111.364 141.195 111.364 141.466C111.364 141.727 111.289 141.923 111.14 142.054C111 142.185 110.837 142.25 110.65 142.25C110.445 142.25 110.272 142.185 110.132 142.054C109.992 141.923 109.922 141.727 109.922 141.466C109.922 141.195 109.992 140.999 110.132 140.878C110.272 140.747 110.445 140.682 110.65 140.682ZM117.129 143.356C117.269 143.356 117.419 143.365 117.577 143.384C117.745 143.393 117.89 143.412 118.011 143.44L117.857 144.574C117.736 144.546 117.601 144.523 117.451 144.504C117.311 144.485 117.176 144.476 117.045 144.476C116.756 144.476 116.481 144.537 116.219 144.658C115.958 144.779 115.725 144.952 115.519 145.176C115.314 145.391 115.151 145.652 115.029 145.96C114.917 146.268 114.861 146.613 114.861 146.996V151H113.629V143.496H114.637L114.777 144.868H114.833C114.992 144.588 115.183 144.336 115.407 144.112C115.631 143.879 115.888 143.697 116.177 143.566C116.467 143.426 116.784 143.356 117.129 143.356ZM124.299 148.928C124.299 149.413 124.177 149.819 123.935 150.146C123.692 150.473 123.347 150.72 122.899 150.888C122.451 151.056 121.919 151.14 121.303 151.14C120.78 151.14 120.327 151.098 119.945 151.014C119.571 150.93 119.24 150.813 118.951 150.664V149.544C119.249 149.693 119.609 149.833 120.029 149.964C120.458 150.085 120.892 150.146 121.331 150.146C121.956 150.146 122.409 150.048 122.689 149.852C122.969 149.647 123.109 149.376 123.109 149.04C123.109 148.853 123.057 148.685 122.955 148.536C122.852 148.387 122.665 148.237 122.395 148.088C122.133 147.939 121.755 147.771 121.261 147.584C120.775 147.397 120.36 147.211 120.015 147.024C119.669 146.837 119.403 146.613 119.217 146.352C119.03 146.091 118.937 145.755 118.937 145.344C118.937 144.709 119.193 144.219 119.707 143.874C120.229 143.529 120.911 143.356 121.751 143.356C122.208 143.356 122.633 143.403 123.025 143.496C123.426 143.58 123.799 143.701 124.145 143.86L123.725 144.84C123.519 144.747 123.3 144.667 123.067 144.602C122.843 144.527 122.614 144.471 122.381 144.434C122.147 144.387 121.909 144.364 121.667 144.364C121.163 144.364 120.775 144.448 120.505 144.616C120.243 144.775 120.113 144.994 120.113 145.274C120.113 145.479 120.173 145.657 120.295 145.806C120.416 145.946 120.617 146.086 120.897 146.226C121.186 146.357 121.569 146.515 122.045 146.702C122.521 146.879 122.927 147.061 123.263 147.248C123.599 147.435 123.855 147.663 124.033 147.934C124.21 148.195 124.299 148.527 124.299 148.928ZM128.618 150.132C128.805 150.132 128.996 150.118 129.192 150.09C129.388 150.053 129.547 150.015 129.668 149.978V150.916C129.537 150.981 129.351 151.033 129.108 151.07C128.865 151.117 128.632 151.14 128.408 151.14C128.016 151.14 127.652 151.075 127.316 150.944C126.989 150.804 126.723 150.566 126.518 150.23C126.313 149.894 126.21 149.423 126.21 148.816V144.448H125.146V143.86L126.224 143.37L126.714 141.774H127.442V143.496H129.612V144.448H127.442V148.788C127.442 149.245 127.549 149.586 127.764 149.81C127.988 150.025 128.273 150.132 128.618 150.132ZM138.419 143.356C139.315 143.356 139.992 143.575 140.449 144.014C140.907 144.443 141.135 145.143 141.135 146.114V151H139.917V146.198C139.917 145.591 139.782 145.139 139.511 144.84C139.241 144.541 138.816 144.392 138.237 144.392C137.407 144.392 136.833 144.625 136.515 145.092C136.198 145.559 136.039 146.231 136.039 147.108V151H134.807V143.496H135.801L135.983 144.518H136.053C136.221 144.257 136.427 144.042 136.669 143.874C136.921 143.697 137.197 143.566 137.495 143.482C137.794 143.398 138.102 143.356 138.419 143.356ZM146.303 143.37C147.218 143.37 147.895 143.571 148.333 143.972C148.772 144.373 148.991 145.013 148.991 145.89V151H148.095L147.857 149.936H147.801C147.587 150.207 147.363 150.435 147.129 150.622C146.905 150.799 146.644 150.93 146.345 151.014C146.056 151.098 145.701 151.14 145.281 151.14C144.833 151.14 144.427 151.061 144.063 150.902C143.709 150.743 143.429 150.501 143.223 150.174C143.018 149.838 142.915 149.418 142.915 148.914C142.915 148.167 143.209 147.593 143.797 147.192C144.385 146.781 145.291 146.557 146.513 146.52L147.787 146.478V146.03C147.787 145.405 147.652 144.971 147.381 144.728C147.111 144.485 146.728 144.364 146.233 144.364C145.841 144.364 145.468 144.425 145.113 144.546C144.759 144.658 144.427 144.789 144.119 144.938L143.741 144.014C144.068 143.837 144.455 143.687 144.903 143.566C145.351 143.435 145.818 143.37 146.303 143.37ZM146.667 147.374C145.734 147.411 145.085 147.561 144.721 147.822C144.367 148.083 144.189 148.452 144.189 148.928C144.189 149.348 144.315 149.656 144.567 149.852C144.829 150.048 145.16 150.146 145.561 150.146C146.196 150.146 146.723 149.973 147.143 149.628C147.563 149.273 147.773 148.732 147.773 148.004V147.332L146.667 147.374ZM159.541 143.356C160.39 143.356 161.025 143.575 161.445 144.014C161.865 144.443 162.075 145.143 162.075 146.114V151H160.857V146.17C160.857 145.582 160.731 145.139 160.479 144.84C160.236 144.541 159.854 144.392 159.331 144.392C158.603 144.392 158.08 144.602 157.763 145.022C157.455 145.442 157.301 146.053 157.301 146.856V151H156.083V146.17C156.083 145.778 156.027 145.451 155.915 145.19C155.803 144.919 155.635 144.719 155.411 144.588C155.187 144.457 154.898 144.392 154.543 144.392C154.039 144.392 153.642 144.499 153.353 144.714C153.064 144.919 152.854 145.223 152.723 145.624C152.602 146.025 152.541 146.52 152.541 147.108V151H151.309V143.496H152.303L152.485 144.518H152.555C152.714 144.257 152.905 144.042 153.129 143.874C153.362 143.697 153.619 143.566 153.899 143.482C154.179 143.398 154.468 143.356 154.767 143.356C155.346 143.356 155.826 143.459 156.209 143.664C156.601 143.869 156.886 144.187 157.063 144.616H157.133C157.385 144.187 157.726 143.869 158.155 143.664C158.594 143.459 159.056 143.356 159.541 143.356ZM167.291 143.356C167.935 143.356 168.486 143.496 168.943 143.776C169.41 144.056 169.764 144.453 170.007 144.966C170.259 145.47 170.385 146.063 170.385 146.744V147.486H165.247C165.266 148.335 165.48 148.984 165.891 149.432C166.311 149.871 166.894 150.09 167.641 150.09C168.117 150.09 168.537 150.048 168.901 149.964C169.274 149.871 169.657 149.74 170.049 149.572V150.65C169.666 150.818 169.288 150.939 168.915 151.014C168.542 151.098 168.098 151.14 167.585 151.14C166.876 151.14 166.246 150.995 165.695 150.706C165.154 150.417 164.729 149.987 164.421 149.418C164.122 148.839 163.973 148.135 163.973 147.304C163.973 146.483 164.108 145.778 164.379 145.19C164.659 144.602 165.046 144.149 165.541 143.832C166.045 143.515 166.628 143.356 167.291 143.356ZM167.277 144.364C166.689 144.364 166.222 144.555 165.877 144.938C165.541 145.311 165.34 145.834 165.275 146.506H169.097C169.097 146.077 169.032 145.703 168.901 145.386C168.77 145.069 168.57 144.821 168.299 144.644C168.038 144.457 167.697 144.364 167.277 144.364ZM174.745 147.164C174.745 147.911 174.671 148.643 174.521 149.362C174.381 150.081 174.157 150.762 173.849 151.406C173.551 152.059 173.163 152.661 172.687 153.212H171.539C171.969 152.624 172.328 151.999 172.617 151.336C172.907 150.683 173.126 150.001 173.275 149.292C173.425 148.583 173.499 147.869 173.499 147.15C173.499 146.413 173.425 145.685 173.275 144.966C173.126 144.247 172.907 143.552 172.617 142.88C172.328 142.208 171.964 141.583 171.525 141.004H172.687C173.163 141.564 173.551 142.175 173.849 142.838C174.157 143.501 174.381 144.196 174.521 144.924C174.671 145.652 174.745 146.399 174.745 147.164ZM178.943 147.164C178.943 147.911 178.868 148.643 178.719 149.362C178.579 150.081 178.355 150.762 178.047 151.406C177.748 152.059 177.361 152.661 176.885 153.212H175.737C176.166 152.624 176.525 151.999 176.815 151.336C177.104 150.683 177.323 150.001 177.473 149.292C177.622 148.583 177.697 147.869 177.697 147.15C177.697 146.413 177.622 145.685 177.473 144.966C177.323 144.247 177.104 143.552 176.815 142.88C176.525 142.208 176.161 141.583 175.723 141.004H176.885C177.361 141.564 177.748 142.175 178.047 142.838C178.355 143.501 178.579 144.196 178.719 144.924C178.868 145.652 178.943 146.399 178.943 147.164ZM182.188 149.53C182.104 149.857 181.997 150.211 181.866 150.594C181.735 150.977 181.591 151.355 181.432 151.728C181.283 152.111 181.133 152.47 180.984 152.806H180.074C180.167 152.451 180.256 152.069 180.34 151.658C180.433 151.257 180.517 150.86 180.592 150.468C180.667 150.067 180.727 149.703 180.774 149.376H182.09L182.188 149.53ZM82.522 193H81.262V184.11H78.14V183.004H85.63V184.11H82.522V193ZM88.2013 185.482C88.2013 185.659 88.192 185.841 88.1733 186.028C88.164 186.215 88.15 186.383 88.1313 186.532H88.2153C88.374 186.271 88.5746 186.056 88.8173 185.888C89.06 185.72 89.3306 185.594 89.6293 185.51C89.928 185.417 90.236 185.37 90.5533 185.37C91.16 185.37 91.664 185.468 92.0653 185.664C92.476 185.851 92.784 186.145 92.9893 186.546C93.1946 186.947 93.2973 187.47 93.2973 188.114V193H92.0793V188.198C92.0793 187.591 91.944 187.139 91.6733 186.84C91.4026 186.541 90.978 186.392 90.3993 186.392C89.8393 186.392 89.4006 186.499 89.0833 186.714C88.766 186.919 88.5373 187.227 88.3973 187.638C88.2666 188.039 88.2013 188.534 88.2013 189.122V193H86.9693V182.36H88.2013V185.482ZM96.8556 185.496V193H95.6236V185.496H96.8556ZM96.2536 182.682C96.4403 182.682 96.6036 182.747 96.7436 182.878C96.8929 182.999 96.9676 183.195 96.9676 183.466C96.9676 183.727 96.8929 183.923 96.7436 184.054C96.6036 184.185 96.4403 184.25 96.2536 184.25C96.0483 184.25 95.8756 184.185 95.7356 184.054C95.5956 183.923 95.5256 183.727 95.5256 183.466C95.5256 183.195 95.5956 182.999 95.7356 182.878C95.8756 182.747 96.0483 182.682 96.2536 182.682ZM104.119 190.928C104.119 191.413 103.998 191.819 103.755 192.146C103.512 192.473 103.167 192.72 102.719 192.888C102.271 193.056 101.739 193.14 101.123 193.14C100.6 193.14 100.148 193.098 99.765 193.014C99.3916 192.93 99.0603 192.813 98.771 192.664V191.544C99.0696 191.693 99.429 191.833 99.849 191.964C100.278 192.085 100.712 192.146 101.151 192.146C101.776 192.146 102.229 192.048 102.509 191.852C102.789 191.647 102.929 191.376 102.929 191.04C102.929 190.853 102.878 190.685 102.775 190.536C102.672 190.387 102.486 190.237 102.215 190.088C101.954 189.939 101.576 189.771 101.081 189.584C100.596 189.397 100.18 189.211 99.835 189.024C99.4896 188.837 99.2236 188.613 99.037 188.352C98.8503 188.091 98.757 187.755 98.757 187.344C98.757 186.709 99.0136 186.219 99.527 185.874C100.05 185.529 100.731 185.356 101.571 185.356C102.028 185.356 102.453 185.403 102.845 185.496C103.246 185.58 103.62 185.701 103.965 185.86L103.545 186.84C103.34 186.747 103.12 186.667 102.887 186.602C102.663 186.527 102.434 186.471 102.201 186.434C101.968 186.387 101.73 186.364 101.487 186.364C100.983 186.364 100.596 186.448 100.325 186.616C100.064 186.775 99.933 186.994 99.933 187.274C99.933 187.479 99.9936 187.657 100.115 187.806C100.236 187.946 100.437 188.086 100.717 188.226C101.006 188.357 101.389 188.515 101.865 188.702C102.341 188.879 102.747 189.061 103.083 189.248C103.419 189.435 103.676 189.663 103.853 189.934C104.03 190.195 104.119 190.527 104.119 190.928ZM110.801 185.496V193H109.569V185.496H110.801ZM110.199 182.682C110.386 182.682 110.549 182.747 110.689 182.878C110.838 182.999 110.913 183.195 110.913 183.466C110.913 183.727 110.838 183.923 110.689 184.054C110.549 184.185 110.386 184.25 110.199 184.25C109.994 184.25 109.821 184.185 109.681 184.054C109.541 183.923 109.471 183.727 109.471 183.466C109.471 183.195 109.541 182.999 109.681 182.878C109.821 182.747 109.994 182.682 110.199 182.682ZM118.064 190.928C118.064 191.413 117.943 191.819 117.7 192.146C117.458 192.473 117.112 192.72 116.664 192.888C116.216 193.056 115.684 193.14 115.068 193.14C114.546 193.14 114.093 193.098 113.71 193.014C113.337 192.93 113.006 192.813 112.716 192.664V191.544C113.015 191.693 113.374 191.833 113.794 191.964C114.224 192.085 114.658 192.146 115.096 192.146C115.722 192.146 116.174 192.048 116.454 191.852C116.734 191.647 116.874 191.376 116.874 191.04C116.874 190.853 116.823 190.685 116.72 190.536C116.618 190.387 116.431 190.237 116.16 190.088C115.899 189.939 115.521 189.771 115.026 189.584C114.541 189.397 114.126 189.211 113.78 189.024C113.435 188.837 113.169 188.613 112.982 188.352C112.796 188.091 112.702 187.755 112.702 187.344C112.702 186.709 112.959 186.219 113.472 185.874C113.995 185.529 114.676 185.356 115.516 185.356C115.974 185.356 116.398 185.403 116.79 185.496C117.192 185.58 117.565 185.701 117.91 185.86L117.49 186.84C117.285 186.747 117.066 186.667 116.832 186.602C116.608 186.527 116.38 186.471 116.146 186.434C115.913 186.387 115.675 186.364 115.432 186.364C114.928 186.364 114.541 186.448 114.27 186.616C114.009 186.775 113.878 186.994 113.878 187.274C113.878 187.479 113.939 187.657 114.06 187.806C114.182 187.946 114.382 188.086 114.662 188.226C114.952 188.357 115.334 188.515 115.81 188.702C116.286 188.879 116.692 189.061 117.028 189.248C117.364 189.435 117.621 189.663 117.798 189.934C117.976 190.195 118.064 190.527 118.064 190.928ZM126.356 185.37C127.271 185.37 127.948 185.571 128.386 185.972C128.825 186.373 129.044 187.013 129.044 187.89V193H128.148L127.91 191.936H127.854C127.64 192.207 127.416 192.435 127.182 192.622C126.958 192.799 126.697 192.93 126.398 193.014C126.109 193.098 125.754 193.14 125.334 193.14C124.886 193.14 124.48 193.061 124.116 192.902C123.762 192.743 123.482 192.501 123.276 192.174C123.071 191.838 122.968 191.418 122.968 190.914C122.968 190.167 123.262 189.593 123.85 189.192C124.438 188.781 125.344 188.557 126.566 188.52L127.84 188.478V188.03C127.84 187.405 127.705 186.971 127.434 186.728C127.164 186.485 126.781 186.364 126.286 186.364C125.894 186.364 125.521 186.425 125.166 186.546C124.812 186.658 124.48 186.789 124.172 186.938L123.794 186.014C124.121 185.837 124.508 185.687 124.956 185.566C125.404 185.435 125.871 185.37 126.356 185.37ZM126.72 189.374C125.787 189.411 125.138 189.561 124.774 189.822C124.42 190.083 124.242 190.452 124.242 190.928C124.242 191.348 124.368 191.656 124.62 191.852C124.882 192.048 125.213 192.146 125.614 192.146C126.249 192.146 126.776 191.973 127.196 191.628C127.616 191.273 127.826 190.732 127.826 190.004V189.332L126.72 189.374ZM138.499 185.356C138.639 185.356 138.788 185.365 138.947 185.384C139.115 185.393 139.259 185.412 139.381 185.44L139.227 186.574C139.105 186.546 138.97 186.523 138.821 186.504C138.681 186.485 138.545 186.476 138.415 186.476C138.125 186.476 137.85 186.537 137.589 186.658C137.327 186.779 137.094 186.952 136.889 187.176C136.683 187.391 136.52 187.652 136.399 187.96C136.287 188.268 136.231 188.613 136.231 188.996V193H134.999V185.496H136.007L136.147 186.868H136.203C136.361 186.588 136.553 186.336 136.777 186.112C137.001 185.879 137.257 185.697 137.547 185.566C137.836 185.426 138.153 185.356 138.499 185.356ZM143.406 185.356C144.05 185.356 144.601 185.496 145.058 185.776C145.525 186.056 145.88 186.453 146.122 186.966C146.374 187.47 146.5 188.063 146.5 188.744V189.486H141.362C141.381 190.335 141.596 190.984 142.006 191.432C142.426 191.871 143.01 192.09 143.756 192.09C144.232 192.09 144.652 192.048 145.016 191.964C145.39 191.871 145.772 191.74 146.164 191.572V192.65C145.782 192.818 145.404 192.939 145.03 193.014C144.657 193.098 144.214 193.14 143.7 193.14C142.991 193.14 142.361 192.995 141.81 192.706C141.269 192.417 140.844 191.987 140.536 191.418C140.238 190.839 140.088 190.135 140.088 189.304C140.088 188.483 140.224 187.778 140.494 187.19C140.774 186.602 141.162 186.149 141.656 185.832C142.16 185.515 142.744 185.356 143.406 185.356ZM143.392 186.364C142.804 186.364 142.338 186.555 141.992 186.938C141.656 187.311 141.456 187.834 141.39 188.506H145.212C145.212 188.077 145.147 187.703 145.016 187.386C144.886 187.069 144.685 186.821 144.414 186.644C144.153 186.457 143.812 186.364 143.392 186.364ZM156.643 185.356C157.492 185.356 158.127 185.575 158.547 186.014C158.967 186.443 159.177 187.143 159.177 188.114V193H157.959V188.17C157.959 187.582 157.833 187.139 157.581 186.84C157.338 186.541 156.955 186.392 156.433 186.392C155.705 186.392 155.182 186.602 154.865 187.022C154.557 187.442 154.403 188.053 154.403 188.856V193H153.185V188.17C153.185 187.778 153.129 187.451 153.017 187.19C152.905 186.919 152.737 186.719 152.513 186.588C152.289 186.457 151.999 186.392 151.645 186.392C151.141 186.392 150.744 186.499 150.455 186.714C150.165 186.919 149.955 187.223 149.825 187.624C149.703 188.025 149.643 188.52 149.643 189.108V193H148.411V185.496H149.405L149.587 186.518H149.657C149.815 186.257 150.007 186.042 150.231 185.874C150.464 185.697 150.721 185.566 151.001 185.482C151.281 185.398 151.57 185.356 151.869 185.356C152.447 185.356 152.928 185.459 153.311 185.664C153.703 185.869 153.987 186.187 154.165 186.616H154.235C154.487 186.187 154.827 185.869 155.257 185.664C155.695 185.459 156.157 185.356 156.643 185.356ZM162.727 185.496V193H161.495V185.496H162.727ZM162.125 182.682C162.311 182.682 162.475 182.747 162.615 182.878C162.764 182.999 162.839 183.195 162.839 183.466C162.839 183.727 162.764 183.923 162.615 184.054C162.475 184.185 162.311 184.25 162.125 184.25C161.919 184.25 161.747 184.185 161.607 184.054C161.467 183.923 161.397 183.727 161.397 183.466C161.397 183.195 161.467 182.999 161.607 182.878C161.747 182.747 161.919 182.682 162.125 182.682ZM168.716 185.356C169.612 185.356 170.289 185.575 170.746 186.014C171.203 186.443 171.432 187.143 171.432 188.114V193H170.214V188.198C170.214 187.591 170.079 187.139 169.808 186.84C169.537 186.541 169.113 186.392 168.534 186.392C167.703 186.392 167.129 186.625 166.812 187.092C166.495 187.559 166.336 188.231 166.336 189.108V193H165.104V185.496H166.098L166.28 186.518H166.35C166.518 186.257 166.723 186.042 166.966 185.874C167.218 185.697 167.493 185.566 167.792 185.482C168.091 185.398 168.399 185.356 168.716 185.356ZM176.418 193.14C175.485 193.14 174.738 192.818 174.178 192.174C173.618 191.521 173.338 190.55 173.338 189.262C173.338 187.974 173.618 187.003 174.178 186.35C174.748 185.687 175.499 185.356 176.432 185.356C176.824 185.356 177.165 185.407 177.454 185.51C177.744 185.603 177.996 185.734 178.21 185.902C178.425 186.07 178.607 186.257 178.756 186.462H178.84C178.831 186.341 178.812 186.163 178.784 185.93C178.766 185.687 178.756 185.496 178.756 185.356V182.36H179.988V193H178.994L178.812 191.992H178.756C178.607 192.207 178.425 192.403 178.21 192.58C177.996 192.748 177.739 192.883 177.44 192.986C177.151 193.089 176.81 193.14 176.418 193.14ZM176.614 192.118C177.408 192.118 177.963 191.903 178.28 191.474C178.607 191.035 178.77 190.377 178.77 189.5V189.276C178.77 188.343 178.616 187.629 178.308 187.134C178 186.63 177.431 186.378 176.6 186.378C175.938 186.378 175.438 186.644 175.102 187.176C174.776 187.699 174.612 188.403 174.612 189.29C174.612 190.186 174.776 190.881 175.102 191.376C175.438 191.871 175.942 192.118 176.614 192.118ZM185.27 185.356C185.914 185.356 186.464 185.496 186.922 185.776C187.388 186.056 187.743 186.453 187.986 186.966C188.238 187.47 188.364 188.063 188.364 188.744V189.486H183.226C183.244 190.335 183.459 190.984 183.87 191.432C184.29 191.871 184.873 192.09 185.62 192.09C186.096 192.09 186.516 192.048 186.88 191.964C187.253 191.871 187.636 191.74 188.028 191.572V192.65C187.645 192.818 187.267 192.939 186.894 193.014C186.52 193.098 186.077 193.14 185.564 193.14C184.854 193.14 184.224 192.995 183.674 192.706C183.132 192.417 182.708 191.987 182.4 191.418C182.101 190.839 181.952 190.135 181.952 189.304C181.952 188.483 182.087 187.778 182.358 187.19C182.638 186.602 183.025 186.149 183.52 185.832C184.024 185.515 184.607 185.356 185.27 185.356ZM185.256 186.364C184.668 186.364 184.201 186.555 183.856 186.938C183.52 187.311 183.319 187.834 183.254 188.506H187.076C187.076 188.077 187.01 187.703 186.88 187.386C186.749 187.069 186.548 186.821 186.278 186.644C186.016 186.457 185.676 186.364 185.256 186.364ZM193.774 185.356C193.914 185.356 194.063 185.365 194.222 185.384C194.39 185.393 194.535 185.412 194.656 185.44L194.502 186.574C194.381 186.546 194.245 186.523 194.096 186.504C193.956 186.485 193.821 186.476 193.69 186.476C193.401 186.476 193.125 186.537 192.864 186.658C192.603 186.779 192.369 186.952 192.164 187.176C191.959 187.391 191.795 187.652 191.674 187.96C191.562 188.268 191.506 188.613 191.506 188.996V193H190.274V185.496H191.282L191.422 186.868H191.478C191.637 186.588 191.828 186.336 192.052 186.112C192.276 185.879 192.533 185.697 192.822 185.566C193.111 185.426 193.429 185.356 193.774 185.356ZM206.218 189.234C206.218 189.859 206.134 190.415 205.966 190.9C205.807 191.376 205.574 191.782 205.266 192.118C204.967 192.454 204.599 192.711 204.16 192.888C203.731 193.056 203.25 193.14 202.718 193.14C202.223 193.14 201.766 193.056 201.346 192.888C200.926 192.711 200.562 192.454 200.254 192.118C199.946 191.782 199.703 191.376 199.526 190.9C199.358 190.415 199.274 189.859 199.274 189.234C199.274 188.403 199.414 187.703 199.694 187.134C199.974 186.555 200.375 186.117 200.898 185.818C201.421 185.51 202.041 185.356 202.76 185.356C203.441 185.356 204.039 185.51 204.552 185.818C205.075 186.117 205.481 186.555 205.77 187.134C206.069 187.703 206.218 188.403 206.218 189.234ZM200.548 189.234C200.548 189.822 200.623 190.335 200.772 190.774C200.931 191.203 201.173 191.535 201.5 191.768C201.827 192.001 202.242 192.118 202.746 192.118C203.25 192.118 203.665 192.001 203.992 191.768C204.319 191.535 204.557 191.203 204.706 190.774C204.865 190.335 204.944 189.822 204.944 189.234C204.944 188.637 204.865 188.128 204.706 187.708C204.547 187.288 204.305 186.966 203.978 186.742C203.661 186.509 203.245 186.392 202.732 186.392C201.967 186.392 201.411 186.644 201.066 187.148C200.721 187.652 200.548 188.347 200.548 189.234ZM211.628 186.448H209.738V193H208.506V186.448H207.19V185.874L208.506 185.454V185.02C208.506 184.376 208.6 183.853 208.786 183.452C208.982 183.051 209.262 182.757 209.626 182.57C209.99 182.383 210.429 182.29 210.942 182.29C211.241 182.29 211.512 182.318 211.754 182.374C212.006 182.421 212.221 182.477 212.398 182.542L212.076 183.508C211.927 183.461 211.754 183.415 211.558 183.368C211.362 183.321 211.162 183.298 210.956 183.298C210.546 183.298 210.238 183.438 210.032 183.718C209.836 183.989 209.738 184.418 209.738 185.006V185.496H211.628V186.448ZM215.444 185.496H216.76L218.384 189.766C218.477 190.018 218.561 190.261 218.636 190.494C218.72 190.727 218.794 190.956 218.86 191.18C218.925 191.395 218.976 191.605 219.014 191.81H219.07C219.126 191.577 219.214 191.273 219.336 190.9C219.457 190.517 219.583 190.135 219.714 189.752L221.24 185.496H222.57L219.336 194.036C219.158 194.503 218.948 194.909 218.706 195.254C218.472 195.609 218.183 195.879 217.838 196.066C217.502 196.262 217.091 196.36 216.606 196.36C216.382 196.36 216.186 196.346 216.018 196.318C215.85 196.299 215.705 196.276 215.584 196.248V195.268C215.686 195.287 215.808 195.305 215.948 195.324C216.097 195.343 216.251 195.352 216.41 195.352C216.699 195.352 216.946 195.296 217.152 195.184C217.366 195.081 217.548 194.927 217.698 194.722C217.847 194.526 217.973 194.293 218.076 194.022L218.468 193.028L215.444 185.496ZM230.28 189.234C230.28 189.859 230.196 190.415 230.028 190.9C229.87 191.376 229.636 191.782 229.328 192.118C229.03 192.454 228.661 192.711 228.222 192.888C227.793 193.056 227.312 193.14 226.78 193.14C226.286 193.14 225.828 193.056 225.408 192.888C224.988 192.711 224.624 192.454 224.316 192.118C224.008 191.782 223.766 191.376 223.588 190.9C223.42 190.415 223.336 189.859 223.336 189.234C223.336 188.403 223.476 187.703 223.756 187.134C224.036 186.555 224.438 186.117 224.96 185.818C225.483 185.51 226.104 185.356 226.822 185.356C227.504 185.356 228.101 185.51 228.614 185.818C229.137 186.117 229.543 186.555 229.832 187.134C230.131 187.703 230.28 188.403 230.28 189.234ZM224.61 189.234C224.61 189.822 224.685 190.335 224.834 190.774C224.993 191.203 225.236 191.535 225.562 191.768C225.889 192.001 226.304 192.118 226.808 192.118C227.312 192.118 227.728 192.001 228.054 191.768C228.381 191.535 228.619 191.203 228.768 190.774C228.927 190.335 229.006 189.822 229.006 189.234C229.006 188.637 228.927 188.128 228.768 187.708C228.61 187.288 228.367 186.966 228.04 186.742C227.723 186.509 227.308 186.392 226.794 186.392C226.029 186.392 225.474 186.644 225.128 187.148C224.783 187.652 224.61 188.347 224.61 189.234ZM238.505 185.496V193H237.497L237.315 192.006H237.259C237.1 192.267 236.895 192.482 236.643 192.65C236.391 192.818 236.116 192.939 235.817 193.014C235.518 193.098 235.206 193.14 234.879 193.14C234.282 193.14 233.778 193.047 233.367 192.86C232.966 192.664 232.662 192.365 232.457 191.964C232.252 191.563 232.149 191.045 232.149 190.41V185.496H233.395V190.326C233.395 190.923 233.53 191.371 233.801 191.67C234.072 191.969 234.492 192.118 235.061 192.118C235.621 192.118 236.06 192.015 236.377 191.81C236.704 191.595 236.932 191.287 237.063 190.886C237.203 190.475 237.273 189.981 237.273 189.402V185.496H238.505ZM244.387 185.356C244.527 185.356 244.677 185.365 244.835 185.384C245.003 185.393 245.148 185.412 245.269 185.44L245.115 186.574C244.994 186.546 244.859 186.523 244.709 186.504C244.569 186.485 244.434 186.476 244.303 186.476C244.014 186.476 243.739 186.537 243.477 186.658C243.216 186.779 242.983 186.952 242.777 187.176C242.572 187.391 242.409 187.652 242.287 187.96C242.175 188.268 242.119 188.613 242.119 188.996V193H240.887V185.496H241.895L242.035 186.868H242.091C242.25 186.588 242.441 186.336 242.665 186.112C242.889 185.879 243.146 185.697 243.435 185.566C243.725 185.426 244.042 185.356 244.387 185.356ZM256.579 185.496V193H255.571L255.389 192.006H255.333C255.175 192.267 254.969 192.482 254.717 192.65C254.465 192.818 254.19 192.939 253.891 193.014C253.593 193.098 253.28 193.14 252.953 193.14C252.356 193.14 251.852 193.047 251.441 192.86C251.04 192.664 250.737 192.365 250.531 191.964C250.326 191.563 250.223 191.045 250.223 190.41V185.496H251.469V190.326C251.469 190.923 251.605 191.371 251.875 191.67C252.146 191.969 252.566 192.118 253.135 192.118C253.695 192.118 254.134 192.015 254.451 191.81C254.778 191.595 255.007 191.287 255.137 190.886C255.277 190.475 255.347 189.981 255.347 189.402V185.496H256.579ZM262.531 185.356C263.455 185.356 264.197 185.678 264.757 186.322C265.327 186.966 265.611 187.937 265.611 189.234C265.611 190.083 265.481 190.802 265.219 191.39C264.967 191.969 264.608 192.407 264.141 192.706C263.684 192.995 263.143 193.14 262.517 193.14C262.135 193.14 261.794 193.089 261.495 192.986C261.197 192.883 260.94 192.753 260.725 192.594C260.52 192.426 260.343 192.244 260.193 192.048H260.109C260.128 192.207 260.147 192.407 260.165 192.65C260.184 192.893 260.193 193.103 260.193 193.28V196.36H258.961V185.496H259.969L260.137 186.518H260.193C260.343 186.303 260.52 186.107 260.725 185.93C260.94 185.753 261.192 185.613 261.481 185.51C261.78 185.407 262.13 185.356 262.531 185.356ZM262.307 186.392C261.803 186.392 261.397 186.49 261.089 186.686C260.781 186.873 260.557 187.157 260.417 187.54C260.277 187.923 260.203 188.408 260.193 188.996V189.234C260.193 189.85 260.259 190.373 260.389 190.802C260.52 191.231 260.739 191.558 261.047 191.782C261.365 192.006 261.794 192.118 262.335 192.118C262.793 192.118 263.166 191.992 263.455 191.74C263.754 191.488 263.973 191.147 264.113 190.718C264.263 190.279 264.337 189.78 264.337 189.22C264.337 188.361 264.169 187.675 263.833 187.162C263.507 186.649 262.998 186.392 262.307 186.392ZM270.585 193.14C269.922 193.14 269.329 193.005 268.807 192.734C268.293 192.463 267.887 192.043 267.589 191.474C267.299 190.905 267.155 190.177 267.155 189.29C267.155 188.366 267.309 187.615 267.617 187.036C267.925 186.457 268.34 186.033 268.863 185.762C269.395 185.491 269.997 185.356 270.669 185.356C271.051 185.356 271.42 185.398 271.775 185.482C272.129 185.557 272.419 185.65 272.643 185.762L272.265 186.784C272.041 186.7 271.779 186.621 271.481 186.546C271.182 186.471 270.902 186.434 270.641 186.434C270.137 186.434 269.721 186.541 269.395 186.756C269.068 186.971 268.825 187.288 268.667 187.708C268.508 188.128 268.429 188.651 268.429 189.276C268.429 189.873 268.508 190.382 268.667 190.802C268.825 191.222 269.063 191.539 269.381 191.754C269.698 191.969 270.095 192.076 270.571 192.076C270.981 192.076 271.341 192.034 271.649 191.95C271.966 191.866 272.255 191.763 272.517 191.642V192.734C272.265 192.865 271.985 192.963 271.677 193.028C271.378 193.103 271.014 193.14 270.585 193.14ZM280.825 189.234C280.825 189.859 280.741 190.415 280.573 190.9C280.415 191.376 280.181 191.782 279.873 192.118C279.575 192.454 279.206 192.711 278.767 192.888C278.338 193.056 277.857 193.14 277.325 193.14C276.831 193.14 276.373 193.056 275.953 192.888C275.533 192.711 275.169 192.454 274.861 192.118C274.553 191.782 274.311 191.376 274.133 190.9C273.965 190.415 273.881 189.859 273.881 189.234C273.881 188.403 274.021 187.703 274.301 187.134C274.581 186.555 274.983 186.117 275.505 185.818C276.028 185.51 276.649 185.356 277.367 185.356C278.049 185.356 278.646 185.51 279.159 185.818C279.682 186.117 280.088 186.555 280.377 187.134C280.676 187.703 280.825 188.403 280.825 189.234ZM275.155 189.234C275.155 189.822 275.23 190.335 275.379 190.774C275.538 191.203 275.781 191.535 276.107 191.768C276.434 192.001 276.849 192.118 277.353 192.118C277.857 192.118 278.273 192.001 278.599 191.768C278.926 191.535 279.164 191.203 279.313 190.774C279.472 190.335 279.551 189.822 279.551 189.234C279.551 188.637 279.472 188.128 279.313 187.708C279.155 187.288 278.912 186.966 278.585 186.742C278.268 186.509 277.853 186.392 277.339 186.392C276.574 186.392 276.019 186.644 275.673 187.148C275.328 187.652 275.155 188.347 275.155 189.234ZM291.01 185.356C291.859 185.356 292.494 185.575 292.914 186.014C293.334 186.443 293.544 187.143 293.544 188.114V193H292.326V188.17C292.326 187.582 292.2 187.139 291.948 186.84C291.705 186.541 291.323 186.392 290.8 186.392C290.072 186.392 289.549 186.602 289.232 187.022C288.924 187.442 288.77 188.053 288.77 188.856V193H287.552V188.17C287.552 187.778 287.496 187.451 287.384 187.19C287.272 186.919 287.104 186.719 286.88 186.588C286.656 186.457 286.367 186.392 286.012 186.392C285.508 186.392 285.111 186.499 284.822 186.714C284.533 186.919 284.323 187.223 284.192 187.624C284.071 188.025 284.01 188.52 284.01 189.108V193H282.778V185.496H283.772L283.954 186.518H284.024C284.183 186.257 284.374 186.042 284.598 185.874C284.831 185.697 285.088 185.566 285.368 185.482C285.648 185.398 285.937 185.356 286.236 185.356C286.815 185.356 287.295 185.459 287.678 185.664C288.07 185.869 288.355 186.187 288.532 186.616H288.602C288.854 186.187 289.195 185.869 289.624 185.664C290.063 185.459 290.525 185.356 291.01 185.356ZM297.094 185.496V193H295.862V185.496H297.094ZM296.492 182.682C296.679 182.682 296.842 182.747 296.982 182.878C297.131 182.999 297.206 183.195 297.206 183.466C297.206 183.727 297.131 183.923 296.982 184.054C296.842 184.185 296.679 184.25 296.492 184.25C296.287 184.25 296.114 184.185 295.974 184.054C295.834 183.923 295.764 183.727 295.764 183.466C295.764 183.195 295.834 182.999 295.974 182.878C296.114 182.747 296.287 182.682 296.492 182.682ZM303.083 185.356C303.979 185.356 304.656 185.575 305.113 186.014C305.571 186.443 305.799 187.143 305.799 188.114V193H304.581V188.198C304.581 187.591 304.446 187.139 304.175 186.84C303.905 186.541 303.48 186.392 302.901 186.392C302.071 186.392 301.497 186.625 301.179 187.092C300.862 187.559 300.703 188.231 300.703 189.108V193H299.471V185.496H300.465L300.647 186.518H300.717C300.885 186.257 301.091 186.042 301.333 185.874C301.585 185.697 301.861 185.566 302.159 185.482C302.458 185.398 302.766 185.356 303.083 185.356ZM310.786 185.356C311.28 185.356 311.724 185.449 312.116 185.636C312.517 185.823 312.858 186.107 313.138 186.49H313.208L313.376 185.496H314.356V193.126C314.356 193.835 314.234 194.428 313.992 194.904C313.749 195.389 313.38 195.753 312.886 195.996C312.391 196.239 311.761 196.36 310.996 196.36C310.454 196.36 309.955 196.318 309.498 196.234C309.05 196.159 308.648 196.043 308.294 195.884V194.75C308.536 194.871 308.802 194.974 309.092 195.058C309.381 195.151 309.694 195.221 310.03 195.268C310.366 195.315 310.711 195.338 311.066 195.338C311.71 195.338 312.214 195.147 312.578 194.764C312.951 194.391 313.138 193.877 313.138 193.224V192.93C313.138 192.818 313.142 192.659 313.152 192.454C313.161 192.239 313.17 192.09 313.18 192.006H313.124C312.862 192.389 312.536 192.673 312.144 192.86C311.761 193.047 311.313 193.14 310.8 193.14C309.829 193.14 309.068 192.799 308.518 192.118C307.976 191.437 307.706 190.485 307.706 189.262C307.706 188.459 307.827 187.769 308.07 187.19C308.322 186.602 308.676 186.149 309.134 185.832C309.591 185.515 310.142 185.356 310.786 185.356ZM310.954 186.392C310.534 186.392 310.174 186.504 309.876 186.728C309.586 186.952 309.362 187.279 309.204 187.708C309.054 188.137 308.98 188.66 308.98 189.276C308.98 190.2 309.148 190.909 309.484 191.404C309.829 191.889 310.328 192.132 310.982 192.132C311.364 192.132 311.691 192.085 311.962 191.992C312.232 191.889 312.456 191.735 312.634 191.53C312.811 191.315 312.942 191.045 313.026 190.718C313.11 190.391 313.152 190.004 313.152 189.556V189.262C313.152 188.581 313.072 188.03 312.914 187.61C312.764 187.19 312.526 186.882 312.2 186.686C311.873 186.49 311.458 186.392 310.954 186.392ZM82.032 206.37C82.9467 206.37 83.6233 206.571 84.062 206.972C84.5007 207.373 84.72 208.013 84.72 208.89V214H83.824L83.586 212.936H83.53C83.3153 213.207 83.0913 213.435 82.858 213.622C82.634 213.799 82.3727 213.93 82.074 214.014C81.7847 214.098 81.43 214.14 81.01 214.14C80.562 214.14 80.156 214.061 79.792 213.902C79.4373 213.743 79.1573 213.501 78.952 213.174C78.7467 212.838 78.644 212.418 78.644 211.914C78.644 211.167 78.938 210.593 79.526 210.192C80.114 209.781 81.0193 209.557 82.242 209.52L83.516 209.478V209.03C83.516 208.405 83.3807 207.971 83.11 207.728C82.8393 207.485 82.4567 207.364 81.962 207.364C81.57 207.364 81.1967 207.425 80.842 207.546C80.4873 207.658 80.156 207.789 79.848 207.938L79.47 207.014C79.7967 206.837 80.184 206.687 80.632 206.566C81.08 206.435 81.5467 206.37 82.032 206.37ZM82.396 210.374C81.4627 210.411 80.814 210.561 80.45 210.822C80.0953 211.083 79.918 211.452 79.918 211.928C79.918 212.348 80.044 212.656 80.296 212.852C80.5573 213.048 80.8887 213.146 81.29 213.146C81.9247 213.146 82.452 212.973 82.872 212.628C83.292 212.273 83.502 211.732 83.502 211.004V210.332L82.396 210.374ZM90.6077 206.356C91.5317 206.356 92.2737 206.678 92.8337 207.322C93.403 207.966 93.6877 208.937 93.6877 210.234C93.6877 211.083 93.557 211.802 93.2957 212.39C93.0437 212.969 92.6843 213.407 92.2177 213.706C91.7603 213.995 91.219 214.14 90.5937 214.14C90.211 214.14 89.8703 214.089 89.5717 213.986C89.273 213.883 89.0163 213.753 88.8017 213.594C88.5963 213.426 88.419 213.244 88.2697 213.048H88.1857C88.2043 213.207 88.223 213.407 88.2417 213.65C88.2603 213.893 88.2697 214.103 88.2697 214.28V217.36H87.0377V206.496H88.0457L88.2137 207.518H88.2697C88.419 207.303 88.5963 207.107 88.8017 206.93C89.0163 206.753 89.2683 206.613 89.5577 206.51C89.8563 206.407 90.2063 206.356 90.6077 206.356ZM90.3837 207.392C89.8797 207.392 89.4737 207.49 89.1657 207.686C88.8577 207.873 88.6337 208.157 88.4937 208.54C88.3537 208.923 88.279 209.408 88.2697 209.996V210.234C88.2697 210.85 88.335 211.373 88.4657 211.802C88.5963 212.231 88.8157 212.558 89.1237 212.782C89.441 213.006 89.8703 213.118 90.4117 213.118C90.869 213.118 91.2423 212.992 91.5317 212.74C91.8303 212.488 92.0497 212.147 92.1897 211.718C92.339 211.279 92.4137 210.78 92.4137 210.22C92.4137 209.361 92.2457 208.675 91.9097 208.162C91.583 207.649 91.0743 207.392 90.3837 207.392ZM99.2209 206.356C100.145 206.356 100.887 206.678 101.447 207.322C102.016 207.966 102.301 208.937 102.301 210.234C102.301 211.083 102.17 211.802 101.909 212.39C101.657 212.969 101.298 213.407 100.831 213.706C100.374 213.995 99.8323 214.14 99.2069 214.14C98.8243 214.14 98.4836 214.089 98.1849 213.986C97.8863 213.883 97.6296 213.753 97.4149 213.594C97.2096 213.426 97.0323 213.244 96.8829 213.048H96.7989C96.8176 213.207 96.8363 213.407 96.8549 213.65C96.8736 213.893 96.8829 214.103 96.8829 214.28V217.36H95.6509V206.496H96.6589L96.8269 207.518H96.8829C97.0323 207.303 97.2096 207.107 97.4149 206.93C97.6296 206.753 97.8816 206.613 98.1709 206.51C98.4696 206.407 98.8196 206.356 99.2209 206.356ZM98.9969 207.392C98.4929 207.392 98.0869 207.49 97.7789 207.686C97.4709 207.873 97.2469 208.157 97.1069 208.54C96.9669 208.923 96.8923 209.408 96.8829 209.996V210.234C96.8829 210.85 96.9483 211.373 97.0789 211.802C97.2096 212.231 97.4289 212.558 97.7369 212.782C98.0543 213.006 98.4836 213.118 99.0249 213.118C99.4823 213.118 99.8556 212.992 100.145 212.74C100.444 212.488 100.663 212.147 100.803 211.718C100.952 211.279 101.027 210.78 101.027 210.22C101.027 209.361 100.859 208.675 100.523 208.162C100.196 207.649 99.6876 207.392 98.9969 207.392ZM110.788 210.234C110.788 210.859 110.704 211.415 110.536 211.9C110.378 212.376 110.144 212.782 109.836 213.118C109.538 213.454 109.169 213.711 108.73 213.888C108.301 214.056 107.82 214.14 107.288 214.14C106.794 214.14 106.336 214.056 105.916 213.888C105.496 213.711 105.132 213.454 104.824 213.118C104.516 212.782 104.274 212.376 104.096 211.9C103.928 211.415 103.844 210.859 103.844 210.234C103.844 209.403 103.984 208.703 104.264 208.134C104.544 207.555 104.946 207.117 105.468 206.818C105.991 206.51 106.612 206.356 107.33 206.356C108.012 206.356 108.609 206.51 109.122 206.818C109.645 207.117 110.051 207.555 110.34 208.134C110.639 208.703 110.788 209.403 110.788 210.234ZM105.118 210.234C105.118 210.822 105.193 211.335 105.342 211.774C105.501 212.203 105.744 212.535 106.07 212.768C106.397 213.001 106.812 213.118 107.316 213.118C107.82 213.118 108.236 213.001 108.562 212.768C108.889 212.535 109.127 212.203 109.276 211.774C109.435 211.335 109.514 210.822 109.514 210.234C109.514 209.637 109.435 209.128 109.276 208.708C109.118 208.288 108.875 207.966 108.548 207.742C108.231 207.509 107.816 207.392 107.302 207.392C106.537 207.392 105.982 207.644 105.636 208.148C105.291 208.652 105.118 209.347 105.118 210.234ZM113.973 206.496V214H112.741V206.496H113.973ZM113.371 203.682C113.557 203.682 113.721 203.747 113.861 203.878C114.01 203.999 114.085 204.195 114.085 204.466C114.085 204.727 114.01 204.923 113.861 205.054C113.721 205.185 113.557 205.25 113.371 205.25C113.165 205.25 112.993 205.185 112.853 205.054C112.713 204.923 112.643 204.727 112.643 204.466C112.643 204.195 112.713 203.999 112.853 203.878C112.993 203.747 113.165 203.682 113.371 203.682ZM119.962 206.356C120.858 206.356 121.535 206.575 121.992 207.014C122.449 207.443 122.678 208.143 122.678 209.114V214H121.46V209.198C121.46 208.591 121.325 208.139 121.054 207.84C120.783 207.541 120.359 207.392 119.78 207.392C118.949 207.392 118.375 207.625 118.058 208.092C117.741 208.559 117.582 209.231 117.582 210.108V214H116.35V206.496H117.344L117.526 207.518H117.596C117.764 207.257 117.969 207.042 118.212 206.874C118.464 206.697 118.739 206.566 119.038 206.482C119.337 206.398 119.645 206.356 119.962 206.356ZM127.51 213.132C127.697 213.132 127.888 213.118 128.084 213.09C128.28 213.053 128.439 213.015 128.56 212.978V213.916C128.43 213.981 128.243 214.033 128 214.07C127.758 214.117 127.524 214.14 127.3 214.14C126.908 214.14 126.544 214.075 126.208 213.944C125.882 213.804 125.616 213.566 125.41 213.23C125.205 212.894 125.102 212.423 125.102 211.816V207.448H124.038V206.86L125.116 206.37L125.606 204.774H126.334V206.496H128.504V207.448H126.334V211.788C126.334 212.245 126.442 212.586 126.656 212.81C126.88 213.025 127.165 213.132 127.51 213.132ZM138.295 206.356C139.144 206.356 139.779 206.575 140.199 207.014C140.619 207.443 140.829 208.143 140.829 209.114V214H139.611V209.17C139.611 208.582 139.485 208.139 139.233 207.84C138.99 207.541 138.608 207.392 138.085 207.392C137.357 207.392 136.834 207.602 136.517 208.022C136.209 208.442 136.055 209.053 136.055 209.856V214H134.837V209.17C134.837 208.778 134.781 208.451 134.669 208.19C134.557 207.919 134.389 207.719 134.165 207.588C133.941 207.457 133.652 207.392 133.297 207.392C132.793 207.392 132.396 207.499 132.107 207.714C131.818 207.919 131.608 208.223 131.477 208.624C131.356 209.025 131.295 209.52 131.295 210.108V214H130.063V206.496H131.057L131.239 207.518H131.309C131.468 207.257 131.659 207.042 131.883 206.874C132.116 206.697 132.373 206.566 132.653 206.482C132.933 206.398 133.222 206.356 133.521 206.356C134.1 206.356 134.58 206.459 134.963 206.664C135.355 206.869 135.64 207.187 135.817 207.616H135.887C136.139 207.187 136.48 206.869 136.909 206.664C137.348 206.459 137.81 206.356 138.295 206.356ZM146.045 206.356C146.689 206.356 147.24 206.496 147.697 206.776C148.164 207.056 148.518 207.453 148.761 207.966C149.013 208.47 149.139 209.063 149.139 209.744V210.486H144.001C144.02 211.335 144.234 211.984 144.645 212.432C145.065 212.871 145.648 213.09 146.395 213.09C146.871 213.09 147.291 213.048 147.655 212.964C148.028 212.871 148.411 212.74 148.803 212.572V213.65C148.42 213.818 148.042 213.939 147.669 214.014C147.296 214.098 146.852 214.14 146.339 214.14C145.63 214.14 145 213.995 144.449 213.706C143.908 213.417 143.483 212.987 143.175 212.418C142.876 211.839 142.727 211.135 142.727 210.304C142.727 209.483 142.862 208.778 143.133 208.19C143.413 207.602 143.8 207.149 144.295 206.832C144.799 206.515 145.382 206.356 146.045 206.356ZM146.031 207.364C145.443 207.364 144.976 207.555 144.631 207.938C144.295 208.311 144.094 208.834 144.029 209.506H147.851C147.851 209.077 147.786 208.703 147.655 208.386C147.524 208.069 147.324 207.821 147.053 207.644C146.792 207.457 146.451 207.364 146.031 207.364ZM154.661 206.356C155.557 206.356 156.234 206.575 156.691 207.014C157.149 207.443 157.377 208.143 157.377 209.114V214H156.159V209.198C156.159 208.591 156.024 208.139 155.753 207.84C155.483 207.541 155.058 207.392 154.479 207.392C153.649 207.392 153.075 207.625 152.757 208.092C152.44 208.559 152.281 209.231 152.281 210.108V214H151.049V206.496H152.043L152.225 207.518H152.295C152.463 207.257 152.669 207.042 152.911 206.874C153.163 206.697 153.439 206.566 153.737 206.482C154.036 206.398 154.344 206.356 154.661 206.356ZM162.21 213.132C162.396 213.132 162.588 213.118 162.784 213.09C162.98 213.053 163.138 213.015 163.26 212.978V213.916C163.129 213.981 162.942 214.033 162.7 214.07C162.457 214.117 162.224 214.14 162 214.14C161.608 214.14 161.244 214.075 160.908 213.944C160.581 213.804 160.315 213.566 160.11 213.23C159.904 212.894 159.802 212.423 159.802 211.816V207.448H158.738V206.86L159.816 206.37L160.306 204.774H161.034V206.496H163.204V207.448H161.034V211.788C161.034 212.245 161.141 212.586 161.356 212.81C161.58 213.025 161.864 213.132 162.21 213.132ZM174.923 210.234C174.923 210.859 174.839 211.415 174.671 211.9C174.512 212.376 174.279 212.782 173.971 213.118C173.672 213.454 173.304 213.711 172.865 213.888C172.436 214.056 171.955 214.14 171.423 214.14C170.928 214.14 170.471 214.056 170.051 213.888C169.631 213.711 169.267 213.454 168.959 213.118C168.651 212.782 168.408 212.376 168.231 211.9C168.063 211.415 167.979 210.859 167.979 210.234C167.979 209.403 168.119 208.703 168.399 208.134C168.679 207.555 169.08 207.117 169.603 206.818C170.126 206.51 170.746 206.356 171.465 206.356C172.146 206.356 172.744 206.51 173.257 206.818C173.78 207.117 174.186 207.555 174.475 208.134C174.774 208.703 174.923 209.403 174.923 210.234ZM169.253 210.234C169.253 210.822 169.328 211.335 169.477 211.774C169.636 212.203 169.878 212.535 170.205 212.768C170.532 213.001 170.947 213.118 171.451 213.118C171.955 213.118 172.37 213.001 172.697 212.768C173.024 212.535 173.262 212.203 173.411 211.774C173.57 211.335 173.649 210.822 173.649 210.234C173.649 209.637 173.57 209.128 173.411 208.708C173.252 208.288 173.01 207.966 172.683 207.742C172.366 207.509 171.95 207.392 171.437 207.392C170.672 207.392 170.116 207.644 169.771 208.148C169.426 208.652 169.253 209.347 169.253 210.234ZM180.488 206.356C181.384 206.356 182.06 206.575 182.518 207.014C182.975 207.443 183.204 208.143 183.204 209.114V214H181.986V209.198C181.986 208.591 181.85 208.139 181.58 207.84C181.309 207.541 180.884 207.392 180.306 207.392C179.475 207.392 178.901 207.625 178.584 208.092C178.266 208.559 178.108 209.231 178.108 210.108V214H176.876V206.496H177.87L178.052 207.518H178.122C178.29 207.257 178.495 207.042 178.738 206.874C178.99 206.697 179.265 206.566 179.564 206.482C179.862 206.398 180.17 206.356 180.488 206.356ZM188.537 210.164C188.537 209.399 188.607 208.652 188.747 207.924C188.896 207.196 189.125 206.501 189.433 205.838C189.741 205.175 190.128 204.564 190.595 204.004H191.757C191.327 204.583 190.963 205.208 190.665 205.88C190.375 206.552 190.156 207.247 190.007 207.966C189.857 208.685 189.783 209.413 189.783 210.15C189.783 210.869 189.857 211.583 190.007 212.292C190.156 213.001 190.375 213.683 190.665 214.336C190.954 214.999 191.313 215.624 191.743 216.212H190.595C190.128 215.661 189.741 215.059 189.433 214.406C189.125 213.762 188.896 213.081 188.747 212.362C188.607 211.643 188.537 210.911 188.537 210.164ZM192.734 210.164C192.734 209.399 192.804 208.652 192.944 207.924C193.093 207.196 193.322 206.501 193.63 205.838C193.938 205.175 194.325 204.564 194.792 204.004H195.954C195.524 204.583 195.16 205.208 194.862 205.88C194.572 206.552 194.353 207.247 194.204 207.966C194.054 208.685 193.98 209.413 193.98 210.15C193.98 210.869 194.054 211.583 194.204 212.292C194.353 213.001 194.572 213.683 194.862 214.336C195.151 214.999 195.51 215.624 195.94 216.212H194.792C194.325 215.661 193.938 215.059 193.63 214.406C193.322 213.762 193.093 213.081 192.944 212.362C192.804 211.643 192.734 210.911 192.734 210.164ZM200.221 214.14C199.288 214.14 198.541 213.818 197.981 213.174C197.421 212.521 197.141 211.55 197.141 210.262C197.141 208.974 197.421 208.003 197.981 207.35C198.55 206.687 199.302 206.356 200.235 206.356C200.627 206.356 200.968 206.407 201.257 206.51C201.546 206.603 201.798 206.734 202.013 206.902C202.228 207.07 202.41 207.257 202.559 207.462H202.643C202.634 207.341 202.615 207.163 202.587 206.93C202.568 206.687 202.559 206.496 202.559 206.356V203.36H203.791V214H202.797L202.615 212.992H202.559C202.41 213.207 202.228 213.403 202.013 213.58C201.798 213.748 201.542 213.883 201.243 213.986C200.954 214.089 200.613 214.14 200.221 214.14ZM200.417 213.118C201.21 213.118 201.766 212.903 202.083 212.474C202.41 212.035 202.573 211.377 202.573 210.5V210.276C202.573 209.343 202.419 208.629 202.111 208.134C201.803 207.63 201.234 207.378 200.403 207.378C199.74 207.378 199.241 207.644 198.905 208.176C198.578 208.699 198.415 209.403 198.415 210.29C198.415 211.186 198.578 211.881 198.905 212.376C199.241 212.871 199.745 213.118 200.417 213.118ZM209.016 206.37C209.931 206.37 210.608 206.571 211.046 206.972C211.485 207.373 211.704 208.013 211.704 208.89V214H210.808L210.57 212.936H210.514C210.3 213.207 210.076 213.435 209.842 213.622C209.618 213.799 209.357 213.93 209.058 214.014C208.769 214.098 208.414 214.14 207.994 214.14C207.546 214.14 207.14 214.061 206.776 213.902C206.422 213.743 206.142 213.501 205.936 213.174C205.731 212.838 205.628 212.418 205.628 211.914C205.628 211.167 205.922 210.593 206.51 210.192C207.098 209.781 208.004 209.557 209.226 209.52L210.5 209.478V209.03C210.5 208.405 210.365 207.971 210.094 207.728C209.824 207.485 209.441 207.364 208.946 207.364C208.554 207.364 208.181 207.425 207.826 207.546C207.472 207.658 207.14 207.789 206.832 207.938L206.454 207.014C206.781 206.837 207.168 206.687 207.616 206.566C208.064 206.435 208.531 206.37 209.016 206.37ZM209.38 210.374C208.447 210.411 207.798 210.561 207.434 210.822C207.08 211.083 206.902 211.452 206.902 211.928C206.902 212.348 207.028 212.656 207.28 212.852C207.542 213.048 207.873 213.146 208.274 213.146C208.909 213.146 209.436 212.973 209.856 212.628C210.276 212.273 210.486 211.732 210.486 211.004V210.332L209.38 210.374ZM216.528 213.132C216.715 213.132 216.906 213.118 217.102 213.09C217.298 213.053 217.457 213.015 217.578 212.978V213.916C217.447 213.981 217.261 214.033 217.018 214.07C216.775 214.117 216.542 214.14 216.318 214.14C215.926 214.14 215.562 214.075 215.226 213.944C214.899 213.804 214.633 213.566 214.428 213.23C214.223 212.894 214.12 212.423 214.12 211.816V207.448H213.056V206.86L214.134 206.37L214.624 204.774H215.352V206.496H217.522V207.448H215.352V211.788C215.352 212.245 215.459 212.586 215.674 212.81C215.898 213.025 216.183 213.132 216.528 213.132ZM221.979 206.356C222.623 206.356 223.173 206.496 223.631 206.776C224.097 207.056 224.452 207.453 224.695 207.966C224.947 208.47 225.073 209.063 225.073 209.744V210.486H219.935C219.953 211.335 220.168 211.984 220.579 212.432C220.999 212.871 221.582 213.09 222.329 213.09C222.805 213.09 223.225 213.048 223.589 212.964C223.962 212.871 224.345 212.74 224.737 212.572V213.65C224.354 213.818 223.976 213.939 223.603 214.014C223.229 214.098 222.786 214.14 222.273 214.14C221.563 214.14 220.933 213.995 220.383 213.706C219.841 213.417 219.417 212.987 219.109 212.418C218.81 211.839 218.661 211.135 218.661 210.304C218.661 209.483 218.796 208.778 219.067 208.19C219.347 207.602 219.734 207.149 220.229 206.832C220.733 206.515 221.316 206.356 221.979 206.356ZM221.965 207.364C221.377 207.364 220.91 207.555 220.565 207.938C220.229 208.311 220.028 208.834 219.963 209.506H223.785C223.785 209.077 223.719 208.703 223.589 208.386C223.458 208.069 223.257 207.821 222.987 207.644C222.725 207.457 222.385 207.364 221.965 207.364ZM229.433 210.164C229.433 210.911 229.358 211.643 229.209 212.362C229.069 213.081 228.845 213.762 228.537 214.406C228.238 215.059 227.851 215.661 227.375 216.212H226.227C226.656 215.624 227.016 214.999 227.305 214.336C227.594 213.683 227.814 213.001 227.963 212.292C228.112 211.583 228.187 210.869 228.187 210.15C228.187 209.413 228.112 208.685 227.963 207.966C227.814 207.247 227.594 206.552 227.305 205.88C227.016 205.208 226.652 204.583 226.213 204.004H227.375C227.851 204.564 228.238 205.175 228.537 205.838C228.845 206.501 229.069 207.196 229.209 207.924C229.358 208.652 229.433 209.399 229.433 210.164ZM233.63 210.164C233.63 210.911 233.556 211.643 233.406 212.362C233.266 213.081 233.042 213.762 232.734 214.406C232.436 215.059 232.048 215.661 231.572 216.212H230.424C230.854 215.624 231.213 214.999 231.502 214.336C231.792 213.683 232.011 213.001 232.16 212.292C232.31 211.583 232.384 210.869 232.384 210.15C232.384 209.413 232.31 208.685 232.16 207.966C232.011 207.247 231.792 206.552 231.502 205.88C231.213 205.208 230.849 204.583 230.41 204.004H231.572C232.048 204.564 232.436 205.175 232.734 205.838C233.042 206.501 233.266 207.196 233.406 207.924C233.556 208.652 233.63 209.399 233.63 210.164ZM241.856 206.37C242.771 206.37 243.448 206.571 243.886 206.972C244.325 207.373 244.544 208.013 244.544 208.89V214H243.648L243.41 212.936H243.354C243.14 213.207 242.916 213.435 242.682 213.622C242.458 213.799 242.197 213.93 241.898 214.014C241.609 214.098 241.254 214.14 240.834 214.14C240.386 214.14 239.98 214.061 239.616 213.902C239.262 213.743 238.982 213.501 238.776 213.174C238.571 212.838 238.468 212.418 238.468 211.914C238.468 211.167 238.762 210.593 239.35 210.192C239.938 209.781 240.844 209.557 242.066 209.52L243.34 209.478V209.03C243.34 208.405 243.205 207.971 242.934 207.728C242.664 207.485 242.281 207.364 241.786 207.364C241.394 207.364 241.021 207.425 240.666 207.546C240.312 207.658 239.98 207.789 239.672 207.938L239.294 207.014C239.621 206.837 240.008 206.687 240.456 206.566C240.904 206.435 241.371 206.37 241.856 206.37ZM242.22 210.374C241.287 210.411 240.638 210.561 240.274 210.822C239.92 211.083 239.742 211.452 239.742 211.928C239.742 212.348 239.868 212.656 240.12 212.852C240.382 213.048 240.713 213.146 241.114 213.146C241.749 213.146 242.276 212.973 242.696 212.628C243.116 212.273 243.326 211.732 243.326 211.004V210.332L242.22 210.374ZM249.368 213.132C249.555 213.132 249.746 213.118 249.942 213.09C250.138 213.053 250.297 213.015 250.418 212.978V213.916C250.287 213.981 250.101 214.033 249.858 214.07C249.615 214.117 249.382 214.14 249.158 214.14C248.766 214.14 248.402 214.075 248.066 213.944C247.739 213.804 247.473 213.566 247.268 213.23C247.063 212.894 246.96 212.423 246.96 211.816V207.448H245.896V206.86L246.974 206.37L247.464 204.774H248.192V206.496H250.362V207.448H248.192V211.788C248.192 212.245 248.299 212.586 248.514 212.81C248.738 213.025 249.023 213.132 249.368 213.132ZM254.927 210.164C254.927 209.399 254.997 208.652 255.137 207.924C255.287 207.196 255.515 206.501 255.823 205.838C256.131 205.175 256.519 204.564 256.985 204.004H258.147C257.718 204.583 257.354 205.208 257.055 205.88C256.766 206.552 256.547 207.247 256.397 207.966C256.248 208.685 256.173 209.413 256.173 210.15C256.173 210.869 256.248 211.583 256.397 212.292C256.547 213.001 256.766 213.683 257.055 214.336C257.345 214.999 257.704 215.624 258.133 216.212H256.985C256.519 215.661 256.131 215.059 255.823 214.406C255.515 213.762 255.287 213.081 255.137 212.362C254.997 211.643 254.927 210.911 254.927 210.164ZM259.124 210.164C259.124 209.399 259.194 208.652 259.334 207.924C259.484 207.196 259.712 206.501 260.02 205.838C260.328 205.175 260.716 204.564 261.182 204.004H262.344C261.915 204.583 261.551 205.208 261.252 205.88C260.963 206.552 260.744 207.247 260.594 207.966C260.445 208.685 260.37 209.413 260.37 210.15C260.37 210.869 260.445 211.583 260.594 212.292C260.744 213.001 260.963 213.683 261.252 214.336C261.542 214.999 261.901 215.624 262.33 216.212H261.182C260.716 215.661 260.328 215.059 260.02 214.406C259.712 213.762 259.484 213.081 259.334 212.362C259.194 211.643 259.124 210.911 259.124 210.164ZM266.458 213.132C266.644 213.132 266.836 213.118 267.032 213.09C267.228 213.053 267.386 213.015 267.508 212.978V213.916C267.377 213.981 267.19 214.033 266.948 214.07C266.705 214.117 266.472 214.14 266.248 214.14C265.856 214.14 265.492 214.075 265.156 213.944C264.829 213.804 264.563 213.566 264.358 213.23C264.152 212.894 264.05 212.423 264.05 211.816V207.448H262.986V206.86L264.064 206.37L264.554 204.774H265.282V206.496H267.452V207.448H265.282V211.788C265.282 212.245 265.389 212.586 265.604 212.81C265.828 213.025 266.112 213.132 266.458 213.132ZM270.242 206.496V214H269.01V206.496H270.242ZM269.64 203.682C269.827 203.682 269.99 203.747 270.13 203.878C270.28 203.999 270.354 204.195 270.354 204.466C270.354 204.727 270.28 204.923 270.13 205.054C269.99 205.185 269.827 205.25 269.64 205.25C269.435 205.25 269.262 205.185 269.122 205.054C268.982 204.923 268.912 204.727 268.912 204.466C268.912 204.195 268.982 203.999 269.122 203.878C269.262 203.747 269.435 203.682 269.64 203.682ZM280.852 206.356C281.701 206.356 282.336 206.575 282.756 207.014C283.176 207.443 283.386 208.143 283.386 209.114V214H282.168V209.17C282.168 208.582 282.042 208.139 281.79 207.84C281.547 207.541 281.164 207.392 280.642 207.392C279.914 207.392 279.391 207.602 279.074 208.022C278.766 208.442 278.612 209.053 278.612 209.856V214H277.394V209.17C277.394 208.778 277.338 208.451 277.226 208.19C277.114 207.919 276.946 207.719 276.722 207.588C276.498 207.457 276.208 207.392 275.854 207.392C275.35 207.392 274.953 207.499 274.664 207.714C274.374 207.919 274.164 208.223 274.034 208.624C273.912 209.025 273.852 209.52 273.852 210.108V214H272.62V206.496H273.614L273.796 207.518H273.866C274.024 207.257 274.216 207.042 274.44 206.874C274.673 206.697 274.93 206.566 275.21 206.482C275.49 206.398 275.779 206.356 276.078 206.356C276.656 206.356 277.137 206.459 277.52 206.664C277.912 206.869 278.196 207.187 278.374 207.616H278.444C278.696 207.187 279.036 206.869 279.466 206.664C279.904 206.459 280.366 206.356 280.852 206.356ZM288.602 206.356C289.246 206.356 289.796 206.496 290.254 206.776C290.72 207.056 291.075 207.453 291.318 207.966C291.57 208.47 291.696 209.063 291.696 209.744V210.486H286.558C286.576 211.335 286.791 211.984 287.202 212.432C287.622 212.871 288.205 213.09 288.952 213.09C289.428 213.09 289.848 213.048 290.212 212.964C290.585 212.871 290.968 212.74 291.36 212.572V213.65C290.977 213.818 290.599 213.939 290.226 214.014C289.852 214.098 289.409 214.14 288.896 214.14C288.186 214.14 287.556 213.995 287.006 213.706C286.464 213.417 286.04 212.987 285.732 212.418C285.433 211.839 285.284 211.135 285.284 210.304C285.284 209.483 285.419 208.778 285.69 208.19C285.97 207.602 286.357 207.149 286.852 206.832C287.356 206.515 287.939 206.356 288.602 206.356ZM288.588 207.364C288 207.364 287.533 207.555 287.188 207.938C286.852 208.311 286.651 208.834 286.586 209.506H290.408C290.408 209.077 290.342 208.703 290.212 208.386C290.081 208.069 289.88 207.821 289.61 207.644C289.348 207.457 289.008 207.364 288.588 207.364ZM296.056 210.164C296.056 210.911 295.981 211.643 295.832 212.362C295.692 213.081 295.468 213.762 295.16 214.406C294.861 215.059 294.474 215.661 293.998 216.212H292.85C293.279 215.624 293.639 214.999 293.928 214.336C294.217 213.683 294.437 213.001 294.586 212.292C294.735 211.583 294.81 210.869 294.81 210.15C294.81 209.413 294.735 208.685 294.586 207.966C294.437 207.247 294.217 206.552 293.928 205.88C293.639 205.208 293.275 204.583 292.836 204.004H293.998C294.474 204.564 294.861 205.175 295.16 205.838C295.468 206.501 295.692 207.196 295.832 207.924C295.981 208.652 296.056 209.399 296.056 210.164ZM300.253 210.164C300.253 210.911 300.179 211.643 300.029 212.362C299.889 213.081 299.665 213.762 299.357 214.406C299.059 215.059 298.671 215.661 298.195 216.212H297.047C297.477 215.624 297.836 214.999 298.125 214.336C298.415 213.683 298.634 213.001 298.783 212.292C298.933 211.583 299.007 210.869 299.007 210.15C299.007 209.413 298.933 208.685 298.783 207.966C298.634 207.247 298.415 206.552 298.125 205.88C297.836 205.208 297.472 204.583 297.033 204.004H298.195C298.671 204.564 299.059 205.175 299.357 205.838C299.665 206.501 299.889 207.196 300.029 207.924C300.179 208.652 300.253 209.399 300.253 210.164ZM301.819 213.244C301.819 212.899 301.903 212.656 302.071 212.516C302.239 212.376 302.439 212.306 302.673 212.306C302.915 212.306 303.121 212.376 303.289 212.516C303.466 212.656 303.555 212.899 303.555 213.244C303.555 213.58 303.466 213.823 303.289 213.972C303.121 214.121 302.915 214.196 302.673 214.196C302.439 214.196 302.239 214.121 302.071 213.972C301.903 213.823 301.819 213.58 301.819 213.244Z" fill="black"/>
<rect x="68.5" y="125.5" width="311" height="103" stroke="#AFB9C3"/>
<rect x="66" y="123" width="316" height="108" stroke="#F6BE00" stroke-width="4"/>
<mask id="path-12-inside-1_7870_4465" fill="white">
<path d="M68 249H130V286H68V249Z"/>
</mask>
<path d="M68 249H130V286H68V249Z" fill="#26374A"/>
<path d="M90.07 270.298C90.07 270.895 89.9253 271.404 89.636 271.824C89.3467 272.244 88.9313 272.571 88.39 272.804C87.8487 273.028 87.2047 273.14 86.458 273.14C86.094 273.14 85.744 273.117 85.408 273.07C85.072 273.033 84.7593 272.977 84.47 272.902C84.1807 272.827 83.924 272.734 83.7 272.622V271.194C84.0733 271.362 84.512 271.516 85.016 271.656C85.52 271.787 86.0333 271.852 86.556 271.852C87.004 271.852 87.3773 271.791 87.676 271.67C87.9747 271.549 88.1987 271.381 88.348 271.166C88.4973 270.951 88.572 270.699 88.572 270.41C88.572 270.102 88.4927 269.845 88.334 269.64C88.1847 269.425 87.9467 269.229 87.62 269.052C87.3027 268.865 86.8733 268.669 86.332 268.464C85.9587 268.324 85.618 268.17 85.31 268.002C85.0113 267.825 84.7453 267.619 84.512 267.386C84.288 267.153 84.1153 266.882 83.994 266.574C83.8727 266.266 83.812 265.907 83.812 265.496C83.812 264.945 83.9473 264.474 84.218 264.082C84.498 263.69 84.8807 263.391 85.366 263.186C85.8513 262.971 86.416 262.864 87.06 262.864C87.6013 262.864 88.1007 262.92 88.558 263.032C89.0247 263.135 89.468 263.279 89.888 263.466L89.412 264.712C89.0293 264.553 88.642 264.423 88.25 264.32C87.858 264.217 87.4473 264.166 87.018 264.166C86.6447 264.166 86.332 264.222 86.08 264.334C85.828 264.446 85.6367 264.6 85.506 264.796C85.3847 264.992 85.324 265.221 85.324 265.482C85.324 265.79 85.394 266.047 85.534 266.252C85.674 266.457 85.898 266.649 86.206 266.826C86.514 266.994 86.92 267.181 87.424 267.386C87.984 267.601 88.46 267.834 88.852 268.086C89.2533 268.338 89.5567 268.641 89.762 268.996C89.9673 269.341 90.07 269.775 90.07 270.298ZM94.7853 265.314C95.7373 265.314 96.4466 265.524 96.9133 265.944C97.3799 266.355 97.6133 267.003 97.6133 267.89V273H96.5633L96.2693 271.95H96.2133C95.9986 272.221 95.7746 272.445 95.5413 272.622C95.3173 272.799 95.0559 272.93 94.7573 273.014C94.4679 273.098 94.1133 273.14 93.6933 273.14C93.2453 273.14 92.8393 273.061 92.4753 272.902C92.1206 272.734 91.8406 272.482 91.6353 272.146C91.4299 271.801 91.3273 271.371 91.3273 270.858C91.3273 270.093 91.6166 269.509 92.1953 269.108C92.7833 268.707 93.6746 268.487 94.8693 268.45L96.1573 268.408V267.988C96.1573 267.428 96.0313 267.036 95.7793 266.812C95.5273 266.588 95.1726 266.476 94.7153 266.476C94.3233 266.476 93.9499 266.532 93.5953 266.644C93.2406 266.756 92.9046 266.891 92.5873 267.05L92.1113 265.972C92.4659 265.785 92.8719 265.631 93.3293 265.51C93.7959 265.379 94.2813 265.314 94.7853 265.314ZM95.1353 269.402C94.2766 269.439 93.6793 269.584 93.3433 269.836C93.0166 270.079 92.8533 270.424 92.8533 270.872C92.8533 271.264 92.9699 271.549 93.2033 271.726C93.4459 271.903 93.7493 271.992 94.1133 271.992C94.7013 271.992 95.1866 271.829 95.5693 271.502C95.9519 271.175 96.1433 270.685 96.1433 270.032V269.374L95.1353 269.402ZM101.592 273L98.7363 265.454H100.304L101.872 269.864C101.938 270.051 102.003 270.261 102.068 270.494C102.143 270.727 102.208 270.951 102.264 271.166C102.32 271.381 102.358 271.567 102.376 271.726H102.432C102.46 271.567 102.502 271.381 102.558 271.166C102.624 270.942 102.694 270.718 102.768 270.494C102.843 270.261 102.908 270.051 102.964 269.864L104.532 265.454H106.1L103.23 273H101.592ZM110.235 265.314C110.898 265.314 111.467 265.454 111.943 265.734C112.419 266.005 112.783 266.397 113.035 266.91C113.297 267.423 113.427 268.03 113.427 268.73V269.542H108.359C108.378 270.317 108.579 270.909 108.961 271.32C109.353 271.731 109.899 271.936 110.599 271.936C111.085 271.936 111.514 271.894 111.887 271.81C112.27 271.717 112.662 271.581 113.063 271.404V272.636C112.69 272.804 112.307 272.93 111.915 273.014C111.533 273.098 111.075 273.14 110.543 273.14C109.815 273.14 109.171 272.995 108.611 272.706C108.051 272.417 107.613 271.987 107.295 271.418C106.987 270.839 106.833 270.13 106.833 269.29C106.833 268.441 106.973 267.722 107.253 267.134C107.543 266.546 107.939 266.098 108.443 265.79C108.957 265.473 109.554 265.314 110.235 265.314ZM110.235 266.462C109.703 266.462 109.274 266.635 108.947 266.98C108.63 267.325 108.443 267.815 108.387 268.45H111.943C111.943 268.058 111.883 267.713 111.761 267.414C111.64 267.115 111.453 266.882 111.201 266.714C110.949 266.546 110.627 266.462 110.235 266.462Z" fill="white"/>
<path d="M130 284H68V288H130V284Z" fill="black" fill-opacity="0.8" mask="url(#path-12-inside-1_7870_4465)"/>
<path d="M28 8.5H488C498.77 8.5 507.5 17.2304 507.5 28V307.5H8.5V28C8.5 17.2304 17.2304 8.5 28 8.5Z" stroke="#AFB9C3"/>
</g>
<defs>
<filter id="filter0_d_7870_4465" x="0" y="0" width="524" height="324" filterUnits="userSpaceOnUse" color-interpolation-filters="sRGB">
<feFlood flood-opacity="0" result="BackgroundImageFix"/>
<feColorMatrix in="SourceAlpha" type="matrix" values="0 0 0 0 0 0 0 0 0 0 0 0 0 0 0 0 0 0 127 0" result="hardAlpha"/>
<feOffset dx="4" dy="4"/>
<feGaussianBlur stdDeviation="6"/>
<feColorMatrix type="matrix" values="0 0 0 0 0 0 0 0 0 0 0 0 0 0 0 0 0 0 0.1 0"/>
<feBlend mode="normal" in2="BackgroundImageFix" result="effect1_dropShadow_7870_4465"/>
<feBlend mode="normal" in="SourceGraphic" in2="effect1_dropShadow_7870_4465" result="shape"/>
</filter>
</defs>
</svg>
