<svg width="524" height="324" viewBox="0 0 524 324" fill="none" xmlns="http://www.w3.org/2000/svg">
<g filter="url(#filter0_d_7870_4687)">
<path d="M8 28C8 16.9543 16.9543 8 28 8H488C499.046 8 508 16.9543 508 28V308H8V28Z" fill="white"/>
<path d="M8 28C8 16.9543 16.9543 8 28 8H488C499.046 8 508 16.9543 508 28V38H8V28Z" fill="#909CA8"/>
<path d="M79.232 85H70.088V67.864H79.232V70.072H72.752V74.968H78.848V77.152H72.752V82.768H79.232V85ZM88.6991 71.824C90.1071 71.824 91.1871 72.2 91.9391 72.952C92.7071 73.704 93.0911 74.912 93.0911 76.576V85H90.4991V76.936C90.4991 75.928 90.2991 75.176 89.8991 74.68C89.5151 74.168 88.9151 73.912 88.0991 73.912C86.8991 73.912 86.0751 74.304 85.6271 75.088C85.1791 75.872 84.9551 77 84.9551 78.472V85H82.3631V72.064H84.4031L84.7631 73.792H84.9071C85.1791 73.344 85.5071 72.976 85.8911 72.688C86.2751 72.4 86.7071 72.184 87.1871 72.04C87.6671 71.896 88.1711 71.824 88.6991 71.824ZM99.4679 85L94.8359 72.064H97.5959L100.02 79.624C100.148 79.944 100.26 80.304 100.356 80.704C100.468 81.104 100.564 81.488 100.644 81.856C100.724 82.224 100.78 82.544 100.812 82.816H100.908C100.94 82.544 100.996 82.224 101.076 81.856C101.172 81.472 101.276 81.088 101.388 80.704C101.5 80.304 101.612 79.944 101.724 79.624L104.148 72.064H106.932L102.276 85H99.4679ZM119.626 78.52C119.626 79.592 119.49 80.544 119.218 81.376C118.946 82.208 118.554 82.912 118.042 83.488C117.546 84.064 116.938 84.504 116.218 84.808C115.498 85.096 114.69 85.24 113.794 85.24C112.978 85.24 112.218 85.096 111.514 84.808C110.81 84.504 110.202 84.064 109.69 83.488C109.178 82.912 108.778 82.208 108.49 81.376C108.218 80.544 108.082 79.584 108.082 78.496C108.082 77.072 108.314 75.864 108.778 74.872C109.242 73.88 109.906 73.128 110.77 72.616C111.65 72.088 112.69 71.824 113.89 71.824C115.01 71.824 116.002 72.088 116.866 72.616C117.73 73.128 118.402 73.88 118.882 74.872C119.378 75.864 119.626 77.08 119.626 78.52ZM110.77 78.52C110.77 79.48 110.874 80.312 111.082 81.016C111.306 81.704 111.642 82.232 112.09 82.6C112.554 82.968 113.138 83.152 113.842 83.152C114.562 83.152 115.146 82.968 115.594 82.6C116.058 82.232 116.394 81.704 116.602 81.016C116.826 80.312 116.938 79.48 116.938 78.52C116.938 77.528 116.826 76.696 116.602 76.024C116.378 75.352 116.042 74.84 115.594 74.488C115.146 74.12 114.554 73.936 113.818 73.936C112.746 73.936 111.97 74.336 111.49 75.136C111.01 75.936 110.77 77.064 110.77 78.52ZM120.337 72.064H123.121L125.593 79.408C125.721 79.776 125.833 80.136 125.929 80.488C126.041 80.84 126.129 81.192 126.193 81.544C126.273 81.88 126.337 82.216 126.385 82.552H126.457C126.537 82.136 126.649 81.648 126.793 81.088C126.937 80.512 127.097 79.944 127.273 79.384L129.625 72.064H132.432L127.249 86.752C126.945 87.584 126.577 88.296 126.145 88.888C125.729 89.496 125.217 89.96 124.609 90.28C124.017 90.6 123.305 90.76 122.473 90.76C122.121 90.76 121.801 90.736 121.513 90.688C121.241 90.656 121.001 90.616 120.793 90.568V88.552C120.953 88.584 121.153 88.616 121.393 88.648C121.633 88.68 121.881 88.696 122.137 88.696C122.601 88.696 123.001 88.6 123.337 88.408C123.673 88.216 123.953 87.944 124.177 87.592C124.401 87.256 124.585 86.856 124.729 86.392L125.209 85L120.337 72.064ZM139.15 71.824C140.222 71.824 141.15 72.064 141.934 72.544C142.718 73.008 143.318 73.68 143.734 74.56C144.166 75.44 144.382 76.48 144.382 77.68V79.072H136.246C136.278 80.4 136.598 81.416 137.206 82.12C137.814 82.824 138.67 83.176 139.774 83.176C140.558 83.176 141.254 83.104 141.862 82.96C142.486 82.8 143.118 82.568 143.758 82.264V84.376C143.15 84.664 142.526 84.88 141.886 85.024C141.262 85.168 140.502 85.24 139.606 85.24C138.438 85.24 137.398 84.992 136.486 84.496C135.574 84 134.862 83.264 134.35 82.288C133.838 81.296 133.582 80.08 133.582 78.64C133.582 77.184 133.814 75.952 134.278 74.944C134.742 73.936 135.39 73.168 136.222 72.64C137.07 72.096 138.046 71.824 139.15 71.824ZM139.15 73.792C138.334 73.792 137.678 74.088 137.182 74.68C136.686 75.272 136.398 76.112 136.318 77.2H141.814C141.814 76.528 141.718 75.936 141.526 75.424C141.334 74.912 141.038 74.512 140.638 74.224C140.254 73.936 139.758 73.792 139.15 73.792ZM153.453 71.824C153.661 71.824 153.893 71.84 154.149 71.872C154.405 71.888 154.621 71.912 154.797 71.944L154.533 74.32C154.357 74.272 154.157 74.232 153.933 74.2C153.709 74.168 153.485 74.152 153.261 74.152C152.829 74.152 152.413 74.248 152.013 74.44C151.613 74.616 151.253 74.88 150.933 75.232C150.613 75.568 150.357 75.984 150.165 76.48C149.973 76.976 149.877 77.544 149.877 78.184V85H147.285V72.064H149.325L149.661 74.368H149.805C150.045 73.904 150.341 73.48 150.693 73.096C151.061 72.712 151.477 72.408 151.941 72.184C152.405 71.944 152.909 71.824 153.453 71.824ZM169.087 71.824C170.543 71.824 171.711 72.384 172.591 73.504C173.471 74.624 173.911 76.296 173.911 78.52C173.911 79.976 173.703 81.208 173.287 82.216C172.887 83.224 172.319 83.984 171.583 84.496C170.847 84.992 169.991 85.24 169.015 85.24C168.423 85.24 167.895 85.16 167.431 85C166.967 84.824 166.575 84.6 166.255 84.328C165.951 84.04 165.679 83.736 165.439 83.416H165.295C165.327 83.704 165.359 84.048 165.391 84.448C165.423 84.832 165.439 85.176 165.439 85.48V90.76H162.847V72.064H164.959L165.319 73.792H165.439C165.679 73.44 165.959 73.112 166.279 72.808C166.615 72.504 167.007 72.264 167.455 72.088C167.919 71.912 168.463 71.824 169.087 71.824ZM168.391 73.912C167.687 73.912 167.119 74.072 166.687 74.392C166.255 74.696 165.935 75.16 165.727 75.784C165.535 76.392 165.439 77.168 165.439 78.112V78.496C165.439 79.488 165.527 80.336 165.703 81.04C165.895 81.728 166.207 82.256 166.639 82.624C167.087 82.976 167.687 83.152 168.439 83.152C169.079 83.152 169.607 82.96 170.023 82.576C170.439 82.176 170.743 81.624 170.935 80.92C171.143 80.216 171.247 79.4 171.247 78.472C171.247 77.064 171.007 75.952 170.527 75.136C170.063 74.32 169.351 73.912 168.391 73.912ZM179.479 85H176.887V66.76H179.479V85ZM193.753 72.064V85H191.713L191.353 83.296H191.209C190.969 83.744 190.641 84.112 190.225 84.4C189.825 84.688 189.385 84.896 188.905 85.024C188.425 85.168 187.929 85.24 187.417 85.24C186.473 85.24 185.673 85.08 185.017 84.76C184.377 84.424 183.881 83.912 183.529 83.224C183.193 82.52 183.025 81.624 183.025 80.536V72.064H185.641V80.152C185.641 81.16 185.833 81.912 186.217 82.408C186.601 82.904 187.201 83.152 188.017 83.152C188.817 83.152 189.441 82.976 189.889 82.624C190.353 82.272 190.681 81.76 190.873 81.088C191.065 80.4 191.161 79.576 191.161 78.616V72.064H193.753ZM205.626 81.352C205.626 82.2 205.434 82.912 205.05 83.488C204.666 84.064 204.106 84.504 203.37 84.808C202.634 85.096 201.73 85.24 200.658 85.24C199.81 85.24 199.066 85.168 198.426 85.024C197.802 84.896 197.226 84.704 196.698 84.448V82.216C197.258 82.488 197.898 82.736 198.618 82.96C199.338 83.168 200.026 83.272 200.682 83.272C201.53 83.272 202.146 83.12 202.53 82.816C202.914 82.512 203.106 82.104 203.106 81.592C203.106 81.304 203.026 81.048 202.866 80.824C202.722 80.584 202.442 80.344 202.026 80.104C201.61 79.848 201.01 79.56 200.226 79.24C199.458 78.904 198.81 78.576 198.282 78.256C197.77 77.92 197.37 77.528 197.082 77.08C196.81 76.616 196.674 76.024 196.674 75.304C196.674 74.184 197.106 73.328 197.97 72.736C198.834 72.128 199.962 71.824 201.354 71.824C202.122 71.824 202.834 71.904 203.49 72.064C204.146 72.208 204.786 72.432 205.41 72.736L204.618 74.68C204.25 74.504 203.874 74.36 203.49 74.248C203.122 74.12 202.754 74.016 202.386 73.936C202.018 73.856 201.65 73.816 201.282 73.816C200.594 73.816 200.074 73.936 199.722 74.176C199.37 74.416 199.194 74.752 199.194 75.184C199.194 75.504 199.274 75.776 199.434 76C199.61 76.224 199.906 76.448 200.322 76.672C200.754 76.896 201.346 77.16 202.098 77.464C202.85 77.768 203.49 78.08 204.018 78.4C204.546 78.72 204.946 79.112 205.218 79.576C205.49 80.04 205.626 80.632 205.626 81.352ZM218.853 83.176C219.189 83.176 219.517 83.144 219.837 83.08C220.157 83.016 220.437 82.944 220.677 82.864V84.784C220.405 84.912 220.045 85.016 219.597 85.096C219.165 85.192 218.709 85.24 218.229 85.24C217.557 85.24 216.941 85.12 216.381 84.88C215.821 84.64 215.373 84.224 215.037 83.632C214.701 83.04 214.533 82.216 214.533 81.16V74.008H212.877V72.856L214.653 71.896L215.541 69.16H217.149V72.064H220.581V74.008H217.149V81.112C217.149 81.816 217.309 82.336 217.629 82.672C217.949 83.008 218.357 83.176 218.853 83.176ZM227.978 71.824C229.498 71.824 230.642 72.184 231.41 72.904C232.194 73.608 232.586 74.72 232.586 76.24V85H230.738L230.234 83.2H230.138C229.77 83.664 229.402 84.048 229.034 84.352C228.682 84.656 228.266 84.88 227.786 85.024C227.322 85.168 226.746 85.24 226.058 85.24C225.338 85.24 224.69 85.104 224.114 84.832C223.538 84.544 223.082 84.112 222.746 83.536C222.41 82.944 222.242 82.208 222.242 81.328C222.242 80.016 222.706 79.016 223.634 78.328C224.578 77.64 226.01 77.264 227.93 77.2L229.994 77.128V76.408C229.994 75.448 229.794 74.776 229.394 74.392C229.01 74.008 228.466 73.816 227.762 73.816C227.17 73.816 226.586 73.912 226.01 74.104C225.434 74.296 224.874 74.528 224.33 74.8L223.538 72.952C224.13 72.632 224.802 72.368 225.554 72.16C226.322 71.936 227.13 71.824 227.978 71.824ZM228.434 78.832C227.122 78.896 226.21 79.144 225.698 79.576C225.186 79.992 224.93 80.584 224.93 81.352C224.93 82.024 225.106 82.512 225.458 82.816C225.826 83.12 226.298 83.272 226.874 83.272C227.754 83.272 228.49 82.992 229.082 82.432C229.69 81.872 229.994 81.032 229.994 79.912V78.784L228.434 78.832ZM242.328 71.824C242.536 71.824 242.768 71.84 243.024 71.872C243.28 71.888 243.496 71.912 243.672 71.944L243.408 74.32C243.232 74.272 243.032 74.232 242.808 74.2C242.584 74.168 242.36 74.152 242.136 74.152C241.704 74.152 241.288 74.248 240.888 74.44C240.488 74.616 240.128 74.88 239.808 75.232C239.488 75.568 239.232 75.984 239.04 76.48C238.848 76.976 238.752 77.544 238.752 78.184V85H236.16V72.064H238.2L238.536 74.368H238.68C238.92 73.904 239.216 73.48 239.568 73.096C239.936 72.712 240.352 72.408 240.816 72.184C241.28 71.944 241.784 71.824 242.328 71.824ZM249.57 85.24C248.13 85.24 246.962 84.68 246.066 83.56C245.186 82.44 244.746 80.776 244.746 78.568C244.746 76.344 245.194 74.664 246.09 73.528C246.986 72.392 248.162 71.824 249.618 71.824C250.242 71.824 250.778 71.912 251.226 72.088C251.674 72.248 252.066 72.472 252.402 72.76C252.738 73.048 253.018 73.368 253.242 73.72H253.386C253.354 73.496 253.314 73.176 253.266 72.76C253.234 72.328 253.218 71.944 253.218 71.608V66.76H255.81V85H253.77L253.314 83.272H253.218C252.994 83.64 252.714 83.976 252.378 84.28C252.042 84.568 251.642 84.8 251.178 84.976C250.73 85.152 250.194 85.24 249.57 85.24ZM250.266 83.152C251.386 83.152 252.17 82.808 252.618 82.12C253.082 81.416 253.314 80.368 253.314 78.976V78.592C253.314 77.072 253.098 75.912 252.666 75.112C252.234 74.312 251.426 73.912 250.242 73.912C249.314 73.912 248.61 74.336 248.13 75.184C247.65 76.016 247.41 77.16 247.41 78.616C247.41 80.072 247.65 81.192 248.13 81.976C248.61 82.76 249.322 83.152 250.266 83.152Z" fill="black"/>
<rect x="68.5" y="104.5" width="209" height="179" fill="white"/>
<rect width="210" height="30" transform="translate(68 104)" fill="white"/>
<rect width="210" height="30" transform="translate(68 104)" fill="white"/>
<path d="M151.306 126.424C151.082 126.424 150.89 126.408 150.73 126.376C150.57 126.352 150.426 126.324 150.298 126.292V125.008C150.426 125.04 150.562 125.068 150.706 125.092C150.85 125.116 151.002 125.128 151.162 125.128C151.362 125.128 151.55 125.088 151.726 125.008C151.902 124.928 152.042 124.78 152.146 124.564C152.25 124.348 152.302 124.04 152.302 123.64V115.432H153.838V123.604C153.838 124.276 153.73 124.816 153.514 125.224C153.306 125.64 153.01 125.944 152.626 126.136C152.25 126.328 151.81 126.424 151.306 126.424ZM158.958 117.376C159.798 117.376 160.434 117.56 160.866 117.928C161.306 118.288 161.526 118.856 161.526 119.632V124H160.458L160.158 123.1H160.11C159.926 123.332 159.734 123.528 159.534 123.688C159.342 123.84 159.118 123.948 158.862 124.012C158.614 124.084 158.31 124.12 157.95 124.12C157.566 124.12 157.218 124.048 156.906 123.904C156.602 123.76 156.362 123.54 156.186 123.244C156.01 122.94 155.922 122.56 155.922 122.104C155.922 121.432 156.166 120.928 156.654 120.592C157.15 120.248 157.898 120.06 158.898 120.028L160.026 119.992V119.668C160.026 119.252 159.926 118.956 159.726 118.78C159.526 118.604 159.246 118.516 158.886 118.516C158.558 118.516 158.242 118.564 157.938 118.66C157.634 118.756 157.338 118.868 157.05 118.996L156.57 117.94C156.89 117.772 157.254 117.636 157.662 117.532C158.078 117.428 158.51 117.376 158.958 117.376ZM159.234 120.952C158.57 120.976 158.11 121.092 157.854 121.3C157.598 121.5 157.47 121.772 157.47 122.116C157.47 122.42 157.562 122.64 157.746 122.776C157.93 122.912 158.166 122.98 158.454 122.98C158.894 122.98 159.266 122.856 159.57 122.608C159.874 122.352 160.026 121.976 160.026 121.48V120.928L159.234 120.952ZM167.38 117.376C168.108 117.376 168.676 117.564 169.084 117.94C169.5 118.316 169.708 118.924 169.708 119.764V124H168.196V120.064C168.196 119.576 168.1 119.212 167.908 118.972C167.716 118.724 167.412 118.6 166.996 118.6C166.388 118.6 165.972 118.792 165.748 119.176C165.524 119.552 165.412 120.1 165.412 120.82V124H163.9V117.496H165.064L165.28 118.348H165.364C165.508 118.124 165.684 117.94 165.892 117.796C166.1 117.652 166.332 117.548 166.588 117.484C166.844 117.412 167.108 117.376 167.38 117.376ZM173.579 124L171.107 117.496H172.703L173.999 121.252C174.055 121.404 174.107 121.572 174.155 121.756C174.203 121.932 174.243 122.108 174.275 122.284C174.315 122.452 174.339 122.6 174.347 122.728H174.395C174.411 122.592 174.439 122.44 174.479 122.272C174.519 122.096 174.563 121.92 174.611 121.744C174.667 121.568 174.719 121.404 174.767 121.252L176.063 117.496H177.659L175.187 124H173.579ZM180.622 117.496V124H179.11V117.496H180.622ZM179.866 114.988C180.09 114.988 180.286 115.048 180.454 115.168C180.622 115.28 180.706 115.484 180.706 115.78C180.706 116.068 180.622 116.276 180.454 116.404C180.286 116.524 180.09 116.584 179.866 116.584C179.634 116.584 179.434 116.524 179.266 116.404C179.106 116.276 179.026 116.068 179.026 115.78C179.026 115.484 179.106 115.28 179.266 115.168C179.434 115.048 179.634 114.988 179.866 114.988ZM185.652 117.376C186.236 117.376 186.736 117.496 187.152 117.736C187.576 117.968 187.904 118.304 188.136 118.744C188.368 119.176 188.484 119.704 188.484 120.328V121.096H184.188C184.204 121.688 184.368 122.148 184.68 122.476C184.992 122.796 185.424 122.956 185.976 122.956C186.4 122.956 186.776 122.916 187.104 122.836C187.44 122.748 187.784 122.624 188.136 122.464V123.676C187.816 123.828 187.484 123.94 187.14 124.012C186.796 124.084 186.384 124.12 185.904 124.12C185.272 124.12 184.708 124 184.212 123.76C183.724 123.512 183.34 123.14 183.06 122.644C182.788 122.148 182.652 121.532 182.652 120.796C182.652 120.052 182.776 119.428 183.024 118.924C183.28 118.412 183.632 118.028 184.08 117.772C184.528 117.508 185.052 117.376 185.652 117.376ZM185.652 118.492C185.252 118.492 184.924 118.624 184.668 118.888C184.42 119.144 184.272 119.528 184.224 120.04H187.02C187.02 119.736 186.968 119.468 186.864 119.236C186.768 119.004 186.62 118.824 186.42 118.696C186.22 118.56 185.964 118.492 185.652 118.492ZM193.896 117.376C193.992 117.376 194.104 117.38 194.232 117.388C194.36 117.396 194.468 117.412 194.556 117.436L194.424 118.84C194.352 118.824 194.256 118.812 194.136 118.804C194.024 118.788 193.924 118.78 193.836 118.78C193.596 118.78 193.364 118.82 193.14 118.9C192.924 118.972 192.728 119.084 192.552 119.236C192.384 119.38 192.248 119.568 192.144 119.8C192.048 120.032 192 120.308 192 120.628V124H190.488V117.496H191.652L191.868 118.624H191.94C192.068 118.392 192.228 118.184 192.42 118C192.612 117.808 192.832 117.656 193.08 117.544C193.336 117.432 193.608 117.376 193.896 117.376Z" fill="black"/>
<rect width="210" height="30" transform="translate(68 134)" fill="white"/>
<rect width="30" height="30" transform="translate(68 134)" fill="white"/>
<path d="M81.0617 154.12C80.2617 154.12 79.6217 153.844 79.1417 153.292C78.6617 152.732 78.4217 151.9 78.4217 150.796C78.4217 149.692 78.6617 148.86 79.1417 148.3C79.6297 147.732 80.2737 147.448 81.0737 147.448C81.4097 147.448 81.7017 147.492 81.9497 147.58C82.1977 147.66 82.4137 147.772 82.5977 147.916C82.7817 148.06 82.9377 148.22 83.0657 148.396H83.1377C83.1297 148.292 83.1137 148.14 83.0897 147.94C83.0737 147.732 83.0657 147.568 83.0657 147.448V144.88H84.1217V154H83.2697L83.1137 153.136H83.0657C82.9377 153.32 82.7817 153.488 82.5977 153.64C82.4137 153.784 82.1937 153.9 81.9377 153.988C81.6897 154.076 81.3977 154.12 81.0617 154.12ZM81.2297 153.244C81.9097 153.244 82.3857 153.06 82.6577 152.692C82.9377 152.316 83.0777 151.752 83.0777 151V150.808C83.0777 150.008 82.9457 149.396 82.6817 148.972C82.4177 148.54 81.9297 148.324 81.2177 148.324C80.6497 148.324 80.2217 148.552 79.9337 149.008C79.6537 149.456 79.5137 150.06 79.5137 150.82C79.5137 151.588 79.6537 152.184 79.9337 152.608C80.2217 153.032 80.6537 153.244 81.2297 153.244ZM87.2205 147.568V154H86.1645V147.568H87.2205ZM86.7045 145.156C86.8645 145.156 87.0045 145.212 87.1245 145.324C87.2525 145.428 87.3165 145.596 87.3165 145.828C87.3165 146.052 87.2525 146.22 87.1245 146.332C87.0045 146.444 86.8645 146.5 86.7045 146.5C86.5285 146.5 86.3805 146.444 86.2605 146.332C86.1405 146.22 86.0805 146.052 86.0805 145.828C86.0805 145.596 86.1405 145.428 86.2605 145.324C86.3805 145.212 86.5285 145.156 86.7045 145.156Z" fill="black"/>
<rect width="30" height="30" transform="translate(98 134)" fill="white"/>
<path d="M109.82 154H108.764V144.88H109.82V154ZM117.234 147.568V154H116.37L116.214 153.148H116.166C116.03 153.372 115.854 153.556 115.638 153.7C115.422 153.844 115.186 153.948 114.93 154.012C114.674 154.084 114.406 154.12 114.126 154.12C113.614 154.12 113.182 154.04 112.83 153.88C112.486 153.712 112.226 153.456 112.05 153.112C111.874 152.768 111.786 152.324 111.786 151.78V147.568H112.854V151.708C112.854 152.22 112.97 152.604 113.202 152.86C113.434 153.116 113.794 153.244 114.282 153.244C114.762 153.244 115.138 153.156 115.41 152.98C115.69 152.796 115.886 152.532 115.998 152.188C116.118 151.836 116.178 151.412 116.178 150.916V147.568H117.234Z" fill="black"/>
<rect width="30" height="30" transform="translate(128 134)" fill="white"/>
<path d="M142.105 147.448C142.833 147.448 143.377 147.636 143.737 148.012C144.097 148.38 144.277 148.98 144.277 149.812V154H143.233V149.86C143.233 149.356 143.125 148.976 142.909 148.72C142.701 148.464 142.373 148.336 141.925 148.336C141.301 148.336 140.853 148.516 140.581 148.876C140.317 149.236 140.185 149.76 140.185 150.448V154H139.141V149.86C139.141 149.524 139.093 149.244 138.997 149.02C138.901 148.788 138.757 148.616 138.565 148.504C138.373 148.392 138.125 148.336 137.821 148.336C137.389 148.336 137.049 148.428 136.801 148.612C136.553 148.788 136.373 149.048 136.261 149.392C136.157 149.736 136.105 150.16 136.105 150.664V154H135.049V147.568H135.901L136.057 148.444H136.117C136.253 148.22 136.417 148.036 136.609 147.892C136.809 147.74 137.029 147.628 137.269 147.556C137.509 147.484 137.757 147.448 138.013 147.448C138.509 147.448 138.921 147.536 139.249 147.712C139.585 147.888 139.829 148.16 139.981 148.528H140.041C140.257 148.16 140.549 147.888 140.917 147.712C141.293 147.536 141.689 147.448 142.105 147.448ZM148.7 147.46C149.484 147.46 150.064 147.632 150.44 147.976C150.816 148.32 151.004 148.868 151.004 149.62V154H150.236L150.032 153.088H149.984C149.8 153.32 149.608 153.516 149.408 153.676C149.216 153.828 148.992 153.94 148.736 154.012C148.488 154.084 148.184 154.12 147.824 154.12C147.44 154.12 147.092 154.052 146.78 153.916C146.476 153.78 146.236 153.572 146.06 153.292C145.884 153.004 145.796 152.644 145.796 152.212C145.796 151.572 146.048 151.08 146.552 150.736C147.056 150.384 147.832 150.192 148.88 150.16L149.972 150.124V149.74C149.972 149.204 149.856 148.832 149.624 148.624C149.392 148.416 149.064 148.312 148.64 148.312C148.304 148.312 147.984 148.364 147.68 148.468C147.376 148.564 147.092 148.676 146.828 148.804L146.504 148.012C146.784 147.86 147.116 147.732 147.5 147.628C147.884 147.516 148.284 147.46 148.7 147.46ZM149.012 150.892C148.212 150.924 147.656 151.052 147.344 151.276C147.04 151.5 146.888 151.816 146.888 152.224C146.888 152.584 146.996 152.848 147.212 153.016C147.436 153.184 147.72 153.268 148.064 153.268C148.608 153.268 149.06 153.12 149.42 152.824C149.78 152.52 149.96 152.056 149.96 151.432V150.856L149.012 150.892Z" fill="black"/>
<rect width="30" height="30" transform="translate(158 134)" fill="white"/>
<path d="M172.082 147.448C172.81 147.448 173.354 147.636 173.714 148.012C174.074 148.38 174.254 148.98 174.254 149.812V154H173.21V149.86C173.21 149.356 173.102 148.976 172.886 148.72C172.678 148.464 172.35 148.336 171.902 148.336C171.278 148.336 170.83 148.516 170.558 148.876C170.294 149.236 170.162 149.76 170.162 150.448V154H169.118V149.86C169.118 149.524 169.07 149.244 168.974 149.02C168.878 148.788 168.734 148.616 168.542 148.504C168.35 148.392 168.102 148.336 167.798 148.336C167.366 148.336 167.026 148.428 166.778 148.612C166.53 148.788 166.35 149.048 166.238 149.392C166.134 149.736 166.082 150.16 166.082 150.664V154H165.026V147.568H165.878L166.034 148.444H166.094C166.23 148.22 166.394 148.036 166.586 147.892C166.786 147.74 167.006 147.628 167.246 147.556C167.486 147.484 167.734 147.448 167.99 147.448C168.486 147.448 168.898 147.536 169.226 147.712C169.562 147.888 169.806 148.16 169.958 148.528H170.018C170.234 148.16 170.526 147.888 170.894 147.712C171.27 147.536 171.666 147.448 172.082 147.448ZM178.725 147.448C179.277 147.448 179.749 147.568 180.141 147.808C180.541 148.048 180.845 148.388 181.053 148.828C181.269 149.26 181.377 149.768 181.377 150.352V150.988H176.973C176.989 151.716 177.173 152.272 177.525 152.656C177.885 153.032 178.385 153.22 179.025 153.22C179.433 153.22 179.793 153.184 180.105 153.112C180.425 153.032 180.753 152.92 181.089 152.776V153.7C180.761 153.844 180.437 153.948 180.117 154.012C179.797 154.084 179.417 154.12 178.977 154.12C178.369 154.12 177.829 153.996 177.357 153.748C176.893 153.5 176.529 153.132 176.265 152.644C176.009 152.148 175.881 151.544 175.881 150.832C175.881 150.128 175.997 149.524 176.229 149.02C176.469 148.516 176.801 148.128 177.225 147.856C177.657 147.584 178.157 147.448 178.725 147.448ZM178.713 148.312C178.209 148.312 177.809 148.476 177.513 148.804C177.225 149.124 177.053 149.572 176.997 150.148H180.273C180.273 149.78 180.217 149.46 180.105 149.188C179.993 148.916 179.821 148.704 179.589 148.552C179.365 148.392 179.073 148.312 178.713 148.312Z" fill="black"/>
<rect width="30" height="30" transform="translate(188 134)" fill="white"/>
<path d="M198.33 156.88C198.13 156.88 197.954 156.864 197.802 156.832C197.65 156.808 197.518 156.776 197.406 156.736V155.884C197.526 155.916 197.65 155.944 197.778 155.968C197.906 155.992 198.046 156.004 198.198 156.004C198.454 156.004 198.666 155.932 198.834 155.788C199.002 155.652 199.086 155.388 199.086 154.996V147.568H200.142V154.96C200.142 155.36 200.078 155.704 199.95 155.992C199.822 156.28 199.626 156.5 199.362 156.652C199.098 156.804 198.754 156.88 198.33 156.88ZM199.002 145.828C199.002 145.596 199.062 145.428 199.182 145.324C199.302 145.212 199.45 145.156 199.626 145.156C199.786 145.156 199.926 145.212 200.046 145.324C200.174 145.428 200.238 145.596 200.238 145.828C200.238 146.052 200.174 146.22 200.046 146.332C199.926 146.444 199.786 146.5 199.626 146.5C199.45 146.5 199.302 146.444 199.182 146.332C199.062 146.22 199.002 146.052 199.002 145.828ZM204.664 147.448C205.216 147.448 205.688 147.568 206.08 147.808C206.48 148.048 206.784 148.388 206.992 148.828C207.208 149.26 207.316 149.768 207.316 150.352V150.988H202.912C202.928 151.716 203.112 152.272 203.464 152.656C203.824 153.032 204.324 153.22 204.964 153.22C205.372 153.22 205.732 153.184 206.044 153.112C206.364 153.032 206.692 152.92 207.028 152.776V153.7C206.7 153.844 206.376 153.948 206.056 154.012C205.736 154.084 205.356 154.12 204.916 154.12C204.308 154.12 203.768 153.996 203.296 153.748C202.832 153.5 202.468 153.132 202.204 152.644C201.948 152.148 201.82 151.544 201.82 150.832C201.82 150.128 201.936 149.524 202.168 149.02C202.408 148.516 202.74 148.128 203.164 147.856C203.596 147.584 204.096 147.448 204.664 147.448ZM204.652 148.312C204.148 148.312 203.748 148.476 203.452 148.804C203.164 149.124 202.992 149.572 202.936 150.148H206.212C206.212 149.78 206.156 149.46 206.044 149.188C205.932 148.916 205.76 148.704 205.528 148.552C205.304 148.392 205.012 148.312 204.652 148.312Z" fill="black"/>
<rect width="30" height="30" transform="translate(218 134)" fill="white"/>
<path d="M229.002 154L226.566 147.568H227.694L229.062 151.36C229.126 151.536 229.194 151.732 229.266 151.948C229.338 152.164 229.402 152.372 229.458 152.572C229.514 152.764 229.554 152.928 229.578 153.064H229.626C229.658 152.928 229.702 152.76 229.758 152.56C229.822 152.36 229.89 152.152 229.962 151.936C230.042 151.72 230.11 151.528 230.166 151.36L231.534 147.568H232.662L230.214 154H229.002ZM236.164 147.448C236.716 147.448 237.188 147.568 237.58 147.808C237.98 148.048 238.284 148.388 238.492 148.828C238.708 149.26 238.816 149.768 238.816 150.352V150.988H234.412C234.428 151.716 234.612 152.272 234.964 152.656C235.324 153.032 235.824 153.22 236.464 153.22C236.872 153.22 237.232 153.184 237.544 153.112C237.864 153.032 238.192 152.92 238.528 152.776V153.7C238.2 153.844 237.876 153.948 237.556 154.012C237.236 154.084 236.856 154.12 236.416 154.12C235.808 154.12 235.268 153.996 234.796 153.748C234.332 153.5 233.968 153.132 233.704 152.644C233.448 152.148 233.32 151.544 233.32 150.832C233.32 150.128 233.436 149.524 233.668 149.02C233.908 148.516 234.24 148.128 234.664 147.856C235.096 147.584 235.596 147.448 236.164 147.448ZM236.152 148.312C235.648 148.312 235.248 148.476 234.952 148.804C234.664 149.124 234.492 149.572 234.436 150.148H237.712C237.712 149.78 237.656 149.46 237.544 149.188C237.432 148.916 237.26 148.704 237.028 148.552C236.804 148.392 236.512 148.312 236.152 148.312Z" fill="black"/>
<rect width="30" height="30" transform="translate(248 134)" fill="white"/>
<path d="M261.974 152.224C261.974 152.64 261.87 152.988 261.662 153.268C261.454 153.548 261.158 153.76 260.774 153.904C260.39 154.048 259.934 154.12 259.406 154.12C258.958 154.12 258.57 154.084 258.242 154.012C257.922 153.94 257.638 153.84 257.39 153.712V152.752C257.646 152.88 257.954 153 258.314 153.112C258.682 153.216 259.054 153.268 259.43 153.268C259.966 153.268 260.354 153.184 260.594 153.016C260.834 152.84 260.954 152.608 260.954 152.32C260.954 152.16 260.91 152.016 260.822 151.888C260.734 151.76 260.574 151.632 260.342 151.504C260.118 151.376 259.794 151.232 259.37 151.072C258.954 150.912 258.598 150.752 258.302 150.592C258.006 150.432 257.778 150.24 257.618 150.016C257.458 149.792 257.378 149.504 257.378 149.152C257.378 148.608 257.598 148.188 258.038 147.892C258.486 147.596 259.07 147.448 259.79 147.448C260.182 147.448 260.546 147.488 260.882 147.568C261.226 147.64 261.546 147.744 261.842 147.88L261.482 148.72C261.306 148.64 261.118 148.572 260.918 148.516C260.726 148.452 260.53 148.404 260.33 148.372C260.13 148.332 259.926 148.312 259.718 148.312C259.286 148.312 258.954 148.384 258.722 148.528C258.498 148.664 258.386 148.852 258.386 149.092C258.386 149.268 258.438 149.42 258.542 149.548C258.646 149.668 258.818 149.788 259.058 149.908C259.306 150.02 259.634 150.156 260.042 150.316C260.45 150.468 260.798 150.624 261.086 150.784C261.374 150.944 261.594 151.14 261.746 151.372C261.898 151.596 261.974 151.88 261.974 152.224ZM265.964 147.46C266.748 147.46 267.328 147.632 267.704 147.976C268.08 148.32 268.268 148.868 268.268 149.62V154H267.5L267.296 153.088H267.248C267.064 153.32 266.872 153.516 266.672 153.676C266.48 153.828 266.256 153.94 266 154.012C265.752 154.084 265.448 154.12 265.088 154.12C264.704 154.12 264.356 154.052 264.044 153.916C263.74 153.78 263.5 153.572 263.324 153.292C263.148 153.004 263.06 152.644 263.06 152.212C263.06 151.572 263.312 151.08 263.816 150.736C264.32 150.384 265.096 150.192 266.144 150.16L267.236 150.124V149.74C267.236 149.204 267.12 148.832 266.888 148.624C266.656 148.416 266.328 148.312 265.904 148.312C265.568 148.312 265.248 148.364 264.944 148.468C264.64 148.564 264.356 148.676 264.092 148.804L263.768 148.012C264.048 147.86 264.38 147.732 264.764 147.628C265.148 147.516 265.548 147.46 265.964 147.46ZM266.276 150.892C265.476 150.924 264.92 151.052 264.608 151.276C264.304 151.5 264.152 151.816 264.152 152.224C264.152 152.584 264.26 152.848 264.476 153.016C264.7 153.184 264.984 153.268 265.328 153.268C265.872 153.268 266.324 153.12 266.684 152.824C267.044 152.52 267.224 152.056 267.224 151.432V150.856L266.276 150.892Z" fill="black"/>
<rect width="210" height="30" transform="translate(68 164)" fill="white"/>
<rect width="30" height="30" transform="translate(68 164)" fill="white"/>
<rect width="30" height="30" transform="translate(98 164)" fill="white"/>
<rect width="30" height="30" transform="translate(128 164)" fill="white"/>
<rect width="30" height="30" transform="translate(158 164)" fill="white"/>
<rect width="30" height="30" transform="translate(188 164)" fill="white"/>
<rect width="30" height="30" transform="translate(218 164)" fill="white"/>
<path d="M233.689 183H232.829V178.01C232.829 177.817 232.829 177.653 232.829 177.52C232.835 177.387 232.842 177.263 232.849 177.15C232.855 177.03 232.862 176.907 232.869 176.78C232.762 176.887 232.665 176.977 232.579 177.05C232.492 177.123 232.382 177.217 232.249 177.33L231.489 177.95L231.029 177.36L232.959 175.86H233.689V183Z" fill="black"/>
<rect width="30" height="30" transform="translate(248 164)" fill="white"/>
<path d="M265.339 183H260.619V182.27L262.489 180.38C262.849 180.02 263.152 179.7 263.399 179.42C263.645 179.14 263.832 178.867 263.959 178.6C264.085 178.327 264.149 178.03 264.149 177.71C264.149 177.317 264.032 177.02 263.799 176.82C263.565 176.613 263.262 176.51 262.889 176.51C262.542 176.51 262.235 176.57 261.969 176.69C261.709 176.81 261.442 176.977 261.169 177.19L260.699 176.6C260.885 176.44 261.089 176.297 261.309 176.17C261.535 176.043 261.779 175.943 262.039 175.87C262.305 175.797 262.589 175.76 262.889 175.76C263.335 175.76 263.719 175.837 264.039 175.99C264.359 176.143 264.605 176.363 264.779 176.65C264.959 176.93 265.049 177.267 265.049 177.66C265.049 177.94 265.005 178.207 264.919 178.46C264.832 178.707 264.709 178.95 264.549 179.19C264.389 179.43 264.195 179.673 263.969 179.92C263.742 180.167 263.492 180.423 263.219 180.69L261.729 182.16V182.2H265.339V183Z" fill="black"/>
<rect width="210" height="30" transform="translate(68 194)" fill="white"/>
<rect width="30" height="30" transform="translate(68 194)" fill="white"/>
<path d="M85.0687 207.53C85.0687 207.85 85.0087 208.127 84.8887 208.36C84.7687 208.593 84.5953 208.783 84.3687 208.93C84.1487 209.077 83.8887 209.18 83.5887 209.24V209.28C84.162 209.347 84.5887 209.527 84.8687 209.82C85.1487 210.113 85.2887 210.497 85.2887 210.97C85.2887 211.383 85.192 211.753 84.9987 212.08C84.8053 212.4 84.5053 212.65 84.0987 212.83C83.6987 213.01 83.182 213.1 82.5487 213.1C82.1753 213.1 81.8287 213.07 81.5087 213.01C81.1887 212.957 80.882 212.857 80.5887 212.71V211.89C80.8887 212.037 81.212 212.153 81.5587 212.24C81.9053 212.32 82.2387 212.36 82.5587 212.36C83.1987 212.36 83.6587 212.237 83.9387 211.99C84.2253 211.737 84.3687 211.39 84.3687 210.95C84.3687 210.65 84.2887 210.41 84.1287 210.23C83.9753 210.043 83.7487 209.907 83.4487 209.82C83.1487 209.733 82.7887 209.69 82.3687 209.69H81.6787V208.94H82.3787C82.772 208.94 83.0987 208.883 83.3587 208.77C83.6253 208.657 83.8253 208.5 83.9587 208.3C84.0987 208.093 84.1687 207.857 84.1687 207.59C84.1687 207.243 84.052 206.977 83.8187 206.79C83.5853 206.597 83.2687 206.5 82.8687 206.5C82.6153 206.5 82.3853 206.527 82.1787 206.58C81.972 206.627 81.7787 206.697 81.5987 206.79C81.4253 206.877 81.2487 206.98 81.0687 207.1L80.6287 206.5C80.802 206.367 80.9987 206.243 81.2187 206.13C81.4453 206.017 81.6953 205.927 81.9687 205.86C82.242 205.793 82.5387 205.76 82.8587 205.76C83.6053 205.76 84.1587 205.927 84.5187 206.26C84.8853 206.593 85.0687 207.017 85.0687 207.53Z" fill="black"/>
<rect width="30" height="30" transform="translate(98 194)" fill="white"/>
<path d="M115.659 211.38H114.619V213H113.769V211.38H110.349V210.63L113.709 205.82H114.619V210.59H115.659V211.38ZM113.769 208.34C113.769 208.167 113.769 208.01 113.769 207.87C113.775 207.723 113.782 207.587 113.789 207.46C113.795 207.333 113.799 207.213 113.799 207.1C113.805 206.98 113.812 206.867 113.819 206.76H113.779C113.725 206.887 113.659 207.023 113.579 207.17C113.499 207.317 113.422 207.44 113.349 207.54L111.209 210.59H113.769V208.34Z" fill="black"/>
<rect x="128.5" y="194.5" width="149" height="29" fill="#F0F2F5"/>
<path d="M142.889 208.62C143.375 208.62 143.799 208.703 144.159 208.87C144.519 209.037 144.795 209.277 144.989 209.59C145.189 209.897 145.289 210.273 145.289 210.72C145.289 211.213 145.182 211.64 144.969 212C144.755 212.353 144.449 212.627 144.049 212.82C143.655 213.007 143.179 213.1 142.619 213.1C142.252 213.1 141.905 213.067 141.579 213C141.259 212.933 140.989 212.837 140.769 212.71V211.88C141.009 212.027 141.299 212.143 141.639 212.23C141.985 212.31 142.315 212.35 142.629 212.35C142.982 212.35 143.289 212.297 143.549 212.19C143.815 212.077 144.022 211.907 144.169 211.68C144.315 211.447 144.389 211.157 144.389 210.81C144.389 210.343 144.245 209.987 143.959 209.74C143.672 209.487 143.219 209.36 142.599 209.36C142.412 209.36 142.199 209.377 141.959 209.41C141.719 209.443 141.525 209.477 141.379 209.51L140.939 209.23L141.209 205.86H144.789V206.66H141.959L141.789 208.73C141.902 208.71 142.055 208.687 142.249 208.66C142.442 208.633 142.655 208.62 142.889 208.62Z" fill="black"/>
<path d="M170.689 209.95C170.689 209.537 170.715 209.13 170.769 208.73C170.829 208.33 170.929 207.953 171.069 207.6C171.209 207.24 171.402 206.923 171.649 206.65C171.895 206.37 172.205 206.153 172.579 206C172.959 205.84 173.419 205.76 173.959 205.76C174.099 205.76 174.252 205.767 174.419 205.78C174.592 205.793 174.732 205.817 174.839 205.85V206.6C174.719 206.56 174.582 206.53 174.429 206.51C174.282 206.49 174.132 206.48 173.979 206.48C173.519 206.48 173.135 206.557 172.829 206.71C172.522 206.863 172.279 207.073 172.099 207.34C171.925 207.607 171.799 207.913 171.719 208.26C171.639 208.607 171.589 208.977 171.569 209.37H171.629C171.729 209.21 171.855 209.067 172.009 208.94C172.162 208.813 172.345 208.713 172.559 208.64C172.779 208.567 173.032 208.53 173.319 208.53C173.732 208.53 174.092 208.617 174.399 208.79C174.712 208.957 174.955 209.203 175.129 209.53C175.302 209.85 175.389 210.24 175.389 210.7C175.389 211.193 175.295 211.62 175.109 211.98C174.922 212.34 174.659 212.617 174.319 212.81C173.985 213.003 173.585 213.1 173.119 213.1C172.779 213.1 172.462 213.037 172.169 212.91C171.875 212.783 171.615 212.59 171.389 212.33C171.169 212.07 170.995 211.743 170.869 211.35C170.749 210.95 170.689 210.483 170.689 209.95ZM173.109 212.36C173.529 212.36 173.869 212.227 174.129 211.96C174.389 211.687 174.519 211.267 174.519 210.7C174.519 210.247 174.402 209.887 174.169 209.62C173.942 209.353 173.599 209.22 173.139 209.22C172.825 209.22 172.552 209.287 172.319 209.42C172.085 209.547 171.902 209.71 171.769 209.91C171.642 210.11 171.579 210.317 171.579 210.53C171.579 210.75 171.609 210.967 171.669 211.18C171.735 211.393 171.832 211.59 171.959 211.77C172.092 211.95 172.252 212.093 172.439 212.2C172.632 212.307 172.855 212.36 173.109 212.36Z" fill="black"/>
<rect width="30" height="30" transform="translate(188 194)" fill="#24508F"/>
<path d="M201.249 213L203.929 207.13H200.409V205.86H205.529V206.81L202.829 213H201.249Z" fill="white"/>
<path d="M232.989 205.76C233.409 205.76 233.779 205.827 234.099 205.96C234.419 206.087 234.669 206.277 234.849 206.53C235.035 206.783 235.129 207.097 235.129 207.47C235.129 207.757 235.065 208.007 234.939 208.22C234.819 208.433 234.655 208.623 234.449 208.79C234.242 208.95 234.015 209.093 233.769 209.22C234.062 209.36 234.329 209.52 234.569 209.7C234.809 209.873 234.999 210.077 235.139 210.31C235.285 210.543 235.359 210.823 235.359 211.15C235.359 211.55 235.262 211.897 235.069 212.19C234.875 212.477 234.602 212.7 234.249 212.86C233.902 213.02 233.492 213.1 233.019 213.1C232.505 213.1 232.069 213.023 231.709 212.87C231.355 212.717 231.085 212.5 230.899 212.22C230.719 211.933 230.629 211.587 230.629 211.18C230.629 210.853 230.695 210.57 230.829 210.33C230.969 210.09 231.152 209.883 231.379 209.71C231.605 209.537 231.849 209.39 232.109 209.27C231.875 209.137 231.662 208.987 231.469 208.82C231.282 208.647 231.132 208.45 231.019 208.23C230.912 208.01 230.859 207.753 230.859 207.46C230.859 207.093 230.952 206.787 231.139 206.54C231.325 206.287 231.579 206.093 231.899 205.96C232.219 205.827 232.582 205.76 232.989 205.76ZM231.489 211.19C231.489 211.537 231.612 211.827 231.859 212.06C232.105 212.287 232.485 212.4 232.999 212.4C233.325 212.4 233.599 212.347 233.819 212.24C234.039 212.133 234.205 211.987 234.319 211.8C234.439 211.613 234.499 211.4 234.499 211.16C234.499 210.927 234.435 210.723 234.309 210.55C234.189 210.37 234.015 210.21 233.789 210.07C233.569 209.93 233.305 209.803 232.999 209.69L232.839 209.63C232.545 209.757 232.299 209.893 232.099 210.04C231.899 210.187 231.745 210.353 231.639 210.54C231.539 210.727 231.489 210.943 231.489 211.19ZM232.979 206.47C232.612 206.47 232.309 206.56 232.069 206.74C231.835 206.913 231.719 207.167 231.719 207.5C231.719 207.747 231.775 207.953 231.889 208.12C232.009 208.287 232.169 208.43 232.369 208.55C232.569 208.663 232.789 208.773 233.029 208.88C233.262 208.78 233.469 208.67 233.649 208.55C233.835 208.43 233.982 208.287 234.089 208.12C234.202 207.947 234.259 207.74 234.259 207.5C234.259 207.167 234.142 206.913 233.909 206.74C233.675 206.56 233.365 206.47 232.979 206.47Z" fill="black"/>
<path d="M265.339 208.91C265.339 209.317 265.309 209.723 265.249 210.13C265.195 210.53 265.099 210.91 264.959 211.27C264.819 211.623 264.625 211.94 264.379 212.22C264.132 212.493 263.819 212.71 263.439 212.87C263.059 213.023 262.599 213.1 262.059 213.1C261.925 213.1 261.769 213.09 261.589 213.07C261.415 213.057 261.272 213.033 261.159 213V212.25C261.279 212.29 261.419 212.323 261.579 212.35C261.739 212.37 261.892 212.38 262.039 212.38C262.505 212.38 262.889 212.303 263.189 212.15C263.495 211.997 263.739 211.79 263.919 211.53C264.099 211.263 264.229 210.957 264.309 210.61C264.389 210.257 264.435 209.887 264.449 209.5H264.389C264.289 209.653 264.162 209.793 264.009 209.92C263.855 210.047 263.669 210.147 263.449 210.22C263.235 210.293 262.982 210.33 262.689 210.33C262.282 210.33 261.922 210.247 261.609 210.08C261.302 209.907 261.062 209.66 260.889 209.34C260.722 209.02 260.639 208.63 260.639 208.17C260.639 207.67 260.732 207.24 260.919 206.88C261.112 206.52 261.379 206.243 261.719 206.05C262.059 205.857 262.459 205.76 262.919 205.76C263.259 205.76 263.575 205.827 263.869 205.96C264.162 206.087 264.419 206.28 264.639 206.54C264.859 206.8 265.029 207.127 265.149 207.52C265.275 207.913 265.339 208.377 265.339 208.91ZM262.919 206.5C262.505 206.5 262.165 206.637 261.899 206.91C261.639 207.183 261.509 207.6 261.509 208.16C261.509 208.62 261.619 208.983 261.839 209.25C262.065 209.51 262.412 209.64 262.879 209.64C263.199 209.64 263.475 209.577 263.709 209.45C263.942 209.317 264.122 209.15 264.249 208.95C264.382 208.75 264.449 208.543 264.449 208.33C264.449 208.117 264.415 207.903 264.349 207.69C264.289 207.47 264.195 207.27 264.069 207.09C263.942 206.91 263.782 206.767 263.589 206.66C263.395 206.553 263.172 206.5 262.919 206.5Z" fill="black"/>
<rect x="128.5" y="194.5" width="149" height="29" stroke="#AFB9C3"/>
<rect width="210" height="30" transform="translate(68 224)" fill="white"/>
<rect width="30" height="30" transform="translate(68 224)" fill="white"/>
<path d="M80.8273 243H79.9673V238.01C79.9673 237.817 79.9673 237.653 79.9673 237.52C79.974 237.387 79.9807 237.263 79.9873 237.15C79.994 237.03 80.0007 236.907 80.0073 236.78C79.9007 236.887 79.804 236.977 79.7173 237.05C79.6307 237.123 79.5207 237.217 79.3873 237.33L78.6273 237.95L78.1673 237.36L80.0973 235.86H80.8273V243ZM88.23 239.42C88.23 240 88.1867 240.517 88.1 240.97C88.0133 241.423 87.8733 241.81 87.68 242.13C87.4933 242.443 87.2467 242.683 86.94 242.85C86.64 243.017 86.2767 243.1 85.85 243.1C85.3167 243.1 84.8733 242.953 84.52 242.66C84.1733 242.367 83.9133 241.947 83.74 241.4C83.5733 240.847 83.49 240.187 83.49 239.42C83.49 238.647 83.5667 237.987 83.72 237.44C83.88 236.893 84.1333 236.477 84.48 236.19C84.8267 235.897 85.2833 235.75 85.85 235.75C86.3833 235.75 86.8267 235.897 87.18 236.19C87.5333 236.477 87.7967 236.893 87.97 237.44C88.1433 237.987 88.23 238.647 88.23 239.42ZM84.37 239.42C84.37 240.073 84.4167 240.617 84.51 241.05C84.61 241.483 84.7667 241.81 84.98 242.03C85.2 242.243 85.49 242.35 85.85 242.35C86.21 242.35 86.4967 242.243 86.71 242.03C86.93 241.817 87.09 241.493 87.19 241.06C87.29 240.62 87.34 240.073 87.34 239.42C87.34 238.767 87.29 238.227 87.19 237.8C87.09 237.367 86.93 237.043 86.71 236.83C86.4967 236.61 86.21 236.5 85.85 236.5C85.49 236.5 85.2 236.61 84.98 236.83C84.7667 237.043 84.61 237.367 84.51 237.8C84.4167 238.227 84.37 238.767 84.37 239.42Z" fill="black"/>
<rect width="30" height="30" transform="translate(98 224)" fill="white"/>
<path d="M110.827 243H109.967V238.01C109.967 237.817 109.967 237.653 109.967 237.52C109.974 237.387 109.981 237.263 109.987 237.15C109.994 237.03 110.001 236.907 110.007 236.78C109.901 236.887 109.804 236.977 109.717 237.05C109.631 237.123 109.521 237.217 109.387 237.33L108.627 237.95L108.167 237.36L110.097 235.86H110.827V243ZM116.55 243H115.69V238.01C115.69 237.817 115.69 237.653 115.69 237.52C115.697 237.387 115.703 237.263 115.71 237.15C115.717 237.03 115.723 236.907 115.73 236.78C115.623 236.887 115.527 236.977 115.44 237.05C115.353 237.123 115.243 237.217 115.11 237.33L114.35 237.95L113.89 237.36L115.82 235.86H116.55V243Z" fill="black"/>
<rect width="30" height="30" transform="translate(128 224)" fill="white"/>
<path d="M140.827 243H139.967V238.01C139.967 237.817 139.967 237.653 139.967 237.52C139.974 237.387 139.981 237.263 139.987 237.15C139.994 237.03 140.001 236.907 140.007 236.78C139.901 236.887 139.804 236.977 139.717 237.05C139.631 237.123 139.521 237.217 139.387 237.33L138.627 237.95L138.167 237.36L140.097 235.86H140.827V243ZM148.2 243H143.48V242.27L145.35 240.38C145.71 240.02 146.013 239.7 146.26 239.42C146.507 239.14 146.693 238.867 146.82 238.6C146.947 238.327 147.01 238.03 147.01 237.71C147.01 237.317 146.893 237.02 146.66 236.82C146.427 236.613 146.123 236.51 145.75 236.51C145.403 236.51 145.097 236.57 144.83 236.69C144.57 236.81 144.303 236.977 144.03 237.19L143.56 236.6C143.747 236.44 143.95 236.297 144.17 236.17C144.397 236.043 144.64 235.943 144.9 235.87C145.167 235.797 145.45 235.76 145.75 235.76C146.197 235.76 146.58 235.837 146.9 235.99C147.22 236.143 147.467 236.363 147.64 236.65C147.82 236.93 147.91 237.267 147.91 237.66C147.91 237.94 147.867 238.207 147.78 238.46C147.693 238.707 147.57 238.95 147.41 239.19C147.25 239.43 147.057 239.673 146.83 239.92C146.603 240.167 146.353 240.423 146.08 240.69L144.59 242.16V242.2H148.2V243Z" fill="black"/>
<rect width="30" height="30" transform="translate(158 224)" fill="white"/>
<path d="M170.827 243H169.967V238.01C169.967 237.817 169.967 237.653 169.967 237.52C169.974 237.387 169.981 237.263 169.987 237.15C169.994 237.03 170.001 236.907 170.007 236.78C169.901 236.887 169.804 236.977 169.717 237.05C169.631 237.123 169.521 237.217 169.387 237.33L168.627 237.95L168.167 237.36L170.097 235.86H170.827V243ZM177.93 237.53C177.93 237.85 177.87 238.127 177.75 238.36C177.63 238.593 177.457 238.783 177.23 238.93C177.01 239.077 176.75 239.18 176.45 239.24V239.28C177.023 239.347 177.45 239.527 177.73 239.82C178.01 240.113 178.15 240.497 178.15 240.97C178.15 241.383 178.053 241.753 177.86 242.08C177.667 242.4 177.367 242.65 176.96 242.83C176.56 243.01 176.043 243.1 175.41 243.1C175.037 243.1 174.69 243.07 174.37 243.01C174.05 242.957 173.743 242.857 173.45 242.71V241.89C173.75 242.037 174.073 242.153 174.42 242.24C174.767 242.32 175.1 242.36 175.42 242.36C176.06 242.36 176.52 242.237 176.8 241.99C177.087 241.737 177.23 241.39 177.23 240.95C177.23 240.65 177.15 240.41 176.99 240.23C176.837 240.043 176.61 239.907 176.31 239.82C176.01 239.733 175.65 239.69 175.23 239.69H174.54V238.94H175.24C175.633 238.94 175.96 238.883 176.22 238.77C176.487 238.657 176.687 238.5 176.82 238.3C176.96 238.093 177.03 237.857 177.03 237.59C177.03 237.243 176.913 236.977 176.68 236.79C176.447 236.597 176.13 236.5 175.73 236.5C175.477 236.5 175.247 236.527 175.04 236.58C174.833 236.627 174.64 236.697 174.46 236.79C174.287 236.877 174.11 236.98 173.93 237.1L173.49 236.5C173.663 236.367 173.86 236.243 174.08 236.13C174.307 236.017 174.557 235.927 174.83 235.86C175.103 235.793 175.4 235.76 175.72 235.76C176.467 235.76 177.02 235.927 177.38 236.26C177.747 236.593 177.93 237.017 177.93 237.53Z" fill="black"/>
<rect width="30" height="30" transform="translate(188 224)" fill="white"/>
<path d="M200.827 243H199.967V238.01C199.967 237.817 199.967 237.653 199.967 237.52C199.974 237.387 199.981 237.263 199.987 237.15C199.994 237.03 200.001 236.907 200.007 236.78C199.901 236.887 199.804 236.977 199.717 237.05C199.631 237.123 199.521 237.217 199.387 237.33L198.627 237.95L198.167 237.36L200.097 235.86H200.827V243ZM208.52 241.38H207.48V243H206.63V241.38H203.21V240.63L206.57 235.82H207.48V240.59H208.52V241.38ZM206.63 238.34C206.63 238.167 206.63 238.01 206.63 237.87C206.637 237.723 206.643 237.587 206.65 237.46C206.657 237.333 206.66 237.213 206.66 237.1C206.667 236.98 206.673 236.867 206.68 236.76H206.64C206.587 236.887 206.52 237.023 206.44 237.17C206.36 237.317 206.283 237.44 206.21 237.54L204.07 240.59H206.63V238.34Z" fill="black"/>
<rect width="30" height="30" transform="translate(218 224)" fill="white"/>
<path d="M230.827 243H229.967V238.01C229.967 237.817 229.967 237.653 229.967 237.52C229.974 237.387 229.981 237.263 229.987 237.15C229.994 237.03 230.001 236.907 230.007 236.78C229.901 236.887 229.804 236.977 229.717 237.05C229.631 237.123 229.521 237.217 229.387 237.33L228.627 237.95L228.167 237.36L230.097 235.86H230.827V243ZM235.75 238.62C236.237 238.62 236.66 238.703 237.02 238.87C237.38 239.037 237.657 239.277 237.85 239.59C238.05 239.897 238.15 240.273 238.15 240.72C238.15 241.213 238.043 241.64 237.83 242C237.617 242.353 237.31 242.627 236.91 242.82C236.517 243.007 236.04 243.1 235.48 243.1C235.113 243.1 234.767 243.067 234.44 243C234.12 242.933 233.85 242.837 233.63 242.71V241.88C233.87 242.027 234.16 242.143 234.5 242.23C234.847 242.31 235.177 242.35 235.49 242.35C235.843 242.35 236.15 242.297 236.41 242.19C236.677 242.077 236.883 241.907 237.03 241.68C237.177 241.447 237.25 241.157 237.25 240.81C237.25 240.343 237.107 239.987 236.82 239.74C236.533 239.487 236.08 239.36 235.46 239.36C235.273 239.36 235.06 239.377 234.82 239.41C234.58 239.443 234.387 239.477 234.24 239.51L233.8 239.23L234.07 235.86H237.65V236.66H234.82L234.65 238.73C234.763 238.71 234.917 238.687 235.11 238.66C235.303 238.633 235.517 238.62 235.75 238.62Z" fill="black"/>
<rect width="30" height="30" transform="translate(248 224)" fill="white"/>
<path d="M260.827 243H259.967V238.01C259.967 237.817 259.967 237.653 259.967 237.52C259.974 237.387 259.981 237.263 259.987 237.15C259.994 237.03 260.001 236.907 260.007 236.78C259.901 236.887 259.804 236.977 259.717 237.05C259.631 237.123 259.521 237.217 259.387 237.33L258.627 237.95L258.167 237.36L260.097 235.86H260.827V243ZM263.55 239.95C263.55 239.537 263.577 239.13 263.63 238.73C263.69 238.33 263.79 237.953 263.93 237.6C264.07 237.24 264.263 236.923 264.51 236.65C264.757 236.37 265.067 236.153 265.44 236C265.82 235.84 266.28 235.76 266.82 235.76C266.96 235.76 267.113 235.767 267.28 235.78C267.453 235.793 267.593 235.817 267.7 235.85V236.6C267.58 236.56 267.443 236.53 267.29 236.51C267.143 236.49 266.993 236.48 266.84 236.48C266.38 236.48 265.997 236.557 265.69 236.71C265.383 236.863 265.14 237.073 264.96 237.34C264.787 237.607 264.66 237.913 264.58 238.26C264.5 238.607 264.45 238.977 264.43 239.37H264.49C264.59 239.21 264.717 239.067 264.87 238.94C265.023 238.813 265.207 238.713 265.42 238.64C265.64 238.567 265.893 238.53 266.18 238.53C266.593 238.53 266.953 238.617 267.26 238.79C267.573 238.957 267.817 239.203 267.99 239.53C268.163 239.85 268.25 240.24 268.25 240.7C268.25 241.193 268.157 241.62 267.97 241.98C267.783 242.34 267.52 242.617 267.18 242.81C266.847 243.003 266.447 243.1 265.98 243.1C265.64 243.1 265.323 243.037 265.03 242.91C264.737 242.783 264.477 242.59 264.25 242.33C264.03 242.07 263.857 241.743 263.73 241.35C263.61 240.95 263.55 240.483 263.55 239.95ZM265.97 242.36C266.39 242.36 266.73 242.227 266.99 241.96C267.25 241.687 267.38 241.267 267.38 240.7C267.38 240.247 267.263 239.887 267.03 239.62C266.803 239.353 266.46 239.22 266 239.22C265.687 239.22 265.413 239.287 265.18 239.42C264.947 239.547 264.763 239.71 264.63 239.91C264.503 240.11 264.44 240.317 264.44 240.53C264.44 240.75 264.47 240.967 264.53 241.18C264.597 241.393 264.693 241.59 264.82 241.77C264.953 241.95 265.113 242.093 265.3 242.2C265.493 242.307 265.717 242.36 265.97 242.36Z" fill="black"/>
<rect width="210" height="30" transform="translate(68 254)" fill="white"/>
<rect width="30" height="30" transform="translate(68 254)" fill="white"/>
<path d="M80.8273 273H79.9673V268.01C79.9673 267.817 79.9673 267.653 79.9673 267.52C79.974 267.387 79.9807 267.263 79.9873 267.15C79.994 267.03 80.0007 266.907 80.0073 266.78C79.9007 266.887 79.804 266.977 79.7173 267.05C79.6307 267.123 79.5207 267.217 79.3873 267.33L78.6273 267.95L78.1673 267.36L80.0973 265.86H80.8273V273ZM84.36 273L87.29 266.66H83.44V265.86H88.23V266.54L85.33 273H84.36Z" fill="black"/>
<rect width="30" height="30" transform="translate(98 254)" fill="white"/>
<path d="M110.827 273H109.967V268.01C109.967 267.817 109.967 267.653 109.967 267.52C109.974 267.387 109.981 267.263 109.987 267.15C109.994 267.03 110.001 266.907 110.007 266.78C109.901 266.887 109.804 266.977 109.717 267.05C109.631 267.123 109.521 267.217 109.387 267.33L108.627 267.95L108.167 267.36L110.097 265.86H110.827V273ZM115.85 265.76C116.27 265.76 116.64 265.827 116.96 265.96C117.28 266.087 117.53 266.277 117.71 266.53C117.897 266.783 117.99 267.097 117.99 267.47C117.99 267.757 117.927 268.007 117.8 268.22C117.68 268.433 117.517 268.623 117.31 268.79C117.103 268.95 116.877 269.093 116.63 269.22C116.923 269.36 117.19 269.52 117.43 269.7C117.67 269.873 117.86 270.077 118 270.31C118.147 270.543 118.22 270.823 118.22 271.15C118.22 271.55 118.123 271.897 117.93 272.19C117.737 272.477 117.463 272.7 117.11 272.86C116.763 273.02 116.353 273.1 115.88 273.1C115.367 273.1 114.93 273.023 114.57 272.87C114.217 272.717 113.947 272.5 113.76 272.22C113.58 271.933 113.49 271.587 113.49 271.18C113.49 270.853 113.557 270.57 113.69 270.33C113.83 270.09 114.013 269.883 114.24 269.71C114.467 269.537 114.71 269.39 114.97 269.27C114.737 269.137 114.523 268.987 114.33 268.82C114.143 268.647 113.993 268.45 113.88 268.23C113.773 268.01 113.72 267.753 113.72 267.46C113.72 267.093 113.813 266.787 114 266.54C114.187 266.287 114.44 266.093 114.76 265.96C115.08 265.827 115.443 265.76 115.85 265.76ZM114.35 271.19C114.35 271.537 114.473 271.827 114.72 272.06C114.967 272.287 115.347 272.4 115.86 272.4C116.187 272.4 116.46 272.347 116.68 272.24C116.9 272.133 117.067 271.987 117.18 271.8C117.3 271.613 117.36 271.4 117.36 271.16C117.36 270.927 117.297 270.723 117.17 270.55C117.05 270.37 116.877 270.21 116.65 270.07C116.43 269.93 116.167 269.803 115.86 269.69L115.7 269.63C115.407 269.757 115.16 269.893 114.96 270.04C114.76 270.187 114.607 270.353 114.5 270.54C114.4 270.727 114.35 270.943 114.35 271.19ZM115.84 266.47C115.473 266.47 115.17 266.56 114.93 266.74C114.697 266.913 114.58 267.167 114.58 267.5C114.58 267.747 114.637 267.953 114.75 268.12C114.87 268.287 115.03 268.43 115.23 268.55C115.43 268.663 115.65 268.773 115.89 268.88C116.123 268.78 116.33 268.67 116.51 268.55C116.697 268.43 116.843 268.287 116.95 268.12C117.063 267.947 117.12 267.74 117.12 267.5C117.12 267.167 117.003 266.913 116.77 266.74C116.537 266.56 116.227 266.47 115.84 266.47Z" fill="black"/>
<rect width="30" height="30" transform="translate(128 254)" fill="white"/>
<path d="M140.827 273H139.967V268.01C139.967 267.817 139.967 267.653 139.967 267.52C139.974 267.387 139.981 267.263 139.987 267.15C139.994 267.03 140.001 266.907 140.007 266.78C139.901 266.887 139.804 266.977 139.717 267.05C139.631 267.123 139.521 267.217 139.387 267.33L138.627 267.95L138.167 267.36L140.097 265.86H140.827V273ZM148.2 268.91C148.2 269.317 148.17 269.723 148.11 270.13C148.057 270.53 147.96 270.91 147.82 271.27C147.68 271.623 147.487 271.94 147.24 272.22C146.993 272.493 146.68 272.71 146.3 272.87C145.92 273.023 145.46 273.1 144.92 273.1C144.787 273.1 144.63 273.09 144.45 273.07C144.277 273.057 144.133 273.033 144.02 273V272.25C144.14 272.29 144.28 272.323 144.44 272.35C144.6 272.37 144.753 272.38 144.9 272.38C145.367 272.38 145.75 272.303 146.05 272.15C146.357 271.997 146.6 271.79 146.78 271.53C146.96 271.263 147.09 270.957 147.17 270.61C147.25 270.257 147.297 269.887 147.31 269.5H147.25C147.15 269.653 147.023 269.793 146.87 269.92C146.717 270.047 146.53 270.147 146.31 270.22C146.097 270.293 145.843 270.33 145.55 270.33C145.143 270.33 144.783 270.247 144.47 270.08C144.163 269.907 143.923 269.66 143.75 269.34C143.583 269.02 143.5 268.63 143.5 268.17C143.5 267.67 143.593 267.24 143.78 266.88C143.973 266.52 144.24 266.243 144.58 266.05C144.92 265.857 145.32 265.76 145.78 265.76C146.12 265.76 146.437 265.827 146.73 265.96C147.023 266.087 147.28 266.28 147.5 266.54C147.72 266.8 147.89 267.127 148.01 267.52C148.137 267.913 148.2 268.377 148.2 268.91ZM145.78 266.5C145.367 266.5 145.027 266.637 144.76 266.91C144.5 267.183 144.37 267.6 144.37 268.16C144.37 268.62 144.48 268.983 144.7 269.25C144.927 269.51 145.273 269.64 145.74 269.64C146.06 269.64 146.337 269.577 146.57 269.45C146.803 269.317 146.983 269.15 147.11 268.95C147.243 268.75 147.31 268.543 147.31 268.33C147.31 268.117 147.277 267.903 147.21 267.69C147.15 267.47 147.057 267.27 146.93 267.09C146.803 266.91 146.643 266.767 146.45 266.66C146.257 266.553 146.033 266.5 145.78 266.5Z" fill="black"/>
<rect width="30" height="30" transform="translate(158 254)" fill="white"/>
<path d="M172.477 273H167.757V272.27L169.627 270.38C169.987 270.02 170.291 269.7 170.537 269.42C170.784 269.14 170.971 268.867 171.097 268.6C171.224 268.327 171.287 268.03 171.287 267.71C171.287 267.317 171.171 267.02 170.937 266.82C170.704 266.613 170.401 266.51 170.027 266.51C169.681 266.51 169.374 266.57 169.107 266.69C168.847 266.81 168.581 266.977 168.307 267.19L167.837 266.6C168.024 266.44 168.227 266.297 168.447 266.17C168.674 266.043 168.917 265.943 169.177 265.87C169.444 265.797 169.727 265.76 170.027 265.76C170.474 265.76 170.857 265.837 171.177 265.99C171.497 266.143 171.744 266.363 171.917 266.65C172.097 266.93 172.187 267.267 172.187 267.66C172.187 267.94 172.144 268.207 172.057 268.46C171.971 268.707 171.847 268.95 171.687 269.19C171.527 269.43 171.334 269.673 171.107 269.92C170.881 270.167 170.631 270.423 170.357 270.69L168.867 272.16V272.2H172.477V273ZM178.23 269.42C178.23 270 178.187 270.517 178.1 270.97C178.013 271.423 177.873 271.81 177.68 272.13C177.493 272.443 177.247 272.683 176.94 272.85C176.64 273.017 176.277 273.1 175.85 273.1C175.317 273.1 174.873 272.953 174.52 272.66C174.173 272.367 173.913 271.947 173.74 271.4C173.573 270.847 173.49 270.187 173.49 269.42C173.49 268.647 173.567 267.987 173.72 267.44C173.88 266.893 174.133 266.477 174.48 266.19C174.827 265.897 175.283 265.75 175.85 265.75C176.383 265.75 176.827 265.897 177.18 266.19C177.533 266.477 177.797 266.893 177.97 267.44C178.143 267.987 178.23 268.647 178.23 269.42ZM174.37 269.42C174.37 270.073 174.417 270.617 174.51 271.05C174.61 271.483 174.767 271.81 174.98 272.03C175.2 272.243 175.49 272.35 175.85 272.35C176.21 272.35 176.497 272.243 176.71 272.03C176.93 271.817 177.09 271.493 177.19 271.06C177.29 270.62 177.34 270.073 177.34 269.42C177.34 268.767 177.29 268.227 177.19 267.8C177.09 267.367 176.93 267.043 176.71 266.83C176.497 266.61 176.21 266.5 175.85 266.5C175.49 266.5 175.2 266.61 174.98 266.83C174.767 267.043 174.61 267.367 174.51 267.8C174.417 268.227 174.37 268.767 174.37 269.42Z" fill="black"/>
<rect width="30" height="30" transform="translate(188 254)" fill="white"/>
<path d="M202.477 273H197.757V272.27L199.627 270.38C199.987 270.02 200.291 269.7 200.537 269.42C200.784 269.14 200.971 268.867 201.097 268.6C201.224 268.327 201.287 268.03 201.287 267.71C201.287 267.317 201.171 267.02 200.937 266.82C200.704 266.613 200.401 266.51 200.027 266.51C199.681 266.51 199.374 266.57 199.107 266.69C198.847 266.81 198.581 266.977 198.307 267.19L197.837 266.6C198.024 266.44 198.227 266.297 198.447 266.17C198.674 266.043 198.917 265.943 199.177 265.87C199.444 265.797 199.727 265.76 200.027 265.76C200.474 265.76 200.857 265.837 201.177 265.99C201.497 266.143 201.744 266.363 201.917 266.65C202.097 266.93 202.187 267.267 202.187 267.66C202.187 267.94 202.144 268.207 202.057 268.46C201.971 268.707 201.847 268.95 201.687 269.19C201.527 269.43 201.334 269.673 201.107 269.92C200.881 270.167 200.631 270.423 200.357 270.69L198.867 272.16V272.2H202.477V273ZM206.55 273H205.69V268.01C205.69 267.817 205.69 267.653 205.69 267.52C205.697 267.387 205.703 267.263 205.71 267.15C205.717 267.03 205.723 266.907 205.73 266.78C205.623 266.887 205.527 266.977 205.44 267.05C205.353 267.123 205.243 267.217 205.11 267.33L204.35 267.95L203.89 267.36L205.82 265.86H206.55V273Z" fill="black"/>
<rect width="30" height="30" transform="translate(218 254)" fill="white"/>
<path d="M232.477 273H227.757V272.27L229.627 270.38C229.987 270.02 230.291 269.7 230.537 269.42C230.784 269.14 230.971 268.867 231.097 268.6C231.224 268.327 231.287 268.03 231.287 267.71C231.287 267.317 231.171 267.02 230.937 266.82C230.704 266.613 230.401 266.51 230.027 266.51C229.681 266.51 229.374 266.57 229.107 266.69C228.847 266.81 228.581 266.977 228.307 267.19L227.837 266.6C228.024 266.44 228.227 266.297 228.447 266.17C228.674 266.043 228.917 265.943 229.177 265.87C229.444 265.797 229.727 265.76 230.027 265.76C230.474 265.76 230.857 265.837 231.177 265.99C231.497 266.143 231.744 266.363 231.917 266.65C232.097 266.93 232.187 267.267 232.187 267.66C232.187 267.94 232.144 268.207 232.057 268.46C231.971 268.707 231.847 268.95 231.687 269.19C231.527 269.43 231.334 269.673 231.107 269.92C230.881 270.167 230.631 270.423 230.357 270.69L228.867 272.16V272.2H232.477V273ZM238.2 273H233.48V272.27L235.35 270.38C235.71 270.02 236.013 269.7 236.26 269.42C236.507 269.14 236.693 268.867 236.82 268.6C236.947 268.327 237.01 268.03 237.01 267.71C237.01 267.317 236.893 267.02 236.66 266.82C236.427 266.613 236.123 266.51 235.75 266.51C235.403 266.51 235.097 266.57 234.83 266.69C234.57 266.81 234.303 266.977 234.03 267.19L233.56 266.6C233.747 266.44 233.95 266.297 234.17 266.17C234.397 266.043 234.64 265.943 234.9 265.87C235.167 265.797 235.45 265.76 235.75 265.76C236.197 265.76 236.58 265.837 236.9 265.99C237.22 266.143 237.467 266.363 237.64 266.65C237.82 266.93 237.91 267.267 237.91 267.66C237.91 267.94 237.867 268.207 237.78 268.46C237.693 268.707 237.57 268.95 237.41 269.19C237.25 269.43 237.057 269.673 236.83 269.92C236.603 270.167 236.353 270.423 236.08 270.69L234.59 272.16V272.2H238.2V273Z" fill="black"/>
<rect width="30" height="30" transform="translate(248 254)" fill="white"/>
<path d="M262.477 273H257.757V272.27L259.627 270.38C259.987 270.02 260.291 269.7 260.537 269.42C260.784 269.14 260.971 268.867 261.097 268.6C261.224 268.327 261.287 268.03 261.287 267.71C261.287 267.317 261.171 267.02 260.937 266.82C260.704 266.613 260.401 266.51 260.027 266.51C259.681 266.51 259.374 266.57 259.107 266.69C258.847 266.81 258.581 266.977 258.307 267.19L257.837 266.6C258.024 266.44 258.227 266.297 258.447 266.17C258.674 266.043 258.917 265.943 259.177 265.87C259.444 265.797 259.727 265.76 260.027 265.76C260.474 265.76 260.857 265.837 261.177 265.99C261.497 266.143 261.744 266.363 261.917 266.65C262.097 266.93 262.187 267.267 262.187 267.66C262.187 267.94 262.144 268.207 262.057 268.46C261.971 268.707 261.847 268.95 261.687 269.19C261.527 269.43 261.334 269.673 261.107 269.92C260.881 270.167 260.631 270.423 260.357 270.69L258.867 272.16V272.2H262.477V273ZM267.93 267.53C267.93 267.85 267.87 268.127 267.75 268.36C267.63 268.593 267.457 268.783 267.23 268.93C267.01 269.077 266.75 269.18 266.45 269.24V269.28C267.023 269.347 267.45 269.527 267.73 269.82C268.01 270.113 268.15 270.497 268.15 270.97C268.15 271.383 268.053 271.753 267.86 272.08C267.667 272.4 267.367 272.65 266.96 272.83C266.56 273.01 266.043 273.1 265.41 273.1C265.037 273.1 264.69 273.07 264.37 273.01C264.05 272.957 263.743 272.857 263.45 272.71V271.89C263.75 272.037 264.073 272.153 264.42 272.24C264.767 272.32 265.1 272.36 265.42 272.36C266.06 272.36 266.52 272.237 266.8 271.99C267.087 271.737 267.23 271.39 267.23 270.95C267.23 270.65 267.15 270.41 266.99 270.23C266.837 270.043 266.61 269.907 266.31 269.82C266.01 269.733 265.65 269.69 265.23 269.69H264.54V268.94H265.24C265.633 268.94 265.96 268.883 266.22 268.77C266.487 268.657 266.687 268.5 266.82 268.3C266.96 268.093 267.03 267.857 267.03 267.59C267.03 267.243 266.913 266.977 266.68 266.79C266.447 266.597 266.13 266.5 265.73 266.5C265.477 266.5 265.247 266.527 265.04 266.58C264.833 266.627 264.64 266.697 264.46 266.79C264.287 266.877 264.11 266.98 263.93 267.1L263.49 266.5C263.663 266.367 263.86 266.243 264.08 266.13C264.307 266.017 264.557 265.927 264.83 265.86C265.103 265.793 265.4 265.76 265.72 265.76C266.467 265.76 267.02 265.927 267.38 266.26C267.747 266.593 267.93 267.017 267.93 267.53Z" fill="black"/>
<rect x="68.5" y="104.5" width="209" height="179" stroke="#AFB9C3"/>
<rect x="288.5" y="104.5" width="159" height="54" fill="#F0F2F5"/>
<path d="M292.96 124.9C292.8 124.9 292.66 124.887 292.54 124.86C292.42 124.84 292.313 124.81 292.22 124.77V124.01C292.327 124.037 292.44 124.06 292.56 124.08C292.68 124.1 292.807 124.11 292.94 124.11C293.107 124.11 293.263 124.077 293.41 124.01C293.563 123.943 293.687 123.827 293.78 123.66C293.873 123.493 293.92 123.26 293.92 122.96V115.86H294.82V122.89C294.82 123.35 294.743 123.727 294.59 124.02C294.437 124.32 294.22 124.54 293.94 124.68C293.66 124.827 293.333 124.9 292.96 124.9ZM298.654 117.54C299.114 117.54 299.508 117.64 299.834 117.84C300.168 118.04 300.421 118.323 300.594 118.69C300.774 119.05 300.864 119.473 300.864 119.96V120.49H297.194C297.208 121.097 297.361 121.56 297.654 121.88C297.954 122.193 298.371 122.35 298.904 122.35C299.244 122.35 299.544 122.32 299.804 122.26C300.071 122.193 300.344 122.1 300.624 121.98V122.75C300.351 122.87 300.081 122.957 299.814 123.01C299.548 123.07 299.231 123.1 298.864 123.1C298.358 123.1 297.908 122.997 297.514 122.79C297.128 122.583 296.824 122.277 296.604 121.87C296.391 121.457 296.284 120.953 296.284 120.36C296.284 119.773 296.381 119.27 296.574 118.85C296.774 118.43 297.051 118.107 297.404 117.88C297.764 117.653 298.181 117.54 298.654 117.54ZM298.644 118.26C298.224 118.26 297.891 118.397 297.644 118.67C297.404 118.937 297.261 119.31 297.214 119.79H299.944C299.944 119.483 299.898 119.217 299.804 118.99C299.711 118.763 299.568 118.587 299.374 118.46C299.188 118.327 298.944 118.26 298.644 118.26ZM306.709 117.64V123H305.989L305.859 122.29H305.819C305.706 122.477 305.559 122.63 305.379 122.75C305.199 122.87 305.002 122.957 304.789 123.01C304.576 123.07 304.352 123.1 304.119 123.1C303.692 123.1 303.332 123.033 303.039 122.9C302.752 122.76 302.536 122.547 302.389 122.26C302.242 121.973 302.169 121.603 302.169 121.15V117.64H303.059V121.09C303.059 121.517 303.156 121.837 303.349 122.05C303.542 122.263 303.842 122.37 304.249 122.37C304.649 122.37 304.962 122.297 305.189 122.15C305.422 121.997 305.586 121.777 305.679 121.49C305.779 121.197 305.829 120.843 305.829 120.43V117.64H306.709ZM310.311 123.1C309.644 123.1 309.111 122.87 308.711 122.41C308.311 121.943 308.111 121.25 308.111 120.33C308.111 119.41 308.311 118.717 308.711 118.25C309.117 117.777 309.654 117.54 310.321 117.54C310.601 117.54 310.844 117.577 311.051 117.65C311.257 117.717 311.437 117.81 311.591 117.93C311.744 118.05 311.874 118.183 311.981 118.33H312.041C312.034 118.243 312.021 118.117 312.001 117.95C311.987 117.777 311.981 117.64 311.981 117.54V115.4H312.861V123H312.151L312.021 122.28H311.981C311.874 122.433 311.744 122.573 311.591 122.7C311.437 122.82 311.254 122.917 311.041 122.99C310.834 123.063 310.591 123.1 310.311 123.1ZM310.451 122.37C311.017 122.37 311.414 122.217 311.641 121.91C311.874 121.597 311.991 121.127 311.991 120.5V120.34C311.991 119.673 311.881 119.163 311.661 118.81C311.441 118.45 311.034 118.27 310.441 118.27C309.967 118.27 309.611 118.46 309.371 118.84C309.137 119.213 309.021 119.717 309.021 120.35C309.021 120.99 309.137 121.487 309.371 121.84C309.611 122.193 309.971 122.37 310.451 122.37ZM315.443 117.64V123H314.563V117.64H315.443ZM315.013 115.63C315.146 115.63 315.263 115.677 315.363 115.77C315.47 115.857 315.523 115.997 315.523 116.19C315.523 116.377 315.47 116.517 315.363 116.61C315.263 116.703 315.146 116.75 315.013 116.75C314.866 116.75 314.743 116.703 314.643 116.61C314.543 116.517 314.493 116.377 314.493 116.19C314.493 115.997 314.543 115.857 314.643 115.77C314.743 115.677 314.866 115.63 315.013 115.63ZM320.249 123L323.179 116.66H319.329V115.86H324.119V116.54L321.219 123H320.249ZM327.429 125.4C327.262 125.4 327.116 125.387 326.989 125.36C326.862 125.34 326.752 125.313 326.659 125.28V124.57C326.759 124.597 326.862 124.62 326.969 124.64C327.076 124.66 327.192 124.67 327.319 124.67C327.532 124.67 327.709 124.61 327.849 124.49C327.989 124.377 328.059 124.157 328.059 123.83V117.64H328.939V123.8C328.939 124.133 328.886 124.42 328.779 124.66C328.672 124.9 328.509 125.083 328.289 125.21C328.069 125.337 327.782 125.4 327.429 125.4ZM327.989 116.19C327.989 115.997 328.039 115.857 328.139 115.77C328.239 115.677 328.362 115.63 328.509 115.63C328.642 115.63 328.759 115.677 328.859 115.77C328.966 115.857 329.019 115.997 329.019 116.19C329.019 116.377 328.966 116.517 328.859 116.61C328.759 116.703 328.642 116.75 328.509 116.75C328.362 116.75 328.239 116.703 328.139 116.61C328.039 116.517 327.989 116.377 327.989 116.19ZM332.667 117.55C333.32 117.55 333.804 117.693 334.117 117.98C334.43 118.267 334.587 118.723 334.587 119.35V123H333.947L333.777 122.24H333.737C333.584 122.433 333.424 122.597 333.257 122.73C333.097 122.857 332.91 122.95 332.697 123.01C332.49 123.07 332.237 123.1 331.937 123.1C331.617 123.1 331.327 123.043 331.067 122.93C330.814 122.817 330.614 122.643 330.467 122.41C330.32 122.17 330.247 121.87 330.247 121.51C330.247 120.977 330.457 120.567 330.877 120.28C331.297 119.987 331.944 119.827 332.817 119.8L333.727 119.77V119.45C333.727 119.003 333.63 118.693 333.437 118.52C333.244 118.347 332.97 118.26 332.617 118.26C332.337 118.26 332.07 118.303 331.817 118.39C331.564 118.47 331.327 118.563 331.107 118.67L330.837 118.01C331.07 117.883 331.347 117.777 331.667 117.69C331.987 117.597 332.32 117.55 332.667 117.55ZM332.927 120.41C332.26 120.437 331.797 120.543 331.537 120.73C331.284 120.917 331.157 121.18 331.157 121.52C331.157 121.82 331.247 122.04 331.427 122.18C331.614 122.32 331.85 122.39 332.137 122.39C332.59 122.39 332.967 122.267 333.267 122.02C333.567 121.767 333.717 121.38 333.717 120.86V120.38L332.927 120.41ZM338.823 117.54C339.463 117.54 339.946 117.697 340.273 118.01C340.599 118.317 340.763 118.817 340.763 119.51V123H339.893V119.57C339.893 119.137 339.796 118.813 339.603 118.6C339.409 118.387 339.106 118.28 338.693 118.28C338.099 118.28 337.689 118.447 337.463 118.78C337.236 119.113 337.123 119.593 337.123 120.22V123H336.243V117.64H336.953L337.083 118.37H337.133C337.253 118.183 337.399 118.03 337.573 117.91C337.753 117.783 337.949 117.69 338.163 117.63C338.376 117.57 338.596 117.54 338.823 117.54ZM343.604 123L341.574 117.64H342.514L343.654 120.8C343.708 120.947 343.764 121.11 343.824 121.29C343.884 121.47 343.938 121.643 343.984 121.81C344.031 121.97 344.064 122.107 344.084 122.22H344.124C344.151 122.107 344.188 121.967 344.234 121.8C344.288 121.633 344.344 121.46 344.404 121.28C344.471 121.1 344.528 120.94 344.574 120.8L345.714 117.64H346.654L344.614 123H343.604ZM348.382 117.64V123H347.502V117.64H348.382ZM347.952 115.63C348.086 115.63 348.202 115.677 348.302 115.77C348.409 115.857 348.462 115.997 348.462 116.19C348.462 116.377 348.409 116.517 348.302 116.61C348.202 116.703 348.086 116.75 347.952 116.75C347.806 116.75 347.682 116.703 347.582 116.61C347.482 116.517 347.432 116.377 347.432 116.19C347.432 115.997 347.482 115.857 347.582 115.77C347.682 115.677 347.806 115.63 347.952 115.63ZM352.15 117.54C352.61 117.54 353.004 117.64 353.33 117.84C353.664 118.04 353.917 118.323 354.09 118.69C354.27 119.05 354.36 119.473 354.36 119.96V120.49H350.69C350.704 121.097 350.857 121.56 351.15 121.88C351.45 122.193 351.867 122.35 352.4 122.35C352.74 122.35 353.04 122.32 353.3 122.26C353.567 122.193 353.84 122.1 354.12 121.98V122.75C353.847 122.87 353.577 122.957 353.31 123.01C353.044 123.07 352.727 123.1 352.36 123.1C351.854 123.1 351.404 122.997 351.01 122.79C350.624 122.583 350.32 122.277 350.1 121.87C349.887 121.457 349.78 120.953 349.78 120.36C349.78 119.773 349.877 119.27 350.07 118.85C350.27 118.43 350.547 118.107 350.9 117.88C351.26 117.653 351.677 117.54 352.15 117.54ZM352.14 118.26C351.72 118.26 351.387 118.397 351.14 118.67C350.9 118.937 350.757 119.31 350.71 119.79H353.44C353.44 119.483 353.394 119.217 353.3 118.99C353.207 118.763 353.064 118.587 352.87 118.46C352.684 118.327 352.44 118.26 352.14 118.26ZM358.225 117.54C358.325 117.54 358.432 117.547 358.545 117.56C358.665 117.567 358.768 117.58 358.855 117.6L358.745 118.41C358.658 118.39 358.562 118.373 358.455 118.36C358.355 118.347 358.258 118.34 358.165 118.34C357.958 118.34 357.762 118.383 357.575 118.47C357.388 118.557 357.222 118.68 357.075 118.84C356.928 118.993 356.812 119.18 356.725 119.4C356.645 119.62 356.605 119.867 356.605 120.14V123H355.725V117.64H356.445L356.545 118.62H356.585C356.698 118.42 356.835 118.24 356.995 118.08C357.155 117.913 357.338 117.783 357.545 117.69C357.752 117.59 357.978 117.54 358.225 117.54ZM366.804 123H362.084V122.27L363.954 120.38C364.314 120.02 364.617 119.7 364.864 119.42C365.11 119.14 365.297 118.867 365.424 118.6C365.55 118.327 365.614 118.03 365.614 117.71C365.614 117.317 365.497 117.02 365.264 116.82C365.03 116.613 364.727 116.51 364.354 116.51C364.007 116.51 363.7 116.57 363.434 116.69C363.174 116.81 362.907 116.977 362.634 117.19L362.164 116.6C362.35 116.44 362.554 116.297 362.774 116.17C363 116.043 363.244 115.943 363.504 115.87C363.77 115.797 364.054 115.76 364.354 115.76C364.8 115.76 365.184 115.837 365.504 115.99C365.824 116.143 366.07 116.363 366.244 116.65C366.424 116.93 366.514 117.267 366.514 117.66C366.514 117.94 366.47 118.207 366.384 118.46C366.297 118.707 366.174 118.95 366.014 119.19C365.854 119.43 365.66 119.673 365.434 119.92C365.207 120.167 364.957 120.423 364.684 120.69L363.194 122.16V122.2H366.804V123ZM372.556 119.42C372.556 120 372.513 120.517 372.426 120.97C372.34 121.423 372.2 121.81 372.006 122.13C371.82 122.443 371.573 122.683 371.266 122.85C370.966 123.017 370.603 123.1 370.176 123.1C369.643 123.1 369.2 122.953 368.846 122.66C368.5 122.367 368.24 121.947 368.066 121.4C367.9 120.847 367.816 120.187 367.816 119.42C367.816 118.647 367.893 117.987 368.046 117.44C368.206 116.893 368.46 116.477 368.806 116.19C369.153 115.897 369.61 115.75 370.176 115.75C370.71 115.75 371.153 115.897 371.506 116.19C371.86 116.477 372.123 116.893 372.296 117.44C372.47 117.987 372.556 118.647 372.556 119.42ZM368.696 119.42C368.696 120.073 368.743 120.617 368.836 121.05C368.936 121.483 369.093 121.81 369.306 122.03C369.526 122.243 369.816 122.35 370.176 122.35C370.536 122.35 370.823 122.243 371.036 122.03C371.256 121.817 371.416 121.493 371.516 121.06C371.616 120.62 371.666 120.073 371.666 119.42C371.666 118.767 371.616 118.227 371.516 117.8C371.416 117.367 371.256 117.043 371.036 116.83C370.823 116.61 370.536 116.5 370.176 116.5C369.816 116.5 369.526 116.61 369.306 116.83C369.093 117.043 368.936 117.367 368.836 117.8C368.743 118.227 368.696 118.767 368.696 119.42ZM378.249 123H373.529V122.27L375.399 120.38C375.759 120.02 376.062 119.7 376.309 119.42C376.555 119.14 376.742 118.867 376.869 118.6C376.995 118.327 377.059 118.03 377.059 117.71C377.059 117.317 376.942 117.02 376.709 116.82C376.475 116.613 376.172 116.51 375.799 116.51C375.452 116.51 375.145 116.57 374.879 116.69C374.619 116.81 374.352 116.977 374.079 117.19L373.609 116.6C373.795 116.44 373.999 116.297 374.219 116.17C374.445 116.043 374.689 115.943 374.949 115.87C375.215 115.797 375.499 115.76 375.799 115.76C376.245 115.76 376.629 115.837 376.949 115.99C377.269 116.143 377.515 116.363 377.689 116.65C377.869 116.93 377.959 117.267 377.959 117.66C377.959 117.94 377.915 118.207 377.829 118.46C377.742 118.707 377.619 118.95 377.459 119.19C377.299 119.43 377.105 119.673 376.879 119.92C376.652 120.167 376.402 120.423 376.129 120.69L374.639 122.16V122.2H378.249V123ZM382.321 123H381.461V118.01C381.461 117.817 381.461 117.653 381.461 117.52C381.468 117.387 381.475 117.263 381.481 117.15C381.488 117.03 381.495 116.907 381.501 116.78C381.395 116.887 381.298 116.977 381.211 117.05C381.125 117.123 381.015 117.217 380.881 117.33L380.121 117.95L379.661 117.36L381.591 115.86H382.321V123Z" fill="black"/>
<rect x="293.5" y="134.5" width="149" height="19" fill="white"/>
<path d="M303.2 143.91C303.2 144.317 303.17 144.723 303.11 145.13C303.057 145.53 302.96 145.91 302.82 146.27C302.68 146.623 302.487 146.94 302.24 147.22C301.993 147.493 301.68 147.71 301.3 147.87C300.92 148.023 300.46 148.1 299.92 148.1C299.787 148.1 299.63 148.09 299.45 148.07C299.277 148.057 299.133 148.033 299.02 148V147.25C299.14 147.29 299.28 147.323 299.44 147.35C299.6 147.37 299.753 147.38 299.9 147.38C300.367 147.38 300.75 147.303 301.05 147.15C301.357 146.997 301.6 146.79 301.78 146.53C301.96 146.263 302.09 145.957 302.17 145.61C302.25 145.257 302.297 144.887 302.31 144.5H302.25C302.15 144.653 302.023 144.793 301.87 144.92C301.717 145.047 301.53 145.147 301.31 145.22C301.097 145.293 300.843 145.33 300.55 145.33C300.143 145.33 299.783 145.247 299.47 145.08C299.163 144.907 298.923 144.66 298.75 144.34C298.583 144.02 298.5 143.63 298.5 143.17C298.5 142.67 298.593 142.24 298.78 141.88C298.973 141.52 299.24 141.243 299.58 141.05C299.92 140.857 300.32 140.76 300.78 140.76C301.12 140.76 301.437 140.827 301.73 140.96C302.023 141.087 302.28 141.28 302.5 141.54C302.72 141.8 302.89 142.127 303.01 142.52C303.137 142.913 303.2 143.377 303.2 143.91ZM300.78 141.5C300.367 141.5 300.027 141.637 299.76 141.91C299.5 142.183 299.37 142.6 299.37 143.16C299.37 143.62 299.48 143.983 299.7 144.25C299.927 144.51 300.273 144.64 300.74 144.64C301.06 144.64 301.337 144.577 301.57 144.45C301.803 144.317 301.983 144.15 302.11 143.95C302.243 143.75 302.31 143.543 302.31 143.33C302.31 143.117 302.277 142.903 302.21 142.69C302.15 142.47 302.057 142.27 301.93 142.09C301.803 141.91 301.643 141.767 301.45 141.66C301.257 141.553 301.033 141.5 300.78 141.5ZM308.05 142.63C308.05 142.757 308.044 142.887 308.03 143.02C308.024 143.153 308.014 143.273 308 143.38H308.06C308.174 143.193 308.317 143.04 308.49 142.92C308.664 142.8 308.857 142.71 309.07 142.65C309.284 142.583 309.504 142.55 309.73 142.55C310.164 142.55 310.524 142.62 310.81 142.76C311.104 142.893 311.324 143.103 311.47 143.39C311.617 143.677 311.69 144.05 311.69 144.51V148H310.82V144.57C310.82 144.137 310.724 143.813 310.53 143.6C310.337 143.387 310.034 143.28 309.62 143.28C309.22 143.28 308.907 143.357 308.68 143.51C308.454 143.657 308.29 143.877 308.19 144.17C308.097 144.457 308.05 144.81 308.05 145.23V148H307.17V140.4H308.05V142.63ZM320.33 144.42C320.33 145 320.286 145.517 320.2 145.97C320.113 146.423 319.973 146.81 319.78 147.13C319.593 147.443 319.346 147.683 319.04 147.85C318.74 148.017 318.376 148.1 317.95 148.1C317.416 148.1 316.973 147.953 316.62 147.66C316.273 147.367 316.013 146.947 315.84 146.4C315.673 145.847 315.59 145.187 315.59 144.42C315.59 143.647 315.666 142.987 315.82 142.44C315.98 141.893 316.233 141.477 316.58 141.19C316.926 140.897 317.383 140.75 317.95 140.75C318.483 140.75 318.926 140.897 319.28 141.19C319.633 141.477 319.896 141.893 320.07 142.44C320.243 142.987 320.33 143.647 320.33 144.42ZM316.47 144.42C316.47 145.073 316.516 145.617 316.61 146.05C316.71 146.483 316.866 146.81 317.08 147.03C317.3 147.243 317.59 147.35 317.95 147.35C318.31 147.35 318.596 147.243 318.81 147.03C319.03 146.817 319.19 146.493 319.29 146.06C319.39 145.62 319.44 145.073 319.44 144.42C319.44 143.767 319.39 143.227 319.29 142.8C319.19 142.367 319.03 142.043 318.81 141.83C318.596 141.61 318.31 141.5 317.95 141.5C317.59 141.5 317.3 141.61 317.08 141.83C316.866 142.043 316.71 142.367 316.61 142.8C316.516 143.227 316.47 143.767 316.47 144.42ZM326.052 144.42C326.052 145 326.009 145.517 325.922 145.97C325.836 146.423 325.696 146.81 325.502 147.13C325.316 147.443 325.069 147.683 324.762 147.85C324.462 148.017 324.099 148.1 323.672 148.1C323.139 148.1 322.696 147.953 322.342 147.66C321.996 147.367 321.736 146.947 321.562 146.4C321.396 145.847 321.312 145.187 321.312 144.42C321.312 143.647 321.389 142.987 321.542 142.44C321.702 141.893 321.956 141.477 322.302 141.19C322.649 140.897 323.106 140.75 323.672 140.75C324.206 140.75 324.649 140.897 325.002 141.19C325.356 141.477 325.619 141.893 325.792 142.44C325.966 142.987 326.052 143.647 326.052 144.42ZM322.192 144.42C322.192 145.073 322.239 145.617 322.332 146.05C322.432 146.483 322.589 146.81 322.802 147.03C323.022 147.243 323.312 147.35 323.672 147.35C324.032 147.35 324.319 147.243 324.532 147.03C324.752 146.817 324.912 146.493 325.012 146.06C325.112 145.62 325.162 145.073 325.162 144.42C325.162 143.767 325.112 143.227 325.012 142.8C324.912 142.367 324.752 142.043 324.532 141.83C324.319 141.61 324.032 141.5 323.672 141.5C323.312 141.5 323.022 141.61 322.802 141.83C322.589 142.043 322.432 142.367 322.332 142.8C322.239 143.227 322.192 143.767 322.192 144.42Z" fill="black"/>
<path d="M434.5 147.5L431.469 142.25L437.531 142.25L434.5 147.5Z" fill="black"/>
<rect x="293.5" y="134.5" width="149" height="19" stroke="black"/>
<path d="M278 132L288 122V142L278 132Z" fill="#AFB9C3"/>
<rect x="288.5" y="104.5" width="159" height="54" stroke="#AFB9C3"/>
<path d="M28 8.5H488C498.77 8.5 507.5 17.2304 507.5 28V307.5H8.5V28C8.5 17.2304 17.2304 8.5 28 8.5Z" stroke="#AFB9C3"/>
</g>
<defs>
<filter id="filter0_d_7870_4687" x="0" y="0" width="524" height="324" filterUnits="userSpaceOnUse" color-interpolation-filters="sRGB">
<feFlood flood-opacity="0" result="BackgroundImageFix"/>
<feColorMatrix in="SourceAlpha" type="matrix" values="0 0 0 0 0 0 0 0 0 0 0 0 0 0 0 0 0 0 127 0" result="hardAlpha"/>
<feOffset dx="4" dy="4"/>
<feGaussianBlur stdDeviation="6"/>
<feColorMatrix type="matrix" values="0 0 0 0 0 0 0 0 0 0 0 0 0 0 0 0 0 0 0.1 0"/>
<feBlend mode="normal" in2="BackgroundImageFix" result="effect1_dropShadow_7870_4687"/>
<feBlend mode="normal" in="SourceGraphic" in2="effect1_dropShadow_7870_4687" result="shape"/>
</filter>
</defs>
</svg>
