<svg width="524" height="324" viewBox="0 0 524 324" fill="none" xmlns="http://www.w3.org/2000/svg">
<g filter="url(#filter0_d_7870_4637)">
<path d="M8 28C8 16.9543 16.9543 8 28 8H488C499.046 8 508 16.9543 508 28V308H8V28Z" fill="white"/>
<path d="M8 28C8 16.9543 16.9543 8 28 8H488C499.046 8 508 16.9543 508 28V38H8V28Z" fill="#909CA8"/>
<rect width="500" height="270" transform="translate(8 38)" fill="white"/>
<path d="M75.344 85H68.84V83.512L70.76 82.912V69.976L68.84 69.352V67.864H75.344V69.352L73.424 69.976V82.912L75.344 83.512V85ZM84.3631 71.824C85.7711 71.824 86.8511 72.2 87.6031 72.952C88.3711 73.704 88.7551 74.912 88.7551 76.576V85H86.1631V76.936C86.1631 75.928 85.9631 75.176 85.5631 74.68C85.1791 74.168 84.5791 73.912 83.7631 73.912C82.5631 73.912 81.7391 74.304 81.2911 75.088C80.8431 75.872 80.6191 77 80.6191 78.472V85H78.0271V72.064H80.0671L80.4271 73.792H80.5711C80.8431 73.344 81.1711 72.976 81.5551 72.688C81.9391 72.4 82.3711 72.184 82.8511 72.04C83.3311 71.896 83.8351 71.824 84.3631 71.824ZM102.767 83.176C103.103 83.176 103.431 83.144 103.751 83.08C104.071 83.016 104.351 82.944 104.591 82.864V84.784C104.319 84.912 103.959 85.016 103.511 85.096C103.079 85.192 102.623 85.24 102.143 85.24C101.471 85.24 100.855 85.12 100.295 84.88C99.7354 84.64 99.2874 84.224 98.9514 83.632C98.6154 83.04 98.4474 82.216 98.4474 81.16V74.008H96.7914V72.856L98.5674 71.896L99.4554 69.16H101.063V72.064H104.495V74.008H101.063V81.112C101.063 81.816 101.223 82.336 101.543 82.672C101.863 83.008 102.271 83.176 102.767 83.176ZM109.588 71.632C109.588 72.032 109.572 72.432 109.54 72.832C109.524 73.232 109.5 73.56 109.468 73.816H109.612C109.868 73.368 110.18 73 110.548 72.712C110.932 72.424 111.356 72.208 111.82 72.064C112.3 71.92 112.788 71.848 113.284 71.848C114.228 71.848 115.028 72.016 115.684 72.352C116.356 72.672 116.86 73.184 117.196 73.888C117.548 74.576 117.724 75.472 117.724 76.576V85H115.108V76.936C115.108 75.928 114.916 75.176 114.532 74.68C114.148 74.168 113.548 73.912 112.732 73.912C111.948 73.912 111.324 74.088 110.86 74.44C110.396 74.792 110.068 75.312 109.876 76C109.684 76.672 109.588 77.504 109.588 78.496V85H106.996V66.76H109.588V71.632ZM126.189 71.824C127.261 71.824 128.189 72.064 128.973 72.544C129.757 73.008 130.357 73.68 130.773 74.56C131.205 75.44 131.421 76.48 131.421 77.68V79.072H123.285C123.317 80.4 123.637 81.416 124.245 82.12C124.853 82.824 125.709 83.176 126.813 83.176C127.597 83.176 128.293 83.104 128.901 82.96C129.525 82.8 130.157 82.568 130.797 82.264V84.376C130.189 84.664 129.565 84.88 128.925 85.024C128.301 85.168 127.541 85.24 126.645 85.24C125.477 85.24 124.437 84.992 123.525 84.496C122.613 84 121.901 83.264 121.389 82.288C120.877 81.296 120.621 80.08 120.621 78.64C120.621 77.184 120.853 75.952 121.317 74.944C121.781 73.936 122.429 73.168 123.261 72.64C124.109 72.096 125.085 71.824 126.189 71.824ZM126.189 73.792C125.373 73.792 124.717 74.088 124.221 74.68C123.725 75.272 123.437 76.112 123.357 77.2H128.853C128.853 76.528 128.757 75.936 128.565 75.424C128.373 74.912 128.077 74.512 127.677 74.224C127.293 73.936 126.797 73.792 126.189 73.792ZM142.775 85H140.183V66.76H142.775V85ZM151.314 71.824C152.834 71.824 153.978 72.184 154.746 72.904C155.53 73.608 155.922 74.72 155.922 76.24V85H154.074L153.57 83.2H153.474C153.106 83.664 152.738 84.048 152.37 84.352C152.018 84.656 151.602 84.88 151.122 85.024C150.658 85.168 150.082 85.24 149.394 85.24C148.674 85.24 148.026 85.104 147.45 84.832C146.874 84.544 146.418 84.112 146.082 83.536C145.746 82.944 145.578 82.208 145.578 81.328C145.578 80.016 146.042 79.016 146.97 78.328C147.914 77.64 149.346 77.264 151.266 77.2L153.33 77.128V76.408C153.33 75.448 153.13 74.776 152.73 74.392C152.346 74.008 151.802 73.816 151.098 73.816C150.506 73.816 149.922 73.912 149.346 74.104C148.77 74.296 148.21 74.528 147.666 74.8L146.874 72.952C147.466 72.632 148.138 72.368 148.89 72.16C149.658 71.936 150.466 71.824 151.314 71.824ZM151.77 78.832C150.458 78.896 149.546 79.144 149.034 79.576C148.522 79.992 148.266 80.584 148.266 81.352C148.266 82.024 148.442 82.512 148.794 82.816C149.162 83.12 149.634 83.272 150.21 83.272C151.09 83.272 151.826 82.992 152.418 82.432C153.026 81.872 153.33 81.032 153.33 79.912V78.784L151.77 78.832ZM167.728 81.352C167.728 82.2 167.536 82.912 167.152 83.488C166.768 84.064 166.208 84.504 165.472 84.808C164.736 85.096 163.832 85.24 162.76 85.24C161.912 85.24 161.168 85.168 160.528 85.024C159.904 84.896 159.328 84.704 158.8 84.448V82.216C159.36 82.488 160 82.736 160.72 82.96C161.44 83.168 162.128 83.272 162.784 83.272C163.632 83.272 164.248 83.12 164.632 82.816C165.016 82.512 165.208 82.104 165.208 81.592C165.208 81.304 165.128 81.048 164.968 80.824C164.824 80.584 164.544 80.344 164.128 80.104C163.712 79.848 163.112 79.56 162.328 79.24C161.56 78.904 160.912 78.576 160.384 78.256C159.872 77.92 159.472 77.528 159.184 77.08C158.912 76.616 158.776 76.024 158.776 75.304C158.776 74.184 159.208 73.328 160.072 72.736C160.936 72.128 162.064 71.824 163.456 71.824C164.224 71.824 164.936 71.904 165.592 72.064C166.248 72.208 166.888 72.432 167.512 72.736L166.72 74.68C166.352 74.504 165.976 74.36 165.592 74.248C165.224 74.12 164.856 74.016 164.488 73.936C164.12 73.856 163.752 73.816 163.384 73.816C162.696 73.816 162.176 73.936 161.824 74.176C161.472 74.416 161.296 74.752 161.296 75.184C161.296 75.504 161.376 75.776 161.536 76C161.712 76.224 162.008 76.448 162.424 76.672C162.856 76.896 163.448 77.16 164.2 77.464C164.952 77.768 165.592 78.08 166.12 78.4C166.648 78.72 167.048 79.112 167.32 79.576C167.592 80.04 167.728 80.632 167.728 81.352ZM175.096 83.176C175.432 83.176 175.76 83.144 176.08 83.08C176.4 83.016 176.68 82.944 176.92 82.864V84.784C176.648 84.912 176.288 85.016 175.84 85.096C175.408 85.192 174.952 85.24 174.472 85.24C173.8 85.24 173.184 85.12 172.624 84.88C172.064 84.64 171.616 84.224 171.28 83.632C170.944 83.04 170.776 82.216 170.776 81.16V74.008H169.12V72.856L170.896 71.896L171.784 69.16H173.392V72.064H176.824V74.008H173.392V81.112C173.392 81.816 173.552 82.336 173.872 82.672C174.192 83.008 174.6 83.176 175.096 83.176ZM193.391 77.824C193.311 77.52 193.231 77.208 193.151 76.888C193.071 76.568 192.991 76.264 192.911 75.976C192.847 75.688 192.791 75.416 192.743 75.16C192.695 74.904 192.655 74.68 192.623 74.488H192.527C192.511 74.68 192.471 74.912 192.407 75.184C192.359 75.44 192.303 75.72 192.239 76.024C192.175 76.312 192.103 76.616 192.023 76.936C191.943 77.24 191.863 77.552 191.783 77.872L189.863 84.976H186.887L183.599 72.04H186.215L187.751 78.856C187.863 79.304 187.959 79.76 188.039 80.224C188.135 80.672 188.223 81.104 188.303 81.52C188.383 81.92 188.431 82.272 188.447 82.576H188.543C188.575 82.368 188.615 82.12 188.663 81.832C188.727 81.528 188.791 81.216 188.855 80.896C188.919 80.576 188.983 80.264 189.047 79.96C189.127 79.656 189.199 79.392 189.263 79.168L191.183 72.04H194.039L195.887 79.168C195.983 79.488 196.079 79.856 196.175 80.272C196.271 80.688 196.359 81.096 196.439 81.496C196.519 81.896 196.567 82.248 196.583 82.552H196.655C196.687 82.28 196.735 81.944 196.799 81.544C196.879 81.144 196.975 80.712 197.087 80.248C197.199 79.784 197.303 79.32 197.399 78.856L198.983 72.04H201.551L198.239 84.976H195.215L193.391 77.824ZM208.501 71.824C209.573 71.824 210.501 72.064 211.285 72.544C212.069 73.008 212.669 73.68 213.085 74.56C213.517 75.44 213.733 76.48 213.733 77.68V79.072H205.597C205.629 80.4 205.949 81.416 206.557 82.12C207.165 82.824 208.021 83.176 209.125 83.176C209.909 83.176 210.605 83.104 211.213 82.96C211.837 82.8 212.469 82.568 213.109 82.264V84.376C212.501 84.664 211.877 84.88 211.237 85.024C210.613 85.168 209.853 85.24 208.957 85.24C207.789 85.24 206.749 84.992 205.837 84.496C204.925 84 204.213 83.264 203.701 82.288C203.189 81.296 202.933 80.08 202.933 78.64C202.933 77.184 203.165 75.952 203.629 74.944C204.093 73.936 204.741 73.168 205.573 72.64C206.421 72.096 207.397 71.824 208.501 71.824ZM208.501 73.792C207.685 73.792 207.029 74.088 206.533 74.68C206.037 75.272 205.749 76.112 205.669 77.2H211.165C211.165 76.528 211.069 75.936 210.877 75.424C210.685 74.912 210.389 74.512 209.989 74.224C209.605 73.936 209.109 73.792 208.501 73.792ZM221.533 71.824C222.605 71.824 223.533 72.064 224.317 72.544C225.101 73.008 225.701 73.68 226.117 74.56C226.549 75.44 226.765 76.48 226.765 77.68V79.072H218.629C218.661 80.4 218.981 81.416 219.589 82.12C220.197 82.824 221.053 83.176 222.157 83.176C222.941 83.176 223.637 83.104 224.245 82.96C224.869 82.8 225.501 82.568 226.141 82.264V84.376C225.533 84.664 224.909 84.88 224.269 85.024C223.645 85.168 222.885 85.24 221.989 85.24C220.821 85.24 219.781 84.992 218.869 84.496C217.957 84 217.245 83.264 216.733 82.288C216.221 81.296 215.965 80.08 215.965 78.64C215.965 77.184 216.197 75.952 216.661 74.944C217.125 73.936 217.773 73.168 218.605 72.64C219.453 72.096 220.429 71.824 221.533 71.824ZM221.533 73.792C220.717 73.792 220.061 74.088 219.565 74.68C219.069 75.272 218.781 76.112 218.701 77.2H224.197C224.197 76.528 224.101 75.936 223.909 75.424C223.717 74.912 223.421 74.512 223.021 74.224C222.637 73.936 222.141 73.792 221.533 73.792ZM232.26 75.88C232.26 76.216 232.244 76.6 232.212 77.032C232.18 77.464 232.148 77.864 232.116 78.232H232.212C232.308 78.072 232.436 77.88 232.596 77.656C232.772 77.416 232.948 77.176 233.124 76.936C233.316 76.696 233.492 76.488 233.652 76.312L237.276 72.064H240.252L235.428 77.608L240.564 85H237.492L233.652 79.216L232.26 80.464V85H229.668V66.76H232.26V75.88Z" fill="black"/>
<rect width="182.5" height="105" transform="translate(68 106)" fill="#213045"/>
<path d="M101.856 160H79.968V156.064L88.272 147.088C89.872 145.328 91.2 143.808 92.256 142.528C93.312 141.216 94.096 139.968 94.608 138.784C95.152 137.568 95.424 136.256 95.424 134.848C95.424 133.088 94.96 131.776 94.032 130.912C93.136 130.016 91.952 129.568 90.48 129.568C89.04 129.568 87.744 129.872 86.592 130.48C85.44 131.056 84.24 131.872 82.992 132.928L80.16 129.52C81.056 128.72 82 128 82.992 127.36C84.016 126.72 85.152 126.208 86.4 125.824C87.68 125.44 89.12 125.248 90.72 125.248C92.768 125.248 94.528 125.632 96 126.4C97.504 127.136 98.656 128.192 99.456 129.568C100.288 130.944 100.704 132.56 100.704 134.416C100.704 135.792 100.496 137.072 100.08 138.256C99.696 139.44 99.12 140.608 98.352 141.76C97.616 142.912 96.72 144.096 95.664 145.312C94.64 146.496 93.504 147.776 92.256 149.152L86.592 155.248V155.488H101.856V160ZM114.915 154.96C114.659 156.08 114.307 157.296 113.859 158.608C113.443 159.92 112.979 161.216 112.467 162.496C111.987 163.808 111.507 165.04 111.027 166.192H107.235C107.523 164.944 107.811 163.616 108.099 162.208C108.387 160.832 108.659 159.472 108.915 158.128C109.171 156.784 109.363 155.552 109.491 154.432H114.579L114.915 154.96ZM142.265 133.648C142.265 135.184 141.977 136.528 141.401 137.68C140.825 138.8 140.025 139.712 139.001 140.416C138.009 141.12 136.825 141.632 135.449 141.952V142.144C138.073 142.464 140.025 143.328 141.305 144.736C142.617 146.112 143.273 147.936 143.273 150.208C143.273 152.192 142.825 153.968 141.929 155.536C141.033 157.072 139.641 158.288 137.753 159.184C135.897 160.048 133.513 160.48 130.601 160.48C128.841 160.48 127.225 160.336 125.753 160.048C124.313 159.76 122.921 159.28 121.577 158.608V154C122.921 154.736 124.361 155.296 125.897 155.68C127.465 156.064 128.937 156.256 130.313 156.256C132.969 156.256 134.873 155.712 136.025 154.624C137.177 153.504 137.753 151.952 137.753 149.968C137.753 148.688 137.449 147.648 136.841 146.848C136.233 146.016 135.305 145.408 134.057 145.024C132.809 144.608 131.225 144.4 129.305 144.4H126.521V140.224H129.353C131.145 140.224 132.601 139.984 133.721 139.504C134.873 138.992 135.705 138.288 136.217 137.392C136.761 136.496 137.033 135.472 137.033 134.32C137.033 132.784 136.569 131.6 135.641 130.768C134.745 129.904 133.449 129.472 131.753 129.472C130.665 129.472 129.657 129.6 128.729 129.856C127.833 130.112 127.001 130.448 126.233 130.864C125.497 131.28 124.809 131.744 124.169 132.256L121.721 128.752C122.521 128.112 123.433 127.52 124.457 126.976C125.481 126.432 126.617 126.016 127.865 125.728C129.113 125.408 130.505 125.248 132.041 125.248C135.401 125.248 137.945 126.032 139.673 127.6C141.401 129.136 142.265 131.152 142.265 133.648ZM152.924 160L165.596 130.24H148.988V125.728H171.164V129.376L158.54 160H152.924ZM176.927 145.408C176.927 143.424 177.055 141.472 177.311 139.552C177.567 137.632 178.015 135.824 178.655 134.128C179.327 132.4 180.239 130.88 181.391 129.568C182.543 128.224 184.015 127.184 185.807 126.448C187.599 125.68 189.759 125.296 192.287 125.296C192.927 125.296 193.631 125.328 194.399 125.392C195.199 125.424 195.871 125.52 196.415 125.68V129.952C195.839 129.76 195.199 129.616 194.495 129.52C193.823 129.424 193.119 129.376 192.383 129.376C190.399 129.376 188.735 129.712 187.391 130.384C186.079 131.056 185.023 131.984 184.223 133.168C183.455 134.352 182.895 135.728 182.543 137.296C182.191 138.832 181.983 140.512 181.919 142.336H182.159C182.607 141.568 183.151 140.88 183.791 140.272C184.463 139.664 185.263 139.184 186.191 138.832C187.151 138.48 188.255 138.304 189.503 138.304C191.391 138.304 193.023 138.72 194.399 139.552C195.775 140.384 196.847 141.584 197.615 143.152C198.383 144.72 198.767 146.624 198.767 148.864C198.767 151.264 198.335 153.344 197.471 155.104C196.607 156.832 195.391 158.16 193.823 159.088C192.255 160.016 190.383 160.48 188.207 160.48C186.639 160.48 185.167 160.176 183.791 159.568C182.415 158.96 181.215 158.032 180.191 156.784C179.167 155.536 178.367 153.968 177.791 152.08C177.215 150.16 176.927 147.936 176.927 145.408ZM188.159 156.256C189.791 156.256 191.103 155.664 192.095 154.48C193.119 153.264 193.631 151.392 193.631 148.864C193.631 146.848 193.183 145.248 192.287 144.064C191.391 142.88 190.047 142.288 188.255 142.288C187.039 142.288 185.967 142.576 185.039 143.152C184.143 143.728 183.439 144.464 182.927 145.36C182.415 146.256 182.159 147.168 182.159 148.096C182.159 149.088 182.271 150.064 182.495 151.024C182.751 151.984 183.135 152.864 183.647 153.664C184.159 154.464 184.783 155.104 185.519 155.584C186.287 156.032 187.167 156.256 188.159 156.256Z" fill="#F0F2F5"/>
<path d="M82.425 185.765C83.135 185.765 83.745 185.915 84.255 186.215C84.765 186.505 85.155 186.925 85.425 187.475C85.705 188.025 85.845 188.675 85.845 189.425V190.295H80.415C80.435 191.125 80.65 191.76 81.06 192.2C81.48 192.64 82.065 192.86 82.815 192.86C83.335 192.86 83.795 192.815 84.195 192.725C84.605 192.625 85.025 192.48 85.455 192.29V193.61C85.055 193.79 84.645 193.925 84.225 194.015C83.815 194.105 83.325 194.15 82.755 194.15C81.975 194.15 81.285 193.995 80.685 193.685C80.085 193.375 79.615 192.915 79.275 192.305C78.945 191.685 78.78 190.925 78.78 190.025C78.78 189.115 78.93 188.345 79.23 187.715C79.54 187.085 79.965 186.605 80.505 186.275C81.055 185.935 81.695 185.765 82.425 185.765ZM82.425 186.995C81.855 186.995 81.395 187.18 81.045 187.55C80.705 187.92 80.505 188.445 80.445 189.125H84.255C84.255 188.705 84.19 188.335 84.06 188.015C83.93 187.695 83.73 187.445 83.46 187.265C83.19 187.085 82.845 186.995 82.425 186.995ZM96.889 185.765C97.799 185.765 98.484 186 98.944 186.47C99.404 186.94 99.634 187.695 99.634 188.735V194H98.044V188.945C98.044 188.325 97.919 187.86 97.669 187.55C97.429 187.23 97.049 187.07 96.529 187.07C95.809 187.07 95.294 187.295 94.984 187.745C94.674 188.185 94.519 188.825 94.519 189.665V194H92.944V188.945C92.944 188.535 92.884 188.19 92.764 187.91C92.654 187.63 92.489 187.42 92.269 187.28C92.049 187.14 91.764 187.07 91.414 187.07C90.914 187.07 90.519 187.18 90.229 187.4C89.939 187.62 89.729 187.945 89.599 188.375C89.479 188.795 89.419 189.31 89.419 189.92V194H87.829V185.915H89.089L89.314 186.995H89.404C89.574 186.715 89.779 186.485 90.019 186.305C90.269 186.125 90.544 185.99 90.844 185.9C91.144 185.81 91.454 185.765 91.774 185.765C92.384 185.765 92.899 185.875 93.319 186.095C93.739 186.305 94.044 186.63 94.234 187.07H94.354C94.614 186.62 94.974 186.29 95.434 186.08C95.894 185.87 96.379 185.765 96.889 185.765ZM105.202 185.765C106.222 185.765 106.982 185.99 107.482 186.44C107.982 186.88 108.232 187.575 108.232 188.525V194H107.107L106.792 192.875H106.732C106.502 193.165 106.262 193.405 106.012 193.595C105.772 193.785 105.492 193.925 105.172 194.015C104.862 194.105 104.482 194.15 104.032 194.15C103.552 194.15 103.117 194.065 102.727 193.895C102.347 193.715 102.047 193.445 101.827 193.085C101.607 192.715 101.497 192.255 101.497 191.705C101.497 190.885 101.807 190.26 102.427 189.83C103.057 189.4 104.012 189.165 105.292 189.125L106.672 189.08V188.63C106.672 188.03 106.537 187.61 106.267 187.37C105.997 187.13 105.617 187.01 105.127 187.01C104.707 187.01 104.307 187.07 103.927 187.19C103.547 187.31 103.187 187.455 102.847 187.625L102.337 186.47C102.717 186.27 103.152 186.105 103.642 185.975C104.142 185.835 104.662 185.765 105.202 185.765ZM105.577 190.145C104.657 190.185 104.017 190.34 103.657 190.61C103.307 190.87 103.132 191.24 103.132 191.72C103.132 192.14 103.257 192.445 103.507 192.635C103.767 192.825 104.092 192.92 104.482 192.92C105.112 192.92 105.632 192.745 106.042 192.395C106.452 192.045 106.657 191.52 106.657 190.82V190.115L105.577 190.145ZM112.271 185.915V194H110.681V185.915H112.271ZM111.491 182.84C111.731 182.84 111.941 182.91 112.121 183.05C112.301 183.19 112.391 183.425 112.391 183.755C112.391 184.075 112.301 184.31 112.121 184.46C111.941 184.6 111.731 184.67 111.491 184.67C111.231 184.67 111.011 184.6 110.831 184.46C110.661 184.31 110.576 184.075 110.576 183.755C110.576 183.425 110.661 183.19 110.831 183.05C111.011 182.91 111.231 182.84 111.491 182.84ZM116.357 194H114.767V182.6H116.357V194ZM124.224 191.72C124.224 192.25 124.094 192.695 123.834 193.055C123.574 193.415 123.199 193.69 122.709 193.88C122.219 194.06 121.629 194.15 120.939 194.15C120.369 194.15 119.879 194.105 119.469 194.015C119.069 193.935 118.699 193.815 118.359 193.655V192.26C118.719 192.43 119.134 192.585 119.604 192.725C120.074 192.855 120.534 192.92 120.984 192.92C121.584 192.92 122.014 192.825 122.274 192.635C122.544 192.445 122.679 192.19 122.679 191.87C122.679 191.69 122.629 191.53 122.529 191.39C122.429 191.24 122.239 191.09 121.959 190.94C121.689 190.78 121.289 190.6 120.759 190.4C120.249 190.19 119.814 189.985 119.454 189.785C119.094 189.575 118.819 189.33 118.629 189.05C118.439 188.76 118.344 188.39 118.344 187.94C118.344 187.24 118.624 186.705 119.184 186.335C119.754 185.955 120.504 185.765 121.434 185.765C121.924 185.765 122.384 185.815 122.814 185.915C123.254 186.005 123.679 186.145 124.089 186.335L123.564 187.55C123.334 187.44 123.094 187.35 122.844 187.28C122.604 187.2 122.359 187.135 122.109 187.085C121.869 187.035 121.619 187.01 121.359 187.01C120.879 187.01 120.514 187.085 120.264 187.235C120.014 187.385 119.889 187.595 119.889 187.865C119.889 188.055 119.944 188.22 120.054 188.36C120.174 188.5 120.379 188.64 120.669 188.78C120.959 188.92 121.354 189.09 121.854 189.29C122.354 189.48 122.779 189.675 123.129 189.875C123.489 190.075 123.759 190.32 123.939 190.61C124.129 190.9 124.224 191.27 124.224 191.72ZM135.386 191.72C135.386 192.25 135.256 192.695 134.996 193.055C134.736 193.415 134.361 193.69 133.871 193.88C133.381 194.06 132.791 194.15 132.101 194.15C131.531 194.15 131.041 194.105 130.631 194.015C130.231 193.935 129.861 193.815 129.521 193.655V192.26C129.881 192.43 130.296 192.585 130.766 192.725C131.236 192.855 131.696 192.92 132.146 192.92C132.746 192.92 133.176 192.825 133.436 192.635C133.706 192.445 133.841 192.19 133.841 191.87C133.841 191.69 133.791 191.53 133.691 191.39C133.591 191.24 133.401 191.09 133.121 190.94C132.851 190.78 132.451 190.6 131.921 190.4C131.411 190.19 130.976 189.985 130.616 189.785C130.256 189.575 129.981 189.33 129.791 189.05C129.601 188.76 129.506 188.39 129.506 187.94C129.506 187.24 129.786 186.705 130.346 186.335C130.916 185.955 131.666 185.765 132.596 185.765C133.086 185.765 133.546 185.815 133.976 185.915C134.416 186.005 134.841 186.145 135.251 186.335L134.726 187.55C134.496 187.44 134.256 187.35 134.006 187.28C133.766 187.2 133.521 187.135 133.271 187.085C133.031 187.035 132.781 187.01 132.521 187.01C132.041 187.01 131.676 187.085 131.426 187.235C131.176 187.385 131.051 187.595 131.051 187.865C131.051 188.055 131.106 188.22 131.216 188.36C131.336 188.5 131.541 188.64 131.831 188.78C132.121 188.92 132.516 189.09 133.016 189.29C133.516 189.48 133.941 189.675 134.291 189.875C134.651 190.075 134.921 190.32 135.101 190.61C135.291 190.9 135.386 191.27 135.386 191.72ZM140.462 185.765C141.172 185.765 141.782 185.915 142.292 186.215C142.802 186.505 143.192 186.925 143.462 187.475C143.742 188.025 143.882 188.675 143.882 189.425V190.295H138.452C138.472 191.125 138.687 191.76 139.097 192.2C139.517 192.64 140.102 192.86 140.852 192.86C141.372 192.86 141.832 192.815 142.232 192.725C142.642 192.625 143.062 192.48 143.492 192.29V193.61C143.092 193.79 142.682 193.925 142.262 194.015C141.852 194.105 141.362 194.15 140.792 194.15C140.012 194.15 139.322 193.995 138.722 193.685C138.122 193.375 137.652 192.915 137.312 192.305C136.982 191.685 136.817 190.925 136.817 190.025C136.817 189.115 136.967 188.345 137.267 187.715C137.577 187.085 138.002 186.605 138.542 186.275C139.092 185.935 139.732 185.765 140.462 185.765ZM140.462 186.995C139.892 186.995 139.432 187.18 139.082 187.55C138.742 187.92 138.542 188.445 138.482 189.125H142.292C142.292 188.705 142.227 188.335 142.097 188.015C141.967 187.695 141.767 187.445 141.497 187.265C141.227 187.085 140.882 186.995 140.462 186.995ZM149.961 185.765C150.901 185.765 151.621 186 152.121 186.47C152.621 186.94 152.871 187.695 152.871 188.735V194H151.296V188.96C151.296 188.33 151.161 187.86 150.891 187.55C150.631 187.23 150.211 187.07 149.631 187.07C148.811 187.07 148.241 187.315 147.921 187.805C147.611 188.295 147.456 189 147.456 189.92V194H145.866V185.915H147.126L147.351 186.995H147.441C147.621 186.715 147.841 186.485 148.101 186.305C148.361 186.125 148.651 185.99 148.971 185.9C149.291 185.81 149.621 185.765 149.961 185.765ZM158.224 192.86C158.434 192.86 158.649 192.84 158.869 192.8C159.089 192.76 159.279 192.715 159.439 192.665V193.865C159.269 193.945 159.039 194.01 158.749 194.06C158.459 194.12 158.169 194.15 157.879 194.15C157.439 194.15 157.034 194.075 156.664 193.925C156.304 193.775 156.014 193.515 155.794 193.145C155.574 192.775 155.464 192.26 155.464 191.6V187.13H154.339V186.41L155.524 185.81L156.079 184.1H157.054V185.915H159.364V187.13H157.054V191.57C157.054 192.01 157.159 192.335 157.369 192.545C157.589 192.755 157.874 192.86 158.224 192.86Z" fill="white"/>
<path d="M78 195.875H159.814V196.625H78V195.875Z" fill="white"/>
<rect width="182.5" height="45" transform="translate(68 216)" fill="#03662A"/>
<path d="M88.215 244H86.25L80.835 235.345H80.775C80.785 235.545 80.795 235.76 80.805 235.99C80.825 236.22 80.84 236.465 80.85 236.725C80.86 236.975 80.87 237.235 80.88 237.505C80.89 237.765 80.895 238.03 80.895 238.3V244H79.425V233.29H81.375L86.775 241.9H86.82C86.81 241.75 86.8 241.565 86.79 241.345C86.78 241.115 86.77 240.87 86.76 240.61C86.76 240.35 86.755 240.085 86.745 239.815C86.735 239.545 86.725 239.29 86.715 239.05V233.29H88.215V244ZM98.0155 239.95C98.0155 240.62 97.9255 241.215 97.7455 241.735C97.5655 242.255 97.3105 242.695 96.9805 243.055C96.6505 243.415 96.2505 243.69 95.7805 243.88C95.3105 244.06 94.7805 244.15 94.1905 244.15C93.6505 244.15 93.1505 244.06 92.6905 243.88C92.2305 243.69 91.8305 243.415 91.4905 243.055C91.1605 242.695 90.9005 242.255 90.7105 241.735C90.5205 241.215 90.4255 240.615 90.4255 239.935C90.4255 239.045 90.5755 238.29 90.8755 237.67C91.1855 237.05 91.6255 236.58 92.1955 236.26C92.7755 235.93 93.4555 235.765 94.2355 235.765C94.9755 235.765 95.6255 235.93 96.1855 236.26C96.7555 236.58 97.2005 237.05 97.5205 237.67C97.8505 238.29 98.0155 239.05 98.0155 239.95ZM92.0605 239.95C92.0605 240.55 92.1355 241.07 92.2855 241.51C92.4355 241.94 92.6705 242.27 92.9905 242.5C93.3105 242.73 93.7205 242.845 94.2205 242.845C94.7205 242.845 95.1305 242.73 95.4505 242.5C95.7705 242.27 96.0055 241.94 96.1555 241.51C96.3055 241.07 96.3805 240.55 96.3805 239.95C96.3805 239.33 96.3005 238.81 96.1405 238.39C95.9905 237.97 95.7555 237.65 95.4355 237.43C95.1255 237.2 94.7155 237.085 94.2055 237.085C93.4555 237.085 92.9105 237.335 92.5705 237.835C92.2305 238.335 92.0605 239.04 92.0605 239.95ZM107.873 237.13H105.878V244H104.288V237.13H102.923V236.38L104.288 235.885V235.375C104.288 234.685 104.393 234.135 104.603 233.725C104.823 233.305 105.133 233 105.533 232.81C105.933 232.62 106.418 232.525 106.988 232.525C107.338 232.525 107.658 232.555 107.948 232.615C108.238 232.675 108.483 232.74 108.683 232.81L108.278 234.025C108.118 233.975 107.933 233.93 107.723 233.89C107.513 233.84 107.293 233.815 107.063 233.815C106.663 233.815 106.363 233.945 106.163 234.205C105.973 234.465 105.878 234.86 105.878 235.39V235.915H107.873V237.13ZM112.424 235.765C113.444 235.765 114.204 235.99 114.704 236.44C115.204 236.88 115.454 237.575 115.454 238.525V244H114.329L114.014 242.875H113.954C113.724 243.165 113.484 243.405 113.234 243.595C112.994 243.785 112.714 243.925 112.394 244.015C112.084 244.105 111.704 244.15 111.254 244.15C110.774 244.15 110.339 244.065 109.949 243.895C109.569 243.715 109.269 243.445 109.049 243.085C108.829 242.715 108.719 242.255 108.719 241.705C108.719 240.885 109.029 240.26 109.649 239.83C110.279 239.4 111.234 239.165 112.514 239.125L113.894 239.08V238.63C113.894 238.03 113.759 237.61 113.489 237.37C113.219 237.13 112.839 237.01 112.349 237.01C111.929 237.01 111.529 237.07 111.149 237.19C110.769 237.31 110.409 237.455 110.069 237.625L109.559 236.47C109.939 236.27 110.374 236.105 110.864 235.975C111.364 235.835 111.884 235.765 112.424 235.765ZM112.799 240.145C111.879 240.185 111.239 240.34 110.879 240.61C110.529 240.87 110.354 241.24 110.354 241.72C110.354 242.14 110.479 242.445 110.729 242.635C110.989 242.825 111.314 242.92 111.704 242.92C112.334 242.92 112.854 242.745 113.264 242.395C113.674 242.045 113.879 241.52 113.879 240.82V240.115L112.799 240.145ZM119.492 235.915V244H117.902V235.915H119.492ZM118.712 232.84C118.952 232.84 119.162 232.91 119.342 233.05C119.522 233.19 119.612 233.425 119.612 233.755C119.612 234.075 119.522 234.31 119.342 234.46C119.162 234.6 118.952 234.67 118.712 234.67C118.452 234.67 118.232 234.6 118.052 234.46C117.882 234.31 117.797 234.075 117.797 233.755C117.797 233.425 117.882 233.19 118.052 233.05C118.232 232.91 118.452 232.84 118.712 232.84ZM123.579 244H121.989V232.6H123.579V244ZM133.036 235.915V244H131.761L131.536 242.935H131.461C131.291 243.215 131.071 243.445 130.801 243.625C130.531 243.805 130.236 243.935 129.916 244.015C129.596 244.105 129.266 244.15 128.926 244.15C128.296 244.15 127.761 244.05 127.321 243.85C126.891 243.64 126.561 243.32 126.331 242.89C126.111 242.45 126.001 241.89 126.001 241.21V235.915H127.606V240.97C127.606 241.6 127.736 242.07 127.996 242.38C128.266 242.69 128.681 242.845 129.241 242.845C129.801 242.845 130.241 242.735 130.561 242.515C130.881 242.295 131.106 241.975 131.236 241.555C131.376 241.125 131.446 240.61 131.446 240.01V235.915H133.036ZM139.514 235.765C139.654 235.765 139.809 235.775 139.979 235.795C140.149 235.805 140.289 235.82 140.399 235.84L140.234 237.325C140.124 237.295 139.994 237.27 139.844 237.25C139.694 237.23 139.554 237.22 139.424 237.22C139.124 237.22 138.834 237.28 138.554 237.4C138.284 237.51 138.039 237.675 137.819 237.895C137.599 238.105 137.424 238.365 137.294 238.675C137.174 238.985 137.114 239.34 137.114 239.74V244H135.524V235.915H136.784L136.994 237.355H137.054C137.224 237.065 137.429 236.8 137.669 236.56C137.909 236.32 138.184 236.13 138.494 235.99C138.804 235.84 139.144 235.765 139.514 235.765ZM144.783 235.765C145.493 235.765 146.103 235.915 146.613 236.215C147.123 236.505 147.513 236.925 147.783 237.475C148.063 238.025 148.203 238.675 148.203 239.425V240.295H142.773C142.793 241.125 143.008 241.76 143.418 242.2C143.838 242.64 144.423 242.86 145.173 242.86C145.693 242.86 146.153 242.815 146.553 242.725C146.963 242.625 147.383 242.48 147.813 242.29V243.61C147.413 243.79 147.003 243.925 146.583 244.015C146.173 244.105 145.683 244.15 145.113 244.15C144.333 244.15 143.643 243.995 143.043 243.685C142.443 243.375 141.973 242.915 141.633 242.305C141.303 241.685 141.138 240.925 141.138 240.025C141.138 239.115 141.288 238.345 141.588 237.715C141.898 237.085 142.323 236.605 142.863 236.275C143.413 235.935 144.053 235.765 144.783 235.765ZM144.783 236.995C144.213 236.995 143.753 237.18 143.403 237.55C143.063 237.92 142.863 238.445 142.803 239.125H146.613C146.613 238.705 146.548 238.335 146.418 238.015C146.288 237.695 146.088 237.445 145.818 237.265C145.548 237.085 145.203 236.995 144.783 236.995ZM155.557 241.72C155.557 242.25 155.427 242.695 155.167 243.055C154.907 243.415 154.532 243.69 154.042 243.88C153.552 244.06 152.962 244.15 152.272 244.15C151.702 244.15 151.212 244.105 150.802 244.015C150.402 243.935 150.032 243.815 149.692 243.655V242.26C150.052 242.43 150.467 242.585 150.937 242.725C151.407 242.855 151.867 242.92 152.317 242.92C152.917 242.92 153.347 242.825 153.607 242.635C153.877 242.445 154.012 242.19 154.012 241.87C154.012 241.69 153.962 241.53 153.862 241.39C153.762 241.24 153.572 241.09 153.292 240.94C153.022 240.78 152.622 240.6 152.092 240.4C151.582 240.19 151.147 239.985 150.787 239.785C150.427 239.575 150.152 239.33 149.962 239.05C149.772 238.76 149.677 238.39 149.677 237.94C149.677 237.24 149.957 236.705 150.517 236.335C151.087 235.955 151.837 235.765 152.767 235.765C153.257 235.765 153.717 235.815 154.147 235.915C154.587 236.005 155.012 236.145 155.422 236.335L154.897 237.55C154.667 237.44 154.427 237.35 154.177 237.28C153.937 237.2 153.692 237.135 153.442 237.085C153.202 237.035 152.952 237.01 152.692 237.01C152.212 237.01 151.847 237.085 151.597 237.235C151.347 237.385 151.222 237.595 151.222 237.865C151.222 238.055 151.277 238.22 151.387 238.36C151.507 238.5 151.712 238.64 152.002 238.78C152.292 238.92 152.687 239.09 153.187 239.29C153.687 239.48 154.112 239.675 154.462 239.875C154.822 240.075 155.092 240.32 155.272 240.61C155.462 240.9 155.557 241.27 155.557 241.72Z" fill="white"/>
<rect width="182.5" height="105" transform="translate(265.5 106)" fill="#213045"/>
<path d="M288.46 138.736C290.54 138.736 292.364 139.136 293.932 139.936C295.532 140.736 296.78 141.888 297.676 143.392C298.572 144.896 299.02 146.736 299.02 148.912C299.02 151.312 298.54 153.376 297.58 155.104C296.62 156.832 295.212 158.16 293.356 159.088C291.532 160.016 289.292 160.48 286.636 160.48C284.94 160.48 283.356 160.32 281.884 160C280.412 159.68 279.148 159.216 278.092 158.608V153.952C279.18 154.624 280.508 155.168 282.076 155.584C283.644 156 285.116 156.208 286.492 156.208C287.964 156.208 289.228 155.968 290.284 155.488C291.372 154.976 292.204 154.224 292.78 153.232C293.388 152.208 293.692 150.928 293.692 149.392C293.692 147.312 293.1 145.728 291.916 144.64C290.732 143.52 288.876 142.96 286.348 142.96C285.484 142.96 284.556 143.04 283.564 143.2C282.572 143.36 281.756 143.52 281.116 143.68L278.812 142.288L280.012 125.728H296.764V130.24H284.524L283.852 139.216C284.364 139.12 284.988 139.024 285.724 138.928C286.492 138.8 287.404 138.736 288.46 138.736ZM305.215 145.408C305.215 143.424 305.343 141.472 305.599 139.552C305.855 137.632 306.303 135.824 306.943 134.128C307.615 132.4 308.527 130.88 309.679 129.568C310.831 128.224 312.303 127.184 314.095 126.448C315.887 125.68 318.047 125.296 320.575 125.296C321.215 125.296 321.919 125.328 322.687 125.392C323.487 125.424 324.159 125.52 324.703 125.68V129.952C324.127 129.76 323.487 129.616 322.783 129.52C322.111 129.424 321.407 129.376 320.671 129.376C318.687 129.376 317.023 129.712 315.679 130.384C314.367 131.056 313.311 131.984 312.511 133.168C311.743 134.352 311.183 135.728 310.831 137.296C310.479 138.832 310.271 140.512 310.207 142.336H310.447C310.895 141.568 311.439 140.88 312.079 140.272C312.751 139.664 313.551 139.184 314.479 138.832C315.439 138.48 316.543 138.304 317.791 138.304C319.679 138.304 321.311 138.72 322.687 139.552C324.063 140.384 325.135 141.584 325.903 143.152C326.671 144.72 327.055 146.624 327.055 148.864C327.055 151.264 326.623 153.344 325.759 155.104C324.895 156.832 323.679 158.16 322.111 159.088C320.543 160.016 318.671 160.48 316.495 160.48C314.927 160.48 313.455 160.176 312.079 159.568C310.703 158.96 309.503 158.032 308.479 156.784C307.455 155.536 306.655 153.968 306.079 152.08C305.503 150.16 305.215 147.936 305.215 145.408ZM316.447 156.256C318.079 156.256 319.391 155.664 320.383 154.48C321.407 153.264 321.919 151.392 321.919 148.864C321.919 146.848 321.471 145.248 320.575 144.064C319.679 142.88 318.335 142.288 316.543 142.288C315.327 142.288 314.255 142.576 313.327 143.152C312.431 143.728 311.727 144.464 311.215 145.36C310.703 146.256 310.447 147.168 310.447 148.096C310.447 149.088 310.559 150.064 310.783 151.024C311.039 151.984 311.423 152.864 311.935 153.664C312.447 154.464 313.071 155.104 313.807 155.584C314.575 156.032 315.455 156.256 316.447 156.256ZM336.322 160L348.994 130.24H332.386V125.728H354.562V129.376L341.938 160H336.322Z" fill="#F0F2F5"/>
<path d="M279.655 192.86C279.865 192.86 280.08 192.84 280.3 192.8C280.52 192.76 280.71 192.715 280.87 192.665V193.865C280.7 193.945 280.47 194.01 280.18 194.06C279.89 194.12 279.6 194.15 279.31 194.15C278.87 194.15 278.465 194.075 278.095 193.925C277.735 193.775 277.445 193.515 277.225 193.145C277.005 192.775 276.895 192.26 276.895 191.6V187.13H275.77V186.41L276.955 185.81L277.51 184.1H278.485V185.915H280.795V187.13H278.485V191.57C278.485 192.01 278.59 192.335 278.8 192.545C279.02 192.755 279.305 192.86 279.655 192.86ZM285.667 185.765C286.377 185.765 286.987 185.915 287.497 186.215C288.007 186.505 288.397 186.925 288.667 187.475C288.947 188.025 289.087 188.675 289.087 189.425V190.295H283.657C283.677 191.125 283.892 191.76 284.302 192.2C284.722 192.64 285.307 192.86 286.057 192.86C286.577 192.86 287.037 192.815 287.437 192.725C287.847 192.625 288.267 192.48 288.697 192.29V193.61C288.297 193.79 287.887 193.925 287.467 194.015C287.057 194.105 286.567 194.15 285.997 194.15C285.217 194.15 284.527 193.995 283.927 193.685C283.327 193.375 282.857 192.915 282.517 192.305C282.187 191.685 282.022 190.925 282.022 190.025C282.022 189.115 282.172 188.345 282.472 187.715C282.782 187.085 283.207 186.605 283.747 186.275C284.297 185.935 284.937 185.765 285.667 185.765ZM285.667 186.995C285.097 186.995 284.637 187.18 284.287 187.55C283.947 187.92 283.747 188.445 283.687 189.125H287.497C287.497 188.705 287.432 188.335 287.302 188.015C287.172 187.695 286.972 187.445 286.702 187.265C286.432 187.085 286.087 186.995 285.667 186.995ZM292.623 189.875L289.878 185.915H291.693L293.613 188.825L295.533 185.915H297.333L294.588 189.875L297.468 194H295.668L293.613 190.91L291.543 194H289.743L292.623 189.875ZM301.833 192.86C302.043 192.86 302.258 192.84 302.478 192.8C302.698 192.76 302.888 192.715 303.048 192.665V193.865C302.878 193.945 302.648 194.01 302.358 194.06C302.068 194.12 301.778 194.15 301.488 194.15C301.048 194.15 300.643 194.075 300.273 193.925C299.913 193.775 299.623 193.515 299.403 193.145C299.183 192.775 299.073 192.26 299.073 191.6V187.13H297.948V186.41L299.133 185.81L299.688 184.1H300.663V185.915H302.973V187.13H300.663V191.57C300.663 192.01 300.768 192.335 300.978 192.545C301.198 192.755 301.483 192.86 301.833 192.86ZM317.621 185.765C318.531 185.765 319.216 186 319.676 186.47C320.136 186.94 320.366 187.695 320.366 188.735V194H318.776V188.945C318.776 188.325 318.651 187.86 318.401 187.55C318.161 187.23 317.781 187.07 317.261 187.07C316.541 187.07 316.026 187.295 315.716 187.745C315.406 188.185 315.251 188.825 315.251 189.665V194H313.676V188.945C313.676 188.535 313.616 188.19 313.496 187.91C313.386 187.63 313.221 187.42 313.001 187.28C312.781 187.14 312.496 187.07 312.146 187.07C311.646 187.07 311.251 187.18 310.961 187.4C310.671 187.62 310.461 187.945 310.331 188.375C310.211 188.795 310.151 189.31 310.151 189.92V194H308.561V185.915H309.821L310.046 186.995H310.136C310.306 186.715 310.511 186.485 310.751 186.305C311.001 186.125 311.276 185.99 311.576 185.9C311.876 185.81 312.186 185.765 312.506 185.765C313.116 185.765 313.631 185.875 314.051 186.095C314.471 186.305 314.776 186.63 314.966 187.07H315.086C315.346 186.62 315.706 186.29 316.166 186.08C316.626 185.87 317.111 185.765 317.621 185.765ZM325.98 185.765C326.69 185.765 327.3 185.915 327.81 186.215C328.32 186.505 328.71 186.925 328.98 187.475C329.26 188.025 329.4 188.675 329.4 189.425V190.295H323.97C323.99 191.125 324.205 191.76 324.615 192.2C325.035 192.64 325.62 192.86 326.37 192.86C326.89 192.86 327.35 192.815 327.75 192.725C328.16 192.625 328.58 192.48 329.01 192.29V193.61C328.61 193.79 328.2 193.925 327.78 194.015C327.37 194.105 326.88 194.15 326.31 194.15C325.53 194.15 324.84 193.995 324.24 193.685C323.64 193.375 323.17 192.915 322.83 192.305C322.5 191.685 322.335 190.925 322.335 190.025C322.335 189.115 322.485 188.345 322.785 187.715C323.095 187.085 323.52 186.605 324.06 186.275C324.61 185.935 325.25 185.765 325.98 185.765ZM325.98 186.995C325.41 186.995 324.95 187.18 324.6 187.55C324.26 187.92 324.06 188.445 324 189.125H327.81C327.81 188.705 327.745 188.335 327.615 188.015C327.485 187.695 327.285 187.445 327.015 187.265C326.745 187.085 326.4 186.995 325.98 186.995ZM336.754 191.72C336.754 192.25 336.624 192.695 336.364 193.055C336.104 193.415 335.729 193.69 335.239 193.88C334.749 194.06 334.159 194.15 333.469 194.15C332.899 194.15 332.409 194.105 331.999 194.015C331.599 193.935 331.229 193.815 330.889 193.655V192.26C331.249 192.43 331.664 192.585 332.134 192.725C332.604 192.855 333.064 192.92 333.514 192.92C334.114 192.92 334.544 192.825 334.804 192.635C335.074 192.445 335.209 192.19 335.209 191.87C335.209 191.69 335.159 191.53 335.059 191.39C334.959 191.24 334.769 191.09 334.489 190.94C334.219 190.78 333.819 190.6 333.289 190.4C332.779 190.19 332.344 189.985 331.984 189.785C331.624 189.575 331.349 189.33 331.159 189.05C330.969 188.76 330.874 188.39 330.874 187.94C330.874 187.24 331.154 186.705 331.714 186.335C332.284 185.955 333.034 185.765 333.964 185.765C334.454 185.765 334.914 185.815 335.344 185.915C335.784 186.005 336.209 186.145 336.619 186.335L336.094 187.55C335.864 187.44 335.624 187.35 335.374 187.28C335.134 187.2 334.889 187.135 334.639 187.085C334.399 187.035 334.149 187.01 333.889 187.01C333.409 187.01 333.044 187.085 332.794 187.235C332.544 187.385 332.419 187.595 332.419 187.865C332.419 188.055 332.474 188.22 332.584 188.36C332.704 188.5 332.909 188.64 333.199 188.78C333.489 188.92 333.884 189.09 334.384 189.29C334.884 189.48 335.309 189.675 335.659 189.875C336.019 190.075 336.289 190.32 336.469 190.61C336.659 190.9 336.754 191.27 336.754 191.72ZM344.019 191.72C344.019 192.25 343.889 192.695 343.629 193.055C343.369 193.415 342.994 193.69 342.504 193.88C342.014 194.06 341.424 194.15 340.734 194.15C340.164 194.15 339.674 194.105 339.264 194.015C338.864 193.935 338.494 193.815 338.154 193.655V192.26C338.514 192.43 338.929 192.585 339.399 192.725C339.869 192.855 340.329 192.92 340.779 192.92C341.379 192.92 341.809 192.825 342.069 192.635C342.339 192.445 342.474 192.19 342.474 191.87C342.474 191.69 342.424 191.53 342.324 191.39C342.224 191.24 342.034 191.09 341.754 190.94C341.484 190.78 341.084 190.6 340.554 190.4C340.044 190.19 339.609 189.985 339.249 189.785C338.889 189.575 338.614 189.33 338.424 189.05C338.234 188.76 338.139 188.39 338.139 187.94C338.139 187.24 338.419 186.705 338.979 186.335C339.549 185.955 340.299 185.765 341.229 185.765C341.719 185.765 342.179 185.815 342.609 185.915C343.049 186.005 343.474 186.145 343.884 186.335L343.359 187.55C343.129 187.44 342.889 187.35 342.639 187.28C342.399 187.2 342.154 187.135 341.904 187.085C341.664 187.035 341.414 187.01 341.154 187.01C340.674 187.01 340.309 187.085 340.059 187.235C339.809 187.385 339.684 187.595 339.684 187.865C339.684 188.055 339.739 188.22 339.849 188.36C339.969 188.5 340.174 188.64 340.464 188.78C340.754 188.92 341.149 189.09 341.649 189.29C342.149 189.48 342.574 189.675 342.924 189.875C343.284 190.075 343.554 190.32 343.734 190.61C343.924 190.9 344.019 191.27 344.019 191.72ZM349.05 185.765C350.07 185.765 350.83 185.99 351.33 186.44C351.83 186.88 352.08 187.575 352.08 188.525V194H350.955L350.64 192.875H350.58C350.35 193.165 350.11 193.405 349.86 193.595C349.62 193.785 349.34 193.925 349.02 194.015C348.71 194.105 348.33 194.15 347.88 194.15C347.4 194.15 346.965 194.065 346.575 193.895C346.195 193.715 345.895 193.445 345.675 193.085C345.455 192.715 345.345 192.255 345.345 191.705C345.345 190.885 345.655 190.26 346.275 189.83C346.905 189.4 347.86 189.165 349.14 189.125L350.52 189.08V188.63C350.52 188.03 350.385 187.61 350.115 187.37C349.845 187.13 349.465 187.01 348.975 187.01C348.555 187.01 348.155 187.07 347.775 187.19C347.395 187.31 347.035 187.455 346.695 187.625L346.185 186.47C346.565 186.27 347 186.105 347.49 185.975C347.99 185.835 348.51 185.765 349.05 185.765ZM349.425 190.145C348.505 190.185 347.865 190.34 347.505 190.61C347.155 190.87 346.98 191.24 346.98 191.72C346.98 192.14 347.105 192.445 347.355 192.635C347.615 192.825 347.94 192.92 348.33 192.92C348.96 192.92 349.48 192.745 349.89 192.395C350.3 192.045 350.505 191.52 350.505 190.82V190.115L349.425 190.145ZM357.318 185.765C357.838 185.765 358.308 185.865 358.728 186.065C359.148 186.265 359.503 186.57 359.793 186.98H359.868L360.048 185.915H361.338V194.105C361.338 194.865 361.203 195.505 360.933 196.025C360.663 196.545 360.248 196.935 359.688 197.195C359.138 197.465 358.443 197.6 357.603 197.6C357.023 197.6 356.488 197.56 355.998 197.48C355.508 197.4 355.058 197.275 354.648 197.105V195.71C354.938 195.85 355.243 195.965 355.563 196.055C355.883 196.155 356.223 196.225 356.583 196.265C356.943 196.315 357.313 196.34 357.693 196.34C358.353 196.34 358.863 196.15 359.223 195.77C359.583 195.4 359.763 194.875 359.763 194.195V193.925C359.763 193.795 359.768 193.625 359.778 193.415C359.788 193.195 359.798 193.035 359.808 192.935H359.748C359.468 193.355 359.123 193.665 358.713 193.865C358.313 194.055 357.848 194.15 357.318 194.15C356.298 194.15 355.498 193.785 354.918 193.055C354.348 192.315 354.063 191.29 354.063 189.98C354.063 189.1 354.193 188.35 354.453 187.73C354.713 187.1 355.083 186.615 355.563 186.275C356.053 185.935 356.638 185.765 357.318 185.765ZM357.648 187.085C357.228 187.085 356.873 187.2 356.583 187.43C356.293 187.65 356.073 187.975 355.923 188.405C355.773 188.835 355.698 189.365 355.698 189.995C355.698 190.935 355.863 191.65 356.193 192.14C356.533 192.63 357.028 192.875 357.678 192.875C358.058 192.875 358.378 192.825 358.638 192.725C358.908 192.625 359.128 192.47 359.298 192.26C359.478 192.05 359.608 191.785 359.688 191.465C359.778 191.135 359.823 190.74 359.823 190.28V189.98C359.823 189.29 359.743 188.735 359.583 188.315C359.433 187.885 359.198 187.575 358.878 187.385C358.558 187.185 358.148 187.085 357.648 187.085ZM367.01 185.765C367.72 185.765 368.33 185.915 368.84 186.215C369.35 186.505 369.74 186.925 370.01 187.475C370.29 188.025 370.43 188.675 370.43 189.425V190.295H365C365.02 191.125 365.235 191.76 365.645 192.2C366.065 192.64 366.65 192.86 367.4 192.86C367.92 192.86 368.38 192.815 368.78 192.725C369.19 192.625 369.61 192.48 370.04 192.29V193.61C369.64 193.79 369.23 193.925 368.81 194.015C368.4 194.105 367.91 194.15 367.34 194.15C366.56 194.15 365.87 193.995 365.27 193.685C364.67 193.375 364.2 192.915 363.86 192.305C363.53 191.685 363.365 190.925 363.365 190.025C363.365 189.115 363.515 188.345 363.815 187.715C364.125 187.085 364.55 186.605 365.09 186.275C365.64 185.935 366.28 185.765 367.01 185.765ZM367.01 186.995C366.44 186.995 365.98 187.18 365.63 187.55C365.29 187.92 365.09 188.445 365.03 189.125H368.84C368.84 188.705 368.775 188.335 368.645 188.015C368.515 187.695 368.315 187.445 368.045 187.265C367.775 187.085 367.43 186.995 367.01 186.995ZM377.784 191.72C377.784 192.25 377.654 192.695 377.394 193.055C377.134 193.415 376.759 193.69 376.269 193.88C375.779 194.06 375.189 194.15 374.499 194.15C373.929 194.15 373.439 194.105 373.029 194.015C372.629 193.935 372.259 193.815 371.919 193.655V192.26C372.279 192.43 372.694 192.585 373.164 192.725C373.634 192.855 374.094 192.92 374.544 192.92C375.144 192.92 375.574 192.825 375.834 192.635C376.104 192.445 376.239 192.19 376.239 191.87C376.239 191.69 376.189 191.53 376.089 191.39C375.989 191.24 375.799 191.09 375.519 190.94C375.249 190.78 374.849 190.6 374.319 190.4C373.809 190.19 373.374 189.985 373.014 189.785C372.654 189.575 372.379 189.33 372.189 189.05C371.999 188.76 371.904 188.39 371.904 187.94C371.904 187.24 372.184 186.705 372.744 186.335C373.314 185.955 374.064 185.765 374.994 185.765C375.484 185.765 375.944 185.815 376.374 185.915C376.814 186.005 377.239 186.145 377.649 186.335L377.124 187.55C376.894 187.44 376.654 187.35 376.404 187.28C376.164 187.2 375.919 187.135 375.669 187.085C375.429 187.035 375.179 187.01 374.919 187.01C374.439 187.01 374.074 187.085 373.824 187.235C373.574 187.385 373.449 187.595 373.449 187.865C373.449 188.055 373.504 188.22 373.614 188.36C373.734 188.5 373.939 188.64 374.229 188.78C374.519 188.92 374.914 189.09 375.414 189.29C375.914 189.48 376.339 189.675 376.689 189.875C377.049 190.075 377.319 190.32 377.499 190.61C377.689 190.9 377.784 191.27 377.784 191.72ZM388.946 191.72C388.946 192.25 388.816 192.695 388.556 193.055C388.296 193.415 387.921 193.69 387.431 193.88C386.941 194.06 386.351 194.15 385.661 194.15C385.091 194.15 384.601 194.105 384.191 194.015C383.791 193.935 383.421 193.815 383.081 193.655V192.26C383.441 192.43 383.856 192.585 384.326 192.725C384.796 192.855 385.256 192.92 385.706 192.92C386.306 192.92 386.736 192.825 386.996 192.635C387.266 192.445 387.401 192.19 387.401 191.87C387.401 191.69 387.351 191.53 387.251 191.39C387.151 191.24 386.961 191.09 386.681 190.94C386.411 190.78 386.011 190.6 385.481 190.4C384.971 190.19 384.536 189.985 384.176 189.785C383.816 189.575 383.541 189.33 383.351 189.05C383.161 188.76 383.066 188.39 383.066 187.94C383.066 187.24 383.346 186.705 383.906 186.335C384.476 185.955 385.226 185.765 386.156 185.765C386.646 185.765 387.106 185.815 387.536 185.915C387.976 186.005 388.401 186.145 388.811 186.335L388.286 187.55C388.056 187.44 387.816 187.35 387.566 187.28C387.326 187.2 387.081 187.135 386.831 187.085C386.591 187.035 386.341 187.01 386.081 187.01C385.601 187.01 385.236 187.085 384.986 187.235C384.736 187.385 384.611 187.595 384.611 187.865C384.611 188.055 384.666 188.22 384.776 188.36C384.896 188.5 385.101 188.64 385.391 188.78C385.681 188.92 386.076 189.09 386.576 189.29C387.076 189.48 387.501 189.675 387.851 189.875C388.211 190.075 388.481 190.32 388.661 190.61C388.851 190.9 388.946 191.27 388.946 191.72ZM394.022 185.765C394.732 185.765 395.342 185.915 395.852 186.215C396.362 186.505 396.752 186.925 397.022 187.475C397.302 188.025 397.442 188.675 397.442 189.425V190.295H392.012C392.032 191.125 392.247 191.76 392.657 192.2C393.077 192.64 393.662 192.86 394.412 192.86C394.932 192.86 395.392 192.815 395.792 192.725C396.202 192.625 396.622 192.48 397.052 192.29V193.61C396.652 193.79 396.242 193.925 395.822 194.015C395.412 194.105 394.922 194.15 394.352 194.15C393.572 194.15 392.882 193.995 392.282 193.685C391.682 193.375 391.212 192.915 390.872 192.305C390.542 191.685 390.377 190.925 390.377 190.025C390.377 189.115 390.527 188.345 390.827 187.715C391.137 187.085 391.562 186.605 392.102 186.275C392.652 185.935 393.292 185.765 394.022 185.765ZM394.022 186.995C393.452 186.995 392.992 187.18 392.642 187.55C392.302 187.92 392.102 188.445 392.042 189.125H395.852C395.852 188.705 395.787 188.335 395.657 188.015C395.527 187.695 395.327 187.445 395.057 187.265C394.787 187.085 394.442 186.995 394.022 186.995ZM403.521 185.765C404.461 185.765 405.181 186 405.681 186.47C406.181 186.94 406.431 187.695 406.431 188.735V194H404.856V188.96C404.856 188.33 404.721 187.86 404.451 187.55C404.191 187.23 403.771 187.07 403.191 187.07C402.371 187.07 401.801 187.315 401.481 187.805C401.171 188.295 401.016 189 401.016 189.92V194H399.426V185.915H400.686L400.911 186.995H401.001C401.181 186.715 401.401 186.485 401.661 186.305C401.921 186.125 402.211 185.99 402.531 185.9C402.851 185.81 403.181 185.765 403.521 185.765ZM411.784 192.86C411.994 192.86 412.209 192.84 412.429 192.8C412.649 192.76 412.839 192.715 412.999 192.665V193.865C412.829 193.945 412.599 194.01 412.309 194.06C412.019 194.12 411.729 194.15 411.439 194.15C410.999 194.15 410.594 194.075 410.224 193.925C409.864 193.775 409.574 193.515 409.354 193.145C409.134 192.775 409.024 192.26 409.024 191.6V187.13H407.899V186.41L409.084 185.81L409.639 184.1H410.614V185.915H412.924V187.13H410.614V191.57C410.614 192.01 410.719 192.335 410.929 192.545C411.149 192.755 411.434 192.86 411.784 192.86Z" fill="white"/>
<path d="M275.5 195.875H413.374V196.625H275.5V195.875Z" fill="white"/>
<rect width="182.5" height="45" transform="translate(265.5 216)" fill="#03662A"/>
<path d="M285.715 244H283.75L278.335 235.345H278.275C278.285 235.545 278.295 235.76 278.305 235.99C278.325 236.22 278.34 236.465 278.35 236.725C278.36 236.975 278.37 237.235 278.38 237.505C278.39 237.765 278.395 238.03 278.395 238.3V244H276.925V233.29H278.875L284.275 241.9H284.32C284.31 241.75 284.3 241.565 284.29 241.345C284.28 241.115 284.27 240.87 284.26 240.61C284.26 240.35 284.255 240.085 284.245 239.815C284.235 239.545 284.225 239.29 284.215 239.05V233.29H285.715V244ZM295.516 239.95C295.516 240.62 295.426 241.215 295.246 241.735C295.066 242.255 294.811 242.695 294.481 243.055C294.151 243.415 293.751 243.69 293.281 243.88C292.811 244.06 292.281 244.15 291.691 244.15C291.151 244.15 290.651 244.06 290.191 243.88C289.731 243.69 289.331 243.415 288.991 243.055C288.661 242.695 288.401 242.255 288.211 241.735C288.021 241.215 287.926 240.615 287.926 239.935C287.926 239.045 288.076 238.29 288.376 237.67C288.686 237.05 289.126 236.58 289.696 236.26C290.276 235.93 290.956 235.765 291.736 235.765C292.476 235.765 293.126 235.93 293.686 236.26C294.256 236.58 294.701 237.05 295.021 237.67C295.351 238.29 295.516 239.05 295.516 239.95ZM289.561 239.95C289.561 240.55 289.636 241.07 289.786 241.51C289.936 241.94 290.171 242.27 290.491 242.5C290.811 242.73 291.221 242.845 291.721 242.845C292.221 242.845 292.631 242.73 292.951 242.5C293.271 242.27 293.506 241.94 293.656 241.51C293.806 241.07 293.881 240.55 293.881 239.95C293.881 239.33 293.801 238.81 293.641 238.39C293.491 237.97 293.256 237.65 292.936 237.43C292.626 237.2 292.216 237.085 291.706 237.085C290.956 237.085 290.411 237.335 290.071 237.835C289.731 238.335 289.561 239.04 289.561 239.95ZM305.373 237.13H303.378V244H301.788V237.13H300.423V236.38L301.788 235.885V235.375C301.788 234.685 301.893 234.135 302.103 233.725C302.323 233.305 302.633 233 303.033 232.81C303.433 232.62 303.918 232.525 304.488 232.525C304.838 232.525 305.158 232.555 305.448 232.615C305.738 232.675 305.983 232.74 306.183 232.81L305.778 234.025C305.618 233.975 305.433 233.93 305.223 233.89C305.013 233.84 304.793 233.815 304.563 233.815C304.163 233.815 303.863 233.945 303.663 234.205C303.473 234.465 303.378 234.86 303.378 235.39V235.915H305.373V237.13ZM309.924 235.765C310.944 235.765 311.704 235.99 312.204 236.44C312.704 236.88 312.954 237.575 312.954 238.525V244H311.829L311.514 242.875H311.454C311.224 243.165 310.984 243.405 310.734 243.595C310.494 243.785 310.214 243.925 309.894 244.015C309.584 244.105 309.204 244.15 308.754 244.15C308.274 244.15 307.839 244.065 307.449 243.895C307.069 243.715 306.769 243.445 306.549 243.085C306.329 242.715 306.219 242.255 306.219 241.705C306.219 240.885 306.529 240.26 307.149 239.83C307.779 239.4 308.734 239.165 310.014 239.125L311.394 239.08V238.63C311.394 238.03 311.259 237.61 310.989 237.37C310.719 237.13 310.339 237.01 309.849 237.01C309.429 237.01 309.029 237.07 308.649 237.19C308.269 237.31 307.909 237.455 307.569 237.625L307.059 236.47C307.439 236.27 307.874 236.105 308.364 235.975C308.864 235.835 309.384 235.765 309.924 235.765ZM310.299 240.145C309.379 240.185 308.739 240.34 308.379 240.61C308.029 240.87 307.854 241.24 307.854 241.72C307.854 242.14 307.979 242.445 308.229 242.635C308.489 242.825 308.814 242.92 309.204 242.92C309.834 242.92 310.354 242.745 310.764 242.395C311.174 242.045 311.379 241.52 311.379 240.82V240.115L310.299 240.145ZM316.992 235.915V244H315.402V235.915H316.992ZM316.212 232.84C316.452 232.84 316.662 232.91 316.842 233.05C317.022 233.19 317.112 233.425 317.112 233.755C317.112 234.075 317.022 234.31 316.842 234.46C316.662 234.6 316.452 234.67 316.212 234.67C315.952 234.67 315.732 234.6 315.552 234.46C315.382 234.31 315.297 234.075 315.297 233.755C315.297 233.425 315.382 233.19 315.552 233.05C315.732 232.91 315.952 232.84 316.212 232.84ZM321.079 244H319.489V232.6H321.079V244ZM330.536 235.915V244H329.261L329.036 242.935H328.961C328.791 243.215 328.571 243.445 328.301 243.625C328.031 243.805 327.736 243.935 327.416 244.015C327.096 244.105 326.766 244.15 326.426 244.15C325.796 244.15 325.261 244.05 324.821 243.85C324.391 243.64 324.061 243.32 323.831 242.89C323.611 242.45 323.501 241.89 323.501 241.21V235.915H325.106V240.97C325.106 241.6 325.236 242.07 325.496 242.38C325.766 242.69 326.181 242.845 326.741 242.845C327.301 242.845 327.741 242.735 328.061 242.515C328.381 242.295 328.606 241.975 328.736 241.555C328.876 241.125 328.946 240.61 328.946 240.01V235.915H330.536ZM337.014 235.765C337.154 235.765 337.309 235.775 337.479 235.795C337.649 235.805 337.789 235.82 337.899 235.84L337.734 237.325C337.624 237.295 337.494 237.27 337.344 237.25C337.194 237.23 337.054 237.22 336.924 237.22C336.624 237.22 336.334 237.28 336.054 237.4C335.784 237.51 335.539 237.675 335.319 237.895C335.099 238.105 334.924 238.365 334.794 238.675C334.674 238.985 334.614 239.34 334.614 239.74V244H333.024V235.915H334.284L334.494 237.355H334.554C334.724 237.065 334.929 236.8 335.169 236.56C335.409 236.32 335.684 236.13 335.994 235.99C336.304 235.84 336.644 235.765 337.014 235.765ZM342.283 235.765C342.993 235.765 343.603 235.915 344.113 236.215C344.623 236.505 345.013 236.925 345.283 237.475C345.563 238.025 345.703 238.675 345.703 239.425V240.295H340.273C340.293 241.125 340.508 241.76 340.918 242.2C341.338 242.64 341.923 242.86 342.673 242.86C343.193 242.86 343.653 242.815 344.053 242.725C344.463 242.625 344.883 242.48 345.313 242.29V243.61C344.913 243.79 344.503 243.925 344.083 244.015C343.673 244.105 343.183 244.15 342.613 244.15C341.833 244.15 341.143 243.995 340.543 243.685C339.943 243.375 339.473 242.915 339.133 242.305C338.803 241.685 338.638 240.925 338.638 240.025C338.638 239.115 338.788 238.345 339.088 237.715C339.398 237.085 339.823 236.605 340.363 236.275C340.913 235.935 341.553 235.765 342.283 235.765ZM342.283 236.995C341.713 236.995 341.253 237.18 340.903 237.55C340.563 237.92 340.363 238.445 340.303 239.125H344.113C344.113 238.705 344.048 238.335 343.918 238.015C343.788 237.695 343.588 237.445 343.318 237.265C343.048 237.085 342.703 236.995 342.283 236.995ZM353.057 241.72C353.057 242.25 352.927 242.695 352.667 243.055C352.407 243.415 352.032 243.69 351.542 243.88C351.052 244.06 350.462 244.15 349.772 244.15C349.202 244.15 348.712 244.105 348.302 244.015C347.902 243.935 347.532 243.815 347.192 243.655V242.26C347.552 242.43 347.967 242.585 348.437 242.725C348.907 242.855 349.367 242.92 349.817 242.92C350.417 242.92 350.847 242.825 351.107 242.635C351.377 242.445 351.512 242.19 351.512 241.87C351.512 241.69 351.462 241.53 351.362 241.39C351.262 241.24 351.072 241.09 350.792 240.94C350.522 240.78 350.122 240.6 349.592 240.4C349.082 240.19 348.647 239.985 348.287 239.785C347.927 239.575 347.652 239.33 347.462 239.05C347.272 238.76 347.177 238.39 347.177 237.94C347.177 237.24 347.457 236.705 348.017 236.335C348.587 235.955 349.337 235.765 350.267 235.765C350.757 235.765 351.217 235.815 351.647 235.915C352.087 236.005 352.512 236.145 352.922 236.335L352.397 237.55C352.167 237.44 351.927 237.35 351.677 237.28C351.437 237.2 351.192 237.135 350.942 237.085C350.702 237.035 350.452 237.01 350.192 237.01C349.712 237.01 349.347 237.085 349.097 237.235C348.847 237.385 348.722 237.595 348.722 237.865C348.722 238.055 348.777 238.22 348.887 238.36C349.007 238.5 349.212 238.64 349.502 238.78C349.792 238.92 350.187 239.09 350.687 239.29C351.187 239.48 351.612 239.675 351.962 239.875C352.322 240.075 352.592 240.32 352.772 240.61C352.962 240.9 353.057 241.27 353.057 241.72Z" fill="white"/>
<path d="M28 8.5H488C498.77 8.5 507.5 17.2304 507.5 28V307.5H8.5V28C8.5 17.2304 17.2304 8.5 28 8.5Z" stroke="#AFB9C3"/>
</g>
<defs>
<filter id="filter0_d_7870_4637" x="0" y="0" width="524" height="324" filterUnits="userSpaceOnUse" color-interpolation-filters="sRGB">
<feFlood flood-opacity="0" result="BackgroundImageFix"/>
<feColorMatrix in="SourceAlpha" type="matrix" values="0 0 0 0 0 0 0 0 0 0 0 0 0 0 0 0 0 0 127 0" result="hardAlpha"/>
<feOffset dx="4" dy="4"/>
<feGaussianBlur stdDeviation="6"/>
<feColorMatrix type="matrix" values="0 0 0 0 0 0 0 0 0 0 0 0 0 0 0 0 0 0 0.1 0"/>
<feBlend mode="normal" in2="BackgroundImageFix" result="effect1_dropShadow_7870_4637"/>
<feBlend mode="normal" in="SourceGraphic" in2="effect1_dropShadow_7870_4637" result="shape"/>
</filter>
</defs>
</svg>
