<svg width="35" height="35" viewBox="0 0 35 35" fill="none" xmlns="http://www.w3.org/2000/svg">
<path d="M34.5391 12.6484L22.7266 0.835938C22.5156 0.625 22.1641 0.625 21.9531 0.835938L19.5625 3.22656C19.3516 3.4375 19.3516 3.78906 19.5625 4L20.3359 4.77344L3.32031 21.7891C0.578125 24.5312 0.0859375 28.9609 2.61719 31.8438C4.09375 33.5312 6.13281 34.375 8.17188 34.375C10 34.375 11.8281 33.6719 13.2344 32.2656L30.6016 15.0391L31.375 15.8125C31.5859 16.0234 31.9375 16.0234 32.1484 15.8125L34.5391 13.4219C34.75 13.2109 34.75 12.8594 34.5391 12.6484ZM23.3594 17.5H12.3203L22.7266 7.16406L28.2109 12.6484L23.3594 17.5Z" fill="#00823B"/>
</svg>
