<svg width="39" height="34" viewBox="0 0 39 34" fill="none" xmlns="http://www.w3.org/2000/svg">
<path d="M20 0.125C9.46094 0.125 1 7.10156 1 15.5625C1 19.2734 2.55859 22.6133 5.23047 25.2852C4.26562 29.0703 1.14844 32.3359 1.14844 32.4102C1 32.5586 0.925781 32.8555 1 33.0781C1.14844 33.3008 1.29688 33.375 1.59375 33.375C6.49219 33.375 10.2031 31.0742 11.9844 29.5898C14.4336 30.4805 17.1055 31 20 31C30.4648 31 39 24.0977 39 15.5625C39 7.10156 30.4648 0.125 20 0.125ZM10.5 20.3125H9.60938C9.23828 20.3125 9.01562 20.0898 9.01562 19.7188V18.5312C9.01562 18.2344 9.23828 17.9375 9.60938 17.9375H10.5C10.9453 17.9375 11.2422 17.7148 11.2422 17.4922C11.2422 17.418 11.168 17.2695 11.0938 17.1953L9.46094 15.7852C8.86719 15.2656 8.49609 14.5234 8.49609 13.707C8.49609 12.1484 9.90625 10.8867 11.6133 10.8867H12.5781C12.875 10.8867 13.1719 11.1094 13.1719 11.4805V12.668C13.1719 12.9648 12.875 13.2617 12.5781 13.2617H11.6133C11.168 13.2617 10.8711 13.4844 10.8711 13.707C10.8711 13.7812 10.9453 13.9297 11.0195 14.0039L12.6523 15.4141C13.2461 15.9336 13.6172 16.6758 13.6172 17.4922C13.6172 19.0508 12.207 20.3125 10.5 20.3125ZM24.75 19.7188C24.75 20.0898 24.4531 20.3125 24.1562 20.3125H22.9688C22.5977 20.3125 22.375 20.0898 22.375 19.7188V14.6719L20.5195 18.8281C20.2969 19.2734 19.6289 19.2734 19.4062 18.8281L17.625 14.6719V19.7188C17.625 20.0898 17.3281 20.3125 17.0312 20.3125H15.8438C15.4727 20.3125 15.25 20.0898 15.25 19.7188V12C15.25 11.4062 15.7695 10.8125 16.4375 10.8125H17.625C18.0703 10.8125 18.4414 11.1094 18.6641 11.4805L20 14.1523L21.2617 11.4805C21.4844 11.1094 21.9297 10.8125 22.375 10.8125H23.5625C24.1562 10.8125 24.75 11.4062 24.75 12V19.7188ZM28.3125 20.3125H27.4219C27.0508 20.3125 26.8281 20.0898 26.8281 19.7188V18.5312C26.8281 18.2344 27.0508 17.9375 27.4219 17.9375H28.3125C28.7578 17.9375 29.0547 17.7148 29.0547 17.4922C29.0547 17.418 28.9805 17.2695 28.9062 17.1953L27.2734 15.7852C26.6797 15.2656 26.3086 14.5234 26.3086 13.707C26.3086 12.1484 27.7188 10.8867 29.4258 10.8867H30.3906C30.6875 10.8867 30.9844 11.1094 30.9844 11.4805V12.668C30.9844 12.9648 30.6875 13.2617 30.3906 13.2617H29.4258C28.9805 13.2617 28.6836 13.4844 28.6836 13.707C28.6836 13.7812 28.7578 13.9297 28.832 14.0039L30.4648 15.4141C31.0586 15.9336 31.4297 16.6758 31.4297 17.4922C31.4297 19.0508 30.0195 20.3125 28.3125 20.3125Z" fill="#00823B"/>
</svg>
