<svg width="530" height="236" viewBox="0 0 530 236" fill="none" xmlns="http://www.w3.org/2000/svg">
<path d="M154.529 0.53125H62.1517H53.7441H12.983C5.95892 0.53125 0.318359 6.16548 0.318359 13.1817V133.733C0.318359 140.749 5.95892 146.384 12.983 146.384H27.1376H39.5894L62.3645 169.133V146.384H74.2842H81.3083H154.423C161.447 146.384 167.087 140.749 167.087 133.733V13.1817C167.194 6.27178 161.553 0.53125 154.529 0.53125Z" fill="#B2E3FF"/>
<path d="M93.2291 191.883C103.221 191.883 111.321 183.506 111.321 173.173C111.321 162.84 103.221 154.463 93.2291 154.463C83.237 154.463 75.1367 162.84 75.1367 173.173C75.1367 183.506 83.237 191.883 93.2291 191.883Z" fill="#26374A"/>
<path d="M118.558 212.187C117.6 201.025 108.554 196.241 97.5922 196.241H89.0781C78.0099 196.241 69.0701 201.025 68.1123 212.187H68.0059V235.256H118.771L118.558 212.187Z" fill="#26374A"/>
<path d="M63.4295 46.2428L64.7066 50.3888C64.813 50.814 65.2387 51.0266 65.6644 51.0266L69.07 50.3888C69.6022 51.2392 70.2407 52.0897 71.0921 52.8338L69.815 56.023C69.7086 56.4482 69.815 56.8735 70.2407 57.0861L74.072 59.1059C74.4977 59.3185 75.0299 59.2122 75.2427 58.787L77.1584 55.9167C78.2226 56.1293 79.2869 56.2356 80.3512 56.2356L81.7347 59.4248C81.9475 59.85 82.2668 60.0626 82.799 59.85L86.8431 58.468C87.2688 58.3617 87.4817 57.9365 87.4817 57.5113L86.8431 54.1095C87.6945 53.578 88.5459 52.9401 89.2909 52.0897L92.4837 53.3654C92.9094 53.4717 93.3351 53.3653 93.5479 52.9401L95.57 49.1131C95.7829 48.6879 95.57 48.2627 95.2508 47.9437L92.3773 46.0302C92.5901 44.9671 92.6965 43.9041 92.6965 42.841L95.9957 41.459C96.4214 41.2464 96.6343 40.9275 96.4214 40.396L95.1443 36.3564C95.0379 35.9311 94.6122 35.7185 94.1865 35.7185L90.7809 36.3564C90.1423 35.3996 89.5038 34.6554 88.6524 33.9113L89.823 30.7221C89.9295 30.2969 89.823 29.8716 89.3973 29.659L85.566 27.6392C85.1403 27.4266 84.7146 27.6392 84.3953 27.9581L82.4797 30.8284C81.5218 30.6158 80.3512 30.5095 79.3933 30.6158L78.0098 27.4266C77.7969 27.0014 77.4777 26.7888 76.9455 27.0014L72.9014 28.2771C72.4757 28.3834 72.2628 28.8086 72.2628 29.2338L72.9014 32.6356C71.9435 33.2735 71.1985 33.9113 70.4536 34.7618L67.2608 33.5924C66.8351 33.4861 66.4094 33.5924 66.1965 34.0176L64.1744 37.8446C63.9616 38.2699 64.1744 38.6951 64.4937 39.014L67.3672 40.9275C67.1544 41.8843 67.0479 43.0536 67.1544 44.0104L63.9616 45.3924C63.5359 45.3924 63.323 45.9239 63.4295 46.2428ZM74.817 41.8843C75.7749 38.1635 80.1383 36.7816 83.1182 39.014C84.821 40.2897 85.566 42.4158 85.0339 44.4356C84.076 48.1563 79.7126 49.5383 76.7327 47.3059C75.1363 46.1365 74.2849 43.9041 74.817 41.8843Z" fill="#26374A"/>
<path d="M38.6319 37.1L36.9291 40.3955C36.7163 40.8208 36.9291 41.246 37.2484 41.5649L39.6962 43.1595C39.5898 44.01 39.4833 44.7541 39.4833 45.7109L36.9291 46.8802C36.5034 47.0928 36.2906 47.4118 36.5034 47.9433L37.5677 51.3451C37.6741 51.7703 38.0998 51.9829 38.5255 51.9829L41.399 51.4514C41.9311 52.1955 42.4633 52.8334 43.1018 53.3649L42.144 56.0226C42.0376 56.4478 42.144 56.873 42.5697 57.0856L45.7625 58.7865C46.1882 58.9991 46.6139 58.7865 46.9331 58.4676L48.5295 56.1289C49.3809 56.2352 50.1259 56.3415 51.0837 56.3415L52.2544 58.8928C52.4673 59.3181 52.7866 59.5307 53.3187 59.3181L56.7243 58.255C57.15 58.1487 57.3629 57.7235 57.3629 57.2982L56.8307 54.428C57.5757 53.8965 58.2143 53.3649 58.7464 52.7271L61.5135 53.7901C61.9392 53.8964 62.3649 53.7901 62.5777 53.3649L64.2805 50.0694C64.4934 49.6442 64.387 49.1127 63.9612 48.9L61.5135 47.3055C61.7263 46.5613 61.7263 45.7109 61.7263 44.7541L64.2805 43.5847C64.7062 43.3721 64.9191 43.0532 64.7062 42.5217L63.642 39.1199C63.5356 38.6946 63.1098 38.482 62.6841 38.482L59.8106 39.0136C59.2785 38.2694 58.7464 37.6316 58.1078 37.1L59.1721 34.3361C59.2785 33.9108 59.1721 33.4856 58.7464 33.273L55.5536 31.5721C55.1279 31.3595 54.7022 31.5721 54.3829 31.891L52.7866 34.3361C51.9351 34.2298 51.0837 34.0172 50.2323 34.1235L49.0617 31.5721C48.8488 31.1469 48.5295 30.9343 47.9974 31.1469L44.5918 32.2099C44.1661 32.3163 43.9532 32.7415 43.9532 33.1667L44.4854 36.037C43.7404 36.5685 43.1018 37.1 42.5697 37.7379L39.8026 36.6748C39.3769 36.5685 38.8448 36.7811 38.6319 37.1ZM46.6139 43.3721C47.7845 40.8208 50.7645 39.9703 53.1058 41.5649C54.3829 42.4154 55.1279 44.1163 55.0215 45.6045C54.5958 49.0063 50.7645 50.6009 48.1038 48.6874C46.401 47.4117 45.7625 45.1793 46.6139 43.3721Z" fill="#26374A"/>
<path d="M74.4982 26.7886L75.9881 23.9183C76.201 23.4931 75.9881 23.0679 75.6689 22.7489L73.6468 21.367C73.8596 20.6228 73.8596 19.8787 73.8596 19.2408L76.0946 18.1778C76.5203 17.9652 76.7331 17.6463 76.5203 17.1147L75.5624 14.0318C75.456 13.6066 75.0303 13.394 74.6046 13.394L72.1568 13.9255C71.7311 13.2877 71.3054 12.7562 70.7733 12.3309L71.6247 9.99219C71.7311 9.56696 71.6247 9.14174 71.199 8.92912L68.4319 7.44084C68.0062 7.22823 67.5805 7.44083 67.3677 7.75975L65.9841 9.77959C65.2392 9.56698 64.4942 9.56697 63.8556 9.56697L62.7914 7.12194C62.5785 6.69671 62.2592 6.48407 61.7271 6.69669L58.6408 7.65347C58.2151 7.75977 58.0022 8.18499 58.0022 8.61022L58.4279 11.0553C57.7894 11.4805 57.2572 11.9057 56.8315 12.4373L54.4902 11.5868C54.0645 11.4805 53.6387 11.5868 53.4259 12.012L51.9359 14.8823C51.7231 15.3075 51.8295 15.839 52.2552 16.0517L54.2773 17.4336C54.0645 18.1778 54.0645 18.9219 54.0645 19.5598L51.8295 20.6228C51.4038 20.8354 51.191 21.1543 51.4038 21.6859L52.3616 24.7688C52.4681 25.194 52.8938 25.4066 53.3195 25.4066L55.7673 24.9814C56.193 25.6192 56.6187 26.1508 57.1508 26.576L56.2994 28.9147C56.193 29.34 56.2994 29.7652 56.7251 29.9778L59.4922 31.4661C59.9179 31.6787 60.3436 31.4661 60.6628 31.1471L62.0464 29.1273C62.7914 29.3399 63.5363 29.3399 64.1749 29.3399L65.2392 31.5724C65.452 31.9976 65.7713 32.2102 66.3034 31.9976L69.3898 31.0409C69.8155 30.9345 70.0283 30.5093 70.0283 30.0841L69.6026 27.7454C70.2412 27.3201 70.7733 26.8949 71.199 26.3634L73.5404 27.2138C73.7532 27.3201 74.2853 27.1075 74.4982 26.7886ZM67.4741 20.8354C66.5163 22.9616 64.0685 23.7057 62.0464 22.5364C60.45 21.5796 59.8114 19.4535 60.5564 17.7526C61.5143 15.6264 63.962 14.8823 65.9841 16.0517C67.5805 17.1147 68.2191 19.1345 67.4741 20.8354Z" fill="#26374A"/>
<path d="M85.6715 125.335H73.3262V128.099H85.6715V125.335Z" fill="#26374A"/>
<path d="M70.7729 125.335V129.375C70.7729 130.119 71.305 130.65 72.05 130.65H86.9496C87.6946 130.65 88.2267 130.119 88.2267 129.375V125.335H128.349C127.711 129.906 123.773 133.414 119.09 133.414H39.9094C35.1203 133.414 31.2889 129.906 30.6504 125.335H70.7729Z" fill="#26374A"/>
<path d="M43.3142 70.9053H115.684C116.429 70.9053 116.961 71.4368 116.961 72.181V122.783H42.0371V72.181C42.0371 71.4368 42.5692 70.9053 43.3142 70.9053Z" fill="#B5E1F9"/>
<path d="M116.961 73.2446C116.961 72.5005 116.429 71.9689 115.684 71.9689H43.3144C42.5694 71.9689 42.0372 72.5005 42.0372 73.2446V122.783H37.4609V71.0121C37.4609 69.0986 38.9509 67.6104 40.8666 67.6104H118.132C120.047 67.6104 121.537 69.0986 121.537 71.0121V122.783H116.961V73.2446V73.2446Z" fill="#26374A"/>
<path d="M78.4353 84.2998C78.2224 84.2998 78.116 84.2998 77.9031 84.2998C76.4132 84.5124 75.4553 85.8944 75.6682 87.3827L78.9674 108.857C78.9674 110.132 79.9252 111.089 81.2023 111.089H81.628C83.3308 111.089 84.5015 109.707 84.2887 108.006L80.9895 86.5323C80.7766 85.2566 79.7124 84.2998 78.4353 84.2998Z" fill="#26374A"/>
<path d="M89.6103 87.8076C88.9718 87.9139 88.3332 88.2328 87.8011 88.8706C86.9497 90.04 87.1625 91.7409 88.3332 92.5913L95.038 97.5877L88.3332 102.69C88.4396 102.584 88.3332 102.69 88.3332 102.69C87.2689 103.541 86.9497 105.136 87.6946 106.305C88.0139 106.73 88.4396 106.943 88.9718 106.943H91.526L100.998 99.7139C101.636 99.1823 102.169 98.4382 101.849 97.0562C101.636 96.3121 101.211 95.6742 100.572 95.249L91.4195 88.3391C90.9938 87.8076 90.2489 87.7012 89.6103 87.8076Z" fill="#26374A"/>
<path d="M70.24 87.8083C69.6014 87.702 68.8564 87.9146 68.2179 88.3399L58.6396 95.5688C58.4267 95.6751 58.2138 95.8877 58.1074 96.1003C58.1074 97.9075 59.2781 100.353 60.7681 101.522L69.1757 107.9C70.24 108.751 71.8363 107.9 71.8363 106.518C71.8363 104.711 70.6657 102.266 69.1757 101.097L64.7058 97.6949L71.4106 92.6985C72.5813 91.848 72.7942 90.1471 71.9428 88.9777C71.6235 88.2336 70.9849 87.9146 70.24 87.8083Z" fill="#26374A"/>
<path d="M375.682 0.53125H468.06H476.467H517.228C524.253 0.53125 529.893 6.16548 529.893 13.1817V133.733C529.893 140.749 524.253 146.384 517.228 146.384H503.074H490.622L467.847 169.133V146.384H455.927H448.903H375.682C368.658 146.384 363.018 140.749 363.018 133.733V13.1817C363.018 6.27178 368.658 0.53125 375.682 0.53125Z" fill="#B2E3FF"/>
<path d="M436.983 191.883C446.975 191.883 455.075 183.506 455.075 173.173C455.075 162.84 446.975 154.463 436.983 154.463C426.991 154.463 418.891 162.84 418.891 173.173C418.891 183.506 426.991 191.883 436.983 191.883Z" fill="#26374A"/>
<path d="M411.654 212.187C412.612 201.025 421.658 196.241 432.62 196.241H441.134C452.202 196.241 461.142 201.025 462.1 212.187H462.206V235.256H411.441L411.654 212.187Z" fill="#26374A"/>
<path d="M464.549 40.7154C471.014 40.7154 476.255 35.2895 476.255 28.5965C476.255 21.9034 471.014 16.4775 464.549 16.4775C458.083 16.4775 452.842 21.9034 452.842 28.5965C452.842 35.2895 458.083 40.7154 464.549 40.7154Z" fill="#26374A"/>
<path d="M448.266 53.6848C448.904 46.4559 454.651 43.373 461.782 43.373H467.316C474.446 43.373 480.193 46.4559 480.832 53.6848H480.938V68.5677H448.266V53.6848Z" fill="#26374A"/>
<path d="M428.258 40.7154C434.723 40.7154 439.964 35.2895 439.964 28.5965C439.964 21.9034 434.723 16.4775 428.258 16.4775C421.792 16.4775 416.551 21.9034 416.551 28.5965C416.551 35.2895 421.792 40.7154 428.258 40.7154Z" fill="#26374A"/>
<path d="M411.975 53.6848C412.613 46.4559 418.36 43.373 425.491 43.373H431.025C438.155 43.373 443.902 46.4559 444.541 53.6848H444.647V68.5677H411.975V53.6848Z" fill="#26374A"/>
<path d="M482.64 97.9077C489.106 97.9077 494.347 92.482 494.347 85.7889C494.347 79.0958 489.106 73.6699 482.64 73.6699C476.175 73.6699 470.934 79.0958 470.934 85.7889C470.934 92.482 476.175 97.9077 482.64 97.9077Z" fill="#26374A"/>
<path d="M466.357 110.877C466.996 103.648 472.743 100.565 479.873 100.565H485.408C492.538 100.565 498.285 103.648 498.924 110.877H499.03V125.76H466.357V110.877Z" fill="#26374A"/>
<path d="M446.351 97.9077C452.817 97.9077 458.058 92.482 458.058 85.7889C458.058 79.0958 452.817 73.6699 446.351 73.6699C439.886 73.6699 434.645 79.0958 434.645 85.7889C434.645 92.482 439.886 97.9077 446.351 97.9077Z" fill="#26374A"/>
<path d="M430.174 110.877C430.812 103.648 436.559 100.565 443.69 100.565H449.224C456.355 100.565 462.102 103.648 462.74 110.877H462.846V125.76H430.174V110.877Z" fill="#26374A"/>
<path d="M410.166 97.9077C416.631 97.9077 421.873 92.482 421.873 85.7889C421.873 79.0958 416.631 73.6699 410.166 73.6699C403.7 73.6699 398.459 79.0958 398.459 85.7889C398.459 92.482 403.7 97.9077 410.166 97.9077Z" fill="#26374A"/>
<path d="M393.882 110.877C394.52 103.648 400.267 100.565 407.398 100.565H412.932C420.063 100.565 425.81 103.648 426.448 110.877H426.554V125.76H393.775L393.882 110.877Z" fill="#26374A"/>
<path d="M335.879 0.53125H243.501H235.094H194.333C187.309 0.53125 181.668 6.16548 181.668 13.1817V133.733C181.668 140.749 187.309 146.384 194.333 146.384H208.487H220.939L243.714 169.133V146.384H255.634H262.658H335.772C342.797 146.384 348.437 140.749 348.437 133.733V13.1817C348.543 6.27178 342.797 0.53125 335.879 0.53125Z" fill="#B2E3FF"/>
<path d="M274.577 191.883C284.569 191.883 292.669 183.506 292.669 173.173C292.669 162.84 284.569 154.463 274.577 154.463C264.585 154.463 256.484 162.84 256.484 173.173C256.484 183.506 264.585 191.883 274.577 191.883Z" fill="#26374A"/>
<path d="M299.8 212.187C298.842 201.025 289.796 196.241 278.834 196.241H270.32C259.252 196.241 250.312 201.025 249.354 212.187H249.248V235.256H300.013L299.8 212.187Z" fill="#26374A"/>
<path d="M318.958 60.913C318.745 60.913 318.638 60.913 318.426 60.913C319.916 57.1923 320.66 53.1527 320.66 48.9004C320.66 30.722 305.974 16.0518 287.775 16.0518C271.705 16.0518 258.401 27.5328 255.528 42.8409C251.909 41.0337 247.865 39.9707 243.608 39.9707C230.837 39.9707 220.301 49.0067 217.853 61.0193C216.895 60.913 215.938 60.8067 214.98 60.8067C201.144 60.8067 189.863 72.0752 189.863 85.895C189.863 99.7148 201.144 110.983 214.98 110.983H318.958C332.793 110.983 344.074 99.7148 344.074 85.895C343.968 72.1815 332.793 60.913 318.958 60.913Z" fill="white"/>
<path d="M253.718 60.7002H300.332C301.29 60.7002 302.035 61.4443 302.035 62.4011V91.7416C302.035 92.6984 301.29 93.4426 300.332 93.4426H253.718C252.76 93.4426 252.015 92.6984 252.015 91.7416V62.4011C251.908 61.4443 252.76 60.7002 253.718 60.7002ZM271.491 75.6894L257.655 90.0407H296.075L282.346 75.7957L277.876 78.5597C277.344 78.8786 276.599 78.9849 275.961 78.5597L271.491 75.6894ZM255.421 87.3831L268.511 73.7759L255.421 65.484V87.3831ZM285.326 73.8822L298.523 87.5957V65.5903L285.326 73.8822ZM259.678 64.102L277.025 75.0515L294.266 64.102H259.678Z" fill="#26374A"/>
<path d="M244.779 70.1611H235.52C234.775 70.1611 234.137 70.799 234.137 71.5431C234.137 72.2872 234.775 72.9251 235.52 72.9251H244.779C245.524 72.9251 246.163 72.2872 246.163 71.5431C246.056 70.799 245.418 70.1611 244.779 70.1611Z" fill="#26374A"/>
<path d="M244.779 78.4531H230.944C230.199 78.4531 229.561 79.0909 229.561 79.8351C229.561 80.5792 230.199 81.2171 230.944 81.2171H244.779C245.524 81.2171 246.163 80.5792 246.163 79.8351C246.056 79.0909 245.418 78.4531 244.779 78.4531Z" fill="#26374A"/>
<path d="M244.779 87.2764H226.261C225.516 87.2764 224.877 87.9143 224.877 88.6584C224.877 89.4025 225.516 90.0404 226.261 90.0404H244.779C245.524 90.0404 246.162 89.4025 246.162 88.6584C246.162 87.9143 245.417 87.2764 244.779 87.2764Z" fill="#26374A"/>
</svg>
