<svg width="481" height="442" viewBox="0 0 481 442" fill="none" xmlns="http://www.w3.org/2000/svg">
<path d="M397.576 214.381V338.68L448.507 312.205V238.837L397.576 214.381Z" fill="#B2E3FF"/>
<path d="M377.158 223.581V328.471L387.367 324.433V227.619L377.158 223.581Z" fill="#B2E3FF"/>
<path d="M361.902 230.648V321.404L369.979 318.599V233.34L361.902 230.648Z" fill="#B2E3FF"/>
<path d="M350.684 236.818V315.234L355.732 314.561V237.491L350.684 236.818Z" fill="#B2E3FF"/>
<path d="M387.367 219.43V227.619V324.433V332.622L397.576 338.68V214.381L387.367 219.43Z" fill="#26374A"/>
<path d="M369.979 233.34V318.599V325.442L377.158 328.471V223.581L369.979 227.619V233.34Z" fill="#26374A"/>
<path d="M355.732 237.491V314.561V318.263L361.902 321.404V230.648L355.732 234.799V237.491Z" fill="#26374A"/>
<path d="M345.523 312.205L350.684 315.234V236.818L345.523 238.837V312.205Z" fill="#26374A"/>
<path d="M14.584 329.369C14.584 344.401 26.8119 356.629 41.8444 356.629H154.588C169.621 356.629 181.848 344.401 181.848 329.369C181.848 314.336 169.621 302.108 154.588 302.108C153.466 302.108 152.457 302.221 151.447 302.333C148.867 289.319 137.312 279.447 123.513 279.447C118.802 279.447 114.427 280.569 110.612 282.589C107.471 266.098 92.9997 253.533 75.4992 253.533C55.7551 253.533 39.8251 269.463 39.8251 289.207C39.8251 293.807 40.7226 298.182 42.2931 302.22C42.0688 302.22 41.9566 302.22 41.7322 302.22C26.8119 302.22 14.584 314.336 14.584 329.369Z" fill="#26374A"/>
<path d="M57.1017 305.361H66.0763L75.9484 336.885H67.9834L66.1885 329.593H56.8773L55.0824 336.885H47.3418L57.1017 305.361ZM58.3357 323.759H64.7301L64.057 321.067C63.2717 317.926 62.3743 314.224 61.589 310.97H61.3646C60.5794 314.224 59.7941 318.038 58.8966 321.067L58.3357 323.759Z" fill="white"/>
<path d="M76.2852 305.362H83.9136L85.9329 319.833C86.3816 323.199 86.7181 326.452 87.0547 329.93H87.2791C87.84 326.452 88.5131 323.199 89.074 319.833L92.3273 305.362H98.8339L102.087 319.721C102.76 322.862 103.321 326.34 103.882 329.818H104.106C104.443 326.34 104.892 322.974 105.228 319.721L107.36 305.25H114.539L108.93 336.773H99.3948L96.5902 323.087C96.0293 320.619 95.6928 318.151 95.4684 315.57H95.244C94.9075 318.038 94.5709 320.506 94.01 323.087L91.3176 336.885H81.8943L76.2852 305.362Z" fill="white"/>
<path d="M116.783 332.846L120.71 327.91C122.953 329.817 125.982 330.939 128.675 330.939C131.479 330.939 132.825 329.929 132.825 328.135C132.825 326.34 131.143 325.667 128.338 324.545L124.299 322.75C120.934 321.404 117.905 318.711 117.905 314.112C117.905 308.839 122.617 304.576 129.348 304.576C133.162 304.576 136.864 306.035 139.556 308.503L135.63 313.439C133.498 311.98 131.367 311.083 129.348 311.083C126.992 311.083 125.533 311.98 125.533 313.663C125.533 315.458 127.553 316.131 130.357 317.253L134.284 318.823C138.21 320.394 140.566 322.974 140.566 327.349C140.566 332.622 136.191 337.221 128.562 337.221C124.299 337.446 120.037 335.987 116.783 332.846Z" fill="white"/>
<path d="M75.2754 379.851C75.2754 376.037 77.5191 373.793 80.548 373.793C82.0064 373.793 83.1282 374.466 83.8013 375.251L83.016 376.149C82.3429 375.476 81.6698 375.139 80.6602 375.139C78.4165 375.139 76.9581 376.934 76.9581 379.851C76.9581 382.768 78.3043 384.675 80.548 384.675C81.6698 384.675 82.5673 384.226 83.2404 383.441L84.0257 384.338C83.1282 385.46 81.8942 386.021 80.4358 386.021C77.4069 385.909 75.2754 383.665 75.2754 379.851Z" fill="black"/>
<path d="M86.0449 384.002V373.008H87.5033V384.114C87.5033 384.563 87.7277 384.787 87.952 384.787C88.0642 384.787 88.0642 384.787 88.2886 384.787L88.5129 385.909C88.2886 386.021 88.0642 386.021 87.6155 386.021C86.4937 385.909 86.0449 385.236 86.0449 384.002Z" fill="black"/>
<path d="M89.9707 381.309C89.9707 378.393 91.8778 376.71 94.0093 376.71C96.1408 376.71 98.0479 378.393 98.0479 381.309C98.0479 384.226 96.1408 385.909 94.0093 385.909C91.8778 385.909 89.9707 384.226 89.9707 381.309ZM96.4773 381.309C96.4773 379.29 95.4677 377.944 94.0093 377.944C92.5509 377.944 91.5413 379.29 91.5413 381.309C91.5413 383.329 92.5509 384.675 94.0093 384.675C95.4677 384.675 96.4773 383.329 96.4773 381.309Z" fill="black"/>
<path d="M100.18 382.543V376.934H101.638V382.319C101.638 383.889 102.087 384.675 103.321 384.675C104.218 384.675 104.779 384.226 105.677 383.216V376.934H107.135V385.684H105.901L105.789 384.338C105.004 385.236 104.106 385.909 102.872 385.909C100.965 385.909 100.18 384.787 100.18 382.543Z" fill="black"/>
<path d="M109.49 381.309C109.49 378.505 111.285 376.71 113.304 376.71C114.314 376.71 114.987 377.046 115.772 377.719L115.66 376.261V372.896H117.119V385.684H115.885L115.772 384.675C115.099 385.348 114.202 385.909 113.08 385.909C110.836 385.909 109.49 384.226 109.49 381.309ZM115.66 383.441V378.841C114.875 378.168 114.314 377.944 113.529 377.944C112.183 377.944 111.061 379.29 111.061 381.309C111.061 383.441 111.958 384.675 113.417 384.675C114.202 384.675 114.875 384.226 115.66 383.441Z" fill="black"/>
<path d="M58.4473 392.976H59.9056V404.755H58.4473V392.976Z" fill="black"/>
<path d="M63.0469 396.005H64.2809L64.3931 397.239C65.1783 396.454 66.0758 395.781 67.3098 395.781C69.1047 395.781 70.0022 397.015 70.0022 399.146V404.643H68.5438V399.258C68.5438 397.576 68.0951 396.903 66.8611 396.903C65.9636 396.903 65.4027 397.351 64.5052 398.249V404.531H63.0469V396.005Z" fill="black"/>
<path d="M73.0309 402.063V397.239H71.7969V396.117L73.1431 396.005L73.3674 393.201H74.6014V396.005H76.9573V397.239H74.6014V402.063C74.6014 403.073 74.938 403.746 75.9476 403.746C76.2842 403.746 76.6207 403.746 76.9573 403.522L77.2938 404.531C76.8451 404.756 76.2842 404.868 75.6111 404.868C73.704 404.98 73.0309 403.858 73.0309 402.063Z" fill="black"/>
<path d="M77.9668 400.38C77.9668 397.576 79.8739 395.781 81.8932 395.781C84.1368 395.781 85.3709 397.351 85.3709 399.932C85.3709 400.268 85.3709 400.492 85.2587 400.829H79.4252C79.5374 402.624 80.6592 403.858 82.3419 403.858C83.2394 403.858 83.9125 403.634 84.5856 403.185L85.1465 404.082C84.3612 404.643 83.4638 404.98 82.2297 404.98C79.8739 404.98 77.9668 403.297 77.9668 400.38ZM84.1368 399.707C84.1368 398.024 83.3516 397.015 82.0054 397.015C80.7714 397.015 79.7617 398.024 79.5374 399.707H84.1368Z" fill="black"/>
<path d="M86.7168 406.438C86.7168 405.653 87.1655 404.98 87.9508 404.419V404.306C87.5021 404.082 87.1655 403.521 87.1655 402.848C87.1655 402.063 87.6143 401.502 88.063 401.278V401.165C87.5021 400.717 86.9412 399.819 86.9412 398.81C86.9412 396.902 88.3995 395.668 90.1945 395.668C90.6432 395.668 91.0919 395.781 91.4285 395.893H94.4574V397.015H92.6625C93.1112 397.463 93.3356 398.024 93.3356 398.81C93.3356 400.717 91.8772 401.838 90.1945 401.838C89.7457 401.838 89.297 401.726 88.8483 401.502C88.5117 401.726 88.2873 402.063 88.2873 402.512C88.2873 403.072 88.6239 403.409 89.8579 403.409H91.5406C93.5599 403.409 94.5696 404.082 94.5696 405.54C94.5696 407.223 92.8868 408.569 90.1945 408.569C88.1752 408.794 86.7168 408.009 86.7168 406.438ZM93.3356 405.989C93.3356 405.204 92.7747 404.867 91.5406 404.867H90.0823C89.7457 404.867 89.297 404.867 88.9605 404.755C88.2874 405.204 88.063 405.765 88.063 406.214C88.063 407.111 88.9605 407.672 90.6432 407.672C92.2138 407.784 93.3356 406.887 93.3356 405.989ZM92.2137 398.922C92.2137 397.688 91.4285 396.902 90.4188 396.902C89.4092 396.902 88.6239 397.688 88.6239 398.922C88.6239 400.156 89.5214 400.941 90.4188 400.941C91.3163 400.941 92.2137 400.268 92.2137 398.922Z" fill="black"/>
<path d="M96.4766 396.005H97.7106L97.8228 397.576C98.3837 396.454 99.2811 395.781 100.291 395.781C100.74 395.781 100.964 395.781 101.188 396.005L100.852 397.239C100.627 397.127 100.403 397.127 100.066 397.127C99.2811 397.127 98.4959 397.688 97.8228 399.146V404.755H96.4766V396.005Z" fill="black"/>
<path d="M101.75 402.512C101.75 400.605 103.321 399.595 107.135 399.259C107.135 398.137 106.798 397.127 105.34 397.127C104.33 397.127 103.433 397.576 102.76 398.025L102.199 397.015C102.984 396.454 104.218 395.893 105.676 395.893C107.808 395.893 108.705 397.351 108.705 399.483V404.868H107.471L107.359 403.858C106.574 404.531 105.564 405.092 104.442 405.092C102.76 404.98 101.75 404.082 101.75 402.512ZM107.023 402.624V400.268C104.106 400.605 103.096 401.278 103.096 402.4C103.096 403.409 103.769 403.746 104.555 403.746C105.564 403.746 106.237 403.409 107.023 402.624Z" fill="black"/>
<path d="M111.286 402.063V397.239H109.939V396.117L111.286 396.005L111.51 393.201H112.744V396.005H115.1V397.239H112.744V402.063C112.744 403.073 113.081 403.746 114.09 403.746C114.427 403.746 114.763 403.746 115.1 403.522L115.436 404.531C114.988 404.756 114.427 404.868 113.754 404.868C111.959 404.98 111.286 403.858 111.286 402.063Z" fill="black"/>
<path d="M116.895 393.313C116.895 392.752 117.343 392.303 117.904 392.303C118.465 392.303 118.914 392.752 118.914 393.313C118.914 393.874 118.465 394.322 117.904 394.322C117.343 394.322 116.895 393.874 116.895 393.313ZM117.119 396.005H118.577V404.755H117.119V396.005Z" fill="black"/>
<path d="M120.934 400.38C120.934 397.464 122.841 395.781 124.972 395.781C127.104 395.781 129.011 397.464 129.011 400.38C129.011 403.297 127.104 404.98 124.972 404.98C122.841 404.98 120.934 403.297 120.934 400.38ZM127.44 400.38C127.44 398.361 126.431 397.015 124.972 397.015C123.514 397.015 122.504 398.361 122.504 400.38C122.504 402.4 123.514 403.746 124.972 403.746C126.431 403.746 127.44 402.4 127.44 400.38Z" fill="black"/>
<path d="M131.254 396.005H132.488L132.6 397.239C133.385 396.454 134.283 395.781 135.517 395.781C137.312 395.781 138.209 397.015 138.209 399.146V404.643H136.863V399.258C136.863 397.576 136.414 396.903 135.18 396.903C134.283 396.903 133.722 397.351 132.824 398.249V404.531H131.254V396.005Z" fill="black"/>
<path d="M355.731 353.488H357.19V359.321L362.014 353.488H363.696L359.994 357.975L364.257 365.267H362.574L359.097 359.209L357.077 361.565V365.267H355.619V353.488H355.731Z" fill="black"/>
<path d="M365.604 362.126V356.629H367.062V362.014C367.062 363.584 367.511 364.37 368.745 364.37C369.642 364.37 370.203 363.921 371.1 362.911V356.741H372.559V365.491H371.325L371.213 364.145C370.427 365.043 369.53 365.716 368.296 365.716C366.389 365.491 365.604 364.257 365.604 362.126Z" fill="black"/>
<path d="M376.822 364.369L376.597 365.267H375.363V352.478H376.822V355.956V357.526C377.607 356.853 378.617 356.292 379.514 356.292C381.758 356.292 382.992 358.087 382.992 360.78C382.992 363.808 381.197 365.491 379.178 365.491C378.504 365.491 377.607 365.042 376.822 364.369ZM381.646 360.78C381.646 358.872 380.972 357.638 379.402 357.638C378.617 357.638 377.943 358.087 377.046 358.872V363.472C377.831 364.145 378.617 364.369 379.178 364.369C380.524 364.257 381.646 362.911 381.646 360.78Z" fill="black"/>
<path d="M384.787 360.891C384.787 358.087 386.694 356.292 388.714 356.292C390.957 356.292 392.191 357.863 392.191 360.443C392.191 360.779 392.191 361.004 392.079 361.34H386.245C386.358 363.135 387.48 364.369 389.162 364.369C390.06 364.369 390.733 364.145 391.406 363.696L391.967 364.594C391.182 365.154 390.284 365.491 389.05 365.491C386.582 365.491 384.787 363.808 384.787 360.891ZM390.845 360.106C390.845 358.423 390.06 357.414 388.714 357.414C387.48 357.414 386.47 358.423 386.245 360.106H390.845Z" fill="black"/>
<path d="M394.323 356.516H395.557L395.669 358.087C396.23 356.965 397.128 356.292 398.137 356.292C398.586 356.292 398.81 356.292 399.035 356.516L398.698 357.75C398.474 357.638 398.25 357.638 397.913 357.638C397.128 357.638 396.342 358.199 395.669 359.657V365.267H394.211V356.516H394.323Z" fill="black"/>
<path d="M400.605 356.516H401.839L401.952 357.75C402.737 356.965 403.634 356.292 404.868 356.292C406.663 356.292 407.561 357.526 407.561 359.657V365.154H406.102V359.77C406.102 358.087 405.654 357.414 404.42 357.414C403.522 357.414 402.961 357.863 402.064 358.76V365.042H400.605V356.516Z" fill="black"/>
<path d="M409.805 360.891C409.805 358.087 411.712 356.292 413.731 356.292C415.975 356.292 417.209 357.863 417.209 360.443C417.209 360.779 417.209 361.004 417.097 361.34H411.263C411.375 363.135 412.497 364.369 414.18 364.369C415.077 364.369 415.75 364.145 416.424 363.696L416.984 364.594C416.199 365.154 415.302 365.491 414.068 365.491C411.6 365.491 409.805 363.808 409.805 360.891ZM415.863 360.106C415.863 358.423 415.077 357.414 413.731 357.414C412.497 357.414 411.487 358.423 411.263 360.106H415.863Z" fill="black"/>
<path d="M419.34 362.574V357.75H417.994V356.629L419.34 356.516L419.565 353.712H420.799V356.516H423.155V357.75H420.799V362.574C420.799 363.584 421.135 364.257 422.145 364.257C422.481 364.257 422.818 364.257 423.155 364.033L423.491 365.042C423.042 365.267 422.481 365.379 421.808 365.379C420.013 365.491 419.34 364.257 419.34 362.574Z" fill="black"/>
<path d="M424.275 360.891C424.275 358.087 426.183 356.292 428.202 356.292C430.445 356.292 431.679 357.863 431.679 360.443C431.679 360.779 431.679 361.004 431.567 361.34H425.734C425.846 363.135 426.968 364.369 428.651 364.369C429.548 364.369 430.221 364.145 430.894 363.696L431.455 364.594C430.67 365.154 429.772 365.491 428.538 365.491C426.182 365.491 424.275 363.808 424.275 360.891ZM430.445 360.106C430.445 358.423 429.66 357.414 428.314 357.414C427.08 357.414 426.07 358.423 425.846 360.106H430.445Z" fill="black"/>
<path d="M432.914 364.257L433.587 363.36C434.372 364.033 435.158 364.257 436.167 364.257C437.289 364.257 437.85 363.696 437.85 362.911C437.85 362.014 436.84 361.677 435.943 361.228C434.597 360.78 433.363 360.107 433.363 358.648C433.363 357.302 434.485 356.18 436.392 356.18C437.514 356.18 438.411 356.629 439.084 357.19L438.411 358.087C437.85 357.639 437.177 357.414 436.392 357.414C435.27 357.414 434.821 357.975 434.821 358.648C434.821 359.433 435.606 359.77 436.616 360.107C437.962 360.555 439.309 361.228 439.309 362.799C439.309 364.257 438.187 365.379 436.167 365.379C434.821 365.491 433.699 365.043 432.914 364.257Z" fill="black"/>
<path d="M352.479 372.559H355.395C358.985 372.559 361.004 374.69 361.004 378.392C361.004 382.094 359.097 384.338 355.507 384.338H352.479V372.559ZM355.395 383.104C358.088 383.104 359.546 381.421 359.546 378.392C359.546 375.475 358.2 373.793 355.395 373.793H354.049V383.104H355.395Z" fill="black"/>
<path d="M362.799 379.963C362.799 377.158 364.706 375.363 366.725 375.363C368.969 375.363 370.203 376.934 370.203 379.514C370.203 379.851 370.203 380.075 370.091 380.412H364.257C364.369 382.206 365.491 383.44 367.174 383.44C368.071 383.44 368.744 383.216 369.418 382.767L369.979 383.665C369.193 384.226 368.296 384.562 367.062 384.562C364.594 384.562 362.799 382.88 362.799 379.963ZM368.857 379.177C368.857 377.495 368.071 376.485 366.725 376.485C365.491 376.485 364.482 377.495 364.257 379.177H368.857Z" fill="black"/>
<path d="M372.334 375.588H373.568L373.68 376.597C374.465 375.924 375.475 375.363 376.485 375.363C378.728 375.363 379.962 377.158 379.962 379.851C379.962 382.767 378.167 384.562 376.148 384.562C375.363 384.562 374.578 384.226 373.792 383.553V385.123V388.04H372.334V375.588ZM378.392 379.851C378.392 377.943 377.719 376.709 376.148 376.709C375.363 376.709 374.69 377.158 373.792 377.943V382.543C374.578 383.216 375.363 383.44 375.924 383.44C377.382 383.328 378.392 381.982 378.392 379.851Z" fill="black"/>
<path d="M382.318 382.543V371.549H383.777V382.655C383.777 383.104 384.001 383.328 384.225 383.328C384.338 383.328 384.338 383.328 384.562 383.328L384.786 384.45C384.562 384.562 384.338 384.562 383.889 384.562C382.767 384.562 382.318 383.889 382.318 382.543Z" fill="black"/>
<path d="M386.246 379.963C386.246 377.046 388.153 375.363 390.285 375.363C392.416 375.363 394.323 377.046 394.323 379.963C394.323 382.88 392.416 384.562 390.285 384.562C388.153 384.562 386.246 382.88 386.246 379.963ZM392.753 379.963C392.753 377.943 391.743 376.597 390.285 376.597C388.826 376.597 387.817 377.943 387.817 379.963C387.817 381.982 388.826 383.328 390.285 383.328C391.743 383.328 392.753 381.982 392.753 379.963Z" fill="black"/>
<path d="M395.669 387.928L396.005 386.806C396.23 386.918 396.454 386.918 396.678 386.918C397.688 386.918 398.249 386.133 398.585 385.123L398.81 384.45L395.332 375.7H396.903L398.698 380.524C399.034 381.309 399.258 382.206 399.595 382.992H399.707C399.932 382.206 400.156 381.309 400.38 380.524L401.951 375.7H403.409L400.156 385.123C399.595 386.806 398.585 388.152 396.903 388.152C396.229 388.152 395.893 388.04 395.669 387.928Z" fill="black"/>
<path d="M404.867 375.588H406.101L406.213 376.822C406.999 376.036 407.896 375.363 408.906 375.363C410.252 375.363 410.925 376.036 411.374 377.046C412.271 376.036 413.169 375.363 414.291 375.363C416.085 375.363 416.983 376.597 416.983 378.729V384.226H415.525V378.841C415.525 377.158 414.964 376.485 413.954 376.485C413.281 376.485 412.608 376.934 411.71 377.831V384.114H410.252V378.729C410.252 377.046 409.803 376.373 408.681 376.373C408.008 376.373 407.335 376.822 406.55 377.719V384.001H405.092V375.588H404.867Z" fill="black"/>
<path d="M419.115 379.963C419.115 377.158 421.022 375.363 423.042 375.363C425.285 375.363 426.519 376.934 426.519 379.514C426.519 379.851 426.519 380.075 426.407 380.412H420.574C420.686 382.206 421.808 383.44 423.49 383.44C424.388 383.44 425.061 383.216 425.734 382.767L426.295 383.665C425.51 384.226 424.612 384.562 423.378 384.562C421.022 384.562 419.115 382.88 419.115 379.963ZM425.285 379.177C425.285 377.495 424.5 376.485 423.154 376.485C421.92 376.485 420.91 377.495 420.686 379.177H425.285Z" fill="black"/>
<path d="M428.65 375.588H429.884L429.997 376.822C430.782 376.036 431.679 375.363 432.913 375.363C434.708 375.363 435.606 376.597 435.606 378.729V384.226H434.147V378.841C434.147 377.158 433.699 376.485 432.465 376.485C431.567 376.485 431.006 376.934 430.109 377.831V384.114H428.65V375.588Z" fill="black"/>
<path d="M438.748 381.646V376.822H437.514V375.7L438.86 375.588L439.084 372.783H440.318V375.588H442.674V376.822H440.318V381.646C440.318 382.655 440.655 383.328 441.664 383.328C442.001 383.328 442.338 383.328 442.674 383.104L443.011 384.114C442.562 384.338 442.001 384.45 441.328 384.45C439.421 384.562 438.748 383.328 438.748 381.646Z" fill="black"/>
<path d="M193.179 146.175H194.637L197.33 153.691C197.554 154.252 197.891 155.374 198.115 156.159H198.227C198.339 154.925 198.564 153.691 198.788 152.457L200.022 146.175H201.368L199.012 157.954H197.442L194.75 150.438C194.525 149.877 194.189 148.867 193.964 147.858H193.852C193.74 149.092 193.516 150.326 193.291 151.56L192.057 157.954H190.711L193.179 146.175Z" fill="black"/>
<path d="M202.041 154.701C202.041 151.448 204.397 149.092 206.753 149.092C208.66 149.092 209.894 150.438 209.894 152.569C209.894 155.823 207.538 158.179 205.182 158.179C203.163 158.179 202.041 156.945 202.041 154.701ZM208.435 152.682C208.435 151.111 207.762 150.214 206.528 150.214C204.958 150.214 203.387 152.233 203.387 154.589C203.387 156.159 204.06 157.057 205.182 157.057C206.865 157.057 208.435 155.037 208.435 152.682Z" fill="black"/>
<path d="M211.802 156.271C211.802 155.934 211.802 155.71 211.914 155.373L212.923 150.437H211.689L211.914 149.427L213.26 149.315L213.933 146.511H215.055L214.494 149.315H216.738L216.513 150.437H214.27L213.26 155.373C213.26 155.598 213.26 155.822 213.26 156.046C213.26 156.719 213.597 157.168 214.27 157.168C214.606 157.168 214.943 157.056 215.167 156.944L215.504 157.841C215.055 158.066 214.494 158.29 213.821 158.29C212.363 158.178 211.802 157.392 211.802 156.271Z" fill="black"/>
<path d="M218.645 149.315H219.991L218.196 158.066H216.85L218.645 149.315ZM218.869 146.623C218.869 146.062 219.318 145.613 219.879 145.613C220.327 145.613 220.776 145.95 220.776 146.399C220.776 146.959 220.327 147.408 219.766 147.408C219.318 147.408 218.869 147.184 218.869 146.623Z" fill="black"/>
<path d="M222.907 150.438H221.785L222.009 149.428L223.131 149.316L223.468 147.857C223.804 146.062 224.814 145.053 226.272 145.053C226.945 145.053 227.394 145.277 227.843 145.501L227.394 146.511C227.17 146.399 226.833 146.287 226.384 146.287C225.599 146.287 225.15 146.96 224.926 147.969L224.589 149.428H226.384L226.16 150.55H224.365L222.907 158.178H221.561L222.907 150.438Z" fill="black"/>
<path d="M224.59 161.543L225.039 160.534C225.263 160.646 225.487 160.646 225.712 160.646C226.609 160.646 227.394 159.861 227.955 158.739L228.292 158.178L226.833 149.315H228.292L228.965 154.139C229.077 154.925 229.189 155.934 229.302 156.607H229.414C229.862 155.822 230.199 154.925 230.648 154.139L233.116 149.315H234.574L229.526 158.739C228.516 160.758 227.394 161.88 225.824 161.88C225.263 161.768 224.926 161.656 224.59 161.543Z" fill="black"/>
<path d="M238.277 152.12C238.277 148.306 240.521 146.062 243.55 146.062C245.008 146.062 246.13 146.736 246.803 147.521L246.018 148.418C245.345 147.745 244.672 147.409 243.662 147.409C241.418 147.409 239.96 149.204 239.96 152.12C239.96 155.037 241.306 156.944 243.55 156.944C244.672 156.944 245.569 156.495 246.242 155.71L247.028 156.608C246.13 157.73 244.896 158.29 243.438 158.29C240.409 158.178 238.277 155.935 238.277 152.12Z" fill="black"/>
<path d="M248.373 153.691C248.373 150.775 250.28 149.092 252.412 149.092C254.543 149.092 256.45 150.775 256.45 153.691C256.45 156.608 254.543 158.291 252.412 158.291C250.28 158.179 248.373 156.496 248.373 153.691ZM254.992 153.691C254.992 151.672 253.982 150.326 252.524 150.326C251.065 150.326 250.056 151.672 250.056 153.691C250.056 155.711 251.065 157.057 252.524 157.057C253.982 156.945 254.992 155.598 254.992 153.691Z" fill="black"/>
<path d="M258.806 149.316H260.04L260.152 150.887C260.713 149.765 261.61 149.092 262.62 149.092C263.068 149.092 263.293 149.092 263.517 149.316L263.181 150.55C262.956 150.438 262.732 150.438 262.395 150.438C261.61 150.438 260.825 150.999 260.152 152.457V158.066H258.693V149.316H258.806Z" fill="black"/>
<path d="M264.191 153.691C264.191 150.887 266.099 149.092 268.118 149.092C270.361 149.092 271.595 150.662 271.595 153.243C271.595 153.579 271.595 153.803 271.483 154.14H265.65C265.762 155.935 266.884 157.169 268.567 157.169C269.464 157.169 270.137 156.945 270.81 156.496L271.371 157.393C270.586 157.954 269.688 158.291 268.454 158.291C265.986 158.179 264.191 156.496 264.191 153.691ZM270.249 152.906C270.249 151.223 269.464 150.214 268.118 150.214C266.884 150.214 265.874 151.223 265.65 152.906H270.249Z" fill="black"/>
<path d="M200.807 175.567L201.704 174.557C202.602 175.455 203.723 176.016 204.957 176.016C206.528 176.016 207.425 175.23 207.425 174.108C207.425 172.874 206.528 172.538 205.518 172.089L203.836 171.304C202.714 170.855 201.48 169.958 201.48 168.275C201.48 166.48 203.05 165.134 205.182 165.134C206.64 165.134 207.874 165.695 208.659 166.592L207.874 167.602C207.201 166.929 206.191 166.48 205.182 166.48C203.836 166.48 203.05 167.153 203.05 168.163C203.05 169.285 204.06 169.733 204.957 170.07L206.64 170.855C207.986 171.416 209.108 172.201 209.108 173.996C209.108 175.903 207.538 177.362 205.07 177.362C203.275 177.25 201.928 176.576 200.807 175.567Z" fill="black"/>
<path d="M210.566 172.762C210.566 169.957 212.474 168.162 214.493 168.162C216.736 168.162 217.97 169.733 217.97 172.313C217.97 172.649 217.97 172.874 217.858 173.21H212.025C212.137 175.005 213.259 176.239 214.942 176.239C215.839 176.239 216.512 176.015 217.185 175.566L217.746 176.464C216.961 177.025 216.063 177.361 214.829 177.361C212.361 177.249 210.566 175.566 210.566 172.762ZM216.624 171.976C216.624 170.294 215.839 169.284 214.493 169.284C213.259 169.284 212.249 170.294 212.025 171.976H216.624Z" fill="black"/>
<path d="M220.102 168.386H221.336L221.449 169.957C222.01 168.835 222.907 168.162 223.917 168.162C224.365 168.162 224.59 168.162 224.814 168.386L224.478 169.62C224.253 169.508 224.029 169.508 223.692 169.508C222.907 169.508 222.122 170.069 221.449 171.528V177.137H219.99V168.386H220.102Z" fill="black"/>
<path d="M225.488 168.387H227.059L228.742 173.323C228.966 174.22 229.302 175.118 229.527 175.903H229.639C229.863 175.005 230.2 174.22 230.424 173.323L232.107 168.387H233.565L230.424 177.137H228.629L225.488 168.387Z" fill="black"/>
<path d="M234.91 165.582C234.91 165.021 235.359 164.572 235.92 164.572C236.481 164.572 236.929 165.021 236.929 165.582C236.929 166.143 236.481 166.592 235.92 166.592C235.359 166.592 234.91 166.143 234.91 165.582ZM235.135 168.386H236.593V177.137H235.135V168.386Z" fill="black"/>
<path d="M238.949 172.762C238.949 169.845 240.856 168.162 243.1 168.162C244.222 168.162 245.007 168.611 245.68 169.172L244.895 170.069C244.446 169.62 243.885 169.396 243.1 169.396C241.529 169.396 240.408 170.742 240.408 172.762C240.408 174.781 241.529 176.127 243.1 176.127C243.885 176.127 244.671 175.791 245.119 175.342L245.792 176.239C245.007 176.912 243.997 177.361 242.988 177.361C240.744 177.249 238.949 175.566 238.949 172.762Z" fill="black"/>
<path d="M246.803 172.762C246.803 169.957 248.71 168.162 250.729 168.162C252.973 168.162 254.207 169.733 254.207 172.313C254.207 172.649 254.207 172.874 254.095 173.21H248.261C248.373 175.005 249.495 176.239 251.178 176.239C252.075 176.239 252.748 176.015 253.422 175.566L253.982 176.464C253.197 177.025 252.3 177.361 251.066 177.361C248.598 177.249 246.803 175.566 246.803 172.762ZM252.861 171.976C252.861 170.294 252.075 169.284 250.729 169.284C249.495 169.284 248.485 170.294 248.261 171.976H252.861Z" fill="black"/>
<path d="M255.328 176.016L256.001 175.118C256.786 175.791 257.572 176.016 258.581 176.016C259.703 176.016 260.264 175.455 260.264 174.669C260.264 173.772 259.255 173.435 258.357 172.987C257.011 172.538 255.777 171.865 255.777 170.406C255.777 169.06 256.899 167.938 258.806 167.938C259.928 167.938 260.825 168.387 261.498 168.948L260.825 169.846C260.264 169.397 259.591 169.172 258.806 169.172C257.684 169.172 257.235 169.733 257.235 170.406C257.235 171.192 258.021 171.528 259.03 171.865C260.376 172.314 261.723 172.987 261.723 174.557C261.723 176.016 260.601 177.137 258.581 177.137C257.347 177.25 256.113 176.801 255.328 176.016Z" fill="black"/>
<path d="M257.46 29.6162H204.958C197.105 29.6162 190.711 36.0106 190.711 43.8634V96.3649C190.711 104.218 197.105 110.612 204.958 110.612H257.46C265.312 110.612 271.707 104.218 271.707 96.3649V43.8634C271.707 36.0106 265.312 29.6162 257.46 29.6162Z" fill="#26374A"/>
<path d="M265.313 96.3651C265.313 100.628 261.835 104.218 257.46 104.218H204.958C200.695 104.218 197.105 100.74 197.105 96.3651V43.8635C197.105 39.6006 200.583 36.0107 204.958 36.0107H257.46C261.723 36.0107 265.313 39.4884 265.313 43.8635V96.3651Z" fill="white" stroke="#26374A" stroke-width="3" stroke-miterlimit="10"/>
<path d="M208.885 32.0839C210.343 32.0839 211.465 30.962 211.465 29.5037V21.9874C211.465 20.5291 210.343 19.4072 208.885 19.4072C207.427 19.4072 206.305 20.5291 206.305 21.9874V29.5037C206.305 30.962 207.427 32.0839 208.885 32.0839Z" fill="#979797"/>
<path d="M223.805 32.0839C225.263 32.0839 226.385 30.962 226.385 29.5037V21.9874C226.385 20.5291 225.263 19.4072 223.805 19.4072C222.346 19.4072 221.225 20.5291 221.225 21.9874V29.5037C221.225 30.962 222.346 32.0839 223.805 32.0839Z" fill="#979797"/>
<path d="M238.725 32.0839C240.183 32.0839 241.305 30.962 241.305 29.5037V21.9874C241.305 20.5291 240.183 19.4072 238.725 19.4072C237.266 19.4072 236.145 20.5291 236.145 21.9874V29.5037C236.145 30.962 237.266 32.0839 238.725 32.0839Z" fill="#979797"/>
<path d="M253.645 32.0839C255.103 32.0839 256.225 30.962 256.225 29.5037V21.9874C256.225 20.5291 255.103 19.4072 253.645 19.4072C252.186 19.4072 251.064 20.5291 251.064 21.9874V29.5037C251.064 30.962 252.186 32.0839 253.645 32.0839Z" fill="#979797"/>
<path d="M208.885 108.144C207.427 108.144 206.305 109.265 206.305 110.724V118.24C206.305 119.698 207.427 120.82 208.885 120.82C210.343 120.82 211.465 119.698 211.465 118.24V110.724C211.465 109.265 210.231 108.144 208.885 108.144Z" fill="#979797"/>
<path d="M223.805 108.144C222.346 108.144 221.225 109.265 221.225 110.724V118.24C221.225 119.698 222.346 120.82 223.805 120.82C225.263 120.82 226.385 119.698 226.385 118.24V110.724C226.385 109.265 225.151 108.144 223.805 108.144Z" fill="#979797"/>
<path d="M238.725 108.144C237.266 108.144 236.145 109.265 236.145 110.724V118.24C236.145 119.698 237.266 120.82 238.725 120.82C240.183 120.82 241.305 119.698 241.305 118.24V110.724C241.305 109.265 240.071 108.144 238.725 108.144Z" fill="#979797"/>
<path d="M253.645 108.144C252.186 108.144 251.064 109.265 251.064 110.724V118.24C251.064 119.698 252.186 120.82 253.645 120.82C255.103 120.82 256.225 119.698 256.225 118.24V110.724C256.225 109.265 254.991 108.144 253.645 108.144Z" fill="#979797"/>
<path d="M271.818 50.3694H279.335C280.793 50.3694 281.915 49.2476 281.915 47.7892C281.915 46.3308 280.793 45.209 279.335 45.209H271.818C270.36 45.209 269.238 46.3308 269.238 47.7892C269.238 49.2476 270.36 50.3694 271.818 50.3694Z" fill="#979797"/>
<path d="M279.335 60.1299H271.818C270.36 60.1299 269.238 61.2517 269.238 62.7101C269.238 64.1685 270.36 65.2903 271.818 65.2903H279.335C280.793 65.2903 281.915 64.1685 281.915 62.7101C281.915 61.2517 280.793 60.1299 279.335 60.1299Z" fill="#979797"/>
<path d="M279.335 75.0498H271.818C270.36 75.0498 269.238 76.1716 269.238 77.63C269.238 79.0884 270.36 80.2102 271.818 80.2102H279.335C280.793 80.2102 281.915 79.0884 281.915 77.63C281.915 76.1716 280.793 75.0498 279.335 75.0498Z" fill="#979797"/>
<path d="M279.335 89.9697H271.818C270.36 89.9697 269.238 91.0916 269.238 92.5499C269.238 94.0083 270.36 95.1301 271.818 95.1301H279.335C280.793 95.1301 281.915 94.0083 281.915 92.5499C281.915 91.0916 280.793 89.9697 279.335 89.9697Z" fill="#979797"/>
<path d="M190.598 45.209H183.082C181.624 45.209 180.502 46.3308 180.502 47.7892C180.502 49.2476 181.624 50.3694 183.082 50.3694H190.598C192.057 50.3694 193.179 49.2476 193.179 47.7892C193.179 46.3308 192.057 45.209 190.598 45.209Z" fill="#979797"/>
<path d="M190.598 60.1299H183.082C181.624 60.1299 180.502 61.2517 180.502 62.7101C180.502 64.1685 181.624 65.2903 183.082 65.2903H190.598C192.057 65.2903 193.179 64.1685 193.179 62.7101C193.179 61.2517 192.057 60.1299 190.598 60.1299Z" fill="#979797"/>
<path d="M190.598 75.0498H183.082C181.624 75.0498 180.502 76.1716 180.502 77.63C180.502 79.0884 181.624 80.2102 183.082 80.2102H190.598C192.057 80.2102 193.179 79.0884 193.179 77.63C193.179 76.1716 192.057 75.0498 190.598 75.0498Z" fill="#979797"/>
<path d="M190.598 89.9697H183.082C181.624 89.9697 180.502 91.0916 180.502 92.5499C180.502 94.0083 181.624 95.1301 183.082 95.1301H190.598C192.057 95.1301 193.179 94.0083 193.179 92.5499C193.179 91.0916 192.057 89.9697 190.598 89.9697Z" fill="#979797"/>
<path d="M251.625 44.6484H210.903C208.098 44.6484 205.742 47.0043 205.742 49.8088V90.5312C205.742 93.3357 208.098 95.6916 210.903 95.6916H251.625C254.43 95.6916 256.785 93.3357 256.785 90.5312V49.8088C256.673 47.0043 254.43 44.6484 251.625 44.6484Z" fill="#B2E3FF" stroke="white" stroke-width="3" stroke-miterlimit="10"/>
<path d="M128 84.9224C126.991 83.6883 125.196 83.5762 124.074 84.5858C85.7075 116.67 62.5978 162.665 59.7933 212.25L52.7258 199.573C51.9405 198.227 50.2577 197.778 48.9115 198.451C47.5653 199.237 47.1166 200.919 47.7897 202.265L59.7933 223.805C59.7933 223.805 59.7933 223.805 59.7933 223.917C59.9054 224.029 60.0176 224.141 60.1298 224.365C60.1298 224.365 60.1298 224.478 60.242 224.478C60.3542 224.59 60.5785 224.814 60.6907 224.926C60.6907 224.926 60.8029 224.926 60.8029 225.039C60.9151 225.151 61.1395 225.151 61.2516 225.263C61.3638 225.263 61.3638 225.263 61.476 225.375C61.5882 225.375 61.8126 225.487 61.9247 225.487H62.0369C62.1491 225.487 62.1491 225.487 62.2613 225.487C62.4857 225.487 62.71 225.487 62.8222 225.375C62.9344 225.375 62.9344 225.375 62.9344 225.375C63.0466 225.375 63.1587 225.263 63.3831 225.263C63.4953 225.263 63.4953 225.151 63.6075 225.151C63.7197 225.039 63.8318 225.039 63.944 224.926C64.0562 224.926 64.0562 224.814 64.0562 224.814C64.1684 224.702 64.2806 224.59 64.3928 224.478L64.5049 224.365L78.64 205.182C79.5374 203.948 79.3131 202.153 78.0791 201.256C76.845 200.358 75.0501 200.583 74.1527 201.817L65.2902 213.82C67.7582 165.357 90.0826 120.26 127.552 88.9609C128.786 87.8391 129.01 86.0442 128 84.9224Z" fill="#26374A"/>
<path d="M333.295 374.802C333.408 374.578 333.408 374.354 333.408 374.129V374.017C333.408 373.905 333.408 373.681 333.408 373.568C333.408 373.456 333.408 373.456 333.408 373.344C333.408 373.232 333.295 373.007 333.295 372.895V372.783C333.295 372.783 333.295 372.783 333.295 372.671V372.559C333.183 372.447 333.183 372.334 333.071 372.222C333.071 372.222 333.071 372.11 332.959 372.11C332.847 371.998 332.622 371.773 332.51 371.661L332.398 371.549C332.286 371.437 332.174 371.437 331.949 371.325C331.837 371.325 331.837 371.325 331.725 371.213C331.613 371.213 331.388 371.1 331.276 371.1H331.164L307.493 368.408C305.923 368.184 304.577 369.305 304.352 370.876C304.128 372.447 305.25 373.793 306.82 374.017L321.741 375.7C278.662 397.912 228.404 401.165 182.522 384.45C181.063 383.889 179.493 384.674 178.932 386.133C178.371 387.591 179.156 389.162 180.615 389.723C200.583 397.015 221.449 400.604 242.203 400.604C270.136 400.604 297.958 394.098 323.311 381.197L315.907 393.649C315.122 394.995 315.57 396.678 316.917 397.463C317.365 397.688 317.814 397.912 318.375 397.912C319.385 397.912 320.282 397.463 320.843 396.566L333.52 375.363C333.52 375.363 333.52 375.363 333.52 375.251C333.632 375.139 333.632 374.915 333.744 374.802C333.295 374.802 333.295 374.802 333.295 374.802Z" fill="#26374A"/>
<path d="M415.412 184.541C405.652 135.517 376.26 93.1119 334.08 66.9733L348.551 66.8611C350.122 66.8611 351.356 65.6271 351.356 64.0565C351.356 62.486 350.122 61.252 348.551 61.252L323.871 61.4763H323.759C323.647 61.4763 323.422 61.4763 323.31 61.5885H323.198C322.974 61.5885 322.749 61.7007 322.637 61.8129C322.637 61.8129 322.525 61.8129 322.525 61.9251C322.413 62.0372 322.3 62.1494 322.076 62.2616L321.964 62.3738C321.852 62.486 321.74 62.5981 321.627 62.7103L321.515 62.8225C321.515 62.8225 321.515 62.8225 321.515 62.9347C321.515 62.9347 321.515 63.0469 321.403 63.0469C321.291 63.1591 321.291 63.2712 321.179 63.4956V63.6078C321.066 63.8322 321.066 64.0565 321.066 64.2809V64.3931C321.066 64.5053 321.066 64.7296 321.066 64.8418C321.066 64.954 321.066 64.954 321.066 65.0662C321.066 65.1784 321.179 65.4027 321.179 65.5149V65.6271L331.275 87.2784C331.724 88.288 332.733 88.8489 333.855 88.8489C334.304 88.8489 334.641 88.7367 334.977 88.6245C336.435 87.9514 336.996 86.2687 336.323 84.9225L330.041 71.3484C371.324 96.7017 400.267 137.985 409.803 185.887C410.027 187.233 411.261 188.131 412.495 188.131C412.72 188.131 412.832 188.131 413.056 188.131C414.739 187.57 415.749 186.111 415.412 184.541Z" fill="#26374A"/>
</svg>
