<svg width="367" height="240" viewBox="0 0 367 240" fill="none" xmlns="http://www.w3.org/2000/svg">
<g filter="url(#filter0_d)">
<path d="M0 15C0 6.71573 6.71573 0 15 0H344C352.284 0 359 6.71573 359 15V232H0V15Z" fill="white"/>
<path d="M0 15C0 6.71573 6.71573 0 15 0H344C352.284 0 359 6.71573 359 15V18H0V15Z" fill="#727272"/>
<path d="M12 64H164V140H12V64Z" fill="#26374A"/>
<path d="M12 144H164V182H12V144Z" fill="#00703C"/>
<path d="M180 64H332V140H180V64Z" fill="#26374A"/>
<path d="M180 144H332V182H180V144Z" fill="#00703C"/>
<path d="M25.6577 88.2532C25.833 87.0331 26.1673 85.9698 26.6606 85.0631C27.1648 84.1565 27.7841 83.4009 28.5185 82.7965C29.2638 82.1921 30.1133 81.7443 31.0669 81.4533C32.0205 81.1511 33.0453 81 34.1414 81C35.3252 81 36.3774 81.1735 37.2981 81.5205C38.2189 81.8563 38.9971 82.3152 39.6328 82.8972C40.2685 83.4793 40.7508 84.1565 41.0797 84.9288C41.4085 85.6899 41.5729 86.4959 41.5729 87.3465C41.5729 88.1189 41.4962 88.8017 41.3427 89.3949C41.1893 89.9769 40.9591 90.4862 40.6522 90.9228C40.3562 91.3481 39.9836 91.7119 39.5342 92.0141C39.0957 92.3051 38.5915 92.5514 38.0216 92.7529C40.6741 93.7043 42.0004 95.5512 42.0004 98.2935C42.0004 99.5919 41.7702 100.722 41.3098 101.685C40.8495 102.648 40.2302 103.448 39.452 104.086C38.6847 104.724 37.7914 105.205 36.772 105.53C35.7527 105.843 34.6894 106 33.5824 106C32.4425 106 31.4286 105.877 30.5407 105.631C29.6529 105.373 28.8637 104.981 28.1732 104.455C27.4826 103.918 26.8743 103.235 26.3482 102.407C25.833 101.579 25.3836 100.594 25 99.452L27.2689 98.5118C27.8608 98.2767 28.4088 98.2151 28.913 98.3271C29.4172 98.439 29.779 98.6964 29.9982 99.0994C30.4914 100.028 31.0121 100.706 31.5601 101.131C32.1191 101.545 32.7713 101.752 33.5166 101.752C34.0866 101.752 34.5798 101.657 34.9963 101.467C35.4238 101.265 35.7746 101.013 36.0486 100.711C36.3336 100.398 36.5473 100.045 36.6898 99.6535C36.8323 99.2617 36.9035 98.8643 36.9035 98.4614C36.9035 97.9353 36.8652 97.4652 36.7885 97.051C36.7227 96.6257 36.5254 96.2619 36.1966 95.9597C35.8677 95.6575 35.369 95.428 34.7004 95.2713C34.0428 95.1034 33.122 95.0195 31.9383 95.0195V91.4265C32.9357 91.4265 33.7413 91.3481 34.3551 91.1914C34.9689 91.0347 35.4403 90.822 35.7691 90.5534C36.1089 90.2736 36.3336 89.9378 36.4432 89.546C36.5528 89.1542 36.6076 88.7233 36.6076 88.2532C36.6076 87.2906 36.3774 86.5518 35.9171 86.0369C35.4677 85.5109 34.7771 85.2478 33.8455 85.2478C33.0892 85.2478 32.4479 85.4549 31.9218 85.869C31.4067 86.272 31.0504 86.7757 30.8531 87.3801C30.6229 87.9957 30.3215 88.4043 29.9489 88.6058C29.5762 88.8073 29.0446 88.852 28.354 88.7401L25.6577 88.2532Z" fill="white"/>
<path d="M53.4505 102.071C54.0205 102.071 54.5137 101.982 54.9302 101.803C55.3467 101.623 55.6865 101.383 55.9496 101.081C56.2236 100.767 56.4209 100.403 56.5415 99.9893C56.673 99.5639 56.7388 99.1106 56.7388 98.6293C56.7388 98.1032 56.684 97.6219 56.5744 97.1854C56.4647 96.7488 56.2839 96.3794 56.0318 96.0772C55.7797 95.7638 55.4399 95.5232 55.0124 95.3553C54.5959 95.1762 54.0753 95.0866 53.4505 95.0866C52.8257 95.0866 52.2996 95.1762 51.8721 95.3553C51.4556 95.5232 51.1213 95.7638 50.8692 96.0772C50.6171 96.3794 50.4362 96.7488 50.3266 97.1854C50.217 97.6219 50.1622 98.1032 50.1622 98.6293C50.1622 99.1106 50.2225 99.5639 50.3431 99.9893C50.4746 100.403 50.6719 100.767 50.935 101.081C51.209 101.383 51.5488 101.623 51.9543 101.803C52.3708 101.982 52.8696 102.071 53.4505 102.071ZM53.4505 84.7945C52.9353 84.7945 52.5024 84.8784 52.1516 85.0463C51.8009 85.2142 51.5104 85.4381 51.2802 85.7179C51.061 85.9866 50.9021 86.3 50.8034 86.6582C50.7048 87.0163 50.6555 87.3857 50.6555 87.7663C50.6555 88.1916 50.6938 88.6058 50.7705 89.0087C50.8473 89.4117 50.9898 89.7699 51.198 90.0833C51.4063 90.3967 51.6913 90.6485 52.053 90.8388C52.4147 91.0291 52.8805 91.1242 53.4505 91.1242C54.0205 91.1242 54.4863 91.0291 54.848 90.8388C55.2097 90.6485 55.4947 90.3967 55.703 90.0833C55.9112 89.7699 56.0537 89.4117 56.1304 89.0087C56.2072 88.6058 56.2455 88.1916 56.2455 87.7663C56.2455 87.3857 56.1962 87.0163 56.0976 86.6582C55.9989 86.3 55.8345 85.9866 55.6043 85.7179C55.3851 85.4381 55.0946 85.2142 54.7329 85.0463C54.3822 84.8784 53.9547 84.7945 53.4505 84.7945ZM57.9719 92.9711C58.6843 93.2286 59.2927 93.5476 59.7969 93.9281C60.312 94.3087 60.7285 94.7452 61.0464 95.2377C61.3752 95.7302 61.6164 96.2731 61.7698 96.8664C61.9233 97.4484 62 98.0696 62 98.73C62 99.827 61.7917 100.823 61.3752 101.719C60.9697 102.614 60.3887 103.381 59.6324 104.019C58.8871 104.646 57.9883 105.133 56.9361 105.48C55.8838 105.827 54.722 106 53.4505 106C52.179 106 51.0172 105.827 49.9649 105.48C48.9127 105.133 48.0084 104.646 47.2521 104.019C46.5068 103.381 45.9258 102.614 45.5093 101.719C45.1038 100.823 44.901 99.827 44.901 98.73C44.901 98.0696 44.9777 97.4484 45.1312 96.8664C45.2846 96.2731 45.5203 95.7302 45.8381 95.2377C46.167 94.7452 46.5835 94.3087 47.0877 93.9281C47.6028 93.5476 48.2167 93.2286 48.9291 92.9711C47.844 92.4674 47.0329 91.7734 46.4958 90.8892C45.9587 89.9937 45.6902 88.9192 45.6902 87.6655C45.6902 86.7141 45.882 85.8355 46.2656 85.0295C46.6492 84.2124 47.1863 83.5073 47.8769 82.914C48.5674 82.3208 49.384 81.8563 50.3266 81.5205C51.2802 81.1735 52.3215 81 53.4505 81C54.5795 81 55.6153 81.1735 56.5579 81.5205C57.5115 81.8563 58.3336 82.3208 59.0241 82.914C59.7147 83.5073 60.2517 84.2124 60.6354 85.0295C61.019 85.8355 61.2108 86.7141 61.2108 87.6655C61.2108 88.9192 60.9423 89.9937 60.4052 90.8892C59.8681 91.7734 59.057 92.4674 57.9719 92.9711Z" fill="white"/>
<path d="M210 93.4916C210 95.6295 209.772 97.482 209.317 99.049C208.861 100.616 208.228 101.914 207.417 102.944C206.617 103.974 205.661 104.741 204.55 105.244C203.45 105.748 202.256 106 200.967 106C199.678 106 198.483 105.748 197.383 105.244C196.294 104.741 195.35 103.974 194.55 102.944C193.75 101.914 193.122 100.616 192.667 99.049C192.222 97.482 192 95.6295 192 93.4916C192 91.3537 192.222 89.5012 192.667 87.9342C193.122 86.3671 193.75 85.0687 194.55 84.039C195.35 83.0092 196.294 82.248 197.383 81.7555C198.483 81.2518 199.678 81 200.967 81C202.256 81 203.45 81.2518 204.55 81.7555C205.661 82.248 206.617 83.0092 207.417 84.039C208.228 85.0687 208.861 86.3671 209.317 87.9342C209.772 89.5012 210 91.3537 210 93.4916ZM204.667 93.4916C204.667 91.8014 204.561 90.4191 204.35 89.3445C204.139 88.2588 203.856 87.4081 203.5 86.7925C203.156 86.1769 202.761 85.7571 202.317 85.5332C201.872 85.2982 201.422 85.1807 200.967 85.1807C200.511 85.1807 200.061 85.2982 199.617 85.5332C199.183 85.7571 198.794 86.1769 198.45 86.7925C198.117 87.4081 197.844 88.2588 197.633 89.3445C197.433 90.4191 197.333 91.8014 197.333 93.4916C197.333 95.193 197.433 96.5809 197.633 97.6555C197.844 98.73 198.117 99.5807 198.45 100.208C198.794 100.823 199.183 101.248 199.617 101.484C200.061 101.707 200.511 101.819 200.967 101.819C201.422 101.819 201.872 101.707 202.317 101.484C202.761 101.248 203.156 100.823 203.5 100.208C203.856 99.5807 204.139 98.73 204.35 97.6555C204.561 96.5809 204.667 95.193 204.667 93.4916Z" fill="white"/>
<path d="M16.859 48H14.292V35.6665H16.859V48ZM21.6944 40.2565C21.8701 40.0865 22.0514 39.9307 22.2384 39.789C22.4311 39.6473 22.6322 39.5255 22.8419 39.4235C23.0572 39.3215 23.2867 39.2422 23.5304 39.1855C23.7797 39.1288 24.0489 39.1005 24.3379 39.1005C24.8139 39.1005 25.2361 39.1827 25.6044 39.347C25.9727 39.5113 26.2816 39.7408 26.5309 40.0355C26.7859 40.3302 26.9757 40.6815 27.1004 41.0895C27.2307 41.4975 27.2959 41.9452 27.2959 42.4325V48H24.9584V42.4325C24.9584 41.9452 24.8451 41.5683 24.6184 41.302C24.3917 41.03 24.0574 40.894 23.6154 40.894C23.2867 40.894 22.9779 40.9648 22.6889 41.1065C22.3999 41.2482 22.1251 41.4465 21.8644 41.7015V48H19.5184V39.2365H20.9634C21.2581 39.2365 21.4536 39.3725 21.5499 39.6445L21.6944 40.2565ZM37.2955 48.136C36.8988 48.136 36.5475 48.0793 36.2415 47.966C35.9355 47.847 35.6777 47.6798 35.468 47.4645C35.2583 47.2492 35.0997 46.9885 34.992 46.6825C34.8843 46.3765 34.8305 46.0308 34.8305 45.6455V40.9195H34.006C33.8813 40.9195 33.7737 40.8798 33.683 40.8005C33.598 40.7212 33.5555 40.6022 33.5555 40.4435V39.5255L34.958 39.2705L35.434 37.001C35.4963 36.746 35.6692 36.6185 35.9525 36.6185H37.1765V39.2875H39.4375V40.9195H37.1765V45.4925C37.1765 45.7362 37.2332 45.9288 37.3465 46.0705C37.4655 46.2122 37.6327 46.283 37.848 46.283C37.9613 46.283 38.0577 46.2717 38.137 46.249C38.2163 46.2207 38.2843 46.1923 38.341 46.164C38.3977 46.13 38.4487 46.1017 38.494 46.079C38.545 46.0507 38.596 46.0365 38.647 46.0365C38.715 46.0365 38.7717 46.0535 38.817 46.0875C38.8623 46.1158 38.9077 46.1668 38.953 46.2405L39.6585 47.3625C39.3355 47.6175 38.97 47.8102 38.562 47.9405C38.154 48.0708 37.7318 48.136 37.2955 48.136ZM43.576 40.095C43.7404 39.9477 43.9104 39.8145 44.086 39.6955C44.2674 39.5708 44.4572 39.466 44.6555 39.381C44.8595 39.2903 45.0749 39.2223 45.3015 39.177C45.5339 39.126 45.7832 39.1005 46.0495 39.1005C46.5255 39.1005 46.9477 39.1827 47.316 39.347C47.6844 39.5113 47.9932 39.7408 48.2425 40.0355C48.4975 40.3302 48.6874 40.6815 48.812 41.0895C48.9424 41.4975 49.0075 41.9452 49.0075 42.4325V48H46.67V42.4325C46.67 41.9452 46.5567 41.5683 46.33 41.302C46.1034 41.03 45.769 40.894 45.327 40.894C44.9984 40.894 44.6895 40.9648 44.4005 41.1065C44.1115 41.2482 43.8367 41.4465 43.576 41.7015V48H41.23V35.3265H43.576V40.095ZM56.9702 42.5855C56.9702 42.3418 56.9362 42.1095 56.8682 41.8885C56.8059 41.6675 56.7039 41.472 56.5622 41.302C56.4206 41.132 56.2421 40.9988 56.0267 40.9025C55.8114 40.8005 55.5536 40.7495 55.2532 40.7495C54.6922 40.7495 54.2531 40.9082 53.9357 41.2255C53.6184 41.5428 53.4116 41.9962 53.3152 42.5855H56.9702ZM53.2812 43.9795C53.3549 44.8012 53.5872 45.4018 53.9782 45.7815C54.3749 46.1612 54.8906 46.351 55.5252 46.351C55.8482 46.351 56.1259 46.3142 56.3582 46.2405C56.5962 46.1612 56.8031 46.0762 56.9787 45.9855C57.1601 45.8892 57.3216 45.8042 57.4632 45.7305C57.6106 45.6512 57.7551 45.6115 57.8967 45.6115C58.0781 45.6115 58.2197 45.6795 58.3217 45.8155L59.0017 46.6655C58.7524 46.9545 58.4776 47.1953 58.1772 47.388C57.8769 47.575 57.5652 47.7252 57.2422 47.8385C56.9192 47.9462 56.5934 48.0198 56.2647 48.0595C55.9361 48.1048 55.6187 48.1275 55.3127 48.1275C54.7007 48.1275 54.1284 48.0283 53.5957 47.83C53.0687 47.626 52.6069 47.3285 52.2102 46.9375C51.8192 46.5408 51.5104 46.0507 51.2837 45.467C51.0571 44.8833 50.9437 44.2062 50.9437 43.4355C50.9437 42.8405 51.0401 42.2795 51.2327 41.7525C51.4311 41.2255 51.7144 40.7665 52.0827 40.3755C52.4511 39.9845 52.8987 39.6757 53.4257 39.449C53.9527 39.2167 54.5477 39.1005 55.2107 39.1005C55.7717 39.1005 56.2874 39.1912 56.7577 39.3725C57.2337 39.5482 57.6417 39.806 57.9817 40.146C58.3274 40.486 58.5937 40.9053 58.7807 41.404C58.9734 41.897 59.0697 42.4608 59.0697 43.0955C59.0697 43.2712 59.0612 43.4157 59.0442 43.529C59.0272 43.6423 58.9989 43.733 58.9592 43.801C58.9196 43.869 58.8657 43.9172 58.7977 43.9455C58.7297 43.9682 58.6419 43.9795 58.5342 43.9795H53.2812ZM67.9941 35.3265V48H65.6481V35.3265H67.9941ZM75.0647 44.3365C74.4924 44.3648 74.0164 44.4158 73.6367 44.4895C73.2571 44.5575 72.9539 44.6482 72.7272 44.7615C72.5062 44.8748 72.3476 45.0052 72.2512 45.1525C72.1606 45.2942 72.1152 45.45 72.1152 45.62C72.1152 45.96 72.2087 46.2008 72.3957 46.3425C72.5884 46.4842 72.8547 46.555 73.1947 46.555C73.5857 46.555 73.9229 46.487 74.2062 46.351C74.4952 46.2093 74.7814 45.9912 75.0647 45.6965V44.3365ZM70.2877 40.452C70.8034 39.9873 71.3729 39.6417 71.9962 39.415C72.6196 39.1827 73.2939 39.0665 74.0192 39.0665C74.5406 39.0665 75.0052 39.1515 75.4132 39.3215C75.8269 39.4915 76.1754 39.7295 76.4587 40.0355C76.7477 40.3358 76.9687 40.6957 77.1217 41.115C77.2747 41.5343 77.3512 41.9933 77.3512 42.492V48H76.2802C76.0592 48 75.8892 47.9688 75.7702 47.9065C75.6569 47.8442 75.5634 47.7138 75.4897 47.5155L75.3027 46.9545C75.0817 47.1472 74.8664 47.3172 74.6567 47.4645C74.4527 47.6118 74.2402 47.7365 74.0192 47.8385C73.7982 47.9348 73.5602 48.0085 73.3052 48.0595C73.0559 48.1105 72.7754 48.136 72.4637 48.136C72.0784 48.136 71.7271 48.085 71.4097 47.983C71.0924 47.881 70.8176 47.7308 70.5852 47.5325C70.3586 47.3285 70.1829 47.0763 70.0582 46.776C69.9336 46.4757 69.8712 46.13 69.8712 45.739C69.8712 45.416 69.9534 45.093 70.1177 44.77C70.2821 44.447 70.5626 44.1552 70.9592 43.8945C71.3616 43.6282 71.8942 43.41 72.5572 43.24C73.2259 43.0643 74.0617 42.9652 75.0647 42.9425V42.492C75.0647 41.9423 74.9486 41.54 74.7162 41.285C74.4839 41.0243 74.1496 40.894 73.7132 40.894C73.3902 40.894 73.1211 40.9337 72.9057 41.013C72.6904 41.0867 72.5006 41.1688 72.3362 41.2595C72.1776 41.3445 72.0274 41.4267 71.8857 41.506C71.7441 41.5797 71.5797 41.6165 71.3927 41.6165C71.2284 41.6165 71.0896 41.5768 70.9762 41.4975C70.8686 41.4125 70.7779 41.3133 70.7042 41.2L70.2877 40.452ZM85.1667 41.0385C85.1043 41.1348 85.0392 41.2057 84.9712 41.251C84.9088 41.2907 84.821 41.3105 84.7077 41.3105C84.5943 41.3105 84.4782 41.2822 84.3592 41.2255C84.2402 41.1688 84.107 41.1093 83.9597 41.047C83.8123 40.979 83.6423 40.9167 83.4497 40.86C83.2627 40.8033 83.0445 40.775 82.7952 40.775C82.4155 40.775 82.1208 40.8543 81.9112 41.013C81.7015 41.166 81.5967 41.37 81.5967 41.625C81.5967 41.8007 81.6562 41.948 81.7752 42.067C81.8942 42.186 82.05 42.2908 82.2427 42.3815C82.441 42.4665 82.6648 42.5487 82.9142 42.628C83.1635 42.7017 83.4185 42.7838 83.6792 42.8745C83.9455 42.9652 84.2033 43.07 84.4527 43.189C84.702 43.308 84.923 43.4582 85.1157 43.6395C85.314 43.8152 85.4727 44.0305 85.5917 44.2855C85.7107 44.5348 85.7702 44.838 85.7702 45.195C85.7702 45.62 85.6908 46.0138 85.5322 46.3765C85.3792 46.7335 85.1525 47.0423 84.8522 47.303C84.5518 47.5637 84.1778 47.7677 83.7302 47.915C83.2825 48.0623 82.7668 48.136 82.1832 48.136C81.8828 48.136 81.5853 48.1077 81.2907 48.051C80.996 48 80.7155 47.9263 80.4492 47.83C80.1828 47.728 79.9335 47.6118 79.7012 47.4815C79.4688 47.3512 79.2677 47.2095 79.0977 47.0565L79.6417 46.181C79.704 46.079 79.7805 45.9997 79.8712 45.943C79.9675 45.8863 80.0893 45.858 80.2367 45.858C80.3783 45.858 80.5087 45.8948 80.6277 45.9685C80.7467 46.0365 80.8798 46.113 81.0272 46.198C81.1745 46.2773 81.3473 46.3538 81.5457 46.4275C81.7497 46.4955 82.0018 46.5295 82.3022 46.5295C82.5288 46.5295 82.7243 46.504 82.8887 46.453C83.053 46.402 83.1862 46.334 83.2882 46.249C83.3902 46.1583 83.4638 46.0592 83.5092 45.9515C83.5602 45.8382 83.5857 45.722 83.5857 45.603C83.5857 45.4103 83.5233 45.2545 83.3987 45.1355C83.2797 45.0108 83.121 44.9032 82.9227 44.8125C82.73 44.7218 82.5062 44.6397 82.2512 44.566C81.9962 44.4923 81.7355 44.4102 81.4692 44.3195C81.2085 44.2288 80.9507 44.1212 80.6957 43.9965C80.4463 43.8718 80.2225 43.716 80.0242 43.529C79.8315 43.3363 79.6728 43.1012 79.5482 42.8235C79.4292 42.5458 79.3697 42.2087 79.3697 41.812C79.3697 41.4493 79.4405 41.1065 79.5822 40.7835C79.7238 40.4548 79.9363 40.1658 80.2197 39.9165C80.503 39.6672 80.8543 39.4688 81.2737 39.3215C81.6987 39.1742 82.1888 39.1005 82.7442 39.1005C83.3675 39.1005 83.9342 39.2025 84.4442 39.4065C84.9542 39.6105 85.3735 39.8768 85.7022 40.2055L85.1667 41.0385ZM90.8004 48.136C90.4037 48.136 90.0524 48.0793 89.7464 47.966C89.4404 47.847 89.1825 47.6798 88.9729 47.4645C88.7632 47.2492 88.6045 46.9885 88.4969 46.6825C88.3892 46.3765 88.3354 46.0308 88.3354 45.6455V40.9195H87.5109C87.3862 40.9195 87.2785 40.8798 87.1879 40.8005C87.1029 40.7212 87.0604 40.6022 87.0604 40.4435V39.5255L88.4629 39.2705L88.9389 37.001C89.0012 36.746 89.174 36.6185 89.4574 36.6185H90.6814V39.2875H92.9424V40.9195H90.6814V45.4925C90.6814 45.7362 90.738 45.9288 90.8514 46.0705C90.9704 46.2122 91.1375 46.283 91.3529 46.283C91.4662 46.283 91.5625 46.2717 91.6419 46.249C91.7212 46.2207 91.7892 46.1923 91.8459 46.164C91.9025 46.13 91.9535 46.1017 91.9989 46.079C92.0499 46.0507 92.1009 46.0365 92.1519 46.0365C92.2199 46.0365 92.2765 46.0535 92.3219 46.0875C92.3672 46.1158 92.4125 46.1668 92.4579 46.2405L93.1634 47.3625C92.8404 47.6175 92.4749 47.8102 92.0669 47.9405C91.6589 48.0708 91.2367 48.136 90.8004 48.136ZM107.66 35.6665V36.6695C107.66 36.9642 107.626 37.2022 107.558 37.3835C107.496 37.5648 107.434 37.7178 107.371 37.8425L102.883 47.218C102.77 47.4333 102.617 47.6175 102.424 47.7705C102.232 47.9235 101.971 48 101.642 48H99.9423L104.541 38.8455C104.654 38.6302 104.77 38.4347 104.889 38.259C105.008 38.0833 105.141 37.9162 105.289 37.7575H99.6023C99.4663 37.7575 99.3416 37.7037 99.2283 37.596C99.1206 37.4883 99.0668 37.3665 99.0668 37.2305V35.6665H107.66ZM119.686 41.5145C119.465 41.2595 119.224 41.081 118.964 40.979C118.709 40.877 118.437 40.826 118.148 40.826C117.864 40.826 117.607 40.8798 117.374 40.9875C117.142 41.0952 116.941 41.2652 116.771 41.4975C116.606 41.7242 116.479 42.016 116.388 42.373C116.298 42.73 116.252 43.155 116.252 43.648C116.252 44.1353 116.289 44.549 116.363 44.889C116.436 45.229 116.541 45.5038 116.677 45.7135C116.819 45.9232 116.989 46.0762 117.187 46.1725C117.386 46.2632 117.607 46.3085 117.85 46.3085C118.264 46.3085 118.61 46.2263 118.887 46.062C119.171 45.8977 119.437 45.6653 119.686 45.365V41.5145ZM122.032 35.3265V48H120.587C120.287 48 120.094 47.864 120.009 47.592L119.814 46.827C119.638 47.0197 119.451 47.1953 119.253 47.354C119.06 47.5127 118.85 47.6515 118.624 47.7705C118.397 47.8838 118.153 47.9717 117.893 48.034C117.632 48.0963 117.349 48.1275 117.043 48.1275C116.572 48.1275 116.142 48.0283 115.751 47.83C115.36 47.6317 115.02 47.3427 114.731 46.963C114.447 46.5777 114.226 46.1073 114.068 45.552C113.909 44.9967 113.83 44.362 113.83 43.648C113.83 42.9963 113.918 42.39 114.093 41.829C114.275 41.268 114.53 40.7835 114.858 40.3755C115.187 39.9675 115.584 39.6473 116.048 39.415C116.513 39.1827 117.029 39.0665 117.595 39.0665C118.071 39.0665 118.471 39.1373 118.794 39.279C119.122 39.4207 119.42 39.6133 119.686 39.857V35.3265H122.032ZM129.101 44.3365C128.529 44.3648 128.053 44.4158 127.673 44.4895C127.293 44.5575 126.99 44.6482 126.763 44.7615C126.542 44.8748 126.384 45.0052 126.287 45.1525C126.197 45.2942 126.151 45.45 126.151 45.62C126.151 45.96 126.245 46.2008 126.432 46.3425C126.625 46.4842 126.891 46.555 127.231 46.555C127.622 46.555 127.959 46.487 128.242 46.351C128.531 46.2093 128.818 45.9912 129.101 45.6965V44.3365ZM124.324 40.452C124.84 39.9873 125.409 39.6417 126.032 39.415C126.656 39.1827 127.33 39.0665 128.055 39.0665C128.577 39.0665 129.041 39.1515 129.449 39.3215C129.863 39.4915 130.212 39.7295 130.495 40.0355C130.784 40.3358 131.005 40.6957 131.158 41.115C131.311 41.5343 131.387 41.9933 131.387 42.492V48H130.316C130.095 48 129.925 47.9688 129.806 47.9065C129.693 47.8442 129.6 47.7138 129.526 47.5155L129.339 46.9545C129.118 47.1472 128.903 47.3172 128.693 47.4645C128.489 47.6118 128.276 47.7365 128.055 47.8385C127.834 47.9348 127.596 48.0085 127.341 48.0595C127.092 48.1105 126.812 48.136 126.5 48.136C126.115 48.136 125.763 48.085 125.446 47.983C125.129 47.881 124.854 47.7308 124.621 47.5325C124.395 47.3285 124.219 47.0763 124.094 46.776C123.97 46.4757 123.907 46.13 123.907 45.739C123.907 45.416 123.99 45.093 124.154 44.77C124.318 44.447 124.599 44.1552 124.995 43.8945C125.398 43.6282 125.93 43.41 126.593 43.24C127.262 43.0643 128.098 42.9652 129.101 42.9425V42.492C129.101 41.9423 128.985 41.54 128.752 41.285C128.52 41.0243 128.186 40.894 127.749 40.894C127.426 40.894 127.157 40.9337 126.942 41.013C126.727 41.0867 126.537 41.1688 126.372 41.2595C126.214 41.3445 126.064 41.4267 125.922 41.506C125.78 41.5797 125.616 41.6165 125.429 41.6165C125.265 41.6165 125.126 41.5768 125.012 41.4975C124.905 41.4125 124.814 41.3133 124.74 41.2L124.324 40.452ZM141.615 39.2365L136.889 50.3545C136.815 50.5132 136.724 50.6322 136.617 50.7115C136.515 50.7908 136.35 50.8305 136.124 50.8305H134.381L136.039 47.2945L132.52 39.2365H134.577C134.764 39.2365 134.908 39.279 135.01 39.364C135.112 39.449 135.186 39.5482 135.231 39.6615L136.897 43.852C136.96 44.0163 137.013 44.1835 137.059 44.3535C137.11 44.5178 137.158 44.6822 137.203 44.8465C137.305 44.5122 137.421 44.1778 137.552 43.8435L139.099 39.6615C139.144 39.5368 139.226 39.4348 139.345 39.3555C139.464 39.2762 139.595 39.2365 139.736 39.2365H141.615ZM148.338 41.0385C148.276 41.1348 148.211 41.2057 148.143 41.251C148.08 41.2907 147.992 41.3105 147.879 41.3105C147.766 41.3105 147.65 41.2822 147.531 41.2255C147.412 41.1688 147.278 41.1093 147.131 41.047C146.984 40.979 146.814 40.9167 146.621 40.86C146.434 40.8033 146.216 40.775 145.967 40.775C145.587 40.775 145.292 40.8543 145.083 41.013C144.873 41.166 144.768 41.37 144.768 41.625C144.768 41.8007 144.828 41.948 144.947 42.067C145.066 42.186 145.221 42.2908 145.414 42.3815C145.612 42.4665 145.836 42.5487 146.086 42.628C146.335 42.7017 146.59 42.7838 146.851 42.8745C147.117 42.9652 147.375 43.07 147.624 43.189C147.873 43.308 148.094 43.4582 148.287 43.6395C148.485 43.8152 148.644 44.0305 148.763 44.2855C148.882 44.5348 148.942 44.838 148.942 45.195C148.942 45.62 148.862 46.0138 148.704 46.3765C148.551 46.7335 148.324 47.0423 148.024 47.303C147.723 47.5637 147.349 47.7677 146.902 47.915C146.454 48.0623 145.938 48.136 145.355 48.136C145.054 48.136 144.757 48.1077 144.462 48.051C144.167 48 143.887 47.9263 143.621 47.83C143.354 47.728 143.105 47.6118 142.873 47.4815C142.64 47.3512 142.439 47.2095 142.269 47.0565L142.813 46.181C142.875 46.079 142.952 45.9997 143.043 45.943C143.139 45.8863 143.261 45.858 143.408 45.858C143.55 45.858 143.68 45.8948 143.799 45.9685C143.918 46.0365 144.051 46.113 144.199 46.198C144.346 46.2773 144.519 46.3538 144.717 46.4275C144.921 46.4955 145.173 46.5295 145.474 46.5295C145.7 46.5295 145.896 46.504 146.06 46.453C146.224 46.402 146.358 46.334 146.46 46.249C146.562 46.1583 146.635 46.0592 146.681 45.9515C146.732 45.8382 146.757 45.722 146.757 45.603C146.757 45.4103 146.695 45.2545 146.57 45.1355C146.451 45.0108 146.292 44.9032 146.094 44.8125C145.901 44.7218 145.678 44.6397 145.423 44.566C145.168 44.4923 144.907 44.4102 144.641 44.3195C144.38 44.2288 144.122 44.1212 143.867 43.9965C143.618 43.8718 143.394 43.716 143.196 43.529C143.003 43.3363 142.844 43.1012 142.72 42.8235C142.601 42.5458 142.541 42.2087 142.541 41.812C142.541 41.4493 142.612 41.1065 142.754 40.7835C142.895 40.4548 143.108 40.1658 143.391 39.9165C143.674 39.6672 144.026 39.4688 144.445 39.3215C144.87 39.1742 145.36 39.1005 145.916 39.1005C146.539 39.1005 147.106 39.2025 147.616 39.4065C148.126 39.6105 148.545 39.8768 148.874 40.2055L148.338 41.0385Z" fill="black"/>
<path d="M28.481 120.583C28.481 120.359 28.4483 120.149 28.383 119.953C28.3223 119.752 28.229 119.577 28.103 119.428C27.977 119.279 27.816 119.162 27.62 119.078C27.4287 118.989 27.2047 118.945 26.948 118.945C26.4487 118.945 26.0543 119.087 25.765 119.372C25.4803 119.657 25.2983 120.06 25.219 120.583H28.481ZM25.184 121.626C25.212 121.995 25.2773 122.314 25.38 122.585C25.4827 122.851 25.618 123.073 25.786 123.25C25.954 123.423 26.1523 123.553 26.381 123.642C26.6143 123.726 26.871 123.768 27.151 123.768C27.431 123.768 27.6713 123.735 27.872 123.67C28.0773 123.605 28.2547 123.532 28.404 123.453C28.558 123.374 28.691 123.301 28.803 123.236C28.9197 123.171 29.0317 123.138 29.139 123.138C29.2837 123.138 29.391 123.192 29.461 123.299L29.958 123.929C29.7667 124.153 29.552 124.342 29.314 124.496C29.076 124.645 28.8263 124.767 28.565 124.86C28.3083 124.949 28.0447 125.012 27.774 125.049C27.508 125.086 27.249 125.105 26.997 125.105C26.4977 125.105 26.0333 125.023 25.604 124.86C25.1747 124.692 24.8013 124.447 24.484 124.125C24.1667 123.798 23.917 123.397 23.735 122.921C23.553 122.44 23.462 121.885 23.462 121.255C23.462 120.765 23.5413 120.305 23.7 119.876C23.8587 119.442 24.085 119.066 24.379 118.749C24.6777 118.427 25.0393 118.173 25.464 117.986C25.8933 117.799 26.3763 117.706 26.913 117.706C27.3657 117.706 27.7833 117.778 28.166 117.923C28.5487 118.068 28.8777 118.28 29.153 118.56C29.4283 118.835 29.643 119.176 29.797 119.582C29.9557 119.983 30.035 120.443 30.035 120.961C30.035 121.222 30.007 121.4 29.951 121.493C29.895 121.582 29.7877 121.626 29.629 121.626H25.184ZM31.3325 125V117.818H32.3895C32.6135 117.818 32.7605 117.923 32.8305 118.133L32.9425 118.665C33.0685 118.525 33.1992 118.397 33.3345 118.28C33.4745 118.163 33.6215 118.063 33.7755 117.979C33.9342 117.895 34.1022 117.83 34.2795 117.783C34.4615 117.732 34.6598 117.706 34.8745 117.706C35.3272 117.706 35.6982 117.83 35.9875 118.077C36.2815 118.32 36.5008 118.644 36.6455 119.05C36.7575 118.812 36.8975 118.609 37.0655 118.441C37.2335 118.268 37.4178 118.128 37.6185 118.021C37.8192 117.914 38.0315 117.834 38.2555 117.783C38.4842 117.732 38.7128 117.706 38.9415 117.706C39.3382 117.706 39.6905 117.767 39.9985 117.888C40.3065 118.009 40.5655 118.187 40.7755 118.42C40.9855 118.653 41.1442 118.938 41.2515 119.274C41.3635 119.61 41.4195 119.995 41.4195 120.429V125H39.6905V120.429C39.6905 119.972 39.5902 119.629 39.3895 119.4C39.1888 119.167 38.8948 119.05 38.5075 119.05C38.3302 119.05 38.1645 119.08 38.0105 119.141C37.8612 119.202 37.7282 119.29 37.6115 119.407C37.4995 119.519 37.4108 119.661 37.3455 119.834C37.2802 120.007 37.2475 120.205 37.2475 120.429V125H35.5115V120.429C35.5115 119.948 35.4135 119.598 35.2175 119.379C35.0262 119.16 34.7438 119.05 34.3705 119.05C34.1185 119.05 33.8828 119.113 33.6635 119.239C33.4488 119.36 33.2482 119.528 33.0615 119.743V125H31.3325ZM46.857 121.934C46.3577 121.957 45.9377 122.002 45.597 122.067C45.2563 122.128 44.9833 122.207 44.778 122.305C44.5727 122.403 44.4257 122.517 44.337 122.648C44.2483 122.779 44.204 122.921 44.204 123.075C44.204 123.378 44.2927 123.595 44.47 123.726C44.652 123.857 44.8877 123.922 45.177 123.922C45.5317 123.922 45.8373 123.859 46.094 123.733C46.3553 123.602 46.6097 123.406 46.857 123.145V121.934ZM42.895 118.819C43.721 118.063 44.715 117.685 45.877 117.685C46.297 117.685 46.6727 117.755 47.004 117.895C47.3353 118.03 47.6153 118.222 47.844 118.469C48.0727 118.712 48.2453 119.003 48.362 119.344C48.4833 119.685 48.544 120.058 48.544 120.464V125H47.76C47.5967 125 47.4707 124.977 47.382 124.93C47.2933 124.879 47.2233 124.778 47.172 124.629L47.018 124.111C46.836 124.274 46.6587 124.419 46.486 124.545C46.3133 124.666 46.1337 124.769 45.947 124.853C45.7603 124.937 45.5597 125 45.345 125.042C45.135 125.089 44.9017 125.112 44.645 125.112C44.3417 125.112 44.0617 125.072 43.805 124.993C43.5483 124.909 43.3267 124.785 43.14 124.622C42.9533 124.459 42.8087 124.256 42.706 124.013C42.6033 123.77 42.552 123.488 42.552 123.166C42.552 122.984 42.5823 122.804 42.643 122.627C42.7037 122.445 42.8017 122.272 42.937 122.109C43.077 121.946 43.2567 121.792 43.476 121.647C43.6953 121.502 43.9637 121.376 44.281 121.269C44.603 121.162 44.9763 121.075 45.401 121.01C45.8257 120.94 46.311 120.898 46.857 120.884V120.464C46.857 119.983 46.7543 119.629 46.549 119.4C46.3437 119.167 46.0473 119.05 45.66 119.05C45.38 119.05 45.1467 119.083 44.96 119.148C44.778 119.213 44.617 119.288 44.477 119.372C44.337 119.451 44.2087 119.524 44.092 119.589C43.98 119.654 43.854 119.687 43.714 119.687C43.5927 119.687 43.49 119.657 43.406 119.596C43.322 119.531 43.2543 119.456 43.203 119.372L42.895 118.819ZM51.9644 117.818V125H50.2284V117.818H51.9644ZM52.2024 115.725C52.2024 115.874 52.172 116.014 52.1114 116.145C52.0507 116.276 51.969 116.39 51.8664 116.488C51.7684 116.586 51.6517 116.665 51.5164 116.726C51.381 116.782 51.2364 116.81 51.0824 116.81C50.933 116.81 50.7907 116.782 50.6554 116.726C50.5247 116.665 50.4104 116.586 50.3124 116.488C50.2144 116.39 50.135 116.276 50.0744 116.145C50.0184 116.014 49.9904 115.874 49.9904 115.725C49.9904 115.571 50.0184 115.426 50.0744 115.291C50.135 115.156 50.2144 115.039 50.3124 114.941C50.4104 114.843 50.5247 114.766 50.6554 114.71C50.7907 114.649 50.933 114.619 51.0824 114.619C51.2364 114.619 51.381 114.649 51.5164 114.71C51.6517 114.766 51.7684 114.843 51.8664 114.941C51.969 115.039 52.0507 115.156 52.1114 115.291C52.172 115.426 52.2024 115.571 52.2024 115.725ZM55.477 114.598V125H53.748V114.598H55.477ZM61.5817 119.218C61.535 119.293 61.486 119.346 61.4347 119.379C61.3834 119.407 61.318 119.421 61.2387 119.421C61.1547 119.421 61.0637 119.398 60.9657 119.351C60.8724 119.304 60.7627 119.253 60.6367 119.197C60.5107 119.136 60.366 119.083 60.2027 119.036C60.044 118.989 59.855 118.966 59.6357 118.966C59.295 118.966 59.0267 119.038 58.8307 119.183C58.6394 119.328 58.5437 119.517 58.5437 119.75C58.5437 119.904 58.5927 120.035 58.6907 120.142C58.7934 120.245 58.9264 120.336 59.0897 120.415C59.2577 120.494 59.4467 120.567 59.6567 120.632C59.8667 120.693 60.079 120.76 60.2937 120.835C60.513 120.91 60.7277 120.996 60.9377 121.094C61.1477 121.187 61.3344 121.309 61.4977 121.458C61.6657 121.603 61.7987 121.778 61.8967 121.983C61.9994 122.188 62.0507 122.436 62.0507 122.725C62.0507 123.07 61.9877 123.39 61.8617 123.684C61.7404 123.973 61.5584 124.225 61.3157 124.44C61.073 124.65 60.772 124.816 60.4127 124.937C60.058 125.054 59.6474 125.112 59.1807 125.112C58.9334 125.112 58.6907 125.089 58.4527 125.042C58.2194 125 57.993 124.939 57.7737 124.86C57.559 124.781 57.3584 124.687 57.1717 124.58C56.9897 124.473 56.8287 124.356 56.6887 124.23L57.0877 123.572C57.139 123.493 57.1997 123.432 57.2697 123.39C57.3397 123.348 57.4284 123.327 57.5357 123.327C57.643 123.327 57.7434 123.357 57.8367 123.418C57.9347 123.479 58.0467 123.544 58.1727 123.614C58.2987 123.684 58.4457 123.749 58.6137 123.81C58.7864 123.871 59.0034 123.901 59.2647 123.901C59.47 123.901 59.645 123.878 59.7897 123.831C59.939 123.78 60.0604 123.714 60.1537 123.635C60.2517 123.556 60.3217 123.465 60.3637 123.362C60.4104 123.255 60.4337 123.145 60.4337 123.033C60.4337 122.865 60.3824 122.727 60.2797 122.62C60.1817 122.513 60.0487 122.419 59.8807 122.34C59.7174 122.261 59.5284 122.191 59.3137 122.13C59.1037 122.065 58.8867 121.995 58.6627 121.92C58.4434 121.845 58.2264 121.759 58.0117 121.661C57.8017 121.558 57.6127 121.43 57.4447 121.276C57.2814 121.122 57.1484 120.933 57.0457 120.709C56.9477 120.485 56.8987 120.214 56.8987 119.897C56.8987 119.603 56.957 119.323 57.0737 119.057C57.1904 118.791 57.3607 118.56 57.5847 118.364C57.8134 118.163 58.0957 118.005 58.4317 117.888C58.7724 117.767 59.1644 117.706 59.6077 117.706C60.1024 117.706 60.5527 117.788 60.9587 117.951C61.3647 118.114 61.703 118.329 61.9737 118.595L61.5817 119.218ZM71.1383 119.218C71.0917 119.293 71.0427 119.346 70.9913 119.379C70.94 119.407 70.8747 119.421 70.7953 119.421C70.7113 119.421 70.6203 119.398 70.5223 119.351C70.429 119.304 70.3193 119.253 70.1933 119.197C70.0673 119.136 69.9227 119.083 69.7593 119.036C69.6007 118.989 69.4117 118.966 69.1923 118.966C68.8517 118.966 68.5833 119.038 68.3873 119.183C68.196 119.328 68.1003 119.517 68.1003 119.75C68.1003 119.904 68.1493 120.035 68.2473 120.142C68.35 120.245 68.483 120.336 68.6463 120.415C68.8143 120.494 69.0033 120.567 69.2133 120.632C69.4233 120.693 69.6357 120.76 69.8503 120.835C70.0697 120.91 70.2843 120.996 70.4943 121.094C70.7043 121.187 70.891 121.309 71.0543 121.458C71.2223 121.603 71.3553 121.778 71.4533 121.983C71.556 122.188 71.6073 122.436 71.6073 122.725C71.6073 123.07 71.5443 123.39 71.4183 123.684C71.297 123.973 71.115 124.225 70.8723 124.44C70.6297 124.65 70.3287 124.816 69.9693 124.937C69.6147 125.054 69.204 125.112 68.7373 125.112C68.49 125.112 68.2473 125.089 68.0093 125.042C67.776 125 67.5497 124.939 67.3303 124.86C67.1157 124.781 66.915 124.687 66.7283 124.58C66.5463 124.473 66.3853 124.356 66.2453 124.23L66.6443 123.572C66.6957 123.493 66.7563 123.432 66.8263 123.39C66.8963 123.348 66.985 123.327 67.0923 123.327C67.1997 123.327 67.3 123.357 67.3933 123.418C67.4913 123.479 67.6033 123.544 67.7293 123.614C67.8553 123.684 68.0023 123.749 68.1703 123.81C68.343 123.871 68.56 123.901 68.8213 123.901C69.0267 123.901 69.2017 123.878 69.3463 123.831C69.4957 123.78 69.617 123.714 69.7103 123.635C69.8083 123.556 69.8783 123.465 69.9203 123.362C69.967 123.255 69.9903 123.145 69.9903 123.033C69.9903 122.865 69.939 122.727 69.8363 122.62C69.7383 122.513 69.6053 122.419 69.4373 122.34C69.274 122.261 69.085 122.191 68.8703 122.13C68.6603 122.065 68.4433 121.995 68.2193 121.92C68 121.845 67.783 121.759 67.5683 121.661C67.3583 121.558 67.1693 121.43 67.0013 121.276C66.838 121.122 66.705 120.933 66.6023 120.709C66.5043 120.485 66.4553 120.214 66.4553 119.897C66.4553 119.603 66.5137 119.323 66.6303 119.057C66.747 118.791 66.9173 118.56 67.1413 118.364C67.37 118.163 67.6523 118.005 67.9883 117.888C68.329 117.767 68.721 117.706 69.1643 117.706C69.659 117.706 70.1093 117.788 70.5153 117.951C70.9213 118.114 71.2597 118.329 71.5303 118.595L71.1383 119.218ZM77.5357 120.583C77.5357 120.359 77.503 120.149 77.4377 119.953C77.377 119.752 77.2837 119.577 77.1577 119.428C77.0317 119.279 76.8707 119.162 76.6747 119.078C76.4834 118.989 76.2594 118.945 76.0027 118.945C75.5034 118.945 75.109 119.087 74.8197 119.372C74.535 119.657 74.353 120.06 74.2737 120.583H77.5357ZM74.2387 121.626C74.2667 121.995 74.332 122.314 74.4347 122.585C74.5374 122.851 74.6727 123.073 74.8407 123.25C75.0087 123.423 75.207 123.553 75.4357 123.642C75.669 123.726 75.9257 123.768 76.2057 123.768C76.4857 123.768 76.726 123.735 76.9267 123.67C77.132 123.605 77.3094 123.532 77.4587 123.453C77.6127 123.374 77.7457 123.301 77.8577 123.236C77.9744 123.171 78.0864 123.138 78.1937 123.138C78.3384 123.138 78.4457 123.192 78.5157 123.299L79.0127 123.929C78.8214 124.153 78.6067 124.342 78.3687 124.496C78.1307 124.645 77.881 124.767 77.6197 124.86C77.363 124.949 77.0994 125.012 76.8287 125.049C76.5627 125.086 76.3037 125.105 76.0517 125.105C75.5524 125.105 75.088 125.023 74.6587 124.86C74.2294 124.692 73.856 124.447 73.5387 124.125C73.2214 123.798 72.9717 123.397 72.7897 122.921C72.6077 122.44 72.5167 121.885 72.5167 121.255C72.5167 120.765 72.596 120.305 72.7547 119.876C72.9134 119.442 73.1397 119.066 73.4337 118.749C73.7324 118.427 74.094 118.173 74.5187 117.986C74.948 117.799 75.431 117.706 75.9677 117.706C76.4204 117.706 76.838 117.778 77.2207 117.923C77.6034 118.068 77.9324 118.28 78.2077 118.56C78.483 118.835 78.6977 119.176 78.8517 119.582C79.0104 119.983 79.0897 120.443 79.0897 120.961C79.0897 121.222 79.0617 121.4 79.0057 121.493C78.9497 121.582 78.8424 121.626 78.6837 121.626H74.2387ZM82.0042 118.7C82.1489 118.555 82.3005 118.422 82.4592 118.301C82.6225 118.175 82.7929 118.07 82.9702 117.986C83.1522 117.897 83.3459 117.83 83.5512 117.783C83.7565 117.732 83.9805 117.706 84.2232 117.706C84.6152 117.706 84.9629 117.774 85.2662 117.909C85.5695 118.04 85.8215 118.226 86.0222 118.469C86.2275 118.707 86.3815 118.994 86.4842 119.33C86.5915 119.661 86.6452 120.028 86.6452 120.429V125H84.9162V120.429C84.9162 119.99 84.8159 119.652 84.6152 119.414C84.4145 119.171 84.1089 119.05 83.6982 119.05C83.3995 119.05 83.1195 119.118 82.8582 119.253C82.5969 119.388 82.3495 119.573 82.1162 119.806V125H80.3872V117.818H81.4442C81.6682 117.818 81.8152 117.923 81.8852 118.133L82.0042 118.7ZM90.5878 125.112C89.9625 125.112 89.4818 124.937 89.1458 124.587C88.8145 124.232 88.6488 123.745 88.6488 123.124V119.113H87.9138C87.8205 119.113 87.7412 119.083 87.6758 119.022C87.6105 118.961 87.5778 118.87 87.5778 118.749V118.063L88.7328 117.874L89.0968 115.914C89.1202 115.821 89.1645 115.748 89.2298 115.697C89.2952 115.646 89.3792 115.62 89.4818 115.62H90.3778V117.881H92.2958V119.113H90.3778V123.005C90.3778 123.229 90.4315 123.404 90.5388 123.53C90.6508 123.656 90.8025 123.719 90.9938 123.719C91.1012 123.719 91.1898 123.707 91.2598 123.684C91.3345 123.656 91.3975 123.628 91.4488 123.6C91.5048 123.572 91.5538 123.546 91.5958 123.523C91.6378 123.495 91.6798 123.481 91.7218 123.481C91.7732 123.481 91.8152 123.495 91.8478 123.523C91.8805 123.546 91.9155 123.584 91.9528 123.635L92.4708 124.475C92.2188 124.685 91.9295 124.844 91.6028 124.951C91.2762 125.058 90.9378 125.112 90.5878 125.112Z" fill="white"/>
<path d="M23 128.57H92.5478V129.263H23V128.57Z" fill="white"/>
<path d="M195.248 125.112C194.623 125.112 194.142 124.937 193.806 124.587C193.475 124.232 193.309 123.745 193.309 123.124V119.113H192.574C192.481 119.113 192.401 119.083 192.336 119.022C192.271 118.961 192.238 118.87 192.238 118.749V118.063L193.393 117.874L193.757 115.914C193.78 115.821 193.825 115.748 193.89 115.697C193.955 115.646 194.039 115.62 194.142 115.62H195.038V117.881H196.956V119.113H195.038V123.005C195.038 123.229 195.092 123.404 195.199 123.53C195.311 123.656 195.463 123.719 195.654 123.719C195.761 123.719 195.85 123.707 195.92 123.684C195.995 123.656 196.058 123.628 196.109 123.6C196.165 123.572 196.214 123.546 196.256 123.523C196.298 123.495 196.34 123.481 196.382 123.481C196.433 123.481 196.475 123.495 196.508 123.523C196.541 123.546 196.576 123.584 196.613 123.635L197.131 124.475C196.879 124.685 196.59 124.844 196.263 124.951C195.936 125.058 195.598 125.112 195.248 125.112ZM202.635 120.583C202.635 120.359 202.603 120.149 202.537 119.953C202.477 119.752 202.383 119.577 202.257 119.428C202.131 119.279 201.97 119.162 201.774 119.078C201.583 118.989 201.359 118.945 201.102 118.945C200.603 118.945 200.209 119.087 199.919 119.372C199.635 119.657 199.453 120.06 199.373 120.583H202.635ZM199.338 121.626C199.366 121.995 199.432 122.314 199.534 122.585C199.637 122.851 199.772 123.073 199.94 123.25C200.108 123.423 200.307 123.553 200.535 123.642C200.769 123.726 201.025 123.768 201.305 123.768C201.585 123.768 201.826 123.735 202.026 123.67C202.232 123.605 202.409 123.532 202.558 123.453C202.712 123.374 202.845 123.301 202.957 123.236C203.074 123.171 203.186 123.138 203.293 123.138C203.438 123.138 203.545 123.192 203.615 123.299L204.112 123.929C203.921 124.153 203.706 124.342 203.468 124.496C203.23 124.645 202.981 124.767 202.719 124.86C202.463 124.949 202.199 125.012 201.928 125.049C201.662 125.086 201.403 125.105 201.151 125.105C200.652 125.105 200.188 125.023 199.758 124.86C199.329 124.692 198.956 124.447 198.638 124.125C198.321 123.798 198.071 123.397 197.889 122.921C197.707 122.44 197.616 121.885 197.616 121.255C197.616 120.765 197.696 120.305 197.854 119.876C198.013 119.442 198.239 119.066 198.533 118.749C198.832 118.427 199.194 118.173 199.618 117.986C200.048 117.799 200.531 117.706 201.067 117.706C201.52 117.706 201.938 117.778 202.32 117.923C202.703 118.068 203.032 118.28 203.307 118.56C203.583 118.835 203.797 119.176 203.951 119.582C204.11 119.983 204.189 120.443 204.189 120.961C204.189 121.222 204.161 121.4 204.105 121.493C204.049 121.582 203.942 121.626 203.783 121.626H199.338ZM211.789 125H210.123C209.997 125 209.895 124.967 209.815 124.902C209.741 124.837 209.678 124.762 209.626 124.678L208.107 122.179C208.084 122.258 208.056 122.333 208.023 122.403C207.995 122.473 207.963 122.538 207.925 122.599L206.581 124.678C206.53 124.757 206.467 124.832 206.392 124.902C206.318 124.967 206.224 125 206.112 125H204.565L207.029 121.297L204.663 117.818H206.329C206.455 117.818 206.549 117.837 206.609 117.874C206.67 117.907 206.724 117.963 206.77 118.042L208.275 120.436C208.327 120.277 208.399 120.121 208.492 119.967L209.703 118.077C209.806 117.904 209.939 117.818 210.102 117.818H211.691L209.332 121.22L211.789 125ZM215.086 125.112C214.461 125.112 213.98 124.937 213.644 124.587C213.313 124.232 213.147 123.745 213.147 123.124V119.113H212.412C212.319 119.113 212.239 119.083 212.174 119.022C212.109 118.961 212.076 118.87 212.076 118.749V118.063L213.231 117.874L213.595 115.914C213.618 115.821 213.663 115.748 213.728 115.697C213.793 115.646 213.877 115.62 213.98 115.62H214.876V117.881H216.794V119.113H214.876V123.005C214.876 123.229 214.93 123.404 215.037 123.53C215.149 123.656 215.301 123.719 215.492 123.719C215.599 123.719 215.688 123.707 215.758 123.684C215.833 123.656 215.896 123.628 215.947 123.6C216.003 123.572 216.052 123.546 216.094 123.523C216.136 123.495 216.178 123.481 216.22 123.481C216.271 123.481 216.313 123.495 216.346 123.523C216.379 123.546 216.414 123.584 216.451 123.635L216.969 124.475C216.717 124.685 216.428 124.844 216.101 124.951C215.774 125.058 215.436 125.112 215.086 125.112ZM221.305 125V117.818H222.362C222.586 117.818 222.733 117.923 222.803 118.133L222.915 118.665C223.041 118.525 223.172 118.397 223.307 118.28C223.447 118.163 223.594 118.063 223.748 117.979C223.907 117.895 224.075 117.83 224.252 117.783C224.434 117.732 224.633 117.706 224.847 117.706C225.3 117.706 225.671 117.83 225.96 118.077C226.254 118.32 226.474 118.644 226.618 119.05C226.73 118.812 226.87 118.609 227.038 118.441C227.206 118.268 227.391 118.128 227.591 118.021C227.792 117.914 228.004 117.834 228.228 117.783C228.457 117.732 228.686 117.706 228.914 117.706C229.311 117.706 229.663 117.767 229.971 117.888C230.279 118.009 230.538 118.187 230.748 118.42C230.958 118.653 231.117 118.938 231.224 119.274C231.336 119.61 231.392 119.995 231.392 120.429V125H229.663V120.429C229.663 119.972 229.563 119.629 229.362 119.4C229.162 119.167 228.868 119.05 228.48 119.05C228.303 119.05 228.137 119.08 227.983 119.141C227.834 119.202 227.701 119.29 227.584 119.407C227.472 119.519 227.384 119.661 227.318 119.834C227.253 120.007 227.22 120.205 227.22 120.429V125H225.484V120.429C225.484 119.948 225.386 119.598 225.19 119.379C224.999 119.16 224.717 119.05 224.343 119.05C224.091 119.05 223.856 119.113 223.636 119.239C223.422 119.36 223.221 119.528 223.034 119.743V125H221.305ZM237.663 120.583C237.663 120.359 237.63 120.149 237.565 119.953C237.504 119.752 237.411 119.577 237.285 119.428C237.159 119.279 236.998 119.162 236.802 119.078C236.61 118.989 236.386 118.945 236.13 118.945C235.63 118.945 235.236 119.087 234.947 119.372C234.662 119.657 234.48 120.06 234.401 120.583H237.663ZM234.366 121.626C234.394 121.995 234.459 122.314 234.562 122.585C234.664 122.851 234.8 123.073 234.968 123.25C235.136 123.423 235.334 123.553 235.563 123.642C235.796 123.726 236.053 123.768 236.333 123.768C236.613 123.768 236.853 123.735 237.054 123.67C237.259 123.605 237.436 123.532 237.586 123.453C237.74 123.374 237.873 123.301 237.985 123.236C238.101 123.171 238.213 123.138 238.321 123.138C238.465 123.138 238.573 123.192 238.643 123.299L239.14 123.929C238.948 124.153 238.734 124.342 238.496 124.496C238.258 124.645 238.008 124.767 237.747 124.86C237.49 124.949 237.226 125.012 236.956 125.049C236.69 125.086 236.431 125.105 236.179 125.105C235.679 125.105 235.215 125.023 234.786 124.86C234.356 124.692 233.983 124.447 233.666 124.125C233.348 123.798 233.099 123.397 232.917 122.921C232.735 122.44 232.644 121.885 232.644 121.255C232.644 120.765 232.723 120.305 232.882 119.876C233.04 119.442 233.267 119.066 233.561 118.749C233.859 118.427 234.221 118.173 234.646 117.986C235.075 117.799 235.558 117.706 236.095 117.706C236.547 117.706 236.965 117.778 237.348 117.923C237.73 118.068 238.059 118.28 238.335 118.56C238.61 118.835 238.825 119.176 238.979 119.582C239.137 119.983 239.217 120.443 239.217 120.961C239.217 121.222 239.189 121.4 239.133 121.493C239.077 121.582 238.969 121.626 238.811 121.626H234.366ZM244.896 119.218C244.849 119.293 244.8 119.346 244.749 119.379C244.698 119.407 244.632 119.421 244.553 119.421C244.469 119.421 244.378 119.398 244.28 119.351C244.187 119.304 244.077 119.253 243.951 119.197C243.825 119.136 243.68 119.083 243.517 119.036C243.358 118.989 243.169 118.966 242.95 118.966C242.609 118.966 242.341 119.038 242.145 119.183C241.954 119.328 241.858 119.517 241.858 119.75C241.858 119.904 241.907 120.035 242.005 120.142C242.108 120.245 242.241 120.336 242.404 120.415C242.572 120.494 242.761 120.567 242.971 120.632C243.181 120.693 243.393 120.76 243.608 120.835C243.827 120.91 244.042 120.996 244.252 121.094C244.462 121.187 244.649 121.309 244.812 121.458C244.98 121.603 245.113 121.778 245.211 121.983C245.314 122.188 245.365 122.436 245.365 122.725C245.365 123.07 245.302 123.39 245.176 123.684C245.055 123.973 244.873 124.225 244.63 124.44C244.387 124.65 244.086 124.816 243.727 124.937C243.372 125.054 242.962 125.112 242.495 125.112C242.248 125.112 242.005 125.089 241.767 125.042C241.534 125 241.307 124.939 241.088 124.86C240.873 124.781 240.673 124.687 240.486 124.58C240.304 124.473 240.143 124.356 240.003 124.23L240.402 123.572C240.453 123.493 240.514 123.432 240.584 123.39C240.654 123.348 240.743 123.327 240.85 123.327C240.957 123.327 241.058 123.357 241.151 123.418C241.249 123.479 241.361 123.544 241.487 123.614C241.613 123.684 241.76 123.749 241.928 123.81C242.101 123.871 242.318 123.901 242.579 123.901C242.784 123.901 242.959 123.878 243.104 123.831C243.253 123.78 243.375 123.714 243.468 123.635C243.566 123.556 243.636 123.465 243.678 123.362C243.725 123.255 243.748 123.145 243.748 123.033C243.748 122.865 243.697 122.727 243.594 122.62C243.496 122.513 243.363 122.419 243.195 122.34C243.032 122.261 242.843 122.191 242.628 122.13C242.418 122.065 242.201 121.995 241.977 121.92C241.758 121.845 241.541 121.759 241.326 121.661C241.116 121.558 240.927 121.43 240.759 121.276C240.596 121.122 240.463 120.933 240.36 120.709C240.262 120.485 240.213 120.214 240.213 119.897C240.213 119.603 240.271 119.323 240.388 119.057C240.505 118.791 240.675 118.56 240.899 118.364C241.128 118.163 241.41 118.005 241.746 117.888C242.087 117.767 242.479 117.706 242.922 117.706C243.417 117.706 243.867 117.788 244.273 117.951C244.679 118.114 245.017 118.329 245.288 118.595L244.896 119.218ZM251.049 119.218C251.002 119.293 250.953 119.346 250.902 119.379C250.85 119.407 250.785 119.421 250.706 119.421C250.622 119.421 250.531 119.398 250.433 119.351C250.339 119.304 250.23 119.253 250.104 119.197C249.978 119.136 249.833 119.083 249.669 119.036C249.511 118.989 249.322 118.966 249.103 118.966C248.762 118.966 248.494 119.038 248.298 119.183C248.106 119.328 248.011 119.517 248.011 119.75C248.011 119.904 248.06 120.035 248.158 120.142C248.26 120.245 248.393 120.336 248.557 120.415C248.725 120.494 248.914 120.567 249.124 120.632C249.334 120.693 249.546 120.76 249.761 120.835C249.98 120.91 250.195 120.996 250.405 121.094C250.615 121.187 250.801 121.309 250.965 121.458C251.133 121.603 251.266 121.778 251.364 121.983C251.466 122.188 251.518 122.436 251.518 122.725C251.518 123.07 251.455 123.39 251.329 123.684C251.207 123.973 251.025 124.225 250.783 124.44C250.54 124.65 250.239 124.816 249.88 124.937C249.525 125.054 249.114 125.112 248.648 125.112C248.4 125.112 248.158 125.089 247.92 125.042C247.686 125 247.46 124.939 247.241 124.86C247.026 124.781 246.825 124.687 246.639 124.58C246.457 124.473 246.296 124.356 246.156 124.23L246.555 123.572C246.606 123.493 246.667 123.432 246.736 123.39C246.806 123.348 246.895 123.327 247.003 123.327C247.11 123.327 247.21 123.357 247.304 123.418C247.402 123.479 247.514 123.544 247.64 123.614C247.766 123.684 247.913 123.749 248.081 123.81C248.253 123.871 248.47 123.901 248.732 123.901C248.937 123.901 249.112 123.878 249.257 123.831C249.406 123.78 249.527 123.714 249.621 123.635C249.719 123.556 249.788 123.465 249.831 123.362C249.877 123.255 249.901 123.145 249.901 123.033C249.901 122.865 249.849 122.727 249.747 122.62C249.649 122.513 249.516 122.419 249.347 122.34C249.184 122.261 248.995 122.191 248.781 122.13C248.571 122.065 248.354 121.995 248.13 121.92C247.91 121.845 247.693 121.759 247.479 121.661C247.269 121.558 247.08 121.43 246.912 121.276C246.748 121.122 246.615 120.933 246.513 120.709C246.415 120.485 246.366 120.214 246.366 119.897C246.366 119.603 246.424 119.323 246.541 119.057C246.657 118.791 246.828 118.56 247.052 118.364C247.28 118.163 247.563 118.005 247.899 117.888C248.239 117.767 248.631 117.706 249.075 117.706C249.569 117.706 250.02 117.788 250.426 117.951C250.832 118.114 251.17 118.329 251.441 118.595L251.049 119.218ZM256.613 121.934C256.114 121.957 255.694 122.002 255.353 122.067C255.012 122.128 254.739 122.207 254.534 122.305C254.329 122.403 254.182 122.517 254.093 122.648C254.004 122.779 253.96 122.921 253.96 123.075C253.96 123.378 254.049 123.595 254.226 123.726C254.408 123.857 254.644 123.922 254.933 123.922C255.288 123.922 255.593 123.859 255.85 123.733C256.111 123.602 256.366 123.406 256.613 123.145V121.934ZM252.651 118.819C253.477 118.063 254.471 117.685 255.633 117.685C256.053 117.685 256.429 117.755 256.76 117.895C257.091 118.03 257.371 118.222 257.6 118.469C257.829 118.712 258.001 119.003 258.118 119.344C258.239 119.685 258.3 120.058 258.3 120.464V125H257.516C257.353 125 257.227 124.977 257.138 124.93C257.049 124.879 256.979 124.778 256.928 124.629L256.774 124.111C256.592 124.274 256.415 124.419 256.242 124.545C256.069 124.666 255.89 124.769 255.703 124.853C255.516 124.937 255.316 125 255.101 125.042C254.891 125.089 254.658 125.112 254.401 125.112C254.098 125.112 253.818 125.072 253.561 124.993C253.304 124.909 253.083 124.785 252.896 124.622C252.709 124.459 252.565 124.256 252.462 124.013C252.359 123.77 252.308 123.488 252.308 123.166C252.308 122.984 252.338 122.804 252.399 122.627C252.46 122.445 252.558 122.272 252.693 122.109C252.833 121.946 253.013 121.792 253.232 121.647C253.451 121.502 253.72 121.376 254.037 121.269C254.359 121.162 254.732 121.075 255.157 121.01C255.582 120.94 256.067 120.898 256.613 120.884V120.464C256.613 119.983 256.51 119.629 256.305 119.4C256.1 119.167 255.803 119.05 255.416 119.05C255.136 119.05 254.903 119.083 254.716 119.148C254.534 119.213 254.373 119.288 254.233 119.372C254.093 119.451 253.965 119.524 253.848 119.589C253.736 119.654 253.61 119.687 253.47 119.687C253.349 119.687 253.246 119.657 253.162 119.596C253.078 119.531 253.01 119.456 252.959 119.372L252.651 118.819ZM262.553 121.234C262.768 121.234 262.955 121.206 263.113 121.15C263.272 121.089 263.403 121.008 263.505 120.905C263.613 120.802 263.692 120.679 263.743 120.534C263.799 120.389 263.827 120.231 263.827 120.058C263.827 119.703 263.72 119.423 263.505 119.218C263.295 119.008 262.978 118.903 262.553 118.903C262.129 118.903 261.809 119.008 261.594 119.218C261.384 119.423 261.279 119.703 261.279 120.058C261.279 120.226 261.305 120.382 261.356 120.527C261.412 120.672 261.492 120.798 261.594 120.905C261.702 121.008 261.835 121.089 261.993 121.15C262.157 121.206 262.343 121.234 262.553 121.234ZM264.506 125.322C264.506 125.182 264.464 125.068 264.38 124.979C264.296 124.89 264.182 124.823 264.037 124.776C263.893 124.725 263.722 124.687 263.526 124.664C263.335 124.641 263.13 124.624 262.91 124.615C262.696 124.601 262.472 124.589 262.238 124.58C262.01 124.571 261.786 124.552 261.566 124.524C261.375 124.631 261.219 124.757 261.097 124.902C260.981 125.047 260.922 125.215 260.922 125.406C260.922 125.532 260.953 125.649 261.013 125.756C261.079 125.868 261.179 125.964 261.314 126.043C261.454 126.122 261.634 126.183 261.853 126.225C262.073 126.272 262.341 126.295 262.658 126.295C262.98 126.295 263.258 126.269 263.491 126.218C263.725 126.171 263.916 126.104 264.065 126.015C264.219 125.931 264.331 125.828 264.401 125.707C264.471 125.59 264.506 125.462 264.506 125.322ZM266.228 118.063V118.707C266.228 118.912 266.105 119.038 265.857 119.085L265.213 119.204C265.311 119.451 265.36 119.722 265.36 120.016C265.36 120.371 265.288 120.693 265.143 120.982C265.003 121.267 264.807 121.509 264.555 121.71C264.303 121.911 264.005 122.067 263.659 122.179C263.319 122.286 262.95 122.34 262.553 122.34C262.413 122.34 262.278 122.333 262.147 122.319C262.017 122.305 261.888 122.286 261.762 122.263C261.538 122.398 261.426 122.55 261.426 122.718C261.426 122.863 261.492 122.97 261.622 123.04C261.758 123.105 261.935 123.152 262.154 123.18C262.374 123.208 262.623 123.227 262.903 123.236C263.183 123.241 263.47 123.255 263.764 123.278C264.058 123.301 264.345 123.343 264.625 123.404C264.905 123.46 265.155 123.551 265.374 123.677C265.594 123.803 265.769 123.976 265.899 124.195C266.035 124.41 266.102 124.687 266.102 125.028C266.102 125.345 266.023 125.653 265.864 125.952C265.71 126.251 265.484 126.517 265.185 126.75C264.891 126.983 264.527 127.17 264.093 127.31C263.664 127.455 263.174 127.527 262.623 127.527C262.082 127.527 261.611 127.473 261.209 127.366C260.808 127.263 260.474 127.123 260.208 126.946C259.942 126.773 259.744 126.573 259.613 126.344C259.483 126.115 259.417 125.877 259.417 125.63C259.417 125.294 259.518 125.014 259.718 124.79C259.924 124.561 260.204 124.379 260.558 124.244C260.367 124.146 260.215 124.015 260.103 123.852C259.991 123.689 259.935 123.474 259.935 123.208C259.935 123.101 259.954 122.991 259.991 122.879C260.033 122.762 260.092 122.648 260.166 122.536C260.246 122.424 260.344 122.319 260.46 122.221C260.577 122.118 260.715 122.027 260.873 121.948C260.509 121.752 260.222 121.491 260.012 121.164C259.807 120.837 259.704 120.455 259.704 120.016C259.704 119.661 259.774 119.342 259.914 119.057C260.059 118.768 260.257 118.523 260.509 118.322C260.766 118.117 261.067 117.96 261.412 117.853C261.762 117.746 262.143 117.692 262.553 117.692C262.861 117.692 263.151 117.725 263.421 117.79C263.692 117.851 263.939 117.942 264.163 118.063H266.228ZM271.829 120.583C271.829 120.359 271.796 120.149 271.731 119.953C271.67 119.752 271.577 119.577 271.451 119.428C271.325 119.279 271.164 119.162 270.968 119.078C270.776 118.989 270.552 118.945 270.296 118.945C269.796 118.945 269.402 119.087 269.113 119.372C268.828 119.657 268.646 120.06 268.567 120.583H271.829ZM268.532 121.626C268.56 121.995 268.625 122.314 268.728 122.585C268.83 122.851 268.966 123.073 269.134 123.25C269.302 123.423 269.5 123.553 269.729 123.642C269.962 123.726 270.219 123.768 270.499 123.768C270.779 123.768 271.019 123.735 271.22 123.67C271.425 123.605 271.602 123.532 271.752 123.453C271.906 123.374 272.039 123.301 272.151 123.236C272.267 123.171 272.379 123.138 272.487 123.138C272.631 123.138 272.739 123.192 272.809 123.299L273.306 123.929C273.114 124.153 272.9 124.342 272.662 124.496C272.424 124.645 272.174 124.767 271.913 124.86C271.656 124.949 271.392 125.012 271.122 125.049C270.856 125.086 270.597 125.105 270.345 125.105C269.845 125.105 269.381 125.023 268.952 124.86C268.522 124.692 268.149 124.447 267.832 124.125C267.514 123.798 267.265 123.397 267.083 122.921C266.901 122.44 266.81 121.885 266.81 121.255C266.81 120.765 266.889 120.305 267.048 119.876C267.206 119.442 267.433 119.066 267.727 118.749C268.025 118.427 268.387 118.173 268.812 117.986C269.241 117.799 269.724 117.706 270.261 117.706C270.713 117.706 271.131 117.778 271.514 117.923C271.896 118.068 272.225 118.28 272.501 118.56C272.776 118.835 272.991 119.176 273.145 119.582C273.303 119.983 273.383 120.443 273.383 120.961C273.383 121.222 273.355 121.4 273.299 121.493C273.243 121.582 273.135 121.626 272.977 121.626H268.532ZM279.062 119.218C279.016 119.293 278.967 119.346 278.915 119.379C278.864 119.407 278.799 119.421 278.719 119.421C278.635 119.421 278.544 119.398 278.446 119.351C278.353 119.304 278.243 119.253 278.117 119.197C277.991 119.136 277.847 119.083 277.683 119.036C277.525 118.989 277.336 118.966 277.116 118.966C276.776 118.966 276.507 119.038 276.311 119.183C276.12 119.328 276.024 119.517 276.024 119.75C276.024 119.904 276.073 120.035 276.171 120.142C276.274 120.245 276.407 120.336 276.57 120.415C276.738 120.494 276.927 120.567 277.137 120.632C277.347 120.693 277.56 120.76 277.774 120.835C277.994 120.91 278.208 120.996 278.418 121.094C278.628 121.187 278.815 121.309 278.978 121.458C279.146 121.603 279.279 121.778 279.377 121.983C279.48 122.188 279.531 122.436 279.531 122.725C279.531 123.07 279.468 123.39 279.342 123.684C279.221 123.973 279.039 124.225 278.796 124.44C278.554 124.65 278.253 124.816 277.893 124.937C277.539 125.054 277.128 125.112 276.661 125.112C276.414 125.112 276.171 125.089 275.933 125.042C275.7 125 275.474 124.939 275.254 124.86C275.04 124.781 274.839 124.687 274.652 124.58C274.47 124.473 274.309 124.356 274.169 124.23L274.568 123.572C274.62 123.493 274.68 123.432 274.75 123.39C274.82 123.348 274.909 123.327 275.016 123.327C275.124 123.327 275.224 123.357 275.317 123.418C275.415 123.479 275.527 123.544 275.653 123.614C275.779 123.684 275.926 123.749 276.094 123.81C276.267 123.871 276.484 123.901 276.745 123.901C276.951 123.901 277.126 123.878 277.27 123.831C277.42 123.78 277.541 123.714 277.634 123.635C277.732 123.556 277.802 123.465 277.844 123.362C277.891 123.255 277.914 123.145 277.914 123.033C277.914 122.865 277.863 122.727 277.76 122.62C277.662 122.513 277.529 122.419 277.361 122.34C277.198 122.261 277.009 122.191 276.794 122.13C276.584 122.065 276.367 121.995 276.143 121.92C275.924 121.845 275.707 121.759 275.492 121.661C275.282 121.558 275.093 121.43 274.925 121.276C274.762 121.122 274.629 120.933 274.526 120.709C274.428 120.485 274.379 120.214 274.379 119.897C274.379 119.603 274.438 119.323 274.554 119.057C274.671 118.791 274.841 118.56 275.065 118.364C275.294 118.163 275.576 118.005 275.912 117.888C276.253 117.767 276.645 117.706 277.088 117.706C277.583 117.706 278.033 117.788 278.439 117.951C278.845 118.114 279.184 118.329 279.454 118.595L279.062 119.218ZM288.619 119.218C288.572 119.293 288.523 119.346 288.472 119.379C288.42 119.407 288.355 119.421 288.276 119.421C288.192 119.421 288.101 119.398 288.003 119.351C287.909 119.304 287.8 119.253 287.674 119.197C287.548 119.136 287.403 119.083 287.24 119.036C287.081 118.989 286.892 118.966 286.673 118.966C286.332 118.966 286.064 119.038 285.868 119.183C285.676 119.328 285.581 119.517 285.581 119.75C285.581 119.904 285.63 120.035 285.728 120.142C285.83 120.245 285.963 120.336 286.127 120.415C286.295 120.494 286.484 120.567 286.694 120.632C286.904 120.693 287.116 120.76 287.331 120.835C287.55 120.91 287.765 120.996 287.975 121.094C288.185 121.187 288.371 121.309 288.535 121.458C288.703 121.603 288.836 121.778 288.934 121.983C289.036 122.188 289.088 122.436 289.088 122.725C289.088 123.07 289.025 123.39 288.899 123.684C288.777 123.973 288.595 124.225 288.353 124.44C288.11 124.65 287.809 124.816 287.45 124.937C287.095 125.054 286.684 125.112 286.218 125.112C285.97 125.112 285.728 125.089 285.49 125.042C285.256 125 285.03 124.939 284.811 124.86C284.596 124.781 284.395 124.687 284.209 124.58C284.027 124.473 283.866 124.356 283.726 124.23L284.125 123.572C284.176 123.493 284.237 123.432 284.307 123.39C284.377 123.348 284.465 123.327 284.573 123.327C284.68 123.327 284.78 123.357 284.874 123.418C284.972 123.479 285.084 123.544 285.21 123.614C285.336 123.684 285.483 123.749 285.651 123.81C285.823 123.871 286.04 123.901 286.302 123.901C286.507 123.901 286.682 123.878 286.827 123.831C286.976 123.78 287.097 123.714 287.191 123.635C287.289 123.556 287.359 123.465 287.401 123.362C287.447 123.255 287.471 123.145 287.471 123.033C287.471 122.865 287.419 122.727 287.317 122.62C287.219 122.513 287.086 122.419 286.918 122.34C286.754 122.261 286.565 122.191 286.351 122.13C286.141 122.065 285.924 121.995 285.7 121.92C285.48 121.845 285.263 121.759 285.049 121.661C284.839 121.558 284.65 121.43 284.482 121.276C284.318 121.122 284.185 120.933 284.083 120.709C283.985 120.485 283.936 120.214 283.936 119.897C283.936 119.603 283.994 119.323 284.111 119.057C284.227 118.791 284.398 118.56 284.622 118.364C284.85 118.163 285.133 118.005 285.469 117.888C285.809 117.767 286.201 117.706 286.645 117.706C287.139 117.706 287.59 117.788 287.996 117.951C288.402 118.114 288.74 118.329 289.011 118.595L288.619 119.218ZM295.016 120.583C295.016 120.359 294.983 120.149 294.918 119.953C294.857 119.752 294.764 119.577 294.638 119.428C294.512 119.279 294.351 119.162 294.155 119.078C293.964 118.989 293.74 118.945 293.483 118.945C292.984 118.945 292.589 119.087 292.3 119.372C292.015 119.657 291.833 120.06 291.754 120.583H295.016ZM291.719 121.626C291.747 121.995 291.812 122.314 291.915 122.585C292.018 122.851 292.153 123.073 292.321 123.25C292.489 123.423 292.687 123.553 292.916 123.642C293.149 123.726 293.406 123.768 293.686 123.768C293.966 123.768 294.206 123.735 294.407 123.67C294.612 123.605 294.79 123.532 294.939 123.453C295.093 123.374 295.226 123.301 295.338 123.236C295.455 123.171 295.567 123.138 295.674 123.138C295.819 123.138 295.926 123.192 295.996 123.299L296.493 123.929C296.302 124.153 296.087 124.342 295.849 124.496C295.611 124.645 295.361 124.767 295.1 124.86C294.843 124.949 294.58 125.012 294.309 125.049C294.043 125.086 293.784 125.105 293.532 125.105C293.033 125.105 292.568 125.023 292.139 124.86C291.71 124.692 291.336 124.447 291.019 124.125C290.702 123.798 290.452 123.397 290.27 122.921C290.088 122.44 289.997 121.885 289.997 121.255C289.997 120.765 290.076 120.305 290.235 119.876C290.394 119.442 290.62 119.066 290.914 118.749C291.213 118.427 291.574 118.173 291.999 117.986C292.428 117.799 292.911 117.706 293.448 117.706C293.901 117.706 294.318 117.778 294.701 117.923C295.084 118.068 295.413 118.28 295.688 118.56C295.963 118.835 296.178 119.176 296.332 119.582C296.491 119.983 296.57 120.443 296.57 120.961C296.57 121.222 296.542 121.4 296.486 121.493C296.43 121.582 296.323 121.626 296.164 121.626H291.719ZM299.485 118.7C299.629 118.555 299.781 118.422 299.94 118.301C300.103 118.175 300.273 118.07 300.451 117.986C300.633 117.897 300.826 117.83 301.032 117.783C301.237 117.732 301.461 117.706 301.704 117.706C302.096 117.706 302.443 117.774 302.747 117.909C303.05 118.04 303.302 118.226 303.503 118.469C303.708 118.707 303.862 118.994 303.965 119.33C304.072 119.661 304.126 120.028 304.126 120.429V125H302.397V120.429C302.397 119.99 302.296 119.652 302.096 119.414C301.895 119.171 301.589 119.05 301.179 119.05C300.88 119.05 300.6 119.118 300.339 119.253C300.077 119.388 299.83 119.573 299.597 119.806V125H297.868V117.818H298.925C299.149 117.818 299.296 117.923 299.366 118.133L299.485 118.7ZM308.068 125.112C307.443 125.112 306.962 124.937 306.626 124.587C306.295 124.232 306.129 123.745 306.129 123.124V119.113H305.394C305.301 119.113 305.222 119.083 305.156 119.022C305.091 118.961 305.058 118.87 305.058 118.749V118.063L306.213 117.874L306.577 115.914C306.601 115.821 306.645 115.748 306.71 115.697C306.776 115.646 306.86 115.62 306.962 115.62H307.858V117.881H309.776V119.113H307.858V123.005C307.858 123.229 307.912 123.404 308.019 123.53C308.131 123.656 308.283 123.719 308.474 123.719C308.582 123.719 308.67 123.707 308.74 123.684C308.815 123.656 308.878 123.628 308.929 123.6C308.985 123.572 309.034 123.546 309.076 123.523C309.118 123.495 309.16 123.481 309.202 123.481C309.254 123.481 309.296 123.495 309.328 123.523C309.361 123.546 309.396 123.584 309.433 123.635L309.951 124.475C309.699 124.685 309.41 124.844 309.083 124.951C308.757 125.058 308.418 125.112 308.068 125.112Z" fill="white"/>
<path d="M192 128.57H310.028V129.263H192V128.57Z" fill="white"/>
<path d="M30.245 165.705V167H24.645V165.705H26.696V159.804C26.696 159.571 26.703 159.33 26.717 159.083L25.261 160.301C25.177 160.366 25.093 160.408 25.009 160.427C24.9297 160.441 24.8527 160.441 24.778 160.427C24.708 160.413 24.645 160.39 24.589 160.357C24.533 160.32 24.491 160.28 24.463 160.238L23.917 159.489L27.004 156.864H28.425V165.705H30.245ZM35.8834 167V161.12L35.2604 161.022C35.1251 160.994 35.0154 160.947 34.9314 160.882C34.8521 160.812 34.8124 160.714 34.8124 160.588V159.881H35.8834V159.349C35.8834 158.938 35.9441 158.57 36.0654 158.243C36.1914 157.916 36.3687 157.639 36.5974 157.41C36.8307 157.181 37.1131 157.006 37.4444 156.885C37.7757 156.764 38.1491 156.703 38.5644 156.703C38.8957 156.703 39.2037 156.747 39.4884 156.836L39.4534 157.704C39.4487 157.769 39.4301 157.823 39.3974 157.865C39.3647 157.902 39.3204 157.933 39.2644 157.956C39.2131 157.975 39.1524 157.989 39.0824 157.998C39.0124 158.003 38.9377 158.005 38.8584 158.005C38.6531 158.005 38.4687 158.028 38.3054 158.075C38.1467 158.117 38.0114 158.194 37.8994 158.306C37.7874 158.413 37.7011 158.558 37.6404 158.74C37.5844 158.917 37.5564 159.139 37.5564 159.405V159.881H39.4254V161.113H37.6124V167H35.8834ZM44.1636 163.934C43.6643 163.957 43.2443 164.002 42.9036 164.067C42.563 164.128 42.29 164.207 42.0846 164.305C41.8793 164.403 41.7323 164.517 41.6436 164.648C41.555 164.779 41.5106 164.921 41.5106 165.075C41.5106 165.378 41.5993 165.595 41.7766 165.726C41.9586 165.857 42.1943 165.922 42.4836 165.922C42.8383 165.922 43.144 165.859 43.4006 165.733C43.662 165.602 43.9163 165.406 44.1636 165.145V163.934ZM40.2016 160.819C41.0276 160.063 42.0216 159.685 43.1836 159.685C43.6036 159.685 43.9793 159.755 44.3106 159.895C44.642 160.03 44.922 160.222 45.1506 160.469C45.3793 160.712 45.552 161.003 45.6686 161.344C45.79 161.685 45.8506 162.058 45.8506 162.464V167H45.0666C44.9033 167 44.7773 166.977 44.6886 166.93C44.6 166.879 44.53 166.778 44.4786 166.629L44.3246 166.111C44.1426 166.274 43.9653 166.419 43.7926 166.545C43.62 166.666 43.4403 166.769 43.2536 166.853C43.067 166.937 42.8663 167 42.6516 167.042C42.4416 167.089 42.2083 167.112 41.9516 167.112C41.6483 167.112 41.3683 167.072 41.1116 166.993C40.855 166.909 40.6333 166.785 40.4466 166.622C40.26 166.459 40.1153 166.256 40.0126 166.013C39.91 165.77 39.8586 165.488 39.8586 165.166C39.8586 164.984 39.889 164.804 39.9496 164.627C40.0103 164.445 40.1083 164.272 40.2436 164.109C40.3836 163.946 40.5633 163.792 40.7826 163.647C41.002 163.502 41.2703 163.376 41.5876 163.269C41.9096 163.162 42.283 163.075 42.7076 163.01C43.1323 162.94 43.6176 162.898 44.1636 162.884V162.464C44.1636 161.983 44.061 161.629 43.8556 161.4C43.6503 161.167 43.354 161.05 42.9666 161.05C42.6866 161.05 42.4533 161.083 42.2666 161.148C42.0846 161.213 41.9236 161.288 41.7836 161.372C41.6436 161.451 41.5153 161.524 41.3986 161.589C41.2866 161.654 41.1606 161.687 41.0206 161.687C40.8993 161.687 40.7966 161.657 40.7126 161.596C40.6286 161.531 40.561 161.456 40.5096 161.372L40.2016 160.819ZM49.271 159.818V167H47.535V159.818H49.271ZM49.509 157.725C49.509 157.874 49.4787 158.014 49.418 158.145C49.3573 158.276 49.2757 158.39 49.173 158.488C49.075 158.586 48.9583 158.665 48.823 158.726C48.6877 158.782 48.543 158.81 48.389 158.81C48.2397 158.81 48.0973 158.782 47.962 158.726C47.8313 158.665 47.717 158.586 47.619 158.488C47.521 158.39 47.4417 158.276 47.381 158.145C47.325 158.014 47.297 157.874 47.297 157.725C47.297 157.571 47.325 157.426 47.381 157.291C47.4417 157.156 47.521 157.039 47.619 156.941C47.717 156.843 47.8313 156.766 47.962 156.71C48.0973 156.649 48.2397 156.619 48.389 156.619C48.543 156.619 48.6877 156.649 48.823 156.71C48.9583 156.766 49.075 156.843 49.173 156.941C49.2757 157.039 49.3573 157.156 49.418 157.291C49.4787 157.426 49.509 157.571 49.509 157.725ZM52.7837 156.598V167H51.0547V156.598H52.7837ZM59.1333 162.583C59.1333 162.359 59.1007 162.149 59.0353 161.953C58.9747 161.752 58.8813 161.577 58.7553 161.428C58.6293 161.279 58.4683 161.162 58.2723 161.078C58.081 160.989 57.857 160.945 57.6003 160.945C57.101 160.945 56.7067 161.087 56.4173 161.372C56.1327 161.657 55.9507 162.06 55.8713 162.583H59.1333ZM55.8363 163.626C55.8643 163.995 55.9297 164.314 56.0323 164.585C56.135 164.851 56.2703 165.073 56.4383 165.25C56.6063 165.423 56.8047 165.553 57.0333 165.642C57.2667 165.726 57.5233 165.768 57.8033 165.768C58.0833 165.768 58.3237 165.735 58.5243 165.67C58.7297 165.605 58.907 165.532 59.0563 165.453C59.2103 165.374 59.3433 165.301 59.4553 165.236C59.572 165.171 59.684 165.138 59.7913 165.138C59.936 165.138 60.0433 165.192 60.1133 165.299L60.6103 165.929C60.419 166.153 60.2043 166.342 59.9663 166.496C59.7283 166.645 59.4787 166.767 59.2173 166.86C58.9607 166.949 58.697 167.012 58.4263 167.049C58.1603 167.086 57.9013 167.105 57.6493 167.105C57.15 167.105 56.6857 167.023 56.2563 166.86C55.827 166.692 55.4537 166.447 55.1363 166.125C54.819 165.798 54.5693 165.397 54.3873 164.921C54.2053 164.44 54.1143 163.885 54.1143 163.255C54.1143 162.765 54.1937 162.305 54.3523 161.876C54.511 161.442 54.7373 161.066 55.0313 160.749C55.33 160.427 55.6917 160.173 56.1163 159.986C56.5457 159.799 57.0287 159.706 57.5653 159.706C58.018 159.706 58.4357 159.778 58.8183 159.923C59.201 160.068 59.53 160.28 59.8053 160.56C60.0807 160.835 60.2953 161.176 60.4493 161.582C60.608 161.983 60.6873 162.443 60.6873 162.961C60.6873 163.222 60.6593 163.4 60.6033 163.493C60.5473 163.582 60.44 163.626 60.2813 163.626H55.8363ZM66.4929 161.652C66.2969 161.414 66.0822 161.246 65.8489 161.148C65.6202 161.05 65.3729 161.001 65.1069 161.001C64.8455 161.001 64.6099 161.05 64.3999 161.148C64.1899 161.246 64.0102 161.395 63.8609 161.596C63.7115 161.792 63.5972 162.044 63.5179 162.352C63.4385 162.655 63.3989 163.015 63.3989 163.43C63.3989 163.85 63.4315 164.207 63.4969 164.501C63.5669 164.79 63.6649 165.028 63.7909 165.215C63.9169 165.397 64.0709 165.53 64.2529 165.614C64.4349 165.693 64.6379 165.733 64.8619 165.733C65.2212 165.733 65.5269 165.658 65.7789 165.509C66.0309 165.36 66.2689 165.147 66.4929 164.872V161.652ZM68.2219 156.598V167H67.1649C66.9362 167 66.7915 166.895 66.7309 166.685L66.5839 165.992C66.2945 166.323 65.9609 166.592 65.5829 166.797C65.2095 167.002 64.7732 167.105 64.2739 167.105C63.8819 167.105 63.5225 167.023 63.1959 166.86C62.8692 166.697 62.5869 166.461 62.3489 166.153C62.1155 165.84 61.9335 165.455 61.8029 164.998C61.6769 164.541 61.6139 164.018 61.6139 163.43C61.6139 162.898 61.6862 162.403 61.8309 161.946C61.9755 161.489 62.1832 161.092 62.4539 160.756C62.7245 160.42 63.0489 160.159 63.4269 159.972C63.8049 159.781 64.2295 159.685 64.7009 159.685C65.1022 159.685 65.4452 159.748 65.7299 159.874C66.0145 160 66.2689 160.17 66.4929 160.385V156.598H68.2219ZM73.2765 162.051H76.9025V163.493H73.2765V162.051ZM87.9725 165.39C88.1591 165.39 88.3061 165.444 88.4135 165.551C88.5255 165.654 88.5815 165.791 88.5815 165.964V167H81.6375V166.426C81.6375 166.309 81.6608 166.188 81.7075 166.062C81.7588 165.931 81.8381 165.815 81.9455 165.712L85.0185 162.632C85.2751 162.371 85.5038 162.121 85.7045 161.883C85.9098 161.645 86.0801 161.409 86.2155 161.176C86.3508 160.943 86.4535 160.707 86.5235 160.469C86.5981 160.226 86.6355 159.972 86.6355 159.706C86.6355 159.463 86.6005 159.251 86.5305 159.069C86.4605 158.882 86.3601 158.726 86.2295 158.6C86.1035 158.474 85.9495 158.381 85.7675 158.32C85.5901 158.255 85.3895 158.222 85.1655 158.222C84.9601 158.222 84.7688 158.252 84.5915 158.313C84.4188 158.369 84.2648 158.451 84.1295 158.558C83.9941 158.661 83.8798 158.782 83.7865 158.922C83.6931 159.062 83.6231 159.216 83.5765 159.384C83.4971 159.599 83.3945 159.741 83.2685 159.811C83.1425 159.881 82.9605 159.897 82.7225 159.86L81.8125 159.699C81.8825 159.214 82.0178 158.789 82.2185 158.425C82.4191 158.056 82.6688 157.751 82.9675 157.508C83.2708 157.261 83.6161 157.076 84.0035 156.955C84.3955 156.829 84.8155 156.766 85.2635 156.766C85.7301 156.766 86.1571 156.836 86.5445 156.976C86.9318 157.111 87.2631 157.305 87.5385 157.557C87.8138 157.809 88.0285 158.112 88.1825 158.467C88.3365 158.822 88.4135 159.216 88.4135 159.65C88.4135 160.023 88.3575 160.369 88.2455 160.686C88.1381 161.003 87.9911 161.307 87.8045 161.596C87.6225 161.885 87.4078 162.165 87.1605 162.436C86.9131 162.707 86.6541 162.982 86.3835 163.262L84.1015 165.593C84.3208 165.528 84.5378 165.479 84.7525 165.446C84.9718 165.409 85.1795 165.39 85.3755 165.39H87.9725ZM94.4416 159.328C94.4416 159.711 94.3762 160.056 94.2456 160.364C94.1196 160.672 93.9492 160.936 93.7346 161.155C93.5199 161.37 93.2702 161.535 92.9856 161.652C92.7009 161.769 92.4046 161.827 92.0966 161.827C91.7606 161.827 91.4502 161.769 91.1656 161.652C90.8809 161.535 90.6336 161.37 90.4236 161.155C90.2182 160.936 90.0572 160.672 89.9406 160.364C89.8239 160.056 89.7656 159.711 89.7656 159.328C89.7656 158.936 89.8239 158.581 89.9406 158.264C90.0572 157.947 90.2182 157.678 90.4236 157.459C90.6336 157.24 90.8809 157.072 91.1656 156.955C91.4502 156.834 91.7606 156.773 92.0966 156.773C92.4326 156.773 92.7429 156.834 93.0276 156.955C93.3169 157.072 93.5666 157.24 93.7766 157.459C93.9866 157.678 94.1499 157.947 94.2666 158.264C94.3832 158.581 94.4416 158.936 94.4416 159.328ZM93.1116 159.328C93.1116 159.057 93.0836 158.831 93.0276 158.649C92.9762 158.467 92.9039 158.32 92.8106 158.208C92.7219 158.096 92.6146 158.017 92.4886 157.97C92.3672 157.919 92.2366 157.893 92.0966 157.893C91.9566 157.893 91.8259 157.919 91.7046 157.97C91.5832 158.017 91.4782 158.096 91.3896 158.208C91.3056 158.32 91.2379 158.467 91.1866 158.649C91.1352 158.831 91.1096 159.057 91.1096 159.328C91.1096 159.589 91.1352 159.809 91.1866 159.986C91.2379 160.159 91.3056 160.299 91.3896 160.406C91.4782 160.513 91.5832 160.59 91.7046 160.637C91.8259 160.684 91.9566 160.707 92.0966 160.707C92.2366 160.707 92.3672 160.684 92.4886 160.637C92.6146 160.59 92.7219 160.513 92.8106 160.406C92.9039 160.299 92.9762 160.159 93.0276 159.986C93.0836 159.809 93.1116 159.589 93.1116 159.328ZM97.8086 157.151C97.8692 157.081 97.9392 157.018 98.0186 156.962C98.1026 156.906 98.2192 156.878 98.3686 156.878H99.6286L92.1106 166.741C92.0499 166.816 91.9776 166.879 91.8936 166.93C91.8096 166.977 91.7069 167 91.5856 167H90.2976L97.8086 157.151ZM100.161 164.62C100.161 165.003 100.095 165.348 99.9646 165.656C99.8386 165.964 99.6682 166.228 99.4536 166.447C99.2389 166.662 98.9892 166.83 98.7046 166.951C98.4199 167.068 98.1236 167.126 97.8156 167.126C97.4796 167.126 97.1692 167.068 96.8846 166.951C96.5999 166.83 96.3526 166.662 96.1426 166.447C95.9372 166.228 95.7762 165.964 95.6596 165.656C95.5429 165.348 95.4846 165.003 95.4846 164.62C95.4846 164.228 95.5429 163.873 95.6596 163.556C95.7762 163.239 95.9372 162.97 96.1426 162.751C96.3526 162.532 96.5999 162.364 96.8846 162.247C97.1692 162.126 97.4796 162.065 97.8156 162.065C98.1516 162.065 98.4619 162.126 98.7466 162.247C99.0359 162.364 99.2832 162.532 99.4886 162.751C99.6986 162.97 99.8619 163.239 99.9786 163.556C100.1 163.873 100.161 164.228 100.161 164.62ZM98.8236 164.62C98.8236 164.349 98.7979 164.123 98.7466 163.941C98.6952 163.759 98.6229 163.612 98.5296 163.5C98.4409 163.388 98.3336 163.309 98.2076 163.262C98.0862 163.211 97.9556 163.185 97.8156 163.185C97.6756 163.185 97.5449 163.211 97.4236 163.262C97.3022 163.309 97.1972 163.388 97.1086 163.5C97.0199 163.612 96.9499 163.759 96.8986 163.941C96.8519 164.123 96.8286 164.349 96.8286 164.62C96.8286 164.881 96.8519 165.101 96.8986 165.278C96.9499 165.455 97.0199 165.598 97.1086 165.705C97.1972 165.812 97.3022 165.889 97.4236 165.936C97.5449 165.983 97.6756 166.006 97.8156 166.006C97.9556 166.006 98.0862 165.983 98.2076 165.936C98.3336 165.889 98.4409 165.812 98.5296 165.705C98.6229 165.598 98.6952 165.455 98.7466 165.278C98.7979 165.101 98.8236 164.881 98.8236 164.62Z" fill="white"/>
<path d="M23 170.57H100.7V171.263H23V170.57Z" fill="white"/>
<path d="M201.66 156.878V167H200.694C200.545 167 200.419 166.977 200.316 166.93C200.218 166.879 200.122 166.795 200.029 166.678L194.744 159.93C194.772 160.238 194.786 160.523 194.786 160.784V167H193.127V156.878H194.114C194.193 156.878 194.261 156.883 194.317 156.892C194.378 156.897 194.429 156.911 194.471 156.934C194.518 156.953 194.562 156.983 194.604 157.025C194.646 157.062 194.693 157.114 194.744 157.179L200.05 163.955C200.036 163.792 200.024 163.631 200.015 163.472C200.006 163.313 200.001 163.166 200.001 163.031V156.878H201.66ZM206.6 159.706C207.132 159.706 207.615 159.792 208.049 159.965C208.488 160.138 208.861 160.383 209.169 160.7C209.482 161.017 209.722 161.405 209.89 161.862C210.058 162.319 210.142 162.83 210.142 163.395C210.142 163.964 210.058 164.478 209.89 164.935C209.722 165.392 209.482 165.782 209.169 166.104C208.861 166.426 208.488 166.673 208.049 166.846C207.615 167.019 207.132 167.105 206.6 167.105C206.064 167.105 205.576 167.019 205.137 166.846C204.699 166.673 204.323 166.426 204.01 166.104C203.702 165.782 203.462 165.392 203.289 164.935C203.121 164.478 203.037 163.964 203.037 163.395C203.037 162.83 203.121 162.319 203.289 161.862C203.462 161.405 203.702 161.017 204.01 160.7C204.323 160.383 204.699 160.138 205.137 159.965C205.576 159.792 206.064 159.706 206.6 159.706ZM206.6 165.775C207.198 165.775 207.639 165.574 207.923 165.173C208.213 164.772 208.357 164.184 208.357 163.409C208.357 162.634 208.213 162.044 207.923 161.638C207.639 161.232 207.198 161.029 206.6 161.029C205.994 161.029 205.543 161.234 205.249 161.645C204.96 162.051 204.815 162.639 204.815 163.409C204.815 164.179 204.96 164.767 205.249 165.173C205.543 165.574 205.994 165.775 206.6 165.775ZM215.37 167V161.12L214.747 161.022C214.611 160.994 214.502 160.947 214.418 160.882C214.338 160.812 214.299 160.714 214.299 160.588V159.881H215.37V159.349C215.37 158.938 215.43 158.57 215.552 158.243C215.678 157.916 215.855 157.639 216.084 157.41C216.317 157.181 216.599 157.006 216.931 156.885C217.262 156.764 217.635 156.703 218.051 156.703C218.382 156.703 218.69 156.747 218.975 156.836L218.94 157.704C218.935 157.769 218.916 157.823 218.884 157.865C218.851 157.902 218.807 157.933 218.751 157.956C218.699 157.975 218.639 157.989 218.569 157.998C218.499 158.003 218.424 158.005 218.345 158.005C218.139 158.005 217.955 158.028 217.792 158.075C217.633 158.117 217.498 158.194 217.386 158.306C217.274 158.413 217.187 158.558 217.127 158.74C217.071 158.917 217.043 159.139 217.043 159.405V159.881H218.912V161.113H217.099V167H215.37ZM223.65 163.934C223.151 163.957 222.731 164.002 222.39 164.067C222.049 164.128 221.776 164.207 221.571 164.305C221.366 164.403 221.219 164.517 221.13 164.648C221.041 164.779 220.997 164.921 220.997 165.075C220.997 165.378 221.086 165.595 221.263 165.726C221.445 165.857 221.681 165.922 221.97 165.922C222.325 165.922 222.63 165.859 222.887 165.733C223.148 165.602 223.403 165.406 223.65 165.145V163.934ZM219.688 160.819C220.514 160.063 221.508 159.685 222.67 159.685C223.09 159.685 223.466 159.755 223.797 159.895C224.128 160.03 224.408 160.222 224.637 160.469C224.866 160.712 225.038 161.003 225.155 161.344C225.276 161.685 225.337 162.058 225.337 162.464V167H224.553C224.39 167 224.264 166.977 224.175 166.93C224.086 166.879 224.016 166.778 223.965 166.629L223.811 166.111C223.629 166.274 223.452 166.419 223.279 166.545C223.106 166.666 222.927 166.769 222.74 166.853C222.553 166.937 222.353 167 222.138 167.042C221.928 167.089 221.695 167.112 221.438 167.112C221.135 167.112 220.855 167.072 220.598 166.993C220.341 166.909 220.12 166.785 219.933 166.622C219.746 166.459 219.602 166.256 219.499 166.013C219.396 165.77 219.345 165.488 219.345 165.166C219.345 164.984 219.375 164.804 219.436 164.627C219.497 164.445 219.595 164.272 219.73 164.109C219.87 163.946 220.05 163.792 220.269 163.647C220.488 163.502 220.757 163.376 221.074 163.269C221.396 163.162 221.769 163.075 222.194 163.01C222.619 162.94 223.104 162.898 223.65 162.884V162.464C223.65 161.983 223.547 161.629 223.342 161.4C223.137 161.167 222.84 161.05 222.453 161.05C222.173 161.05 221.94 161.083 221.753 161.148C221.571 161.213 221.41 161.288 221.27 161.372C221.13 161.451 221.002 161.524 220.885 161.589C220.773 161.654 220.647 161.687 220.507 161.687C220.386 161.687 220.283 161.657 220.199 161.596C220.115 161.531 220.047 161.456 219.996 161.372L219.688 160.819ZM228.757 159.818V167H227.021V159.818H228.757ZM228.995 157.725C228.995 157.874 228.965 158.014 228.904 158.145C228.844 158.276 228.762 158.39 228.659 158.488C228.561 158.586 228.445 158.665 228.309 158.726C228.174 158.782 228.029 158.81 227.875 158.81C227.726 158.81 227.584 158.782 227.448 158.726C227.318 158.665 227.203 158.586 227.105 158.488C227.007 158.39 226.928 158.276 226.867 158.145C226.811 158.014 226.783 157.874 226.783 157.725C226.783 157.571 226.811 157.426 226.867 157.291C226.928 157.156 227.007 157.039 227.105 156.941C227.203 156.843 227.318 156.766 227.448 156.71C227.584 156.649 227.726 156.619 227.875 156.619C228.029 156.619 228.174 156.649 228.309 156.71C228.445 156.766 228.561 156.843 228.659 156.941C228.762 157.039 228.844 157.156 228.904 157.291C228.965 157.426 228.995 157.571 228.995 157.725ZM232.27 156.598V167H230.541V156.598H232.27ZM240.181 159.818V167H239.124C238.895 167 238.75 166.895 238.69 166.685L238.571 166.111C238.277 166.41 237.952 166.652 237.598 166.839C237.243 167.021 236.825 167.112 236.345 167.112C235.953 167.112 235.605 167.047 235.302 166.916C235.003 166.781 234.751 166.592 234.546 166.349C234.34 166.106 234.184 165.819 234.077 165.488C233.974 165.152 233.923 164.783 233.923 164.382V159.818H235.652V164.382C235.652 164.821 235.752 165.161 235.953 165.404C236.158 165.642 236.464 165.761 236.87 165.761C237.168 165.761 237.448 165.696 237.71 165.565C237.971 165.43 238.218 165.245 238.452 165.012V159.818H240.181ZM243.526 161.064C243.75 160.635 244.016 160.299 244.324 160.056C244.632 159.809 244.996 159.685 245.416 159.685C245.747 159.685 246.013 159.757 246.214 159.902L246.102 161.197C246.079 161.281 246.044 161.342 245.997 161.379C245.955 161.412 245.897 161.428 245.822 161.428C245.752 161.428 245.647 161.416 245.507 161.393C245.372 161.37 245.239 161.358 245.108 161.358C244.917 161.358 244.746 161.386 244.597 161.442C244.448 161.498 244.312 161.58 244.191 161.687C244.074 161.79 243.969 161.916 243.876 162.065C243.787 162.214 243.703 162.385 243.624 162.576V167H241.895V159.818H242.91C243.087 159.818 243.211 159.851 243.281 159.916C243.351 159.977 243.398 160.089 243.421 160.252L243.526 161.064ZM251.54 162.583C251.54 162.359 251.507 162.149 251.442 161.953C251.381 161.752 251.288 161.577 251.162 161.428C251.036 161.279 250.875 161.162 250.679 161.078C250.487 160.989 250.263 160.945 250.007 160.945C249.507 160.945 249.113 161.087 248.824 161.372C248.539 161.657 248.357 162.06 248.278 162.583H251.54ZM248.243 163.626C248.271 163.995 248.336 164.314 248.439 164.585C248.541 164.851 248.677 165.073 248.845 165.25C249.013 165.423 249.211 165.553 249.44 165.642C249.673 165.726 249.93 165.768 250.21 165.768C250.49 165.768 250.73 165.735 250.931 165.67C251.136 165.605 251.313 165.532 251.463 165.453C251.617 165.374 251.75 165.301 251.862 165.236C251.978 165.171 252.09 165.138 252.198 165.138C252.342 165.138 252.45 165.192 252.52 165.299L253.017 165.929C252.825 166.153 252.611 166.342 252.373 166.496C252.135 166.645 251.885 166.767 251.624 166.86C251.367 166.949 251.103 167.012 250.833 167.049C250.567 167.086 250.308 167.105 250.056 167.105C249.556 167.105 249.092 167.023 248.663 166.86C248.233 166.692 247.86 166.447 247.543 166.125C247.225 165.798 246.976 165.397 246.794 164.921C246.612 164.44 246.521 163.885 246.521 163.255C246.521 162.765 246.6 162.305 246.759 161.876C246.917 161.442 247.144 161.066 247.438 160.749C247.736 160.427 248.098 160.173 248.523 159.986C248.952 159.799 249.435 159.706 249.972 159.706C250.424 159.706 250.842 159.778 251.225 159.923C251.607 160.068 251.936 160.28 252.212 160.56C252.487 160.835 252.702 161.176 252.856 161.582C253.014 161.983 253.094 162.443 253.094 162.961C253.094 163.222 253.066 163.4 253.01 163.493C252.954 163.582 252.846 163.626 252.688 163.626H248.243ZM258.773 161.218C258.726 161.293 258.677 161.346 258.626 161.379C258.575 161.407 258.509 161.421 258.43 161.421C258.346 161.421 258.255 161.398 258.157 161.351C258.064 161.304 257.954 161.253 257.828 161.197C257.702 161.136 257.557 161.083 257.394 161.036C257.235 160.989 257.046 160.966 256.827 160.966C256.486 160.966 256.218 161.038 256.022 161.183C255.831 161.328 255.735 161.517 255.735 161.75C255.735 161.904 255.784 162.035 255.882 162.142C255.985 162.245 256.118 162.336 256.281 162.415C256.449 162.494 256.638 162.567 256.848 162.632C257.058 162.693 257.27 162.76 257.485 162.835C257.704 162.91 257.919 162.996 258.129 163.094C258.339 163.187 258.526 163.309 258.689 163.458C258.857 163.603 258.99 163.778 259.088 163.983C259.191 164.188 259.242 164.436 259.242 164.725C259.242 165.07 259.179 165.39 259.053 165.684C258.932 165.973 258.75 166.225 258.507 166.44C258.264 166.65 257.963 166.816 257.604 166.937C257.249 167.054 256.839 167.112 256.372 167.112C256.125 167.112 255.882 167.089 255.644 167.042C255.411 167 255.184 166.939 254.965 166.86C254.75 166.781 254.55 166.687 254.363 166.58C254.181 166.473 254.02 166.356 253.88 166.23L254.279 165.572C254.33 165.493 254.391 165.432 254.461 165.39C254.531 165.348 254.62 165.327 254.727 165.327C254.834 165.327 254.935 165.357 255.028 165.418C255.126 165.479 255.238 165.544 255.364 165.614C255.49 165.684 255.637 165.749 255.805 165.81C255.978 165.871 256.195 165.901 256.456 165.901C256.661 165.901 256.836 165.878 256.981 165.831C257.13 165.78 257.252 165.714 257.345 165.635C257.443 165.556 257.513 165.465 257.555 165.362C257.602 165.255 257.625 165.145 257.625 165.033C257.625 164.865 257.574 164.727 257.471 164.62C257.373 164.513 257.24 164.419 257.072 164.34C256.909 164.261 256.72 164.191 256.505 164.13C256.295 164.065 256.078 163.995 255.854 163.92C255.635 163.845 255.418 163.759 255.203 163.661C254.993 163.558 254.804 163.43 254.636 163.276C254.473 163.122 254.34 162.933 254.237 162.709C254.139 162.485 254.09 162.214 254.09 161.897C254.09 161.603 254.148 161.323 254.265 161.057C254.382 160.791 254.552 160.56 254.776 160.364C255.005 160.163 255.287 160.005 255.623 159.888C255.964 159.767 256.356 159.706 256.799 159.706C257.294 159.706 257.744 159.788 258.15 159.951C258.556 160.114 258.894 160.329 259.165 160.595L258.773 161.218Z" fill="white"/>
<path d="M192 170.57H259.69V171.263H192V170.57Z" fill="white"/>
<path d="M15 0.5H344C352.008 0.5 358.5 6.99187 358.5 15V231.5H0.5V15C0.5 6.99187 6.99187 0.5 15 0.5Z" stroke="#BBBDBF"/>
</g>
<defs>
<filter id="filter0_d" x="0" y="0" width="367" height="240" filterUnits="userSpaceOnUse" color-interpolation-filters="sRGB">
<feFlood flood-opacity="0" result="BackgroundImageFix"/>
<feColorMatrix in="SourceAlpha" type="matrix" values="0 0 0 0 0 0 0 0 0 0 0 0 0 0 0 0 0 0 127 0"/>
<feOffset dx="4" dy="4"/>
<feGaussianBlur stdDeviation="2"/>
<feColorMatrix type="matrix" values="0 0 0 0 0 0 0 0 0 0 0 0 0 0 0 0 0 0 0.1 0"/>
<feBlend mode="normal" in2="BackgroundImageFix" result="effect1_dropShadow"/>
<feBlend mode="normal" in="SourceGraphic" in2="effect1_dropShadow" result="shape"/>
</filter>
</defs>
</svg>
