<svg width="400" height="276" fill="none" xmlns="http://www.w3.org/2000/svg"><g clip-path="url(#clip0)"><path d="M156.019 103.28c0-2.053 1.667-3.618 3.628-3.618h204.364a3.615 3.615 0 0 1 3.628 3.618v142.597h12.944V99.759c0-5.28-4.314-9.584-9.61-9.584H152.684c-5.295 0-9.61 4.303-9.61 9.585v146.019h12.945V103.28z" fill="#000"/><path d="M279.285 253.212h-34.812v7.726h34.812v-7.726z" fill="#727272"/><path d="M286.639 253.212v11.345c0 2.054-1.667 3.619-3.628 3.619h-42.168a3.615 3.615 0 0 1-3.628-3.619v-11.345H123.756C125.521 266.024 136.602 276 150.037 276h223.682c13.337 0 24.516-9.976 26.281-22.788H286.639z" fill="#C4C4C4"/><path d="M364.11 99.564H159.648a3.615 3.615 0 0 0-3.628 3.618v142.597h211.718V103.28c0-2.054-1.667-3.716-3.628-3.716zM107.967 143.184H36.773c-3.334 0-5.1 1.76-5.1 5.085v97.314c0 3.326 1.766 5.086 5.1 5.086h71.194c3.334 0 5.099-1.858 5.099-5.086v-97.314c0-3.227-1.863-5.085-5.099-5.085z" fill="#B2E3FF"/><path d="M117.969 197.269c0 20.245-.098 40.588 0 60.833.196 8.313-5.589 15.551-13.827 17.311-1.177.294-2.451.392-3.726.392H43.931c-8.237.097-15.297-5.575-17.063-13.595a21.33 21.33 0 0 1-.294-3.521V135.751c.098-8.803 6.767-16.04 15.494-17.018.98-.098 2.06-.196 3.04-.196h54.818a17.93 17.93 0 0 1 10.59 3.13c4.805 3.032 7.649 8.411 7.551 14.181-.098 20.539-.098 40.98-.098 61.421zm-6.864-.294v-48.706c0-2.249-.883-3.129-3.138-3.129H36.773c-2.256 0-3.138.88-3.138 3.129v97.314c0 2.348.882 3.13 3.138 3.13h71.194c2.255 0 3.138-.978 3.138-3.13v-48.608zm-38.833 73.059c4.314 0 7.845-3.521 7.845-7.824s-3.53-7.824-7.845-7.824c-4.315 0-7.845 3.521-7.845 7.824s3.53 7.824 7.845 7.824zm0-138.293h12.061c.883.098 1.668-.489 1.766-1.369 0-.881-.687-1.565-1.57-1.565H60.603c-.392-.098-.686 0-1.078.195-.393.391-.883.881-.883 1.272s.49.978.883 1.271c.294.196.686.196 1.078.196h11.67z" fill="#000"/><path d="M127.482 0H12.65C5.688 0 0 5.673 0 12.617v67.288c0 6.944 5.688 12.617 12.65 12.617H39.323l22.85 22.788V92.522h65.309c6.963 0 12.65-5.673 12.65-12.617V12.617c0-6.944-5.687-12.617-12.65-12.617z" fill="#B2E3FF"/><path d="M131.797 79.905a4.18 4.18 0 0 1-4.217 4.206H53.837v10.856l-2.452-2.445-8.433-8.411H12.65a4.18 4.18 0 0 1-4.216-4.206h.098V12.617a4.18 4.18 0 0 1 4.216-4.206H127.58a4.18 4.18 0 0 1 4.217 4.206v67.288z" fill="#fff"/><path d="M92.18 25.723H30.498v5.379H92.18v-5.38zM92.18 40.295H30.498v5.38H92.18v-5.38zM92.18 54.868H30.498v5.38H92.18v-5.38zM54.622 69.44h-5.394v5.38h5.394v-5.38zM43.932 69.44H38.54v5.38h5.393v-5.38zM65.41 69.44h-5.394v5.38h5.393v-5.38z" fill="#000"/><path d="M96.003 174.188h-50.11v49.488a5.37 5.37 0 0 0 5.393 5.379h43.05c2.942 0 5.393-2.445 5.393-5.379v-49.488h-3.726z" fill="#fff"/><path d="M94.238 163.918h-43.05c-2.942 0-5.393 2.445-5.393 5.379v4.89h53.64v-4.89a5.206 5.206 0 0 0-5.197-5.379zM91.001 191.987H54.424v3.13H91v-3.13zM91.001 200.691H54.424v3.13H91v-3.13zM91.001 209.299H54.424v3.227H91v-3.227zM68.644 217.905h-3.138v3.13h3.138v-3.13zM62.269 217.905H59.13v3.13h3.138v-3.13zM75.017 217.905h-3.138v3.13h3.138v-3.13zM156.019 106.214c0-2.053 1.667-3.618 3.628-3.618h204.364a3.614 3.614 0 0 1 3.628 3.618v139.663h12.944V99.759c0-5.28-4.314-9.584-9.61-9.584H152.684c-5.295 0-9.61 4.303-9.61 9.585v146.019h12.945V106.214z" fill="#000"/><path d="M338.122 60.246H206.619v129.589c0 7.726 6.276 13.986 14.023 13.986H333.415c7.747 0 14.023-6.26 14.023-13.986V60.246h-9.316z" fill="#fff"/><path d="M333.415 33.35H220.642c-7.747 0-14.023 6.26-14.023 13.986v12.91H347.34V47.434c.098-7.726-6.178-14.083-13.925-14.083zM325.08 97.118h-96.004v8.313h96.004v-8.313zM325.08 119.809h-96.004v8.313h96.004v-8.313zM325.08 142.499h-96.004v8.313h96.004v-8.313zM266.537 165.189h-8.336v8.314h8.336v-8.314zM249.865 165.189h-8.336v8.314h8.336v-8.314zM283.306 165.189h-8.335v8.314h8.335v-8.314z" fill="#000"/></g><defs><clipPath id="clip0"><path fill="#fff" d="M0 0h400v276H0z"/></clipPath></defs></svg>