<svg width="336" height="352" viewBox="0 0 336 352" fill="none" xmlns="http://www.w3.org/2000/svg">
<rect x="0.5" y="24.5" width="335" height="295" rx="19.5" fill="white"/>
<path d="M0 44C0 32.9543 8.95431 24 20 24H316C327.046 24 336 32.9543 336 44V80H0V44Z" fill="#DADADB"/>
<rect x="0.5" y="24.5" width="335" height="295" rx="19.5" stroke="#DADADB"/>
<g filter="url(#filter0_d)">
<rect x="16" width="304" height="344" rx="25" fill="white"/>
<path d="M118.917 238.718V244.724C118.917 245.365 118.787 245.946 118.527 246.466C118.267 246.977 117.868 247.385 117.331 247.688C116.802 247.983 116.126 248.13 115.303 248.13C114.15 248.13 113.271 247.818 112.664 247.194C112.066 246.561 111.767 245.729 111.767 244.698V238.718H112.937V244.737C112.937 245.491 113.136 246.076 113.535 246.492C113.942 246.908 114.553 247.116 115.368 247.116C116.209 247.116 116.815 246.895 117.188 246.453C117.569 246.002 117.76 245.426 117.76 244.724V238.718H118.917ZM125.101 240.902C125.933 240.902 126.561 241.106 126.986 241.513C127.41 241.912 127.623 242.562 127.623 243.463V248H126.492V243.541C126.492 242.423 125.972 241.864 124.932 241.864C124.16 241.864 123.627 242.081 123.333 242.514C123.038 242.947 122.891 243.571 122.891 244.386V248H121.747V241.032H122.67L122.839 241.981H122.904C123.129 241.617 123.441 241.348 123.84 241.175C124.238 240.993 124.659 240.902 125.101 240.902ZM131.462 248H130.318V238.12H131.462V248ZM134.791 238.419C134.964 238.419 135.116 238.48 135.246 238.601C135.384 238.714 135.454 238.896 135.454 239.147C135.454 239.39 135.384 239.572 135.246 239.693C135.116 239.814 134.964 239.875 134.791 239.875C134.6 239.875 134.44 239.814 134.31 239.693C134.18 239.572 134.115 239.39 134.115 239.147C134.115 238.896 134.18 238.714 134.31 238.601C134.44 238.48 134.6 238.419 134.791 238.419ZM135.35 241.032V248H134.206V241.032H135.35ZM145.737 240.902C146.526 240.902 147.115 241.106 147.505 241.513C147.895 241.912 148.09 242.562 148.09 243.463V248H146.959V243.515C146.959 242.414 146.487 241.864 145.542 241.864C144.866 241.864 144.381 242.059 144.086 242.449C143.8 242.839 143.657 243.407 143.657 244.152V248H142.526V243.515C142.526 242.414 142.049 241.864 141.096 241.864C140.394 241.864 139.909 242.081 139.64 242.514C139.371 242.947 139.237 243.571 139.237 244.386V248H138.093V241.032H139.016L139.185 241.981H139.25C139.467 241.617 139.757 241.348 140.121 241.175C140.494 240.993 140.888 240.902 141.304 240.902C142.396 240.902 143.107 241.292 143.436 242.072H143.501C143.735 241.673 144.051 241.379 144.45 241.188C144.857 240.997 145.286 240.902 145.737 240.902ZM151.363 238.419C151.536 238.419 151.688 238.48 151.818 238.601C151.957 238.714 152.026 238.896 152.026 239.147C152.026 239.39 151.957 239.572 151.818 239.693C151.688 239.814 151.536 239.875 151.363 239.875C151.172 239.875 151.012 239.814 150.882 239.693C150.752 239.572 150.687 239.39 150.687 239.147C150.687 238.896 150.752 238.714 150.882 238.601C151.012 238.48 151.172 238.419 151.363 238.419ZM151.922 241.032V248H150.778V241.032H151.922ZM156.992 247.194C157.166 247.194 157.343 247.181 157.525 247.155C157.707 247.12 157.855 247.086 157.967 247.051V247.922C157.846 247.983 157.673 248.03 157.447 248.065C157.222 248.108 157.005 248.13 156.797 248.13C156.433 248.13 156.095 248.069 155.783 247.948C155.48 247.818 155.233 247.597 155.042 247.285C154.852 246.973 154.756 246.535 154.756 245.972V241.916H153.768V241.37L154.769 240.915L155.224 239.433H155.9V241.032H157.915V241.916H155.9V245.946C155.9 246.371 156 246.687 156.199 246.895C156.407 247.094 156.672 247.194 156.992 247.194ZM162.589 240.902C163.187 240.902 163.699 241.032 164.123 241.292C164.557 241.552 164.886 241.92 165.111 242.397C165.345 242.865 165.462 243.415 165.462 244.048V244.737H160.691C160.709 245.526 160.908 246.128 161.289 246.544C161.679 246.951 162.221 247.155 162.914 247.155C163.356 247.155 163.746 247.116 164.084 247.038C164.431 246.951 164.786 246.83 165.15 246.674V247.675C164.795 247.831 164.444 247.944 164.097 248.013C163.751 248.091 163.339 248.13 162.862 248.13C162.204 248.13 161.619 247.996 161.107 247.727C160.605 247.458 160.21 247.06 159.924 246.531C159.647 245.994 159.508 245.339 159.508 244.568C159.508 243.805 159.634 243.151 159.885 242.605C160.145 242.059 160.505 241.639 160.964 241.344C161.432 241.049 161.974 240.902 162.589 240.902ZM162.576 241.838C162.03 241.838 161.597 242.016 161.276 242.371C160.964 242.718 160.778 243.203 160.717 243.827H164.266C164.258 243.238 164.119 242.761 163.85 242.397C163.582 242.024 163.157 241.838 162.576 241.838ZM170.242 248.13C169.375 248.13 168.682 247.831 168.162 247.233C167.642 246.626 167.382 245.725 167.382 244.529C167.382 243.333 167.642 242.432 168.162 241.825C168.691 241.21 169.388 240.902 170.255 240.902C170.792 240.902 171.23 241.002 171.568 241.201C171.915 241.4 172.196 241.643 172.413 241.929H172.491C172.482 241.816 172.465 241.652 172.439 241.435C172.422 241.21 172.413 241.032 172.413 240.902V238.12H173.557V248H172.634L172.465 247.064H172.413C172.205 247.359 171.928 247.61 171.581 247.818C171.234 248.026 170.788 248.13 170.242 248.13ZM170.424 247.181C171.161 247.181 171.676 246.982 171.971 246.583C172.274 246.176 172.426 245.565 172.426 244.75V244.542C172.426 243.675 172.283 243.012 171.997 242.553C171.711 242.085 171.182 241.851 170.411 241.851C169.796 241.851 169.332 242.098 169.02 242.592C168.717 243.077 168.565 243.732 168.565 244.555C168.565 245.387 168.717 246.033 169.02 246.492C169.332 246.951 169.8 247.181 170.424 247.181ZM182.909 240.902C183.507 240.902 184.019 241.032 184.443 241.292C184.877 241.552 185.206 241.92 185.431 242.397C185.665 242.865 185.782 243.415 185.782 244.048V244.737H181.011C181.029 245.526 181.228 246.128 181.609 246.544C181.999 246.951 182.541 247.155 183.234 247.155C183.676 247.155 184.066 247.116 184.404 247.038C184.751 246.951 185.106 246.83 185.47 246.674V247.675C185.115 247.831 184.764 247.944 184.417 248.013C184.071 248.091 183.659 248.13 183.182 248.13C182.524 248.13 181.939 247.996 181.427 247.727C180.925 247.458 180.53 247.06 180.244 246.531C179.967 245.994 179.828 245.339 179.828 244.568C179.828 243.805 179.954 243.151 180.205 242.605C180.465 242.059 180.825 241.639 181.284 241.344C181.752 241.049 182.294 240.902 182.909 240.902ZM182.896 241.838C182.35 241.838 181.917 242.016 181.596 242.371C181.284 242.718 181.098 243.203 181.037 243.827H184.586C184.578 243.238 184.439 242.761 184.17 242.397C183.902 242.024 183.477 241.838 182.896 241.838ZM195.736 240.902C196.525 240.902 197.114 241.106 197.504 241.513C197.894 241.912 198.089 242.562 198.089 243.463V248H196.958V243.515C196.958 242.414 196.486 241.864 195.541 241.864C194.865 241.864 194.38 242.059 194.085 242.449C193.799 242.839 193.656 243.407 193.656 244.152V248H192.525V243.515C192.525 242.414 192.048 241.864 191.095 241.864C190.393 241.864 189.908 242.081 189.639 242.514C189.37 242.947 189.236 243.571 189.236 244.386V248H188.092V241.032H189.015L189.184 241.981H189.249C189.466 241.617 189.756 241.348 190.12 241.175C190.493 240.993 190.887 240.902 191.303 240.902C192.395 240.902 193.106 241.292 193.435 242.072H193.5C193.734 241.673 194.05 241.379 194.449 241.188C194.856 240.997 195.285 240.902 195.736 240.902ZM203.416 240.915C204.265 240.915 204.894 241.101 205.301 241.474C205.708 241.847 205.912 242.44 205.912 243.255V248H205.08L204.859 247.012H204.807C204.504 247.393 204.183 247.675 203.845 247.857C203.516 248.039 203.056 248.13 202.467 248.13C201.834 248.13 201.31 247.965 200.894 247.636C200.478 247.298 200.27 246.774 200.27 246.063C200.27 245.37 200.543 244.837 201.089 244.464C201.635 244.083 202.476 243.875 203.611 243.84L204.794 243.801V243.385C204.794 242.804 204.668 242.401 204.417 242.176C204.166 241.951 203.81 241.838 203.351 241.838C202.987 241.838 202.64 241.894 202.311 242.007C201.982 242.111 201.674 242.232 201.388 242.371L201.037 241.513C201.34 241.348 201.7 241.21 202.116 241.097C202.532 240.976 202.965 240.915 203.416 240.915ZM204.781 244.594L203.754 244.633C202.887 244.668 202.285 244.806 201.947 245.049C201.618 245.292 201.453 245.634 201.453 246.076C201.453 246.466 201.57 246.752 201.804 246.934C202.047 247.116 202.354 247.207 202.727 247.207C203.316 247.207 203.806 247.047 204.196 246.726C204.586 246.397 204.781 245.894 204.781 245.218V244.594ZM209.185 238.419C209.358 238.419 209.51 238.48 209.64 238.601C209.779 238.714 209.848 238.896 209.848 239.147C209.848 239.39 209.779 239.572 209.64 239.693C209.51 239.814 209.358 239.875 209.185 239.875C208.994 239.875 208.834 239.814 208.704 239.693C208.574 239.572 208.509 239.39 208.509 239.147C208.509 238.896 208.574 238.714 208.704 238.601C208.834 238.48 208.994 238.419 209.185 238.419ZM209.744 241.032V248H208.6V241.032H209.744ZM213.631 248H212.487V238.12H213.631V248ZM220.912 246.076C220.912 246.752 220.66 247.263 220.158 247.61C219.655 247.957 218.979 248.13 218.13 248.13C217.644 248.13 217.224 248.091 216.869 248.013C216.522 247.935 216.214 247.827 215.946 247.688V246.648C216.223 246.787 216.557 246.917 216.947 247.038C217.345 247.151 217.748 247.207 218.156 247.207C218.736 247.207 219.157 247.116 219.417 246.934C219.677 246.743 219.807 246.492 219.807 246.18C219.807 246.007 219.759 245.851 219.664 245.712C219.568 245.573 219.395 245.435 219.144 245.296C218.901 245.157 218.55 245.001 218.091 244.828C217.64 244.655 217.254 244.481 216.934 244.308C216.613 244.135 216.366 243.927 216.193 243.684C216.019 243.441 215.933 243.129 215.933 242.748C215.933 242.159 216.171 241.704 216.648 241.383C217.133 241.062 217.766 240.902 218.546 240.902C218.97 240.902 219.365 240.945 219.729 241.032C220.101 241.11 220.448 241.223 220.769 241.37L220.379 242.28C220.084 242.159 219.776 242.055 219.456 241.968C219.135 241.881 218.806 241.838 218.468 241.838C218 241.838 217.64 241.916 217.389 242.072C217.146 242.219 217.025 242.423 217.025 242.683C217.025 242.874 217.081 243.038 217.194 243.177C217.306 243.307 217.493 243.437 217.753 243.567C218.021 243.688 218.377 243.836 218.819 244.009C219.261 244.174 219.638 244.343 219.95 244.516C220.262 244.689 220.5 244.902 220.665 245.153C220.829 245.396 220.912 245.703 220.912 246.076ZM89.7468 259.718H92.3988C93.5601 259.718 94.4354 259.891 95.0248 260.238C95.6228 260.576 95.9218 261.17 95.9218 262.019C95.9218 262.565 95.7701 263.02 95.4668 263.384C95.1634 263.739 94.7258 263.969 94.1538 264.073V264.138C94.5438 264.199 94.8948 264.311 95.2068 264.476C95.5274 264.641 95.7788 264.875 95.9608 265.178C96.1428 265.481 96.2338 265.876 96.2338 266.361C96.2338 267.202 95.9434 267.852 95.3628 268.311C94.7908 268.77 94.0064 269 93.0098 269H89.7468V259.718ZM90.9168 263.67H92.6328C93.4301 263.67 93.9761 263.544 94.2708 263.293C94.5654 263.033 94.7128 262.652 94.7128 262.149C94.7128 261.638 94.5308 261.274 94.1668 261.057C93.8114 260.832 93.2394 260.719 92.4508 260.719H90.9168V263.67ZM90.9168 264.645V268.012H92.7888C93.6121 268.012 94.1841 267.852 94.5048 267.531C94.8254 267.21 94.9858 266.79 94.9858 266.27C94.9858 265.785 94.8168 265.395 94.4788 265.1C94.1494 264.797 93.5558 264.645 92.6978 264.645H90.9168ZM101.221 261.915C102.07 261.915 102.698 262.101 103.106 262.474C103.513 262.847 103.717 263.44 103.717 264.255V269H102.885L102.664 268.012H102.612C102.308 268.393 101.988 268.675 101.65 268.857C101.32 269.039 100.861 269.13 100.272 269.13C99.6389 269.13 99.1146 268.965 98.6986 268.636C98.2826 268.298 98.0746 267.774 98.0746 267.063C98.0746 266.37 98.3476 265.837 98.8936 265.464C99.4396 265.083 100.28 264.875 101.416 264.84L102.599 264.801V264.385C102.599 263.804 102.473 263.401 102.222 263.176C101.97 262.951 101.615 262.838 101.156 262.838C100.792 262.838 100.445 262.894 100.116 263.007C99.7862 263.111 99.4786 263.232 99.1926 263.371L98.8416 262.513C99.1449 262.348 99.5046 262.21 99.9206 262.097C100.337 261.976 100.77 261.915 101.221 261.915ZM102.586 265.594L101.559 265.633C100.692 265.668 100.09 265.806 99.7516 266.049C99.4222 266.292 99.2576 266.634 99.2576 267.076C99.2576 267.466 99.3746 267.752 99.6086 267.934C99.8512 268.116 100.159 268.207 100.532 268.207C101.121 268.207 101.611 268.047 102.001 267.726C102.391 267.397 102.586 266.894 102.586 266.218V265.594ZM108.731 268.194C108.905 268.194 109.082 268.181 109.264 268.155C109.446 268.12 109.594 268.086 109.706 268.051V268.922C109.585 268.983 109.412 269.03 109.186 269.065C108.961 269.108 108.744 269.13 108.536 269.13C108.172 269.13 107.834 269.069 107.522 268.948C107.219 268.818 106.972 268.597 106.781 268.285C106.591 267.973 106.495 267.535 106.495 266.972V262.916H105.507V262.37L106.508 261.915L106.963 260.433H107.639V262.032H109.654V262.916H107.639V266.946C107.639 267.371 107.739 267.687 107.938 267.895C108.146 268.094 108.411 268.194 108.731 268.194ZM114.432 269.13C113.817 269.13 113.267 269.004 112.781 268.753C112.305 268.502 111.928 268.112 111.65 267.583C111.382 267.054 111.247 266.378 111.247 265.555C111.247 264.697 111.39 263.999 111.676 263.462C111.962 262.925 112.348 262.53 112.833 262.279C113.327 262.028 113.886 261.902 114.51 261.902C114.866 261.902 115.208 261.941 115.537 262.019C115.867 262.088 116.135 262.175 116.343 262.279L115.992 263.228C115.784 263.15 115.542 263.076 115.264 263.007C114.987 262.938 114.727 262.903 114.484 262.903C113.115 262.903 112.43 263.783 112.43 265.542C112.43 266.383 112.595 267.028 112.924 267.479C113.262 267.921 113.761 268.142 114.419 268.142C114.801 268.142 115.134 268.103 115.42 268.025C115.715 267.947 115.984 267.852 116.226 267.739V268.753C115.992 268.874 115.732 268.965 115.446 269.026C115.169 269.095 114.831 269.13 114.432 269.13ZM119.563 259.12V262.019C119.563 262.366 119.542 262.691 119.498 262.994H119.576C119.802 262.639 120.105 262.37 120.486 262.188C120.876 262.006 121.297 261.915 121.747 261.915C122.597 261.915 123.234 262.119 123.658 262.526C124.083 262.925 124.295 263.57 124.295 264.463V269H123.164V264.541C123.164 263.423 122.644 262.864 121.604 262.864C120.824 262.864 120.287 263.085 119.992 263.527C119.706 263.96 119.563 264.584 119.563 265.399V269H118.419V259.12H119.563ZM135.441 267.076C135.441 267.752 135.189 268.263 134.687 268.61C134.184 268.957 133.508 269.13 132.659 269.13C132.173 269.13 131.753 269.091 131.398 269.013C131.051 268.935 130.743 268.827 130.475 268.688V267.648C130.752 267.787 131.086 267.917 131.476 268.038C131.874 268.151 132.277 268.207 132.685 268.207C133.265 268.207 133.686 268.116 133.946 267.934C134.206 267.743 134.336 267.492 134.336 267.18C134.336 267.007 134.288 266.851 134.193 266.712C134.097 266.573 133.924 266.435 133.673 266.296C133.43 266.157 133.079 266.001 132.62 265.828C132.169 265.655 131.783 265.481 131.463 265.308C131.142 265.135 130.895 264.927 130.722 264.684C130.548 264.441 130.462 264.129 130.462 263.748C130.462 263.159 130.7 262.704 131.177 262.383C131.662 262.062 132.295 261.902 133.075 261.902C133.499 261.902 133.894 261.945 134.258 262.032C134.63 262.11 134.977 262.223 135.298 262.37L134.908 263.28C134.613 263.159 134.305 263.055 133.985 262.968C133.664 262.881 133.335 262.838 132.997 262.838C132.529 262.838 132.169 262.916 131.918 263.072C131.675 263.219 131.554 263.423 131.554 263.683C131.554 263.874 131.61 264.038 131.723 264.177C131.835 264.307 132.022 264.437 132.282 264.567C132.55 264.688 132.906 264.836 133.348 265.009C133.79 265.174 134.167 265.343 134.479 265.516C134.791 265.689 135.029 265.902 135.194 266.153C135.358 266.396 135.441 266.703 135.441 267.076ZM140.351 261.902C140.949 261.902 141.46 262.032 141.885 262.292C142.318 262.552 142.648 262.92 142.873 263.397C143.107 263.865 143.224 264.415 143.224 265.048V265.737H138.453C138.47 266.526 138.67 267.128 139.051 267.544C139.441 267.951 139.983 268.155 140.676 268.155C141.118 268.155 141.508 268.116 141.846 268.038C142.193 267.951 142.548 267.83 142.912 267.674V268.675C142.557 268.831 142.206 268.944 141.859 269.013C141.512 269.091 141.101 269.13 140.624 269.13C139.965 269.13 139.38 268.996 138.869 268.727C138.366 268.458 137.972 268.06 137.686 267.531C137.409 266.994 137.27 266.339 137.27 265.568C137.27 264.805 137.396 264.151 137.647 263.605C137.907 263.059 138.267 262.639 138.726 262.344C139.194 262.049 139.736 261.902 140.351 261.902ZM140.338 262.838C139.792 262.838 139.359 263.016 139.038 263.371C138.726 263.718 138.54 264.203 138.479 264.827H142.028C142.019 264.238 141.881 263.761 141.612 263.397C141.343 263.024 140.919 262.838 140.338 262.838ZM148.888 261.902C149.72 261.902 150.348 262.106 150.773 262.513C151.197 262.912 151.41 263.562 151.41 264.463V269H150.279V264.541C150.279 263.423 149.759 262.864 148.719 262.864C147.947 262.864 147.414 263.081 147.12 263.514C146.825 263.947 146.678 264.571 146.678 265.386V269H145.534V262.032H146.457L146.626 262.981H146.691C146.916 262.617 147.228 262.348 147.627 262.175C148.025 261.993 148.446 261.902 148.888 261.902ZM156.576 269.13C155.709 269.13 155.016 268.831 154.496 268.233C153.976 267.626 153.716 266.725 153.716 265.529C153.716 264.333 153.976 263.432 154.496 262.825C155.024 262.21 155.722 261.902 156.589 261.902C157.126 261.902 157.564 262.002 157.902 262.201C158.248 262.4 158.53 262.643 158.747 262.929H158.825C158.816 262.816 158.799 262.652 158.773 262.435C158.755 262.21 158.747 262.032 158.747 261.902V259.12H159.891V269H158.968L158.799 268.064H158.747C158.539 268.359 158.261 268.61 157.915 268.818C157.568 269.026 157.122 269.13 156.576 269.13ZM156.758 268.181C157.494 268.181 158.01 267.982 158.305 267.583C158.608 267.176 158.76 266.565 158.76 265.75V265.542C158.76 264.675 158.617 264.012 158.331 263.553C158.045 263.085 157.516 262.851 156.745 262.851C156.129 262.851 155.666 263.098 155.354 263.592C155.05 264.077 154.899 264.732 154.899 265.555C154.899 266.387 155.05 267.033 155.354 267.492C155.666 267.951 156.134 268.181 156.758 268.181ZM168.879 268.194C169.052 268.194 169.23 268.181 169.412 268.155C169.594 268.12 169.741 268.086 169.854 268.051V268.922C169.733 268.983 169.559 269.03 169.334 269.065C169.109 269.108 168.892 269.13 168.684 269.13C168.32 269.13 167.982 269.069 167.67 268.948C167.367 268.818 167.12 268.597 166.929 268.285C166.738 267.973 166.643 267.535 166.643 266.972V262.916H165.655V262.37L166.656 261.915L167.111 260.433H167.787V262.032H169.802V262.916H167.787V266.946C167.787 267.371 167.887 267.687 168.086 267.895C168.294 268.094 168.558 268.194 168.879 268.194ZM177.843 265.503C177.843 266.656 177.548 267.548 176.959 268.181C176.378 268.814 175.59 269.13 174.593 269.13C173.978 269.13 173.427 268.991 172.942 268.714C172.465 268.428 172.088 268.016 171.811 267.479C171.534 266.933 171.395 266.274 171.395 265.503C171.395 264.35 171.685 263.462 172.266 262.838C172.847 262.214 173.635 261.902 174.632 261.902C175.265 261.902 175.819 262.045 176.296 262.331C176.781 262.608 177.158 263.016 177.427 263.553C177.704 264.082 177.843 264.732 177.843 265.503ZM172.578 265.503C172.578 266.326 172.738 266.981 173.059 267.466C173.388 267.943 173.908 268.181 174.619 268.181C175.321 268.181 175.837 267.943 176.166 267.466C176.495 266.981 176.66 266.326 176.66 265.503C176.66 264.68 176.495 264.034 176.166 263.566C175.837 263.098 175.317 262.864 174.606 262.864C173.895 262.864 173.38 263.098 173.059 263.566C172.738 264.034 172.578 264.68 172.578 265.503ZM187.354 261.902C187.484 261.902 187.623 261.911 187.77 261.928C187.926 261.937 188.061 261.954 188.173 261.98L188.03 263.033C187.918 263.007 187.792 262.985 187.653 262.968C187.523 262.951 187.398 262.942 187.276 262.942C186.921 262.942 186.587 263.042 186.275 263.241C185.963 263.432 185.712 263.705 185.521 264.06C185.339 264.407 185.248 264.814 185.248 265.282V269H184.104V262.032H185.04L185.17 263.306H185.222C185.448 262.925 185.738 262.595 186.093 262.318C186.449 262.041 186.869 261.902 187.354 261.902ZM192.447 261.902C193.045 261.902 193.557 262.032 193.981 262.292C194.415 262.552 194.744 262.92 194.969 263.397C195.203 263.865 195.32 264.415 195.32 265.048V265.737H190.549C190.567 266.526 190.766 267.128 191.147 267.544C191.537 267.951 192.079 268.155 192.772 268.155C193.214 268.155 193.604 268.116 193.942 268.038C194.289 267.951 194.644 267.83 195.008 267.674V268.675C194.653 268.831 194.302 268.944 193.955 269.013C193.609 269.091 193.197 269.13 192.72 269.13C192.062 269.13 191.477 268.996 190.965 268.727C190.463 268.458 190.068 268.06 189.782 267.531C189.505 266.994 189.366 266.339 189.366 265.568C189.366 264.805 189.492 264.151 189.743 263.605C190.003 263.059 190.363 262.639 190.822 262.344C191.29 262.049 191.832 261.902 192.447 261.902ZM192.434 262.838C191.888 262.838 191.455 263.016 191.134 263.371C190.822 263.718 190.636 264.203 190.575 264.827H194.124C194.116 264.238 193.977 263.761 193.708 263.397C193.44 263.024 193.015 262.838 192.434 262.838ZM200.425 269.13C199.81 269.13 199.259 269.004 198.774 268.753C198.297 268.502 197.92 268.112 197.643 267.583C197.374 267.054 197.24 266.378 197.24 265.555C197.24 264.697 197.383 263.999 197.669 263.462C197.955 262.925 198.341 262.53 198.826 262.279C199.32 262.028 199.879 261.902 200.503 261.902C200.858 261.902 201.201 261.941 201.53 262.019C201.859 262.088 202.128 262.175 202.336 262.279L201.985 263.228C201.777 263.15 201.534 263.076 201.257 263.007C200.98 262.938 200.72 262.903 200.477 262.903C199.108 262.903 198.423 263.783 198.423 265.542C198.423 266.383 198.588 267.028 198.917 267.479C199.255 267.921 199.753 268.142 200.412 268.142C200.793 268.142 201.127 268.103 201.413 268.025C201.708 267.947 201.976 267.852 202.219 267.739V268.753C201.985 268.874 201.725 268.965 201.439 269.026C201.162 269.095 200.824 269.13 200.425 269.13ZM204.997 259.419C205.17 259.419 205.322 259.48 205.452 259.601C205.59 259.714 205.66 259.896 205.66 260.147C205.66 260.39 205.59 260.572 205.452 260.693C205.322 260.814 205.17 260.875 204.997 260.875C204.806 260.875 204.646 260.814 204.516 260.693C204.386 260.572 204.321 260.39 204.321 260.147C204.321 259.896 204.386 259.714 204.516 259.601C204.646 259.48 204.806 259.419 204.997 259.419ZM205.556 262.032V269H204.412V262.032H205.556ZM211.614 261.902C212.472 261.902 213.161 262.201 213.681 262.799C214.21 263.397 214.474 264.298 214.474 265.503C214.474 266.69 214.21 267.592 213.681 268.207C213.161 268.822 212.468 269.13 211.601 269.13C211.064 269.13 210.617 269.03 210.262 268.831C209.915 268.623 209.642 268.385 209.443 268.116H209.365C209.382 268.263 209.4 268.45 209.417 268.675C209.434 268.9 209.443 269.095 209.443 269.26V272.12H208.299V262.032H209.235L209.391 262.981H209.443C209.651 262.678 209.924 262.422 210.262 262.214C210.6 262.006 211.051 261.902 211.614 261.902ZM211.406 262.864C210.695 262.864 210.193 263.063 209.898 263.462C209.612 263.861 209.46 264.467 209.443 265.282V265.503C209.443 266.361 209.582 267.024 209.859 267.492C210.145 267.951 210.669 268.181 211.432 268.181C211.857 268.181 212.203 268.064 212.472 267.83C212.749 267.596 212.953 267.28 213.083 266.881C213.222 266.474 213.291 266.01 213.291 265.49C213.291 264.693 213.135 264.056 212.823 263.579C212.52 263.102 212.047 262.864 211.406 262.864ZM217.418 259.419C217.591 259.419 217.743 259.48 217.873 259.601C218.011 259.714 218.081 259.896 218.081 260.147C218.081 260.39 218.011 260.572 217.873 260.693C217.743 260.814 217.591 260.875 217.418 260.875C217.227 260.875 217.067 260.814 216.937 260.693C216.807 260.572 216.742 260.39 216.742 260.147C216.742 259.896 216.807 259.714 216.937 259.601C217.067 259.48 217.227 259.419 217.418 259.419ZM217.977 262.032V269H216.833V262.032H217.977ZM223.411 261.902C224.009 261.902 224.52 262.032 224.945 262.292C225.378 262.552 225.708 262.92 225.933 263.397C226.167 263.865 226.284 264.415 226.284 265.048V265.737H221.513C221.53 266.526 221.73 267.128 222.111 267.544C222.501 267.951 223.043 268.155 223.736 268.155C224.178 268.155 224.568 268.116 224.906 268.038C225.253 267.951 225.608 267.83 225.972 267.674V268.675C225.617 268.831 225.266 268.944 224.919 269.013C224.572 269.091 224.161 269.13 223.684 269.13C223.025 269.13 222.44 268.996 221.929 268.727C221.426 268.458 221.032 268.06 220.746 267.531C220.469 266.994 220.33 266.339 220.33 265.568C220.33 264.805 220.456 264.151 220.707 263.605C220.967 263.059 221.327 262.639 221.786 262.344C222.254 262.049 222.796 261.902 223.411 261.902ZM223.398 262.838C222.852 262.838 222.419 263.016 222.098 263.371C221.786 263.718 221.6 264.203 221.539 264.827H225.088C225.079 264.238 224.941 263.761 224.672 263.397C224.403 263.024 223.979 262.838 223.398 262.838ZM231.948 261.902C232.78 261.902 233.408 262.106 233.833 262.513C234.257 262.912 234.47 263.562 234.47 264.463V269H233.339V264.541C233.339 263.423 232.819 262.864 231.779 262.864C231.007 262.864 230.474 263.081 230.18 263.514C229.885 263.947 229.738 264.571 229.738 265.386V269H228.594V262.032H229.517L229.686 262.981H229.751C229.976 262.617 230.288 262.348 230.687 262.175C231.085 261.993 231.506 261.902 231.948 261.902ZM239.493 268.194C239.666 268.194 239.844 268.181 240.026 268.155C240.208 268.12 240.355 268.086 240.468 268.051V268.922C240.346 268.983 240.173 269.03 239.948 269.065C239.722 269.108 239.506 269.13 239.298 269.13C238.934 269.13 238.596 269.069 238.284 268.948C237.98 268.818 237.733 268.597 237.543 268.285C237.352 267.973 237.257 267.535 237.257 266.972V262.916H236.269V262.37L237.27 261.915L237.725 260.433H238.401V262.032H240.416V262.916H238.401V266.946C238.401 267.371 238.5 267.687 238.7 267.895C238.908 268.094 239.172 268.194 239.493 268.194ZM246.936 267.076C246.936 267.752 246.684 268.263 246.182 268.61C245.679 268.957 245.003 269.13 244.154 269.13C243.668 269.13 243.248 269.091 242.893 269.013C242.546 268.935 242.238 268.827 241.97 268.688V267.648C242.247 267.787 242.581 267.917 242.971 268.038C243.369 268.151 243.772 268.207 244.18 268.207C244.76 268.207 245.181 268.116 245.441 267.934C245.701 267.743 245.831 267.492 245.831 267.18C245.831 267.007 245.783 266.851 245.688 266.712C245.592 266.573 245.419 266.435 245.168 266.296C244.925 266.157 244.574 266.001 244.115 265.828C243.664 265.655 243.278 265.481 242.958 265.308C242.637 265.135 242.39 264.927 242.217 264.684C242.043 264.441 241.957 264.129 241.957 263.748C241.957 263.159 242.195 262.704 242.672 262.383C243.157 262.062 243.79 261.902 244.57 261.902C244.994 261.902 245.389 261.945 245.753 262.032C246.125 262.11 246.472 262.223 246.793 262.37L246.403 263.28C246.108 263.159 245.8 263.055 245.48 262.968C245.159 262.881 244.83 262.838 244.492 262.838C244.024 262.838 243.664 262.916 243.413 263.072C243.17 263.219 243.049 263.423 243.049 263.683C243.049 263.874 243.105 264.038 243.218 264.177C243.33 264.307 243.517 264.437 243.777 264.567C244.045 264.688 244.401 264.836 244.843 265.009C245.285 265.174 245.662 265.343 245.974 265.516C246.286 265.689 246.524 265.902 246.689 266.153C246.853 266.396 246.936 266.703 246.936 267.076ZM94.0764 281.615C93.0797 281.615 92.2954 281.949 91.7234 282.616C91.1514 283.283 90.8654 284.198 90.8654 285.359C90.8654 286.512 91.1297 287.426 91.6584 288.102C92.1957 288.769 92.9974 289.103 94.0634 289.103C94.4707 289.103 94.8564 289.068 95.2204 288.999C95.5844 288.93 95.9397 288.843 96.2864 288.739V289.753C95.9397 289.883 95.5801 289.978 95.2074 290.039C94.8434 290.1 94.4057 290.13 93.8944 290.13C92.9497 290.13 92.1611 289.935 91.5284 289.545C90.8957 289.155 90.4191 288.6 90.0984 287.881C89.7864 287.162 89.6304 286.317 89.6304 285.346C89.6304 284.41 89.7994 283.587 90.1374 282.876C90.4841 282.157 90.9911 281.598 91.6584 281.199C92.3257 280.792 93.1361 280.588 94.0894 280.588C95.0687 280.588 95.9224 280.77 96.6504 281.134L96.1824 282.122C95.8964 281.992 95.5757 281.875 95.2204 281.771C94.8737 281.667 94.4924 281.615 94.0764 281.615ZM104.516 283.032V290H103.58L103.411 289.077H103.359C103.134 289.441 102.822 289.71 102.423 289.883C102.024 290.048 101.6 290.13 101.149 290.13C100.308 290.13 99.6756 289.931 99.251 289.532C98.8263 289.125 98.614 288.479 98.614 287.595V283.032H99.771V287.517C99.771 288.626 100.287 289.181 101.318 289.181C102.089 289.181 102.622 288.964 102.917 288.531C103.22 288.098 103.372 287.474 103.372 286.659V283.032H104.516ZM111.801 288.076C111.801 288.752 111.549 289.263 111.047 289.61C110.544 289.957 109.868 290.13 109.019 290.13C108.533 290.13 108.113 290.091 107.758 290.013C107.411 289.935 107.103 289.827 106.835 289.688V288.648C107.112 288.787 107.446 288.917 107.836 289.038C108.234 289.151 108.637 289.207 109.045 289.207C109.625 289.207 110.046 289.116 110.306 288.934C110.566 288.743 110.696 288.492 110.696 288.18C110.696 288.007 110.648 287.851 110.553 287.712C110.457 287.573 110.284 287.435 110.033 287.296C109.79 287.157 109.439 287.001 108.98 286.828C108.529 286.655 108.143 286.481 107.823 286.308C107.502 286.135 107.255 285.927 107.082 285.684C106.908 285.441 106.822 285.129 106.822 284.748C106.822 284.159 107.06 283.704 107.537 283.383C108.022 283.062 108.655 282.902 109.435 282.902C109.859 282.902 110.254 282.945 110.618 283.032C110.99 283.11 111.337 283.223 111.658 283.37L111.268 284.28C110.973 284.159 110.665 284.055 110.345 283.968C110.024 283.881 109.695 283.838 109.357 283.838C108.889 283.838 108.529 283.916 108.278 284.072C108.035 284.219 107.914 284.423 107.914 284.683C107.914 284.874 107.97 285.038 108.083 285.177C108.195 285.307 108.382 285.437 108.642 285.567C108.91 285.688 109.266 285.836 109.708 286.009C110.15 286.174 110.527 286.343 110.839 286.516C111.151 286.689 111.389 286.902 111.554 287.153C111.718 287.396 111.801 287.703 111.801 288.076ZM116.347 289.194C116.521 289.194 116.698 289.181 116.88 289.155C117.062 289.12 117.21 289.086 117.322 289.051V289.922C117.201 289.983 117.028 290.03 116.802 290.065C116.577 290.108 116.36 290.13 116.152 290.13C115.788 290.13 115.45 290.069 115.138 289.948C114.835 289.818 114.588 289.597 114.397 289.285C114.207 288.973 114.111 288.535 114.111 287.972V283.916H113.123V283.37L114.124 282.915L114.579 281.433H115.255V283.032H117.27V283.916H115.255V287.946C115.255 288.371 115.355 288.687 115.554 288.895C115.762 289.094 116.027 289.194 116.347 289.194ZM125.311 286.503C125.311 287.656 125.017 288.548 124.427 289.181C123.847 289.814 123.058 290.13 122.061 290.13C121.446 290.13 120.896 289.991 120.41 289.714C119.934 289.428 119.557 289.016 119.279 288.479C119.002 287.933 118.863 287.274 118.863 286.503C118.863 285.35 119.154 284.462 119.734 283.838C120.315 283.214 121.104 282.902 122.1 282.902C122.733 282.902 123.288 283.045 123.764 283.331C124.25 283.608 124.627 284.016 124.895 284.553C125.173 285.082 125.311 285.732 125.311 286.503ZM120.046 286.503C120.046 287.326 120.207 287.981 120.527 288.466C120.857 288.943 121.377 289.181 122.087 289.181C122.789 289.181 123.305 288.943 123.634 288.466C123.964 287.981 124.128 287.326 124.128 286.503C124.128 285.68 123.964 285.034 123.634 284.566C123.305 284.098 122.785 283.864 122.074 283.864C121.364 283.864 120.848 284.098 120.527 284.566C120.207 285.034 120.046 285.68 120.046 286.503ZM135.304 282.902C136.093 282.902 136.682 283.106 137.072 283.513C137.462 283.912 137.657 284.562 137.657 285.463V290H136.526V285.515C136.526 284.414 136.054 283.864 135.109 283.864C134.433 283.864 133.948 284.059 133.653 284.449C133.367 284.839 133.224 285.407 133.224 286.152V290H132.093V285.515C132.093 284.414 131.616 283.864 130.663 283.864C129.961 283.864 129.476 284.081 129.207 284.514C128.938 284.947 128.804 285.571 128.804 286.386V290H127.66V283.032H128.583L128.752 283.981H128.817C129.034 283.617 129.324 283.348 129.688 283.175C130.061 282.993 130.455 282.902 130.871 282.902C131.963 282.902 132.674 283.292 133.003 284.072H133.068C133.302 283.673 133.618 283.379 134.017 283.188C134.424 282.997 134.853 282.902 135.304 282.902ZM140.93 280.419C141.103 280.419 141.255 280.48 141.385 280.601C141.524 280.714 141.593 280.896 141.593 281.147C141.593 281.39 141.524 281.572 141.385 281.693C141.255 281.814 141.103 281.875 140.93 281.875C140.739 281.875 140.579 281.814 140.449 281.693C140.319 281.572 140.254 281.39 140.254 281.147C140.254 280.896 140.319 280.714 140.449 280.601C140.579 280.48 140.739 280.419 140.93 280.419ZM141.489 283.032V290H140.345V283.032H141.489ZM148.73 290H143.634V289.246L147.378 283.916H143.855V283.032H148.639V283.89L144.947 289.116H148.73V290ZM153.514 282.915C154.363 282.915 154.991 283.101 155.399 283.474C155.806 283.847 156.01 284.44 156.01 285.255V290H155.178L154.957 289.012H154.905C154.601 289.393 154.281 289.675 153.943 289.857C153.613 290.039 153.154 290.13 152.565 290.13C151.932 290.13 151.408 289.965 150.992 289.636C150.576 289.298 150.368 288.774 150.368 288.063C150.368 287.37 150.641 286.837 151.187 286.464C151.733 286.083 152.573 285.875 153.709 285.84L154.892 285.801V285.385C154.892 284.804 154.766 284.401 154.515 284.176C154.263 283.951 153.908 283.838 153.449 283.838C153.085 283.838 152.738 283.894 152.409 284.007C152.079 284.111 151.772 284.232 151.486 284.371L151.135 283.513C151.438 283.348 151.798 283.21 152.214 283.097C152.63 282.976 153.063 282.915 153.514 282.915ZM154.879 286.594L153.852 286.633C152.985 286.668 152.383 286.806 152.045 287.049C151.715 287.292 151.551 287.634 151.551 288.076C151.551 288.466 151.668 288.752 151.902 288.934C152.144 289.116 152.452 289.207 152.825 289.207C153.414 289.207 153.904 289.047 154.294 288.726C154.684 288.397 154.879 287.894 154.879 287.218V286.594ZM159.841 280.12V282.525C159.841 282.82 159.833 283.097 159.815 283.357C159.807 283.608 159.794 283.808 159.776 283.955H159.841C160.041 283.66 160.314 283.413 160.66 283.214C161.007 283.015 161.453 282.915 161.999 282.915C162.866 282.915 163.559 283.218 164.079 283.825C164.608 284.423 164.872 285.32 164.872 286.516C164.872 287.712 164.608 288.613 164.079 289.22C163.551 289.827 162.857 290.13 161.999 290.13C161.453 290.13 161.007 290.03 160.66 289.831C160.314 289.632 160.041 289.393 159.841 289.116H159.75L159.516 290H158.697V280.12H159.841ZM161.804 283.864C161.068 283.864 160.556 284.076 160.27 284.501C159.984 284.926 159.841 285.584 159.841 286.477V286.529C159.841 287.387 159.98 288.046 160.257 288.505C160.543 288.956 161.068 289.181 161.83 289.181C162.454 289.181 162.918 288.951 163.221 288.492C163.533 288.033 163.689 287.37 163.689 286.503C163.689 284.744 163.061 283.864 161.804 283.864ZM168.375 290H167.231V280.12H168.375V290ZM173.809 282.902C174.407 282.902 174.919 283.032 175.343 283.292C175.777 283.552 176.106 283.92 176.331 284.397C176.565 284.865 176.682 285.415 176.682 286.048V286.737H171.911C171.929 287.526 172.128 288.128 172.509 288.544C172.899 288.951 173.441 289.155 174.134 289.155C174.576 289.155 174.966 289.116 175.304 289.038C175.651 288.951 176.006 288.83 176.37 288.674V289.675C176.015 289.831 175.664 289.944 175.317 290.013C174.971 290.091 174.559 290.13 174.082 290.13C173.424 290.13 172.839 289.996 172.327 289.727C171.825 289.458 171.43 289.06 171.144 288.531C170.867 287.994 170.728 287.339 170.728 286.568C170.728 285.805 170.854 285.151 171.105 284.605C171.365 284.059 171.725 283.639 172.184 283.344C172.652 283.049 173.194 282.902 173.809 282.902ZM173.796 283.838C173.25 283.838 172.817 284.016 172.496 284.371C172.184 284.718 171.998 285.203 171.937 285.827H175.486C175.478 285.238 175.339 284.761 175.07 284.397C174.802 284.024 174.377 283.838 173.796 283.838ZM185.232 289.194C185.405 289.194 185.583 289.181 185.765 289.155C185.947 289.12 186.094 289.086 186.207 289.051V289.922C186.085 289.983 185.912 290.03 185.687 290.065C185.461 290.108 185.245 290.13 185.037 290.13C184.673 290.13 184.335 290.069 184.023 289.948C183.719 289.818 183.472 289.597 183.282 289.285C183.091 288.973 182.996 288.535 182.996 287.972V283.916H182.008V283.37L183.009 282.915L183.464 281.433H184.14V283.032H186.155V283.916H184.14V287.946C184.14 288.371 184.239 288.687 184.439 288.895C184.647 289.094 184.911 289.194 185.232 289.194ZM190.829 282.902C191.427 282.902 191.938 283.032 192.363 283.292C192.796 283.552 193.125 283.92 193.351 284.397C193.585 284.865 193.702 285.415 193.702 286.048V286.737H188.931C188.948 287.526 189.147 288.128 189.529 288.544C189.919 288.951 190.46 289.155 191.154 289.155C191.596 289.155 191.986 289.116 192.324 289.038C192.67 288.951 193.026 288.83 193.39 288.674V289.675C193.034 289.831 192.683 289.944 192.337 290.013C191.99 290.091 191.578 290.13 191.102 290.13C190.443 290.13 189.858 289.996 189.347 289.727C188.844 289.458 188.45 289.06 188.164 288.531C187.886 287.994 187.748 287.339 187.748 286.568C187.748 285.805 187.873 285.151 188.125 284.605C188.385 284.059 188.744 283.639 189.204 283.344C189.672 283.049 190.213 282.902 190.829 282.902ZM190.816 283.838C190.27 283.838 189.836 284.016 189.516 284.371C189.204 284.718 189.017 285.203 188.957 285.827H192.506C192.497 285.238 192.358 284.761 192.09 284.397C191.821 284.024 191.396 283.838 190.816 283.838ZM203.655 282.902C204.444 282.902 205.033 283.106 205.423 283.513C205.813 283.912 206.008 284.562 206.008 285.463V290H204.877V285.515C204.877 284.414 204.405 283.864 203.46 283.864C202.784 283.864 202.299 284.059 202.004 284.449C201.718 284.839 201.575 285.407 201.575 286.152V290H200.444V285.515C200.444 284.414 199.968 283.864 199.014 283.864C198.312 283.864 197.827 284.081 197.558 284.514C197.29 284.947 197.155 285.571 197.155 286.386V290H196.011V283.032H196.934L197.103 283.981H197.168C197.385 283.617 197.675 283.348 198.039 283.175C198.412 282.993 198.806 282.902 199.222 282.902C200.314 282.902 201.025 283.292 201.354 284.072H201.419C201.653 283.673 201.97 283.379 202.368 283.188C202.776 282.997 203.205 282.902 203.655 282.902ZM212.011 282.902C212.869 282.902 213.558 283.201 214.078 283.799C214.607 284.397 214.871 285.298 214.871 286.503C214.871 287.69 214.607 288.592 214.078 289.207C213.558 289.822 212.865 290.13 211.998 290.13C211.461 290.13 211.015 290.03 210.659 289.831C210.313 289.623 210.04 289.385 209.84 289.116H209.762C209.78 289.263 209.797 289.45 209.814 289.675C209.832 289.9 209.84 290.095 209.84 290.26V293.12H208.696V283.032H209.632L209.788 283.981H209.84C210.048 283.678 210.321 283.422 210.659 283.214C210.997 283.006 211.448 282.902 212.011 282.902ZM211.803 283.864C211.093 283.864 210.59 284.063 210.295 284.462C210.009 284.861 209.858 285.467 209.84 286.282V286.503C209.84 287.361 209.979 288.024 210.256 288.492C210.542 288.951 211.067 289.181 211.829 289.181C212.254 289.181 212.601 289.064 212.869 288.83C213.147 288.596 213.35 288.28 213.48 287.881C213.619 287.474 213.688 287.01 213.688 286.49C213.688 285.693 213.532 285.056 213.22 284.579C212.917 284.102 212.445 283.864 211.803 283.864ZM218.374 290H217.23V280.12H218.374V290ZM223.756 282.915C224.606 282.915 225.234 283.101 225.641 283.474C226.049 283.847 226.252 284.44 226.252 285.255V290H225.42L225.199 289.012H225.147C224.844 289.393 224.523 289.675 224.185 289.857C223.856 290.039 223.397 290.13 222.807 290.13C222.175 290.13 221.65 289.965 221.234 289.636C220.818 289.298 220.61 288.774 220.61 288.063C220.61 287.37 220.883 286.837 221.429 286.464C221.975 286.083 222.816 285.875 223.951 285.84L225.134 285.801V285.385C225.134 284.804 225.009 284.401 224.757 284.176C224.506 283.951 224.151 283.838 223.691 283.838C223.327 283.838 222.981 283.894 222.651 284.007C222.322 284.111 222.014 284.232 221.728 284.371L221.377 283.513C221.681 283.348 222.04 283.21 222.456 283.097C222.872 282.976 223.306 282.915 223.756 282.915ZM225.121 286.594L224.094 286.633C223.228 286.668 222.625 286.806 222.287 287.049C221.958 287.292 221.793 287.634 221.793 288.076C221.793 288.466 221.91 288.752 222.144 288.934C222.387 289.116 222.695 289.207 223.067 289.207C223.657 289.207 224.146 289.047 224.536 288.726C224.926 288.397 225.121 287.894 225.121 287.218V286.594ZM231.267 289.194C231.441 289.194 231.618 289.181 231.8 289.155C231.982 289.12 232.13 289.086 232.242 289.051V289.922C232.121 289.983 231.948 290.03 231.722 290.065C231.497 290.108 231.28 290.13 231.072 290.13C230.708 290.13 230.37 290.069 230.058 289.948C229.755 289.818 229.508 289.597 229.317 289.285C229.127 288.973 229.031 288.535 229.031 287.972V283.916H228.043V283.37L229.044 282.915L229.499 281.433H230.175V283.032H232.19V283.916H230.175V287.946C230.175 288.371 230.275 288.687 230.474 288.895C230.682 289.094 230.947 289.194 231.267 289.194ZM236.864 282.902C237.462 282.902 237.974 283.032 238.398 283.292C238.832 283.552 239.161 283.92 239.386 284.397C239.62 284.865 239.737 285.415 239.737 286.048V286.737H234.966C234.984 287.526 235.183 288.128 235.564 288.544C235.954 288.951 236.496 289.155 237.189 289.155C237.631 289.155 238.021 289.116 238.359 289.038C238.706 288.951 239.061 288.83 239.425 288.674V289.675C239.07 289.831 238.719 289.944 238.372 290.013C238.026 290.091 237.614 290.13 237.137 290.13C236.479 290.13 235.894 289.996 235.382 289.727C234.88 289.458 234.485 289.06 234.199 288.531C233.922 287.994 233.783 287.339 233.783 286.568C233.783 285.805 233.909 285.151 234.16 284.605C234.42 284.059 234.78 283.639 235.239 283.344C235.707 283.049 236.249 282.902 236.864 282.902ZM236.851 283.838C236.305 283.838 235.872 284.016 235.551 284.371C235.239 284.718 235.053 285.203 234.992 285.827H238.541C238.533 285.238 238.394 284.761 238.125 284.397C237.857 284.024 237.432 283.838 236.851 283.838ZM246.584 288.076C246.584 288.752 246.333 289.263 245.83 289.61C245.327 289.957 244.651 290.13 243.802 290.13C243.317 290.13 242.896 290.091 242.541 290.013C242.194 289.935 241.887 289.827 241.618 289.688V288.648C241.895 288.787 242.229 288.917 242.619 289.038C243.018 289.151 243.421 289.207 243.828 289.207C244.409 289.207 244.829 289.116 245.089 288.934C245.349 288.743 245.479 288.492 245.479 288.18C245.479 288.007 245.431 287.851 245.336 287.712C245.241 287.573 245.067 287.435 244.816 287.296C244.573 287.157 244.222 287.001 243.763 286.828C243.312 286.655 242.927 286.481 242.606 286.308C242.285 286.135 242.038 285.927 241.865 285.684C241.692 285.441 241.605 285.129 241.605 284.748C241.605 284.159 241.843 283.704 242.32 283.383C242.805 283.062 243.438 282.902 244.218 282.902C244.643 282.902 245.037 282.945 245.401 283.032C245.774 283.11 246.12 283.223 246.441 283.37L246.051 284.28C245.756 284.159 245.449 284.055 245.128 283.968C244.807 283.881 244.478 283.838 244.14 283.838C243.672 283.838 243.312 283.916 243.061 284.072C242.818 284.219 242.697 284.423 242.697 284.683C242.697 284.874 242.753 285.038 242.866 285.177C242.979 285.307 243.165 285.437 243.425 285.567C243.694 285.688 244.049 285.836 244.491 286.009C244.933 286.174 245.31 286.343 245.622 286.516C245.934 286.689 246.172 286.902 246.337 287.153C246.502 287.396 246.584 287.703 246.584 288.076ZM110.565 311L109.447 308.127H105.768L104.663 311H103.48L107.107 301.679H108.16L111.774 311H110.565ZM109.096 307.087L108.056 304.279C108.03 304.21 107.987 304.084 107.926 303.902C107.865 303.72 107.805 303.534 107.744 303.343C107.692 303.144 107.649 302.992 107.614 302.888C107.553 303.157 107.484 303.421 107.406 303.681C107.328 303.932 107.263 304.132 107.211 304.279L106.158 307.087H109.096ZM116.778 303.902C117.61 303.902 118.238 304.106 118.663 304.513C119.087 304.912 119.3 305.562 119.3 306.463V311H118.169V306.541C118.169 305.423 117.649 304.864 116.609 304.864C115.837 304.864 115.304 305.081 115.01 305.514C114.715 305.947 114.568 306.571 114.568 307.386V311H113.424V304.032H114.347L114.516 304.981H114.581C114.806 304.617 115.118 304.348 115.517 304.175C115.915 303.993 116.336 303.902 116.778 303.902ZM124.634 303.915C125.484 303.915 126.112 304.101 126.519 304.474C126.927 304.847 127.13 305.44 127.13 306.255V311H126.298L126.077 310.012H126.025C125.722 310.393 125.401 310.675 125.063 310.857C124.734 311.039 124.275 311.13 123.685 311.13C123.053 311.13 122.528 310.965 122.112 310.636C121.696 310.298 121.488 309.774 121.488 309.063C121.488 308.37 121.761 307.837 122.307 307.464C122.853 307.083 123.694 306.875 124.829 306.84L126.012 306.801V306.385C126.012 305.804 125.887 305.401 125.635 305.176C125.384 304.951 125.029 304.838 124.569 304.838C124.205 304.838 123.859 304.894 123.529 305.007C123.2 305.111 122.892 305.232 122.606 305.371L122.255 304.513C122.559 304.348 122.918 304.21 123.334 304.097C123.75 303.976 124.184 303.915 124.634 303.915ZM125.999 307.594L124.972 307.633C124.106 307.668 123.503 307.806 123.165 308.049C122.836 308.292 122.671 308.634 122.671 309.076C122.671 309.466 122.788 309.752 123.022 309.934C123.265 310.116 123.573 310.207 123.945 310.207C124.535 310.207 125.024 310.047 125.414 309.726C125.804 309.397 125.999 308.894 125.999 308.218V307.594ZM130.962 311H129.818V301.12H130.962V311ZM132.614 304.032H133.836L135.344 307.997C135.474 308.344 135.591 308.677 135.695 308.998C135.799 309.31 135.877 309.609 135.929 309.895H135.981C136.033 309.678 136.115 309.397 136.228 309.05C136.34 308.695 136.457 308.339 136.579 307.984L137.996 304.032H139.231L136.228 311.962C135.985 312.621 135.669 313.145 135.279 313.535C134.897 313.925 134.369 314.12 133.693 314.12C133.485 314.12 133.303 314.107 133.147 314.081C132.991 314.064 132.856 314.042 132.744 314.016V313.106C132.839 313.123 132.952 313.141 133.082 313.158C133.22 313.175 133.363 313.184 133.511 313.184C133.909 313.184 134.23 313.071 134.473 312.846C134.724 312.621 134.919 312.322 135.058 311.949L135.422 311.026L132.614 304.032ZM143.195 310.194C143.369 310.194 143.546 310.181 143.728 310.155C143.91 310.12 144.058 310.086 144.17 310.051V310.922C144.049 310.983 143.876 311.03 143.65 311.065C143.425 311.108 143.208 311.13 143 311.13C142.636 311.13 142.298 311.069 141.986 310.948C141.683 310.818 141.436 310.597 141.245 310.285C141.055 309.973 140.959 309.535 140.959 308.972V304.916H139.971V304.37L140.972 303.915L141.427 302.433H142.103V304.032H144.118V304.916H142.103V308.946C142.103 309.371 142.203 309.687 142.402 309.895C142.61 310.094 142.875 310.194 143.195 310.194ZM146.686 301.419C146.859 301.419 147.011 301.48 147.141 301.601C147.28 301.714 147.349 301.896 147.349 302.147C147.349 302.39 147.28 302.572 147.141 302.693C147.011 302.814 146.859 302.875 146.686 302.875C146.495 302.875 146.335 302.814 146.205 302.693C146.075 302.572 146.01 302.39 146.01 302.147C146.01 301.896 146.075 301.714 146.205 301.601C146.335 301.48 146.495 301.419 146.686 301.419ZM147.245 304.032V311H146.101V304.032H147.245ZM152.783 311.13C152.168 311.13 151.618 311.004 151.132 310.753C150.656 310.502 150.279 310.112 150.001 309.583C149.733 309.054 149.598 308.378 149.598 307.555C149.598 306.697 149.741 305.999 150.027 305.462C150.313 304.925 150.699 304.53 151.184 304.279C151.678 304.028 152.237 303.902 152.861 303.902C153.217 303.902 153.559 303.941 153.888 304.019C154.218 304.088 154.486 304.175 154.694 304.279L154.343 305.228C154.135 305.15 153.893 305.076 153.615 305.007C153.338 304.938 153.078 304.903 152.835 304.903C151.466 304.903 150.781 305.783 150.781 307.542C150.781 308.383 150.946 309.028 151.275 309.479C151.613 309.921 152.112 310.142 152.77 310.142C153.152 310.142 153.485 310.103 153.771 310.025C154.066 309.947 154.335 309.852 154.577 309.739V310.753C154.343 310.874 154.083 310.965 153.797 311.026C153.52 311.095 153.182 311.13 152.783 311.13ZM161.307 309.076C161.307 309.752 161.056 310.263 160.553 310.61C160.051 310.957 159.375 311.13 158.525 311.13C158.04 311.13 157.62 311.091 157.264 311.013C156.918 310.935 156.61 310.827 156.341 310.688V309.648C156.619 309.787 156.952 309.917 157.342 310.038C157.741 310.151 158.144 310.207 158.551 310.207C159.132 310.207 159.552 310.116 159.812 309.934C160.072 309.743 160.202 309.492 160.202 309.18C160.202 309.007 160.155 308.851 160.059 308.712C159.964 308.573 159.791 308.435 159.539 308.296C159.297 308.157 158.946 308.001 158.486 307.828C158.036 307.655 157.65 307.481 157.329 307.308C157.009 307.135 156.762 306.927 156.588 306.684C156.415 306.441 156.328 306.129 156.328 305.748C156.328 305.159 156.567 304.704 157.043 304.383C157.529 304.062 158.161 303.902 158.941 303.902C159.366 303.902 159.76 303.945 160.124 304.032C160.497 304.11 160.844 304.223 161.164 304.37L160.774 305.28C160.48 305.159 160.172 305.055 159.851 304.968C159.531 304.881 159.201 304.838 158.863 304.838C158.395 304.838 158.036 304.916 157.784 305.072C157.542 305.219 157.42 305.423 157.42 305.683C157.42 305.874 157.477 306.038 157.589 306.177C157.702 306.307 157.888 306.437 158.148 306.567C158.417 306.688 158.772 306.836 159.214 307.009C159.656 307.174 160.033 307.343 160.345 307.516C160.657 307.689 160.896 307.902 161.06 308.153C161.225 308.396 161.307 308.703 161.307 309.076ZM169.909 311.13C169.043 311.13 168.349 310.831 167.829 310.233C167.309 309.626 167.049 308.725 167.049 307.529C167.049 306.333 167.309 305.432 167.829 304.825C168.358 304.21 169.056 303.902 169.922 303.902C170.46 303.902 170.897 304.002 171.235 304.201C171.582 304.4 171.864 304.643 172.08 304.929H172.158C172.15 304.816 172.132 304.652 172.106 304.435C172.089 304.21 172.08 304.032 172.08 303.902V301.12H173.224V311H172.301L172.132 310.064H172.08C171.872 310.359 171.595 310.61 171.248 310.818C170.902 311.026 170.455 311.13 169.909 311.13ZM170.091 310.181C170.828 310.181 171.344 309.982 171.638 309.583C171.942 309.176 172.093 308.565 172.093 307.75V307.542C172.093 306.675 171.95 306.012 171.664 305.553C171.378 305.085 170.85 304.851 170.078 304.851C169.463 304.851 168.999 305.098 168.687 305.592C168.384 306.077 168.232 306.732 168.232 307.555C168.232 308.387 168.384 309.033 168.687 309.492C168.999 309.951 169.467 310.181 170.091 310.181ZM178.612 303.915C179.461 303.915 180.09 304.101 180.497 304.474C180.904 304.847 181.108 305.44 181.108 306.255V311H180.276L180.055 310.012H180.003C179.7 310.393 179.379 310.675 179.041 310.857C178.712 311.039 178.252 311.13 177.663 311.13C177.03 311.13 176.506 310.965 176.09 310.636C175.674 310.298 175.466 309.774 175.466 309.063C175.466 308.37 175.739 307.837 176.285 307.464C176.831 307.083 177.672 306.875 178.807 306.84L179.99 306.801V306.385C179.99 305.804 179.864 305.401 179.613 305.176C179.362 304.951 179.006 304.838 178.547 304.838C178.183 304.838 177.836 304.894 177.507 305.007C177.178 305.111 176.87 305.232 176.584 305.371L176.233 304.513C176.536 304.348 176.896 304.21 177.312 304.097C177.728 303.976 178.161 303.915 178.612 303.915ZM179.977 307.594L178.95 307.633C178.083 307.668 177.481 307.806 177.143 308.049C176.814 308.292 176.649 308.634 176.649 309.076C176.649 309.466 176.766 309.752 177 309.934C177.243 310.116 177.55 310.207 177.923 310.207C178.512 310.207 179.002 310.047 179.392 309.726C179.782 309.397 179.977 308.894 179.977 308.218V307.594ZM188.333 309.076C188.333 309.752 188.082 310.263 187.579 310.61C187.076 310.957 186.4 311.13 185.551 311.13C185.066 311.13 184.645 311.091 184.29 311.013C183.943 310.935 183.636 310.827 183.367 310.688V309.648C183.644 309.787 183.978 309.917 184.368 310.038C184.767 310.151 185.17 310.207 185.577 310.207C186.158 310.207 186.578 310.116 186.838 309.934C187.098 309.743 187.228 309.492 187.228 309.18C187.228 309.007 187.18 308.851 187.085 308.712C186.99 308.573 186.816 308.435 186.565 308.296C186.322 308.157 185.971 308.001 185.512 307.828C185.061 307.655 184.676 307.481 184.355 307.308C184.034 307.135 183.787 306.927 183.614 306.684C183.441 306.441 183.354 306.129 183.354 305.748C183.354 305.159 183.592 304.704 184.069 304.383C184.554 304.062 185.187 303.902 185.967 303.902C186.392 303.902 186.786 303.945 187.15 304.032C187.523 304.11 187.869 304.223 188.19 304.37L187.8 305.28C187.505 305.159 187.198 305.055 186.877 304.968C186.556 304.881 186.227 304.838 185.889 304.838C185.421 304.838 185.061 304.916 184.81 305.072C184.567 305.219 184.446 305.423 184.446 305.683C184.446 305.874 184.502 306.038 184.615 306.177C184.728 306.307 184.914 306.437 185.174 306.567C185.443 306.688 185.798 306.836 186.24 307.009C186.682 307.174 187.059 307.343 187.371 307.516C187.683 307.689 187.921 307.902 188.086 308.153C188.251 308.396 188.333 308.703 188.333 309.076ZM191.696 301.12V304.019C191.696 304.366 191.675 304.691 191.631 304.994H191.709C191.935 304.639 192.238 304.37 192.619 304.188C193.009 304.006 193.43 303.915 193.88 303.915C194.73 303.915 195.367 304.119 195.791 304.526C196.216 304.925 196.428 305.57 196.428 306.463V311H195.297V306.541C195.297 305.423 194.777 304.864 193.737 304.864C192.957 304.864 192.42 305.085 192.125 305.527C191.839 305.96 191.696 306.584 191.696 307.399V311H190.552V301.12H191.696ZM200.268 301.12V303.525C200.268 303.82 200.26 304.097 200.242 304.357C200.234 304.608 200.221 304.808 200.203 304.955H200.268C200.468 304.66 200.741 304.413 201.087 304.214C201.434 304.015 201.88 303.915 202.426 303.915C203.293 303.915 203.986 304.218 204.506 304.825C205.035 305.423 205.299 306.32 205.299 307.516C205.299 308.712 205.035 309.613 204.506 310.22C203.978 310.827 203.284 311.13 202.426 311.13C201.88 311.13 201.434 311.03 201.087 310.831C200.741 310.632 200.468 310.393 200.268 310.116H200.177L199.943 311H199.124V301.12H200.268ZM202.231 304.864C201.495 304.864 200.983 305.076 200.697 305.501C200.411 305.926 200.268 306.584 200.268 307.477V307.529C200.268 308.387 200.407 309.046 200.684 309.505C200.97 309.956 201.495 310.181 202.257 310.181C202.881 310.181 203.345 309.951 203.648 309.492C203.96 309.033 204.116 308.37 204.116 307.503C204.116 305.744 203.488 304.864 202.231 304.864ZM213.716 307.503C213.716 308.656 213.421 309.548 212.832 310.181C212.251 310.814 211.463 311.13 210.466 311.13C209.851 311.13 209.3 310.991 208.815 310.714C208.338 310.428 207.961 310.016 207.684 309.479C207.407 308.933 207.268 308.274 207.268 307.503C207.268 306.35 207.558 305.462 208.139 304.838C208.72 304.214 209.508 303.902 210.505 303.902C211.138 303.902 211.692 304.045 212.169 304.331C212.654 304.608 213.031 305.016 213.3 305.553C213.577 306.082 213.716 306.732 213.716 307.503ZM208.451 307.503C208.451 308.326 208.611 308.981 208.932 309.466C209.261 309.943 209.781 310.181 210.492 310.181C211.194 310.181 211.71 309.943 212.039 309.466C212.368 308.981 212.533 308.326 212.533 307.503C212.533 306.68 212.368 306.034 212.039 305.566C211.71 305.098 211.19 304.864 210.479 304.864C209.768 304.864 209.253 305.098 208.932 305.566C208.611 306.034 208.451 306.68 208.451 307.503ZM218.704 303.915C219.553 303.915 220.181 304.101 220.589 304.474C220.996 304.847 221.2 305.44 221.2 306.255V311H220.368L220.147 310.012H220.095C219.791 310.393 219.471 310.675 219.133 310.857C218.803 311.039 218.344 311.13 217.755 311.13C217.122 311.13 216.598 310.965 216.182 310.636C215.766 310.298 215.558 309.774 215.558 309.063C215.558 308.37 215.831 307.837 216.377 307.464C216.923 307.083 217.763 306.875 218.899 306.84L220.082 306.801V306.385C220.082 305.804 219.956 305.401 219.705 305.176C219.453 304.951 219.098 304.838 218.639 304.838C218.275 304.838 217.928 304.894 217.599 305.007C217.269 305.111 216.962 305.232 216.676 305.371L216.325 304.513C216.628 304.348 216.988 304.21 217.404 304.097C217.82 303.976 218.253 303.915 218.704 303.915ZM220.069 307.594L219.042 307.633C218.175 307.668 217.573 307.806 217.235 308.049C216.905 308.292 216.741 308.634 216.741 309.076C216.741 309.466 216.858 309.752 217.092 309.934C217.334 310.116 217.642 310.207 218.015 310.207C218.604 310.207 219.094 310.047 219.484 309.726C219.874 309.397 220.069 308.894 220.069 308.218V307.594ZM227.138 303.902C227.268 303.902 227.406 303.911 227.554 303.928C227.71 303.937 227.844 303.954 227.957 303.98L227.814 305.033C227.701 305.007 227.575 304.985 227.437 304.968C227.307 304.951 227.181 304.942 227.06 304.942C226.704 304.942 226.371 305.042 226.059 305.241C225.747 305.432 225.495 305.705 225.305 306.06C225.123 306.407 225.032 306.814 225.032 307.282V311H223.888V304.032H224.824L224.954 305.306H225.006C225.231 304.925 225.521 304.595 225.877 304.318C226.232 304.041 226.652 303.902 227.138 303.902ZM232.01 311.13C231.143 311.13 230.45 310.831 229.93 310.233C229.41 309.626 229.15 308.725 229.15 307.529C229.15 306.333 229.41 305.432 229.93 304.825C230.458 304.21 231.156 303.902 232.023 303.902C232.56 303.902 232.998 304.002 233.336 304.201C233.682 304.4 233.964 304.643 234.181 304.929H234.259C234.25 304.816 234.233 304.652 234.207 304.435C234.189 304.21 234.181 304.032 234.181 303.902V301.12H235.325V311H234.402L234.233 310.064H234.181C233.973 310.359 233.695 310.61 233.349 310.818C233.002 311.026 232.556 311.13 232.01 311.13ZM232.192 310.181C232.928 310.181 233.444 309.982 233.739 309.583C234.042 309.176 234.194 308.565 234.194 307.75V307.542C234.194 306.675 234.051 306.012 233.765 305.553C233.479 305.085 232.95 304.851 232.179 304.851C231.563 304.851 231.1 305.098 230.788 305.592C230.484 306.077 230.333 306.732 230.333 307.555C230.333 308.387 230.484 309.033 230.788 309.492C231.1 309.951 231.568 310.181 232.192 310.181Z" fill="black"/>
<path d="M16 25C16 11.1929 27.1929 0 41 0H295C308.807 0 320 11.1929 320 25V56H16V25Z" fill="#26374A"/>
<path d="M150.545 35H147.863V22.148H155.225V24.38H150.545V27.692H154.901V29.924H150.545V35ZM162.022 22.148C163.774 22.148 165.064 22.466 165.892 23.102C166.732 23.738 167.152 24.704 167.152 26C167.152 26.588 167.038 27.104 166.81 27.548C166.594 27.98 166.3 28.352 165.928 28.664C165.568 28.964 165.178 29.21 164.758 29.402L168.538 35H165.514L162.454 30.068H160.996V35H158.278V22.148H162.022ZM161.824 24.38H160.996V27.854H161.878C162.778 27.854 163.42 27.704 163.804 27.404C164.2 27.104 164.398 26.66 164.398 26.072C164.398 25.46 164.188 25.028 163.768 24.776C163.36 24.512 162.712 24.38 161.824 24.38ZM178.094 35H170.696V22.148H178.094V24.38H173.414V27.206H177.77V29.438H173.414V32.75H178.094V35ZM188.702 35H181.304V22.148H188.702V24.38H184.022V27.206H188.378V29.438H184.022V32.75H188.702V35Z" fill="white"/>
<path d="M137.739 193.346C138.597 193.346 139.286 193.645 139.806 194.243C140.335 194.841 140.599 195.742 140.599 196.947C140.599 198.134 140.335 199.036 139.806 199.651C139.286 200.266 138.593 200.574 137.726 200.574C137.189 200.574 136.743 200.474 136.387 200.275C136.041 200.067 135.768 199.829 135.568 199.56H135.49C135.508 199.707 135.525 199.894 135.542 200.119C135.56 200.344 135.568 200.539 135.568 200.704V203.564H134.424V193.476H135.36L135.516 194.425H135.568C135.776 194.122 136.049 193.866 136.387 193.658C136.725 193.45 137.176 193.346 137.739 193.346ZM137.531 194.308C136.821 194.308 136.318 194.507 136.023 194.906C135.737 195.305 135.586 195.911 135.568 196.726V196.947C135.568 197.805 135.707 198.468 135.984 198.936C136.27 199.395 136.795 199.625 137.557 199.625C137.982 199.625 138.329 199.508 138.597 199.274C138.875 199.04 139.078 198.724 139.208 198.325C139.347 197.918 139.416 197.454 139.416 196.934C139.416 196.137 139.26 195.5 138.948 195.023C138.645 194.546 138.173 194.308 137.531 194.308ZM145.649 193.346C146.247 193.346 146.759 193.476 147.183 193.736C147.617 193.996 147.946 194.364 148.171 194.841C148.405 195.309 148.522 195.859 148.522 196.492V197.181H143.751C143.769 197.97 143.968 198.572 144.349 198.988C144.739 199.395 145.281 199.599 145.974 199.599C146.416 199.599 146.806 199.56 147.144 199.482C147.491 199.395 147.846 199.274 148.21 199.118V200.119C147.855 200.275 147.504 200.388 147.157 200.457C146.811 200.535 146.399 200.574 145.922 200.574C145.264 200.574 144.679 200.44 144.167 200.171C143.665 199.902 143.27 199.504 142.984 198.975C142.707 198.438 142.568 197.783 142.568 197.012C142.568 196.249 142.694 195.595 142.945 195.049C143.205 194.503 143.565 194.083 144.024 193.788C144.492 193.493 145.034 193.346 145.649 193.346ZM145.636 194.282C145.09 194.282 144.657 194.46 144.336 194.815C144.024 195.162 143.838 195.647 143.777 196.271H147.326C147.318 195.682 147.179 195.205 146.91 194.841C146.642 194.468 146.217 194.282 145.636 194.282ZM154.082 193.346C154.212 193.346 154.35 193.355 154.498 193.372C154.654 193.381 154.788 193.398 154.901 193.424L154.758 194.477C154.645 194.451 154.519 194.429 154.381 194.412C154.251 194.395 154.125 194.386 154.004 194.386C153.648 194.386 153.315 194.486 153.003 194.685C152.691 194.876 152.439 195.149 152.249 195.504C152.067 195.851 151.976 196.258 151.976 196.726V200.444H150.832V193.476H151.768L151.898 194.75H151.95C152.175 194.369 152.465 194.039 152.821 193.762C153.176 193.485 153.596 193.346 154.082 193.346ZM168.294 193.346C169.083 193.346 169.672 193.55 170.062 193.957C170.452 194.356 170.647 195.006 170.647 195.907V200.444H169.516V195.959C169.516 194.858 169.044 194.308 168.099 194.308C167.423 194.308 166.938 194.503 166.643 194.893C166.357 195.283 166.214 195.851 166.214 196.596V200.444H165.083V195.959C165.083 194.858 164.607 194.308 163.653 194.308C162.951 194.308 162.466 194.525 162.197 194.958C161.929 195.391 161.794 196.015 161.794 196.83V200.444H160.65V193.476H161.573L161.742 194.425H161.807C162.024 194.061 162.314 193.792 162.678 193.619C163.051 193.437 163.445 193.346 163.861 193.346C164.953 193.346 165.664 193.736 165.993 194.516H166.058C166.292 194.117 166.609 193.823 167.007 193.632C167.415 193.441 167.844 193.346 168.294 193.346ZM179.393 196.947C179.393 198.1 179.099 198.992 178.509 199.625C177.929 200.258 177.14 200.574 176.143 200.574C175.528 200.574 174.978 200.435 174.492 200.158C174.016 199.872 173.639 199.46 173.361 198.923C173.084 198.377 172.945 197.718 172.945 196.947C172.945 195.794 173.236 194.906 173.816 194.282C174.397 193.658 175.186 193.346 176.182 193.346C176.815 193.346 177.37 193.489 177.846 193.775C178.332 194.052 178.709 194.46 178.977 194.997C179.255 195.526 179.393 196.176 179.393 196.947ZM174.128 196.947C174.128 197.77 174.289 198.425 174.609 198.91C174.939 199.387 175.459 199.625 176.169 199.625C176.871 199.625 177.387 199.387 177.716 198.91C178.046 198.425 178.21 197.77 178.21 196.947C178.21 196.124 178.046 195.478 177.716 195.01C177.387 194.542 176.867 194.308 176.156 194.308C175.446 194.308 174.93 194.542 174.609 195.01C174.289 195.478 174.128 196.124 174.128 196.947ZM185.096 193.346C185.928 193.346 186.557 193.55 186.981 193.957C187.406 194.356 187.618 195.006 187.618 195.907V200.444H186.487V195.985C186.487 194.867 185.967 194.308 184.927 194.308C184.156 194.308 183.623 194.525 183.328 194.958C183.034 195.391 182.886 196.015 182.886 196.83V200.444H181.742V193.476H182.665L182.834 194.425H182.899C183.125 194.061 183.437 193.792 183.835 193.619C184.234 193.437 184.654 193.346 185.096 193.346ZM192.641 199.638C192.814 199.638 192.992 199.625 193.174 199.599C193.356 199.564 193.503 199.53 193.616 199.495V200.366C193.495 200.427 193.321 200.474 193.096 200.509C192.871 200.552 192.654 200.574 192.446 200.574C192.082 200.574 191.744 200.513 191.432 200.392C191.129 200.262 190.882 200.041 190.691 199.729C190.5 199.417 190.405 198.979 190.405 198.416V194.36H189.417V193.814L190.418 193.359L190.873 191.877H191.549V193.476H193.564V194.36H191.549V198.39C191.549 198.815 191.649 199.131 191.848 199.339C192.056 199.538 192.32 199.638 192.641 199.638ZM196.691 190.564V193.463C196.691 193.81 196.669 194.135 196.626 194.438H196.704C196.929 194.083 197.233 193.814 197.614 193.632C198.004 193.45 198.424 193.359 198.875 193.359C199.724 193.359 200.361 193.563 200.786 193.97C201.211 194.369 201.423 195.014 201.423 195.907V200.444H200.292V195.985C200.292 194.867 199.772 194.308 198.732 194.308C197.952 194.308 197.415 194.529 197.12 194.971C196.834 195.404 196.691 196.028 196.691 196.843V200.444H195.547V190.564H196.691Z" fill="#00823B"/>
<path d="M206.462 104.798C206.462 106.514 206.275 107.984 205.902 109.208C205.544 110.432 204.955 111.372 204.134 112.029C203.328 112.685 202.238 113.014 200.865 113.014C198.94 113.014 197.53 112.29 196.634 110.842C195.739 109.38 195.291 107.365 195.291 104.798C195.291 103.067 195.47 101.589 195.828 100.365C196.186 99.1415 196.776 98.2012 197.597 97.5446C198.418 96.8879 199.507 96.5596 200.865 96.5596C202.776 96.5596 204.186 97.2834 205.096 98.7311C206.007 100.179 206.462 102.201 206.462 104.798ZM198.649 104.798C198.649 106.619 198.806 107.992 199.119 108.917C199.433 109.827 200.015 110.283 200.865 110.283C201.701 110.283 202.283 109.827 202.611 108.917C202.94 108.007 203.104 106.634 203.104 104.798C203.104 102.977 202.94 101.604 202.611 100.679C202.283 99.7534 201.701 99.2907 200.865 99.2907C200.015 99.2907 199.433 99.7534 199.119 100.679C198.806 101.604 198.649 102.977 198.649 104.798Z" fill="#00823B"/>
<path d="M219.873 104.798C219.873 106.514 219.686 107.984 219.313 109.208C218.955 110.432 218.365 111.372 217.544 112.029C216.738 112.685 215.649 113.014 214.276 113.014C212.351 113.014 210.94 112.29 210.045 110.842C209.149 109.38 208.702 107.365 208.702 104.798C208.702 103.067 208.881 101.589 209.239 100.365C209.597 99.1415 210.187 98.2012 211.007 97.5446C211.828 96.8879 212.918 96.5596 214.276 96.5596C216.186 96.5596 217.597 97.2834 218.507 98.7311C219.417 100.179 219.873 102.201 219.873 104.798ZM212.06 104.798C212.06 106.619 212.216 107.992 212.53 108.917C212.843 109.827 213.425 110.283 214.276 110.283C215.112 110.283 215.694 109.827 216.022 108.917C216.35 108.007 216.515 106.634 216.515 104.798C216.515 102.977 216.35 101.604 216.022 100.679C215.694 99.7534 215.112 99.2907 214.276 99.2907C213.425 99.2907 212.843 99.7534 212.53 100.679C212.216 101.604 212.06 102.977 212.06 104.798Z" fill="#00823B"/>
<path d="M119.549 146.549V144.355C118.579 144.325 117.713 144.236 116.952 144.087C116.191 143.922 115.497 143.699 114.87 143.415V140.527C115.482 140.826 116.221 141.102 117.086 141.355C117.952 141.594 118.773 141.736 119.549 141.781V138.4C118.4 137.953 117.474 137.52 116.773 137.102C116.086 136.669 115.594 136.192 115.295 135.669C114.997 135.147 114.848 134.52 114.848 133.789C114.848 132.669 115.28 131.781 116.146 131.125C117.027 130.453 118.161 130.058 119.549 129.938V128.259H121.049V129.893C122.705 129.953 124.213 130.289 125.571 130.901L124.541 133.453C123.944 133.199 123.34 133.005 122.728 132.871C122.131 132.737 121.571 132.647 121.049 132.602V135.826C121.855 136.124 122.623 136.453 123.355 136.811C124.086 137.154 124.675 137.594 125.123 138.132C125.586 138.669 125.817 139.378 125.817 140.258C125.817 141.348 125.422 142.258 124.631 142.99C123.84 143.721 122.646 144.161 121.049 144.31V146.549H119.549ZM119.549 135.221V132.647C118.609 132.781 118.138 133.162 118.138 133.789C118.138 134.102 118.25 134.363 118.474 134.572C118.698 134.781 119.056 134.998 119.549 135.221ZM121.049 141.714C122.034 141.534 122.526 141.102 122.526 140.415C122.526 140.117 122.399 139.863 122.146 139.654C121.907 139.43 121.541 139.206 121.049 138.982V141.714Z" fill="#00823B"/>
<path d="M194.164 137.359C194.164 144.411 193.399 150.548 191.869 155.772C190.377 160.958 188.288 165.249 185.601 168.644C182.952 172.04 179.799 174.577 176.143 176.256C172.524 177.897 168.606 178.718 164.39 178.718C160.174 178.718 156.256 177.897 152.637 176.256C149.055 174.577 145.94 172.04 143.291 168.644C140.642 165.249 138.571 160.958 137.078 155.772C135.586 150.548 134.84 144.411 134.84 137.359C134.84 130.27 135.586 124.132 137.078 118.946C138.571 113.76 140.642 109.469 143.291 106.074C145.94 102.679 149.055 100.16 152.637 98.5185C156.256 96.8395 160.174 96 164.39 96C168.606 96 172.524 96.8395 176.143 98.5185C179.799 100.16 182.952 102.679 185.601 106.074C188.288 109.469 190.377 113.76 191.869 118.946C193.399 124.132 194.164 130.27 194.164 137.359ZM179.893 137.359C179.893 131.501 179.464 126.651 178.605 122.808C177.747 118.965 176.591 115.905 175.136 113.629C173.718 111.353 172.076 109.768 170.211 108.872C168.345 107.939 166.405 107.473 164.39 107.473C162.413 107.473 160.491 107.939 158.626 108.872C156.797 109.768 155.174 111.353 153.756 113.629C152.339 115.905 151.201 118.965 150.343 122.808C149.522 126.651 149.111 131.501 149.111 137.359C149.111 143.217 149.522 148.067 150.343 151.91C151.201 155.753 152.339 158.813 153.756 161.089C155.174 163.365 156.797 164.969 158.626 165.902C160.491 166.797 162.413 167.245 164.39 167.245C166.405 167.245 168.345 166.797 170.211 165.902C172.076 164.969 173.718 163.365 175.136 161.089C176.591 158.813 177.747 155.753 178.605 151.91C179.464 148.067 179.893 143.217 179.893 137.359Z" fill="#00823B"/>
<rect x="16.5" y="0.5" width="303" height="343" rx="24.5" stroke="#BBBDBF"/>
</g>
<defs>
<filter id="filter0_d" x="16" y="0" width="312" height="352" filterUnits="userSpaceOnUse" color-interpolation-filters="sRGB">
<feFlood flood-opacity="0" result="BackgroundImageFix"/>
<feColorMatrix in="SourceAlpha" type="matrix" values="0 0 0 0 0 0 0 0 0 0 0 0 0 0 0 0 0 0 127 0"/>
<feOffset dx="4" dy="4"/>
<feGaussianBlur stdDeviation="2"/>
<feColorMatrix type="matrix" values="0 0 0 0 0 0 0 0 0 0 0 0 0 0 0 0 0 0 0.1 0"/>
<feBlend mode="normal" in2="BackgroundImageFix" result="effect1_dropShadow"/>
<feBlend mode="normal" in="SourceGraphic" in2="effect1_dropShadow" result="shape"/>
</filter>
</defs>
</svg>
