<svg width="336" height="352" viewBox="0 0 336 352" fill="none" xmlns="http://www.w3.org/2000/svg">
<rect x="0.5" y="24.5" width="335" height="295" rx="19.5" fill="white"/>
<path d="M0 44C0 32.9543 8.95431 24 20 24H316C327.046 24 336 32.9543 336 44V80H0V44Z" fill="#DADADB"/>
<rect x="0.5" y="24.5" width="335" height="295" rx="19.5" stroke="#DADADB"/>
<g filter="url(#filter0_d)">
<rect x="16" width="304" height="344" rx="25" fill="white"/>
<path d="M115.586 239.615C114.589 239.615 113.805 239.949 113.233 240.616C112.661 241.283 112.375 242.198 112.375 243.359C112.375 244.512 112.639 245.426 113.168 246.102C113.705 246.769 114.507 247.103 115.573 247.103C115.98 247.103 116.366 247.068 116.73 246.999C117.094 246.93 117.449 246.843 117.796 246.739V247.753C117.449 247.883 117.09 247.978 116.717 248.039C116.353 248.1 115.915 248.13 115.404 248.13C114.459 248.13 113.671 247.935 113.038 247.545C112.405 247.155 111.929 246.6 111.608 245.881C111.296 245.162 111.14 244.317 111.14 243.346C111.14 242.41 111.309 241.587 111.647 240.876C111.994 240.157 112.501 239.598 113.168 239.199C113.835 238.792 114.646 238.588 115.599 238.588C116.578 238.588 117.432 238.77 118.16 239.134L117.692 240.122C117.406 239.992 117.085 239.875 116.73 239.771C116.383 239.667 116.002 239.615 115.586 239.615ZM126.26 244.503C126.26 245.656 125.965 246.548 125.376 247.181C124.795 247.814 124.006 248.13 123.01 248.13C122.394 248.13 121.844 247.991 121.359 247.714C120.882 247.428 120.505 247.016 120.228 246.479C119.95 245.933 119.812 245.274 119.812 244.503C119.812 243.35 120.102 242.462 120.683 241.838C121.263 241.214 122.052 240.902 123.049 240.902C123.681 240.902 124.236 241.045 124.713 241.331C125.198 241.608 125.575 242.016 125.844 242.553C126.121 243.082 126.26 243.732 126.26 244.503ZM120.995 244.503C120.995 245.326 121.155 245.981 121.476 246.466C121.805 246.943 122.325 247.181 123.036 247.181C123.738 247.181 124.253 246.943 124.583 246.466C124.912 245.981 125.077 245.326 125.077 244.503C125.077 243.68 124.912 243.034 124.583 242.566C124.253 242.098 123.733 241.864 123.023 241.864C122.312 241.864 121.796 242.098 121.476 242.566C121.155 243.034 120.995 243.68 120.995 244.503ZM134.432 241.032V248H133.496L133.327 247.077H133.275C133.05 247.441 132.738 247.71 132.339 247.883C131.941 248.048 131.516 248.13 131.065 248.13C130.225 248.13 129.592 247.931 129.167 247.532C128.743 247.125 128.53 246.479 128.53 245.595V241.032H129.687V245.517C129.687 246.626 130.203 247.181 131.234 247.181C132.006 247.181 132.539 246.964 132.833 246.531C133.137 246.098 133.288 245.474 133.288 244.659V241.032H134.432ZM140.43 240.902C140.56 240.902 140.699 240.911 140.846 240.928C141.002 240.937 141.137 240.954 141.249 240.98L141.106 242.033C140.994 242.007 140.868 241.985 140.729 241.968C140.599 241.951 140.474 241.942 140.352 241.942C139.997 241.942 139.663 242.042 139.351 242.241C139.039 242.432 138.788 242.705 138.597 243.06C138.415 243.407 138.324 243.814 138.324 244.282V248H137.18V241.032H138.116L138.246 242.306H138.298C138.524 241.925 138.814 241.595 139.169 241.318C139.525 241.041 139.945 240.902 140.43 240.902ZM146.336 240.902C146.466 240.902 146.605 240.911 146.752 240.928C146.908 240.937 147.042 240.954 147.155 240.98L147.012 242.033C146.899 242.007 146.774 241.985 146.635 241.968C146.505 241.951 146.379 241.942 146.258 241.942C145.903 241.942 145.569 242.042 145.257 242.241C144.945 242.432 144.694 242.705 144.503 243.06C144.321 243.407 144.23 243.814 144.23 244.282V248H143.086V241.032H144.022L144.152 242.306H144.204C144.429 241.925 144.72 241.595 145.075 241.318C145.43 241.041 145.851 240.902 146.336 240.902ZM149.577 238.419C149.75 238.419 149.902 238.48 150.032 238.601C150.171 238.714 150.24 238.896 150.24 239.147C150.24 239.39 150.171 239.572 150.032 239.693C149.902 239.814 149.75 239.875 149.577 239.875C149.386 239.875 149.226 239.814 149.096 239.693C148.966 239.572 148.901 239.39 148.901 239.147C148.901 238.896 148.966 238.714 149.096 238.601C149.226 238.48 149.386 238.419 149.577 238.419ZM150.136 241.032V248H148.992V241.032H150.136ZM155.57 240.902C156.168 240.902 156.68 241.032 157.104 241.292C157.538 241.552 157.867 241.92 158.092 242.397C158.326 242.865 158.443 243.415 158.443 244.048V244.737H153.672C153.69 245.526 153.889 246.128 154.27 246.544C154.66 246.951 155.202 247.155 155.895 247.155C156.337 247.155 156.727 247.116 157.065 247.038C157.412 246.951 157.767 246.83 158.131 246.674V247.675C157.776 247.831 157.425 247.944 157.078 248.013C156.732 248.091 156.32 248.13 155.843 248.13C155.185 248.13 154.6 247.996 154.088 247.727C153.586 247.458 153.191 247.06 152.905 246.531C152.628 245.994 152.489 245.339 152.489 244.568C152.489 243.805 152.615 243.151 152.866 242.605C153.126 242.059 153.486 241.639 153.945 241.344C154.413 241.049 154.955 240.902 155.57 240.902ZM155.557 241.838C155.011 241.838 154.578 242.016 154.257 242.371C153.945 242.718 153.759 243.203 153.698 243.827H157.247C157.239 243.238 157.1 242.761 156.831 242.397C156.563 242.024 156.138 241.838 155.557 241.838ZM161.897 248H160.753V238.12H161.897V248ZM169.177 246.076C169.177 246.752 168.926 247.263 168.423 247.61C167.92 247.957 167.244 248.13 166.395 248.13C165.91 248.13 165.489 248.091 165.134 248.013C164.787 247.935 164.48 247.827 164.211 247.688V246.648C164.488 246.787 164.822 246.917 165.212 247.038C165.611 247.151 166.014 247.207 166.421 247.207C167.002 247.207 167.422 247.116 167.682 246.934C167.942 246.743 168.072 246.492 168.072 246.18C168.072 246.007 168.024 245.851 167.929 245.712C167.834 245.573 167.66 245.435 167.409 245.296C167.166 245.157 166.815 245.001 166.356 244.828C165.905 244.655 165.52 244.481 165.199 244.308C164.878 244.135 164.631 243.927 164.458 243.684C164.285 243.441 164.198 243.129 164.198 242.748C164.198 242.159 164.436 241.704 164.913 241.383C165.398 241.062 166.031 240.902 166.811 240.902C167.236 240.902 167.63 240.945 167.994 241.032C168.367 241.11 168.713 241.223 169.034 241.37L168.644 242.28C168.349 242.159 168.042 242.055 167.721 241.968C167.4 241.881 167.071 241.838 166.733 241.838C166.265 241.838 165.905 241.916 165.654 242.072C165.411 242.219 165.29 242.423 165.29 242.683C165.29 242.874 165.346 243.038 165.459 243.177C165.572 243.307 165.758 243.437 166.018 243.567C166.287 243.688 166.642 243.836 167.084 244.009C167.526 244.174 167.903 244.343 168.215 244.516C168.527 244.689 168.765 244.902 168.93 245.153C169.095 245.396 169.177 245.703 169.177 246.076ZM175.894 238.419C176.068 238.419 176.219 238.48 176.349 238.601C176.488 238.714 176.557 238.896 176.557 239.147C176.557 239.39 176.488 239.572 176.349 239.693C176.219 239.814 176.068 239.875 175.894 239.875C175.704 239.875 175.543 239.814 175.413 239.693C175.283 239.572 175.218 239.39 175.218 239.147C175.218 238.896 175.283 238.714 175.413 238.601C175.543 238.48 175.704 238.419 175.894 238.419ZM176.453 241.032V248H175.309V241.032H176.453ZM180.34 248H179.196V238.12H180.34V248ZM184.228 248H183.084V238.12H184.228V248ZM187.556 238.419C187.729 238.419 187.881 238.48 188.011 238.601C188.15 238.714 188.219 238.896 188.219 239.147C188.219 239.39 188.15 239.572 188.011 239.693C187.881 239.814 187.729 239.875 187.556 239.875C187.365 239.875 187.205 239.814 187.075 239.693C186.945 239.572 186.88 239.39 186.88 239.147C186.88 238.896 186.945 238.714 187.075 238.601C187.205 238.48 187.365 238.419 187.556 238.419ZM188.115 241.032V248H186.971V241.032H188.115ZM198.502 240.902C199.291 240.902 199.88 241.106 200.27 241.513C200.66 241.912 200.855 242.562 200.855 243.463V248H199.724V243.515C199.724 242.414 199.252 241.864 198.307 241.864C197.631 241.864 197.146 242.059 196.851 242.449C196.565 242.839 196.422 243.407 196.422 244.152V248H195.291V243.515C195.291 242.414 194.815 241.864 193.861 241.864C193.159 241.864 192.674 242.081 192.405 242.514C192.137 242.947 192.002 243.571 192.002 244.386V248H190.858V241.032H191.781L191.95 241.981H192.015C192.232 241.617 192.522 241.348 192.886 241.175C193.259 240.993 193.653 240.902 194.069 240.902C195.161 240.902 195.872 241.292 196.201 242.072H196.266C196.5 241.673 196.817 241.379 197.215 241.188C197.623 240.997 198.052 240.902 198.502 240.902ZM204.128 238.419C204.302 238.419 204.453 238.48 204.583 238.601C204.722 238.714 204.791 238.896 204.791 239.147C204.791 239.39 204.722 239.572 204.583 239.693C204.453 239.814 204.302 239.875 204.128 239.875C203.938 239.875 203.777 239.814 203.647 239.693C203.517 239.572 203.452 239.39 203.452 239.147C203.452 238.896 203.517 238.714 203.647 238.601C203.777 238.48 203.938 238.419 204.128 238.419ZM204.687 241.032V248H203.543V241.032H204.687ZM209.758 247.194C209.931 247.194 210.109 247.181 210.291 247.155C210.473 247.12 210.62 247.086 210.733 247.051V247.922C210.611 247.983 210.438 248.03 210.213 248.065C209.987 248.108 209.771 248.13 209.563 248.13C209.199 248.13 208.861 248.069 208.549 247.948C208.245 247.818 207.998 247.597 207.808 247.285C207.617 246.973 207.522 246.535 207.522 245.972V241.916H206.534V241.37L207.535 240.915L207.99 239.433H208.666V241.032H210.681V241.916H208.666V245.946C208.666 246.371 208.765 246.687 208.965 246.895C209.173 247.094 209.437 247.194 209.758 247.194ZM215.355 240.902C215.953 240.902 216.464 241.032 216.889 241.292C217.322 241.552 217.651 241.92 217.877 242.397C218.111 242.865 218.228 243.415 218.228 244.048V244.737H213.457C213.474 245.526 213.673 246.128 214.055 246.544C214.445 246.951 214.986 247.155 215.68 247.155C216.122 247.155 216.512 247.116 216.85 247.038C217.196 246.951 217.552 246.83 217.916 246.674V247.675C217.56 247.831 217.209 247.944 216.863 248.013C216.516 248.091 216.104 248.13 215.628 248.13C214.969 248.13 214.384 247.996 213.873 247.727C213.37 247.458 212.976 247.06 212.69 246.531C212.412 245.994 212.274 245.339 212.274 244.568C212.274 243.805 212.399 243.151 212.651 242.605C212.911 242.059 213.27 241.639 213.73 241.344C214.198 241.049 214.739 240.902 215.355 240.902ZM215.342 241.838C214.796 241.838 214.362 242.016 214.042 242.371C213.73 242.718 213.543 243.203 213.483 243.827H217.032C217.023 243.238 216.884 242.761 216.616 242.397C216.347 242.024 215.922 241.838 215.342 241.838ZM217.097 238.042V238.172C216.993 238.328 216.832 238.532 216.616 238.783C216.399 239.026 216.165 239.273 215.914 239.524C215.671 239.767 215.446 239.966 215.238 240.122H214.484V239.966C214.614 239.801 214.752 239.606 214.9 239.381C215.056 239.156 215.207 238.926 215.355 238.692C215.502 238.449 215.623 238.233 215.719 238.042H217.097ZM225.074 246.076C225.074 246.752 224.823 247.263 224.32 247.61C223.818 247.957 223.142 248.13 222.292 248.13C221.807 248.13 221.387 248.091 221.031 248.013C220.685 247.935 220.377 247.827 220.108 247.688V246.648C220.386 246.787 220.719 246.917 221.109 247.038C221.508 247.151 221.911 247.207 222.318 247.207C222.899 247.207 223.319 247.116 223.579 246.934C223.839 246.743 223.969 246.492 223.969 246.18C223.969 246.007 223.922 245.851 223.826 245.712C223.731 245.573 223.558 245.435 223.306 245.296C223.064 245.157 222.713 245.001 222.253 244.828C221.803 244.655 221.417 244.481 221.096 244.308C220.776 244.135 220.529 243.927 220.355 243.684C220.182 243.441 220.095 243.129 220.095 242.748C220.095 242.159 220.334 241.704 220.81 241.383C221.296 241.062 221.928 240.902 222.708 240.902C223.133 240.902 223.527 240.945 223.891 241.032C224.264 241.11 224.611 241.223 224.931 241.37L224.541 242.28C224.247 242.159 223.939 242.055 223.618 241.968C223.298 241.881 222.968 241.838 222.63 241.838C222.162 241.838 221.803 241.916 221.551 242.072C221.309 242.219 221.187 242.423 221.187 242.683C221.187 242.874 221.244 243.038 221.356 243.177C221.469 243.307 221.655 243.437 221.915 243.567C222.184 243.688 222.539 243.836 222.981 244.009C223.423 244.174 223.8 244.343 224.112 244.516C224.424 244.689 224.663 244.902 224.827 245.153C224.992 245.396 225.074 245.703 225.074 246.076ZM91.2902 269H86.1032V259.718H91.2902V260.745H87.2732V263.644H91.0562V264.658H87.2732V267.973H91.2902V269ZM97.0606 261.902C97.8926 261.902 98.5209 262.106 98.9456 262.513C99.3702 262.912 99.5826 263.562 99.5826 264.463V269H98.4516V264.541C98.4516 263.423 97.9316 262.864 96.8916 262.864C96.1202 262.864 95.5872 263.081 95.2926 263.514C94.9979 263.947 94.8506 264.571 94.8506 265.386V269H93.7066V262.032H94.6296L94.7986 262.981H94.8636C95.0889 262.617 95.4009 262.348 95.7996 262.175C96.1982 261.993 96.6186 261.902 97.0606 261.902ZM103.812 269L101.173 262.032H102.395L103.877 266.14C103.947 266.331 104.02 266.543 104.098 266.777C104.176 267.011 104.246 267.236 104.306 267.453C104.367 267.661 104.41 267.839 104.436 267.986H104.488C104.523 267.839 104.571 267.657 104.631 267.44C104.701 267.223 104.774 266.998 104.852 266.764C104.939 266.53 105.013 266.322 105.073 266.14L106.555 262.032H107.777L105.125 269H103.812ZM115.474 265.503C115.474 266.656 115.179 267.548 114.59 268.181C114.009 268.814 113.22 269.13 112.224 269.13C111.608 269.13 111.058 268.991 110.573 268.714C110.096 268.428 109.719 268.016 109.442 267.479C109.164 266.933 109.026 266.274 109.026 265.503C109.026 264.35 109.316 263.462 109.897 262.838C110.477 262.214 111.266 261.902 112.263 261.902C112.895 261.902 113.45 262.045 113.927 262.331C114.412 262.608 114.789 263.016 115.058 263.553C115.335 264.082 115.474 264.732 115.474 265.503ZM110.209 265.503C110.209 266.326 110.369 266.981 110.69 267.466C111.019 267.943 111.539 268.181 112.25 268.181C112.952 268.181 113.467 267.943 113.797 267.466C114.126 266.981 114.291 266.326 114.291 265.503C114.291 264.68 114.126 264.034 113.797 263.566C113.467 263.098 112.947 262.864 112.237 262.864C111.526 262.864 111.01 263.098 110.69 263.566C110.369 264.034 110.209 264.68 110.209 265.503ZM118.407 259.419C118.581 259.419 118.732 259.48 118.862 259.601C119.001 259.714 119.07 259.896 119.07 260.147C119.07 260.39 119.001 260.572 118.862 260.693C118.732 260.814 118.581 260.875 118.407 260.875C118.217 260.875 118.056 260.814 117.926 260.693C117.796 260.572 117.731 260.39 117.731 260.147C117.731 259.896 117.796 259.714 117.926 259.601C118.056 259.48 118.217 259.419 118.407 259.419ZM118.966 262.032V269H117.822V262.032H118.966ZM128.092 269.13C127.226 269.13 126.532 268.831 126.012 268.233C125.492 267.626 125.232 266.725 125.232 265.529C125.232 264.333 125.492 263.432 126.012 262.825C126.541 262.21 127.239 261.902 128.105 261.902C128.643 261.902 129.08 262.002 129.418 262.201C129.765 262.4 130.047 262.643 130.263 262.929H130.341C130.333 262.816 130.315 262.652 130.289 262.435C130.272 262.21 130.263 262.032 130.263 261.902V259.12H131.407V269H130.484L130.315 268.064H130.263C130.055 268.359 129.778 268.61 129.431 268.818C129.085 269.026 128.638 269.13 128.092 269.13ZM128.274 268.181C129.011 268.181 129.527 267.982 129.821 267.583C130.125 267.176 130.276 266.565 130.276 265.75V265.542C130.276 264.675 130.133 264.012 129.847 263.553C129.561 263.085 129.033 262.851 128.261 262.851C127.646 262.851 127.182 263.098 126.87 263.592C126.567 264.077 126.415 264.732 126.415 265.555C126.415 266.387 126.567 267.033 126.87 267.492C127.182 267.951 127.65 268.181 128.274 268.181ZM136.847 261.902C137.445 261.902 137.957 262.032 138.381 262.292C138.815 262.552 139.144 262.92 139.369 263.397C139.603 263.865 139.72 264.415 139.72 265.048V265.737H134.949C134.967 266.526 135.166 267.128 135.547 267.544C135.937 267.951 136.479 268.155 137.172 268.155C137.614 268.155 138.004 268.116 138.342 268.038C138.689 267.951 139.044 267.83 139.408 267.674V268.675C139.053 268.831 138.702 268.944 138.355 269.013C138.009 269.091 137.597 269.13 137.12 269.13C136.462 269.13 135.877 268.996 135.365 268.727C134.863 268.458 134.468 268.06 134.182 267.531C133.905 266.994 133.766 266.339 133.766 265.568C133.766 264.805 133.892 264.151 134.143 263.605C134.403 263.059 134.763 262.639 135.222 262.344C135.69 262.049 136.232 261.902 136.847 261.902ZM136.834 262.838C136.288 262.838 135.855 263.016 135.534 263.371C135.222 263.718 135.036 264.203 134.975 264.827H138.524C138.516 264.238 138.377 263.761 138.108 263.397C137.84 263.024 137.415 262.838 136.834 262.838ZM153.586 261.902C154.375 261.902 154.964 262.106 155.354 262.513C155.744 262.912 155.939 263.562 155.939 264.463V269H154.808V264.515C154.808 263.414 154.336 262.864 153.391 262.864C152.715 262.864 152.23 263.059 151.935 263.449C151.649 263.839 151.506 264.407 151.506 265.152V269H150.375V264.515C150.375 263.414 149.899 262.864 148.945 262.864C148.243 262.864 147.758 263.081 147.489 263.514C147.221 263.947 147.086 264.571 147.086 265.386V269H145.942V262.032H146.865L147.034 262.981H147.099C147.316 262.617 147.606 262.348 147.97 262.175C148.343 261.993 148.737 261.902 149.153 261.902C150.245 261.902 150.956 262.292 151.285 263.072H151.35C151.584 262.673 151.901 262.379 152.299 262.188C152.707 261.997 153.136 261.902 153.586 261.902ZM161.319 261.902C161.917 261.902 162.428 262.032 162.853 262.292C163.286 262.552 163.615 262.92 163.841 263.397C164.075 263.865 164.192 264.415 164.192 265.048V265.737H159.421C159.438 266.526 159.637 267.128 160.019 267.544C160.409 267.951 160.95 268.155 161.644 268.155C162.086 268.155 162.476 268.116 162.814 268.038C163.16 267.951 163.516 267.83 163.88 267.674V268.675C163.524 268.831 163.173 268.944 162.827 269.013C162.48 269.091 162.068 269.13 161.592 269.13C160.933 269.13 160.348 268.996 159.837 268.727C159.334 268.458 158.94 268.06 158.654 267.531C158.376 266.994 158.238 266.339 158.238 265.568C158.238 264.805 158.363 264.151 158.615 263.605C158.875 263.059 159.234 262.639 159.694 262.344C160.162 262.049 160.703 261.902 161.319 261.902ZM161.306 262.838C160.76 262.838 160.326 263.016 160.006 263.371C159.694 263.718 159.507 264.203 159.447 264.827H162.996C162.987 264.238 162.848 263.761 162.58 263.397C162.311 263.024 161.886 262.838 161.306 262.838ZM171.038 267.076C171.038 267.752 170.787 268.263 170.284 268.61C169.782 268.957 169.106 269.13 168.256 269.13C167.771 269.13 167.351 269.091 166.995 269.013C166.649 268.935 166.341 268.827 166.072 268.688V267.648C166.35 267.787 166.683 267.917 167.073 268.038C167.472 268.151 167.875 268.207 168.282 268.207C168.863 268.207 169.283 268.116 169.543 267.934C169.803 267.743 169.933 267.492 169.933 267.18C169.933 267.007 169.886 266.851 169.79 266.712C169.695 266.573 169.522 266.435 169.27 266.296C169.028 266.157 168.677 266.001 168.217 265.828C167.767 265.655 167.381 265.481 167.06 265.308C166.74 265.135 166.493 264.927 166.319 264.684C166.146 264.441 166.059 264.129 166.059 263.748C166.059 263.159 166.298 262.704 166.774 262.383C167.26 262.062 167.892 261.902 168.672 261.902C169.097 261.902 169.491 261.945 169.855 262.032C170.228 262.11 170.575 262.223 170.895 262.37L170.505 263.28C170.211 263.159 169.903 263.055 169.582 262.968C169.262 262.881 168.932 262.838 168.594 262.838C168.126 262.838 167.767 262.916 167.515 263.072C167.273 263.219 167.151 263.423 167.151 263.683C167.151 263.874 167.208 264.038 167.32 264.177C167.433 264.307 167.619 264.437 167.879 264.567C168.148 264.688 168.503 264.836 168.945 265.009C169.387 265.174 169.764 265.343 170.076 265.516C170.388 265.689 170.627 265.902 170.791 266.153C170.956 266.396 171.038 266.703 171.038 267.076ZM177.795 267.076C177.795 267.752 177.543 268.263 177.041 268.61C176.538 268.957 175.862 269.13 175.013 269.13C174.527 269.13 174.107 269.091 173.752 269.013C173.405 268.935 173.097 268.827 172.829 268.688V267.648C173.106 267.787 173.44 267.917 173.83 268.038C174.228 268.151 174.631 268.207 175.039 268.207C175.619 268.207 176.04 268.116 176.3 267.934C176.56 267.743 176.69 267.492 176.69 267.18C176.69 267.007 176.642 266.851 176.547 266.712C176.451 266.573 176.278 266.435 176.027 266.296C175.784 266.157 175.433 266.001 174.974 265.828C174.523 265.655 174.137 265.481 173.817 265.308C173.496 265.135 173.249 264.927 173.076 264.684C172.902 264.441 172.816 264.129 172.816 263.748C172.816 263.159 173.054 262.704 173.531 262.383C174.016 262.062 174.649 261.902 175.429 261.902C175.853 261.902 176.248 261.945 176.612 262.032C176.984 262.11 177.331 262.223 177.652 262.37L177.262 263.28C176.967 263.159 176.659 263.055 176.339 262.968C176.018 262.881 175.689 262.838 175.351 262.838C174.883 262.838 174.523 262.916 174.272 263.072C174.029 263.219 173.908 263.423 173.908 263.683C173.908 263.874 173.964 264.038 174.077 264.177C174.189 264.307 174.376 264.437 174.636 264.567C174.904 264.688 175.26 264.836 175.702 265.009C176.144 265.174 176.521 265.343 176.833 265.516C177.145 265.689 177.383 265.902 177.548 266.153C177.712 266.396 177.795 266.703 177.795 267.076ZM182.653 261.915C183.502 261.915 184.131 262.101 184.538 262.474C184.945 262.847 185.149 263.44 185.149 264.255V269H184.317L184.096 268.012H184.044C183.741 268.393 183.42 268.675 183.082 268.857C182.753 269.039 182.293 269.13 181.704 269.13C181.071 269.13 180.547 268.965 180.131 268.636C179.715 268.298 179.507 267.774 179.507 267.063C179.507 266.37 179.78 265.837 180.326 265.464C180.872 265.083 181.713 264.875 182.848 264.84L184.031 264.801V264.385C184.031 263.804 183.905 263.401 183.654 263.176C183.403 262.951 183.047 262.838 182.588 262.838C182.224 262.838 181.877 262.894 181.548 263.007C181.219 263.111 180.911 263.232 180.625 263.371L180.274 262.513C180.577 262.348 180.937 262.21 181.353 262.097C181.769 261.976 182.202 261.915 182.653 261.915ZM184.018 265.594L182.991 265.633C182.124 265.668 181.522 265.806 181.184 266.049C180.855 266.292 180.69 266.634 180.69 267.076C180.69 267.466 180.807 267.752 181.041 267.934C181.284 268.116 181.591 268.207 181.964 268.207C182.553 268.207 183.043 268.047 183.433 267.726C183.823 267.397 184.018 266.894 184.018 266.218V265.594ZM190.307 261.902C190.766 261.902 191.178 261.989 191.542 262.162C191.915 262.335 192.231 262.6 192.491 262.955H192.556L192.712 262.032H193.622V269.117C193.622 270.114 193.366 270.863 192.855 271.366C192.352 271.869 191.568 272.12 190.502 272.12C189.479 272.12 188.643 271.973 187.993 271.678V270.625C188.678 270.989 189.536 271.171 190.567 271.171C191.165 271.171 191.633 270.993 191.971 270.638C192.318 270.291 192.491 269.815 192.491 269.208V268.935C192.491 268.831 192.495 268.684 192.504 268.493C192.513 268.294 192.521 268.155 192.53 268.077H192.478C192.01 268.779 191.291 269.13 190.32 269.13C189.419 269.13 188.712 268.814 188.201 268.181C187.698 267.548 187.447 266.664 187.447 265.529C187.447 264.42 187.698 263.54 188.201 262.89C188.712 262.231 189.414 261.902 190.307 261.902ZM190.463 262.864C189.882 262.864 189.432 263.098 189.111 263.566C188.79 264.025 188.63 264.684 188.63 265.542C188.63 266.4 188.786 267.059 189.098 267.518C189.419 267.969 189.882 268.194 190.489 268.194C191.191 268.194 191.702 268.008 192.023 267.635C192.344 267.254 192.504 266.643 192.504 265.802V265.529C192.504 264.576 192.339 263.895 192.01 263.488C191.681 263.072 191.165 262.864 190.463 262.864ZM199.062 261.902C199.66 261.902 200.171 262.032 200.596 262.292C201.029 262.552 201.358 262.92 201.584 263.397C201.818 263.865 201.935 264.415 201.935 265.048V265.737H197.164C197.181 266.526 197.38 267.128 197.762 267.544C198.152 267.951 198.693 268.155 199.387 268.155C199.829 268.155 200.219 268.116 200.557 268.038C200.903 267.951 201.259 267.83 201.623 267.674V268.675C201.267 268.831 200.916 268.944 200.57 269.013C200.223 269.091 199.811 269.13 199.335 269.13C198.676 269.13 198.091 268.996 197.58 268.727C197.077 268.458 196.683 268.06 196.397 267.531C196.119 266.994 195.981 266.339 195.981 265.568C195.981 264.805 196.106 264.151 196.358 263.605C196.618 263.059 196.977 262.639 197.437 262.344C197.905 262.049 198.446 261.902 199.062 261.902ZM199.049 262.838C198.503 262.838 198.069 263.016 197.749 263.371C197.437 263.718 197.25 264.203 197.19 264.827H200.739C200.73 264.238 200.591 263.761 200.323 263.397C200.054 263.024 199.629 262.838 199.049 262.838ZM208.781 267.076C208.781 267.752 208.53 268.263 208.027 268.61C207.525 268.957 206.849 269.13 205.999 269.13C205.514 269.13 205.094 269.091 204.738 269.013C204.392 268.935 204.084 268.827 203.815 268.688V267.648C204.093 267.787 204.426 267.917 204.816 268.038C205.215 268.151 205.618 268.207 206.025 268.207C206.606 268.207 207.026 268.116 207.286 267.934C207.546 267.743 207.676 267.492 207.676 267.18C207.676 267.007 207.629 266.851 207.533 266.712C207.438 266.573 207.265 266.435 207.013 266.296C206.771 266.157 206.42 266.001 205.96 265.828C205.51 265.655 205.124 265.481 204.803 265.308C204.483 265.135 204.236 264.927 204.062 264.684C203.889 264.441 203.802 264.129 203.802 263.748C203.802 263.159 204.041 262.704 204.517 262.383C205.003 262.062 205.635 261.902 206.415 261.902C206.84 261.902 207.234 261.945 207.598 262.032C207.971 262.11 208.318 262.223 208.638 262.37L208.248 263.28C207.954 263.159 207.646 263.055 207.325 262.968C207.005 262.881 206.675 262.838 206.337 262.838C205.869 262.838 205.51 262.916 205.258 263.072C205.016 263.219 204.894 263.423 204.894 263.683C204.894 263.874 204.951 264.038 205.063 264.177C205.176 264.307 205.362 264.437 205.622 264.567C205.891 264.688 206.246 264.836 206.688 265.009C207.13 265.174 207.507 265.343 207.819 265.516C208.131 265.689 208.37 265.902 208.534 266.153C208.699 266.396 208.781 266.703 208.781 267.076ZM217.604 261.902C218.202 261.902 218.714 262.032 219.138 262.292C219.572 262.552 219.901 262.92 220.126 263.397C220.36 263.865 220.477 264.415 220.477 265.048V265.737H215.706C215.724 266.526 215.923 267.128 216.304 267.544C216.694 267.951 217.236 268.155 217.929 268.155C218.371 268.155 218.761 268.116 219.099 268.038C219.446 267.951 219.801 267.83 220.165 267.674V268.675C219.81 268.831 219.459 268.944 219.112 269.013C218.766 269.091 218.354 269.13 217.877 269.13C217.219 269.13 216.634 268.996 216.122 268.727C215.62 268.458 215.225 268.06 214.939 267.531C214.662 266.994 214.523 266.339 214.523 265.568C214.523 264.805 214.649 264.151 214.9 263.605C215.16 263.059 215.52 262.639 215.979 262.344C216.447 262.049 216.989 261.902 217.604 261.902ZM217.591 262.838C217.045 262.838 216.612 263.016 216.291 263.371C215.979 263.718 215.793 264.203 215.732 264.827H219.281C219.273 264.238 219.134 263.761 218.865 263.397C218.597 263.024 218.172 262.838 217.591 262.838ZM226.141 261.902C226.973 261.902 227.601 262.106 228.026 262.513C228.451 262.912 228.663 263.562 228.663 264.463V269H227.532V264.541C227.532 263.423 227.012 262.864 225.972 262.864C225.201 262.864 224.668 263.081 224.373 263.514C224.078 263.947 223.931 264.571 223.931 265.386V269H222.787V262.032H223.71L223.879 262.981H223.944C224.169 262.617 224.481 262.348 224.88 262.175C225.279 261.993 225.699 261.902 226.141 261.902ZM236.415 269H235.271V259.12H236.415V269ZM245.217 265.503C245.217 266.656 244.922 267.548 244.333 268.181C243.752 268.814 242.963 269.13 241.967 269.13C241.351 269.13 240.801 268.991 240.316 268.714C239.839 268.428 239.462 268.016 239.185 267.479C238.907 266.933 238.769 266.274 238.769 265.503C238.769 264.35 239.059 263.462 239.64 262.838C240.22 262.214 241.009 261.902 242.006 261.902C242.638 261.902 243.193 262.045 243.67 262.331C244.155 262.608 244.532 263.016 244.801 263.553C245.078 264.082 245.217 264.732 245.217 265.503ZM239.952 265.503C239.952 266.326 240.112 266.981 240.433 267.466C240.762 267.943 241.282 268.181 241.993 268.181C242.695 268.181 243.21 267.943 243.54 267.466C243.869 266.981 244.034 266.326 244.034 265.503C244.034 264.68 243.869 264.034 243.54 263.566C243.21 263.098 242.69 262.864 241.98 262.864C241.269 262.864 240.753 263.098 240.433 263.566C240.112 264.034 239.952 264.68 239.952 265.503ZM249.893 268.194C250.066 268.194 250.244 268.181 250.426 268.155C250.608 268.12 250.755 268.086 250.868 268.051V268.922C250.746 268.983 250.573 269.03 250.348 269.065C250.122 269.108 249.906 269.13 249.698 269.13C249.334 269.13 248.996 269.069 248.684 268.948C248.38 268.818 248.133 268.597 247.943 268.285C247.752 267.973 247.657 267.535 247.657 266.972V262.916H246.669V262.37L247.67 261.915L248.125 260.433H248.801V262.032H250.816V262.916H248.801V266.946C248.801 267.371 248.9 267.687 249.1 267.895C249.308 268.094 249.572 268.194 249.893 268.194ZM87.7008 285.099H90.9118V289.649C90.4091 289.814 89.9021 289.935 89.3908 290.013C88.8795 290.091 88.2988 290.13 87.6488 290.13C86.6868 290.13 85.8765 289.939 85.2178 289.558C84.5591 289.168 84.0565 288.618 83.7098 287.907C83.3718 287.188 83.2028 286.338 83.2028 285.359C83.2028 284.388 83.3935 283.548 83.7748 282.837C84.1561 282.126 84.7021 281.576 85.4128 281.186C86.1321 280.787 86.9988 280.588 88.0128 280.588C88.5328 280.588 89.0225 280.636 89.4818 280.731C89.9498 280.826 90.3831 280.961 90.7818 281.134L90.3398 282.148C90.0105 282.001 89.6378 281.875 89.2218 281.771C88.8145 281.667 88.3898 281.615 87.9478 281.615C86.8385 281.615 85.9718 281.949 85.3478 282.616C84.7325 283.283 84.4248 284.198 84.4248 285.359C84.4248 286.096 84.5418 286.75 84.7758 287.322C85.0185 287.885 85.3955 288.327 85.9068 288.648C86.4181 288.96 87.0898 289.116 87.9218 289.116C88.3291 289.116 88.6758 289.094 88.9618 289.051C89.2478 289.008 89.5078 288.956 89.7418 288.895V286.139H87.7008V285.099ZM96.1475 282.915C96.9969 282.915 97.6252 283.101 98.0325 283.474C98.4399 283.847 98.6435 284.44 98.6435 285.255V290H97.8115L97.5905 289.012H97.5385C97.2352 289.393 96.9145 289.675 96.5765 289.857C96.2472 290.039 95.7879 290.13 95.1985 290.13C94.5659 290.13 94.0415 289.965 93.6255 289.636C93.2095 289.298 93.0015 288.774 93.0015 288.063C93.0015 287.37 93.2745 286.837 93.8205 286.464C94.3665 286.083 95.2072 285.875 96.3425 285.84L97.5255 285.801V285.385C97.5255 284.804 97.3999 284.401 97.1485 284.176C96.8972 283.951 96.5419 283.838 96.0825 283.838C95.7185 283.838 95.3719 283.894 95.0425 284.007C94.7132 284.111 94.4055 284.232 94.1195 284.371L93.7685 283.513C94.0719 283.348 94.4315 283.21 94.8475 283.097C95.2635 282.976 95.6969 282.915 96.1475 282.915ZM97.5125 286.594L96.4855 286.633C95.6189 286.668 95.0165 286.806 94.6785 287.049C94.3492 287.292 94.1845 287.634 94.1845 288.076C94.1845 288.466 94.3015 288.752 94.5355 288.934C94.7782 289.116 95.0859 289.207 95.4585 289.207C96.0479 289.207 96.5375 289.047 96.9275 288.726C97.3175 288.397 97.5125 287.894 97.5125 287.218V286.594ZM102.475 280.12V282.525C102.475 282.82 102.467 283.097 102.449 283.357C102.441 283.608 102.428 283.808 102.41 283.955H102.475C102.675 283.66 102.948 283.413 103.294 283.214C103.641 283.015 104.087 282.915 104.633 282.915C105.5 282.915 106.193 283.218 106.713 283.825C107.242 284.423 107.506 285.32 107.506 286.516C107.506 287.712 107.242 288.613 106.713 289.22C106.185 289.827 105.491 290.13 104.633 290.13C104.087 290.13 103.641 290.03 103.294 289.831C102.948 289.632 102.675 289.393 102.475 289.116H102.384L102.15 290H101.331V280.12H102.475ZM104.438 283.864C103.702 283.864 103.19 284.076 102.904 284.501C102.618 284.926 102.475 285.584 102.475 286.477V286.529C102.475 287.387 102.614 288.046 102.891 288.505C103.177 288.956 103.702 289.181 104.464 289.181C105.088 289.181 105.552 288.951 105.855 288.492C106.167 288.033 106.323 287.37 106.323 286.503C106.323 284.744 105.695 283.864 104.438 283.864ZM112.504 282.915C113.353 282.915 113.982 283.101 114.389 283.474C114.796 283.847 115 284.44 115 285.255V290H114.168L113.947 289.012H113.895C113.592 289.393 113.271 289.675 112.933 289.857C112.604 290.039 112.144 290.13 111.555 290.13C110.922 290.13 110.398 289.965 109.982 289.636C109.566 289.298 109.358 288.774 109.358 288.063C109.358 287.37 109.631 286.837 110.177 286.464C110.723 286.083 111.564 285.875 112.699 285.84L113.882 285.801V285.385C113.882 284.804 113.756 284.401 113.505 284.176C113.254 283.951 112.898 283.838 112.439 283.838C112.075 283.838 111.728 283.894 111.399 284.007C111.07 284.111 110.762 284.232 110.476 284.371L110.125 283.513C110.428 283.348 110.788 283.21 111.204 283.097C111.62 282.976 112.053 282.915 112.504 282.915ZM113.869 286.594L112.842 286.633C111.975 286.668 111.373 286.806 111.035 287.049C110.706 287.292 110.541 287.634 110.541 288.076C110.541 288.466 110.658 288.752 110.892 288.934C111.135 289.116 111.442 289.207 111.815 289.207C112.404 289.207 112.894 289.047 113.284 288.726C113.674 288.397 113.869 287.894 113.869 287.218V286.594ZM120.938 282.902C121.068 282.902 121.207 282.911 121.354 282.928C121.51 282.937 121.644 282.954 121.757 282.98L121.614 284.033C121.501 284.007 121.376 283.985 121.237 283.968C121.107 283.951 120.981 283.942 120.86 283.942C120.505 283.942 120.171 284.042 119.859 284.241C119.547 284.432 119.296 284.705 119.105 285.06C118.923 285.407 118.832 285.814 118.832 286.282V290H117.688V283.032H118.624L118.754 284.306H118.806C119.031 283.925 119.322 283.595 119.677 283.318C120.032 283.041 120.453 282.902 120.938 282.902ZM124.179 280.419C124.352 280.419 124.504 280.48 124.634 280.601C124.772 280.714 124.842 280.896 124.842 281.147C124.842 281.39 124.772 281.572 124.634 281.693C124.504 281.814 124.352 281.875 124.179 281.875C123.988 281.875 123.828 281.814 123.698 281.693C123.568 281.572 123.503 281.39 123.503 281.147C123.503 280.896 123.568 280.714 123.698 280.601C123.828 280.48 123.988 280.419 124.179 280.419ZM124.738 283.032V290H123.594V283.032H124.738ZM129.808 289.194C129.981 289.194 130.159 289.181 130.341 289.155C130.523 289.12 130.67 289.086 130.783 289.051V289.922C130.662 289.983 130.488 290.03 130.263 290.065C130.038 290.108 129.821 290.13 129.613 290.13C129.249 290.13 128.911 290.069 128.599 289.948C128.296 289.818 128.049 289.597 127.858 289.285C127.667 288.973 127.572 288.535 127.572 287.972V283.916H126.584V283.37L127.585 282.915L128.04 281.433H128.716V283.032H130.731V283.916H128.716V287.946C128.716 288.371 128.816 288.687 129.015 288.895C129.223 289.094 129.487 289.194 129.808 289.194ZM137.251 288.076C137.251 288.752 137 289.263 136.497 289.61C135.994 289.957 135.318 290.13 134.469 290.13C133.984 290.13 133.563 290.091 133.208 290.013C132.861 289.935 132.554 289.827 132.285 289.688V288.648C132.562 288.787 132.896 288.917 133.286 289.038C133.685 289.151 134.088 289.207 134.495 289.207C135.076 289.207 135.496 289.116 135.756 288.934C136.016 288.743 136.146 288.492 136.146 288.18C136.146 288.007 136.098 287.851 136.003 287.712C135.908 287.573 135.734 287.435 135.483 287.296C135.24 287.157 134.889 287.001 134.43 286.828C133.979 286.655 133.594 286.481 133.273 286.308C132.952 286.135 132.705 285.927 132.532 285.684C132.359 285.441 132.272 285.129 132.272 284.748C132.272 284.159 132.51 283.704 132.987 283.383C133.472 283.062 134.105 282.902 134.885 282.902C135.31 282.902 135.704 282.945 136.068 283.032C136.441 283.11 136.787 283.223 137.108 283.37L136.718 284.28C136.423 284.159 136.116 284.055 135.795 283.968C135.474 283.881 135.145 283.838 134.807 283.838C134.339 283.838 133.979 283.916 133.728 284.072C133.485 284.219 133.364 284.423 133.364 284.683C133.364 284.874 133.42 285.038 133.533 285.177C133.646 285.307 133.832 285.437 134.092 285.567C134.361 285.688 134.716 285.836 135.158 286.009C135.6 286.174 135.977 286.343 136.289 286.516C136.601 286.689 136.839 286.902 137.004 287.153C137.169 287.396 137.251 287.703 137.251 288.076ZM146.698 282.902C147.556 282.902 148.245 283.201 148.765 283.799C149.294 284.397 149.558 285.298 149.558 286.503C149.558 287.69 149.294 288.592 148.765 289.207C148.245 289.822 147.552 290.13 146.685 290.13C146.148 290.13 145.701 290.03 145.346 289.831C144.999 289.623 144.726 289.385 144.527 289.116H144.449C144.466 289.263 144.484 289.45 144.501 289.675C144.518 289.9 144.527 290.095 144.527 290.26V293.12H143.383V283.032H144.319L144.475 283.981H144.527C144.735 283.678 145.008 283.422 145.346 283.214C145.684 283.006 146.135 282.902 146.698 282.902ZM146.49 283.864C145.779 283.864 145.277 284.063 144.982 284.462C144.696 284.861 144.544 285.467 144.527 286.282V286.503C144.527 287.361 144.666 288.024 144.943 288.492C145.229 288.951 145.753 289.181 146.516 289.181C146.941 289.181 147.287 289.064 147.556 288.83C147.833 288.596 148.037 288.28 148.167 287.881C148.306 287.474 148.375 287.01 148.375 286.49C148.375 285.693 148.219 285.056 147.907 284.579C147.604 284.102 147.131 283.864 146.49 283.864ZM154.608 282.902C155.206 282.902 155.717 283.032 156.142 283.292C156.575 283.552 156.905 283.92 157.13 284.397C157.364 284.865 157.481 285.415 157.481 286.048V286.737H152.71C152.727 287.526 152.927 288.128 153.308 288.544C153.698 288.951 154.24 289.155 154.933 289.155C155.375 289.155 155.765 289.116 156.103 289.038C156.45 288.951 156.805 288.83 157.169 288.674V289.675C156.814 289.831 156.463 289.944 156.116 290.013C155.769 290.091 155.358 290.13 154.881 290.13C154.222 290.13 153.637 289.996 153.126 289.727C152.623 289.458 152.229 289.06 151.943 288.531C151.666 287.994 151.527 287.339 151.527 286.568C151.527 285.805 151.653 285.151 151.904 284.605C152.164 284.059 152.524 283.639 152.983 283.344C153.451 283.049 153.993 282.902 154.608 282.902ZM154.595 283.838C154.049 283.838 153.616 284.016 153.295 284.371C152.983 284.718 152.797 285.203 152.736 285.827H156.285C156.276 285.238 156.138 284.761 155.869 284.397C155.6 284.024 155.176 283.838 154.595 283.838ZM163.04 282.902C163.17 282.902 163.309 282.911 163.456 282.928C163.612 282.937 163.747 282.954 163.859 282.98L163.716 284.033C163.604 284.007 163.478 283.985 163.339 283.968C163.209 283.951 163.084 283.942 162.962 283.942C162.607 283.942 162.273 284.042 161.961 284.241C161.649 284.432 161.398 284.705 161.207 285.06C161.025 285.407 160.934 285.814 160.934 286.282V290H159.79V283.032H160.726L160.856 284.306H160.908C161.134 283.925 161.424 283.595 161.779 283.318C162.135 283.041 162.555 282.902 163.04 282.902ZM170.233 288.076C170.233 288.752 169.982 289.263 169.479 289.61C168.977 289.957 168.301 290.13 167.451 290.13C166.966 290.13 166.546 290.091 166.19 290.013C165.844 289.935 165.536 289.827 165.267 289.688V288.648C165.545 288.787 165.878 288.917 166.268 289.038C166.667 289.151 167.07 289.207 167.477 289.207C168.058 289.207 168.478 289.116 168.738 288.934C168.998 288.743 169.128 288.492 169.128 288.18C169.128 288.007 169.081 287.851 168.985 287.712C168.89 287.573 168.717 287.435 168.465 287.296C168.223 287.157 167.872 287.001 167.412 286.828C166.962 286.655 166.576 286.481 166.255 286.308C165.935 286.135 165.688 285.927 165.514 285.684C165.341 285.441 165.254 285.129 165.254 284.748C165.254 284.159 165.493 283.704 165.969 283.383C166.455 283.062 167.087 282.902 167.867 282.902C168.292 282.902 168.686 282.945 169.05 283.032C169.423 283.11 169.77 283.223 170.09 283.37L169.7 284.28C169.406 284.159 169.098 284.055 168.777 283.968C168.457 283.881 168.127 283.838 167.789 283.838C167.321 283.838 166.962 283.916 166.71 284.072C166.468 284.219 166.346 284.423 166.346 284.683C166.346 284.874 166.403 285.038 166.515 285.177C166.628 285.307 166.814 285.437 167.074 285.567C167.343 285.688 167.698 285.836 168.14 286.009C168.582 286.174 168.959 286.343 169.271 286.516C169.583 286.689 169.822 286.902 169.986 287.153C170.151 287.396 170.233 287.703 170.233 288.076ZM178.511 286.503C178.511 287.656 178.216 288.548 177.627 289.181C177.046 289.814 176.257 290.13 175.261 290.13C174.645 290.13 174.095 289.991 173.61 289.714C173.133 289.428 172.756 289.016 172.479 288.479C172.201 287.933 172.063 287.274 172.063 286.503C172.063 285.35 172.353 284.462 172.934 283.838C173.514 283.214 174.303 282.902 175.3 282.902C175.932 282.902 176.487 283.045 176.964 283.331C177.449 283.608 177.826 284.016 178.095 284.553C178.372 285.082 178.511 285.732 178.511 286.503ZM173.246 286.503C173.246 287.326 173.406 287.981 173.727 288.466C174.056 288.943 174.576 289.181 175.287 289.181C175.989 289.181 176.504 288.943 176.834 288.466C177.163 287.981 177.328 287.326 177.328 286.503C177.328 285.68 177.163 285.034 176.834 284.566C176.504 284.098 175.984 283.864 175.274 283.864C174.563 283.864 174.047 284.098 173.727 284.566C173.406 285.034 173.246 285.68 173.246 286.503ZM184.214 282.902C185.046 282.902 185.674 283.106 186.099 283.513C186.523 283.912 186.736 284.562 186.736 285.463V290H185.605V285.541C185.605 284.423 185.085 283.864 184.045 283.864C183.273 283.864 182.74 284.081 182.446 284.514C182.151 284.947 182.004 285.571 182.004 286.386V290H180.86V283.032H181.783L181.952 283.981H182.017C182.242 283.617 182.554 283.348 182.953 283.175C183.351 282.993 183.772 282.902 184.214 282.902ZM192.785 282.902C193.617 282.902 194.246 283.106 194.67 283.513C195.095 283.912 195.307 284.562 195.307 285.463V290H194.176V285.541C194.176 284.423 193.656 283.864 192.616 283.864C191.845 283.864 191.312 284.081 191.017 284.514C190.723 284.947 190.575 285.571 190.575 286.386V290H189.431V283.032H190.354L190.523 283.981H190.588C190.814 283.617 191.126 283.348 191.524 283.175C191.923 282.993 192.343 282.902 192.785 282.902ZM200.642 282.915C201.492 282.915 202.12 283.101 202.527 283.474C202.935 283.847 203.138 284.44 203.138 285.255V290H202.306L202.085 289.012H202.033C201.73 289.393 201.409 289.675 201.071 289.857C200.742 290.039 200.283 290.13 199.693 290.13C199.061 290.13 198.536 289.965 198.12 289.636C197.704 289.298 197.496 288.774 197.496 288.063C197.496 287.37 197.769 286.837 198.315 286.464C198.861 286.083 199.702 285.875 200.837 285.84L202.02 285.801V285.385C202.02 284.804 201.895 284.401 201.643 284.176C201.392 283.951 201.037 283.838 200.577 283.838C200.213 283.838 199.867 283.894 199.537 284.007C199.208 284.111 198.9 284.232 198.614 284.371L198.263 283.513C198.567 283.348 198.926 283.21 199.342 283.097C199.758 282.976 200.192 282.915 200.642 282.915ZM202.007 286.594L200.98 286.633C200.114 286.668 199.511 286.806 199.173 287.049C198.844 287.292 198.679 287.634 198.679 288.076C198.679 288.466 198.796 288.752 199.03 288.934C199.273 289.116 199.581 289.207 199.953 289.207C200.543 289.207 201.032 289.047 201.422 288.726C201.812 288.397 202.007 287.894 202.007 287.218V286.594ZM206.97 290H205.826V280.12H206.97V290ZM210.298 280.419C210.472 280.419 210.623 280.48 210.753 280.601C210.892 280.714 210.961 280.896 210.961 281.147C210.961 281.39 210.892 281.572 210.753 281.693C210.623 281.814 210.472 281.875 210.298 281.875C210.108 281.875 209.947 281.814 209.817 281.693C209.687 281.572 209.622 281.39 209.622 281.147C209.622 280.896 209.687 280.714 209.817 280.601C209.947 280.48 210.108 280.419 210.298 280.419ZM210.857 283.032V290H209.713V283.032H210.857ZM218.138 288.076C218.138 288.752 217.886 289.263 217.384 289.61C216.881 289.957 216.205 290.13 215.356 290.13C214.87 290.13 214.45 290.091 214.095 290.013C213.748 289.935 213.44 289.827 213.172 289.688V288.648C213.449 288.787 213.783 288.917 214.173 289.038C214.571 289.151 214.974 289.207 215.382 289.207C215.962 289.207 216.383 289.116 216.643 288.934C216.903 288.743 217.033 288.492 217.033 288.18C217.033 288.007 216.985 287.851 216.89 287.712C216.794 287.573 216.621 287.435 216.37 287.296C216.127 287.157 215.776 287.001 215.317 286.828C214.866 286.655 214.48 286.481 214.16 286.308C213.839 286.135 213.592 285.927 213.419 285.684C213.245 285.441 213.159 285.129 213.159 284.748C213.159 284.159 213.397 283.704 213.874 283.383C214.359 283.062 214.992 282.902 215.772 282.902C216.196 282.902 216.591 282.945 216.955 283.032C217.327 283.11 217.674 283.223 217.995 283.37L217.605 284.28C217.31 284.159 217.002 284.055 216.682 283.968C216.361 283.881 216.032 283.838 215.694 283.838C215.226 283.838 214.866 283.916 214.615 284.072C214.372 284.219 214.251 284.423 214.251 284.683C214.251 284.874 214.307 285.038 214.42 285.177C214.532 285.307 214.719 285.437 214.979 285.567C215.247 285.688 215.603 285.836 216.045 286.009C216.487 286.174 216.864 286.343 217.176 286.516C217.488 286.689 217.726 286.902 217.891 287.153C218.055 287.396 218.138 287.703 218.138 288.076ZM222.996 282.915C223.845 282.915 224.474 283.101 224.881 283.474C225.288 283.847 225.492 284.44 225.492 285.255V290H224.66L224.439 289.012H224.387C224.084 289.393 223.763 289.675 223.425 289.857C223.096 290.039 222.636 290.13 222.047 290.13C221.414 290.13 220.89 289.965 220.474 289.636C220.058 289.298 219.85 288.774 219.85 288.063C219.85 287.37 220.123 286.837 220.669 286.464C221.215 286.083 222.056 285.875 223.191 285.84L224.374 285.801V285.385C224.374 284.804 224.248 284.401 223.997 284.176C223.746 283.951 223.39 283.838 222.931 283.838C222.567 283.838 222.22 283.894 221.891 284.007C221.562 284.111 221.254 284.232 220.968 284.371L220.617 283.513C220.92 283.348 221.28 283.21 221.696 283.097C222.112 282.976 222.545 282.915 222.996 282.915ZM224.361 286.594L223.334 286.633C222.467 286.668 221.865 286.806 221.527 287.049C221.198 287.292 221.033 287.634 221.033 288.076C221.033 288.466 221.15 288.752 221.384 288.934C221.627 289.116 221.934 289.207 222.307 289.207C222.896 289.207 223.386 289.047 223.776 288.726C224.166 288.397 224.361 287.894 224.361 287.218V286.594ZM229.324 280.12V282.525C229.324 282.82 229.315 283.097 229.298 283.357C229.289 283.608 229.276 283.808 229.259 283.955H229.324C229.523 283.66 229.796 283.413 230.143 283.214C230.49 283.015 230.936 282.915 231.482 282.915C232.349 282.915 233.042 283.218 233.562 283.825C234.091 284.423 234.355 285.32 234.355 286.516C234.355 287.712 234.091 288.613 233.562 289.22C233.033 289.827 232.34 290.13 231.482 290.13C230.936 290.13 230.49 290.03 230.143 289.831C229.796 289.632 229.523 289.393 229.324 289.116H229.233L228.999 290H228.18V280.12H229.324ZM231.287 283.864C230.55 283.864 230.039 284.076 229.753 284.501C229.467 284.926 229.324 285.584 229.324 286.477V286.529C229.324 287.387 229.463 288.046 229.74 288.505C230.026 288.956 230.55 289.181 231.313 289.181C231.937 289.181 232.401 288.951 232.704 288.492C233.016 288.033 233.172 287.37 233.172 286.503C233.172 284.744 232.544 283.864 231.287 283.864ZM237.858 290H236.714V280.12H237.858V290ZM243.292 282.902C243.89 282.902 244.401 283.032 244.826 283.292C245.259 283.552 245.589 283.92 245.814 284.397C246.048 284.865 246.165 285.415 246.165 286.048V286.737H241.394C241.411 287.526 241.611 288.128 241.992 288.544C242.382 288.951 242.924 289.155 243.617 289.155C244.059 289.155 244.449 289.116 244.787 289.038C245.134 288.951 245.489 288.83 245.853 288.674V289.675C245.498 289.831 245.147 289.944 244.8 290.013C244.453 290.091 244.042 290.13 243.565 290.13C242.906 290.13 242.321 289.996 241.81 289.727C241.307 289.458 240.913 289.06 240.627 288.531C240.35 287.994 240.211 287.339 240.211 286.568C240.211 285.805 240.337 285.151 240.588 284.605C240.848 284.059 241.208 283.639 241.667 283.344C242.135 283.049 242.677 282.902 243.292 282.902ZM243.279 283.838C242.733 283.838 242.3 284.016 241.979 284.371C241.667 284.718 241.481 285.203 241.42 285.827H244.969C244.96 285.238 244.822 284.761 244.553 284.397C244.284 284.024 243.86 283.838 243.279 283.838ZM253.011 288.076C253.011 288.752 252.76 289.263 252.257 289.61C251.755 289.957 251.079 290.13 250.229 290.13C249.744 290.13 249.324 290.091 248.968 290.013C248.622 289.935 248.314 289.827 248.045 289.688V288.648C248.323 288.787 248.656 288.917 249.046 289.038C249.445 289.151 249.848 289.207 250.255 289.207C250.836 289.207 251.256 289.116 251.516 288.934C251.776 288.743 251.906 288.492 251.906 288.18C251.906 288.007 251.859 287.851 251.763 287.712C251.668 287.573 251.495 287.435 251.243 287.296C251.001 287.157 250.65 287.001 250.19 286.828C249.74 286.655 249.354 286.481 249.033 286.308C248.713 286.135 248.466 285.927 248.292 285.684C248.119 285.441 248.032 285.129 248.032 284.748C248.032 284.159 248.271 283.704 248.747 283.383C249.233 283.062 249.865 282.902 250.645 282.902C251.07 282.902 251.464 282.945 251.828 283.032C252.201 283.11 252.548 283.223 252.868 283.37L252.478 284.28C252.184 284.159 251.876 284.055 251.555 283.968C251.235 283.881 250.905 283.838 250.567 283.838C250.099 283.838 249.74 283.916 249.488 284.072C249.246 284.219 249.124 284.423 249.124 284.683C249.124 284.874 249.181 285.038 249.293 285.177C249.406 285.307 249.592 285.437 249.852 285.567C250.121 285.688 250.476 285.836 250.918 286.009C251.36 286.174 251.737 286.343 252.049 286.516C252.361 286.689 252.6 286.902 252.764 287.153C252.929 287.396 253.011 287.703 253.011 288.076ZM82.5324 311H81.3624V302.745H78.4634V301.718H85.4184V302.745H82.5324V311ZM88.7957 303.915C89.645 303.915 90.2734 304.101 90.6807 304.474C91.088 304.847 91.2917 305.44 91.2917 306.255V311H90.4597L90.2387 310.012H90.1867C89.8834 310.393 89.5627 310.675 89.2247 310.857C88.8954 311.039 88.436 311.13 87.8467 311.13C87.214 311.13 86.6897 310.965 86.2737 310.636C85.8577 310.298 85.6497 309.774 85.6497 309.063C85.6497 308.37 85.9227 307.837 86.4687 307.464C87.0147 307.083 87.8554 306.875 88.9907 306.84L90.1737 306.801V306.385C90.1737 305.804 90.048 305.401 89.7967 305.176C89.5454 304.951 89.19 304.838 88.7307 304.838C88.3667 304.838 88.02 304.894 87.6907 305.007C87.3614 305.111 87.0537 305.232 86.7677 305.371L86.4167 304.513C86.72 304.348 87.0797 304.21 87.4957 304.097C87.9117 303.976 88.345 303.915 88.7957 303.915ZM90.1607 307.594L89.1337 307.633C88.267 307.668 87.6647 307.806 87.3267 308.049C86.9974 308.292 86.8327 308.634 86.8327 309.076C86.8327 309.466 86.9497 309.752 87.1837 309.934C87.4264 310.116 87.734 310.207 88.1067 310.207C88.696 310.207 89.1857 310.047 89.5757 309.726C89.9657 309.397 90.1607 308.894 90.1607 308.218V307.594ZM95.1235 301.12V303.525C95.1235 303.82 95.1148 304.097 95.0975 304.357C95.0888 304.608 95.0758 304.808 95.0585 304.955H95.1235C95.3228 304.66 95.5958 304.413 95.9425 304.214C96.2892 304.015 96.7355 303.915 97.2815 303.915C98.1482 303.915 98.8415 304.218 99.3615 304.825C99.8902 305.423 100.155 306.32 100.155 307.516C100.155 308.712 99.8902 309.613 99.3615 310.22C98.8328 310.827 98.1395 311.13 97.2815 311.13C96.7355 311.13 96.2892 311.03 95.9425 310.831C95.5958 310.632 95.3228 310.393 95.1235 310.116H95.0325L94.7985 311H93.9795V301.12H95.1235ZM97.0865 304.864C96.3498 304.864 95.8385 305.076 95.5525 305.501C95.2665 305.926 95.1235 306.584 95.1235 307.477V307.529C95.1235 308.387 95.2622 309.046 95.5395 309.505C95.8255 309.956 96.3498 310.181 97.1125 310.181C97.7365 310.181 98.2002 309.951 98.5035 309.492C98.8155 309.033 98.9715 308.37 98.9715 307.503C98.9715 305.744 98.3432 304.864 97.0865 304.864ZM103.657 311H102.513V301.12H103.657V311ZM109.092 303.902C109.69 303.902 110.201 304.032 110.626 304.292C111.059 304.552 111.388 304.92 111.614 305.397C111.848 305.865 111.965 306.415 111.965 307.048V307.737H107.194C107.211 308.526 107.41 309.128 107.792 309.544C108.182 309.951 108.723 310.155 109.417 310.155C109.859 310.155 110.249 310.116 110.587 310.038C110.933 309.951 111.289 309.83 111.653 309.674V310.675C111.297 310.831 110.946 310.944 110.6 311.013C110.253 311.091 109.841 311.13 109.365 311.13C108.706 311.13 108.121 310.996 107.61 310.727C107.107 310.458 106.713 310.06 106.427 309.531C106.149 308.994 106.011 308.339 106.011 307.568C106.011 306.805 106.136 306.151 106.388 305.605C106.648 305.059 107.007 304.639 107.467 304.344C107.935 304.049 108.476 303.902 109.092 303.902ZM109.079 304.838C108.533 304.838 108.099 305.016 107.779 305.371C107.467 305.718 107.28 306.203 107.22 306.827H110.769C110.76 306.238 110.621 305.761 110.353 305.397C110.084 305.024 109.659 304.838 109.079 304.838ZM116.913 303.915C117.762 303.915 118.391 304.101 118.798 304.474C119.205 304.847 119.409 305.44 119.409 306.255V311H118.577L118.356 310.012H118.304C118.001 310.393 117.68 310.675 117.342 310.857C117.013 311.039 116.553 311.13 115.964 311.13C115.331 311.13 114.807 310.965 114.391 310.636C113.975 310.298 113.767 309.774 113.767 309.063C113.767 308.37 114.04 307.837 114.586 307.464C115.132 307.083 115.973 306.875 117.108 306.84L118.291 306.801V306.385C118.291 305.804 118.165 305.401 117.914 305.176C117.663 304.951 117.307 304.838 116.848 304.838C116.484 304.838 116.137 304.894 115.808 305.007C115.479 305.111 115.171 305.232 114.885 305.371L114.534 304.513C114.837 304.348 115.197 304.21 115.613 304.097C116.029 303.976 116.462 303.915 116.913 303.915ZM118.278 307.594L117.251 307.633C116.384 307.668 115.782 307.806 115.444 308.049C115.115 308.292 114.95 308.634 114.95 309.076C114.95 309.466 115.067 309.752 115.301 309.934C115.544 310.116 115.851 310.207 116.224 310.207C116.813 310.207 117.303 310.047 117.693 309.726C118.083 309.397 118.278 308.894 118.278 308.218V307.594ZM127.921 304.032V311H126.985L126.816 310.077H126.764C126.539 310.441 126.227 310.71 125.828 310.883C125.429 311.048 125.005 311.13 124.554 311.13C123.713 311.13 123.081 310.931 122.656 310.532C122.231 310.125 122.019 309.479 122.019 308.595V304.032H123.176V308.517C123.176 309.626 123.692 310.181 124.723 310.181C125.494 310.181 126.027 309.964 126.322 309.531C126.625 309.098 126.777 308.474 126.777 307.659V304.032H127.921ZM137.051 311.13C136.185 311.13 135.491 310.831 134.971 310.233C134.451 309.626 134.191 308.725 134.191 307.529C134.191 306.333 134.451 305.432 134.971 304.825C135.5 304.21 136.198 303.902 137.064 303.902C137.602 303.902 138.039 304.002 138.377 304.201C138.724 304.4 139.006 304.643 139.222 304.929H139.3C139.292 304.816 139.274 304.652 139.248 304.435C139.231 304.21 139.222 304.032 139.222 303.902V301.12H140.366V311H139.443L139.274 310.064H139.222C139.014 310.359 138.737 310.61 138.39 310.818C138.044 311.026 137.597 311.13 137.051 311.13ZM137.233 310.181C137.97 310.181 138.486 309.982 138.78 309.583C139.084 309.176 139.235 308.565 139.235 307.75V307.542C139.235 306.675 139.092 306.012 138.806 305.553C138.52 305.085 137.992 304.851 137.22 304.851C136.605 304.851 136.141 305.098 135.829 305.592C135.526 306.077 135.374 306.732 135.374 307.555C135.374 308.387 135.526 309.033 135.829 309.492C136.141 309.951 136.609 310.181 137.233 310.181ZM145.806 303.902C146.404 303.902 146.916 304.032 147.34 304.292C147.774 304.552 148.103 304.92 148.328 305.397C148.562 305.865 148.679 306.415 148.679 307.048V307.737H143.908C143.926 308.526 144.125 309.128 144.506 309.544C144.896 309.951 145.438 310.155 146.131 310.155C146.573 310.155 146.963 310.116 147.301 310.038C147.648 309.951 148.003 309.83 148.367 309.674V310.675C148.012 310.831 147.661 310.944 147.314 311.013C146.968 311.091 146.556 311.13 146.079 311.13C145.421 311.13 144.836 310.996 144.324 310.727C143.822 310.458 143.427 310.06 143.141 309.531C142.864 308.994 142.725 308.339 142.725 307.568C142.725 306.805 142.851 306.151 143.102 305.605C143.362 305.059 143.722 304.639 144.181 304.344C144.649 304.049 145.191 303.902 145.806 303.902ZM145.793 304.838C145.247 304.838 144.814 305.016 144.493 305.371C144.181 305.718 143.995 306.203 143.934 306.827H147.483C147.475 306.238 147.336 305.761 147.067 305.397C146.799 305.024 146.374 304.838 145.793 304.838ZM156.046 301.12V303.525C156.046 303.82 156.037 304.097 156.02 304.357C156.011 304.608 155.998 304.808 155.981 304.955H156.046C156.245 304.66 156.518 304.413 156.865 304.214C157.211 304.015 157.658 303.915 158.204 303.915C159.07 303.915 159.764 304.218 160.284 304.825C160.812 305.423 161.077 306.32 161.077 307.516C161.077 308.712 160.812 309.613 160.284 310.22C159.755 310.827 159.062 311.13 158.204 311.13C157.658 311.13 157.211 311.03 156.865 310.831C156.518 310.632 156.245 310.393 156.046 310.116H155.955L155.721 311H154.902V301.12H156.046ZM158.009 304.864C157.272 304.864 156.761 305.076 156.475 305.501C156.189 305.926 156.046 306.584 156.046 307.477V307.529C156.046 308.387 156.184 309.046 156.462 309.505C156.748 309.956 157.272 310.181 158.035 310.181C158.659 310.181 159.122 309.951 159.426 309.492C159.738 309.033 159.894 308.37 159.894 307.503C159.894 305.744 159.265 304.864 158.009 304.864ZM169.493 307.503C169.493 308.656 169.199 309.548 168.609 310.181C168.029 310.814 167.24 311.13 166.243 311.13C165.628 311.13 165.078 310.991 164.592 310.714C164.116 310.428 163.739 310.016 163.461 309.479C163.184 308.933 163.045 308.274 163.045 307.503C163.045 306.35 163.336 305.462 163.916 304.838C164.497 304.214 165.286 303.902 166.282 303.902C166.915 303.902 167.47 304.045 167.946 304.331C168.432 304.608 168.809 305.016 169.077 305.553C169.355 306.082 169.493 306.732 169.493 307.503ZM164.228 307.503C164.228 308.326 164.389 308.981 164.709 309.466C165.039 309.943 165.559 310.181 166.269 310.181C166.971 310.181 167.487 309.943 167.816 309.466C168.146 308.981 168.31 308.326 168.31 307.503C168.31 306.68 168.146 306.034 167.816 305.566C167.487 305.098 166.967 304.864 166.256 304.864C165.546 304.864 165.03 305.098 164.709 305.566C164.389 306.034 164.228 306.68 164.228 307.503ZM175.092 303.902C175.222 303.902 175.361 303.911 175.508 303.928C175.664 303.937 175.798 303.954 175.911 303.98L175.768 305.033C175.655 305.007 175.53 304.985 175.391 304.968C175.261 304.951 175.135 304.942 175.014 304.942C174.659 304.942 174.325 305.042 174.013 305.241C173.701 305.432 173.45 305.705 173.259 306.06C173.077 306.407 172.986 306.814 172.986 307.282V311H171.842V304.032H172.778L172.908 305.306H172.96C173.185 304.925 173.476 304.595 173.831 304.318C174.186 304.041 174.607 303.902 175.092 303.902ZM179.964 311.13C179.097 311.13 178.404 310.831 177.884 310.233C177.364 309.626 177.104 308.725 177.104 307.529C177.104 306.333 177.364 305.432 177.884 304.825C178.413 304.21 179.11 303.902 179.977 303.902C180.514 303.902 180.952 304.002 181.29 304.201C181.637 304.4 181.918 304.643 182.135 304.929H182.213C182.204 304.816 182.187 304.652 182.161 304.435C182.144 304.21 182.135 304.032 182.135 303.902V301.12H183.279V311H182.356L182.187 310.064H182.135C181.927 310.359 181.65 310.61 181.303 310.818C180.956 311.026 180.51 311.13 179.964 311.13ZM180.146 310.181C180.883 310.181 181.398 309.982 181.693 309.583C181.996 309.176 182.148 308.565 182.148 307.75V307.542C182.148 306.675 182.005 306.012 181.719 305.553C181.433 305.085 180.904 304.851 180.133 304.851C179.518 304.851 179.054 305.098 178.742 305.592C178.439 306.077 178.287 306.732 178.287 307.555C178.287 308.387 178.439 309.033 178.742 309.492C179.054 309.951 179.522 310.181 180.146 310.181ZM192.579 303.915C193.429 303.915 194.057 304.101 194.464 304.474C194.872 304.847 195.075 305.44 195.075 306.255V311H194.243L194.022 310.012H193.97C193.667 310.393 193.346 310.675 193.008 310.857C192.679 311.039 192.22 311.13 191.63 311.13C190.998 311.13 190.473 310.965 190.057 310.636C189.641 310.298 189.433 309.774 189.433 309.063C189.433 308.37 189.706 307.837 190.252 307.464C190.798 307.083 191.639 306.875 192.774 306.84L193.957 306.801V306.385C193.957 305.804 193.832 305.401 193.58 305.176C193.329 304.951 192.974 304.838 192.514 304.838C192.15 304.838 191.804 304.894 191.474 305.007C191.145 305.111 190.837 305.232 190.551 305.371L190.2 304.513C190.504 304.348 190.863 304.21 191.279 304.097C191.695 303.976 192.129 303.915 192.579 303.915ZM193.944 307.594L192.917 307.633C192.051 307.668 191.448 307.806 191.11 308.049C190.781 308.292 190.616 308.634 190.616 309.076C190.616 309.466 190.733 309.752 190.967 309.934C191.21 310.116 191.518 310.207 191.89 310.207C192.48 310.207 192.969 310.047 193.359 309.726C193.749 309.397 193.944 308.894 193.944 308.218V307.594ZM201.117 303.902C201.949 303.902 202.578 304.106 203.002 304.513C203.427 304.912 203.639 305.562 203.639 306.463V311H202.508V306.541C202.508 305.423 201.988 304.864 200.948 304.864C200.177 304.864 199.644 305.081 199.349 305.514C199.055 305.947 198.907 306.571 198.907 307.386V311H197.763V304.032H198.686L198.855 304.981H198.92C199.146 304.617 199.458 304.348 199.856 304.175C200.255 303.993 200.675 303.902 201.117 303.902ZM208.974 303.915C209.823 303.915 210.452 304.101 210.859 304.474C211.266 304.847 211.47 305.44 211.47 306.255V311H210.638L210.417 310.012H210.365C210.062 310.393 209.741 310.675 209.403 310.857C209.074 311.039 208.614 311.13 208.025 311.13C207.392 311.13 206.868 310.965 206.452 310.636C206.036 310.298 205.828 309.774 205.828 309.063C205.828 308.37 206.101 307.837 206.647 307.464C207.193 307.083 208.034 306.875 209.169 306.84L210.352 306.801V306.385C210.352 305.804 210.226 305.401 209.975 305.176C209.724 304.951 209.368 304.838 208.909 304.838C208.545 304.838 208.198 304.894 207.869 305.007C207.54 305.111 207.232 305.232 206.946 305.371L206.595 304.513C206.898 304.348 207.258 304.21 207.674 304.097C208.09 303.976 208.523 303.915 208.974 303.915ZM210.339 307.594L209.312 307.633C208.445 307.668 207.843 307.806 207.505 308.049C207.176 308.292 207.011 308.634 207.011 309.076C207.011 309.466 207.128 309.752 207.362 309.934C207.605 310.116 207.912 310.207 208.285 310.207C208.874 310.207 209.364 310.047 209.754 309.726C210.144 309.397 210.339 308.894 210.339 308.218V307.594ZM215.302 311H214.158V301.12H215.302V311ZM216.953 304.032H218.175L219.683 307.997C219.813 308.344 219.93 308.677 220.034 308.998C220.138 309.31 220.216 309.609 220.268 309.895H220.32C220.372 309.678 220.455 309.397 220.567 309.05C220.68 308.695 220.797 308.339 220.918 307.984L222.335 304.032H223.57L220.567 311.962C220.325 312.621 220.008 313.145 219.618 313.535C219.237 313.925 218.708 314.12 218.032 314.12C217.824 314.12 217.642 314.107 217.486 314.081C217.33 314.064 217.196 314.042 217.083 314.016V313.106C217.179 313.123 217.291 313.141 217.421 313.158C217.56 313.175 217.703 313.184 217.85 313.184C218.249 313.184 218.57 313.071 218.812 312.846C219.064 312.621 219.259 312.322 219.397 311.949L219.761 311.026L216.953 304.032ZM227.535 310.194C227.708 310.194 227.886 310.181 228.068 310.155C228.25 310.12 228.397 310.086 228.51 310.051V310.922C228.389 310.983 228.215 311.03 227.99 311.065C227.765 311.108 227.548 311.13 227.34 311.13C226.976 311.13 226.638 311.069 226.326 310.948C226.023 310.818 225.776 310.597 225.585 310.285C225.394 309.973 225.299 309.535 225.299 308.972V304.916H224.311V304.37L225.312 303.915L225.767 302.433H226.443V304.032H228.458V304.916H226.443V308.946C226.443 309.371 226.543 309.687 226.742 309.895C226.95 310.094 227.214 310.194 227.535 310.194ZM231.026 301.419C231.199 301.419 231.351 301.48 231.481 301.601C231.62 301.714 231.689 301.896 231.689 302.147C231.689 302.39 231.62 302.572 231.481 302.693C231.351 302.814 231.199 302.875 231.026 302.875C230.835 302.875 230.675 302.814 230.545 302.693C230.415 302.572 230.35 302.39 230.35 302.147C230.35 301.896 230.415 301.714 230.545 301.601C230.675 301.48 230.835 301.419 231.026 301.419ZM231.585 304.032V311H230.441V304.032H231.585ZM238.969 314.12V311.143C238.969 310.987 238.973 310.805 238.982 310.597C238.991 310.389 239.008 310.211 239.034 310.064H238.956C238.757 310.359 238.479 310.61 238.124 310.818C237.777 311.026 237.327 311.13 236.772 311.13C235.931 311.13 235.247 310.831 234.718 310.233C234.198 309.626 233.938 308.725 233.938 307.529C233.938 306.333 234.202 305.432 234.731 304.825C235.268 304.21 235.962 303.902 236.811 303.902C237.357 303.902 237.803 304.006 238.15 304.214C238.497 304.422 238.774 304.678 238.982 304.981H239.034L239.203 304.032H240.113V314.12H238.969ZM236.993 310.181C237.712 310.181 238.219 309.986 238.514 309.596C238.817 309.197 238.973 308.591 238.982 307.776V307.542C238.982 306.658 238.835 305.991 238.54 305.54C238.245 305.081 237.721 304.851 236.967 304.851C236.343 304.851 235.879 305.098 235.576 305.592C235.273 306.077 235.121 306.732 235.121 307.555C235.121 308.378 235.273 309.024 235.576 309.492C235.888 309.951 236.36 310.181 236.993 310.181ZM248.686 304.032V311H247.75L247.581 310.077H247.529C247.304 310.441 246.992 310.71 246.593 310.883C246.194 311.048 245.77 311.13 245.319 311.13C244.478 311.13 243.846 310.931 243.421 310.532C242.996 310.125 242.784 309.479 242.784 308.595V304.032H243.941V308.517C243.941 309.626 244.457 310.181 245.488 310.181C246.259 310.181 246.792 309.964 247.087 309.531C247.39 309.098 247.542 308.474 247.542 307.659V304.032H248.686ZM254.125 303.902C254.723 303.902 255.234 304.032 255.659 304.292C256.092 304.552 256.421 304.92 256.647 305.397C256.881 305.865 256.998 306.415 256.998 307.048V307.737H252.227C252.244 308.526 252.443 309.128 252.825 309.544C253.215 309.951 253.756 310.155 254.45 310.155C254.892 310.155 255.282 310.116 255.62 310.038C255.966 309.951 256.322 309.83 256.686 309.674V310.675C256.33 310.831 255.979 310.944 255.633 311.013C255.286 311.091 254.874 311.13 254.398 311.13C253.739 311.13 253.154 310.996 252.643 310.727C252.14 310.458 251.746 310.06 251.46 309.531C251.182 308.994 251.044 308.339 251.044 307.568C251.044 306.805 251.169 306.151 251.421 305.605C251.681 305.059 252.04 304.639 252.5 304.344C252.968 304.049 253.509 303.902 254.125 303.902ZM254.112 304.838C253.566 304.838 253.132 305.016 252.812 305.371C252.5 305.718 252.313 306.203 252.253 306.827H255.802C255.793 306.238 255.654 305.761 255.386 305.397C255.117 305.024 254.692 304.838 254.112 304.838Z" fill="black"/>
<path d="M16 25C16 11.1929 27.1929 0 41 0H295C308.807 0 320 11.1929 320 25V56H16V25Z" fill="#26374A"/>
<path d="M134.131 27.782H139.225V34.442C138.553 34.67 137.851 34.85 137.119 34.982C136.399 35.114 135.577 35.18 134.653 35.18C132.733 35.18 131.257 34.616 130.225 33.488C129.193 32.36 128.677 30.716 128.677 28.556C128.677 27.212 128.935 26.048 129.451 25.064C129.979 24.08 130.741 23.318 131.737 22.778C132.733 22.238 133.951 21.968 135.391 21.968C136.075 21.968 136.747 22.04 137.407 22.184C138.067 22.328 138.667 22.52 139.207 22.76L138.307 24.938C137.911 24.734 137.461 24.566 136.957 24.434C136.453 24.302 135.925 24.236 135.373 24.236C134.581 24.236 133.891 24.416 133.303 24.776C132.727 25.136 132.277 25.646 131.953 26.306C131.641 26.954 131.485 27.722 131.485 28.61C131.485 29.45 131.599 30.194 131.827 30.842C132.055 31.49 132.415 32 132.907 32.372C133.399 32.732 134.041 32.912 134.833 32.912C135.217 32.912 135.541 32.894 135.805 32.858C136.081 32.822 136.333 32.78 136.561 32.732V30.05H134.131V27.782ZM146.558 22.148C148.31 22.148 149.6 22.466 150.428 23.102C151.268 23.738 151.688 24.704 151.688 26C151.688 26.588 151.574 27.104 151.346 27.548C151.13 27.98 150.836 28.352 150.464 28.664C150.104 28.964 149.714 29.21 149.294 29.402L153.074 35H150.05L146.99 30.068H145.532V35H142.814V22.148H146.558ZM146.36 24.38H145.532V27.854H146.414C147.314 27.854 147.956 27.704 148.34 27.404C148.736 27.104 148.934 26.66 148.934 26.072C148.934 25.46 148.724 25.028 148.304 24.776C147.896 24.512 147.248 24.38 146.36 24.38ZM163.099 35L162.163 31.94H157.483L156.547 35H153.613L158.149 22.094H161.479L166.033 35H163.099ZM161.515 29.654L160.579 26.666C160.519 26.462 160.441 26.204 160.345 25.892C160.249 25.58 160.153 25.262 160.057 24.938C159.961 24.614 159.883 24.332 159.823 24.092C159.763 24.332 159.679 24.632 159.571 24.992C159.475 25.34 159.379 25.676 159.283 26C159.199 26.312 159.133 26.534 159.085 26.666L158.167 29.654H161.515ZM171.881 35H169.163V24.416H165.671V22.148H175.373V24.416H171.881V35ZM188.348 22.148V30.464C188.348 31.352 188.15 32.156 187.754 32.876C187.37 33.584 186.782 34.148 185.99 34.568C185.21 34.976 184.22 35.18 183.02 35.18C181.316 35.18 180.02 34.748 179.132 33.884C178.244 33.008 177.8 31.856 177.8 30.428V22.148H180.518V30.014C180.518 31.07 180.734 31.814 181.166 32.246C181.598 32.678 182.24 32.894 183.092 32.894C183.98 32.894 184.622 32.66 185.018 32.192C185.426 31.724 185.63 30.992 185.63 29.996V22.148H188.348ZM196.837 35H190.987V33.452L192.553 32.732V24.416L190.987 23.696V22.148H196.837V23.696L195.271 24.416V32.732L196.837 33.452V35ZM204.513 35H201.795V24.416H198.303V22.148H208.005V24.416H204.513V35Z" fill="white"/>
<path d="M143.631 193.346C144.489 193.346 145.178 193.645 145.698 194.243C146.227 194.841 146.491 195.742 146.491 196.947C146.491 198.134 146.227 199.036 145.698 199.651C145.178 200.266 144.485 200.574 143.618 200.574C143.081 200.574 142.635 200.474 142.279 200.275C141.933 200.067 141.66 199.829 141.46 199.56H141.382C141.4 199.707 141.417 199.894 141.434 200.119C141.452 200.344 141.46 200.539 141.46 200.704V203.564H140.316V193.476H141.252L141.408 194.425H141.46C141.668 194.122 141.941 193.866 142.279 193.658C142.617 193.45 143.068 193.346 143.631 193.346ZM143.423 194.308C142.713 194.308 142.21 194.507 141.915 194.906C141.629 195.305 141.478 195.911 141.46 196.726V196.947C141.46 197.805 141.599 198.468 141.876 198.936C142.162 199.395 142.687 199.625 143.449 199.625C143.874 199.625 144.221 199.508 144.489 199.274C144.767 199.04 144.97 198.724 145.1 198.325C145.239 197.918 145.308 197.454 145.308 196.934C145.308 196.137 145.152 195.5 144.84 195.023C144.537 194.546 144.065 194.308 143.423 194.308ZM151.489 193.359C152.338 193.359 152.967 193.545 153.374 193.918C153.781 194.291 153.985 194.884 153.985 195.699V200.444H153.153L152.932 199.456H152.88C152.577 199.837 152.256 200.119 151.918 200.301C151.589 200.483 151.129 200.574 150.54 200.574C149.907 200.574 149.383 200.409 148.967 200.08C148.551 199.742 148.343 199.218 148.343 198.507C148.343 197.814 148.616 197.281 149.162 196.908C149.708 196.527 150.549 196.319 151.684 196.284L152.867 196.245V195.829C152.867 195.248 152.741 194.845 152.49 194.62C152.239 194.395 151.883 194.282 151.424 194.282C151.06 194.282 150.713 194.338 150.384 194.451C150.055 194.555 149.747 194.676 149.461 194.815L149.11 193.957C149.413 193.792 149.773 193.654 150.189 193.541C150.605 193.42 151.038 193.359 151.489 193.359ZM152.854 197.038L151.827 197.077C150.96 197.112 150.358 197.25 150.02 197.493C149.691 197.736 149.526 198.078 149.526 198.52C149.526 198.91 149.643 199.196 149.877 199.378C150.12 199.56 150.427 199.651 150.8 199.651C151.389 199.651 151.879 199.491 152.269 199.17C152.659 198.841 152.854 198.338 152.854 197.662V197.038ZM159.923 193.346C160.053 193.346 160.192 193.355 160.339 193.372C160.495 193.381 160.629 193.398 160.742 193.424L160.599 194.477C160.486 194.451 160.361 194.429 160.222 194.412C160.092 194.395 159.966 194.386 159.845 194.386C159.49 194.386 159.156 194.486 158.844 194.685C158.532 194.876 158.281 195.149 158.09 195.504C157.908 195.851 157.817 196.258 157.817 196.726V200.444H156.673V193.476H157.609L157.739 194.75H157.791C158.016 194.369 158.307 194.039 158.662 193.762C159.017 193.485 159.438 193.346 159.923 193.346ZM174.135 193.346C174.924 193.346 175.513 193.55 175.903 193.957C176.293 194.356 176.488 195.006 176.488 195.907V200.444H175.357V195.959C175.357 194.858 174.885 194.308 173.94 194.308C173.264 194.308 172.779 194.503 172.484 194.893C172.198 195.283 172.055 195.851 172.055 196.596V200.444H170.924V195.959C170.924 194.858 170.448 194.308 169.494 194.308C168.792 194.308 168.307 194.525 168.038 194.958C167.77 195.391 167.635 196.015 167.635 196.83V200.444H166.491V193.476H167.414L167.583 194.425H167.648C167.865 194.061 168.155 193.792 168.519 193.619C168.892 193.437 169.286 193.346 169.702 193.346C170.794 193.346 171.505 193.736 171.834 194.516H171.899C172.133 194.117 172.45 193.823 172.848 193.632C173.256 193.441 173.685 193.346 174.135 193.346ZM185.235 196.947C185.235 198.1 184.94 198.992 184.351 199.625C183.77 200.258 182.981 200.574 181.985 200.574C181.369 200.574 180.819 200.435 180.334 200.158C179.857 199.872 179.48 199.46 179.203 198.923C178.925 198.377 178.787 197.718 178.787 196.947C178.787 195.794 179.077 194.906 179.658 194.282C180.238 193.658 181.027 193.346 182.024 193.346C182.656 193.346 183.211 193.489 183.688 193.775C184.173 194.052 184.55 194.46 184.819 194.997C185.096 195.526 185.235 196.176 185.235 196.947ZM179.97 196.947C179.97 197.77 180.13 198.425 180.451 198.91C180.78 199.387 181.3 199.625 182.011 199.625C182.713 199.625 183.228 199.387 183.558 198.91C183.887 198.425 184.052 197.77 184.052 196.947C184.052 196.124 183.887 195.478 183.558 195.01C183.228 194.542 182.708 194.308 181.998 194.308C181.287 194.308 180.771 194.542 180.451 195.01C180.13 195.478 179.97 196.124 179.97 196.947ZM188.168 190.863C188.342 190.863 188.493 190.924 188.623 191.045C188.762 191.158 188.831 191.34 188.831 191.591C188.831 191.834 188.762 192.016 188.623 192.137C188.493 192.258 188.342 192.319 188.168 192.319C187.978 192.319 187.817 192.258 187.687 192.137C187.557 192.016 187.492 191.834 187.492 191.591C187.492 191.34 187.557 191.158 187.687 191.045C187.817 190.924 187.978 190.863 188.168 190.863ZM188.727 193.476V200.444H187.583V193.476H188.727ZM196.008 198.52C196.008 199.196 195.756 199.707 195.254 200.054C194.751 200.401 194.075 200.574 193.226 200.574C192.74 200.574 192.32 200.535 191.965 200.457C191.618 200.379 191.31 200.271 191.042 200.132V199.092C191.319 199.231 191.653 199.361 192.043 199.482C192.441 199.595 192.844 199.651 193.252 199.651C193.832 199.651 194.253 199.56 194.513 199.378C194.773 199.187 194.903 198.936 194.903 198.624C194.903 198.451 194.855 198.295 194.76 198.156C194.664 198.017 194.491 197.879 194.24 197.74C193.997 197.601 193.646 197.445 193.187 197.272C192.736 197.099 192.35 196.925 192.03 196.752C191.709 196.579 191.462 196.371 191.289 196.128C191.115 195.885 191.029 195.573 191.029 195.192C191.029 194.603 191.267 194.148 191.744 193.827C192.229 193.506 192.862 193.346 193.642 193.346C194.066 193.346 194.461 193.389 194.825 193.476C195.197 193.554 195.544 193.667 195.865 193.814L195.475 194.724C195.18 194.603 194.872 194.499 194.552 194.412C194.231 194.325 193.902 194.282 193.564 194.282C193.096 194.282 192.736 194.36 192.485 194.516C192.242 194.663 192.121 194.867 192.121 195.127C192.121 195.318 192.177 195.482 192.29 195.621C192.402 195.751 192.589 195.881 192.849 196.011C193.117 196.132 193.473 196.28 193.915 196.453C194.357 196.618 194.734 196.787 195.046 196.96C195.358 197.133 195.596 197.346 195.761 197.597C195.925 197.84 196.008 198.147 196.008 198.52Z" fill="#00823B"/>
<path d="M206.462 104.798C206.462 106.514 206.275 107.984 205.902 109.208C205.544 110.432 204.955 111.372 204.134 112.029C203.328 112.685 202.238 113.014 200.865 113.014C198.94 113.014 197.53 112.29 196.634 110.842C195.739 109.38 195.291 107.365 195.291 104.798C195.291 103.067 195.47 101.589 195.828 100.365C196.186 99.1415 196.776 98.2012 197.597 97.5446C198.418 96.8879 199.507 96.5596 200.865 96.5596C202.776 96.5596 204.186 97.2834 205.096 98.7311C206.007 100.179 206.462 102.201 206.462 104.798ZM198.649 104.798C198.649 106.619 198.806 107.992 199.119 108.917C199.433 109.827 200.015 110.283 200.865 110.283C201.701 110.283 202.283 109.827 202.611 108.917C202.94 108.007 203.104 106.634 203.104 104.798C203.104 102.977 202.94 101.604 202.611 100.679C202.283 99.7534 201.701 99.2907 200.865 99.2907C200.015 99.2907 199.433 99.7534 199.119 100.679C198.806 101.604 198.649 102.977 198.649 104.798Z" fill="#00823B"/>
<path d="M219.873 104.798C219.873 106.514 219.686 107.984 219.313 109.208C218.955 110.432 218.365 111.372 217.544 112.029C216.738 112.685 215.649 113.014 214.276 113.014C212.351 113.014 210.94 112.29 210.045 110.842C209.149 109.38 208.702 107.365 208.702 104.798C208.702 103.067 208.881 101.589 209.239 100.365C209.597 99.1415 210.187 98.2012 211.007 97.5446C211.828 96.8879 212.918 96.5596 214.276 96.5596C216.186 96.5596 217.597 97.2834 218.507 98.7311C219.417 100.179 219.873 102.201 219.873 104.798ZM212.06 104.798C212.06 106.619 212.216 107.992 212.53 108.917C212.843 109.827 213.425 110.283 214.276 110.283C215.112 110.283 215.694 109.827 216.022 108.917C216.35 108.007 216.515 106.634 216.515 104.798C216.515 102.977 216.35 101.604 216.022 100.679C215.694 99.7534 215.112 99.2907 214.276 99.2907C213.425 99.2907 212.843 99.7534 212.53 100.679C212.216 101.604 212.06 102.977 212.06 104.798Z" fill="#00823B"/>
<path d="M119.549 146.549V144.355C118.579 144.325 117.713 144.236 116.952 144.087C116.191 143.922 115.497 143.699 114.87 143.415V140.527C115.482 140.826 116.221 141.102 117.086 141.355C117.952 141.594 118.773 141.736 119.549 141.781V138.4C118.4 137.953 117.474 137.52 116.773 137.102C116.086 136.669 115.594 136.192 115.295 135.669C114.997 135.147 114.848 134.52 114.848 133.789C114.848 132.669 115.28 131.781 116.146 131.125C117.027 130.453 118.161 130.058 119.549 129.938V128.259H121.049V129.893C122.705 129.953 124.213 130.289 125.571 130.901L124.541 133.453C123.944 133.199 123.34 133.005 122.728 132.871C122.131 132.737 121.571 132.647 121.049 132.602V135.826C121.855 136.124 122.623 136.453 123.355 136.811C124.086 137.154 124.675 137.594 125.123 138.132C125.586 138.669 125.817 139.378 125.817 140.258C125.817 141.348 125.422 142.258 124.631 142.99C123.84 143.721 122.646 144.161 121.049 144.31V146.549H119.549ZM119.549 135.221V132.647C118.609 132.781 118.138 133.162 118.138 133.789C118.138 134.102 118.25 134.363 118.474 134.572C118.698 134.781 119.056 134.998 119.549 135.221ZM121.049 141.714C122.034 141.534 122.526 141.102 122.526 140.415C122.526 140.117 122.399 139.863 122.146 139.654C121.907 139.43 121.541 139.206 121.049 138.982V141.714Z" fill="#00823B"/>
<path d="M194.164 137.359C194.164 144.411 193.399 150.548 191.869 155.772C190.377 160.958 188.288 165.249 185.601 168.644C182.952 172.04 179.799 174.577 176.143 176.256C172.524 177.897 168.606 178.718 164.39 178.718C160.174 178.718 156.256 177.897 152.637 176.256C149.055 174.577 145.94 172.04 143.291 168.644C140.642 165.249 138.571 160.958 137.078 155.772C135.586 150.548 134.84 144.411 134.84 137.359C134.84 130.27 135.586 124.132 137.078 118.946C138.571 113.76 140.642 109.469 143.291 106.074C145.94 102.679 149.055 100.16 152.637 98.5185C156.256 96.8395 160.174 96 164.39 96C168.606 96 172.524 96.8395 176.143 98.5185C179.799 100.16 182.952 102.679 185.601 106.074C188.288 109.469 190.377 113.76 191.869 118.946C193.399 124.132 194.164 130.27 194.164 137.359ZM179.893 137.359C179.893 131.501 179.464 126.651 178.605 122.808C177.747 118.965 176.591 115.905 175.136 113.629C173.718 111.353 172.076 109.768 170.211 108.872C168.345 107.939 166.405 107.473 164.39 107.473C162.413 107.473 160.491 107.939 158.626 108.872C156.797 109.768 155.174 111.353 153.756 113.629C152.339 115.905 151.201 118.965 150.343 122.808C149.522 126.651 149.111 131.501 149.111 137.359C149.111 143.217 149.522 148.067 150.343 151.91C151.201 155.753 152.339 158.813 153.756 161.089C155.174 163.365 156.797 164.969 158.626 165.902C160.491 166.797 162.413 167.245 164.39 167.245C166.405 167.245 168.345 166.797 170.211 165.902C172.076 164.969 173.718 163.365 175.136 161.089C176.591 158.813 177.747 155.753 178.605 151.91C179.464 148.067 179.893 143.217 179.893 137.359Z" fill="#00823B"/>
<rect x="16.5" y="0.5" width="303" height="343" rx="24.5" stroke="#BBBDBF"/>
</g>
<defs>
<filter id="filter0_d" x="16" y="0" width="312" height="352" filterUnits="userSpaceOnUse" color-interpolation-filters="sRGB">
<feFlood flood-opacity="0" result="BackgroundImageFix"/>
<feColorMatrix in="SourceAlpha" type="matrix" values="0 0 0 0 0 0 0 0 0 0 0 0 0 0 0 0 0 0 127 0"/>
<feOffset dx="4" dy="4"/>
<feGaussianBlur stdDeviation="2"/>
<feColorMatrix type="matrix" values="0 0 0 0 0 0 0 0 0 0 0 0 0 0 0 0 0 0 0.1 0"/>
<feBlend mode="normal" in2="BackgroundImageFix" result="effect1_dropShadow"/>
<feBlend mode="normal" in="SourceGraphic" in2="effect1_dropShadow" result="shape"/>
</filter>
</defs>
</svg>
