<svg width="530" height="320" viewBox="0 0 530 320" fill="none" xmlns="http://www.w3.org/2000/svg">
<g clip-path="url(#clip0)">
<path d="M178.301 88.3002C178.301 103.9 191.001 116.6 206.601 116.6H323.501C339.101 116.6 351.801 103.9 351.801 88.3002C351.801 72.7002 339.001 60.0002 323.501 60.0002C322.301 60.0002 321.301 60.1002 320.201 60.2002C317.601 46.7002 305.601 36.5002 291.301 36.5002C286.401 36.5002 281.901 37.7002 278.001 39.8002C274.701 22.7002 259.801 9.7002 241.601 9.7002C221.201 9.7002 204.601 26.2002 204.601 46.7002C204.601 51.5002 205.601 56.0002 207.101 60.2002C206.901 60.2002 206.801 60.2002 206.601 60.2002C191.001 60.1002 178.301 72.7002 178.301 88.3002Z" fill="#26374A"/>
<path d="M295.999 102.9H243.199C238.199 102.9 234.199 98.9004 234.199 93.9004V63.4004C234.199 58.4004 238.199 54.4004 243.199 54.4004H295.999C300.999 54.4004 304.999 58.4004 304.999 63.4004V93.8004C304.999 98.8004 300.999 102.9 295.999 102.9Z" fill="#26374A"/>
<path d="M524.1 287H443C439.7 287 437 284.3 437 281V229.8C437 226.5 439.7 223.8 443 223.8H524.1C527.4 223.8 530.1 226.5 530.1 229.8V281C530.1 284.3 527.4 287 524.1 287Z" fill="white"/>
<path d="M297.799 54.4004H241.499C237.399 54.4004 234.199 57.9004 234.199 62.2004V95.1004C234.199 99.4004 237.499 102.9 241.499 102.9H297.699C301.799 102.9 304.999 99.4004 304.999 95.1004V62.2004C305.099 57.9004 301.799 54.4004 297.799 54.4004ZM239.499 58.0004C240.099 57.7004 240.799 57.5004 241.499 57.5004H297.699C298.399 57.5004 299.099 57.7004 299.699 58.0004L270.199 80.4004C269.799 80.7004 269.399 80.7004 269.099 80.4004L239.499 58.0004ZM237.099 95.1004V62.2004C237.099 61.5004 237.299 60.8004 237.499 60.3004L259.599 77.0004L237.599 97.3004C237.299 96.6004 237.099 95.8004 237.099 95.1004ZM297.799 99.8004H241.499C240.899 99.8004 240.299 99.6004 239.699 99.4004L261.999 78.8004L267.399 82.9004C268.099 83.4004 268.899 83.7004 269.699 83.7004C270.499 83.7004 271.299 83.5004 271.899 82.9004L277.299 78.8004L299.499 99.3004C298.999 99.6004 298.399 99.8004 297.799 99.8004ZM302.199 95.1004C302.199 95.9004 301.999 96.6004 301.699 97.3004L279.699 77.0004L301.799 60.3004C301.999 60.9004 302.199 61.5004 302.199 62.2004V95.1004Z" fill="white"/>
<path d="M229.2 70.9004H218.9C218.1 70.9004 217.4 71.6004 217.4 72.4004C217.4 73.2004 218.1 73.9004 218.9 73.9004H229.2C230 73.9004 230.7 73.2004 230.7 72.4004C230.7 71.6004 230 70.9004 229.2 70.9004Z" fill="#B2E3FF"/>
<path d="M229.201 80.2002H213.801C213.001 80.2002 212.301 80.9002 212.301 81.7002C212.301 82.5002 213.001 83.2002 213.801 83.2002H229.201C230.001 83.2002 230.701 82.5002 230.701 81.7002C230.701 80.8002 230.001 80.2002 229.201 80.2002Z" fill="#B2E3FF"/>
<path d="M229.2 89.9004H208.6C207.8 89.9004 207.1 90.6004 207.1 91.4004C207.1 92.2004 207.8 92.9004 208.6 92.9004H229.2C230 92.9004 230.7 92.2004 230.7 91.4004C230.7 90.6004 230 89.9004 229.2 89.9004Z" fill="#B2E3FF"/>
<path d="M515.899 194.3C514.199 192.6 512.099 192.7 512.099 192.7H455.299C455.299 192.7 452.899 192.9 451.699 194.2C450.299 195.6 450.199 197.9 450.199 197.9V237.5L478.599 260.7C478.599 260.7 480.299 262.5 483.799 262.5C487.099 262.5 488.999 260.7 488.999 260.7L517.399 237.5V197.9C517.299 197.9 517.199 195.7 515.899 194.3Z" fill="#B2E3FF"/>
<path d="M467.499 227.6H499.999C501.099 227.6 501.899 226.7 501.899 225.7C501.899 224.6 500.999 223.8 499.999 223.8H467.499C466.399 223.8 465.599 224.7 465.599 225.7C465.499 226.7 466.399 227.6 467.499 227.6Z" fill="#26374A"/>
<path d="M467.499 214.7H499.999C501.099 214.7 501.899 213.8 501.899 212.8C501.899 211.7 500.999 210.9 499.999 210.9H467.499C466.399 210.9 465.599 211.8 465.599 212.8C465.499 213.8 466.399 214.7 467.499 214.7Z" fill="#26374A"/>
<path d="M497.3 236.6H470C468.9 236.6 468.1 237.5 468.1 238.5C468.1 239.6 469 240.4 470 240.4H497.3C498.4 240.4 499.2 239.5 499.2 238.5C499.3 237.5 498.4 236.6 497.3 236.6Z" fill="#26374A"/>
<path d="M525 223.7H517.2V197.9C517.2 195.1 514.9 192.7 512 192.7H455.2C452.4 192.7 450 195 450 197.9V223.7H442.2C439.4 223.7 437 226 437 228.9V281.9C437 284.7 439.3 287.1 442.2 287.1H524.9C527.7 287.1 530.1 284.8 530.1 281.9V228.9C530.2 226 527.9 223.7 525 223.7ZM505.9 254.8C505.2 254 504 253.8 503.2 254.5C502.4 255.2 502.2 256.4 502.9 257.2L523.9 283.1H443.6L464.6 257.2C465.3 256.4 465.1 255.1 464.3 254.5C463.5 253.8 462.2 254 461.6 254.8L441.1 280.1V230.1L478.5 260.7C480 261.9 481.9 262.5 483.7 262.5C485.5 262.5 487.4 261.9 488.9 260.7L526.3 230.1V280.1L505.9 254.8ZM523.3 227.6L517.3 232.5V227.6H523.3ZM455.3 196.6H512.1C512.8 196.6 513.4 197.2 513.4 197.9V235.7L486.5 257.7C485.8 258.3 484.8 258.6 483.7 258.6C482.6 258.6 481.6 258.3 480.9 257.7L454 235.7V197.9C454 197.2 454.6 196.6 455.3 196.6ZM450.1 232.5L444.1 227.6H450.1V232.5Z" fill="#26374A"/>
<path d="M17 186.7C26.3888 186.7 34 179.089 34 169.7C34 160.311 26.3888 152.7 17 152.7C7.61116 152.7 0 160.311 0 169.7C0 179.089 7.61116 186.7 17 186.7Z" fill="#26374A"/>
<path fill-rule="evenodd" clip-rule="evenodd" d="M155.701 162L152.801 161.4C152.801 160.2 152.801 159.6 152.801 158.5L155.701 157.3C157.501 157.3 156.301 153.2 154.501 153.2L151.601 154.4C151.001 153.2 150.401 152.6 149.801 152.1L152.101 149.2C153.301 148 150.301 145.1 149.201 146.3L146.901 148.6C146.301 148 145.101 147.4 144.601 147.4L145.201 143.9C145.801 142.7 141.701 141.6 141.101 142.7L139.901 146.2C139.301 146.2 138.101 146.2 137.601 146.2L136.401 142.7C135.801 141.5 131.701 142.7 132.301 143.9L132.901 147.4C132.301 147.4 131.701 148 130.601 148.6L128.301 146.3C127.101 145.1 124.201 148.1 125.401 149.2L127.701 152.1C127.101 152.7 126.501 153.3 125.901 154.4L123.001 153.2C121.201 153.2 120.101 157.3 121.801 157.3L124.701 158.5C124.701 159.7 124.701 160.3 124.701 161.4L121.801 162C120.001 162.6 121.201 166.7 123.001 166.7L125.901 165.5C126.501 166.7 127.101 167.3 127.701 167.8L125.401 170.1C124.201 171.3 127.201 174.8 128.301 173.6L130.601 171.3C131.801 171.9 132.401 171.9 132.901 172.5L132.301 176C131.701 177.2 135.801 178.3 136.401 176.6L137.601 173.7C138.201 173.7 139.401 173.7 139.901 173.7L141.101 176.6C141.701 178.4 145.801 177.2 145.201 176L144.601 172.5C145.201 171.9 146.401 171.9 146.901 171.3L149.201 173.6C150.401 174.8 153.301 171.3 152.101 170.1L149.801 167.8C150.401 167.2 151.001 166.6 151.601 165.5L154.501 166.7C156.301 166.6 157.401 162.5 155.701 162Z" fill="#26374A"/>
<path d="M138.6 170.7C144.675 170.7 149.6 165.775 149.6 159.7C149.6 153.625 144.675 148.7 138.6 148.7C132.524 148.7 127.6 153.625 127.6 159.7C127.6 165.775 132.524 170.7 138.6 170.7Z" fill="#B2E3FF"/>
<path d="M115.3 155L120.6 153.8L119.4 147.9L114.1 149.1C113.5 147.9 112.9 147.3 112.3 146.2L116.4 142.7L112.3 138L108.2 142.1C107.2 141.1 106.5 140.7 105.3 140.3L106.5 135L101.2 133.2L99.3996 138.5C98.1996 138.5 97.0996 138.5 95.8996 138.5L94.6996 133.2L88.7996 134.4L89.9996 139.7C89.3996 140.3 88.1996 140.9 87.0996 141.5L83.5996 137.4L79.4996 141.5L82.9996 145.6C82.3996 146.8 81.7996 147.4 81.1996 148.5L75.8996 147.3L74.0996 152.6L79.3996 154.4C79.3996 155.6 79.3996 156.7 79.3996 157.9L74.0996 159.1L75.8996 165L80.5996 163.2C81.1996 164.4 81.7996 165.5 82.3996 166.7L78.8996 170.2L82.9996 174.3L86.4996 170.8C87.6996 171.4 88.7996 172 89.3996 172.6L88.1996 177.9L94.0996 179.7L95.2996 174.4C95.8996 174.4 96.4996 174.4 97.5996 174.4C98.1996 174.4 98.1996 174.4 98.7996 174.4L99.9996 179.7L105.9 177.9L104.7 173.2C105.9 172.6 106.5 172 107.6 171.4L111.1 174.9L115.8 170.8L111.7 167.3C112.9 166.1 113.5 165 113.5 164.4L118.8 165.6L120.6 159.7L115.3 158.5C115.3 157.4 115.3 156.2 115.3 155Z" fill="#26374A"/>
<path d="M97.7 167.9C91.3 167.9 86 162.6 86 156.2C86 150.3 91.3 145.1 97.7 145.1C103.6 145.1 108.8 150.4 108.8 156.2C108.9 162.6 103.6 167.9 97.7 167.9Z" fill="#B2E3FF"/>
<path fill-rule="evenodd" clip-rule="evenodd" d="M112.401 196.6V192.5H108.901C108.301 191.9 108.301 191.9 108.301 191.3L111.801 189.5L109.501 185.4L106.001 187.2C106.001 187.2 105.401 187.2 105.401 186.6L107.201 183.7L103.701 181.4L101.901 184.3C101.301 184.3 100.701 184.3 100.701 184.3V180.8H96.0008V184.3C96.0008 184.3 95.4008 184.3 94.8008 184.3L93.0008 181.4L89.5008 183.7L91.3008 186.6C90.7008 187.2 90.7008 187.2 90.7008 187.2L87.2008 185.4L84.9008 189.5L88.4008 191.3C88.4008 191.9 87.8008 191.9 87.8008 192.5H84.3008V196.6H87.8008C87.8008 197.2 88.4008 197.8 88.4008 197.8L84.9008 199.6L87.2008 203.7L90.7008 201.9C90.7008 201.9 90.7008 202.5 91.3008 202.5L89.5008 206L93.0008 207.8L94.8008 204.9C95.4008 204.9 96.0008 204.9 96.0008 204.9V209H100.701V204.9C100.701 204.9 101.301 204.9 101.901 204.9L103.701 207.8L107.201 206L105.401 202.5L106.001 201.9L109.501 203.7L111.801 199.6L108.301 197.8C108.301 197.8 108.301 197.2 108.901 196.6H112.401Z" fill="#26374A"/>
<path fill-rule="evenodd" clip-rule="evenodd" d="M98.3008 201.3C94.8008 201.3 91.3008 198.4 91.3008 194.9C91.3008 190.8 94.8008 187.9 98.3008 187.9C101.801 187.9 104.701 190.8 104.701 194.9C104.801 198.3 101.801 201.3 98.3008 201.3Z" fill="#B2E3FF"/>
<path fill-rule="evenodd" clip-rule="evenodd" d="M77.8004 226.4H110.6L118.2 197.1C119.4 193 125.2 194.2 124.1 198.3L116.5 229.9C115.9 231.7 115.3 234 112.4 234H77.8004C72.6004 234 72.6004 226.4 77.8004 226.4Z" fill="#26374A"/>
<path fill-rule="evenodd" clip-rule="evenodd" d="M33.8996 218.2L35.6996 246.9H70.1996C78.3996 246.9 84.1996 249.2 85.9996 257.4L97.0996 308.3C99.3996 318.2 82.4996 321.8 80.6996 313L70.1996 267.3H20.4996C13.4996 267.3 5.89957 262 5.29957 252.1L2.39957 207C1.19957 194.7 12.8996 187.1 24.0996 193L56.8996 214.7L83.1996 208.3C90.7996 206.5 92.5996 218.2 86.0996 220L56.7996 228.2C53.2996 228.2 50.3996 227.6 47.9996 225.9L33.8996 218.2Z" fill="#26374A"/>
<path d="M361.199 235.4C361.199 235.4 362.299 229.5 361.899 218.2C361.399 206.9 360.599 201.1 358.099 192.1C356.599 187 352.299 177.3 355.799 166.1C359.499 154.3 371.699 141.7 387.699 141.7C406.099 141.7 416.899 154 420.399 163.4C421.399 166.2 430.599 194.2 430.599 194.2C430.599 194.2 433.099 199.8 428.899 202.3C427.699 203 425.599 203 422.899 203V210.9C422.899 210.9 424.099 222.6 413.099 227.6C409.699 229.2 405.099 228.9 398.999 228.7V235.3" stroke="#26374A" stroke-width="4" stroke-miterlimit="10" stroke-linecap="round" stroke-linejoin="round"/>
<path d="M404.799 213.7C404.799 213.7 410.799 223.2 421.499 218.4" stroke="#26374A" stroke-width="4" stroke-miterlimit="10" stroke-linecap="round" stroke-linejoin="round"/>
<path d="M408.699 189.7C411.185 189.7 413.199 187.685 413.199 185.2C413.199 182.715 411.185 180.7 408.699 180.7C406.214 180.7 404.199 182.715 404.199 185.2C404.199 187.685 406.214 189.7 408.699 189.7Z" fill="#26374A"/>
<path d="M49.2991 137.7C48.0991 137 47.6991 135.5 48.2991 134.3C70.0991 95.3996 106.699 67.5996 149.599 56.9996L137.299 52.8996C135.999 52.4996 135.299 50.9996 135.699 49.6996C136.099 48.3996 137.599 47.6996 138.899 48.0996L159.799 55.0996C159.799 55.0996 159.799 55.0996 159.899 55.0996C159.999 55.1996 160.199 55.1996 160.299 55.2996C160.299 55.2996 160.399 55.2996 160.399 55.3996C160.599 55.4996 160.699 55.5996 160.799 55.7996L160.899 55.8996C160.999 55.9996 161.099 56.0996 161.199 56.2996C161.199 56.3996 161.299 56.3996 161.299 56.4996C161.399 56.5996 161.399 56.6996 161.399 56.8996V56.9996C161.399 57.0996 161.399 57.0996 161.399 57.1996C161.399 57.3996 161.399 57.5996 161.399 57.6996C161.399 57.7996 161.399 57.7996 161.399 57.8996C161.399 57.9996 161.399 58.1996 161.299 58.2996C161.299 58.3996 161.299 58.3996 161.199 58.4996C161.199 58.5996 161.099 58.6996 161.099 58.7996C161.099 58.8996 160.999 58.8996 160.999 58.9996C160.899 59.0996 160.899 59.1996 160.799 59.2996C160.799 59.2996 160.799 59.3996 160.699 59.3996L146.199 74.9996C145.299 75.9996 143.699 76.0996 142.699 75.0996C141.699 74.1996 141.599 72.5996 142.599 71.5996L151.699 61.7996C109.699 71.8996 73.7991 98.8996 52.4991 136.9C51.9991 137.9 50.4991 138.3 49.2991 137.7Z" fill="#26374A"/>
<path d="M358.599 49.8002C358.899 48.5002 360.299 47.6002 361.599 48.0002C404.799 58.9002 441.199 87.0002 462.699 125.6L463.499 112.7C463.599 111.3 464.799 110.3 466.099 110.4C467.499 110.5 468.499 111.7 468.399 113L467.099 135V135.1C467.099 135.3 467.099 135.4 466.999 135.5V135.6C466.899 135.8 466.899 135.9 466.799 136.1L466.699 136.2C466.599 136.3 466.499 136.4 466.399 136.5L466.299 136.6C466.199 136.7 466.099 136.8 465.999 136.8L465.899 136.9L465.799 137C465.599 137.1 465.499 137.1 465.299 137.2C465.199 137.2 465.199 137.2 465.099 137.2C464.999 137.2 464.799 137.2 464.699 137.2C464.599 137.2 464.599 137.2 464.499 137.2C464.399 137.2 464.299 137.2 464.099 137.2C463.999 137.2 463.999 137.2 463.899 137.2C463.799 137.2 463.699 137.1 463.499 137.1H463.399L444.599 127.2C443.399 126.6 442.899 125 443.599 123.8C444.199 122.6 445.799 122.1 446.999 122.8L458.799 129C438.099 91.1002 402.599 63.5002 360.399 52.9002C358.999 52.5002 358.199 51.1002 358.599 49.8002Z" fill="#26374A"/>
</g>
<defs>
<clipPath id="clip0">
<rect width="530" height="320" fill="white"/>
</clipPath>
</defs>
</svg>
