<svg width="25" height="24" viewBox="0 0 25 24" fill="none" xmlns="http://www.w3.org/2000/svg">
<path d="M12.5 0.375C6.07812 0.375 0.875 5.57812 0.875 12C0.875 18.4219 6.07812 23.625 12.5 23.625C18.9219 23.625 24.125 18.4219 24.125 12C24.125 5.57812 18.9219 0.375 12.5 0.375ZM12.5 4.875C14.75 4.875 16.625 6.75 16.625 9C16.625 11.2969 14.75 13.125 12.5 13.125C10.2031 13.125 8.375 11.2969 8.375 9C8.375 6.75 10.2031 4.875 12.5 4.875ZM12.5 21C9.73438 21 7.25 19.7812 5.60938 17.8125C6.5 16.1719 8.23438 15 10.25 15C10.3438 15 10.4375 15.0469 10.5781 15.0938C11.1875 15.2812 11.7969 15.375 12.5 15.375C13.1562 15.375 13.8125 15.2812 14.375 15.0938C14.5156 15.0469 14.6094 15 14.75 15C16.7188 15 18.4531 16.1719 19.3438 17.8125C17.7031 19.7812 15.2188 21 12.5 21Z" fill="#26374A"/>
</svg>
