<svg width="135" height="85" viewBox="0 0 135 85" fill="none" xmlns="http://www.w3.org/2000/svg">
    <path fill-rule="evenodd" clip-rule="evenodd" d="M134.466 55.7262L96.5449 43L90.1818 61.9608L99.6622 65.1423L96.4806 74.6227L109.143 68.3239L128.103 74.687L134.466 55.7262Z" fill="#6DA8D3"/>
    <path d="M99.376 50.2791L123.077 58.2329" stroke="#304760"/>
    <path d="M98.1035 54.0712L121.804 62.0251" stroke="#304760"/>
    <path d="M96.8311 57.8633L111.052 62.6356" stroke="#304760"/>
    <path d="M85.8268 35.1856C85.8268 73.9231 33.6039 65.8399 11 33C82.709 54.1114 64.7818 0 81.1501 0C87.3857 0 85.8268 10.9466 85.8268 35.1856Z" fill="#AFB9C3"/>
    <path d="M11 33L6 18M11 33L1 24.6667M11 33L1.83333 32.1667" stroke="#304760"/>
    <path d="M70 59.5L72.2857 66.7556M72.2857 66.7556L73.7143 73.1556M72.2857 66.7556L83 70.3111M72.2857 66.7556L68 76" stroke="#304760"/>
    <path d="M55.5 60.5L54.6522 69.9871M54.6522 69.9871L59.8261 76M54.6522 69.9871L65 73.3276M54.6522 69.9871L48 73.3276" stroke="#304760"/>
    <path d="M65 27C83 44.5 43.8167 53.0463 34 56" stroke="#304760"/>
    <path d="M89 13L80 11.3636C81.8 8.90909 84.5 4 84.5 4L89 13Z" fill="#F6BE00"/>
    <ellipse cx="78.5796" cy="6.2811" rx="2.35135" ry="3.13514" transform="rotate(10.9434 78.5796 6.2811)" fill="white"/>
    <circle cx="78" cy="7" r="1" fill="black"/>
    <path d="M33 74.0857L35 75.0857" stroke="#304760"/>
    <path d="M94.584 74.0857L93.4161 75.9925" stroke="#304760"/>
    <path d="M86.0566 74.114L85.0006 76.085" stroke="#304760"/>
    <path d="M88 74.614L90.1931 75.0501" stroke="#304760"/>
    <path d="M101 75L135 75" stroke="#304760"/>
    <path d="M0 75L27 75" stroke="#304760"/>
    <path d="M71 75H83" stroke="#304760"/>
</svg>
