<svg width="11" height="12" viewBox="0 0 11 12" fill="none" xmlns="http://www.w3.org/2000/svg">
<path d="M9.84991 2.27333L3.92646 9.14C3.87447 9.20933 3.81068 9.26545 3.7391 9.30485C3.66751 9.34425 3.58967 9.36608 3.51047 9.36896C3.43126 9.37184 3.3524 9.35571 3.27882 9.32159C3.20525 9.28746 3.13855 9.23608 3.08292 9.17067C3.02728 9.10525 2.98391 9.02721 2.95552 8.94145C2.92713 8.85568 2.91434 8.76404 2.91794 8.67227C2.92155 8.5805 2.94148 8.49059 2.97648 8.40817C3.01148 8.32576 3.0608 8.25261 3.12133 8.19333L9.03328 1.33333H6.97445C6.82192 1.33333 6.67565 1.2631 6.5678 1.13807C6.45995 1.01305 6.39936 0.843478 6.39936 0.666667C6.39936 0.489856 6.45995 0.320286 6.5678 0.195262C6.67565 0.0702379 6.82192 0 6.97445 0H10.425C10.5775 0 10.7238 0.0702379 10.8317 0.195262C10.9395 0.320286 11.0001 0.489856 11.0001 0.666667V4.66667C11.0001 4.84348 10.9395 5.01305 10.8317 5.13807C10.7238 5.2631 10.5775 5.33333 10.425 5.33333C10.2725 5.33333 10.1262 5.2631 10.0183 5.13807C9.9105 5.01305 9.84991 4.84348 9.84991 4.66667V2.27333ZM8.69972 7.33333C8.69972 7.15652 8.76031 6.98695 8.86816 6.86193C8.97602 6.73691 9.12229 6.66667 9.27482 6.66667C9.42734 6.66667 9.57362 6.73691 9.68147 6.86193C9.78932 6.98695 9.84991 7.15652 9.84991 7.33333V10.6667C9.84991 11.0203 9.72873 11.3594 9.51303 11.6095C9.29733 11.8595 9.00477 12 8.69972 12H1.79862C1.49357 12 1.20102 11.8595 0.985318 11.6095C0.769617 11.3594 0.648438 11.0203 0.648438 10.6667V2.66667C0.648438 1.93333 1.16602 1.33333 1.79862 1.33333H4.67408C4.8266 1.33333 4.97288 1.40357 5.08073 1.5286C5.18858 1.65362 5.24917 1.82319 5.24917 2C5.24917 2.17681 5.18858 2.34638 5.08073 2.4714C4.97288 2.59643 4.8266 2.66667 4.67408 2.66667H1.79862V10.6667H8.69972V7.33333Z" fill="#26374A"/>
</svg>
