<svg width="11" height="11" viewBox="0 0 11 11" fill="none" xmlns="http://www.w3.org/2000/svg">
<path d="M9.48148 2.02074L3.37778 8.12444C3.32421 8.18607 3.25848 8.23596 3.18471 8.27098C3.11095 8.306 3.03074 8.3254 2.94913 8.32796C2.86751 8.33052 2.78625 8.31619 2.71043 8.28586C2.63462 8.25552 2.56589 8.20985 2.50856 8.1517C2.45123 8.09356 2.40654 8.02419 2.37729 7.94795C2.34804 7.87172 2.33485 7.79026 2.33857 7.70869C2.34229 7.62711 2.36282 7.54719 2.39889 7.47393C2.43495 7.40067 2.48577 7.33566 2.54815 7.28296L8.64 1.18519H6.51852C6.36135 1.18519 6.21063 1.12275 6.09949 1.01162C5.98836 0.900486 5.92593 0.749758 5.92593 0.592593C5.92593 0.435427 5.98836 0.284699 6.09949 0.173566C6.21063 0.0624337 6.36135 0 6.51852 0H10.0741C10.2312 0 10.382 0.0624337 10.4931 0.173566C10.6042 0.284699 10.6667 0.435427 10.6667 0.592593V4.14815C10.6667 4.30531 10.6042 4.45604 10.4931 4.56717C10.382 4.67831 10.2312 4.74074 10.0741 4.74074C9.91691 4.74074 9.76618 4.67831 9.65505 4.56717C9.54391 4.45604 9.48148 4.30531 9.48148 4.14815V2.02074ZM8.2963 6.51852C8.2963 6.36135 8.35873 6.21063 8.46986 6.09949C8.58099 5.98836 8.73172 5.92593 8.88889 5.92593C9.04605 5.92593 9.19678 5.98836 9.30792 6.09949C9.41905 6.21063 9.48148 6.36135 9.48148 6.51852V9.48148C9.48148 9.79581 9.35661 10.0973 9.13435 10.3195C8.91208 10.5418 8.61063 10.6667 8.2963 10.6667H1.18519C0.870854 10.6667 0.569398 10.5418 0.347133 10.3195C0.124867 10.0973 0 9.79581 0 9.48148V2.37037C0 1.71852 0.533333 1.18519 1.18519 1.18519H4.14815C4.30531 1.18519 4.45604 1.24762 4.56717 1.35875C4.67831 1.46988 4.74074 1.62061 4.74074 1.77778C4.74074 1.93494 4.67831 2.08567 4.56717 2.1968C4.45604 2.30794 4.30531 2.37037 4.14815 2.37037H1.18519V9.48148H8.2963V6.51852Z" fill="white"/>
</svg>
