<svg width="14" height="14" viewBox="0 0 14 14" fill="none" xmlns="http://www.w3.org/2000/svg">
<path d="M10.6667 2.27333L3.8 9.14C3.73973 9.20933 3.66578 9.26545 3.5828 9.30485C3.49982 9.34425 3.40958 9.36608 3.31777 9.36896C3.22595 9.37184 3.13453 9.35571 3.04924 9.32159C2.96394 9.28746 2.88663 9.23608 2.82213 9.17067C2.75764 9.10525 2.70736 9.02721 2.67445 8.94145C2.64154 8.85568 2.62671 8.76404 2.63089 8.67227C2.63507 8.5805 2.65818 8.49059 2.69875 8.40817C2.73932 8.32576 2.79649 8.25261 2.86667 8.19333L9.72 1.33333H7.33333C7.15652 1.33333 6.98695 1.2631 6.86193 1.13807C6.73691 1.01305 6.66667 0.843478 6.66667 0.666667C6.66667 0.489856 6.73691 0.320286 6.86193 0.195262C6.98695 0.0702379 7.15652 0 7.33333 0H11.3333C11.5101 0 11.6797 0.0702379 11.8047 0.195262C11.9298 0.320286 12 0.489856 12 0.666667V4.66667C12 4.84348 11.9298 5.01305 11.8047 5.13807C11.6797 5.2631 11.5101 5.33333 11.3333 5.33333C11.1565 5.33333 10.987 5.2631 10.8619 5.13807C10.7369 5.01305 10.6667 4.84348 10.6667 4.66667V2.27333ZM9.33333 7.33333C9.33333 7.15652 9.40357 6.98695 9.52859 6.86193C9.65362 6.73691 9.82319 6.66667 10 6.66667C10.1768 6.66667 10.3464 6.73691 10.4714 6.86193C10.5964 6.98695 10.6667 7.15652 10.6667 7.33333V10.6667C10.6667 11.0203 10.5262 11.3594 10.2761 11.6095C10.0261 11.8595 9.68696 12 9.33333 12H1.33333C0.979711 12 0.640573 11.8595 0.390524 11.6095C0.140476 11.3594 0 11.0203 0 10.6667V2.66667C0 1.93333 0.6 1.33333 1.33333 1.33333H4.66667C4.84348 1.33333 5.01305 1.40357 5.13807 1.5286C5.2631 1.65362 5.33333 1.82319 5.33333 2C5.33333 2.17681 5.2631 2.34638 5.13807 2.4714C5.01305 2.59643 4.84348 2.66667 4.66667 2.66667H1.33333V10.6667H9.33333V7.33333Z" fill="#26374A"/>
</svg>
