<svg width="135" height="75" viewBox="0 0 135 75" fill="none" xmlns="http://www.w3.org/2000/svg">
<rect width="79" height="20" transform="translate(56 25)" fill="#509DC4"/>
<rect width="56" height="18" transform="translate(78 26)" fill="#B3E4FB"/>
<rect width="18" height="18" transform="translate(78 26)" fill="white"/>
<path d="M89.9167 31.2292C90.1583 31.2292 90.3541 31.425 90.3541 31.6667C90.3541 31.9083 90.1583 32.1041 89.9167 32.1041H88.5536L86.3815 37.8959H87.8333C88.075 37.8959 88.2708 38.0917 88.2708 38.3333C88.2708 38.575 88.075 38.7708 87.8333 38.7708H84.0833C83.8417 38.7708 83.6459 38.575 83.6459 38.3333C83.6459 38.0917 83.8417 37.8959 84.0833 37.8959H85.4465L87.6185 32.1041H86.1667C85.925 32.1041 85.7293 31.9083 85.7293 31.6667C85.7293 31.425 85.925 31.2292 86.1667 31.2292H89.9167Z" fill="black"/>
<rect width="18" height="18" transform="translate(97 26)" fill="white"/>
<g clip-path="url(#clip0_5625_1555)">
<path d="M105.345 33.3166C105.706 33.3425 106.057 33.4456 106.374 33.619C106.691 33.7923 106.967 34.0319 107.184 34.3213C107.328 34.5147 107.289 34.7889 107.095 34.9336C106.902 35.0783 106.628 35.0388 106.483 34.8454C106.342 34.6564 106.161 34.4999 105.954 34.3868C105.747 34.2736 105.518 34.2063 105.283 34.1894C105.047 34.1726 104.811 34.2067 104.59 34.2891C104.369 34.3716 104.168 34.5007 104.001 34.6675L102.757 35.9122L102.702 35.9717C102.436 36.2747 102.291 36.6654 102.294 37.0699C102.298 37.5014 102.471 37.9142 102.776 38.2194C103.082 38.5245 103.494 38.6978 103.926 38.7016C104.357 38.7053 104.773 38.5391 105.084 38.2393L105.791 37.5321C105.962 37.3614 106.238 37.3614 106.409 37.5321C106.58 37.703 106.58 37.9802 106.409 38.151L105.691 38.8688C105.216 39.328 104.579 39.5821 103.918 39.5764C103.257 39.5706 102.625 39.3056 102.158 38.8383C101.69 38.3709 101.425 37.7385 101.419 37.0776C101.414 36.4167 101.668 35.7798 102.127 35.3043L103.382 34.049C103.638 33.7934 103.945 33.5955 104.284 33.4692C104.623 33.3429 104.985 33.2908 105.345 33.3166ZM108.082 30.4236C108.743 30.4293 109.375 30.6943 109.842 31.1617C110.31 31.629 110.575 32.2614 110.58 32.9223C110.586 33.5833 110.332 34.2202 109.873 34.6956C109.871 34.6974 109.869 34.6991 109.868 34.7009L108.618 35.9509C108.362 36.2065 108.054 36.4044 107.716 36.5307C107.377 36.657 107.015 36.7091 106.655 36.6833C106.295 36.6575 105.944 36.5543 105.626 36.381C105.309 36.2077 105.033 35.9681 104.816 35.6787C104.672 35.4852 104.711 35.211 104.905 35.0663C105.098 34.9216 105.372 34.9611 105.517 35.1546C105.658 35.3436 105.839 35.5 106.046 35.6132C106.253 35.7263 106.482 35.7937 106.717 35.8105C106.953 35.8274 107.189 35.7933 107.41 35.7108C107.631 35.6283 107.832 35.4993 107.999 35.3324L109.244 34.0877C109.543 33.7773 109.709 33.3616 109.706 32.9301C109.702 32.4986 109.529 32.0857 109.224 31.7806C108.919 31.4755 108.506 31.3022 108.074 31.2984C107.645 31.2947 107.231 31.4587 106.921 31.7558L106.204 32.4686C106.033 32.6389 105.756 32.6379 105.586 32.4666C105.415 32.2953 105.416 32.0185 105.587 31.8481L106.304 31.1356L106.309 31.1312C106.784 30.672 107.421 30.4178 108.082 30.4236Z" fill="black"/>
</g>
<rect width="18" height="18" transform="translate(116 26)" fill="white"/>
<ellipse cx="125" cy="35" rx="3" ry="4" fill="#FFDA3D"/>
<path d="M121.32 35C121.32 33.6687 121.764 32.6653 122.211 31.995C122.434 31.6605 122.658 31.4086 122.828 31.239C122.912 31.1541 122.984 31.0892 123.036 31.0449C123.062 31.0228 123.083 31.0057 123.098 30.9936C123.105 30.9876 123.111 30.9829 123.116 30.9794C123.118 30.9776 123.12 30.976 123.122 30.9749C123.122 30.9743 123.123 30.9737 123.124 30.9733L123.125 30.9729L123.125 30.9724L123.155 30.9525C123.305 30.8618 123.503 30.898 123.611 31.0416C123.726 31.1949 123.695 31.4124 123.542 31.5275L123.541 31.5279C123.539 31.5292 123.536 31.5319 123.531 31.5356C123.522 31.543 123.507 31.5553 123.488 31.5722C123.448 31.606 123.39 31.6584 123.318 31.7297C123.175 31.8725 122.983 32.0895 122.789 32.3799C122.402 32.9596 122.014 33.8313 122.014 35C122.014 36.1686 122.402 37.0403 122.789 37.62C122.983 37.9104 123.175 38.1274 123.318 38.2702C123.39 38.3415 123.448 38.3939 123.488 38.4277C123.507 38.4446 123.522 38.4569 123.531 38.4643C123.536 38.468 123.539 38.4707 123.541 38.472L123.542 38.4724L123.569 38.4948C123.698 38.614 123.719 38.8145 123.611 38.9583C123.503 39.1019 123.305 39.1381 123.155 39.0474L123.125 39.0275L123.125 39.0271L123.124 39.0266C123.123 39.0262 123.122 39.0256 123.122 39.025C123.12 39.0239 123.118 39.0223 123.116 39.0205C123.111 39.017 123.105 39.0123 123.098 39.0063C123.083 38.9942 123.062 38.9772 123.036 38.955C122.984 38.9107 122.912 38.8459 122.828 38.7609C122.658 38.5913 122.434 38.3394 122.211 38.0049C121.764 37.3346 121.32 36.3312 121.32 35ZM127.986 35C127.986 33.8313 127.598 32.9596 127.211 32.3799C127.017 32.0895 126.825 31.8725 126.682 31.7297C126.61 31.6584 126.552 31.606 126.512 31.5722C126.493 31.5553 126.478 31.543 126.469 31.5356C126.464 31.5319 126.461 31.5292 126.459 31.5279L126.458 31.5275C126.305 31.4124 126.274 31.1949 126.389 31.0416C126.497 30.898 126.695 30.8618 126.845 30.9525L126.875 30.9724L126.875 30.9729L126.876 30.9733C126.877 30.9737 126.878 30.9743 126.878 30.9749C126.88 30.976 126.882 30.9776 126.884 30.9794C126.889 30.9829 126.895 30.9876 126.902 30.9936C126.917 31.0057 126.938 31.0228 126.964 31.0449C127.016 31.0892 127.088 31.1541 127.172 31.239C127.342 31.4086 127.566 31.6605 127.789 31.995C128.236 32.6653 128.68 33.6687 128.68 35C128.68 36.3312 128.236 37.3346 127.789 38.0049C127.566 38.3394 127.342 38.5913 127.172 38.7609C127.088 38.8459 127.016 38.9107 126.964 38.955C126.938 38.9772 126.917 38.9942 126.902 39.0063C126.895 39.0123 126.889 39.017 126.884 39.0205C126.882 39.0223 126.88 39.0239 126.878 39.025C126.878 39.0256 126.877 39.0262 126.876 39.0266L126.875 39.0271L126.875 39.0275C126.722 39.1424 126.504 39.1115 126.389 38.9583C126.281 38.8145 126.302 38.614 126.431 38.4948L126.458 38.4724L126.459 38.472C126.461 38.4707 126.464 38.468 126.469 38.4643C126.478 38.4569 126.493 38.4446 126.512 38.4277C126.552 38.3939 126.61 38.3415 126.682 38.2702C126.825 38.1274 127.017 37.9104 127.211 37.62C127.598 37.0403 127.986 36.1686 127.986 35ZM126.005 33.5046C126.14 33.369 126.36 33.369 126.495 33.5046C126.631 33.6401 126.631 33.8598 126.495 33.9953L125.491 35L126.495 36.0046C126.631 36.1401 126.631 36.3598 126.495 36.4953C126.36 36.6309 126.14 36.6309 126.005 36.4953L125 35.4907L123.995 36.4953C123.86 36.6309 123.64 36.6309 123.505 36.4953C123.369 36.3598 123.369 36.1401 123.505 36.0046L124.509 35L123.505 33.9953C123.369 33.8598 123.369 33.6401 123.505 33.5046C123.64 33.369 123.86 33.369 123.995 33.5046L125 34.5092L126.005 33.5046Z" fill="black"/>
<rect width="18" height="18" transform="translate(57 24.9492) rotate(-19.2997)" fill="#2C5E79"/>
<g clip-path="url(#clip1_5625_1555)">
<path d="M71.3596 31.2225C71.2518 30.9148 71.0262 30.6625 70.7324 30.5212C70.4755 30.3975 70.1847 30.3675 69.91 30.4341L69.7931 30.4686L66.6667 31.5634L67.4793 33.8837L70.6057 32.7889C70.9134 32.6812 71.1656 32.4555 71.307 32.1618C71.4483 31.868 71.4673 31.5301 71.3596 31.2225ZM69.8646 28.2142C69.7569 27.9065 69.5312 27.6543 69.2375 27.5129C68.9805 27.3892 68.6898 27.3592 68.415 27.4258L68.2982 27.4603L65.565 28.4174L66.3776 30.7377L69.1107 29.7806C69.4184 29.6729 69.6706 29.4472 69.812 29.1535C69.9534 28.8597 69.9724 28.5218 69.8646 28.2142ZM70.6903 27.925C70.8747 28.4517 70.8427 29.0302 70.6007 29.533C70.5961 29.5426 70.5906 29.5516 70.5859 29.5611C70.7665 29.5948 70.9436 29.6515 71.112 29.7325C71.6149 29.9745 72.0008 30.4066 72.1853 30.9333C72.3697 31.46 72.3376 32.0385 72.0956 32.5413C71.8536 33.0442 71.4215 33.4301 70.8948 33.6146L67.7488 34.7163C67.535 34.7911 67.3003 34.7779 67.0962 34.6797C66.8921 34.5814 66.7353 34.4063 66.6604 34.1925L64.7325 28.6869C64.6576 28.4731 64.6708 28.2385 64.7691 28.0343C64.8673 27.8302 65.0425 27.6734 65.2563 27.5986L68.009 26.6346C68.5357 26.4501 69.1142 26.4822 69.6171 26.7242C70.1199 26.9662 70.5059 27.3983 70.6903 27.925Z" fill="white"/>
</g>
<path d="M43.2292 42.7471C55.0863 34.4634 64.3253 12.0001 55.9558 12C46.1501 11.9999 26.3717 24.7421 19.9558 34C25.5595 40.1722 31.3721 51.0308 43.2292 42.7471Z" fill="#ACBAC8"/>
<path d="M35.5395 19.6918C26.3678 27.81 23.1148 35.8922 22.6347 38.9185" stroke="#2C5E79"/>
<path d="M31.3914 42.7078L27.9559 54.4999M27.9559 54.4999H25.4559M27.9559 54.4999H32.9559M27.9559 54.4999V57.9999" stroke="#2C5E79"/>
<path d="M36.3914 44.2076L35.9559 54.4999M35.9559 54.4999L33.4559 55.9999M35.9559 54.4999H41.4559M35.9559 54.4999L37.9559 57.4999" stroke="#2C5E79"/>
<path d="M54.3914 30.2076C51.8914 43.2076 65.8914 38.7076 60.8914 33.7076" stroke="#2C5E79"/>
<path d="M58.8914 22.2078L55.8914 19.2078L58.3914 18.2078L58.8914 22.2078Z" fill="#FFDA3D"/>
<circle cx="53.8914" cy="17.2078" r="2" fill="white"/>
<circle cx="54.1776" cy="17.5112" r="1.1104" fill="black"/>
<line x1="44" y1="54.5" x2="135" y2="54.5" stroke="#2C5E79"/>
<line y1="54.5" x2="24" y2="54.5" stroke="#2C5E79"/>
<defs>
<clipPath id="clip0_5625_1555">
<rect width="10" height="10" fill="white" transform="translate(101 30)"/>
</clipPath>
<clipPath id="clip1_5625_1555">
<rect width="10" height="10" fill="white" transform="translate(62.0972 27.4023) rotate(-19.2997)"/>
</clipPath>
</defs>
</svg>
