<svg width="135" height="75" viewBox="0 0 135 75" fill="none" xmlns="http://www.w3.org/2000/svg">
<g clip-path="url(#clip0_5619_1352)">
<rect width="200" height="20" transform="translate(55.9558 25)" fill="#509DC4"/>
<rect width="56" height="18" transform="translate(77.9558 26)" fill="#B3E4FB"/>
<rect width="18" height="18" transform="translate(77.9558 26)" fill="white"/>
<path d="M89.8725 31.2292C90.1141 31.2292 90.3099 31.425 90.3099 31.6667C90.3099 31.9083 90.1141 32.1041 89.8725 32.1041H88.5093L86.3373 37.8959H87.7891C88.0308 37.8959 88.2266 38.0917 88.2266 38.3333C88.2266 38.575 88.0308 38.7708 87.7891 38.7708H84.0391C83.7975 38.7708 83.6017 38.575 83.6017 38.3333C83.6017 38.0917 83.7975 37.8959 84.0391 37.8959H85.4023L87.5743 32.1041H86.1225C85.8808 32.1041 85.685 31.9083 85.685 31.6667C85.685 31.425 85.8808 31.2292 86.1225 31.2292H89.8725Z" fill="black"/>
<rect width="18" height="18" transform="translate(96.9558 26)" fill="white"/>
<g clip-path="url(#clip1_5619_1352)">
<path d="M105.301 33.3166C105.662 33.3425 106.012 33.4456 106.33 33.619C106.647 33.7923 106.923 34.0319 107.139 34.3213C107.284 34.5147 107.245 34.7889 107.051 34.9336C106.858 35.0783 106.583 35.0388 106.439 34.8454C106.297 34.6564 106.117 34.4999 105.91 34.3868C105.703 34.2736 105.474 34.2063 105.238 34.1894C105.003 34.1726 104.767 34.2067 104.546 34.2891C104.325 34.3716 104.124 34.5007 103.957 34.6675L102.712 35.9122L102.657 35.9717C102.392 36.2747 102.247 36.6654 102.25 37.0699C102.254 37.5014 102.427 37.9142 102.732 38.2194C103.037 38.5245 103.45 38.6978 103.882 38.7016C104.313 38.7053 104.729 38.5391 105.039 38.2393L105.747 37.5321C105.917 37.3614 106.194 37.3614 106.365 37.5321C106.536 37.703 106.536 37.9802 106.365 38.151L105.647 38.8688C105.172 39.328 104.535 39.5821 103.874 39.5764C103.213 39.5706 102.581 39.3056 102.113 38.8383C101.646 38.3709 101.381 37.7385 101.375 37.0776C101.37 36.4167 101.624 35.7798 102.083 35.3043L103.338 34.049C103.594 33.7934 103.901 33.5955 104.24 33.4692C104.579 33.3429 104.94 33.2908 105.301 33.3166ZM108.037 30.4236C108.698 30.4293 109.331 30.6943 109.798 31.1617C110.265 31.629 110.53 32.2614 110.536 32.9223C110.542 33.5833 110.288 34.2202 109.829 34.6956C109.827 34.6974 109.825 34.6991 109.823 34.7009L108.574 35.9509C108.318 36.2065 108.01 36.4044 107.672 36.5307C107.333 36.657 106.971 36.7091 106.611 36.6833C106.25 36.6575 105.899 36.5543 105.582 36.381C105.265 36.2077 104.989 35.9681 104.772 35.6787C104.627 35.4852 104.667 35.211 104.86 35.0663C105.054 34.9216 105.328 34.9611 105.473 35.1546C105.614 35.3436 105.795 35.5 106.002 35.6132C106.209 35.7263 106.438 35.7937 106.673 35.8105C106.909 35.8274 107.145 35.7933 107.366 35.7108C107.587 35.6283 107.788 35.4993 107.955 35.3324L109.2 34.0877C109.499 33.7773 109.665 33.3616 109.661 32.9301C109.658 32.4986 109.485 32.0857 109.18 31.7806C108.875 31.4755 108.462 31.3022 108.03 31.2984C107.601 31.2947 107.186 31.4587 106.877 31.7558L106.16 32.4686C105.989 32.6389 105.712 32.6379 105.542 32.4666C105.371 32.2953 105.372 32.0185 105.543 31.8481L106.26 31.1356L106.265 31.1312C106.74 30.672 107.377 30.4178 108.037 30.4236Z" fill="black"/>
</g>
<rect width="18" height="18" transform="translate(115.956 26)" fill="white"/>
<ellipse cx="124.956" cy="35" rx="3" ry="4" fill="#FFDA3D"/>
<path d="M121.275 35C121.275 33.6687 121.72 32.6653 122.167 31.995C122.39 31.6605 122.614 31.4086 122.783 31.239C122.868 31.1541 122.94 31.0892 122.992 31.0449C123.018 31.0228 123.038 31.0057 123.054 30.9936C123.061 30.9876 123.067 30.9829 123.072 30.9794C123.074 30.9776 123.076 30.976 123.078 30.9749C123.078 30.9743 123.079 30.9737 123.08 30.9733L123.08 30.9729L123.081 30.9724L123.111 30.9525C123.261 30.8618 123.459 30.898 123.567 31.0416C123.682 31.1949 123.651 31.4124 123.497 31.5275L123.497 31.5279C123.495 31.5292 123.492 31.5319 123.487 31.5356C123.478 31.543 123.463 31.5553 123.443 31.5722C123.404 31.606 123.345 31.6584 123.274 31.7297C123.131 31.8725 122.938 32.0895 122.745 32.3799C122.358 32.9596 121.97 33.8313 121.97 35C121.97 36.1686 122.358 37.0403 122.745 37.62C122.938 37.9104 123.131 38.1274 123.274 38.2702C123.345 38.3415 123.404 38.3939 123.443 38.4277C123.463 38.4446 123.478 38.4569 123.487 38.4643C123.492 38.468 123.495 38.4707 123.497 38.472L123.497 38.4724L123.525 38.4948C123.654 38.614 123.674 38.8145 123.567 38.9583C123.459 39.1019 123.261 39.1381 123.111 39.0474L123.081 39.0275L123.08 39.0271L123.08 39.0266C123.079 39.0262 123.078 39.0256 123.078 39.025C123.076 39.0239 123.074 39.0223 123.072 39.0205C123.067 39.017 123.061 39.0123 123.054 39.0063C123.038 38.9942 123.018 38.9772 122.992 38.955C122.94 38.9107 122.868 38.8459 122.783 38.7609C122.614 38.5913 122.39 38.3394 122.167 38.0049C121.72 37.3346 121.275 36.3312 121.275 35ZM127.942 35C127.942 33.8313 127.553 32.9596 127.167 32.3799C126.973 32.0895 126.78 31.8725 126.638 31.7297C126.566 31.6584 126.508 31.606 126.468 31.5722C126.449 31.5553 126.434 31.543 126.424 31.5356C126.42 31.5319 126.417 31.5292 126.415 31.5279L126.414 31.5275C126.261 31.4124 126.23 31.1949 126.345 31.0416C126.453 30.898 126.65 30.8618 126.801 30.9525L126.831 30.9724L126.831 30.9729L126.832 30.9733C126.833 30.9737 126.833 30.9743 126.834 30.9749C126.836 30.976 126.838 30.9776 126.84 30.9794C126.844 30.9829 126.851 30.9876 126.858 30.9936C126.873 31.0057 126.894 31.0228 126.92 31.0449C126.972 31.0892 127.043 31.1541 127.128 31.239C127.298 31.4086 127.522 31.6605 127.745 31.995C128.192 32.6653 128.636 33.6687 128.636 35C128.636 36.3312 128.192 37.3346 127.745 38.0049C127.522 38.3394 127.298 38.5913 127.128 38.7609C127.043 38.8459 126.972 38.9107 126.92 38.955C126.894 38.9772 126.873 38.9942 126.858 39.0063C126.851 39.0123 126.844 39.017 126.84 39.0205C126.838 39.0223 126.836 39.0239 126.834 39.025C126.833 39.0256 126.833 39.0262 126.832 39.0266L126.831 39.0271L126.831 39.0275C126.678 39.1424 126.46 39.1115 126.345 38.9583C126.237 38.8145 126.257 38.614 126.387 38.4948L126.414 38.4724L126.415 38.472C126.417 38.4707 126.42 38.468 126.424 38.4643C126.434 38.4569 126.449 38.4446 126.468 38.4277C126.508 38.3939 126.566 38.3415 126.638 38.2702C126.78 38.1274 126.973 37.9104 127.167 37.62C127.553 37.0403 127.942 36.1686 127.942 35ZM125.96 33.5046C126.096 33.369 126.316 33.369 126.451 33.5046C126.587 33.6401 126.587 33.8598 126.451 33.9953L125.447 35L126.451 36.0046C126.587 36.1401 126.587 36.3598 126.451 36.4953C126.316 36.6309 126.096 36.6309 125.96 36.4953L124.956 35.4907L123.951 36.4953C123.816 36.6309 123.596 36.6309 123.46 36.4953C123.325 36.3598 123.325 36.1401 123.46 36.0046L124.465 35L123.46 33.9953C123.325 33.8598 123.325 33.6401 123.46 33.5046C123.596 33.369 123.816 33.369 123.951 33.5046L124.956 34.5092L125.96 33.5046Z" fill="black"/>
<rect width="18" height="18" transform="translate(56.9558 24.9492) rotate(-19.2997)" fill="#0E2A3C"/>
<g clip-path="url(#clip2_5619_1352)">
<path d="M71.3154 31.2225C71.2076 30.9148 70.982 30.6625 70.6883 30.5212C70.4313 30.3975 70.1405 30.3675 69.8658 30.4341L69.7489 30.4686L66.6225 31.5634L67.4351 33.8837L70.5615 32.7889C70.8692 32.6812 71.1214 32.4555 71.2628 32.1618C71.4041 31.868 71.4231 31.5301 71.3154 31.2225ZM69.8204 28.2142C69.7127 27.9065 69.4871 27.6543 69.1933 27.5129C68.9363 27.3892 68.6456 27.3592 68.3708 27.4258L68.254 27.4603L65.5208 28.4174L66.3334 30.7377L69.0665 29.7806C69.3742 29.6729 69.6265 29.4472 69.7678 29.1535C69.9092 28.8597 69.9282 28.5218 69.8204 28.2142ZM70.6461 27.925C70.8306 28.4517 70.7985 29.0302 70.5565 29.533C70.5519 29.5426 70.5464 29.5516 70.5417 29.5611C70.7223 29.5948 70.8994 29.6515 71.0678 29.7325C71.5707 29.9745 71.9566 30.4066 72.1411 30.9333C72.3255 31.46 72.2935 32.0385 72.0514 32.5413C71.8094 33.0442 71.3773 33.4301 70.8506 33.6146L67.7046 34.7163C67.4908 34.7911 67.2561 34.7779 67.052 34.6797C66.8479 34.5814 66.6911 34.4063 66.6163 34.1925L64.6883 28.6869C64.6134 28.4731 64.6267 28.2385 64.7249 28.0343C64.8231 27.8302 64.9983 27.6734 65.2121 27.5986L67.9649 26.6346C68.4916 26.4501 69.07 26.4822 69.5729 26.7242C70.0757 26.9662 70.4617 27.3983 70.6461 27.925Z" fill="white"/>
</g>
<path d="M43.2292 42.7471C55.0863 34.4634 64.3253 12.0001 55.9558 12C46.1501 11.9999 26.3717 24.7421 19.9558 34C25.5595 40.1722 31.3721 51.0308 43.2292 42.7471Z" fill="#ACBAC8"/>
<path d="M35.5395 19.6918C26.3678 27.81 23.1148 35.8922 22.6347 38.9185" stroke="#0E2A3C"/>
<path d="M31.3914 42.7078L27.9559 54.4999M27.9559 54.4999H25.4559M27.9559 54.4999H32.9559M27.9559 54.4999V57.9999" stroke="#0E2A3C"/>
<path d="M36.3914 44.2076L35.9559 54.4999M35.9559 54.4999L33.4559 55.9999M35.9559 54.4999H41.4559M35.9559 54.4999L37.9559 57.4999" stroke="#0E2A3C"/>
<path d="M54.3914 30.2076C51.8914 43.2076 65.8914 38.7076 60.8914 33.7076" stroke="#0E2A3C"/>
<path d="M58.8914 22.2078L55.8914 19.2078L58.3914 18.2078L58.8914 22.2078Z" fill="#FFDA3D"/>
<circle cx="53.8914" cy="17.2078" r="2" fill="white"/>
<circle cx="54.1776" cy="17.5112" r="1.1104" fill="black"/>
<line x1="44" y1="54.5" x2="135" y2="54.5" stroke="#0E2A3C"/>
<line y1="54.5" x2="24" y2="54.5" stroke="#0E2A3C"/>
</g>
<defs>
<clipPath id="clip0_5619_1352">
<rect width="135" height="75" fill="white"/>
</clipPath>
<clipPath id="clip1_5619_1352">
<rect width="10" height="10" fill="white" transform="translate(100.956 30)"/>
</clipPath>
<clipPath id="clip2_5619_1352">
<rect width="10" height="10" fill="white" transform="translate(62.0531 27.4023) rotate(-19.2997)"/>
</clipPath>
</defs>
</svg>
