<svg width="530" height="236" viewBox="0 0 530 236" fill="none" xmlns="http://www.w3.org/2000/svg">
<g clip-path="url(#clip0)">
<path d="M376.665 0.531525H469.043H477.45H518.211C525.236 0.531525 530.876 6.16575 530.876 13.182V133.733C530.876 140.75 525.236 146.384 518.211 146.384H504.057H491.605L468.83 169.133V146.384H456.91H449.886H376.665C369.641 146.384 364.001 140.75 364.001 133.733V13.182C364.001 6.27206 369.641 0.531525 376.665 0.531525Z" fill="#B2E3FF"/>
<path d="M437.967 191.883C447.959 191.883 456.059 183.506 456.059 173.173C456.059 162.84 447.959 154.463 437.967 154.463C427.974 154.463 419.874 162.84 419.874 173.173C419.874 183.506 427.974 191.883 437.967 191.883Z" fill="#26374A"/>
<path d="M412.637 212.187C413.595 201.025 422.641 196.241 433.603 196.241H442.117C453.185 196.241 462.125 201.025 463.083 212.187H463.189V235.256H412.424L412.637 212.187Z" fill="#26374A"/>
<path d="M465.531 40.7153C471.996 40.7153 477.238 35.2895 477.238 28.5964C477.238 21.9033 471.996 16.4775 465.531 16.4775C459.065 16.4775 453.824 21.9033 453.824 28.5964C453.824 35.2895 459.065 40.7153 465.531 40.7153Z" fill="#26374A"/>
<path d="M449.248 53.6847C449.886 46.4559 455.633 43.373 462.764 43.373H468.298C475.428 43.373 481.175 46.4559 481.814 53.6847H481.92V68.5676H449.248V53.6847Z" fill="#26374A"/>
<path d="M429.24 40.7153C435.705 40.7153 440.946 35.2895 440.946 28.5964C440.946 21.9033 435.705 16.4775 429.24 16.4775C422.774 16.4775 417.533 21.9033 417.533 28.5964C417.533 35.2895 422.774 40.7153 429.24 40.7153Z" fill="#26374A"/>
<path d="M412.956 53.6847C413.595 46.4559 419.342 43.373 426.473 43.373H432.007C439.137 43.373 444.884 46.4559 445.523 53.6847H445.629V68.5676H412.956V53.6847Z" fill="#26374A"/>
<path d="M483.623 97.9081C490.089 97.9081 495.33 92.4823 495.33 85.7892C495.33 79.0961 490.089 73.6702 483.623 73.6702C477.158 73.6702 471.916 79.0961 471.916 85.7892C471.916 92.4823 477.158 97.9081 483.623 97.9081Z" fill="#26374A"/>
<path d="M467.34 110.877C467.979 103.649 473.725 100.566 480.856 100.566H486.39C493.521 100.566 499.268 103.649 499.906 110.877H500.013V125.76H467.34V110.877Z" fill="#26374A"/>
<path d="M447.332 97.9081C453.797 97.9081 459.039 92.4823 459.039 85.7892C459.039 79.0961 453.797 73.6702 447.332 73.6702C440.866 73.6702 435.625 79.0961 435.625 85.7892C435.625 92.4823 440.866 97.9081 447.332 97.9081Z" fill="#26374A"/>
<path d="M431.155 110.877C431.794 103.649 437.541 100.566 444.671 100.566H450.205C457.336 100.566 463.083 103.649 463.722 110.877H463.828V125.76H431.155V110.877Z" fill="#26374A"/>
<path d="M411.147 97.9081C417.613 97.9081 422.854 92.4823 422.854 85.7892C422.854 79.0961 417.613 73.6702 411.147 73.6702C404.682 73.6702 399.44 79.0961 399.44 85.7892C399.44 92.4823 404.682 97.9081 411.147 97.9081Z" fill="#26374A"/>
<path d="M394.864 110.877C395.503 103.649 401.25 100.566 408.38 100.566H413.914C421.045 100.566 426.792 103.649 427.43 110.877H427.537V125.76H394.758L394.864 110.877Z" fill="#26374A"/>
<path d="M154.212 1.00027H61.8343H53.4267H12.6656C5.64155 1.00027 0.000976562 6.6345 0.000976562 13.6507V134.202C0.000976562 141.218 5.64155 146.853 12.6656 146.853H26.8203H39.2721L62.0472 169.602V146.853H73.9669H80.9909H154.105C161.13 146.853 166.77 141.218 166.77 134.202V13.6507C166.876 6.74081 161.13 1.00027 154.212 1.00027Z" fill="#B2E3FF"/>
<path d="M92.9107 192.352C102.903 192.352 111.003 183.975 111.003 173.642C111.003 163.309 102.903 154.932 92.9107 154.932C82.9186 154.932 74.8184 163.309 74.8184 173.642C74.8184 183.975 82.9186 192.352 92.9107 192.352Z" fill="#26374A"/>
<path d="M118.134 212.656C117.176 201.494 108.129 196.71 97.1676 196.71H88.6536C77.5853 196.71 68.6455 201.494 67.6877 212.656H67.5813V235.725H118.346L118.134 212.656Z" fill="#26374A"/>
<path d="M137.29 61.3822C137.077 61.3822 136.971 61.3822 136.758 61.3822C138.248 57.6615 138.993 53.6219 138.993 49.3696C138.993 31.1912 124.306 16.521 106.107 16.521C90.037 16.521 76.7338 28.002 73.8604 43.3102C70.2419 41.5029 66.1977 40.4399 61.9407 40.4399C49.1696 40.4399 38.6334 49.4759 36.1857 61.4885C35.2278 61.3822 34.27 61.2759 33.3122 61.2759C19.4768 61.2759 8.19568 72.5444 8.19568 86.3642C8.19568 100.184 19.4768 111.453 33.3122 111.453H137.29C151.125 111.453 162.407 100.184 162.407 86.3642C162.3 72.6507 151.125 61.3822 137.29 61.3822Z" fill="white"/>
<path d="M72.0511 61.1696H118.666C119.623 61.1696 120.368 61.9138 120.368 62.8705V92.211C120.368 93.1678 119.623 93.912 118.666 93.912H72.0511C71.0932 93.912 70.3483 93.1678 70.3483 92.211V62.8705C70.2418 61.9138 71.0932 61.1696 72.0511 61.1696ZM89.8242 76.1588L75.9888 90.5102H114.409L100.68 76.2651L96.2097 79.0291C95.6776 79.348 94.9326 79.4543 94.294 79.0291L89.8242 76.1588ZM73.7539 87.8525L86.8442 74.2453L73.7539 65.9534V87.8525ZM103.66 74.3516L116.856 88.0651V66.0597L103.66 74.3516ZM78.0109 64.5714L95.3583 75.5209L112.599 64.5714H78.0109Z" fill="#26374A"/>
<path d="M63.1113 70.6309H53.8523C53.1073 70.6309 52.4688 71.2687 52.4688 72.0129C52.4688 72.757 53.1073 73.3948 53.8523 73.3948H63.1113C63.8563 73.3948 64.4948 72.757 64.4948 72.0129C64.3884 71.2687 63.7499 70.6309 63.1113 70.6309Z" fill="#26374A"/>
<path d="M63.1113 78.9228H49.276C48.531 78.9228 47.8925 79.5606 47.8925 80.3047C47.8925 81.0489 48.531 81.6868 49.276 81.6868H63.1113C63.8563 81.6868 64.4948 81.0489 64.4948 80.3047C64.3884 79.5606 63.7499 78.9228 63.1113 78.9228Z" fill="#26374A"/>
<path d="M63.1113 87.7462H44.5933C43.8483 87.7462 43.2097 88.3841 43.2097 89.1282C43.2097 89.8723 43.8483 90.5102 44.5933 90.5102H63.1113C63.8563 90.5102 64.4949 89.8723 64.4949 89.1282C64.4949 88.3841 63.7499 87.7462 63.1113 87.7462Z" fill="#26374A"/>
<path d="M336.212 0.531525H243.834H235.427H194.666C187.642 0.531525 182.001 6.16575 182.001 13.182V133.733C182.001 140.75 187.642 146.384 194.666 146.384H208.82H221.272L244.047 169.133V146.384H255.967H262.991H336.105C343.129 146.384 348.77 140.75 348.77 133.733V13.182C348.876 6.27206 343.236 0.531525 336.212 0.531525Z" fill="#B2E3FF"/>
<path d="M274.911 191.883C284.903 191.883 293.003 183.506 293.003 173.173C293.003 162.84 284.903 154.463 274.911 154.463C264.918 154.463 256.818 162.84 256.818 173.173C256.818 183.506 264.918 191.883 274.911 191.883Z" fill="#26374A"/>
<path d="M300.24 212.187C299.282 201.025 290.236 196.241 279.274 196.241H270.76C259.692 196.241 250.752 201.025 249.794 212.187H249.688V235.256H300.453L300.24 212.187Z" fill="#26374A"/>
<path d="M245.111 46.2432L246.388 50.3892C246.495 50.8144 246.921 51.027 247.346 51.027L250.752 50.3892C251.284 51.2396 251.923 52.0901 252.774 52.8342L251.497 56.0234C251.39 56.4486 251.497 56.8739 251.923 57.0865L255.754 59.1063C256.18 59.3189 256.712 59.2126 256.925 58.7873L258.84 55.9171C259.905 56.1297 260.969 56.236 262.033 56.236L263.417 59.4252C263.629 59.8504 263.949 60.063 264.481 59.8504L268.525 58.4684C268.951 58.3621 269.164 57.9369 269.164 57.5117L268.525 54.1099C269.376 53.5783 270.228 52.9405 270.973 52.0901L274.166 53.3658C274.591 53.4721 275.017 53.3657 275.23 52.9405L277.252 49.1135C277.465 48.6883 277.252 48.263 276.933 47.9441L274.059 46.0306C274.272 44.9675 274.378 43.9045 274.378 42.8414L277.678 41.4594C278.103 41.2468 278.316 40.9279 278.103 40.3964L276.826 36.3567C276.72 35.9315 276.294 35.7189 275.868 35.7189L272.463 36.3567C271.824 35.4 271.186 34.6558 270.334 33.9117L271.505 30.7225C271.611 30.2973 271.505 29.872 271.079 29.6594L267.248 27.6396C266.822 27.427 266.396 27.6396 266.077 27.9585L264.162 30.8288C263.204 30.6162 262.033 30.5099 261.075 30.6162L259.692 27.427C259.479 27.0018 259.16 26.7892 258.627 27.0018L254.583 28.2775C254.158 28.3838 253.945 28.809 253.945 29.2342L254.583 32.636C253.625 33.2739 252.88 33.9117 252.135 34.7622L248.943 33.5928C248.517 33.4865 248.091 33.5928 247.878 34.018L245.856 37.845C245.643 38.2703 245.856 38.6955 246.176 39.0144L249.049 40.9279C248.836 41.8847 248.73 43.054 248.836 44.0108L245.643 45.3928C245.218 45.3928 245.005 45.9243 245.111 46.2432ZM256.499 41.8847C257.457 38.1639 261.82 36.782 264.8 39.0144C266.503 40.2901 267.248 42.4162 266.716 44.436C265.758 48.1567 261.394 49.5387 258.415 47.3063C256.818 46.1369 255.967 43.9045 256.499 41.8847Z" fill="#26374A"/>
<path d="M220.314 37.1009L218.611 40.3964C218.399 40.8216 218.611 41.2469 218.931 41.5658L221.378 43.1604C221.272 44.0108 221.166 44.755 221.166 45.7117L218.611 46.8811C218.186 47.0937 217.973 47.4126 218.186 47.9442L219.25 51.3459C219.356 51.7712 219.782 51.9838 220.208 51.9838L223.081 51.4522C223.613 52.1964 224.146 52.8342 224.784 53.3658L223.826 56.0234C223.72 56.4487 223.826 56.8739 224.252 57.0865L227.445 58.7874C227.87 59 228.296 58.7874 228.615 58.4685L230.212 56.1297C231.063 56.236 231.808 56.3423 232.766 56.3423L233.937 58.8937C234.15 59.3189 234.469 59.5315 235.001 59.3189L238.407 58.2558C238.832 58.1495 239.045 57.7243 239.045 57.2991L238.513 54.4288C239.258 53.8973 239.897 53.3658 240.429 52.7279L243.196 53.791C243.621 53.8973 244.047 53.791 244.26 53.3658L245.963 50.0703C246.176 49.6451 246.069 49.1135 245.644 48.9009L243.196 47.3063C243.409 46.5622 243.409 45.7117 243.409 44.755L245.963 43.5856C246.388 43.373 246.601 43.0541 246.388 42.5225L245.324 39.1207C245.218 38.6955 244.792 38.4829 244.366 38.4829L241.493 39.0144C240.961 38.2703 240.429 37.6324 239.79 37.1009L240.854 34.3369C240.961 33.9117 240.854 33.4865 240.429 33.2739L237.236 31.573C236.81 31.3604 236.384 31.573 236.065 31.8919L234.469 34.3369C233.617 34.2306 232.766 34.018 231.915 34.1243L230.744 31.573C230.531 31.1478 230.212 30.9351 229.68 31.1477L226.274 32.2108C225.848 32.3171 225.635 32.7424 225.635 33.1676L226.168 36.0378C225.423 36.5694 224.784 37.1009 224.252 37.7387L221.485 36.6757C221.059 36.5694 220.527 36.782 220.314 37.1009ZM228.296 43.373C229.467 40.8216 232.447 39.9712 234.788 41.5658C236.065 42.4162 236.81 44.1171 236.704 45.6054C236.278 49.0072 232.447 50.6018 229.786 48.6883C228.083 47.4126 227.445 45.1802 228.296 43.373Z" fill="#26374A"/>
<path d="M256.18 26.7892L257.67 23.9189C257.882 23.4937 257.67 23.0685 257.35 22.7495L255.328 21.3676C255.541 20.6234 255.541 19.8793 255.541 19.2414L257.776 18.1784C258.202 17.9658 258.415 17.6468 258.202 17.1153L257.244 14.0324C257.137 13.6072 256.712 13.3946 256.286 13.3946L253.838 13.9261C253.413 13.2883 252.987 12.7568 252.455 12.3315L253.306 9.99278C253.413 9.56756 253.306 9.14233 252.88 8.92972L250.113 7.44144C249.688 7.22883 249.262 7.44142 249.049 7.76034L247.666 9.78019C246.921 9.56758 246.176 9.56756 245.537 9.56756L244.473 7.12253C244.26 6.69731 243.941 6.48467 243.408 6.69728L240.322 7.65406C239.896 7.76037 239.684 8.18559 239.684 8.61081L240.109 11.0558C239.471 11.4811 238.939 11.9063 238.513 12.4378L236.172 11.5874C235.746 11.4811 235.32 11.5874 235.107 12.0126L233.617 14.8829C233.404 15.3081 233.511 15.8396 233.937 16.0523L235.959 17.4342C235.746 18.1784 235.746 18.9225 235.746 19.5604L233.511 20.6234C233.085 20.836 232.872 21.1549 233.085 21.6865L234.043 24.7694C234.149 25.1946 234.575 25.4072 235.001 25.4072L237.449 24.982C237.874 25.6198 238.3 26.1513 238.832 26.5766L237.981 28.9153C237.874 29.3405 237.981 29.7658 238.406 29.9784L241.174 31.4667C241.599 31.6793 242.025 31.4667 242.344 31.1477L243.728 29.1279C244.473 29.3405 245.218 29.3405 245.856 29.3405L246.921 31.573C247.133 31.9982 247.453 32.2108 247.985 31.9982L251.071 31.0415C251.497 30.9351 251.71 30.5099 251.71 30.0847L251.284 27.7459C251.923 27.3207 252.455 26.8955 252.88 26.3639L255.222 27.2144C255.435 27.3207 255.967 27.1081 256.18 26.7892ZM249.155 20.836C248.198 22.9622 245.75 23.7063 243.728 22.5369C242.131 21.5802 241.493 19.4541 242.238 17.7532C243.196 15.627 245.643 14.8829 247.666 16.0523C249.262 17.1153 249.9 19.1351 249.155 20.836Z" fill="#26374A"/>
<path d="M267.354 125.335H255.009V128.099H267.354V125.335Z" fill="#26374A"/>
<path d="M252.455 125.335V129.375C252.455 130.119 252.987 130.65 253.732 130.65H268.631C269.376 130.65 269.909 130.119 269.909 129.375V125.335H310.031C309.393 129.906 305.455 133.414 300.772 133.414H221.591C216.802 133.414 212.971 129.906 212.332 125.335H252.455Z" fill="#26374A"/>
<path d="M224.997 70.9063H297.366C298.111 70.9063 298.643 71.4379 298.643 72.182V122.784H223.72V72.182C223.72 71.4379 224.252 70.9063 224.997 70.9063Z" fill="#B5E1F9"/>
<path d="M298.644 73.2451C298.644 72.501 298.111 71.9694 297.366 71.9694H224.997C224.252 71.9694 223.72 72.501 223.72 73.2451V122.784H219.144V71.0126C219.144 69.0991 220.634 67.6108 222.549 67.6108H299.814C301.73 67.6108 303.22 69.0991 303.22 71.0126V122.784H298.644V73.2451Z" fill="#26374A"/>
<path d="M260.118 84.3009C259.905 84.3009 259.798 84.3009 259.585 84.3009C258.095 84.5135 257.138 85.8955 257.35 87.3838L260.65 108.858C260.65 110.133 261.607 111.09 262.885 111.09H263.31C265.013 111.09 266.184 109.708 265.971 108.007L262.672 86.5333C262.459 85.2577 261.395 84.3009 260.118 84.3009Z" fill="#26374A"/>
<path d="M271.292 87.8089C270.654 87.9152 270.015 88.2342 269.483 88.872C268.632 90.0414 268.844 91.7423 270.015 92.5927L276.72 97.5891L270.015 102.692C270.122 102.585 270.015 102.692 270.015 102.692C268.951 103.542 268.632 105.137 269.377 106.306C269.696 106.731 270.122 106.944 270.654 106.944H273.208L282.68 99.7152C283.318 99.1837 283.85 98.4396 283.531 97.0576C283.318 96.3134 282.893 95.6756 282.254 95.2504L273.101 88.3405C272.676 87.8089 271.931 87.7026 271.292 87.8089Z" fill="#26374A"/>
<path d="M251.923 87.8089C251.284 87.7026 250.539 87.9152 249.901 88.3405L240.322 95.5693C240.109 95.6756 239.897 95.8883 239.79 96.1009C239.79 97.9081 240.961 100.353 242.451 101.522L250.858 107.901C251.923 108.751 253.519 107.901 253.519 106.519C253.519 104.712 252.348 102.267 250.858 101.097L246.389 97.6955L253.093 92.6991C254.264 91.8486 254.477 90.1477 253.626 88.9783C253.306 88.2342 252.668 87.9152 251.923 87.8089Z" fill="#26374A"/>
</g>
<defs>
<clipPath id="clip0">
<rect width="530" height="236" fill="white"/>
</clipPath>
</defs>
</svg>
