<svg width="536" height="317" viewBox="0 0 536 317" fill="none" xmlns="http://www.w3.org/2000/svg">
<path d="M366.675 70.7087C366.464 70.7087 366.148 70.7087 365.937 70.7087C368.258 64.9043 369.525 58.4666 369.525 51.8179C369.525 23.2178 346.307 0 317.707 0C292.378 0 271.271 18.1521 266.839 42.2142C261.245 39.3647 254.808 37.6761 248.054 37.6761C228.002 37.6761 211.222 51.9234 207.422 70.9198C205.945 70.7087 204.362 70.6032 202.884 70.6032C181.039 70.6032 163.309 88.3332 163.309 110.179C163.309 132.025 181.039 149.755 202.884 149.755H366.781C388.627 149.755 406.357 132.025 406.357 110.179C406.251 88.4387 388.521 70.7087 366.675 70.7087Z" fill="#B2E3FF"/>
<path d="M263.777 70.2871H337.23C338.707 70.2871 339.974 71.5535 339.974 73.031V119.361C339.974 120.839 338.707 122.105 337.23 122.105H263.777C262.3 122.105 261.033 120.839 261.033 119.361V73.031C261.033 71.448 262.3 70.2871 263.777 70.2871ZM291.85 93.9271L270.109 116.617H330.687L309.052 94.0326L302.087 98.4651C301.242 98.9928 300.081 99.0983 299.132 98.4651L291.85 93.9271ZM266.521 112.396L287.1 90.9721L266.521 77.9912V112.396ZM313.695 91.0776L334.486 112.712V77.8857L313.695 91.0776ZM273.275 75.775L300.503 92.9772L327.732 75.775H273.275Z" fill="#26374A"/>
<path d="M249.745 85.2744H235.076C233.915 85.2744 232.965 86.2242 232.965 87.3851C232.965 88.546 233.915 89.4958 235.076 89.4958H249.745C250.906 89.4958 251.856 88.546 251.856 87.3851C251.856 86.2242 250.906 85.2744 249.745 85.2744Z" fill="#26374A"/>
<path d="M249.742 98.4668H227.896C226.735 98.4668 225.785 99.4166 225.785 100.578C225.785 101.738 226.735 102.688 227.896 102.688H249.742C250.903 102.688 251.852 101.738 251.852 100.578C251.852 99.3111 250.903 98.4668 249.742 98.4668Z" fill="#26374A"/>
<path d="M249.742 112.186H220.509C219.348 112.186 218.398 113.135 218.398 114.296C218.398 115.457 219.348 116.407 220.509 116.407H249.742C250.903 116.407 251.853 115.457 251.853 114.296C251.853 113.135 250.903 112.186 249.742 112.186Z" fill="#26374A"/>
<path d="M425.422 219.088C437.08 217.934 445.595 207.547 444.44 195.889C443.286 184.231 432.9 175.716 421.242 176.871C409.583 178.025 401.069 188.412 402.223 200.07C403.377 211.728 413.764 220.242 425.422 219.088Z" fill="#26374A"/>
<path d="M393.797 242.097C394.852 229.433 405.511 224.05 418.387 224.05H428.413C441.288 224.05 451.947 229.433 453.002 242.097H453.108V283.361H393.691L393.797 242.097Z" fill="#26374A"/>
<path d="M481.709 304.152H466.828V307.424H481.709V304.152Z" fill="#F0F0F1" stroke="#F0F0F1" stroke-width="5" stroke-miterlimit="10"/>
<path d="M484.769 304.152V309.007C484.769 309.851 484.03 310.59 483.186 310.59H465.139C464.295 310.59 463.556 309.851 463.556 309.007V304.152H415.221C415.959 309.64 420.709 313.862 426.407 313.862H521.812C527.51 313.862 532.26 309.64 532.998 304.152H484.769Z" fill="#F0F0F1" stroke="#F0F0F1" stroke-width="5" stroke-miterlimit="10"/>
<path d="M519.385 300.986H524.873V238.509C524.873 236.293 523.079 234.393 520.757 234.393H427.569C425.353 234.393 423.453 236.187 423.453 238.509V300.986H428.941H519.385Z" fill="#F0F0F1" stroke="#F0F0F1" stroke-width="5" stroke-miterlimit="10"/>
<path d="M481.709 304.152H466.828V307.423H481.709V304.152Z" fill="#26374A"/>
<path d="M484.767 304.152V309.006C484.767 309.851 484.028 310.59 483.184 310.59H465.137C464.293 310.59 463.554 309.851 463.554 309.006V304.152H415.219C415.957 309.64 420.707 313.861 426.406 313.861H521.81C527.508 313.861 532.258 309.64 532.996 304.152H484.767Z" fill="#26374A"/>
<path d="M517.906 238.403H430.628C429.784 238.403 429.045 239.142 429.045 239.986V300.986H519.383V239.986C519.383 239.037 518.75 238.403 517.906 238.403Z" fill="#B2E3FF"/>
<path d="M429.046 241.253C429.046 240.409 429.785 239.67 430.629 239.67H517.907C518.752 239.67 519.49 240.409 519.49 241.253V300.986H524.978V238.509C524.978 236.293 523.184 234.393 520.862 234.393H427.675C425.458 234.393 423.559 236.187 423.559 238.509V300.986H429.046V241.253V241.253Z" fill="#26374A"/>
<path d="M445.616 224.79H502.922H507.354V226.478V285.789C507.354 289.377 504.399 292.332 500.811 292.332H462.185H447.832C444.244 292.332 441.289 289.377 441.289 285.789V278.085V224.79H445.616V224.79Z" fill="white"/>
<path d="M447.83 212.125H486.456H500.809C504.397 212.125 507.352 215.08 507.352 218.668V224.684H502.92H445.614H441.182V218.668C441.182 215.08 444.137 212.125 447.83 212.125Z" fill="#26374A"/>
<path d="M496.798 242.203H451.734V246.108H496.798V242.203Z" fill="#26374A"/>
<path d="M496.798 252.862H451.734V256.767H496.798V252.862Z" fill="#26374A"/>
<path d="M496.798 263.521H451.734V267.426H496.798V263.521Z" fill="#26374A"/>
<path d="M483.079 274.18H479.174V278.085H483.079V274.18Z" fill="#26374A"/>
<path d="M490.889 274.18H486.984V278.085H490.889V274.18Z" fill="#26374A"/>
<path d="M475.165 274.18H471.26V278.085H475.165V274.18Z" fill="#26374A"/>
<path d="M42.5757 208.645L44.1588 213.606C44.2643 214.133 44.792 214.45 45.3196 214.344L49.4355 213.5C50.0687 214.555 50.913 215.505 51.8628 216.455L50.3853 220.254C50.2798 220.782 50.3853 221.31 50.913 221.626L55.5566 224.054C55.9787 224.265 56.7175 224.159 56.9285 223.737L59.2503 220.36C60.5167 220.677 61.7832 220.782 63.1551 220.677L64.8437 224.581C65.0548 225.109 65.5824 225.32 66.1101 225.109L70.9647 223.526C71.4924 223.42 71.809 222.893 71.7035 222.365L70.8592 218.249C71.9146 217.616 72.8644 216.772 73.8142 215.822L77.6135 217.299C78.1412 217.405 78.6688 217.299 78.9854 216.772L81.4128 212.128C81.6238 211.706 81.5183 211.073 81.0962 210.756L77.719 208.434C78.0356 207.168 78.1412 205.902 78.0356 204.53L81.9404 202.841C82.4681 202.63 82.6792 202.102 82.4681 201.575L80.9906 196.72C80.8851 196.192 80.3574 195.876 79.8297 195.981L75.7138 196.826C74.9751 195.77 74.2364 194.715 73.181 193.871L74.6585 189.966C74.764 189.438 74.6585 188.91 74.1308 188.594L69.4873 186.166C69.0651 185.955 68.4319 186.061 68.1153 186.483L65.7935 189.966C64.6326 189.755 63.2607 189.544 61.9942 189.649L60.3057 185.744C60.0946 185.217 59.5669 185.006 59.0392 185.217L54.0791 186.694C53.5514 186.8 53.2348 187.327 53.3403 187.855L54.1846 191.971C53.1293 192.71 52.0739 193.448 51.2296 194.504L47.3248 193.026C46.7971 192.921 46.2695 193.026 45.9529 193.554L43.5255 198.197C43.3145 198.62 43.42 199.253 43.8421 199.569L47.3248 201.891C47.1137 203.052 46.9027 204.424 47.0082 205.69L43.1034 207.379C42.6813 207.59 42.4702 208.223 42.5757 208.645ZM56.9285 201.997C58.5116 198.936 62.4164 197.67 65.4769 199.253C68.5374 200.836 69.8039 204.741 68.2208 207.801C66.6378 210.862 62.733 212.128 59.6725 210.545C56.6119 208.962 55.24 205.163 56.9285 201.997Z" fill="#26374A"/>
<path d="M12.7096 197.669L10.7045 201.574C10.4934 201.996 10.5989 202.63 11.0211 202.946L13.8705 204.951C13.765 205.901 13.5539 206.957 13.5539 208.012L10.3879 209.489C9.86018 209.7 9.64911 210.228 9.86018 210.756L11.1266 214.872C11.2321 215.399 11.7598 215.716 12.2875 215.61L15.6646 214.977C16.2978 215.927 16.9311 216.56 17.6698 217.299L16.5089 220.465C16.4034 220.993 16.5089 221.52 17.0366 221.837L20.8359 223.842C21.258 224.053 21.8912 223.948 22.2078 223.526L24.1075 220.676C25.0573 220.782 26.1126 220.993 27.168 220.993L28.6455 224.159C28.8566 224.686 29.3842 224.898 29.9119 224.686L34.0278 223.42C34.5555 223.315 34.8721 222.787 34.7665 222.259L34.1333 218.882C35.0832 218.249 35.7164 217.616 36.4551 216.877L39.7267 218.143C40.2544 218.249 40.7821 218.143 41.0987 217.616L43.1039 213.711C43.3149 213.289 43.2094 212.55 42.7872 212.339L39.9378 210.334C40.1489 209.384 40.2544 208.328 40.2544 207.273L43.4205 205.796C43.9481 205.585 44.1592 205.057 43.9481 204.529L42.6817 200.413C42.5762 199.886 42.0485 199.569 41.5208 199.675L38.1437 200.308C37.5105 199.358 36.8773 198.725 36.1385 197.986L37.4049 194.714C37.5105 194.187 37.4049 193.659 36.8773 193.342L33.078 191.337C32.6558 191.126 32.0226 191.232 31.706 191.654L29.7008 194.503C28.751 194.398 27.5901 194.187 26.6403 194.187L25.1628 191.021C24.9518 190.493 24.4241 190.282 23.8964 190.493L19.7805 191.759C19.2528 191.865 18.9362 192.393 19.0418 192.92L19.675 196.297C18.7252 196.931 18.0919 197.564 17.3532 198.303L14.0816 197.036C13.5539 196.931 13.0262 197.142 12.7096 197.669ZM22.4189 204.846C23.7909 202.207 26.9569 201.258 29.4898 202.63C32.1282 204.002 33.078 207.168 31.706 209.7C30.4396 212.233 27.168 213.289 24.6351 211.917C22.1023 210.545 21.0469 207.484 22.4189 204.846Z" fill="#26374A"/>
<path d="M55.8739 185.111L57.668 181.628C57.8791 181.206 57.7736 180.573 57.3514 180.256L54.9241 178.568C55.1352 177.723 55.2407 176.773 55.2407 175.929L57.8791 174.663C58.4068 174.452 58.6179 173.924 58.4068 173.396L57.2459 169.703C57.1404 169.175 56.6127 168.858 56.085 168.964L53.13 169.597C52.6023 168.858 52.0747 168.225 51.4415 167.592L52.4968 164.848C52.6023 164.32 52.4968 163.793 51.9691 163.476L48.592 161.893C48.1699 161.682 47.5366 161.787 47.3256 162.315L45.637 164.742C44.7927 164.531 43.8429 164.426 42.9986 164.426L41.7322 161.576C41.5211 161.049 40.9935 160.838 40.4658 161.049L36.772 162.21C36.2444 162.315 35.9277 162.843 36.0333 163.37L36.561 166.22C35.8222 166.748 35.189 167.275 34.5558 167.908L31.8119 166.853C31.2842 166.748 30.7565 166.853 30.4399 167.381L28.6458 170.863C28.4347 171.286 28.5403 172.024 28.9624 172.235L31.3897 173.924C31.1786 174.768 31.0731 175.718 31.0731 176.562L28.4347 177.829C27.9071 178.04 27.696 178.568 27.9071 179.095L29.0679 182.789C29.1735 183.317 29.7012 183.633 30.2288 183.528L33.0783 183C33.606 183.739 34.1336 184.372 34.7669 185.005L33.7115 187.749C33.606 188.277 33.7115 188.804 34.2392 189.121L37.6163 190.915C38.0385 191.126 38.6717 191.021 38.9883 190.599L40.6768 188.171C41.5211 188.382 42.4709 188.488 43.3152 188.488L44.5816 191.126C44.7927 191.654 45.3204 191.865 45.8481 191.654L49.5418 190.493C50.0695 190.388 50.3861 189.86 50.2806 189.332L49.7529 186.588C50.4916 186.061 51.1248 185.533 51.7581 184.9L54.502 185.955C55.1352 185.744 55.6629 185.533 55.8739 185.111ZM47.3256 178.251C46.1647 180.467 43.4208 181.311 41.2045 180.151C38.9883 178.99 38.144 176.246 39.3049 174.03C40.4658 171.813 43.2097 170.969 45.4259 172.13C47.6422 173.291 48.4865 176.035 47.3256 178.251Z" fill="#26374A"/>
<path d="M133.937 200.045C135.091 188.387 126.576 178 114.918 176.846C103.26 175.692 92.8735 184.206 91.7191 195.864C90.5647 207.522 99.0796 217.909 110.738 219.063C122.396 220.218 132.782 211.703 133.937 200.045Z" fill="#26374A"/>
<path d="M142.412 242.098C141.357 229.434 130.698 224.051 117.823 224.051H107.797C94.9215 224.051 84.2625 229.434 83.2071 242.098H83.1016V283.362H142.518L142.412 242.098Z" fill="#26374A"/>
<path d="M69.3805 304.154H54.5V307.426H69.3805V304.154Z" fill="#F0F0F1" stroke="#F0F0F1" stroke-width="5" stroke-miterlimit="10"/>
<path d="M51.4408 304.154V309.009C51.4408 309.853 52.1795 310.592 53.0238 310.592H71.0704C71.9146 310.592 72.6534 309.853 72.6534 309.009V304.154H120.989C120.25 309.642 115.501 313.864 109.802 313.864H14.1868C8.48784 313.864 3.73875 309.642 3 304.154H51.4408Z" fill="#F0F0F1" stroke="#F0F0F1" stroke-width="5" stroke-miterlimit="10"/>
<path d="M16.8257 300.988H11.3379V238.511C11.3379 236.295 13.132 234.395 15.4538 234.395H108.642C110.858 234.395 112.757 236.189 112.757 238.511V300.988H107.27H16.8257Z" fill="#F0F0F1" stroke="#F0F0F1" stroke-width="5" stroke-miterlimit="10"/>
<path d="M69.3805 304.154H54.5V307.426H69.3805V304.154Z" fill="#26374A"/>
<path d="M51.4408 304.154V309.009C51.4408 309.853 52.1795 310.592 53.0238 310.592H71.0704C71.9146 310.592 72.6534 309.853 72.6534 309.009V304.154H120.989C120.25 309.642 115.501 313.864 109.802 313.864H14.1868C8.48784 313.864 3.73875 309.642 3 304.154H51.4408Z" fill="#26374A"/>
<path d="M18.3037 238.405H105.581C106.426 238.405 107.165 239.144 107.165 239.988V300.988H16.8262V239.988C16.8262 239.038 17.4594 238.405 18.3037 238.405Z" fill="#B2E3FF"/>
<path d="M107.164 241.255C107.164 240.411 106.425 239.672 105.581 239.672H18.3033C17.459 239.672 16.7203 240.411 16.7203 241.255V300.988H11.2324V238.511C11.2324 236.295 13.0265 234.396 15.3483 234.396H108.536C110.752 234.396 112.652 236.19 112.652 238.511V300.988H107.164V241.255V241.255Z" fill="#26374A"/>
<path d="M60.73 254.552C60.5189 254.552 60.3078 254.552 60.0967 254.552C58.3026 254.869 57.1418 256.452 57.3528 258.246L61.2576 284.102C61.5742 285.896 63.1573 287.057 64.9514 286.846C66.7455 286.529 67.9064 284.946 67.6953 283.152L63.7905 257.296C63.5794 255.713 62.2075 254.658 60.73 254.552Z" fill="#26374A"/>
<path d="M74.1297 258.773C73.2854 258.879 72.5466 259.301 72.019 260.04C70.9636 261.412 71.1747 263.523 72.6522 264.578L80.6729 270.699L72.6522 276.82C72.7577 276.714 72.6522 276.82 72.6522 276.82C71.2802 277.875 70.9636 279.986 72.1245 281.358C73.1799 282.73 75.2906 283.047 76.6625 281.886L88.1659 273.232C88.377 273.021 88.588 272.81 88.7991 272.599C89.8545 271.227 89.5379 269.116 88.1659 268.061L76.6625 259.407C75.8182 258.879 74.974 258.668 74.1297 258.773Z" fill="#26374A"/>
<path d="M50.9128 258.773C50.0685 258.668 49.2242 258.879 48.4855 259.407L36.9821 268.061C36.771 268.272 36.56 268.483 36.3489 268.694C35.2935 270.066 35.6101 272.176 36.9821 273.232L48.4855 281.886C49.8574 282.941 51.9681 282.624 53.0235 281.253C54.0788 279.881 53.7622 277.77 52.3903 276.714L44.3696 270.593L52.3903 264.472C53.7622 263.417 54.0788 261.412 53.0235 259.934C52.4958 259.301 51.6515 258.879 50.9128 258.773Z" fill="#26374A"/>
<path d="M150.012 112.396C150.012 112.396 149.907 112.396 150.012 112.396C150.012 112.291 149.907 112.291 149.907 112.185C149.801 112.08 149.801 111.974 149.696 111.869L149.59 111.763C149.485 111.658 149.379 111.552 149.274 111.447L149.168 111.341C148.957 111.236 148.851 111.13 148.64 111.024H148.535C148.429 111.024 148.218 110.919 148.113 110.919H148.007L124.895 108.492C123.945 108.386 122.995 108.808 122.468 109.547C122.151 109.864 122.045 110.391 121.94 110.813C121.834 112.291 122.89 113.557 124.262 113.663L137.876 115.035C131.121 118.412 124.578 122.211 118.457 126.327C118.352 126.433 118.246 126.433 118.246 126.538C102.099 137.514 87.7464 151.233 76.032 167.486C75.1877 168.647 75.3987 170.335 76.6652 171.18C77.8261 172.024 79.5146 171.813 80.3589 170.546C85.5302 163.37 91.2291 156.721 97.4557 150.495C97.7723 150.178 98.1944 149.756 98.511 149.439C99.0387 148.912 99.5664 148.49 99.9885 147.962C100.2 147.751 100.516 147.54 100.727 147.329C101.36 146.695 101.994 146.168 102.627 145.535C102.732 145.429 102.944 145.323 103.049 145.218C103.788 144.585 104.527 143.846 105.265 143.213L105.371 143.107C109.487 139.519 113.919 136.036 118.352 132.87C125.528 127.805 133.232 123.161 141.253 119.256L134.182 131.393C133.443 132.659 133.865 134.242 135.132 134.981C136.398 135.72 137.981 135.298 138.72 134.031L150.118 114.613V114.507C150.223 114.402 150.223 114.191 150.329 114.085C150.329 113.979 150.329 113.979 150.434 113.874C150.434 113.768 150.54 113.557 150.54 113.452V113.346C150.54 113.135 150.54 112.924 150.434 112.713V112.608C150.118 112.713 150.118 112.608 150.012 112.396C150.012 112.396 150.012 112.502 150.012 112.396Z" fill="#26374A"/>
<path d="M482.237 177.299C482.237 177.299 482.343 177.299 482.237 177.299C482.343 177.299 482.343 177.194 482.448 177.194C482.554 177.088 482.659 177.088 482.765 176.983L482.87 176.877C482.976 176.772 483.081 176.666 483.187 176.561L483.292 176.455C483.398 176.244 483.504 176.139 483.609 175.927V175.822C483.609 175.716 483.715 175.505 483.715 175.4V175.294L486.142 152.182C486.247 151.232 485.825 150.282 485.087 149.755C484.77 149.438 484.242 149.333 483.82 149.227C482.343 149.121 481.076 150.177 480.971 151.549L479.599 165.163C476.222 158.409 472.422 151.865 468.306 145.744C468.201 145.639 468.201 145.533 468.095 145.533C457.12 129.386 443.4 115.034 427.148 103.319C425.987 102.475 424.298 102.686 423.454 103.952C422.61 105.113 422.821 106.802 424.087 107.646C431.263 112.817 437.912 118.516 444.139 124.743C444.455 125.059 444.878 125.482 445.194 125.798C445.722 126.326 446.144 126.853 446.672 127.276C446.883 127.487 447.094 127.803 447.305 128.014C447.938 128.648 448.466 129.281 449.099 129.914C449.204 130.02 449.31 130.231 449.416 130.336C450.049 131.075 450.788 131.814 451.421 132.552L451.526 132.658C455.114 136.774 458.597 141.206 461.763 145.639C466.829 152.815 471.472 160.519 475.377 168.54L463.241 161.469C461.974 160.73 460.391 161.152 459.652 162.419C458.914 163.685 459.336 165.268 460.602 166.007L480.021 177.405H480.126C480.232 177.51 480.443 177.51 480.548 177.616C480.654 177.616 480.654 177.616 480.76 177.722C480.865 177.722 481.076 177.827 481.182 177.827H481.287C481.498 177.827 481.709 177.827 481.92 177.722H482.026C481.92 177.405 482.026 177.405 482.237 177.299Z" fill="#26374A"/>
</svg>
