<svg width="367" height="240" fill="none" xmlns="http://www.w3.org/2000/svg"><g filter="url(#filter0_d)"><path d="M0 15C0 6.716 6.716 0 15 0h329c8.284 0 15 6.716 15 15v217H0V15z" fill="#fff"/><path d="M0 15C0 6.716 6.716 0 15 0h329c8.284 0 15 6.716 15 15v3H0v-3z" fill="#727272"/><g filter="url(#filter1_d)"><path fill="#00703C" d="M18 176h65v26H18z"/></g><path d="M42.876 186.746a.46.46 0 01-.12.138.255.255 0 01-.15.042c-.068 0-.148-.034-.24-.102a3.595 3.595 0 00-.348-.222 2.527 2.527 0 00-.498-.228 2.116 2.116 0 00-.702-.102c-.26 0-.49.036-.69.108a1.472 1.472 0 00-.498.282 1.18 1.18 0 00-.3.426 1.32 1.32 0 00-.102.522c0 .24.058.44.174.6.12.156.276.29.468.402.196.112.416.21.66.294.248.08.5.164.756.252.26.088.512.188.756.3.248.108.468.246.66.414.196.168.352.374.468.618.12.244.18.544.18.9 0 .376-.064.73-.192 1.062a2.428 2.428 0 01-.564.858 2.587 2.587 0 01-.906.576c-.356.14-.762.21-1.218.21-.56 0-1.068-.1-1.524-.3a3.614 3.614 0 01-1.17-.822l.336-.552a.417.417 0 01.114-.108.276.276 0 01.156-.048c.052 0 .11.022.174.066.068.04.144.092.228.156a9.5 9.5 0 00.288.21 2.44 2.44 0 00.84.372c.176.04.374.06.594.06.276 0 .522-.038.738-.114a1.56 1.56 0 00.546-.318c.152-.14.268-.306.348-.498.08-.192.12-.406.12-.642 0-.26-.06-.472-.18-.636a1.42 1.42 0 00-.462-.42 3.121 3.121 0 00-.66-.282c-.248-.08-.5-.16-.756-.24a8.636 8.636 0 01-.756-.288 2.442 2.442 0 01-.66-.42 1.973 1.973 0 01-.468-.642c-.116-.26-.174-.58-.174-.96 0-.304.058-.598.174-.882.12-.284.292-.536.516-.756.228-.22.506-.396.834-.528a3.068 3.068 0 011.14-.198c.48 0 .916.076 1.308.228a3.09 3.09 0 011.044.66l-.282.552zm5.613 4.518a8.645 8.645 0 00-1.26.12c-.344.06-.626.14-.846.24-.216.1-.374.218-.474.354a.772.772 0 00-.144.456c0 .16.026.298.078.414a.814.814 0 00.21.288.956.956 0 00.318.162c.124.032.256.048.396.048.188 0 .36-.018.516-.054.156-.04.302-.096.438-.168.14-.072.272-.158.396-.258.128-.1.252-.214.372-.342v-1.26zm-3.45-2.484a3.47 3.47 0 011.086-.726c.388-.16.818-.24 1.29-.24.34 0 .642.056.906.168.264.112.486.268.666.468.18.2.316.442.408.726.092.284.138.596.138.936V194h-.474a.49.49 0 01-.24-.048c-.056-.036-.1-.104-.132-.204l-.12-.576c-.16.148-.316.28-.468.396a2.935 2.935 0 01-.48.288 2.585 2.585 0 01-.54.174 2.77 2.77 0 01-.63.066c-.236 0-.458-.032-.666-.096a1.61 1.61 0 01-.546-.3 1.453 1.453 0 01-.366-.498 1.807 1.807 0 01-.132-.72c0-.24.066-.47.198-.69.132-.224.346-.422.642-.594.296-.172.682-.312 1.158-.42.476-.112 1.06-.176 1.752-.192v-.474c0-.472-.102-.828-.306-1.068-.204-.244-.502-.366-.894-.366-.264 0-.486.034-.666.102-.176.064-.33.138-.462.222-.128.08-.24.154-.336.222a.48.48 0 01-.276.096.319.319 0 01-.186-.054.567.567 0 01-.132-.144l-.192-.342zm11.736-.858L54.297 194h-.96l-2.478-6.078h.87a.33.33 0 01.33.222l1.542 3.912c.048.148.09.292.126.432.036.14.07.28.102.42.032-.14.066-.28.102-.42.036-.14.08-.284.132-.432l1.56-3.912a.33.33 0 01.12-.156.311.311 0 01.198-.066h.834zm5.42 2.376c0-.248-.037-.474-.109-.678a1.437 1.437 0 00-.306-.534 1.292 1.292 0 00-.486-.348 1.616 1.616 0 00-.654-.126c-.512 0-.918.15-1.218.45-.296.296-.48.708-.552 1.236h3.324zm.863 2.85c-.132.16-.29.3-.474.42a3.022 3.022 0 01-.594.288 3.503 3.503 0 01-.648.168c-.224.04-.446.06-.666.06-.42 0-.808-.07-1.164-.21a2.636 2.636 0 01-.918-.624 2.919 2.919 0 01-.6-1.02 4.135 4.135 0 01-.216-1.392c0-.424.064-.82.192-1.188.132-.368.32-.686.564-.954.244-.272.542-.484.894-.636a2.902 2.902 0 011.188-.234c.364 0 .7.062 1.008.186.312.12.58.296.804.528.228.228.406.512.534.852.128.336.192.72.192 1.152 0 .168-.018.28-.054.336-.036.056-.104.084-.204.084h-4.062c.012.384.064.718.156 1.002.096.284.228.522.396.714.168.188.368.33.6.426a2.1 2.1 0 00.78.138c.268 0 .498-.03.69-.09a3.456 3.456 0 00.852-.402.47.47 0 01.246-.096c.088 0 .156.034.204.102l.3.39z" fill="#fff"/><path stroke="#BBBDBF" d="M21.5 80.5h221v79h-221z"/><path stroke="#FD0" stroke-width="2" d="M19 78h226v84H19z"/><rect x="49" y="88" width="69" height="12" rx="4" fill="#FD0"/><rect x="49" y="88" width="69" height="12" rx="4" fill="#FD0"/><rect x="95" y="139" width="34" height="12" rx="4" fill="#FD0"/><rect x="32" y="139" width="34" height="12" rx="4" fill="#FD0"/><path d="M32.892 35.666V48h-2.253v-7.574c0-.158.003-.328.009-.51.011-.18.028-.365.051-.552l-3.527 6.69c-.193.368-.49.552-.893.552h-.357c-.198 0-.374-.045-.527-.136a1.013 1.013 0 01-.366-.416l-3.544-6.715c.017.198.031.39.043.578.01.18.017.35.017.51V48h-2.253V35.666h1.938c.108 0 .204.003.289.009a.635.635 0 01.221.051.414.414 0 01.179.119c.056.051.11.125.161.221l3.451 6.579c.108.198.207.402.297.612.097.21.188.425.273.646.085-.227.172-.448.263-.663.096-.215.198-.422.306-.62l3.425-6.554a.797.797 0 01.162-.221.493.493 0 01.178-.119.702.702 0 01.222-.051c.084-.006.184-.008.297-.008h1.938zm8.076 6.92c0-.244-.034-.477-.102-.697a1.57 1.57 0 00-.306-.587 1.462 1.462 0 00-.535-.4 1.794 1.794 0 00-.774-.153c-.561 0-1 .16-1.317.476-.318.318-.525.771-.621 1.36h3.655zm-3.689 1.394c.074.821.306 1.422.697 1.802.397.38.912.569 1.547.569.323 0 .6-.037.833-.11.238-.08.445-.165.62-.255.182-.097.343-.182.485-.255a.91.91 0 01.434-.12c.18 0 .322.069.424.205l.68.85c-.249.289-.524.53-.824.722-.3.187-.612.337-.935.45a4.966 4.966 0 01-.977.221 6.975 6.975 0 01-.953.069c-.611 0-1.184-.1-1.717-.298a4.018 4.018 0 01-1.385-.892 4.26 4.26 0 01-.926-1.471c-.227-.584-.34-1.26-.34-2.032 0-.595.096-1.156.288-1.683a4.08 4.08 0 01.85-1.377c.369-.39.817-.7 1.343-.926.527-.232 1.122-.349 1.785-.349.562 0 1.077.091 1.547.273.476.175.884.433 1.224.773.346.34.613.76.8 1.258.192.493.288 1.057.288 1.691 0 .176-.008.32-.025.434a.77.77 0 01-.085.272.332.332 0 01-.162.145.849.849 0 01-.263.034h-5.253zm13.228-2.941a.72.72 0 01-.195.212.49.49 0 01-.264.06.807.807 0 01-.348-.086 9.9 9.9 0 00-.4-.178 3.753 3.753 0 00-.51-.187 2.263 2.263 0 00-.654-.085c-.38 0-.674.08-.884.238a.72.72 0 00-.315.612.6.6 0 00.179.442c.119.119.275.224.468.315.198.085.422.167.671.246.25.074.504.156.765.246.266.091.524.196.773.315.25.119.47.27.663.45.199.176.357.392.476.646.12.25.179.553.179.91 0 .425-.08.819-.238 1.181-.153.358-.38.666-.68.927-.3.26-.674.465-1.122.612-.448.147-.963.221-1.547.221-.3 0-.598-.028-.892-.085a4.953 4.953 0 01-.842-.221 5.673 5.673 0 01-.748-.349 3.338 3.338 0 01-.604-.425l.544-.875a.711.711 0 01.23-.238.711.711 0 01.365-.085c.142 0 .273.037.392.11l.399.23c.147.08.32.156.518.23.204.068.457.102.757.102.227 0 .422-.026.587-.077a1.15 1.15 0 00.399-.204.833.833 0 00.221-.297.84.84 0 00.076-.349.617.617 0 00-.187-.468 1.526 1.526 0 00-.475-.322 4.55 4.55 0 00-.672-.247 17.484 17.484 0 01-.782-.247 6.983 6.983 0 01-.774-.323 2.793 2.793 0 01-.671-.467 2.34 2.34 0 01-.476-.706c-.119-.277-.178-.614-.178-1.011 0-.363.07-.706.212-1.029.142-.328.354-.617.637-.867a3.16 3.16 0 011.054-.594c.425-.148.916-.222 1.471-.222.623 0 1.19.102 1.7.306.51.205.93.47 1.258.8l-.535.832zm8.057 0a.72.72 0 01-.196.212.49.49 0 01-.263.06.807.807 0 01-.349-.086 9.9 9.9 0 00-.4-.178 3.743 3.743 0 00-.51-.187 2.263 2.263 0 00-.654-.085c-.38 0-.674.08-.884.238a.72.72 0 00-.314.612.6.6 0 00.178.442c.12.119.275.224.468.315.198.085.422.167.671.246.25.074.505.156.765.246.267.091.524.196.774.315.249.119.47.27.663.45.198.176.357.392.476.646.119.25.178.553.178.91 0 .425-.08.819-.238 1.181-.153.358-.38.666-.68.927-.3.26-.674.465-1.122.612-.448.147-.963.221-1.547.221-.3 0-.598-.028-.892-.085a4.953 4.953 0 01-.842-.221 5.679 5.679 0 01-.748-.349 3.342 3.342 0 01-.603-.425l.544-.875a.711.711 0 01.23-.238.712.712 0 01.365-.085c.141 0 .272.037.39.11l.4.23c.148.08.32.156.519.23.204.068.456.102.756.102.227 0 .422-.026.587-.077a1.15 1.15 0 00.4-.204.832.832 0 00.22-.297.84.84 0 00.077-.349.617.617 0 00-.187-.468 1.526 1.526 0 00-.476-.322 4.55 4.55 0 00-.672-.247 17.484 17.484 0 01-.782-.247 6.983 6.983 0 01-.773-.323 2.795 2.795 0 01-.672-.467 2.341 2.341 0 01-.476-.706c-.119-.277-.178-.614-.178-1.011 0-.363.07-.706.212-1.029.142-.328.354-.617.638-.867a3.16 3.16 0 011.054-.594c.425-.148.915-.222 1.47-.222.623 0 1.19.102 1.7.306.51.205.93.47 1.258.8l-.535.832zm7.189 3.297c-.572.029-1.048.08-1.428.154-.38.067-.683.158-.91.271-.22.114-.38.244-.476.392a.85.85 0 00-.136.467c0 .34.094.58.28.723.194.141.46.212.8.212.39 0 .728-.068 1.011-.204.29-.142.576-.36.859-.654v-1.36zm-4.777-3.884a5.183 5.183 0 011.708-1.037 5.748 5.748 0 012.023-.349c.522 0 .986.085 1.394.255.414.17.763.409 1.046.715.289.3.51.66.663 1.079.153.42.23.878.23 1.377V48h-1.072c-.22 0-.39-.031-.51-.093-.113-.063-.206-.193-.28-.391l-.187-.561a7.883 7.883 0 01-.646.51 3.828 3.828 0 01-.638.373 3.5 3.5 0 01-.714.221c-.249.052-.53.077-.841.077-.385 0-.737-.051-1.054-.153a2.372 2.372 0 01-.825-.45 2.069 2.069 0 01-.527-.757 2.688 2.688 0 01-.187-1.037c0-.323.083-.646.247-.969.164-.323.445-.615.841-.876.403-.266.935-.484 1.598-.654.67-.176 1.505-.275 2.508-.297v-.451c0-.55-.116-.952-.349-1.207-.232-.26-.566-.391-1.003-.391-.323 0-.592.04-.807.119a3.582 3.582 0 00-.57.247 28.23 28.23 0 00-.45.246c-.142.074-.306.11-.493.11a.709.709 0 01-.417-.118 1.236 1.236 0 01-.272-.298l-.416-.748zm12.694 2.839c.482 0 .836-.122 1.063-.365.232-.244.348-.559.348-.944 0-.402-.116-.717-.348-.944-.227-.232-.581-.348-1.063-.348-.481 0-.835.116-1.062.349-.227.226-.34.54-.34.943 0 .38.113.694.34.944.232.243.586.365 1.062.365zm2.219 5.066a.506.506 0 00-.145-.374 1.009 1.009 0 00-.39-.23 2.448 2.448 0 00-.57-.118 8.646 8.646 0 00-.706-.06c-.249-.017-.507-.031-.773-.043a11.51 11.51 0 01-.782-.059c-.198.119-.363.26-.493.425a.856.856 0 00-.187.544c0 .142.031.272.093.391a.833.833 0 00.332.306c.153.085.354.15.603.195.25.051.561.077.935.077a5.3 5.3 0 00.978-.077c.266-.05.481-.124.646-.22a.826.826 0 00.348-.332.85.85 0 00.11-.425zm2.329-8.831v.858c0 .136-.04.244-.12.323-.073.08-.198.139-.373.178l-.714.145c.096.278.144.575.144.892 0 .437-.09.83-.272 1.182a2.7 2.7 0 01-.73.892c-.312.244-.68.434-1.106.57-.425.13-.884.195-1.377.195a4.75 4.75 0 01-.875-.076c-.238.147-.357.309-.357.484 0 .165.08.284.238.358.164.073.377.127.637.161.267.028.567.048.901.06.34.005.683.022 1.029.05.351.029.694.08 1.028.154.34.068.64.184.901.348.267.159.48.371.638.638.164.266.246.609.246 1.028 0 .391-.096.77-.289 1.139a3.059 3.059 0 01-.841.986c-.363.289-.81.521-1.343.697-.533.176-1.14.264-1.82.264-.674 0-1.26-.066-1.759-.196-.493-.125-.904-.295-1.232-.51a2.163 2.163 0 01-.723-.731 1.724 1.724 0 01-.238-.867c0-.391.12-.722.357-.994.238-.273.567-.49.986-.655a1.578 1.578 0 01-.535-.484c-.13-.205-.196-.468-.196-.791 0-.26.094-.535.28-.825.194-.288.488-.53.885-.722a2.836 2.836 0 01-1.063-.952c-.26-.402-.39-.87-.39-1.403 0-.436.087-.83.263-1.181.181-.351.43-.649.748-.892.317-.25.691-.44 1.122-.57.43-.13.898-.196 1.402-.196.748 0 1.409.148 1.98.443h2.568zm7.148 3.06c0-.244-.034-.477-.102-.697a1.57 1.57 0 00-.306-.587 1.462 1.462 0 00-.535-.4 1.794 1.794 0 00-.774-.153c-.56 0-1 .16-1.317.476-.317.318-.524.771-.62 1.36h3.654zm-3.689 1.394c.074.821.306 1.422.697 1.802.397.38.913.569 1.547.569.323 0 .601-.037.833-.11.238-.08.445-.165.62-.255.182-.097.344-.182.485-.255a.91.91 0 01.434-.12c.181 0 .323.069.425.205l.68.85c-.25.289-.524.53-.825.722-.3.187-.612.337-.935.45a4.966 4.966 0 01-.977.221 6.975 6.975 0 01-.952.069c-.612 0-1.184-.1-1.717-.298a4.018 4.018 0 01-1.386-.892 4.26 4.26 0 01-.926-1.471c-.227-.584-.34-1.26-.34-2.032 0-.595.096-1.156.289-1.683a4.08 4.08 0 01.85-1.377c.368-.39.816-.7 1.343-.926.527-.232 1.122-.349 1.785-.349.56 0 1.076.091 1.547.273.476.175.884.433 1.224.773.346.34.612.76.799 1.258.192.493.289 1.057.289 1.691 0 .176-.009.32-.026.434a.77.77 0 01-.085.272.332.332 0 01-.161.145.849.849 0 01-.264.034h-5.253zm15.376 4.156c-.397 0-.748-.057-1.054-.17a2.15 2.15 0 01-.773-.502 2.103 2.103 0 01-.476-.782 3.111 3.111 0 01-.162-1.037V40.92h-.824a.474.474 0 01-.323-.118c-.085-.08-.128-.199-.128-.358v-.917l1.403-.256.476-2.269c.062-.255.235-.383.518-.383h1.224v2.67h2.261v1.632h-2.26v4.572c0 .244.056.437.17.579.118.141.285.212.5.212.114 0 .21-.011.29-.034.079-.028.147-.057.204-.085.056-.034.107-.062.153-.085a.313.313 0 01.153-.043c.068 0 .124.017.17.051.045.029.09.08.136.153l.705 1.122a3.443 3.443 0 01-1.096.578c-.408.13-.83.196-1.267.196zm9.411-5.55c0-.244-.034-.477-.102-.697a1.59 1.59 0 00-.306-.587 1.46 1.46 0 00-.536-.4 1.791 1.791 0 00-.773-.153c-.561 0-1 .16-1.318.476-.317.318-.524.771-.62 1.36h3.655zm-3.689 1.394c.073.821.306 1.422.697 1.802.396.38.912.569 1.547.569.323 0 .6-.037.833-.11.238-.08.445-.165.62-.255.182-.097.343-.182.485-.255a.91.91 0 01.433-.12.5.5 0 01.425.205l.68.85c-.249.289-.524.53-.824.722a4.742 4.742 0 01-.935.45 4.966 4.966 0 01-.978.221 6.967 6.967 0 01-.952.069c-.612 0-1.184-.1-1.717-.298a4.01 4.01 0 01-1.385-.892 4.265 4.265 0 01-.927-1.471c-.226-.584-.34-1.26-.34-2.032 0-.595.097-1.156.289-1.683.199-.527.482-.986.85-1.377.369-.39.816-.7 1.343-.926.527-.232 1.122-.349 1.785-.349.561 0 1.077.091 1.547.273.476.175.884.433 1.224.773.346.34.612.76.799 1.258.193.493.289 1.057.289 1.691 0 .176-.008.32-.025.434a.784.784 0 01-.085.272.334.334 0 01-.162.145.849.849 0 01-.263.034h-5.253zm7.78 4.02v-8.764H112c.294 0 .49.137.586.409l.136.569a6.7 6.7 0 01.468-.442c.164-.136.34-.252.527-.349.187-.102.388-.18.603-.238.221-.056.459-.085.714-.085.538 0 .983.145 1.335.434.351.283.617.663.799 1.139.141-.278.314-.516.518-.714a2.81 2.81 0 01.68-.493c.249-.125.51-.215.782-.272.278-.062.555-.094.833-.094.493 0 .929.074 1.309.221.38.148.697.366.952.655.261.283.459.632.595 1.046.136.413.204.884.204 1.41V48h-2.346v-5.568c0-1.025-.439-1.538-1.317-1.538-.199 0-.383.034-.553.102a1.245 1.245 0 00-.442.289c-.125.13-.224.292-.297.485a1.988 1.988 0 00-.102.662V48h-2.346v-5.568c0-.555-.111-.949-.332-1.181-.215-.238-.535-.357-.96-.357-.272 0-.53.065-.774.196-.238.124-.462.3-.671.526V48h-2.346zm17.225-2.312c.221.255.459.433.714.535.261.102.538.154.833.154.283 0 .541-.054.774-.162.232-.108.43-.275.595-.502.17-.232.3-.526.391-.883.09-.358.136-.782.136-1.276 0-.487-.04-.9-.119-1.24-.074-.34-.182-.615-.323-.825a1.19 1.19 0 00-.502-.45 1.496 1.496 0 00-.663-.145c-.414 0-.762.082-1.045.247a2.821 2.821 0 00-.791.705v3.842zm-.136-5.304c.176-.193.363-.368.561-.527.198-.164.411-.303.638-.416.226-.12.47-.21.731-.273.26-.068.544-.102.85-.102.47 0 .901.102 1.292.306.396.199.736.49 1.02.876.283.38.504.847.663 1.403.158.555.238 1.19.238 1.903 0 .658-.091 1.267-.272 1.828a4.386 4.386 0 01-.757 1.445 3.55 3.55 0 01-1.19.96c-.459.227-.972.34-1.538.34-.476 0-.882-.07-1.216-.212a3.056 3.056 0 01-.884-.578v3.493h-2.346V39.237h1.445c.295 0 .49.136.587.407l.178.74zm10.401-5.057V48h-2.346V35.327h2.346zm7.07 9.01c-.572.028-1.048.079-1.428.152-.379.069-.682.16-.909.273-.221.113-.38.243-.476.39a.847.847 0 00-.136.468c0 .34.093.58.28.723.193.141.459.212.799.212.391 0 .729-.068 1.012-.204a3.11 3.11 0 00.858-.654v-1.36zm-4.777-3.885a5.191 5.191 0 011.709-1.037 5.748 5.748 0 012.023-.349c.521 0 .986.085 1.394.255.414.17.762.409 1.045.715.289.3.51.66.663 1.079.153.42.23.878.23 1.377V48h-1.071c-.221 0-.391-.031-.51-.093-.113-.063-.207-.193-.281-.391l-.187-.561a7.832 7.832 0 01-.646.51 3.824 3.824 0 01-.637.373 3.5 3.5 0 01-.714.221c-.249.052-.53.077-.842.077-.385 0-.736-.051-1.054-.153a2.369 2.369 0 01-.824-.45 2.068 2.068 0 01-.527-.757 2.68 2.68 0 01-.187-1.037c0-.323.082-.646.246-.969.165-.323.445-.615.842-.876.402-.266.935-.484 1.598-.654.669-.176 1.504-.275 2.507-.297v-.451c0-.55-.116-.952-.348-1.207-.232-.26-.567-.391-1.003-.391-.323 0-.592.04-.808.119a3.571 3.571 0 00-.569.247c-.159.084-.309.167-.451.246-.141.074-.306.11-.493.11a.707.707 0 01-.416-.118 1.234 1.234 0 01-.272-.298l-.417-.748zm12.324 7.684c-.397 0-.748-.057-1.054-.17a2.155 2.155 0 01-.774-.502 2.118 2.118 0 01-.476-.782 3.13 3.13 0 01-.161-1.037V40.92h-.825a.476.476 0 01-.323-.118c-.085-.08-.127-.199-.127-.358v-.917l1.402-.256.476-2.269c.063-.255.236-.383.519-.383h1.224v2.67h2.261v1.632h-2.261v4.572c0 .244.057.437.17.579.119.141.286.212.501.212.114 0 .21-.011.289-.034.08-.028.148-.057.204-.085a2.51 2.51 0 01.153-.085.313.313 0 01.153-.043c.068 0 .125.017.17.051.046.029.091.08.136.153l.706 1.122a3.446 3.446 0 01-1.097.578c-.408.13-.83.196-1.266.196zm9.411-5.55c0-.244-.034-.477-.102-.697a1.59 1.59 0 00-.306-.587 1.47 1.47 0 00-.536-.4 1.791 1.791 0 00-.773-.153c-.561 0-1.001.16-1.318.476-.317.318-.524.771-.62 1.36h3.655zm-3.689 1.394c.073.821.306 1.422.697 1.802.396.38.912.569 1.547.569.323 0 .6-.037.833-.11a4.38 4.38 0 00.62-.255c.181-.097.343-.182.485-.255a.907.907 0 01.433-.12c.181 0 .323.069.425.205l.68.85c-.249.289-.524.53-.824.722a4.742 4.742 0 01-.935.45 4.966 4.966 0 01-.978.221 6.978 6.978 0 01-.952.069c-.612 0-1.184-.1-1.717-.298a4.01 4.01 0 01-1.385-.892 4.265 4.265 0 01-.927-1.471c-.227-.584-.34-1.26-.34-2.032 0-.595.096-1.156.289-1.683a4.08 4.08 0 01.85-1.377c.368-.39.816-.7 1.343-.926.527-.232 1.122-.349 1.785-.349.561 0 1.077.091 1.547.273.476.175.884.433 1.224.773.346.34.612.76.799 1.258.193.493.289 1.057.289 1.691 0 .176-.008.32-.025.434a.784.784 0 01-.085.272.334.334 0 01-.162.145.849.849 0 01-.263.034h-5.253zM22.944 72l-2.82-7.512h-.048c.024.248.044.584.06 1.008.016.416.024.852.024 1.308V72h-.996v-8.568h1.596l2.64 7.02h.048l2.688-7.02h1.584V72h-1.068v-5.268c0-.416.008-.828.024-1.236l.06-.996h-.048L23.832 72h-.888zm9.982-6.552c.552 0 1.024.12 1.416.36.4.24.704.58.912 1.02.216.432.324.94.324 1.524v.636h-4.404c.016.728.2 1.284.552 1.668.36.376.86.564 1.5.564.408 0 .768-.036 1.08-.108.32-.08.648-.192.984-.336v.924a4.723 4.723 0 01-.972.312c-.32.072-.7.108-1.14.108-.608 0-1.148-.124-1.62-.372a2.642 2.642 0 01-1.092-1.104c-.256-.496-.384-1.1-.384-1.812 0-.704.116-1.308.348-1.812.24-.504.572-.892.996-1.164.432-.272.932-.408 1.5-.408zm-.012.864c-.504 0-.904.164-1.2.492-.288.32-.46.768-.516 1.344h3.276c-.008-.544-.136-.984-.384-1.32-.248-.344-.64-.516-1.176-.516zm9.026 3.912c0 .624-.232 1.096-.696 1.416-.464.32-1.088.48-1.872.48a5.49 5.49 0 01-1.164-.108 3.553 3.553 0 01-.852-.3v-.96c.256.128.564.248.924.36.368.104.74.156 1.116.156.536 0 .924-.084 1.164-.252a.823.823 0 00.36-.696.745.745 0 00-.132-.432c-.088-.128-.248-.256-.48-.384a7.127 7.127 0 00-.972-.432 9.254 9.254 0 01-1.068-.48 1.972 1.972 0 01-.684-.576c-.16-.224-.24-.512-.24-.864 0-.544.22-.964.66-1.26.448-.296 1.032-.444 1.752-.444.392 0 .756.04 1.092.12a4.5 4.5 0 01.96.312l-.36.84a7.101 7.101 0 00-.852-.288 3.48 3.48 0 00-.912-.12c-.432 0-.764.072-.996.216-.224.136-.336.324-.336.564a.7.7 0 00.156.456c.104.12.276.24.516.36.248.112.576.248.984.408.408.152.756.308 1.044.468.288.16.508.356.66.588.152.224.228.508.228.852zm6.278 0c0 .624-.233 1.096-.697 1.416-.464.32-1.087.48-1.871.48a5.49 5.49 0 01-1.164-.108 3.553 3.553 0 01-.852-.3v-.96c.255.128.563.248.923.36.368.104.74.156 1.116.156.536 0 .924-.084 1.164-.252a.823.823 0 00.36-.696.745.745 0 00-.132-.432c-.087-.128-.247-.256-.48-.384a7.127 7.127 0 00-.971-.432 9.254 9.254 0 01-1.069-.48 1.972 1.972 0 01-.684-.576c-.16-.224-.24-.512-.24-.864 0-.544.22-.964.66-1.26.449-.296 1.032-.444 1.752-.444.392 0 .756.04 1.093.12a4.5 4.5 0 01.96.312l-.36.84a7.101 7.101 0 00-.852-.288 3.48 3.48 0 00-.913-.12c-.431 0-.764.072-.995.216-.224.136-.337.324-.337.564a.7.7 0 00.157.456c.103.12.276.24.515.36.248.112.576.248.984.408.409.152.757.308 1.045.468.288.16.508.356.66.588.151.224.227.508.227.852zm4.525-4.764c.784 0 1.364.172 1.74.516.376.344.564.892.564 1.644V72h-.768l-.204-.912h-.048c-.28.352-.576.612-.888.78-.304.168-.728.252-1.272.252-.584 0-1.068-.152-1.452-.456-.384-.312-.576-.796-.576-1.452 0-.64.252-1.132.756-1.476.504-.352 1.28-.544 2.328-.576l1.092-.036v-.384c0-.536-.116-.908-.348-1.116-.232-.208-.56-.312-.984-.312-.336 0-.656.052-.96.156a6.297 6.297 0 00-.852.336l-.324-.792c.28-.152.612-.28.996-.384a4.264 4.264 0 011.2-.168zm1.26 3.396l-.948.036c-.8.032-1.356.16-1.668.384-.304.224-.456.54-.456.948 0 .36.108.624.324.792.224.168.508.252.852.252.544 0 .996-.148 1.356-.444.36-.304.54-.768.54-1.392v-.576zm5.847-3.408c.424 0 .804.08 1.14.24.344.16.636.404.876.732h.06l.144-.852h.84v6.54c0 .92-.236 1.612-.708 2.076-.464.464-1.188.696-2.172.696-.944 0-1.716-.136-2.316-.408V73.5c.632.336 1.424.504 2.376.504.552 0 .984-.164 1.296-.492.32-.32.48-.76.48-1.32v-.252c0-.096.004-.232.012-.408.008-.184.016-.312.024-.384h-.048c-.432.648-1.096.972-1.992.972-.832 0-1.484-.292-1.956-.876-.464-.584-.696-1.4-.696-2.448 0-1.024.232-1.836.696-2.436.472-.608 1.12-.912 1.944-.912zm.144.888c-.536 0-.952.216-1.248.648-.296.424-.444 1.032-.444 1.824s.144 1.4.432 1.824c.296.416.724.624 1.284.624.648 0 1.12-.172 1.416-.516.296-.352.444-.916.444-1.692v-.252c0-.88-.152-1.508-.456-1.884-.304-.384-.78-.576-1.428-.576zm7.978-.888c.552 0 1.024.12 1.416.36.4.24.704.58.912 1.02.216.432.324.94.324 1.524v.636H66.22c.016.728.2 1.284.552 1.668.36.376.86.564 1.5.564.408 0 .768-.036 1.08-.108.32-.08.648-.192.984-.336v.924a4.723 4.723 0 01-.972.312c-.32.072-.7.108-1.14.108-.608 0-1.148-.124-1.62-.372a2.642 2.642 0 01-1.092-1.104c-.256-.496-.384-1.1-.384-1.812 0-.704.116-1.308.348-1.812.24-.504.572-.892.996-1.164.432-.272.932-.408 1.5-.408zm-.012.864c-.504 0-.904.164-1.2.492-.288.32-.46.768-.516 1.344h3.276c-.008-.544-.136-.984-.384-1.32-.248-.344-.64-.516-1.176-.516zM34.716 97h-1.08v-3.996h-4.392V97h-1.08v-8.568h1.08v3.624h4.392v-3.624h1.08V97zm3.274-8.844c.16 0 .3.056.42.168.128.104.192.272.192.504 0 .224-.064.392-.192.504a.596.596 0 01-.42.168.626.626 0 01-.444-.168c-.12-.112-.18-.28-.18-.504 0-.232.06-.4.18-.504a.626.626 0 01.444-.168zm.516 2.412V97H37.45v-6.432h1.056zm5.687 3.144c0-.976.14-1.916.42-2.82a7.167 7.167 0 011.344-2.46h.996a8.396 8.396 0 00-1.272 2.484 9.356 9.356 0 00-.42 2.784c0 .928.14 1.84.42 2.736a8.63 8.63 0 001.26 2.46h-.984a6.85 6.85 0 01-1.344-2.388 9.319 9.319 0 01-.42-2.796zm4.133 0c0-.976.14-1.916.42-2.82a7.167 7.167 0 011.344-2.46h.996a8.396 8.396 0 00-1.272 2.484 9.356 9.356 0 00-.42 2.784c0 .928.14 1.84.42 2.736a8.63 8.63 0 001.26 2.46h-.984a6.85 6.85 0 01-1.344-2.388 9.319 9.319 0 01-.42-2.796zm7.637-2.328h-1.62V97h-1.056v-5.616H52.16v-.492l1.128-.36v-.372c0-.832.184-1.428.552-1.788.368-.368.88-.552 1.536-.552.256 0 .488.024.696.072.216.04.4.088.552.144l-.276.828a6.732 6.732 0 00-.444-.12 2.22 2.22 0 00-.516-.06c-.352 0-.616.12-.792.36-.168.232-.252.6-.252 1.104v.42h1.62v.816zm2.237-3.228c.16 0 .3.056.42.168.128.104.192.272.192.504 0 .224-.064.392-.192.504a.596.596 0 01-.42.168.626.626 0 01-.444-.168c-.12-.112-.18-.28-.18-.504 0-.232.06-.4.18-.504a.626.626 0 01.444-.168zm.516 2.412V97H57.66v-6.432h1.056zm5.574-.12c.12 0 .247.008.383.024.144.008.269.024.373.048l-.133.972a3.47 3.47 0 00-.695-.084c-.329 0-.637.092-.925.276-.288.176-.52.428-.696.756-.168.32-.252.696-.252 1.128V97H61.29v-6.432h.864l.12 1.176h.048c.209-.352.477-.656.805-.912a1.836 1.836 0 011.164-.384zm6.68 4.776c0 .624-.232 1.096-.696 1.416-.464.32-1.088.48-1.872.48a5.49 5.49 0 01-1.164-.108 3.553 3.553 0 01-.852-.3v-.96c.256.128.564.248.924.36.368.104.74.156 1.116.156.536 0 .924-.084 1.164-.252a.823.823 0 00.36-.696.745.745 0 00-.132-.432c-.088-.128-.248-.256-.48-.384a7.127 7.127 0 00-.972-.432 9.254 9.254 0 01-1.068-.48 1.972 1.972 0 01-.684-.576c-.16-.224-.24-.512-.24-.864 0-.544.22-.964.66-1.26.448-.296 1.032-.444 1.752-.444.392 0 .756.04 1.092.12a4.5 4.5 0 01.96.312l-.36.84a7.101 7.101 0 00-.852-.288 3.48 3.48 0 00-.912-.12c-.432 0-.764.072-.996.216-.224.136-.336.324-.336.564a.7.7 0 00.156.456c.104.12.276.24.516.36.248.112.576.248.984.408.408.152.756.308 1.044.468.288.16.508.356.66.588.152.224.228.508.228.852zm4.238 1.032c.16 0 .324-.012.492-.036.168-.032.304-.064.408-.096v.804a1.68 1.68 0 01-.48.132c-.208.04-.408.06-.6.06a2.56 2.56 0 01-.936-.168 1.479 1.479 0 01-.684-.612c-.176-.288-.264-.692-.264-1.212v-3.744h-.912v-.504l.924-.42.42-1.368h.624v1.476h1.86v.816H74.2v3.72c0 .392.092.684.276.876.192.184.436.276.732.276zm9.473-5.808c.768 0 1.348.188 1.74.564.392.368.588.968.588 1.8V97h-1.044v-4.116c0-1.032-.48-1.548-1.44-1.548-.712 0-1.204.2-1.476.6-.272.4-.408.976-.408 1.728V97h-1.056v-6.432h.852l.156.876h.06c.208-.336.496-.584.864-.744a2.77 2.77 0 011.164-.252zm7.293.012c.784 0 1.364.172 1.74.516.376.344.564.892.564 1.644V97h-.768l-.204-.912h-.048c-.28.352-.576.612-.888.78-.304.168-.728.252-1.272.252-.584 0-1.068-.152-1.452-.456-.384-.312-.576-.796-.576-1.452 0-.64.252-1.132.756-1.476.504-.352 1.28-.544 2.328-.576l1.092-.036v-.384c0-.536-.116-.908-.348-1.116-.232-.208-.56-.312-.984-.312-.336 0-.656.052-.96.156a6.297 6.297 0 00-.852.336l-.324-.792c.28-.152.612-.28.996-.384a4.264 4.264 0 011.2-.168zm1.26 3.396l-.948.036c-.8.032-1.356.16-1.668.384-.304.224-.456.54-.456.948 0 .36.108.624.324.792.224.168.508.252.852.252.544 0 .996-.148 1.356-.444.36-.304.54-.768.54-1.392v-.576zm10.623-3.408c.728 0 1.272.188 1.632.564.36.368.54.968.54 1.8V97h-1.044v-4.14c0-1.016-.436-1.524-1.308-1.524-.624 0-1.072.18-1.344.54-.264.36-.396.884-.396 1.572V97h-1.044v-4.14c0-1.016-.44-1.524-1.32-1.524-.648 0-1.096.2-1.344.6-.248.4-.372.976-.372 1.728V97H96.8v-6.432h.852l.156.876h.06c.2-.336.468-.584.804-.744a2.457 2.457 0 011.092-.252c1.008 0 1.664.36 1.968 1.08h.06c.216-.368.508-.64.876-.816a2.77 2.77 0 011.188-.264zm7.178 0c.552 0 1.024.12 1.416.36.4.24.704.58.912 1.02.216.432.324.94.324 1.524v.636h-4.404c.016.728.2 1.284.552 1.668.36.376.86.564 1.5.564.408 0 .768-.036 1.08-.108.32-.08.648-.192.984-.336v.924a4.723 4.723 0 01-.972.312c-.32.072-.7.108-1.14.108-.608 0-1.148-.124-1.62-.372a2.642 2.642 0 01-1.092-1.104c-.256-.496-.384-1.1-.384-1.812 0-.704.116-1.308.348-1.812.24-.504.572-.892.996-1.164.432-.272.932-.408 1.5-.408zm-.012.864c-.504 0-.904.164-1.2.492-.288.32-.46.768-.516 1.344h3.276c-.008-.544-.136-.984-.384-1.32-.248-.344-.64-.516-1.176-.516zm6.937 2.4c0 .968-.144 1.9-.432 2.796a6.697 6.697 0 01-1.332 2.388h-.984a8.398 8.398 0 001.248-2.46 8.89 8.89 0 00.432-2.736c0-.952-.144-1.88-.432-2.784a8.18 8.18 0 00-1.26-2.484h.996a7.007 7.007 0 011.332 2.46c.288.904.432 1.844.432 2.82zm4.134 0c0 .968-.144 1.9-.432 2.796a6.697 6.697 0 01-1.332 2.388h-.984a8.398 8.398 0 001.248-2.46 8.89 8.89 0 00.432-2.736c0-.952-.144-1.88-.432-2.784a8.18 8.18 0 00-1.26-2.484h.996a7.007 7.007 0 011.332 2.46c.288.904.432 1.844.432 2.82zm3.233 1.896l.084.132c-.104.424-.256.888-.456 1.392-.192.512-.384.984-.576 1.416h-.78c.112-.456.224-.956.336-1.5.12-.544.208-1.024.264-1.44h1.128zM30.876 114h-1.08v-7.62H27.12v-.948h6.42v.948h-2.664V114zm5.404-9.12v2.676c0 .32-.02.62-.06.9h.072a1.99 1.99 0 01.84-.744c.36-.168.748-.252 1.164-.252.784 0 1.372.188 1.764.564.392.368.588.964.588 1.788V114h-1.044v-4.116c0-1.032-.48-1.548-1.44-1.548-.72 0-1.216.204-1.488.612-.264.4-.396.976-.396 1.728V114h-1.056v-9.12h1.056zm7.437.276c.16 0 .3.056.42.168.128.104.192.272.192.504 0 .224-.064.392-.192.504a.596.596 0 01-.42.168.626.626 0 01-.444-.168c-.12-.112-.18-.28-.18-.504 0-.232.06-.4.18-.504a.626.626 0 01.444-.168zm.516 2.412V114h-1.056v-6.432h1.056zm6.762 4.656c0 .624-.232 1.096-.696 1.416-.464.32-1.088.48-1.872.48a5.49 5.49 0 01-1.164-.108 3.553 3.553 0 01-.852-.3v-.96c.256.128.564.248.924.36.368.104.74.156 1.116.156.536 0 .924-.084 1.164-.252a.823.823 0 00.36-.696.745.745 0 00-.132-.432c-.088-.128-.248-.256-.48-.384a7.127 7.127 0 00-.972-.432 9.254 9.254 0 01-1.068-.48 1.972 1.972 0 01-.684-.576c-.16-.224-.24-.512-.24-.864 0-.544.22-.964.66-1.26.448-.296 1.032-.444 1.752-.444.392 0 .756.04 1.092.12a4.5 4.5 0 01.96.312l-.36.84a7.101 7.101 0 00-.852-.288 3.48 3.48 0 00-.912-.12c-.432 0-.764.072-.996.216-.224.136-.336.324-.336.564a.7.7 0 00.156.456c.104.12.276.24.516.36.248.112.576.248.984.408.408.152.756.308 1.044.468.288.16.508.356.66.588.152.224.228.508.228.852zm6.283-7.068c.16 0 .3.056.42.168.128.104.192.272.192.504 0 .224-.064.392-.192.504a.596.596 0 01-.42.168.626.626 0 01-.444-.168c-.12-.112-.18-.28-.18-.504 0-.232.06-.4.18-.504a.626.626 0 01.444-.168zm.516 2.412V114h-1.056v-6.432h1.056zm6.761 4.656c0 .624-.232 1.096-.696 1.416-.464.32-1.088.48-1.872.48a5.49 5.49 0 01-1.164-.108 3.553 3.553 0 01-.852-.3v-.96c.256.128.564.248.924.36.368.104.74.156 1.116.156.536 0 .924-.084 1.164-.252a.823.823 0 00.36-.696.745.745 0 00-.132-.432c-.088-.128-.248-.256-.48-.384a7.127 7.127 0 00-.972-.432 9.254 9.254 0 01-1.068-.48 1.972 1.972 0 01-.684-.576c-.16-.224-.24-.512-.24-.864 0-.544.22-.964.66-1.26.448-.296 1.032-.444 1.752-.444.392 0 .756.04 1.092.12a4.5 4.5 0 01.96.312l-.36.84a7.101 7.101 0 00-.852-.288 3.48 3.48 0 00-.912-.12c-.432 0-.764.072-.996.216-.224.136-.336.324-.336.564a.7.7 0 00.156.456c.104.12.276.24.516.36.248.112.576.248.984.408.408.152.756.308 1.044.468.288.16.508.356.66.588.152.224.228.508.228.852zm8.179-4.764c.784 0 1.364.172 1.74.516.376.344.564.892.564 1.644V114h-.768l-.204-.912h-.048c-.28.352-.576.612-.888.78-.304.168-.728.252-1.272.252-.584 0-1.068-.152-1.452-.456-.384-.312-.576-.796-.576-1.452 0-.64.252-1.132.756-1.476.504-.352 1.28-.544 2.328-.576l1.092-.036v-.384c0-.536-.116-.908-.348-1.116-.232-.208-.56-.312-.984-.312-.336 0-.656.052-.96.156a6.297 6.297 0 00-.852.336l-.324-.792c.28-.152.612-.28.996-.384a4.264 4.264 0 011.2-.168zm1.26 3.396l-.948.036c-.8.032-1.356.16-1.668.384-.304.224-.456.54-.456.948 0 .36.108.624.324.792.224.168.508.252.852.252.544 0 .996-.148 1.356-.444.36-.304.54-.768.54-1.392v-.576zm10.22-3.408c.12 0 .247.008.383.024.144.008.268.024.372.048l-.132.972a3.47 3.47 0 00-.696-.084c-.328 0-.636.092-.924.276-.288.176-.52.428-.696.756-.168.32-.252.696-.252 1.128V114h-1.056v-6.432h.864l.12 1.176h.048c.208-.352.476-.656.804-.912a1.836 1.836 0 011.164-.384zm4.742 0c.551 0 1.023.12 1.415.36.4.24.705.58.913 1.02.215.432.323.94.323 1.524v.636h-4.403c.016.728.2 1.284.552 1.668.36.376.86.564 1.5.564.407 0 .767-.036 1.08-.108.32-.08.648-.192.984-.336v.924a4.723 4.723 0 01-.972.312c-.32.072-.7.108-1.14.108-.608 0-1.148-.124-1.62-.372a2.642 2.642 0 01-1.092-1.104c-.256-.496-.384-1.1-.384-1.812 0-.704.116-1.308.348-1.812.24-.504.572-.892.996-1.164.431-.272.931-.408 1.5-.408zm-.013.864c-.504 0-.903.164-1.2.492-.287.32-.46.768-.515 1.344h3.276c-.008-.544-.136-.984-.385-1.32-.248-.344-.64-.516-1.175-.516zm11.894-.864c.728 0 1.272.188 1.632.564.36.368.54.968.54 1.8V114h-1.044v-4.14c0-1.016-.436-1.524-1.308-1.524-.624 0-1.072.18-1.344.54-.264.36-.396.884-.396 1.572V114h-1.044v-4.14c0-1.016-.44-1.524-1.32-1.524-.648 0-1.096.2-1.344.6-.248.4-.372.976-.372 1.728V114H93.78v-6.432h.852l.156.876h.06c.2-.336.468-.584.804-.744a2.457 2.457 0 011.092-.252c1.008 0 1.664.36 1.968 1.08h.06c.216-.368.508-.64.876-.816a2.772 2.772 0 011.188-.264zm5.234-2.292c.16 0 .3.056.42.168.128.104.192.272.192.504 0 .224-.064.392-.192.504a.596.596 0 01-.42.168.626.626 0 01-.444-.168c-.12-.112-.18-.28-.18-.504 0-.232.06-.4.18-.504a.626.626 0 01.444-.168zm.516 2.412V114h-1.056v-6.432h1.056zm5.67-.12c.768 0 1.348.188 1.74.564.392.368.588.968.588 1.8V114h-1.044v-4.116c0-1.032-.48-1.548-1.44-1.548-.712 0-1.204.2-1.476.6-.272.4-.408.976-.408 1.728V114h-1.056v-6.432h.852l.156.876h.06c.208-.336.496-.584.864-.744a2.77 2.77 0 011.164-.252zm7.137 6.672c-.8 0-1.44-.276-1.92-.828-.48-.56-.72-1.392-.72-2.496s.24-1.936.72-2.496c.488-.568 1.132-.852 1.932-.852.496 0 .9.092 1.212.276.32.184.58.408.78.672h.072a11.654 11.654 0 00-.048-.456 6.793 6.793 0 01-.024-.492v-2.568h1.056V114h-.852l-.156-.864h-.048a2.49 2.49 0 01-.768.696c-.32.192-.732.288-1.236.288zm.168-.876c.68 0 1.156-.184 1.428-.552.28-.376.42-.94.42-1.692v-.192c0-.8-.132-1.412-.396-1.836-.264-.432-.752-.648-1.464-.648-.568 0-.996.228-1.284.684-.28.448-.42 1.052-.42 1.812 0 .768.14 1.364.42 1.788.288.424.72.636 1.296.636zm7.955-5.796c.552 0 1.024.12 1.416.36.4.24.704.58.912 1.02.216.432.324.94.324 1.524v.636h-4.404c.016.728.2 1.284.552 1.668.36.376.86.564 1.5.564.408 0 .768-.036 1.08-.108.32-.08.648-.192.984-.336v.924a4.723 4.723 0 01-.972.312c-.32.072-.7.108-1.14.108-.608 0-1.148-.124-1.62-.372a2.642 2.642 0 01-1.092-1.104c-.256-.496-.384-1.1-.384-1.812 0-.704.116-1.308.348-1.812.24-.504.572-.892.996-1.164.432-.272.932-.408 1.5-.408zm-.012.864c-.504 0-.904.164-1.2.492-.288.32-.46.768-.516 1.344h3.276c-.008-.544-.136-.984-.384-1.32-.248-.344-.64-.516-1.176-.516zm7.837-.864c.12 0 .248.008.384.024.144.008.268.024.372.048l-.132.972a3.47 3.47 0 00-.696-.084c-.328 0-.636.092-.924.276-.288.176-.52.428-.696.756-.168.32-.252.696-.252 1.128V114h-1.056v-6.432h.864l.12 1.176h.048c.208-.352.476-.656.804-.912a1.836 1.836 0 011.164-.384zm11.738 3.324c0 1.064-.272 1.888-.816 2.472-.536.584-1.264.876-2.184.876a3.017 3.017 0 01-1.524-.384 2.778 2.778 0 01-1.044-1.14c-.256-.504-.384-1.112-.384-1.824 0-1.064.268-1.884.804-2.46.536-.576 1.264-.864 2.184-.864.584 0 1.096.132 1.536.396.448.256.796.632 1.044 1.128.256.488.384 1.088.384 1.8zm-4.86 0c0 .76.148 1.364.444 1.812.304.44.784.66 1.44.66.648 0 1.124-.22 1.428-.66.304-.448.456-1.052.456-1.812s-.152-1.356-.456-1.788c-.304-.432-.784-.648-1.44-.648-.656 0-1.132.216-1.428.648-.296.432-.444 1.028-.444 1.788zm10.033-2.388h-1.62V114h-1.056v-5.616h-1.128v-.492l1.128-.36v-.372c0-.832.184-1.428.552-1.788.368-.368.88-.552 1.536-.552.256 0 .488.024.696.072.216.04.4.088.552.144l-.276.828a6.732 6.732 0 00-.444-.12 2.22 2.22 0 00-.516-.06c-.352 0-.616.12-.792.36-.168.232-.252.6-.252 1.104v.42h1.62v.816zm4.342-.816h1.128l1.392 3.66c.12.32.228.628.324.924.096.288.168.564.216.828h.048c.048-.2.124-.46.228-.78.104-.328.212-.656.324-.984l1.308-3.648h1.14l-2.772 7.32c-.224.608-.516 1.092-.876 1.452-.352.36-.84.54-1.464.54-.192 0-.36-.012-.504-.036a3.3 3.3 0 01-.372-.06v-.84c.088.016.192.032.312.048.128.016.26.024.396.024.368 0 .664-.104.888-.312.232-.208.412-.484.54-.828l.336-.852-2.592-6.456zm13.252 3.204c0 1.064-.272 1.888-.816 2.472-.536.584-1.264.876-2.184.876a3.017 3.017 0 01-1.524-.384 2.778 2.778 0 01-1.044-1.14c-.256-.504-.384-1.112-.384-1.824 0-1.064.268-1.884.804-2.46.536-.576 1.264-.864 2.184-.864.584 0 1.096.132 1.536.396.448.256.796.632 1.044 1.128.256.488.384 1.088.384 1.8zm-4.86 0c0 .76.148 1.364.444 1.812.304.44.784.66 1.44.66.648 0 1.124-.22 1.428-.66.304-.448.456-1.052.456-1.812s-.152-1.356-.456-1.788c-.304-.432-.784-.648-1.44-.648-.656 0-1.132.216-1.428.648-.296.432-.444 1.028-.444 1.788zm12.446-3.204V114h-.864l-.156-.852h-.048a1.867 1.867 0 01-.864.744 3.05 3.05 0 01-1.176.228c-.776 0-1.36-.184-1.752-.552-.392-.376-.588-.972-.588-1.788v-4.212h1.068v4.14c0 1.024.476 1.536 1.428 1.536.712 0 1.204-.2 1.476-.6.28-.4.42-.976.42-1.728v-3.348h1.056zm5.578-.12c.12 0 .248.008.384.024.144.008.268.024.372.048l-.132.972a3.47 3.47 0 00-.696-.084c-.328 0-.636.092-.924.276-.288.176-.52.428-.696.756-.168.32-.252.696-.252 1.128V114h-1.056v-6.432h.864l.12 1.176h.048c.208-.352.476-.656.804-.912a1.836 1.836 0 011.164-.384zm-149.615 17.12V131h-.864l-.156-.852h-.048a1.867 1.867 0 01-.864.744 3.05 3.05 0 01-1.176.228c-.776 0-1.36-.184-1.752-.552-.392-.376-.588-.972-.588-1.788v-4.212h1.068v4.14c0 1.024.476 1.536 1.428 1.536.712 0 1.204-.2 1.476-.6.28-.4.42-.976.42-1.728v-3.348h1.056zm5.638-.12c.792 0 1.428.276 1.908.828.488.552.732 1.384.732 2.496 0 1.096-.244 1.928-.732 2.496-.48.568-1.12.852-1.92.852-.496 0-.908-.092-1.236-.276a2.57 2.57 0 01-.756-.66h-.072c.016.136.032.308.048.516.016.208.024.388.024.54v2.64h-1.056v-9.312h.864l.144.876h.048c.192-.28.444-.516.756-.708.312-.192.728-.288 1.248-.288zm-.192.888c-.656 0-1.12.184-1.392.552-.264.368-.404.928-.42 1.68v.204c0 .792.128 1.404.384 1.836.264.424.748.636 1.452.636.392 0 .712-.108.96-.324.256-.216.444-.508.564-.876.128-.376.192-.804.192-1.284 0-.736-.144-1.324-.432-1.764-.28-.44-.716-.66-1.308-.66zm7.63 5.784a3.265 3.265 0 01-1.524-.348c-.44-.232-.788-.592-1.044-1.08-.248-.488-.372-1.112-.372-1.872 0-.792.132-1.436.396-1.932s.62-.86 1.068-1.092a3.365 3.365 0 011.548-.348 4.1 4.1 0 01.948.108c.304.064.552.144.744.24l-.324.876a6.244 6.244 0 00-.672-.204 2.976 2.976 0 00-.72-.096c-1.264 0-1.896.812-1.896 2.436 0 .776.152 1.372.456 1.788.312.408.772.612 1.38.612.352 0 .66-.036.924-.108a4.5 4.5 0 00.744-.264v.936a2.834 2.834 0 01-.72.252 3.917 3.917 0 01-.936.096zm9.313-3.348c0 1.064-.271 1.888-.816 2.472-.535.584-1.264.876-2.184.876a3.017 3.017 0 01-1.523-.384 2.778 2.778 0 01-1.044-1.14c-.257-.504-.385-1.112-.385-1.824 0-1.064.269-1.884.805-2.46.535-.576 1.264-.864 2.184-.864.584 0 1.095.132 1.535.396a2.6 2.6 0 011.045 1.128c.255.488.383 1.088.383 1.8zm-4.86 0c0 .76.149 1.364.445 1.812.303.44.784.66 1.44.66.648 0 1.123-.22 1.427-.66.304-.448.456-1.052.456-1.812s-.151-1.356-.456-1.788c-.303-.432-.784-.648-1.44-.648-.655 0-1.131.216-1.427.648-.296.432-.444 1.028-.444 1.788zm14.126-3.324c.728 0 1.272.188 1.632.564.36.368.54.968.54 1.8V131h-1.044v-4.14c0-1.016-.436-1.524-1.308-1.524-.624 0-1.072.18-1.344.54-.264.36-.396.884-.396 1.572V131h-1.044v-4.14c0-1.016-.44-1.524-1.32-1.524-.648 0-1.096.2-1.344.6-.248.4-.372.976-.372 1.728V131h-1.056v-6.432h.852l.156.876h.06c.2-.336.468-.584.804-.744a2.457 2.457 0 011.092-.252c1.008 0 1.664.36 1.968 1.08h.06c.216-.368.508-.64.876-.816a2.77 2.77 0 011.188-.264zm5.234-2.292c.16 0 .3.056.42.168.128.104.192.272.192.504 0 .224-.064.392-.192.504a.596.596 0 01-.42.168.626.626 0 01-.444-.168c-.12-.112-.18-.28-.18-.504 0-.232.06-.4.18-.504a.626.626 0 01.444-.168zm.516 2.412V131h-1.056v-6.432h1.056zm5.67-.12c.768 0 1.348.188 1.74.564.392.368.588.968.588 1.8V131h-1.044v-4.116c0-1.032-.48-1.548-1.44-1.548-.712 0-1.204.2-1.476.6-.272.4-.408.976-.408 1.728V131h-1.056v-6.432h.852l.156.876h.06c.208-.336.496-.584.864-.744a2.77 2.77 0 011.164-.252zm7.138 0c.424 0 .804.08 1.14.24.344.16.636.404.876.732h.06l.144-.852h.84v6.54c0 .92-.236 1.612-.708 2.076-.464.464-1.188.696-2.172.696-.944 0-1.716-.136-2.316-.408v-.972c.632.336 1.424.504 2.376.504.552 0 .984-.164 1.296-.492.32-.32.48-.76.48-1.32v-.252c0-.096.004-.232.012-.408.008-.184.016-.312.024-.384h-.048c-.432.648-1.096.972-1.992.972-.832 0-1.484-.292-1.956-.876-.464-.584-.696-1.4-.696-2.448 0-1.024.232-1.836.696-2.436.472-.608 1.12-.912 1.944-.912zm.144.888c-.536 0-.952.216-1.248.648-.296.424-.444 1.032-.444 1.824s.144 1.4.432 1.824c.296.416.724.624 1.284.624.648 0 1.12-.172 1.416-.516.296-.352.444-.916.444-1.692v-.252c0-.88-.152-1.508-.456-1.884-.304-.384-.78-.576-1.428-.576zm11.583-.876c.784 0 1.364.172 1.74.516.376.344.564.892.564 1.644V131h-.768l-.204-.912h-.048c-.28.352-.576.612-.888.78-.304.168-.728.252-1.272.252-.584 0-1.068-.152-1.452-.456-.384-.312-.576-.796-.576-1.452 0-.64.252-1.132.756-1.476.504-.352 1.28-.544 2.328-.576l1.092-.036v-.384c0-.536-.116-.908-.348-1.116-.232-.208-.56-.312-.984-.312-.336 0-.656.052-.96.156a6.297 6.297 0 00-.852.336l-.324-.792c.28-.152.612-.28.996-.384a4.264 4.264 0 011.2-.168zm1.26 3.396l-.948.036c-.8.032-1.356.16-1.668.384-.304.224-.456.54-.456.948 0 .36.108.624.324.792.224.168.508.252.852.252.544 0 .996-.148 1.356-.444.36-.304.54-.768.54-1.392v-.576zm6.626-3.408c.792 0 1.428.276 1.908.828.488.552.732 1.384.732 2.496 0 1.096-.244 1.928-.732 2.496-.48.568-1.12.852-1.92.852-.496 0-.908-.092-1.236-.276a2.57 2.57 0 01-.756-.66h-.072c.016.136.032.308.048.516.016.208.024.388.024.54v2.64h-1.056v-9.312h.864l.144.876h.048c.192-.28.444-.516.756-.708.312-.192.728-.288 1.248-.288zm-.192.888c-.656 0-1.12.184-1.392.552-.264.368-.404.928-.42 1.68v.204c0 .792.128 1.404.384 1.836.264.424.748.636 1.452.636.392 0 .712-.108.96-.324.256-.216.444-.508.564-.876.128-.376.192-.804.192-1.284 0-.736-.144-1.324-.432-1.764-.28-.44-.716-.66-1.308-.66zm8.111-.888c.792 0 1.428.276 1.908.828.488.552.732 1.384.732 2.496 0 1.096-.244 1.928-.732 2.496-.48.568-1.12.852-1.92.852-.496 0-.908-.092-1.236-.276a2.57 2.57 0 01-.756-.66h-.072c.016.136.032.308.048.516.016.208.024.388.024.54v2.64h-1.056v-9.312h.864l.144.876h.048c.192-.28.444-.516.756-.708.312-.192.728-.288 1.248-.288zm-.192.888c-.656 0-1.12.184-1.392.552-.264.368-.404.928-.42 1.68v.204c0 .792.128 1.404.384 1.836.264.424.748.636 1.452.636.392 0 .712-.108.96-.324.256-.216.444-.508.564-.876.128-.376.192-.804.192-1.284 0-.736-.144-1.324-.432-1.764-.28-.44-.716-.66-1.308-.66zm10.642 2.436c0 1.064-.272 1.888-.816 2.472-.536.584-1.264.876-2.184.876a3.017 3.017 0 01-1.524-.384 2.778 2.778 0 01-1.044-1.14c-.256-.504-.384-1.112-.384-1.824 0-1.064.268-1.884.804-2.46.536-.576 1.264-.864 2.184-.864.584 0 1.096.132 1.536.396.448.256.796.632 1.044 1.128.256.488.384 1.088.384 1.8zm-4.86 0c0 .76.148 1.364.444 1.812.304.44.784.66 1.44.66.648 0 1.124-.22 1.428-.66.304-.448.456-1.052.456-1.812s-.152-1.356-.456-1.788c-.304-.432-.784-.648-1.44-.648-.656 0-1.132.216-1.428.648-.296.432-.444 1.028-.444 1.788zm7.61-5.616c.16 0 .3.056.42.168.128.104.192.272.192.504 0 .224-.064.392-.192.504a.596.596 0 01-.42.168.626.626 0 01-.444-.168c-.12-.112-.18-.28-.18-.504 0-.232.06-.4.18-.504a.626.626 0 01.444-.168zm.516 2.412V131h-1.056v-6.432h1.056zm5.669-.12c.768 0 1.348.188 1.74.564.392.368.588.968.588 1.8V131h-1.044v-4.116c0-1.032-.48-1.548-1.44-1.548-.712 0-1.204.2-1.476.6-.272.4-.408.976-.408 1.728V131h-1.056v-6.432h.852l.156.876h.06c.208-.336.496-.584.864-.744a2.77 2.77 0 011.164-.252zm7.006 5.808c.16 0 .324-.012.492-.036.168-.032.304-.064.408-.096v.804a1.68 1.68 0 01-.48.132c-.208.04-.408.06-.6.06a2.56 2.56 0 01-.936-.168 1.479 1.479 0 01-.684-.612c-.176-.288-.264-.692-.264-1.212v-3.744h-.912v-.504l.924-.42.42-1.368h.624v1.476h1.86v.816h-1.86v3.72c0 .392.092.684.276.876.192.184.436.276.732.276zm9.779-5.808c.728 0 1.272.188 1.632.564.36.368.54.968.54 1.8V131h-1.044v-4.14c0-1.016-.436-1.524-1.308-1.524-.624 0-1.072.18-1.344.54-.264.36-.396.884-.396 1.572V131h-1.044v-4.14c0-1.016-.44-1.524-1.32-1.524-.648 0-1.096.2-1.344.6-.248.4-.372.976-.372 1.728V131h-1.056v-6.432h.852l.156.876h.06c.2-.336.468-.584.804-.744a2.457 2.457 0 011.092-.252c1.008 0 1.664.36 1.968 1.08h.06c.216-.368.508-.64.876-.816a2.77 2.77 0 011.188-.264zm7.179 0c.552 0 1.024.12 1.416.36.4.24.704.58.912 1.02.216.432.324.94.324 1.524v.636h-4.404c.016.728.2 1.284.552 1.668.36.376.86.564 1.5.564.408 0 .768-.036 1.08-.108.32-.08.648-.192.984-.336v.924a4.723 4.723 0 01-.972.312c-.32.072-.7.108-1.14.108-.608 0-1.148-.124-1.62-.372a2.642 2.642 0 01-1.092-1.104c-.256-.496-.384-1.1-.384-1.812 0-.704.116-1.308.348-1.812.24-.504.572-.892.996-1.164.432-.272.932-.408 1.5-.408zm-.012.864c-.504 0-.904.164-1.2.492-.288.32-.46.768-.516 1.344h3.276c-.008-.544-.136-.984-.384-1.32-.248-.344-.64-.516-1.176-.516zm7.933-.864c.768 0 1.348.188 1.74.564.392.368.588.968.588 1.8V131h-1.044v-4.116c0-1.032-.48-1.548-1.44-1.548-.712 0-1.204.2-1.476.6-.272.4-.408.976-.408 1.728V131h-1.056v-6.432h.852l.156.876h.06c.208-.336.496-.584.864-.744a2.77 2.77 0 011.164-.252zm7.006 5.808c.16 0 .324-.012.492-.036.168-.032.304-.064.408-.096v.804a1.68 1.68 0 01-.48.132c-.208.04-.408.06-.6.06a2.56 2.56 0 01-.936-.168 1.479 1.479 0 01-.684-.612c-.176-.288-.264-.692-.264-1.212v-3.744h-.912v-.504l.924-.42.42-1.368h.624v1.476h1.86v.816h-1.86v3.72c0 .392.092.684.276.876.192.184.436.276.732.276zm11.968-2.484c0 1.064-.272 1.888-.816 2.472-.536.584-1.264.876-2.184.876a3.017 3.017 0 01-1.524-.384 2.778 2.778 0 01-1.044-1.14c-.256-.504-.384-1.112-.384-1.824 0-1.064.268-1.884.804-2.46.536-.576 1.264-.864 2.184-.864.584 0 1.096.132 1.536.396.448.256.796.632 1.044 1.128.256.488.384 1.088.384 1.8zm-4.86 0c0 .76.148 1.364.444 1.812.304.44.784.66 1.44.66.648 0 1.124-.22 1.428-.66.304-.448.456-1.052.456-1.812s-.152-1.356-.456-1.788c-.304-.432-.784-.648-1.44-.648-.656 0-1.132.216-1.428.648-.296.432-.444 1.028-.444 1.788zm10.166-3.324c.768 0 1.348.188 1.74.564.392.368.588.968.588 1.8V131h-1.044v-4.116c0-1.032-.48-1.548-1.44-1.548-.712 0-1.204.2-1.476.6-.272.4-.408.976-.408 1.728V131h-1.056v-6.432h.852l.156.876h.06c.208-.336.496-.584.864-.744a2.77 2.77 0 011.164-.252zM27.48 144.712c0-.976.14-1.916.42-2.82a7.167 7.167 0 011.344-2.46h.996a8.396 8.396 0 00-1.272 2.484 9.356 9.356 0 00-.42 2.784c0 .928.14 1.84.42 2.736a8.63 8.63 0 001.26 2.46h-.984a6.85 6.85 0 01-1.344-2.388 9.319 9.319 0 01-.42-2.796zm4.133 0c0-.976.14-1.916.42-2.82a7.167 7.167 0 011.344-2.46h.996a8.396 8.396 0 00-1.272 2.484 9.356 9.356 0 00-.42 2.784c0 .928.14 1.84.42 2.736a8.63 8.63 0 001.26 2.46h-.984a6.85 6.85 0 01-1.344-2.388 9.319 9.319 0 01-.42-2.796zm6.954 3.408c-.8 0-1.44-.276-1.92-.828-.48-.56-.72-1.392-.72-2.496s.24-1.936.72-2.496c.488-.568 1.132-.852 1.932-.852.496 0 .9.092 1.212.276.32.184.58.408.78.672h.072a11.654 11.654 0 00-.048-.456 6.793 6.793 0 01-.024-.492v-2.568h1.056V148h-.852l-.156-.864h-.048a2.49 2.49 0 01-.768.696c-.32.192-.732.288-1.236.288zm.168-.876c.68 0 1.156-.184 1.428-.552.28-.376.42-.94.42-1.692v-.192c0-.8-.132-1.412-.396-1.836-.264-.432-.752-.648-1.464-.648-.568 0-.996.228-1.284.684-.28.448-.42 1.052-.42 1.812 0 .768.14 1.364.42 1.788.288.424.72.636 1.296.636zm7.906-5.784c.784 0 1.364.172 1.74.516.376.344.564.892.564 1.644V148h-.768l-.204-.912h-.048c-.28.352-.576.612-.888.78-.304.168-.728.252-1.272.252-.584 0-1.068-.152-1.452-.456-.384-.312-.576-.796-.576-1.452 0-.64.252-1.132.756-1.476.504-.352 1.28-.544 2.328-.576l1.092-.036v-.384c0-.536-.116-.908-.348-1.116-.232-.208-.56-.312-.984-.312-.336 0-.656.052-.96.156a6.297 6.297 0 00-.852.336l-.324-.792c.28-.152.612-.28.996-.384a4.264 4.264 0 011.2-.168zm1.26 3.396l-.948.036c-.8.032-1.356.16-1.668.384-.304.224-.456.54-.456.948 0 .36.108.624.324.792.224.168.508.252.852.252.544 0 .996-.148 1.356-.444.36-.304.54-.768.54-1.392v-.576zm5.714 2.4c.16 0 .325-.012.492-.036.169-.032.304-.064.409-.096v.804a1.68 1.68 0 01-.48.132c-.209.04-.409.06-.6.06a2.56 2.56 0 01-.937-.168 1.479 1.479 0 01-.684-.612c-.175-.288-.264-.692-.264-1.212v-3.744h-.912v-.504l.924-.42.42-1.368h.625v1.476h1.86v.816h-1.86v3.72c0 .392.092.684.276.876.191.184.435.276.731.276zm5.208-5.808c.552 0 1.024.12 1.416.36.4.24.704.58.912 1.02.216.432.324.94.324 1.524v.636h-4.404c.016.728.2 1.284.552 1.668.36.376.86.564 1.5.564.408 0 .768-.036 1.08-.108.32-.08.648-.192.984-.336v.924a4.723 4.723 0 01-.972.312c-.32.072-.7.108-1.14.108-.608 0-1.148-.124-1.62-.372a2.642 2.642 0 01-1.092-1.104c-.256-.496-.384-1.1-.384-1.812 0-.704.116-1.308.348-1.812.24-.504.572-.892.996-1.164.432-.272.932-.408 1.5-.408zm-.012.864c-.504 0-.904.164-1.2.492-.288.32-.46.768-.516 1.344h3.276c-.008-.544-.136-.984-.384-1.32-.248-.344-.64-.516-1.176-.516zm6.937 2.4c0 .968-.144 1.9-.432 2.796a6.697 6.697 0 01-1.332 2.388H63a8.398 8.398 0 001.248-2.46 8.89 8.89 0 00.432-2.736c0-.952-.144-1.88-.432-2.784a8.18 8.18 0 00-1.26-2.484h.996a7.007 7.007 0 011.332 2.46c.288.904.432 1.844.432 2.82zm4.134 0c0 .968-.144 1.9-.432 2.796a6.697 6.697 0 01-1.332 2.388h-.984a8.398 8.398 0 001.248-2.46 8.89 8.89 0 00.432-2.736c0-.952-.144-1.88-.432-2.784a8.18 8.18 0 00-1.26-2.484h.996a7.007 7.007 0 011.332 2.46c.288.904.432 1.844.432 2.82zm8.122-3.252c.784 0 1.364.172 1.74.516.376.344.564.892.564 1.644V148h-.768l-.204-.912h-.048c-.28.352-.576.612-.888.78-.304.168-.728.252-1.272.252-.584 0-1.068-.152-1.452-.456-.384-.312-.576-.796-.576-1.452 0-.64.252-1.132.756-1.476.504-.352 1.28-.544 2.328-.576l1.092-.036v-.384c0-.536-.116-.908-.348-1.116-.232-.208-.56-.312-.984-.312-.336 0-.656.052-.96.156a6.297 6.297 0 00-.852.336l-.324-.792c.28-.152.612-.28.996-.384a4.264 4.264 0 011.2-.168zm1.26 3.396l-.948.036c-.8.032-1.356.16-1.668.384-.304.224-.456.54-.456.948 0 .36.108.624.324.792.224.168.508.252.852.252.544 0 .996-.148 1.356-.444.36-.304.54-.768.54-1.392v-.576zm5.714 2.4c.16 0 .324-.012.492-.036.168-.032.304-.064.408-.096v.804a1.68 1.68 0 01-.48.132c-.208.04-.408.06-.6.06a2.56 2.56 0 01-.936-.168 1.479 1.479 0 01-.684-.612c-.176-.288-.264-.692-.264-1.212v-3.744h-.912v-.504l.924-.42.42-1.368h.624v1.476h1.86v.816h-1.86v3.72c0 .392.092.684.276.876.192.184.436.276.732.276zm5.837-2.544c0-.976.14-1.916.42-2.82a7.167 7.167 0 011.344-2.46h.996a8.396 8.396 0 00-1.272 2.484 9.356 9.356 0 00-.42 2.784c0 .928.14 1.84.42 2.736a8.63 8.63 0 001.26 2.46h-.984a6.85 6.85 0 01-1.344-2.388 9.319 9.319 0 01-.42-2.796zm4.133 0c0-.976.14-1.916.42-2.82a7.167 7.167 0 011.344-2.46h.996a8.396 8.396 0 00-1.272 2.484 9.356 9.356 0 00-.42 2.784c0 .928.14 1.84.42 2.736a8.63 8.63 0 001.26 2.46h-.984a6.85 6.85 0 01-1.344-2.388 9.319 9.319 0 01-.42-2.796zm6.822 2.544c.16 0 .324-.012.492-.036.168-.032.304-.064.408-.096v.804a1.68 1.68 0 01-.48.132c-.208.04-.408.06-.6.06a2.56 2.56 0 01-.936-.168 1.482 1.482 0 01-.684-.612c-.176-.288-.264-.692-.264-1.212v-3.744h-.912v-.504l.924-.42.42-1.368h.624v1.476h1.86v.816h-1.86v3.72c0 .392.092.684.276.876.192.184.436.276.732.276zm3.263-8.1c.16 0 .3.056.42.168.128.104.192.272.192.504 0 .224-.064.392-.192.504a.596.596 0 01-.42.168.626.626 0 01-.444-.168c-.12-.112-.18-.28-.18-.504 0-.232.06-.4.18-.504a.626.626 0 01.444-.168zm.516 2.412V148h-1.056v-6.432h1.056zm9.63-.12c.728 0 1.272.188 1.632.564.36.368.54.968.54 1.8V148h-1.044v-4.14c0-1.016-.436-1.524-1.308-1.524-.624 0-1.072.18-1.344.54-.264.36-.396.884-.396 1.572V148h-1.044v-4.14c0-1.016-.44-1.524-1.32-1.524-.648 0-1.096.2-1.344.6-.248.4-.372.976-.372 1.728V148h-1.056v-6.432h.852l.156.876h.06c.2-.336.468-.584.804-.744a2.457 2.457 0 011.092-.252c1.008 0 1.664.36 1.968 1.08h.06c.216-.368.508-.64.876-.816a2.77 2.77 0 011.188-.264zm7.178 0c.552 0 1.024.12 1.416.36.4.24.704.58.912 1.02.216.432.324.94.324 1.524v.636h-4.404c.016.728.2 1.284.552 1.668.36.376.86.564 1.5.564.408 0 .768-.036 1.08-.108.32-.08.648-.192.984-.336v.924a4.723 4.723 0 01-.972.312c-.32.072-.7.108-1.14.108-.608 0-1.148-.124-1.62-.372a2.642 2.642 0 01-1.092-1.104c-.256-.496-.384-1.1-.384-1.812 0-.704.116-1.308.348-1.812.24-.504.572-.892.996-1.164.432-.272.932-.408 1.5-.408zm-.012.864c-.504 0-.904.164-1.2.492-.288.32-.46.768-.516 1.344h3.276c-.008-.544-.136-.984-.384-1.32-.248-.344-.64-.516-1.176-.516zm6.937 2.4c0 .968-.144 1.9-.432 2.796a6.697 6.697 0 01-1.332 2.388h-.984a8.398 8.398 0 001.248-2.46 8.89 8.89 0 00.432-2.736c0-.952-.144-1.88-.432-2.784a8.18 8.18 0 00-1.26-2.484h.996a7.007 7.007 0 011.332 2.46c.288.904.432 1.844.432 2.82zm4.134 0c0 .968-.144 1.9-.432 2.796a6.697 6.697 0 01-1.332 2.388h-.984a8.398 8.398 0 001.248-2.46 8.89 8.89 0 00.432-2.736c0-.952-.144-1.88-.432-2.784a8.18 8.18 0 00-1.26-2.484h.996a7.007 7.007 0 011.332 2.46c.288.904.432 1.844.432 2.82zm1.877 2.64c0-.296.072-.504.216-.624a.78.78 0 01.516-.18c.208 0 .384.06.528.18.152.12.228.328.228.624 0 .288-.076.496-.228.624a.766.766 0 01-.528.192.75.75 0 01-.516-.192c-.144-.128-.216-.336-.216-.624z" fill="#000"/><path d="M.5 15C.5 6.992 6.992.5 15 .5h329c8.008 0 14.5 6.492 14.5 14.5v216.5H.5V15z" stroke="#BBBDBF"/></g><defs><filter id="filter0_d" x="0" y="0" width="367" height="240" filterUnits="userSpaceOnUse" color-interpolation-filters="sRGB"><feFlood flood-opacity="0" result="BackgroundImageFix"/><feColorMatrix in="SourceAlpha" values="0 0 0 0 0 0 0 0 0 0 0 0 0 0 0 0 0 0 127 0"/><feOffset dx="4" dy="4"/><feGaussianBlur stdDeviation="2"/><feColorMatrix values="0 0 0 0 0 0 0 0 0 0 0 0 0 0 0 0 0 0 0.1 0"/><feBlend in2="BackgroundImageFix" result="effect1_dropShadow"/><feBlend in="SourceGraphic" in2="effect1_dropShadow" result="shape"/></filter><filter id="filter1_d" x="18" y="176" width="65" height="28" filterUnits="userSpaceOnUse" color-interpolation-filters="sRGB"><feFlood flood-opacity="0" result="BackgroundImageFix"/><feColorMatrix in="SourceAlpha" values="0 0 0 0 0 0 0 0 0 0 0 0 0 0 0 0 0 0 127 0"/><feOffset dy="2"/><feColorMatrix values="0 0 0 0 0 0 0 0 0 0 0 0 0 0 0 0 0 0 1 0"/><feBlend in2="BackgroundImageFix" result="effect1_dropShadow"/><feBlend in="SourceGraphic" in2="effect1_dropShadow" result="shape"/></filter></defs></svg>