<svg width="367" height="240" fill="none" xmlns="http://www.w3.org/2000/svg"><g filter="url(#filter0_d)"><path d="M0 15C0 6.716 6.716 0 15 0h329c8.284 0 15 6.716 15 15v217H0V15z" fill="#fff"/><path d="M0 15C0 6.716 6.716 0 15 0h329c8.284 0 15 6.716 15 15v3H0v-3z" fill="#727272"/><g filter="url(#filter1_d)"><path fill="#00703C" d="M18 176h91v26H18z"/></g><path d="M38.542 193.052l-.006.948h-5.298v-8.598h5.298v.948h-4.134v2.856h3.348v.912h-3.348v2.934h4.14zm2.75-4.248c.131-.148.271-.282.42-.402.147-.12.303-.222.467-.306a2.443 2.443 0 011.134-.27c.332 0 .624.056.876.168.256.108.468.264.636.468.172.2.302.442.39.726.088.284.132.598.132.942V194h-1.074v-3.87c0-.46-.106-.816-.318-1.068-.208-.256-.526-.384-.954-.384-.316 0-.612.076-.888.228a2.936 2.936 0 00-.756.618V194h-1.074v-6.078h.642c.152 0 .246.074.282.222l.084.66zm7.232.336c.192-.416.428-.74.708-.972.28-.236.622-.354 1.026-.354.128 0 .25.014.366.042.12.028.226.072.318.132l-.078.798c-.024.1-.084.15-.18.15-.056 0-.138-.012-.246-.036a1.694 1.694 0 00-.366-.036c-.192 0-.364.028-.516.084-.148.056-.282.14-.402.252a1.782 1.782 0 00-.318.408c-.092.16-.176.344-.252.552V194H47.51v-6.078h.612c.116 0 .196.022.24.066.044.044.074.12.09.228l.072.924zm7.715 1.158c0-.248-.036-.474-.108-.678a1.437 1.437 0 00-.306-.534 1.292 1.292 0 00-.486-.348 1.616 1.616 0 00-.654-.126c-.512 0-.918.15-1.218.45-.296.296-.48.708-.552 1.236h3.324zm.864 2.85c-.132.16-.29.3-.474.42a3.022 3.022 0 01-.594.288 3.503 3.503 0 01-.648.168c-.224.04-.446.06-.666.06-.42 0-.808-.07-1.164-.21a2.636 2.636 0 01-.918-.624 2.919 2.919 0 01-.6-1.02 4.135 4.135 0 01-.216-1.392c0-.424.064-.82.192-1.188.132-.368.32-.686.564-.954.244-.272.542-.484.894-.636a2.902 2.902 0 011.188-.234c.364 0 .7.062 1.008.186.312.12.58.296.804.528.228.228.406.512.534.852.128.336.192.72.192 1.152 0 .168-.018.28-.054.336-.036.056-.104.084-.204.084H52.88c.012.384.064.718.156 1.002.096.284.228.522.396.714.168.188.368.33.6.426a2.1 2.1 0 00.78.138c.268 0 .498-.03.69-.09a3.456 3.456 0 00.852-.402.47.47 0 01.246-.096c.088 0 .156.034.204.102l.3.39zm4.062-2.118c.216 0 .406-.03.57-.09.164-.06.302-.144.414-.252.112-.108.196-.236.252-.384a1.43 1.43 0 00.084-.498c0-.372-.114-.668-.342-.888-.224-.22-.55-.33-.978-.33-.432 0-.762.11-.99.33-.224.22-.336.516-.336.888 0 .18.028.346.084.498a1.102 1.102 0 00.672.636c.164.06.354.09.57.09zm1.926 3.3a.513.513 0 00-.126-.36.838.838 0 00-.342-.216 2.036 2.036 0 00-.492-.108 8.573 8.573 0 00-.6-.054l-.636-.036a7.504 7.504 0 01-.624-.06 1.685 1.685 0 00-.552.396.8.8 0 00-.108.93c.072.12.18.222.324.306.144.088.324.156.54.204.22.052.478.078.774.078.288 0 .546-.026.774-.078.228-.052.42-.126.576-.222.16-.096.282-.21.366-.342a.8.8 0 00.126-.438zm1.086-6.168v.396c0 .132-.084.216-.252.252l-.69.09c.136.264.204.556.204.876a1.862 1.862 0 01-.642 1.428c-.2.172-.44.304-.72.396-.28.092-.584.138-.912.138-.284 0-.552-.034-.804-.102-.128.08-.226.166-.294.258a.438.438 0 00-.102.27.37.37 0 00.174.33c.12.072.276.124.468.156s.41.052.654.06c.248.008.5.022.756.042.26.016.512.046.756.09.248.044.468.116.66.216.192.1.346.238.462.414.12.176.18.404.18.684 0 .26-.066.512-.198.756a1.98 1.98 0 01-.558.648 2.798 2.798 0 01-.9.456c-.352.116-.75.174-1.194.174-.444 0-.832-.044-1.164-.132a2.732 2.732 0 01-.828-.354 1.562 1.562 0 01-.498-.516 1.218 1.218 0 01-.162-.606c0-.3.094-.554.282-.762.188-.208.446-.374.774-.498a1.149 1.149 0 01-.432-.318c-.104-.136-.156-.318-.156-.546 0-.088.016-.178.048-.27.032-.096.08-.19.144-.282a1.55 1.55 0 01.582-.492c-.3-.168-.534-.39-.702-.666a1.852 1.852 0 01-.252-.972c0-.296.056-.564.168-.804a1.78 1.78 0 01.48-.618c.204-.172.446-.304.726-.396.284-.092.594-.138.93-.138.264 0 .51.03.738.09.228.056.436.14.624.252h1.65zm2.768-.24V194h-1.068v-6.078h1.068zm.228-1.908a.673.673 0 01-.066.294.815.815 0 01-.168.24.753.753 0 01-.246.162.73.73 0 01-.294.06.73.73 0 01-.528-.222.875.875 0 01-.162-.24.73.73 0 01-.06-.294.73.73 0 01.06-.294.753.753 0 01.162-.246.742.742 0 01.234-.168.73.73 0 01.294-.06.73.73 0 01.294.06c.096.04.178.096.246.168.072.068.128.15.168.246.044.092.066.19.066.294zm5.602 2.91a.237.237 0 01-.222.132.418.418 0 01-.204-.066 3.59 3.59 0 00-.282-.144 2.152 2.152 0 00-.39-.15 1.802 1.802 0 00-.54-.072c-.18 0-.342.024-.486.072a1.16 1.16 0 00-.372.186.875.875 0 00-.234.282.754.754 0 00-.078.342c0 .156.044.286.132.39.092.104.212.194.36.27.148.076.316.144.504.204.188.056.38.118.576.186.2.064.394.136.582.216.188.08.356.18.504.3a1.329 1.329 0 01.492 1.068c0 .28-.05.54-.15.78a1.73 1.73 0 01-.444.618 2.17 2.17 0 01-.72.408c-.284.1-.612.15-.984.15a3.11 3.11 0 01-1.152-.204 2.966 2.966 0 01-.876-.534l.252-.408a.366.366 0 01.114-.12.308.308 0 01.168-.042c.072 0 .148.028.228.084.08.056.176.118.288.186a1.915 1.915 0 001.032.27c.208 0 .39-.026.546-.078.156-.056.286-.13.39-.222a.837.837 0 00.228-.318.955.955 0 00.078-.384.616.616 0 00-.138-.414 1.052 1.052 0 00-.354-.282 2.606 2.606 0 00-.51-.204l-.582-.186a7.84 7.84 0 01-.582-.216 2.137 2.137 0 01-.504-.312 1.445 1.445 0 01-.36-.456 1.533 1.533 0 01-.132-.666c0-.232.048-.454.144-.666.096-.216.236-.404.42-.564.184-.164.41-.294.678-.39.268-.096.574-.144.918-.144.4 0 .758.064 1.074.192.32.124.596.296.828.516l-.24.39zm4.053 5.172c-.48 0-.85-.134-1.11-.402-.256-.268-.384-.654-.384-1.158v-3.72h-.732a.247.247 0 01-.162-.054c-.044-.04-.066-.1-.066-.18v-.426l.996-.126.246-1.878a.254.254 0 01.078-.144.24.24 0 01.168-.06h.54v2.094h1.758v.774h-1.758v3.648c0 .256.062.446.186.57a.65.65 0 00.48.186.875.875 0 00.504-.144c.06-.036.11-.068.15-.096.044-.032.082-.048.114-.048.056 0 .106.034.15.102l.312.51a2.029 2.029 0 01-.666.408c-.26.096-.528.144-.804.144zm3.985-4.956c.192-.416.428-.74.708-.972.28-.236.622-.354 1.026-.354.128 0 .25.014.366.042.12.028.226.072.318.132l-.078.798c-.024.1-.084.15-.18.15-.056 0-.138-.012-.246-.036a1.694 1.694 0 00-.366-.036c-.192 0-.364.028-.516.084-.148.056-.282.14-.402.252a1.782 1.782 0 00-.318.408c-.092.16-.176.344-.252.552V194h-1.074v-6.078h.612c.116 0 .196.022.24.066.044.044.074.12.09.228l.072.924zm7.715 1.158c0-.248-.036-.474-.108-.678a1.437 1.437 0 00-.306-.534 1.292 1.292 0 00-.486-.348 1.616 1.616 0 00-.654-.126c-.512 0-.918.15-1.218.45-.296.296-.48.708-.552 1.236h3.324zm.864 2.85c-.132.16-.29.3-.474.42a3.022 3.022 0 01-.594.288 3.503 3.503 0 01-.648.168c-.224.04-.446.06-.666.06-.42 0-.808-.07-1.164-.21a2.636 2.636 0 01-.918-.624 2.919 2.919 0 01-.6-1.02 4.135 4.135 0 01-.216-1.392c0-.424.064-.82.192-1.188.132-.368.32-.686.564-.954.244-.272.542-.484.894-.636a2.902 2.902 0 011.188-.234c.364 0 .7.062 1.008.186.312.12.58.296.804.528.228.228.406.512.534.852.128.336.192.72.192 1.152 0 .168-.018.28-.054.336-.036.056-.104.084-.204.084h-4.062c.012.384.064.718.156 1.002.096.284.228.522.396.714.168.188.368.33.6.426a2.1 2.1 0 00.78.138c.268 0 .498-.03.69-.09a3.456 3.456 0 00.852-.402.47.47 0 01.246-.096c.088 0 .156.034.204.102l.3.39zm2.957-4.008c.192-.416.428-.74.708-.972.28-.236.622-.354 1.026-.354.128 0 .25.014.366.042.12.028.226.072.318.132l-.078.798c-.024.1-.084.15-.18.15-.056 0-.138-.012-.246-.036a1.694 1.694 0 00-.366-.036c-.192 0-.364.028-.516.084-.148.056-.282.14-.402.252a1.782 1.782 0 00-.318.408c-.092.16-.176.344-.252.552V194h-1.074v-6.078h.612c.116 0 .196.022.24.066.044.044.074.12.09.228l.072.924z" fill="#fff"/><path stroke="#BBBDBF" d="M21.5 80.5h255v79h-255z"/><path stroke="#FD0" stroke-width="2" d="M19 78h260v84H19z"/><rect x="67" y="88" width="54" height="12" rx="4" fill="#FD0"/><rect x="46" y="139" width="35" height="12" rx="4" fill="#FD0"/><rect x="105" y="139" width="42" height="12" rx="4" fill="#FD0"/><path d="M25.293 41.718h4.233v5.092c-.629.459-1.3.796-2.014 1.011-.709.21-1.46.315-2.253.315-1.014 0-1.932-.156-2.754-.468a6.249 6.249 0 01-2.108-1.317 5.797 5.797 0 01-1.351-1.998 6.568 6.568 0 01-.476-2.524c0-.924.15-1.77.45-2.541.306-.771.74-1.434 1.3-1.99a5.93 5.93 0 012.032-1.3c.799-.312 1.692-.467 2.677-.467.51 0 .986.042 1.428.127.442.08.85.193 1.224.34a5.617 5.617 0 011.879 1.165l-.74 1.139a.688.688 0 01-.442.331c-.18.04-.38-.006-.595-.136a7.137 7.137 0 00-.603-.331 4.088 4.088 0 00-1.343-.434c-.26-.04-.561-.06-.901-.06-.572 0-1.09.1-1.555.298a3.368 3.368 0 00-1.19.842 3.805 3.805 0 00-.748 1.309 5.222 5.222 0 00-.264 1.708c0 .68.096 1.29.289 1.828.193.532.465.983.816 1.351.351.368.77.649 1.258.841.493.193 1.04.29 1.64.29.409 0 .771-.04 1.088-.12.323-.084.638-.198.944-.34v-2.074H25.82a.57.57 0 01-.391-.127.461.461 0 01-.136-.34v-1.42zm11.095 2.618a10.38 10.38 0 00-1.428.154c-.38.067-.683.158-.91.271-.22.114-.38.244-.475.392a.85.85 0 00-.137.467c0 .34.094.58.281.723.193.141.459.212.799.212.391 0 .728-.068 1.011-.204.29-.142.576-.36.859-.654v-1.36zm-4.777-3.884a5.18 5.18 0 011.708-1.037 5.747 5.747 0 012.023-.349c.522 0 .986.085 1.395.255.413.17.762.409 1.045.715.289.3.51.66.663 1.079.153.42.23.878.23 1.377V48h-1.072c-.22 0-.39-.031-.51-.093-.113-.063-.206-.193-.28-.391l-.187-.561a7.9 7.9 0 01-.646.51 3.828 3.828 0 01-.637.373 3.5 3.5 0 01-.715.221c-.249.052-.53.077-.841.077a3.43 3.43 0 01-1.054-.153 2.37 2.37 0 01-.824-.45 2.067 2.067 0 01-.527-.757 2.686 2.686 0 01-.188-1.037c0-.323.083-.646.247-.969.164-.323.445-.615.841-.876.403-.266.936-.484 1.599-.654.668-.176 1.504-.275 2.507-.297v-.451c0-.55-.116-.952-.349-1.207-.232-.26-.566-.391-1.003-.391-.322 0-.592.04-.807.119a3.574 3.574 0 00-.57.247c-.158.084-.308.167-.45.246-.142.074-.306.11-.493.11a.708.708 0 01-.416-.118 1.232 1.232 0 01-.272-.298l-.417-.748zm11.776 5.236c.221.255.46.433.714.535.261.102.53.154.808.154.289 0 .55-.052.782-.154.238-.107.442-.274.612-.501.17-.232.3-.533.39-.901.092-.368.137-.813.137-1.334a5.4 5.4 0 00-.11-1.182 2.252 2.252 0 00-.332-.807 1.274 1.274 0 00-.527-.46 1.735 1.735 0 00-.731-.144c-.368 0-.689.082-.96.247a3.06 3.06 0 00-.783.705v3.842zm0-5.44a4.4 4.4 0 011.148-.833c.42-.21.89-.315 1.41-.315.505 0 .959.102 1.36.306.409.199.755.485 1.038.859.289.374.51.827.663 1.36.159.527.238 1.12.238 1.776 0 .709-.09 1.355-.272 1.938a4.437 4.437 0 01-.757 1.488 3.354 3.354 0 01-2.703 1.3 2.876 2.876 0 01-1.326-.306 2.788 2.788 0 01-.501-.34 4.093 4.093 0 01-.434-.45l-.093.527c-.04.164-.105.28-.196.349a.635.635 0 01-.365.093H41.04V35.327h2.346v4.921zm12.483 4.089c-.572.028-1.048.079-1.427.152-.38.069-.683.16-.91.273-.221.113-.38.243-.476.39a.85.85 0 00-.136.468c0 .34.093.58.28.723.193.141.46.212.8.212.39 0 .728-.068 1.011-.204.289-.142.575-.36.858-.654v-1.36zm-4.776-3.885a5.183 5.183 0 011.708-1.037 5.748 5.748 0 012.023-.349c.521 0 .986.085 1.394.255.414.17.762.409 1.045.715.29.3.51.66.663 1.079.154.42.23.878.23 1.377V48h-1.071c-.221 0-.391-.031-.51-.093-.113-.063-.207-.193-.28-.391l-.188-.561a7.883 7.883 0 01-.645.51 3.828 3.828 0 01-.638.373 3.5 3.5 0 01-.714.221c-.25.052-.53.077-.841.077-.386 0-.737-.051-1.055-.153a2.372 2.372 0 01-.824-.45 2.069 2.069 0 01-.527-.757 2.688 2.688 0 01-.187-1.037c0-.323.082-.646.246-.969.165-.323.445-.615.842-.876.402-.266.935-.484 1.598-.654.669-.176 1.505-.275 2.508-.297v-.451c0-.55-.117-.952-.349-1.207-.232-.26-.567-.391-1.003-.391-.323 0-.592.04-.807.119a3.582 3.582 0 00-.57.247 28.23 28.23 0 00-.45.246c-.142.074-.306.11-.493.11a.709.709 0 01-.417-.118 1.236 1.236 0 01-.272-.298l-.416-.748zm11.631.23c.278-.5.598-.893.961-1.182a1.985 1.985 0 011.275-.434c.397 0 .72.094.969.281l-.153 1.734c-.028.113-.074.193-.136.238a.41.41 0 01-.238.06c-.09 0-.221-.012-.391-.035a2.91 2.91 0 00-.476-.042c-.215 0-.408.031-.578.093-.164.063-.312.15-.442.264-.13.113-.25.252-.357.416a4.29 4.29 0 00-.289.561V48h-2.346v-8.764h1.386c.238 0 .402.043.493.128.09.085.155.232.195.442l.127.876zm7.157-1.446V48h-2.346v-8.764h2.346zm.28-2.49c0 .198-.04.383-.119.552-.079.17-.187.32-.323.451-.13.13-.286.232-.467.306-.176.074-.366.11-.57.11-.192 0-.377-.036-.552-.11a1.443 1.443 0 01-.45-.306 1.57 1.57 0 01-.315-.45 1.374 1.374 0 01-.11-.553c0-.198.036-.383.11-.553.08-.175.184-.328.314-.459.13-.13.28-.232.45-.306.177-.073.36-.11.553-.11.204 0 .394.037.57.11.181.074.337.176.467.306.136.13.244.284.323.46.08.17.12.354.12.552zm5.284 11.39c-.397 0-.748-.057-1.054-.17a2.15 2.15 0 01-.774-.502 2.105 2.105 0 01-.476-.782 3.111 3.111 0 01-.161-1.037V40.92h-.825a.475.475 0 01-.323-.118c-.085-.08-.127-.199-.127-.358v-.917l1.402-.256.476-2.269c.062-.255.235-.383.519-.383h1.224v2.67h2.26v1.632h-2.26v4.572c0 .244.056.437.17.579.119.141.286.212.501.212.113 0 .21-.011.29-.034.078-.028.146-.057.203-.085.057-.034.108-.062.153-.085a.313.313 0 01.153-.043c.068 0 .125.017.17.051.045.029.09.08.136.153l.706 1.122a3.443 3.443 0 01-1.097.578c-.408.13-.83.196-1.266.196zm13.919-6.622a1.863 1.863 0 00-.723-.535 2.177 2.177 0 00-.816-.153c-.283 0-.541.054-.773.161a1.561 1.561 0 00-.604.51 2.554 2.554 0 00-.382.876c-.091.357-.136.782-.136 1.275 0 .487.036.901.11 1.241.074.34.178.615.315.825.141.21.311.362.51.459.198.09.419.136.662.136.414 0 .76-.083 1.037-.247.284-.164.55-.397.8-.697v-3.85zm2.346-6.188V48h-1.445c-.3 0-.494-.136-.579-.408l-.195-.765a4.897 4.897 0 01-.561.527 3.663 3.663 0 01-.629.416 3.39 3.39 0 01-.731.264c-.26.062-.544.093-.85.093-.47 0-.901-.099-1.292-.297a2.961 2.961 0 01-1.02-.867c-.283-.385-.504-.856-.663-1.411-.159-.555-.238-1.19-.238-1.904 0-.652.088-1.258.264-1.819a4.496 4.496 0 01.764-1.453 3.552 3.552 0 011.19-.961c.465-.232.98-.349 1.547-.349.477 0 .876.071 1.199.213.329.142.626.334.893.578v-4.53h2.346zm8.046 7.26c0-.244-.034-.477-.102-.697a1.572 1.572 0 00-.306-.587 1.462 1.462 0 00-.536-.4 1.794 1.794 0 00-.773-.153c-.561 0-1 .16-1.318.476-.317.318-.524.771-.62 1.36h3.655zm-3.69 1.394c.074.821.307 1.422.698 1.802.396.38.912.569 1.547.569.323 0 .6-.037.833-.11.238-.08.445-.165.62-.255.181-.097.343-.182.485-.255a.907.907 0 01.433-.12c.181 0 .323.069.425.205l.68.85c-.249.289-.524.53-.824.722a4.742 4.742 0 01-.935.45c-.323.108-.65.182-.978.221a6.975 6.975 0 01-.952.069c-.612 0-1.184-.1-1.717-.298a4.017 4.017 0 01-1.385-.892 4.258 4.258 0 01-.927-1.471c-.226-.584-.34-1.26-.34-2.032 0-.595.096-1.156.29-1.683.198-.527.48-.986.85-1.377.367-.39.815-.7 1.342-.926.527-.232 1.122-.349 1.785-.349.561 0 1.077.091 1.547.273a3.343 3.343 0 012.023 2.031c.193.493.289 1.057.289 1.691 0 .176-.008.32-.025.434a.784.784 0 01-.085.272.334.334 0 01-.162.145.849.849 0 01-.263.034h-5.253zM108.419 48v-8.764h1.445c.294 0 .49.137.586.409l.136.569a6.7 6.7 0 01.468-.442c.164-.136.34-.252.527-.349.187-.102.388-.18.603-.238.221-.056.459-.085.714-.085.538 0 .983.145 1.335.434.351.283.617.663.799 1.139.141-.278.314-.516.518-.714a2.81 2.81 0 01.68-.493c.249-.125.51-.215.782-.272.278-.062.555-.094.833-.094.493 0 .929.074 1.309.221.38.148.697.366.952.655.261.283.459.632.595 1.046.136.413.204.884.204 1.41V48h-2.346v-5.568c0-1.025-.439-1.538-1.317-1.538-.199 0-.383.034-.553.102a1.245 1.245 0 00-.442.289c-.125.13-.224.292-.297.485a1.988 1.988 0 00-.102.662V48h-2.346v-5.568c0-.555-.111-.949-.332-1.181-.215-.238-.535-.357-.96-.357-.272 0-.53.065-.774.196-.238.124-.462.3-.671.526V48h-2.346zm20.438-5.414c0-.244-.034-.477-.102-.697a1.56 1.56 0 00-.306-.587 1.46 1.46 0 00-.536-.4 1.791 1.791 0 00-.773-.153c-.561 0-1 .16-1.318.476-.317.318-.524.771-.62 1.36h3.655zm-3.689 1.394c.074.821.306 1.422.697 1.802.397.38.912.569 1.547.569.323 0 .601-.037.833-.11.238-.08.445-.165.62-.255.182-.097.343-.182.485-.255a.91.91 0 01.433-.12.5.5 0 01.425.205l.68.85c-.249.289-.524.53-.824.722-.3.187-.612.337-.935.45a4.966 4.966 0 01-.978.221 6.967 6.967 0 01-.952.069c-.612 0-1.184-.1-1.717-.298a4.018 4.018 0 01-1.385-.892 4.265 4.265 0 01-.927-1.471c-.226-.584-.34-1.26-.34-2.032 0-.595.097-1.156.289-1.683.199-.527.482-.986.85-1.377.369-.39.816-.7 1.343-.926.527-.232 1.122-.349 1.785-.349.561 0 1.077.091 1.547.273.476.175.884.433 1.224.773.346.34.612.76.799 1.258.193.493.289 1.057.289 1.691 0 .176-.008.32-.025.434a.763.763 0 01-.085.272.334.334 0 01-.162.145.844.844 0 01-.263.034h-5.253zm13.228-2.941a.715.715 0 01-.195.212.49.49 0 01-.264.06.806.806 0 01-.348-.086 9.518 9.518 0 00-.4-.178 3.713 3.713 0 00-.51-.187 2.261 2.261 0 00-.654-.085c-.38 0-.674.08-.884.238a.72.72 0 00-.315.612.6.6 0 00.179.442c.119.119.275.224.467.315.199.085.423.167.672.246.249.074.504.156.765.246.266.091.524.196.773.315.25.119.471.27.663.45.199.176.357.392.476.646.119.25.179.553.179.91 0 .425-.079.819-.238 1.181-.153.358-.38.666-.68.927-.3.26-.674.465-1.122.612-.448.147-.963.221-1.547.221-.3 0-.598-.028-.893-.085a4.958 4.958 0 01-.841-.221 5.679 5.679 0 01-.748-.349 3.357 3.357 0 01-.604-.425l.544-.875a.717.717 0 01.23-.238.71.71 0 01.365-.085c.142 0 .272.037.391.11l.4.23c.147.08.32.156.518.23.204.068.457.102.757.102.227 0 .422-.026.586-.077.165-.051.298-.119.4-.204a.828.828 0 00.221-.297.84.84 0 00.076-.349.616.616 0 00-.187-.468 1.518 1.518 0 00-.476-.322 4.513 4.513 0 00-.671-.247 17.362 17.362 0 01-.782-.247 6.966 6.966 0 01-.774-.323 2.792 2.792 0 01-.671-.467 2.341 2.341 0 01-.476-.706c-.119-.277-.179-.614-.179-1.011 0-.363.071-.706.213-1.029.142-.328.354-.617.637-.867a3.17 3.17 0 011.054-.594c.425-.148.916-.222 1.471-.222.623 0 1.19.102 1.7.306.51.205.929.47 1.258.8l-.536.832zm8.057 0a.73.73 0 01-.196.212.488.488 0 01-.263.06.807.807 0 01-.349-.086 10.051 10.051 0 00-.399-.178 3.813 3.813 0 00-.51-.187 2.264 2.264 0 00-.655-.085c-.379 0-.674.08-.884.238a.722.722 0 00-.314.612.6.6 0 00.178.442c.119.119.275.224.468.315.198.085.422.167.671.246.25.074.505.156.765.246.267.091.524.196.774.315.249.119.47.27.663.45.198.176.357.392.476.646.119.25.178.553.178.91 0 .425-.079.819-.238 1.181a2.53 2.53 0 01-.68.927c-.3.26-.674.465-1.122.612-.447.147-.963.221-1.547.221-.3 0-.598-.028-.892-.085a4.969 4.969 0 01-.842-.221 5.74 5.74 0 01-.748-.349 3.348 3.348 0 01-.603-.425l.544-.875a.714.714 0 01.229-.238.714.714 0 01.366-.085.73.73 0 01.391.11l.399.23c.148.08.32.156.519.23.204.068.456.102.756.102.227 0 .422-.026.587-.077a1.15 1.15 0 00.399-.204.828.828 0 00.221-.297.842.842 0 00.077-.349.62.62 0 00-.187-.468 1.53 1.53 0 00-.476-.322 4.57 4.57 0 00-.672-.247 17.775 17.775 0 01-.782-.247 7.032 7.032 0 01-.773-.323 2.798 2.798 0 01-.672-.467 2.36 2.36 0 01-.476-.706c-.119-.277-.178-.614-.178-1.011 0-.363.071-.706.212-1.029.142-.328.354-.617.638-.867a3.15 3.15 0 011.054-.594c.425-.148.915-.222 1.47-.222.624 0 1.19.102 1.7.306.51.205.93.47 1.258.8l-.535.832zm7.189 3.297c-.572.029-1.048.08-1.428.154-.38.067-.683.158-.91.271-.221.114-.379.244-.476.392a.855.855 0 00-.136.467c0 .34.094.58.281.723.193.141.459.212.799.212.391 0 .728-.068 1.011-.204.289-.142.576-.36.859-.654v-1.36zm-4.777-3.884a5.187 5.187 0 011.708-1.037 5.752 5.752 0 012.023-.349c.522 0 .986.085 1.394.255.414.17.763.409 1.046.715.289.3.51.66.663 1.079.153.42.229.878.229 1.377V48h-1.071c-.221 0-.391-.031-.51-.093-.113-.063-.206-.193-.28-.391l-.187-.561a7.832 7.832 0 01-.646.51 3.832 3.832 0 01-.638.373 3.5 3.5 0 01-.714.221 4.207 4.207 0 01-.841.077c-.385 0-.737-.051-1.054-.153a2.383 2.383 0 01-.825-.45 2.08 2.08 0 01-.527-.757 2.7 2.7 0 01-.187-1.037c0-.323.083-.646.247-.969.164-.323.445-.615.841-.876.403-.266.935-.484 1.598-.654.669-.176 1.505-.275 2.508-.297v-.451c0-.55-.116-.952-.349-1.207-.232-.26-.566-.391-1.003-.391-.323 0-.592.04-.807.119a3.625 3.625 0 00-.57.247c-.158.084-.308.167-.45.246-.142.074-.306.11-.493.11a.712.712 0 01-.417-.118 1.255 1.255 0 01-.272-.298l-.416-.748zm12.694 2.839c.482 0 .836-.122 1.063-.365.232-.244.348-.559.348-.944 0-.402-.116-.717-.348-.944-.227-.232-.581-.348-1.063-.348-.481 0-.836.116-1.062.349-.227.226-.34.54-.34.943 0 .38.113.694.34.944.232.243.586.365 1.062.365zm2.219 5.066a.504.504 0 00-.145-.374 1 1 0 00-.391-.23 2.436 2.436 0 00-.569-.118 8.632 8.632 0 00-.706-.06 30.15 30.15 0 00-.773-.043 11.48 11.48 0 01-.782-.059c-.199.119-.363.26-.493.425a.855.855 0 00-.187.544c0 .142.031.272.093.391a.835.835 0 00.332.306c.153.085.354.15.603.195.25.051.561.077.935.077.386 0 .711-.026.978-.077.266-.05.481-.124.646-.22a.846.846 0 00.459-.757zm2.329-8.831v.858c0 .136-.04.244-.119.323-.074.08-.199.139-.374.178l-.714.145c.096.278.144.575.144.892 0 .437-.09.83-.272 1.182a2.687 2.687 0 01-.731.892c-.311.244-.68.434-1.105.57-.425.13-.884.195-1.377.195a4.75 4.75 0 01-.875-.076c-.238.147-.357.309-.357.484 0 .165.079.284.238.358.164.073.377.127.637.161.267.028.567.048.901.06.34.005.683.022 1.029.05.351.029.694.08 1.028.154.34.068.641.184.901.348.267.159.479.371.638.638.164.266.246.609.246 1.028 0 .391-.096.77-.289 1.139a3.052 3.052 0 01-.841.986c-.363.289-.811.521-1.343.697-.533.176-1.139.264-1.819.264-.675 0-1.261-.066-1.76-.196-.493-.125-.904-.295-1.232-.51a2.169 2.169 0 01-.723-.731 1.73 1.73 0 01-.238-.867c0-.391.119-.722.357-.994.238-.273.567-.49.986-.655a1.577 1.577 0 01-.535-.484c-.131-.205-.196-.468-.196-.791 0-.26.094-.535.281-.825.192-.288.487-.53.884-.722a2.838 2.838 0 01-1.063-.952c-.26-.402-.391-.87-.391-1.403 0-.436.088-.83.264-1.181.181-.351.43-.649.748-.892.317-.25.691-.44 1.122-.57.43-.13.898-.196 1.402-.196.748 0 1.408.148 1.981.443h2.567zm7.148 3.06c0-.244-.034-.477-.102-.697a1.56 1.56 0 00-.306-.587 1.457 1.457 0 00-.535-.4 1.796 1.796 0 00-.774-.153c-.561 0-1 .16-1.317.476-.318.318-.524.771-.621 1.36h3.655zm-3.689 1.394c.074.821.306 1.422.697 1.802.397.38.913.569 1.547.569.323 0 .601-.037.833-.11.238-.08.445-.165.621-.255.181-.097.343-.182.484-.255a.914.914 0 01.434-.12c.181 0 .323.069.425.205l.68.85c-.25.289-.524.53-.825.722-.3.187-.612.337-.935.45a4.973 4.973 0 01-.977.221 6.978 6.978 0 01-.952.069 4.88 4.88 0 01-1.717-.298 4.023 4.023 0 01-1.386-.892 4.248 4.248 0 01-.926-1.471c-.227-.584-.34-1.26-.34-2.032 0-.595.096-1.156.289-1.683.198-.527.481-.986.85-1.377.368-.39.816-.7 1.343-.926.527-.232 1.122-.349 1.785-.349.561 0 1.076.091 1.547.273.476.175.884.433 1.224.773.345.34.612.76.799 1.258.192.493.289 1.057.289 1.691 0 .176-.009.32-.026.434a.763.763 0 01-.085.272.328.328 0 01-.161.145.851.851 0 01-.264.034h-5.253zM22.944 72l-2.82-7.512h-.048c.024.248.044.584.06 1.008.016.416.024.852.024 1.308V72h-.996v-8.568h1.596l2.64 7.02h.048l2.688-7.02h1.584V72h-1.068v-5.268c0-.416.008-.828.024-1.236l.06-.996h-.048L23.832 72h-.888zm9.982-6.552c.552 0 1.024.12 1.416.36.4.24.704.58.912 1.02.216.432.324.94.324 1.524v.636h-4.404c.016.728.2 1.284.552 1.668.36.376.86.564 1.5.564.408 0 .768-.036 1.08-.108.32-.08.648-.192.984-.336v.924a4.723 4.723 0 01-.972.312c-.32.072-.7.108-1.14.108-.608 0-1.148-.124-1.62-.372a2.642 2.642 0 01-1.092-1.104c-.256-.496-.384-1.1-.384-1.812 0-.704.116-1.308.348-1.812.24-.504.572-.892.996-1.164.432-.272.932-.408 1.5-.408zm-.012.864c-.504 0-.904.164-1.2.492-.288.32-.46.768-.516 1.344h3.276c-.008-.544-.136-.984-.384-1.32-.248-.344-.64-.516-1.176-.516zm9.026 3.912c0 .624-.232 1.096-.696 1.416-.464.32-1.088.48-1.872.48a5.49 5.49 0 01-1.164-.108 3.553 3.553 0 01-.852-.3v-.96c.256.128.564.248.924.36.368.104.74.156 1.116.156.536 0 .924-.084 1.164-.252a.823.823 0 00.36-.696.745.745 0 00-.132-.432c-.088-.128-.248-.256-.48-.384a7.127 7.127 0 00-.972-.432 9.254 9.254 0 01-1.068-.48 1.972 1.972 0 01-.684-.576c-.16-.224-.24-.512-.24-.864 0-.544.22-.964.66-1.26.448-.296 1.032-.444 1.752-.444.392 0 .756.04 1.092.12a4.5 4.5 0 01.96.312l-.36.84a7.101 7.101 0 00-.852-.288 3.48 3.48 0 00-.912-.12c-.432 0-.764.072-.996.216-.224.136-.336.324-.336.564a.7.7 0 00.156.456c.104.12.276.24.516.36.248.112.576.248.984.408.408.152.756.308 1.044.468.288.16.508.356.66.588.152.224.228.508.228.852zm6.278 0c0 .624-.233 1.096-.697 1.416-.464.32-1.087.48-1.871.48a5.49 5.49 0 01-1.164-.108 3.553 3.553 0 01-.852-.3v-.96c.255.128.563.248.923.36.368.104.74.156 1.116.156.536 0 .924-.084 1.164-.252a.823.823 0 00.36-.696.745.745 0 00-.132-.432c-.087-.128-.247-.256-.48-.384a7.127 7.127 0 00-.971-.432 9.254 9.254 0 01-1.069-.48 1.972 1.972 0 01-.684-.576c-.16-.224-.24-.512-.24-.864 0-.544.22-.964.66-1.26.449-.296 1.032-.444 1.752-.444.392 0 .756.04 1.093.12a4.5 4.5 0 01.96.312l-.36.84a7.101 7.101 0 00-.852-.288 3.48 3.48 0 00-.913-.12c-.431 0-.764.072-.995.216-.224.136-.337.324-.337.564a.7.7 0 00.157.456c.103.12.276.24.515.36.248.112.576.248.984.408.409.152.757.308 1.045.468.288.16.508.356.66.588.151.224.227.508.227.852zm4.525-4.764c.784 0 1.364.172 1.74.516.376.344.564.892.564 1.644V72h-.768l-.204-.912h-.048c-.28.352-.576.612-.888.78-.304.168-.728.252-1.272.252-.584 0-1.068-.152-1.452-.456-.384-.312-.576-.796-.576-1.452 0-.64.252-1.132.756-1.476.504-.352 1.28-.544 2.328-.576l1.092-.036v-.384c0-.536-.116-.908-.348-1.116-.232-.208-.56-.312-.984-.312-.336 0-.656.052-.96.156a6.297 6.297 0 00-.852.336l-.324-.792c.28-.152.612-.28.996-.384a4.264 4.264 0 011.2-.168zm1.26 3.396l-.948.036c-.8.032-1.356.16-1.668.384-.304.224-.456.54-.456.948 0 .36.108.624.324.792.224.168.508.252.852.252.544 0 .996-.148 1.356-.444.36-.304.54-.768.54-1.392v-.576zm5.847-3.408c.424 0 .804.08 1.14.24.344.16.636.404.876.732h.06l.144-.852h.84v6.54c0 .92-.236 1.612-.708 2.076-.464.464-1.188.696-2.172.696-.944 0-1.716-.136-2.316-.408V73.5c.632.336 1.424.504 2.376.504.552 0 .984-.164 1.296-.492.32-.32.48-.76.48-1.32v-.252c0-.096.004-.232.012-.408.008-.184.016-.312.024-.384h-.048c-.432.648-1.096.972-1.992.972-.832 0-1.484-.292-1.956-.876-.464-.584-.696-1.4-.696-2.448 0-1.024.232-1.836.696-2.436.472-.608 1.12-.912 1.944-.912zm.144.888c-.536 0-.952.216-1.248.648-.296.424-.444 1.032-.444 1.824s.144 1.4.432 1.824c.296.416.724.624 1.284.624.648 0 1.12-.172 1.416-.516.296-.352.444-.916.444-1.692v-.252c0-.88-.152-1.508-.456-1.884-.304-.384-.78-.576-1.428-.576zm7.978-.888c.552 0 1.024.12 1.416.36.4.24.704.58.912 1.02.216.432.324.94.324 1.524v.636H66.22c.016.728.2 1.284.552 1.668.36.376.86.564 1.5.564.408 0 .768-.036 1.08-.108.32-.08.648-.192.984-.336v.924a4.723 4.723 0 01-.972.312c-.32.072-.7.108-1.14.108-.608 0-1.148-.124-1.62-.372a2.642 2.642 0 01-1.092-1.104c-.256-.496-.384-1.1-.384-1.812 0-.704.116-1.308.348-1.812.24-.504.572-.892.996-1.164.432-.272.932-.408 1.5-.408zm-.012.864c-.504 0-.904.164-1.2.492-.288.32-.46.768-.516 1.344h3.276c-.008-.544-.136-.984-.384-1.32-.248-.344-.64-.516-1.176-.516zM33.024 94.708c0 .76-.276 1.352-.828 1.776-.552.424-1.296.636-2.232.636-.48 0-.924-.036-1.332-.108a4.082 4.082 0 01-1.02-.3V95.68c.288.128.644.244 1.068.348a5.67 5.67 0 001.332.156c.64 0 1.12-.124 1.44-.372.328-.248.492-.584.492-1.008 0-.28-.06-.516-.18-.708-.12-.192-.328-.368-.624-.528-.288-.168-.692-.344-1.212-.528-.728-.264-1.28-.588-1.656-.972-.368-.384-.552-.908-.552-1.572 0-.456.116-.844.348-1.164.232-.328.552-.58.96-.756.416-.176.892-.264 1.428-.264.472 0 .904.044 1.296.132.392.088.748.204 1.068.348l-.336.924a6.292 6.292 0 00-.972-.324 4.342 4.342 0 00-1.08-.132c-.536 0-.94.116-1.212.348-.272.224-.408.524-.408.9 0 .288.06.528.18.72.12.192.316.364.588.516.272.152.64.316 1.104.492.504.184.928.384 1.272.6.352.208.616.46.792.756.184.296.276.668.276 1.116zm4.554-4.248c.784 0 1.364.172 1.74.516.376.344.564.892.564 1.644V97h-.768l-.204-.912h-.048c-.28.352-.576.612-.888.78-.304.168-.728.252-1.272.252-.584 0-1.068-.152-1.452-.456-.384-.312-.576-.796-.576-1.452 0-.64.252-1.132.756-1.476.504-.352 1.28-.544 2.328-.576l1.092-.036v-.384c0-.536-.116-.908-.348-1.116-.232-.208-.56-.312-.984-.312-.336 0-.656.052-.96.156a6.297 6.297 0 00-.852.336l-.324-.792c.28-.152.612-.28.996-.384a4.264 4.264 0 011.2-.168zm.312 3.432c-.8.032-1.356.16-1.668.384-.304.224-.456.54-.456.948 0 .36.108.624.324.792.224.168.508.252.852.252.544 0 .996-.148 1.356-.444.36-.304.54-.768.54-1.392v-.576l-.948.036zM43.46 97h-1.056v-9.12h1.056V97zm7.95-6.432V97h-.865l-.156-.852h-.048a1.867 1.867 0 01-.864.744 3.05 3.05 0 01-1.176.228c-.776 0-1.36-.184-1.752-.552-.392-.376-.588-.972-.588-1.788v-4.212h1.068v4.14c0 1.024.476 1.536 1.428 1.536.712 0 1.204-.2 1.476-.6.28-.4.42-.976.42-1.728v-3.348h1.056zm4.725 5.688c.16 0 .324-.012.492-.036.168-.032.304-.064.408-.096v.804a1.68 1.68 0 01-.48.132c-.208.04-.408.06-.6.06a2.56 2.56 0 01-.936-.168 1.479 1.479 0 01-.684-.612c-.176-.288-.264-.692-.264-1.212v-3.744h-.912v-.504l.924-.42.42-1.368h.624v1.476h1.86v.816h-1.86v3.72c0 .392.092.684.276.876.192.184.436.276.732.276zm5.837-2.544c0-.976.14-1.916.42-2.82a7.167 7.167 0 011.344-2.46h.996a8.396 8.396 0 00-1.272 2.484 9.356 9.356 0 00-.42 2.784c0 .928.14 1.84.42 2.736a8.63 8.63 0 001.26 2.46h-.984a6.85 6.85 0 01-1.344-2.388 9.319 9.319 0 01-.42-2.796zm4.133 0c0-.976.14-1.916.42-2.82a7.167 7.167 0 011.344-2.46h.996a8.396 8.396 0 00-1.272 2.484 9.356 9.356 0 00-.42 2.784c0 .928.14 1.84.42 2.736a8.63 8.63 0 001.26 2.46h-.984a6.85 6.85 0 01-1.344-2.388 9.319 9.319 0 01-.42-2.796zm7.733-3.264c.792 0 1.428.276 1.908.828.488.552.732 1.384.732 2.496 0 1.096-.244 1.928-.732 2.496-.48.568-1.12.852-1.92.852-.496 0-.908-.092-1.236-.276a2.57 2.57 0 01-.756-.66h-.072c.016.136.032.308.048.516.016.208.024.388.024.54v2.64h-1.056v-9.312h.864l.144.876h.048c.192-.28.444-.516.756-.708.312-.192.728-.288 1.248-.288zm-.192.888c-.656 0-1.12.184-1.392.552-.264.368-.404.928-.42 1.68v.204c0 .792.128 1.404.384 1.836.264.424.748.636 1.452.636.392 0 .712-.108.96-.324.256-.216.444-.508.564-.876.128-.376.192-.804.192-1.284 0-.736-.144-1.324-.432-1.764-.28-.44-.716-.66-1.308-.66zm8.05-.888c.12 0 .249.008.385.024.144.008.268.024.372.048l-.132.972a3.47 3.47 0 00-.696-.084c-.328 0-.636.092-.924.276-.288.176-.52.428-.696.756-.168.32-.252.696-.252 1.128V97h-1.056v-6.432h.864l.12 1.176h.048c.208-.352.476-.656.804-.912a1.836 1.836 0 011.164-.384zm4.743 0c.552 0 1.024.12 1.416.36.4.24.704.58.912 1.02.216.432.324.94.324 1.524v.636h-4.404c.016.728.2 1.284.552 1.668.36.376.86.564 1.5.564.408 0 .768-.036 1.08-.108.32-.08.648-.192.984-.336v.924a4.723 4.723 0 01-.972.312c-.32.072-.7.108-1.14.108-.608 0-1.148-.124-1.62-.372a2.642 2.642 0 01-1.092-1.104c-.256-.496-.384-1.1-.384-1.812 0-.704.116-1.308.348-1.812.24-.504.572-.892.996-1.164.432-.272.932-.408 1.5-.408zm-.012.864c-.504 0-.904.164-1.2.492-.288.32-.46.768-.516 1.344h3.276c-.008-.544-.136-.984-.384-1.32-.248-.344-.64-.516-1.176-.516zm1.62-3.384a6.178 6.178 0 01-.444.564c-.2.224-.416.452-.648.684a5.954 5.954 0 01-.624.552h-.696v-.144c.12-.152.248-.332.384-.54.144-.208.284-.42.42-.636.136-.224.248-.424.336-.6h1.272v.12zm6.313 2.52c.768 0 1.348.188 1.74.564.392.368.588.968.588 1.8V97h-1.044v-4.116c0-1.032-.48-1.548-1.44-1.548-.712 0-1.204.2-1.476.6-.272.4-.408.976-.408 1.728V97h-1.056v-6.432h.852l.156.876h.06c.208-.336.496-.584.864-.744a2.77 2.77 0 011.164-.252zm10.45 3.324c0 1.064-.272 1.888-.816 2.472-.536.584-1.264.876-2.184.876a3.017 3.017 0 01-1.524-.384 2.778 2.778 0 01-1.044-1.14c-.256-.504-.384-1.112-.384-1.824 0-1.064.268-1.884.804-2.46.536-.576 1.264-.864 2.184-.864.584 0 1.096.132 1.536.396.448.256.796.632 1.044 1.128.256.488.384 1.088.384 1.8zm-4.86 0c0 .76.148 1.364.444 1.812.304.44.784.66 1.44.66.648 0 1.124-.22 1.428-.66.304-.448.456-1.052.456-1.812s-.152-1.356-.456-1.788c-.304-.432-.784-.648-1.44-.648-.656 0-1.132.216-1.428.648-.296.432-.444 1.028-.444 1.788zm14.125-3.324c.728 0 1.272.188 1.632.564.36.368.54.968.54 1.8V97h-1.044v-4.14c0-1.016-.436-1.524-1.308-1.524-.624 0-1.072.18-1.344.54-.264.36-.396.884-.396 1.572V97h-1.044v-4.14c0-1.016-.44-1.524-1.32-1.524-.648 0-1.096.2-1.344.6-.248.4-.372.976-.372 1.728V97h-1.056v-6.432h.852l.156.876h.06c.2-.336.468-.584.804-.744a2.457 2.457 0 011.092-.252c1.008 0 1.664.36 1.968 1.08h.06c.216-.368.508-.64.876-.816a2.77 2.77 0 011.188-.264zm6.795 3.264c0 .968-.144 1.9-.432 2.796a6.697 6.697 0 01-1.332 2.388h-.984a8.398 8.398 0 001.248-2.46 8.89 8.89 0 00.432-2.736c0-.952-.144-1.88-.432-2.784a8.18 8.18 0 00-1.26-2.484h.996a7.007 7.007 0 011.332 2.46c.288.904.432 1.844.432 2.82zm4.133 0c0 .968-.144 1.9-.432 2.796a6.697 6.697 0 01-1.332 2.388h-.984a8.398 8.398 0 001.248-2.46 8.89 8.89 0 00.432-2.736c0-.952-.144-1.88-.432-2.784a8.18 8.18 0 00-1.26-2.484h.996a7.007 7.007 0 011.332 2.46c.288.904.432 1.844.432 2.82zm3.318 2.028c-.104.424-.256.888-.456 1.392-.192.512-.384.984-.576 1.416h-.78c.112-.456.224-.956.336-1.5.12-.544.208-1.024.264-1.44h1.128l.084.132zm-96.485 10.52c-.92 0-1.644.308-2.172.924-.528.616-.792 1.46-.792 2.532 0 1.064.244 1.908.732 2.532.496.616 1.236.924 2.22.924.376 0 .732-.032 1.068-.096a9.81 9.81 0 00.984-.24v.936c-.32.12-.652.208-.996.264a7.5 7.5 0 01-1.212.084c-.872 0-1.6-.18-2.184-.54-.584-.36-1.024-.872-1.32-1.536-.288-.664-.432-1.444-.432-2.34 0-.864.156-1.624.468-2.28a3.56 3.56 0 011.404-1.548c.616-.376 1.364-.564 2.244-.564.904 0 1.692.168 2.364.504l-.432.912a6.693 6.693 0 00-.888-.324 3.664 3.664 0 00-1.056-.144zm6.786 1.188c.552 0 1.024.12 1.416.36.4.24.704.58.912 1.02.216.432.324.94.324 1.524v.636H36.87c.016.728.2 1.284.552 1.668.36.376.86.564 1.5.564.408 0 .768-.036 1.08-.108.32-.08.648-.192.984-.336v.924a4.723 4.723 0 01-.972.312c-.32.072-.7.108-1.14.108-.608 0-1.148-.124-1.62-.372a2.642 2.642 0 01-1.092-1.104c-.256-.496-.384-1.1-.384-1.812 0-.704.116-1.308.348-1.812.24-.504.572-.892.996-1.164.432-.272.932-.408 1.5-.408zm-.012.864c-.504 0-.904.164-1.2.492-.288.32-.46.768-.516 1.344h3.276c-.008-.544-.136-.984-.384-1.32-.248-.344-.64-.516-1.176-.516zm7.417 5.808a3.265 3.265 0 01-1.524-.348c-.44-.232-.788-.592-1.044-1.08-.248-.488-.372-1.112-.372-1.872 0-.792.132-1.436.396-1.932s.62-.86 1.068-1.092a3.365 3.365 0 011.548-.348 4.1 4.1 0 01.948.108c.304.064.552.144.744.24l-.324.876a6.244 6.244 0 00-.672-.204 2.976 2.976 0 00-.72-.096c-1.264 0-1.896.812-1.896 2.436 0 .776.152 1.372.456 1.788.312.408.772.612 1.38.612.352 0 .66-.036.924-.108a4.5 4.5 0 00.744-.264v.936a2.834 2.834 0 01-.72.252 3.917 3.917 0 01-.936.096zm4.261-8.964c.16 0 .3.056.42.168.128.104.192.272.192.504 0 .224-.064.392-.192.504a.596.596 0 01-.42.168.626.626 0 01-.444-.168c-.12-.112-.18-.28-.18-.504 0-.232.06-.4.18-.504a.626.626 0 01.444-.168zm.516 2.412V114h-1.056v-6.432h1.056zm8.71-.12c.553 0 1.025.12 1.417.36.4.24.704.58.912 1.02.216.432.324.94.324 1.524v.636h-4.404c.016.728.2 1.284.552 1.668.36.376.86.564 1.5.564.408 0 .768-.036 1.08-.108.32-.08.648-.192.984-.336v.924a4.723 4.723 0 01-.972.312c-.32.072-.7.108-1.14.108-.608 0-1.148-.124-1.62-.372a2.642 2.642 0 01-1.092-1.104c-.256-.496-.384-1.1-.384-1.812 0-.704.116-1.308.348-1.812.24-.504.572-.892.996-1.164.432-.272.932-.408 1.5-.408zm-.011.864c-.504 0-.904.164-1.2.492-.288.32-.46.768-.516 1.344h3.276c-.008-.544-.136-.984-.384-1.32-.248-.344-.64-.516-1.176-.516zm9.025 3.912c0 .624-.232 1.096-.696 1.416-.464.32-1.088.48-1.872.48a5.49 5.49 0 01-1.164-.108 3.553 3.553 0 01-.852-.3v-.96c.256.128.564.248.924.36.368.104.74.156 1.116.156.536 0 .924-.084 1.164-.252a.823.823 0 00.36-.696.745.745 0 00-.132-.432c-.088-.128-.248-.256-.48-.384a7.127 7.127 0 00-.972-.432 9.254 9.254 0 01-1.068-.48 1.972 1.972 0 01-.684-.576c-.16-.224-.24-.512-.24-.864 0-.544.22-.964.66-1.26.448-.296 1.032-.444 1.752-.444.392 0 .756.04 1.092.12a4.5 4.5 0 01.96.312l-.36.84a7.101 7.101 0 00-.852-.288 3.48 3.48 0 00-.912-.12c-.432 0-.764.072-.996.216-.224.136-.336.324-.336.564a.7.7 0 00.156.456c.104.12.276.24.516.36.248.112.576.248.984.408.408.152.756.308 1.044.468.288.16.508.356.66.588.152.224.228.508.228.852zm4.238 1.032c.16 0 .324-.012.492-.036.168-.032.304-.064.408-.096v.804a1.68 1.68 0 01-.48.132c-.208.04-.408.06-.6.06a2.56 2.56 0 01-.936-.168 1.479 1.479 0 01-.684-.612c-.176-.288-.264-.692-.264-1.212v-3.744h-.912v-.504l.924-.42.42-1.368h.624v1.476h1.86v.816h-1.86v3.72c0 .392.092.684.276.876.192.184.436.276.732.276zm11.752-5.688V114h-.864l-.156-.852h-.048a1.867 1.867 0 01-.864.744 3.05 3.05 0 01-1.176.228c-.776 0-1.36-.184-1.752-.552-.392-.376-.588-.972-.588-1.788v-4.212h1.068v4.14c0 1.024.476 1.536 1.428 1.536.712 0 1.204-.2 1.476-.6.28-.4.42-.976.42-1.728v-3.348h1.056zm5.674-.12c.768 0 1.348.188 1.74.564.392.368.588.968.588 1.8V114h-1.044v-4.116c0-1.032-.48-1.548-1.44-1.548-.712 0-1.204.2-1.476.6-.272.4-.408.976-.408 1.728V114h-1.056v-6.432h.852l.156.876h.06c.208-.336.496-.584.864-.744a2.77 2.77 0 011.164-.252zm11.51 0c.12 0 .248.008.384.024.144.008.268.024.372.048l-.132.972a3.47 3.47 0 00-.696-.084c-.328 0-.636.092-.924.276-.288.176-.52.428-.696.756-.168.32-.252.696-.252 1.128V114h-1.055v-6.432h.864l.12 1.176h.047c.209-.352.476-.656.804-.912a1.836 1.836 0 011.164-.384zm4.695.012c.784 0 1.364.172 1.74.516.376.344.564.892.564 1.644V114h-.768l-.204-.912h-.048c-.28.352-.576.612-.888.78-.304.168-.728.252-1.272.252-.584 0-1.068-.152-1.452-.456-.384-.312-.576-.796-.576-1.452 0-.64.252-1.132.756-1.476.504-.352 1.28-.544 2.328-.576l1.092-.036v-.384c0-.536-.116-.908-.348-1.116-.232-.208-.56-.312-.984-.312-.336 0-.656.052-.96.156a6.297 6.297 0 00-.852.336l-.324-.792c.28-.152.612-.28.996-.384a4.264 4.264 0 011.2-.168zm.312 3.432c-.8.032-1.356.16-1.668.384-.304.224-.456.54-.456.948 0 .36.108.624.324.792.224.168.508.252.852.252.544 0 .996-.148 1.356-.444.36-.304.54-.768.54-1.392v-.576l-.948.036zm7.574-3.444c.792 0 1.428.276 1.908.828.488.552.732 1.384.732 2.496 0 1.096-.244 1.928-.732 2.496-.48.568-1.12.852-1.92.852-.496 0-.908-.092-1.236-.276a2.57 2.57 0 01-.756-.66h-.072c.016.136.032.308.048.516.016.208.024.388.024.54v2.64h-1.056v-9.312h.864l.144.876h.048c.192-.28.444-.516.756-.708.312-.192.728-.288 1.248-.288zm-.192.888c-.656 0-1.12.184-1.392.552-.264.368-.404.928-.42 1.68v.204c0 .792.128 1.404.384 1.836.264.424.748.636 1.452.636.392 0 .712-.108.96-.324.256-.216.444-.508.564-.876.128-.376.192-.804.192-1.284 0-.736-.144-1.324-.432-1.764-.28-.44-.716-.66-1.308-.66zm8.111-.888c.792 0 1.428.276 1.908.828.488.552.732 1.384.732 2.496 0 1.096-.244 1.928-.732 2.496-.48.568-1.12.852-1.92.852-.496 0-.908-.092-1.236-.276a2.57 2.57 0 01-.756-.66h-.072c.016.136.032.308.048.516.016.208.024.388.024.54v2.64h-1.056v-9.312h.864l.144.876h.048c.192-.28.444-.516.756-.708.312-.192.728-.288 1.248-.288zm-.192.888c-.656 0-1.12.184-1.392.552-.264.368-.404.928-.42 1.68v.204c0 .792.128 1.404.384 1.836.264.424.748.636 1.452.636.392 0 .712-.108.96-.324.256-.216.444-.508.564-.876.128-.376.192-.804.192-1.284 0-.736-.144-1.324-.432-1.764-.28-.44-.716-.66-1.308-.66zm7.534-.888c.552 0 1.024.12 1.416.36.4.24.704.58.912 1.02.216.432.324.94.324 1.524v.636h-4.404c.016.728.2 1.284.552 1.668.36.376.86.564 1.5.564.408 0 .768-.036 1.08-.108.32-.08.648-.192.984-.336v.924a4.723 4.723 0 01-.972.312c-.32.072-.7.108-1.14.108-.608 0-1.148-.124-1.62-.372a2.642 2.642 0 01-1.092-1.104c-.256-.496-.384-1.1-.384-1.812 0-.704.116-1.308.348-1.812.24-.504.572-.892.996-1.164.432-.272.932-.408 1.5-.408zm-.012.864c-.504 0-.904.164-1.2.492-.288.32-.46.768-.516 1.344h3.276c-.008-.544-.136-.984-.384-1.32-.248-.344-.64-.516-1.176-.516zm5.893 5.688h-1.056v-9.12h1.056V114zm8.507.12c-.8 0-1.44-.276-1.92-.828-.48-.56-.72-1.392-.72-2.496s.24-1.936.72-2.496c.488-.568 1.132-.852 1.932-.852.496 0 .9.092 1.212.276.32.184.58.408.78.672h.072a11.654 11.654 0 00-.048-.456 6.793 6.793 0 01-.024-.492v-2.568h1.056V114h-.852l-.156-.864h-.048a2.49 2.49 0 01-.768.696c-.32.192-.732.288-1.236.288zm.168-.876c.68 0 1.156-.184 1.428-.552.28-.376.42-.94.42-1.692v-.192c0-.8-.132-1.412-.396-1.836-.264-.432-.752-.648-1.464-.648-.568 0-.996.228-1.284.684-.28.448-.42 1.052-.42 1.812 0 .768.14 1.364.42 1.788.288.424.72.636 1.296.636zm7.954-5.796c.552 0 1.024.12 1.416.36.4.24.704.58.912 1.02.216.432.324.94.324 1.524v.636h-4.404c.016.728.2 1.284.552 1.668.36.376.86.564 1.5.564.408 0 .768-.036 1.08-.108.32-.08.648-.192.984-.336v.924a4.723 4.723 0 01-.972.312c-.32.072-.7.108-1.14.108-.608 0-1.148-.124-1.62-.372a2.642 2.642 0 01-1.092-1.104c-.256-.496-.384-1.1-.384-1.812 0-.704.116-1.308.348-1.812.24-.504.572-.892.996-1.164.432-.272.932-.408 1.5-.408zm-.012.864c-.504 0-.904.164-1.2.492-.288.32-.46.768-.516 1.344h3.276c-.008-.544-.136-.984-.384-1.32-.248-.344-.64-.516-1.176-.516zm9.906 5.688l-2.436-6.432h1.128l1.368 3.792c.064.176.132.372.204.588.072.216.136.424.192.624.056.192.096.356.12.492h.048a12.8 12.8 0 01.132-.504c.064-.2.132-.408.204-.624.08-.216.148-.408.204-.576l1.368-3.792h1.128L163.16 114h-1.212zm10.806-3.228c0 1.064-.272 1.888-.816 2.472-.536.584-1.264.876-2.184.876a3.017 3.017 0 01-1.524-.384 2.778 2.778 0 01-1.044-1.14c-.256-.504-.384-1.112-.384-1.824 0-1.064.268-1.884.804-2.46.536-.576 1.264-.864 2.184-.864.584 0 1.096.132 1.536.396.448.256.796.632 1.044 1.128.256.488.384 1.088.384 1.8zm-4.86 0c0 .76.148 1.364.444 1.812.304.44.784.66 1.44.66.648 0 1.124-.22 1.428-.66.304-.448.456-1.052.456-1.812s-.152-1.356-.456-1.788c-.304-.432-.784-.648-1.44-.648-.656 0-1.132.216-1.428.648-.296.432-.444 1.028-.444 1.788zm9.217 2.484c.16 0 .324-.012.492-.036.168-.032.304-.064.408-.096v.804a1.68 1.68 0 01-.48.132c-.208.04-.408.06-.6.06a2.56 2.56 0 01-.936-.168 1.479 1.479 0 01-.684-.612c-.176-.288-.264-.692-.264-1.212v-3.744h-.912v-.504l.924-.42.42-1.368h.624v1.476h1.86v.816h-1.86v3.72c0 .392.092.684.276.876.192.184.436.276.732.276zm5.724-5.808c.12 0 .248.008.384.024.144.008.268.024.372.048l-.132.972a3.47 3.47 0 00-.696-.084c-.328 0-.636.092-.924.276-.288.176-.52.428-.696.756-.168.32-.252.696-.252 1.128V114h-1.056v-6.432h.864l.12 1.176h.048c.208-.352.476-.656.804-.912a1.836 1.836 0 011.164-.384zm4.742 0c.552 0 1.024.12 1.416.36.4.24.704.58.912 1.02.216.432.324.94.324 1.524v.636h-4.404c.016.728.2 1.284.552 1.668.36.376.86.564 1.5.564.408 0 .768-.036 1.08-.108.32-.08.648-.192.984-.336v.924a4.723 4.723 0 01-.972.312c-.32.072-.7.108-1.14.108-.608 0-1.148-.124-1.62-.372a2.642 2.642 0 01-1.092-1.104c-.256-.496-.384-1.1-.384-1.812 0-.704.116-1.308.348-1.812.24-.504.572-.892.996-1.164.432-.272.932-.408 1.5-.408zm-.012.864c-.504 0-.904.164-1.2.492-.288.32-.46.768-.516 1.344h3.276c-.008-.544-.136-.984-.384-1.32-.248-.344-.64-.516-1.176-.516zM31.02 124.448c.12 0 .248.008.384.024.144.008.268.024.372.048l-.132.972a3.47 3.47 0 00-.696-.084c-.328 0-.636.092-.924.276-.288.176-.52.428-.696.756-.168.32-.252.696-.252 1.128V131H28.02v-6.432h.864l.12 1.176h.048c.208-.352.476-.656.804-.912a1.836 1.836 0 011.164-.384zm4.742 0c.552 0 1.024.12 1.416.36.4.24.704.58.912 1.02.216.432.324.94.324 1.524v.636H34.01c.016.728.2 1.284.552 1.668.36.376.86.564 1.5.564.408 0 .768-.036 1.08-.108.32-.08.648-.192.984-.336v.924a4.723 4.723 0 01-.972.312c-.32.072-.7.108-1.14.108-.608 0-1.148-.124-1.62-.372a2.642 2.642 0 01-1.092-1.104c-.256-.496-.384-1.1-.384-1.812 0-.704.116-1.308.348-1.812.24-.504.572-.892.996-1.164.432-.272.932-.408 1.5-.408zm-.012.864c-.504 0-.904.164-1.2.492-.288.32-.46.768-.516 1.344h3.276c-.008-.544-.136-.984-.384-1.32-.248-.344-.64-.516-1.176-.516zm7.934-.864c.768 0 1.348.188 1.74.564.392.368.587.968.587 1.8V131h-1.044v-4.116c0-1.032-.48-1.548-1.44-1.548-.712 0-1.203.2-1.476.6-.272.4-.407.976-.407 1.728V131h-1.056v-6.432h.852l.156.876h.06c.208-.336.495-.584.864-.744a2.77 2.77 0 011.163-.252zm7.137 6.672c-.8 0-1.44-.276-1.92-.828-.48-.56-.72-1.392-.72-2.496s.24-1.936.72-2.496c.488-.568 1.132-.852 1.932-.852.496 0 .9.092 1.212.276.32.184.58.408.78.672h.072a11.654 11.654 0 00-.048-.456 6.793 6.793 0 01-.024-.492v-2.568h1.056V131h-.852l-.156-.864h-.048a2.49 2.49 0 01-.768.696c-.32.192-.732.288-1.236.288zm.168-.876c.68 0 1.156-.184 1.428-.552.28-.376.42-.94.42-1.692v-.192c0-.8-.132-1.412-.396-1.836-.264-.432-.752-.648-1.464-.648-.568 0-.996.228-1.284.684-.28.448-.42 1.052-.42 1.812 0 .768.14 1.364.42 1.788.288.424.72.636 1.296.636zm7.955-5.796c.552 0 1.024.12 1.416.36.4.24.704.58.912 1.02.216.432.324.94.324 1.524v.636h-4.404c.016.728.2 1.284.552 1.668.36.376.86.564 1.5.564.408 0 .768-.036 1.08-.108.32-.08.648-.192.984-.336v.924a4.723 4.723 0 01-.972.312c-.32.072-.7.108-1.14.108-.608 0-1.148-.124-1.62-.372a2.642 2.642 0 01-1.092-1.104c-.256-.496-.384-1.1-.384-1.812 0-.704.116-1.308.348-1.812.24-.504.572-.892.996-1.164.432-.272.932-.408 1.5-.408zm-.012.864c-.504 0-.904.164-1.2.492-.288.32-.46.768-.516 1.344h3.276c-.008-.544-.136-.984-.384-1.32-.248-.344-.64-.516-1.176-.516zM67.804 131H63.1v-.696l3.456-4.92h-3.252v-.816h4.416v.792l-3.408 4.824h3.492V131zm1.48-2.748v-.936h2.904v.936h-2.904zM75.643 131l-2.436-6.432h1.128l1.368 3.792c.064.176.132.372.204.588.072.216.136.424.192.624.056.192.096.356.12.492h.048a12.8 12.8 0 01.132-.504c.064-.2.132-.408.204-.624.08-.216.148-.408.204-.576l1.368-3.792h1.128L76.855 131h-1.212zm10.805-3.228c0 1.064-.271 1.888-.816 2.472-.535.584-1.264.876-2.184.876a3.017 3.017 0 01-1.523-.384 2.778 2.778 0 01-1.044-1.14c-.257-.504-.385-1.112-.385-1.824 0-1.064.269-1.884.805-2.46.535-.576 1.263-.864 2.183-.864.585 0 1.097.132 1.537.396.448.256.796.632 1.043 1.128.257.488.385 1.088.385 1.8zm-4.86 0c0 .76.149 1.364.445 1.812.303.44.784.66 1.44.66.648 0 1.124-.22 1.427-.66.304-.448.456-1.052.456-1.812s-.151-1.356-.456-1.788c-.303-.432-.784-.648-1.44-.648-.655 0-1.131.216-1.427.648-.296.432-.445 1.028-.445 1.788zm12.446-3.204V131h-.864l-.156-.852h-.048a1.867 1.867 0 01-.864.744 3.05 3.05 0 01-1.176.228c-.776 0-1.36-.184-1.752-.552-.392-.376-.588-.972-.588-1.788v-4.212h1.068v4.14c0 1.024.476 1.536 1.428 1.536.712 0 1.204-.2 1.476-.6.28-.4.42-.976.42-1.728v-3.348h1.056zm6.766 4.656c0 .624-.232 1.096-.696 1.416-.465.32-1.088.48-1.873.48a5.49 5.49 0 01-1.163-.108 3.553 3.553 0 01-.852-.3v-.96c.256.128.564.248.924.36.367.104.74.156 1.115.156.537 0 .925-.084 1.165-.252a.823.823 0 00.36-.696.745.745 0 00-.133-.432c-.088-.128-.248-.256-.48-.384a7.127 7.127 0 00-.972-.432 9.254 9.254 0 01-1.067-.48 1.972 1.972 0 01-.684-.576c-.16-.224-.24-.512-.24-.864 0-.544.22-.964.66-1.26.447-.296 1.031-.444 1.751-.444.392 0 .757.04 1.093.12.344.072.664.176.96.312l-.36.84a7.11 7.11 0 00-.853-.288 3.48 3.48 0 00-.912-.12c-.431 0-.764.072-.996.216-.224.136-.335.324-.335.564a.7.7 0 00.156.456c.104.12.276.24.516.36.248.112.576.248.984.408.407.152.756.308 1.044.468.288.16.508.356.66.588.152.224.228.508.228.852zm10.026 1.908c0-.144.004-.312.012-.504s.024-.356.048-.492h-.072c-.184.272-.44.504-.768.696-.32.192-.736.288-1.248.288-.776 0-1.408-.276-1.896-.828-.48-.56-.72-1.392-.72-2.496s.244-1.936.732-2.496c.496-.568 1.136-.852 1.92-.852.504 0 .916.096 1.236.288.32.192.576.428.768.708h.048l.156-.876h.84v9.312h-1.056v-2.748zm-1.824-.888c.664 0 1.132-.18 1.404-.54.28-.368.424-.928.432-1.68v-.216c0-.816-.136-1.432-.408-1.848-.272-.424-.756-.636-1.452-.636-.576 0-1.004.228-1.284.684-.28.448-.42 1.052-.42 1.812s.14 1.356.42 1.788c.288.424.724.636 1.308.636zm10.835-5.676V131h-.864l-.156-.852h-.048a1.867 1.867 0 01-.864.744 3.05 3.05 0 01-1.176.228c-.776 0-1.36-.184-1.752-.552-.392-.376-.588-.972-.588-1.788v-4.212h1.068v4.14c0 1.024.476 1.536 1.428 1.536.712 0 1.204-.2 1.476-.6.28-.4.42-.976.42-1.728v-3.348h1.056zm3.118-2.412c.16 0 .3.056.42.168.128.104.192.272.192.504 0 .224-.064.392-.192.504a.596.596 0 01-.42.168.626.626 0 01-.444-.168c-.12-.112-.18-.28-.18-.504 0-.232.06-.4.18-.504a.626.626 0 01.444-.168zm.516 2.412V131h-1.056v-6.432h1.056zm8.662-.108c.784 0 1.364.172 1.74.516.376.344.564.892.564 1.644V131h-.768l-.204-.912h-.048c-.28.352-.576.612-.888.78-.304.168-.728.252-1.272.252-.584 0-1.068-.152-1.452-.456-.384-.312-.576-.796-.576-1.452 0-.64.252-1.132.756-1.476.504-.352 1.28-.544 2.328-.576l1.092-.036v-.384c0-.536-.116-.908-.348-1.116-.232-.208-.56-.312-.984-.312-.336 0-.656.052-.96.156a6.297 6.297 0 00-.852.336l-.324-.792c.28-.152.612-.28.996-.384a4.264 4.264 0 011.2-.168zm.312 3.432c-.8.032-1.356.16-1.668.384-.304.224-.456.54-.456.948 0 .36.108.624.324.792.224.168.508.252.852.252.544 0 .996-.148 1.356-.444.36-.304.54-.768.54-1.392v-.576l-.948.036zm9.89-3.324V131h-.864l-.156-.852h-.048a1.867 1.867 0 01-.864.744 3.05 3.05 0 01-1.176.228c-.776 0-1.36-.184-1.752-.552-.392-.376-.588-.972-.588-1.788v-4.212h1.068v4.14c0 1.024.476 1.536 1.428 1.536.712 0 1.204-.2 1.476-.6.28-.4.42-.976.42-1.728v-3.348h1.056zm5.578-.12c.12 0 .248.008.384.024.144.008.268.024.372.048l-.132.972a3.47 3.47 0 00-.696-.084c-.328 0-.636.092-.924.276-.288.176-.52.428-.696.756-.168.32-.252.696-.252 1.128V131h-1.056v-6.432h.864l.12 1.176h.048c.208-.352.476-.656.804-.912a1.836 1.836 0 011.164-.384zm4.694.012c.784 0 1.364.172 1.74.516.376.344.564.892.564 1.644V131h-.768l-.204-.912h-.048c-.28.352-.576.612-.888.78-.304.168-.728.252-1.272.252-.584 0-1.068-.152-1.452-.456-.384-.312-.576-.796-.576-1.452 0-.64.252-1.132.756-1.476.504-.352 1.28-.544 2.328-.576l1.092-.036v-.384c0-.536-.116-.908-.348-1.116-.232-.208-.56-.312-.984-.312-.336 0-.656.052-.96.156a6.297 6.297 0 00-.852.336l-.324-.792c.28-.152.612-.28.996-.384a4.264 4.264 0 011.2-.168zm.312 3.432c-.8.032-1.356.16-1.668.384-.304.224-.456.54-.456.948 0 .36.108.624.324.792.224.168.508.252.852.252.544 0 .996-.148 1.356-.444.36-.304.54-.768.54-1.392v-.576l-.948.036zm9.223 3.108h-1.056v-9.12h1.056V131zm3.114-8.844c.16 0 .3.056.42.168.128.104.192.272.192.504 0 .224-.064.392-.192.504a.596.596 0 01-.42.168.626.626 0 01-.444-.168c-.12-.112-.18-.28-.18-.504 0-.232.06-.4.18-.504a.626.626 0 01.444-.168zm.516 2.412V131h-1.056v-6.432h1.056zm5.057-.12c.552 0 1.024.12 1.416.36.4.24.704.58.912 1.02.216.432.324.94.324 1.524v.636h-4.404c.016.728.2 1.284.552 1.668.36.376.86.564 1.5.564.408 0 .768-.036 1.08-.108.32-.08.648-.192.984-.336v.924a4.723 4.723 0 01-.972.312c-.32.072-.7.108-1.14.108-.608 0-1.148-.124-1.62-.372a2.642 2.642 0 01-1.092-1.104c-.256-.496-.384-1.1-.384-1.812 0-.704.116-1.308.348-1.812.24-.504.572-.892.996-1.164.432-.272.932-.408 1.5-.408zm-.012.864c-.504 0-.904.164-1.2.492-.288.32-.46.768-.516 1.344h3.276c-.008-.544-.136-.984-.384-1.32-.248-.344-.64-.516-1.176-.516zm10.213-.744V131h-.864l-.156-.852h-.048a1.867 1.867 0 01-.864.744 3.05 3.05 0 01-1.176.228c-.776 0-1.36-.184-1.752-.552-.392-.376-.588-.972-.588-1.788v-4.212h1.068v4.14c0 1.024.476 1.536 1.428 1.536.712 0 1.204-.2 1.476-.6.28-.4.42-.976.42-1.728v-3.348h1.056zM29.076 148H28.02v-9.12h1.056V148zm5.057-6.552c.552 0 1.024.12 1.416.36.4.24.705.58.913 1.02.215.432.323.94.323 1.524v.636h-4.403c.016.728.2 1.284.552 1.668.36.376.86.564 1.5.564.408 0 .768-.036 1.08-.108.32-.08.647-.192.983-.336v.924a4.723 4.723 0 01-.971.312c-.32.072-.7.108-1.14.108-.608 0-1.149-.124-1.62-.372a2.642 2.642 0 01-1.092-1.104c-.256-.496-.384-1.1-.384-1.812 0-.704.116-1.308.348-1.812.24-.504.571-.892.995-1.164.432-.272.932-.408 1.5-.408zm-.012.864c-.504 0-.904.164-1.2.492-.288.32-.46.768-.515 1.344h3.276c-.009-.544-.137-.984-.385-1.32-.247-.344-.64-.516-1.175-.516zm7.95 2.4c0-.976.14-1.916.42-2.82a7.167 7.167 0 011.345-2.46h.995a8.396 8.396 0 00-1.272 2.484 9.356 9.356 0 00-.42 2.784c0 .928.14 1.84.42 2.736a8.63 8.63 0 001.26 2.46h-.983a6.85 6.85 0 01-1.344-2.388 9.319 9.319 0 01-.42-2.796zm4.134 0c0-.976.14-1.916.42-2.82a7.167 7.167 0 011.344-2.46h.996a8.396 8.396 0 00-1.272 2.484 9.356 9.356 0 00-.42 2.784c0 .928.14 1.84.42 2.736a8.63 8.63 0 001.26 2.46h-.984a6.85 6.85 0 01-1.344-2.388 9.319 9.319 0 01-.42-2.796zm6.953 3.408c-.8 0-1.44-.276-1.92-.828-.48-.56-.72-1.392-.72-2.496s.24-1.936.72-2.496c.488-.568 1.132-.852 1.932-.852.496 0 .9.092 1.212.276.32.184.58.408.78.672h.072a11.654 11.654 0 00-.048-.456 6.793 6.793 0 01-.024-.492v-2.568h1.056V148h-.852l-.156-.864h-.048a2.49 2.49 0 01-.768.696c-.32.192-.732.288-1.236.288zm.168-.876c.68 0 1.156-.184 1.428-.552.28-.376.42-.94.42-1.692v-.192c0-.8-.132-1.412-.396-1.836-.264-.432-.752-.648-1.464-.648-.568 0-.996.228-1.284.684-.28.448-.42 1.052-.42 1.812 0 .768.14 1.364.42 1.788.288.424.72.636 1.296.636zm7.907-5.784c.784 0 1.364.172 1.74.516.376.344.564.892.564 1.644V148h-.768l-.204-.912h-.048c-.28.352-.576.612-.888.78-.304.168-.728.252-1.272.252-.584 0-1.068-.152-1.452-.456-.384-.312-.576-.796-.576-1.452 0-.64.252-1.132.756-1.476.504-.352 1.28-.544 2.328-.576l1.092-.036v-.384c0-.536-.116-.908-.348-1.116-.232-.208-.56-.312-.984-.312-.336 0-.656.052-.96.156a6.297 6.297 0 00-.852.336l-.324-.792c.28-.152.612-.28.996-.384a4.264 4.264 0 011.2-.168zm.312 3.432c-.8.032-1.356.16-1.668.384-.304.224-.456.54-.456.948 0 .36.108.624.324.792.224.168.508.252.852.252.544 0 .996-.148 1.356-.444.36-.304.54-.768.54-1.392v-.576l-.948.036zm6.662 2.364c.16 0 .324-.012.492-.036.168-.032.304-.064.408-.096v.804a1.68 1.68 0 01-.48.132c-.208.04-.408.06-.6.06a2.56 2.56 0 01-.936-.168 1.479 1.479 0 01-.684-.612c-.176-.288-.264-.692-.264-1.212v-3.744h-.912v-.504l.924-.42.42-1.368h.624v1.476h1.86v.816H67.2v3.72c0 .392.092.684.276.876.192.184.436.276.732.276zm5.208-5.808c.552 0 1.024.12 1.416.36.4.24.704.58.912 1.02.216.432.324.94.324 1.524v.636h-4.404c.016.728.2 1.284.552 1.668.36.376.86.564 1.5.564.408 0 .768-.036 1.08-.108.32-.08.648-.192.984-.336v.924a4.723 4.723 0 01-.972.312c-.32.072-.7.108-1.14.108-.608 0-1.148-.124-1.62-.372a2.642 2.642 0 01-1.092-1.104c-.256-.496-.384-1.1-.384-1.812 0-.704.116-1.308.348-1.812.24-.504.572-.892.996-1.164.432-.272.932-.408 1.5-.408zm-.012.864c-.504 0-.904.164-1.2.492-.288.32-.46.768-.516 1.344h3.276c-.008-.544-.136-.984-.384-1.32-.248-.344-.64-.516-1.176-.516zm6.937 2.4c0 .968-.144 1.9-.432 2.796a6.697 6.697 0 01-1.332 2.388h-.984a8.398 8.398 0 001.248-2.46 8.89 8.89 0 00.432-2.736c0-.952-.144-1.88-.432-2.784a8.18 8.18 0 00-1.26-2.484h.996a7.007 7.007 0 011.332 2.46c.288.904.432 1.844.432 2.82zm4.133 0c0 .968-.144 1.9-.432 2.796a6.697 6.697 0 01-1.332 2.388h-.984a8.398 8.398 0 001.248-2.46 8.89 8.89 0 00.432-2.736c0-.952-.144-1.88-.432-2.784a8.18 8.18 0 00-1.26-2.484h.996a7.007 7.007 0 011.332 2.46c.288.904.432 1.844.432 2.82zm8.123-3.252c.783 0 1.364.172 1.74.516.376.344.564.892.564 1.644V148h-.769l-.204-.912h-.048c-.28.352-.576.612-.888.78-.303.168-.728.252-1.272.252-.584 0-1.067-.152-1.451-.456-.385-.312-.576-.796-.576-1.452 0-.64.252-1.132.756-1.476.504-.352 1.28-.544 2.328-.576l1.092-.036v-.384c0-.536-.117-.908-.349-1.116-.232-.208-.56-.312-.984-.312-.335 0-.656.052-.96.156a6.297 6.297 0 00-.852.336l-.323-.792c.28-.152.611-.28.995-.384a4.264 4.264 0 011.2-.168zm.311 3.432c-.8.032-1.355.16-1.667.384-.304.224-.456.54-.456.948 0 .36.107.624.323.792.225.168.508.252.853.252.544 0 .996-.148 1.356-.444.36-.304.54-.768.54-1.392v-.576l-.948.036zm-.707-6.084c.087.176.195.376.323.6.136.216.276.428.42.636.153.208.288.388.409.54v.144h-.709a8.181 8.181 0 01-.624-.552c-.232-.232-.448-.46-.648-.684a7.28 7.28 0 01-.431-.564v-.12h1.26zm8.335 5.904c0-.976.14-1.916.42-2.82a7.167 7.167 0 011.344-2.46h.996a8.396 8.396 0 00-1.272 2.484 9.356 9.356 0 00-.42 2.784c0 .928.14 1.84.42 2.736a8.63 8.63 0 001.26 2.46h-.984a6.85 6.85 0 01-1.344-2.388 9.319 9.319 0 01-.42-2.796zm4.133 0c0-.976.14-1.916.42-2.82a7.167 7.167 0 011.344-2.46h.996a8.396 8.396 0 00-1.272 2.484 9.356 9.356 0 00-.42 2.784c0 .928.14 1.84.42 2.736a8.63 8.63 0 001.26 2.46h-.984a6.85 6.85 0 01-1.344-2.388 9.319 9.319 0 01-.42-2.796zm5.729-3.156c0 .32-.02.62-.06.9h.072a1.99 1.99 0 01.84-.744c.36-.168.748-.252 1.164-.252.784 0 1.372.188 1.764.564.392.368.588.964.588 1.788V148h-1.044v-4.116c0-1.032-.48-1.548-1.44-1.548-.72 0-1.216.204-1.488.612-.264.4-.396.976-.396 1.728V148h-1.056v-9.12h1.056v2.676zm9.382-.108c.552 0 1.024.12 1.416.36.4.24.704.58.912 1.02.216.432.324.94.324 1.524v.636h-4.404c.016.728.2 1.284.552 1.668.36.376.86.564 1.5.564.408 0 .768-.036 1.08-.108.32-.08.648-.192.984-.336v.924a4.723 4.723 0 01-.972.312c-.32.072-.7.108-1.14.108-.608 0-1.148-.124-1.62-.372a2.642 2.642 0 01-1.092-1.104c-.256-.496-.384-1.1-.384-1.812 0-.704.116-1.308.348-1.812.24-.504.572-.892.996-1.164.432-.272.932-.408 1.5-.408zm-.012.864c-.504 0-.904.164-1.2.492-.288.32-.46.768-.516 1.344h3.276c-.008-.544-.136-.984-.384-1.32-.248-.344-.64-.516-1.176-.516zm10.213-.744V148h-.864l-.156-.852h-.048a1.867 1.867 0 01-.864.744 3.05 3.05 0 01-1.176.228c-.776 0-1.36-.184-1.752-.552-.392-.376-.588-.972-.588-1.788v-4.212h1.068v4.14c0 1.024.476 1.536 1.428 1.536.712 0 1.204-.2 1.476-.6.28-.4.42-.976.42-1.728v-3.348h1.056zm5.578-.12c.12 0 .248.008.384.024.144.008.268.024.372.048l-.132.972a3.47 3.47 0 00-.696-.084c-.328 0-.636.092-.924.276-.288.176-.52.428-.696.756-.168.32-.252.696-.252 1.128V148h-1.056v-6.432h.864l.12 1.176h.048c.208-.352.476-.656.804-.912a1.836 1.836 0 011.164-.384zm4.742 0c.552 0 1.024.12 1.416.36.4.24.704.58.912 1.02.216.432.324.94.324 1.524v.636h-4.404c.016.728.2 1.284.552 1.668.36.376.86.564 1.5.564.408 0 .768-.036 1.08-.108.32-.08.648-.192.984-.336v.924a4.723 4.723 0 01-.972.312c-.32.072-.7.108-1.14.108-.608 0-1.148-.124-1.62-.372a2.642 2.642 0 01-1.092-1.104c-.256-.496-.384-1.1-.384-1.812 0-.704.116-1.308.348-1.812.24-.504.572-.892.996-1.164.432-.272.932-.408 1.5-.408zm-.012.864c-.504 0-.904.164-1.2.492-.288.32-.46.768-.516 1.344h3.276c-.008-.544-.136-.984-.384-1.32-.248-.344-.64-.516-1.176-.516zm6.937 2.4c0 .968-.144 1.9-.432 2.796a6.697 6.697 0 01-1.332 2.388h-.984a8.398 8.398 0 001.248-2.46 8.89 8.89 0 00.432-2.736c0-.952-.144-1.88-.432-2.784a8.18 8.18 0 00-1.26-2.484h.996a7.007 7.007 0 011.332 2.46c.288.904.432 1.844.432 2.82zm4.134 0c0 .968-.144 1.9-.432 2.796a6.697 6.697 0 01-1.332 2.388h-.984a8.398 8.398 0 001.248-2.46 8.89 8.89 0 00.432-2.736c0-.952-.144-1.88-.432-2.784a8.18 8.18 0 00-1.26-2.484h.996a7.007 7.007 0 011.332 2.46c.288.904.432 1.844.432 2.82zm1.877 2.64c0-.296.072-.504.216-.624a.78.78 0 01.516-.18c.208 0 .384.06.528.18.152.12.228.328.228.624 0 .288-.076.496-.228.624a.766.766 0 01-.528.192.75.75 0 01-.516-.192c-.144-.128-.216-.336-.216-.624z" fill="#000"/><path d="M.5 15C.5 6.992 6.992.5 15 .5h329c8.008 0 14.5 6.492 14.5 14.5v216.5H.5V15z" stroke="#BBBDBF"/></g><defs><filter id="filter0_d" x="0" y="0" width="367" height="240" filterUnits="userSpaceOnUse" color-interpolation-filters="sRGB"><feFlood flood-opacity="0" result="BackgroundImageFix"/><feColorMatrix in="SourceAlpha" values="0 0 0 0 0 0 0 0 0 0 0 0 0 0 0 0 0 0 127 0"/><feOffset dx="4" dy="4"/><feGaussianBlur stdDeviation="2"/><feColorMatrix values="0 0 0 0 0 0 0 0 0 0 0 0 0 0 0 0 0 0 0.1 0"/><feBlend in2="BackgroundImageFix" result="effect1_dropShadow"/><feBlend in="SourceGraphic" in2="effect1_dropShadow" result="shape"/></filter><filter id="filter1_d" x="18" y="176" width="91" height="28" filterUnits="userSpaceOnUse" color-interpolation-filters="sRGB"><feFlood flood-opacity="0" result="BackgroundImageFix"/><feColorMatrix in="SourceAlpha" values="0 0 0 0 0 0 0 0 0 0 0 0 0 0 0 0 0 0 127 0"/><feOffset dy="2"/><feColorMatrix values="0 0 0 0 0 0 0 0 0 0 0 0 0 0 0 0 0 0 1 0"/><feBlend in2="BackgroundImageFix" result="effect1_dropShadow"/><feBlend in="SourceGraphic" in2="effect1_dropShadow" result="shape"/></filter></defs></svg>