<svg width="336" height="352" viewBox="0 0 336 352" fill="none" xmlns="http://www.w3.org/2000/svg">
<rect x="0.5" y="24.5" width="335" height="295" rx="19.5" fill="white"/>
<path d="M0 44C0 32.9543 8.95431 24 20 24H316C327.046 24 336 32.9543 336 44V80H0V44Z" fill="#DADADB"/>
<rect x="0.5" y="24.5" width="335" height="295" rx="19.5" stroke="#DADADB"/>
<g filter="url(#filter0_d)">
<rect x="16" width="304" height="344" rx="25" fill="white"/>
<path d="M93.6208 249L92.5028 246.127H88.8238L87.7188 249H86.5358L90.1628 239.679H91.2158L94.8298 249H93.6208ZM92.1518 245.087L91.1118 242.279C91.0858 242.21 91.0424 242.084 90.9818 241.902C90.9211 241.72 90.8604 241.534 90.7998 241.343C90.7478 241.144 90.7044 240.992 90.6698 240.888C90.6091 241.157 90.5398 241.421 90.4618 241.681C90.3838 241.932 90.3188 242.132 90.2668 242.279L89.2138 245.087H92.1518ZM102.303 242.032V249H101.367L101.198 248.077H101.146C100.921 248.441 100.609 248.71 100.21 248.883C99.8116 249.048 99.3869 249.13 98.9362 249.13C98.0956 249.13 97.4629 248.931 97.0382 248.532C96.6136 248.125 96.4012 247.479 96.4012 246.595V242.032H97.5582V246.517C97.5582 247.626 98.0739 248.181 99.1052 248.181C99.8766 248.181 100.41 247.964 100.704 247.531C101.008 247.098 101.159 246.474 101.159 245.659V242.032H102.303ZM107.846 249.13C107.231 249.13 106.68 249.004 106.195 248.753C105.718 248.502 105.341 248.112 105.064 247.583C104.795 247.054 104.661 246.378 104.661 245.555C104.661 244.697 104.804 243.999 105.09 243.462C105.376 242.925 105.762 242.53 106.247 242.279C106.741 242.028 107.3 241.902 107.924 241.902C108.279 241.902 108.622 241.941 108.951 242.019C109.28 242.088 109.549 242.175 109.757 242.279L109.406 243.228C109.198 243.15 108.955 243.076 108.678 243.007C108.401 242.938 108.141 242.903 107.898 242.903C106.529 242.903 105.844 243.783 105.844 245.542C105.844 246.383 106.009 247.028 106.338 247.479C106.676 247.921 107.174 248.142 107.833 248.142C108.214 248.142 108.548 248.103 108.834 248.025C109.129 247.947 109.397 247.852 109.64 247.739V248.753C109.406 248.874 109.146 248.965 108.86 249.026C108.583 249.095 108.245 249.13 107.846 249.13ZM117.657 242.032V249H116.721L116.552 248.077H116.5C116.275 248.441 115.963 248.71 115.564 248.883C115.165 249.048 114.741 249.13 114.29 249.13C113.449 249.13 112.817 248.931 112.392 248.532C111.967 248.125 111.755 247.479 111.755 246.595V242.032H112.912V246.517C112.912 247.626 113.428 248.181 114.459 248.181C115.23 248.181 115.763 247.964 116.058 247.531C116.361 247.098 116.513 246.474 116.513 245.659V242.032H117.657ZM123.759 241.902C124.591 241.902 125.219 242.106 125.644 242.513C126.068 242.912 126.281 243.562 126.281 244.463V249H125.15V244.541C125.15 243.423 124.63 242.864 123.59 242.864C122.818 242.864 122.285 243.081 121.991 243.514C121.696 243.947 121.549 244.571 121.549 245.386V249H120.405V242.032H121.328L121.497 242.981H121.562C121.787 242.617 122.099 242.348 122.498 242.175C122.896 241.993 123.317 241.902 123.759 241.902ZM135.684 249.13C135.069 249.13 134.519 249.004 134.033 248.753C133.557 248.502 133.18 248.112 132.902 247.583C132.634 247.054 132.499 246.378 132.499 245.555C132.499 244.697 132.642 243.999 132.928 243.462C133.214 242.925 133.6 242.53 134.085 242.279C134.579 242.028 135.138 241.902 135.762 241.902C136.118 241.902 136.46 241.941 136.789 242.019C137.119 242.088 137.387 242.175 137.595 242.279L137.244 243.228C137.036 243.15 136.794 243.076 136.516 243.007C136.239 242.938 135.979 242.903 135.736 242.903C134.367 242.903 133.682 243.783 133.682 245.542C133.682 246.383 133.847 247.028 134.176 247.479C134.514 247.921 135.013 248.142 135.671 248.142C136.053 248.142 136.386 248.103 136.672 248.025C136.967 247.947 137.236 247.852 137.478 247.739V248.753C137.244 248.874 136.984 248.965 136.698 249.026C136.421 249.095 136.083 249.13 135.684 249.13ZM145.729 245.503C145.729 246.656 145.434 247.548 144.845 248.181C144.264 248.814 143.476 249.13 142.479 249.13C141.864 249.13 141.313 248.991 140.828 248.714C140.351 248.428 139.974 248.016 139.697 247.479C139.42 246.933 139.281 246.274 139.281 245.503C139.281 244.35 139.571 243.462 140.152 242.838C140.733 242.214 141.521 241.902 142.518 241.902C143.151 241.902 143.705 242.045 144.182 242.331C144.667 242.608 145.044 243.016 145.313 243.553C145.59 244.082 145.729 244.732 145.729 245.503ZM140.464 245.503C140.464 246.326 140.624 246.981 140.945 247.466C141.274 247.943 141.794 248.181 142.505 248.181C143.207 248.181 143.723 247.943 144.052 247.466C144.381 246.981 144.546 246.326 144.546 245.503C144.546 244.68 144.381 244.034 144.052 243.566C143.723 243.098 143.203 242.864 142.492 242.864C141.781 242.864 141.266 243.098 140.945 243.566C140.624 244.034 140.464 244.68 140.464 245.503ZM153.902 242.032V249H152.966L152.797 248.077H152.745C152.52 248.441 152.208 248.71 151.809 248.883C151.41 249.048 150.986 249.13 150.535 249.13C149.694 249.13 149.062 248.931 148.637 248.532C148.212 248.125 148 247.479 148 246.595V242.032H149.157V246.517C149.157 247.626 149.673 248.181 150.704 248.181C151.475 248.181 152.008 247.964 152.303 247.531C152.606 247.098 152.758 246.474 152.758 245.659V242.032H153.902ZM151.588 239.042C151.692 239.233 151.839 239.449 152.03 239.692C152.229 239.926 152.433 240.16 152.641 240.394C152.858 240.619 153.048 240.814 153.213 240.979V241.122H152.407C152.182 240.983 151.948 240.814 151.705 240.615C151.462 240.407 151.224 240.186 150.99 239.952C150.756 240.186 150.522 240.403 150.288 240.602C150.054 240.801 149.824 240.975 149.599 241.122H148.819V240.979C148.984 240.806 149.166 240.606 149.365 240.381C149.573 240.156 149.772 239.926 149.963 239.692C150.154 239.449 150.305 239.233 150.418 239.042H151.588ZM158.977 248.194C159.15 248.194 159.328 248.181 159.51 248.155C159.692 248.12 159.839 248.086 159.952 248.051V248.922C159.83 248.983 159.657 249.03 159.432 249.065C159.206 249.108 158.99 249.13 158.782 249.13C158.418 249.13 158.08 249.069 157.768 248.948C157.464 248.818 157.217 248.597 157.027 248.285C156.836 247.973 156.741 247.535 156.741 246.972V242.916H155.753V242.37L156.754 241.915L157.209 240.433H157.885V242.032H159.9V242.916H157.885V246.946C157.885 247.371 157.984 247.687 158.184 247.895C158.392 248.094 158.656 248.194 158.977 248.194ZM168.265 249.13C167.399 249.13 166.705 248.831 166.185 248.233C165.665 247.626 165.405 246.725 165.405 245.529C165.405 244.333 165.665 243.432 166.185 242.825C166.714 242.21 167.412 241.902 168.278 241.902C168.816 241.902 169.253 242.002 169.591 242.201C169.938 242.4 170.22 242.643 170.436 242.929H170.514C170.506 242.816 170.488 242.652 170.462 242.435C170.445 242.21 170.436 242.032 170.436 241.902V239.12H171.58V249H170.657L170.488 248.064H170.436C170.228 248.359 169.951 248.61 169.604 248.818C169.258 249.026 168.811 249.13 168.265 249.13ZM168.447 248.181C169.184 248.181 169.7 247.982 169.994 247.583C170.298 247.176 170.449 246.565 170.449 245.75V245.542C170.449 244.675 170.306 244.012 170.02 243.553C169.734 243.085 169.206 242.851 168.434 242.851C167.819 242.851 167.355 243.098 167.043 243.592C166.74 244.077 166.588 244.732 166.588 245.555C166.588 246.387 166.74 247.033 167.043 247.492C167.355 247.951 167.823 248.181 168.447 248.181ZM175.252 239.718L175.343 239.861C175.23 240.312 175.066 240.819 174.849 241.382C174.641 241.937 174.433 242.444 174.225 242.903H173.38C173.467 242.574 173.549 242.223 173.627 241.85C173.714 241.469 173.792 241.096 173.861 240.732C173.93 240.359 173.987 240.021 174.03 239.718H175.252ZM177.722 239.419C177.896 239.419 178.047 239.48 178.177 239.601C178.316 239.714 178.385 239.896 178.385 240.147C178.385 240.39 178.316 240.572 178.177 240.693C178.047 240.814 177.896 240.875 177.722 240.875C177.532 240.875 177.371 240.814 177.241 240.693C177.111 240.572 177.046 240.39 177.046 240.147C177.046 239.896 177.111 239.714 177.241 239.601C177.371 239.48 177.532 239.419 177.722 239.419ZM178.281 242.032V249H177.137V242.032H178.281ZM184.379 241.902C185.211 241.902 185.839 242.106 186.264 242.513C186.688 242.912 186.901 243.562 186.901 244.463V249H185.77V244.541C185.77 243.423 185.25 242.864 184.21 242.864C183.438 242.864 182.905 243.081 182.611 243.514C182.316 243.947 182.169 244.571 182.169 245.386V249H181.025V242.032H181.948L182.117 242.981H182.182C182.407 242.617 182.719 242.348 183.118 242.175C183.516 241.993 183.937 241.902 184.379 241.902ZM194.133 247.076C194.133 247.752 193.882 248.263 193.379 248.61C192.877 248.957 192.201 249.13 191.351 249.13C190.866 249.13 190.446 249.091 190.09 249.013C189.744 248.935 189.436 248.827 189.167 248.688V247.648C189.445 247.787 189.778 247.917 190.168 248.038C190.567 248.151 190.97 248.207 191.377 248.207C191.958 248.207 192.378 248.116 192.638 247.934C192.898 247.743 193.028 247.492 193.028 247.18C193.028 247.007 192.981 246.851 192.885 246.712C192.79 246.573 192.617 246.435 192.365 246.296C192.123 246.157 191.772 246.001 191.312 245.828C190.862 245.655 190.476 245.481 190.155 245.308C189.835 245.135 189.588 244.927 189.414 244.684C189.241 244.441 189.154 244.129 189.154 243.748C189.154 243.159 189.393 242.704 189.869 242.383C190.355 242.062 190.987 241.902 191.767 241.902C192.192 241.902 192.586 241.945 192.95 242.032C193.323 242.11 193.67 242.223 193.99 242.37L193.6 243.28C193.306 243.159 192.998 243.055 192.677 242.968C192.357 242.881 192.027 242.838 191.689 242.838C191.221 242.838 190.862 242.916 190.61 243.072C190.368 243.219 190.246 243.423 190.246 243.683C190.246 243.874 190.303 244.038 190.415 244.177C190.528 244.307 190.714 244.437 190.974 244.567C191.243 244.688 191.598 244.836 192.04 245.009C192.482 245.174 192.859 245.343 193.171 245.516C193.483 245.689 193.722 245.902 193.886 246.153C194.051 246.396 194.133 246.703 194.133 247.076ZM198.68 248.194C198.853 248.194 199.031 248.181 199.213 248.155C199.395 248.12 199.542 248.086 199.655 248.051V248.922C199.534 248.983 199.36 249.03 199.135 249.065C198.91 249.108 198.693 249.13 198.485 249.13C198.121 249.13 197.783 249.069 197.471 248.948C197.167 248.818 196.921 248.597 196.73 248.285C196.539 247.973 196.444 247.535 196.444 246.972V242.916H195.456V242.37L196.457 241.915L196.912 240.433H197.588V242.032H199.603V242.916H197.588V246.946C197.588 247.371 197.688 247.687 197.887 247.895C198.095 248.094 198.359 248.194 198.68 248.194ZM204.225 241.915C205.074 241.915 205.702 242.101 206.11 242.474C206.517 242.847 206.721 243.44 206.721 244.255V249H205.889L205.668 248.012H205.616C205.312 248.393 204.992 248.675 204.654 248.857C204.324 249.039 203.865 249.13 203.276 249.13C202.643 249.13 202.119 248.965 201.703 248.636C201.287 248.298 201.079 247.774 201.079 247.063C201.079 246.37 201.352 245.837 201.898 245.464C202.444 245.083 203.284 244.875 204.42 244.84L205.603 244.801V244.385C205.603 243.804 205.477 243.401 205.226 243.176C204.974 242.951 204.619 242.838 204.16 242.838C203.796 242.838 203.449 242.894 203.12 243.007C202.79 243.111 202.483 243.232 202.197 243.371L201.846 242.513C202.149 242.348 202.509 242.21 202.925 242.097C203.341 241.976 203.774 241.915 204.225 241.915ZM205.59 245.594L204.563 245.633C203.696 245.668 203.094 245.806 202.756 246.049C202.426 246.292 202.262 246.634 202.262 247.076C202.262 247.466 202.379 247.752 202.613 247.934C202.855 248.116 203.163 248.207 203.536 248.207C204.125 248.207 204.615 248.047 205.005 247.726C205.395 247.397 205.59 246.894 205.59 246.218V245.594ZM210.553 249H209.409V239.12H210.553V249ZM214.44 249H213.296V239.12H214.44V249ZM219.822 241.915C220.672 241.915 221.3 242.101 221.707 242.474C222.115 242.847 222.318 243.44 222.318 244.255V249H221.486L221.265 248.012H221.213C220.91 248.393 220.589 248.675 220.251 248.857C219.922 249.039 219.463 249.13 218.873 249.13C218.241 249.13 217.716 248.965 217.3 248.636C216.884 248.298 216.676 247.774 216.676 247.063C216.676 246.37 216.949 245.837 217.495 245.464C218.041 245.083 218.882 244.875 220.017 244.84L221.2 244.801V244.385C221.2 243.804 221.075 243.401 220.823 243.176C220.572 242.951 220.217 242.838 219.757 242.838C219.393 242.838 219.047 242.894 218.717 243.007C218.388 243.111 218.08 243.232 217.794 243.371L217.443 242.513C217.747 242.348 218.106 242.21 218.522 242.097C218.938 241.976 219.372 241.915 219.822 241.915ZM221.187 245.594L220.16 245.633C219.294 245.668 218.691 245.806 218.353 246.049C218.024 246.292 217.859 246.634 217.859 247.076C217.859 247.466 217.976 247.752 218.21 247.934C218.453 248.116 218.761 248.207 219.133 248.207C219.723 248.207 220.212 248.047 220.602 247.726C220.992 247.397 221.187 246.894 221.187 246.218V245.594ZM227.333 248.194C227.506 248.194 227.684 248.181 227.866 248.155C228.048 248.12 228.195 248.086 228.308 248.051V248.922C228.187 248.983 228.013 249.03 227.788 249.065C227.563 249.108 227.346 249.13 227.138 249.13C226.774 249.13 226.436 249.069 226.124 248.948C225.821 248.818 225.574 248.597 225.383 248.285C225.192 247.973 225.097 247.535 225.097 246.972V242.916H224.109V242.37L225.11 241.915L225.565 240.433H226.241V242.032H228.256V242.916H226.241V246.946C226.241 247.371 226.341 247.687 226.54 247.895C226.748 248.094 227.012 248.194 227.333 248.194ZM230.824 239.419C230.997 239.419 231.149 239.48 231.279 239.601C231.418 239.714 231.487 239.896 231.487 240.147C231.487 240.39 231.418 240.572 231.279 240.693C231.149 240.814 230.997 240.875 230.824 240.875C230.633 240.875 230.473 240.814 230.343 240.693C230.213 240.572 230.148 240.39 230.148 240.147C230.148 239.896 230.213 239.714 230.343 239.601C230.473 239.48 230.633 239.419 230.824 239.419ZM231.383 242.032V249H230.239V242.032H231.383ZM240.184 245.503C240.184 246.656 239.89 247.548 239.3 248.181C238.72 248.814 237.931 249.13 236.934 249.13C236.319 249.13 235.769 248.991 235.283 248.714C234.807 248.428 234.43 248.016 234.152 247.479C233.875 246.933 233.736 246.274 233.736 245.503C233.736 244.35 234.027 243.462 234.607 242.838C235.188 242.214 235.977 241.902 236.973 241.902C237.606 241.902 238.161 242.045 238.637 242.331C239.123 242.608 239.5 243.016 239.768 243.553C240.046 244.082 240.184 244.732 240.184 245.503ZM234.919 245.503C234.919 246.326 235.08 246.981 235.4 247.466C235.73 247.943 236.25 248.181 236.96 248.181C237.662 248.181 238.178 247.943 238.507 247.466C238.837 246.981 239.001 246.326 239.001 245.503C239.001 244.68 238.837 244.034 238.507 243.566C238.178 243.098 237.658 242.864 236.947 242.864C236.237 242.864 235.721 243.098 235.4 243.566C235.08 244.034 234.919 244.68 234.919 245.503ZM245.887 241.902C246.719 241.902 247.347 242.106 247.772 242.513C248.197 242.912 248.409 243.562 248.409 244.463V249H247.278V244.541C247.278 243.423 246.758 242.864 245.718 242.864C244.947 242.864 244.414 243.081 244.119 243.514C243.824 243.947 243.677 244.571 243.677 245.386V249H242.533V242.032H243.456L243.625 242.981H243.69C243.915 242.617 244.227 242.348 244.626 242.175C245.025 241.993 245.445 241.902 245.887 241.902ZM94.286 270L93.168 267.127H89.489L88.384 270H87.201L90.828 260.679H91.881L95.495 270H94.286ZM92.817 266.087L91.777 263.279C91.751 263.21 91.7077 263.084 91.647 262.902C91.5864 262.72 91.5257 262.534 91.465 262.343C91.413 262.144 91.3697 261.992 91.335 261.888C91.2744 262.157 91.205 262.421 91.127 262.681C91.049 262.932 90.984 263.132 90.932 263.279L89.879 266.087H92.817ZM102.968 263.032V270H102.032L101.863 269.077H101.811C101.586 269.441 101.274 269.71 100.875 269.883C100.477 270.048 100.052 270.13 99.6015 270.13C98.7608 270.13 98.1281 269.931 97.7035 269.532C97.2788 269.125 97.0665 268.479 97.0665 267.595V263.032H98.2235V267.517C98.2235 268.626 98.7391 269.181 99.7705 269.181C100.542 269.181 101.075 268.964 101.369 268.531C101.673 268.098 101.824 267.474 101.824 266.659V263.032H102.968ZM108.511 270.13C107.896 270.13 107.346 270.004 106.86 269.753C106.384 269.502 106.007 269.112 105.729 268.583C105.461 268.054 105.326 267.378 105.326 266.555C105.326 265.697 105.469 264.999 105.755 264.462C106.041 263.925 106.427 263.53 106.912 263.279C107.406 263.028 107.965 262.902 108.589 262.902C108.945 262.902 109.287 262.941 109.616 263.019C109.946 263.088 110.214 263.175 110.422 263.279L110.071 264.228C109.863 264.15 109.621 264.076 109.343 264.007C109.066 263.938 108.806 263.903 108.563 263.903C107.194 263.903 106.509 264.783 106.509 266.542C106.509 267.383 106.674 268.028 107.003 268.479C107.341 268.921 107.84 269.142 108.498 269.142C108.88 269.142 109.213 269.103 109.499 269.025C109.794 268.947 110.063 268.852 110.305 268.739V269.753C110.071 269.874 109.811 269.965 109.525 270.026C109.248 270.095 108.91 270.13 108.511 270.13ZM118.322 263.032V270H117.386L117.217 269.077H117.165C116.94 269.441 116.628 269.71 116.229 269.883C115.83 270.048 115.406 270.13 114.955 270.13C114.114 270.13 113.482 269.931 113.057 269.532C112.632 269.125 112.42 268.479 112.42 267.595V263.032H113.577V267.517C113.577 268.626 114.093 269.181 115.124 269.181C115.895 269.181 116.428 268.964 116.723 268.531C117.026 268.098 117.178 267.474 117.178 266.659V263.032H118.322ZM124.424 262.902C125.256 262.902 125.884 263.106 126.309 263.513C126.734 263.912 126.946 264.562 126.946 265.463V270H125.815V265.541C125.815 264.423 125.295 263.864 124.255 263.864C123.484 263.864 122.951 264.081 122.656 264.514C122.361 264.947 122.214 265.571 122.214 266.386V270H121.07V263.032H121.993L122.162 263.981H122.227C122.452 263.617 122.764 263.348 123.163 263.175C123.562 262.993 123.982 262.902 124.424 262.902ZM134.179 268.076C134.179 268.752 133.928 269.263 133.425 269.61C132.922 269.957 132.246 270.13 131.397 270.13C130.912 270.13 130.491 270.091 130.136 270.013C129.789 269.935 129.482 269.827 129.213 269.688V268.648C129.49 268.787 129.824 268.917 130.214 269.038C130.613 269.151 131.016 269.207 131.423 269.207C132.004 269.207 132.424 269.116 132.684 268.934C132.944 268.743 133.074 268.492 133.074 268.18C133.074 268.007 133.026 267.851 132.931 267.712C132.836 267.573 132.662 267.435 132.411 267.296C132.168 267.157 131.817 267.001 131.358 266.828C130.907 266.655 130.522 266.481 130.201 266.308C129.88 266.135 129.633 265.927 129.46 265.684C129.287 265.441 129.2 265.129 129.2 264.748C129.2 264.159 129.438 263.704 129.915 263.383C130.4 263.062 131.033 262.902 131.813 262.902C132.238 262.902 132.632 262.945 132.996 263.032C133.369 263.11 133.715 263.223 134.036 263.37L133.646 264.28C133.351 264.159 133.044 264.055 132.723 263.968C132.402 263.881 132.073 263.838 131.735 263.838C131.267 263.838 130.907 263.916 130.656 264.072C130.413 264.219 130.292 264.423 130.292 264.683C130.292 264.874 130.348 265.038 130.461 265.177C130.574 265.307 130.76 265.437 131.02 265.567C131.289 265.688 131.644 265.836 132.086 266.009C132.528 266.174 132.905 266.343 133.217 266.516C133.529 266.689 133.767 266.902 133.932 267.153C134.097 267.396 134.179 267.703 134.179 268.076ZM143.522 263.916H141.767V270H140.623V263.916H139.401V263.383L140.623 262.993V262.59C140.623 261.689 140.822 261.043 141.221 260.653C141.62 260.254 142.174 260.055 142.885 260.055C143.162 260.055 143.414 260.081 143.639 260.133C143.873 260.176 144.072 260.228 144.237 260.289L143.938 261.186C143.799 261.143 143.639 261.099 143.457 261.056C143.275 261.013 143.089 260.991 142.898 260.991C142.517 260.991 142.231 261.121 142.04 261.381C141.858 261.632 141.767 262.031 141.767 262.577V263.032H143.522V263.916ZM148.565 262.902C148.695 262.902 148.834 262.911 148.981 262.928C149.137 262.937 149.272 262.954 149.384 262.98L149.241 264.033C149.129 264.007 149.003 263.985 148.864 263.968C148.734 263.951 148.609 263.942 148.487 263.942C148.132 263.942 147.798 264.042 147.486 264.241C147.174 264.432 146.923 264.705 146.732 265.06C146.55 265.407 146.459 265.814 146.459 266.282V270H145.315V263.032H146.251L146.381 264.306H146.433C146.659 263.925 146.949 263.595 147.304 263.318C147.66 263.041 148.08 262.902 148.565 262.902ZM153.606 262.915C154.456 262.915 155.084 263.101 155.491 263.474C155.899 263.847 156.102 264.44 156.102 265.255V270H155.27L155.049 269.012H154.997C154.694 269.393 154.373 269.675 154.035 269.857C153.706 270.039 153.247 270.13 152.657 270.13C152.025 270.13 151.5 269.965 151.084 269.636C150.668 269.298 150.46 268.774 150.46 268.063C150.46 267.37 150.733 266.837 151.279 266.464C151.825 266.083 152.666 265.875 153.801 265.84L154.984 265.801V265.385C154.984 264.804 154.859 264.401 154.607 264.176C154.356 263.951 154.001 263.838 153.541 263.838C153.177 263.838 152.831 263.894 152.501 264.007C152.172 264.111 151.864 264.232 151.578 264.371L151.227 263.513C151.531 263.348 151.89 263.21 152.306 263.097C152.722 262.976 153.156 262.915 153.606 262.915ZM154.971 266.594L153.944 266.633C153.078 266.668 152.475 266.806 152.137 267.049C151.808 267.292 151.643 267.634 151.643 268.076C151.643 268.466 151.76 268.752 151.994 268.934C152.237 269.116 152.545 269.207 152.917 269.207C153.507 269.207 153.996 269.047 154.386 268.726C154.776 268.397 154.971 267.894 154.971 267.218V266.594ZM159.375 260.419C159.548 260.419 159.7 260.48 159.83 260.601C159.969 260.714 160.038 260.896 160.038 261.147C160.038 261.39 159.969 261.572 159.83 261.693C159.7 261.814 159.548 261.875 159.375 261.875C159.184 261.875 159.024 261.814 158.894 261.693C158.764 261.572 158.699 261.39 158.699 261.147C158.699 260.896 158.764 260.714 158.894 260.601C159.024 260.48 159.184 260.419 159.375 260.419ZM159.934 263.032V270H158.79V263.032H159.934ZM167.214 268.076C167.214 268.752 166.963 269.263 166.46 269.61C165.958 269.957 165.282 270.13 164.432 270.13C163.947 270.13 163.527 270.091 163.171 270.013C162.825 269.935 162.517 269.827 162.248 269.688V268.648C162.526 268.787 162.859 268.917 163.249 269.038C163.648 269.151 164.051 269.207 164.458 269.207C165.039 269.207 165.459 269.116 165.719 268.934C165.979 268.743 166.109 268.492 166.109 268.18C166.109 268.007 166.062 267.851 165.966 267.712C165.871 267.573 165.698 267.435 165.446 267.296C165.204 267.157 164.853 267.001 164.393 266.828C163.943 266.655 163.557 266.481 163.236 266.308C162.916 266.135 162.669 265.927 162.495 265.684C162.322 265.441 162.235 265.129 162.235 264.748C162.235 264.159 162.474 263.704 162.95 263.383C163.436 263.062 164.068 262.902 164.848 262.902C165.273 262.902 165.667 262.945 166.031 263.032C166.404 263.11 166.751 263.223 167.071 263.37L166.681 264.28C166.387 264.159 166.079 264.055 165.758 263.968C165.438 263.881 165.108 263.838 164.77 263.838C164.302 263.838 163.943 263.916 163.691 264.072C163.449 264.219 163.327 264.423 163.327 264.683C163.327 264.874 163.384 265.038 163.496 265.177C163.609 265.307 163.795 265.437 164.055 265.567C164.324 265.688 164.679 265.836 165.121 266.009C165.563 266.174 165.94 266.343 166.252 266.516C166.564 266.689 166.803 266.902 166.967 267.153C167.132 267.396 167.214 267.703 167.214 268.076ZM175.816 270.13C174.95 270.13 174.256 269.831 173.736 269.233C173.216 268.626 172.956 267.725 172.956 266.529C172.956 265.333 173.216 264.432 173.736 263.825C174.265 263.21 174.963 262.902 175.829 262.902C176.367 262.902 176.804 263.002 177.142 263.201C177.489 263.4 177.771 263.643 177.987 263.929H178.065C178.057 263.816 178.039 263.652 178.013 263.435C177.996 263.21 177.987 263.032 177.987 262.902V260.12H179.131V270H178.208L178.039 269.064H177.987C177.779 269.359 177.502 269.61 177.155 269.818C176.809 270.026 176.362 270.13 175.816 270.13ZM175.998 269.181C176.735 269.181 177.251 268.982 177.545 268.583C177.849 268.176 178 267.565 178 266.75V266.542C178 265.675 177.857 265.012 177.571 264.553C177.285 264.085 176.757 263.851 175.985 263.851C175.37 263.851 174.906 264.098 174.594 264.592C174.291 265.077 174.139 265.732 174.139 266.555C174.139 267.387 174.291 268.033 174.594 268.492C174.906 268.951 175.374 269.181 175.998 269.181ZM182.803 260.718L182.894 260.861C182.782 261.312 182.617 261.819 182.4 262.382C182.192 262.937 181.984 263.444 181.776 263.903H180.931C181.018 263.574 181.1 263.223 181.178 262.85C181.265 262.469 181.343 262.096 181.412 261.732C181.482 261.359 181.538 261.021 181.581 260.718H182.803ZM190.119 263.032V270H189.183L189.014 269.077H188.962C188.737 269.441 188.425 269.71 188.026 269.883C187.627 270.048 187.203 270.13 186.752 270.13C185.911 270.13 185.279 269.931 184.854 269.532C184.429 269.125 184.217 268.479 184.217 267.595V263.032H185.374V267.517C185.374 268.626 185.89 269.181 186.921 269.181C187.692 269.181 188.225 268.964 188.52 268.531C188.823 268.098 188.975 267.474 188.975 266.659V263.032H190.119ZM195.194 269.194C195.367 269.194 195.545 269.181 195.727 269.155C195.909 269.12 196.056 269.086 196.169 269.051V269.922C196.047 269.983 195.874 270.03 195.649 270.065C195.423 270.108 195.207 270.13 194.999 270.13C194.635 270.13 194.297 270.069 193.985 269.948C193.681 269.818 193.434 269.597 193.244 269.285C193.053 268.973 192.958 268.535 192.958 267.972V263.916H191.97V263.37L192.971 262.915L193.426 261.433H194.102V263.032H196.117V263.916H194.102V267.946C194.102 268.371 194.201 268.687 194.401 268.895C194.609 269.094 194.873 269.194 195.194 269.194ZM198.685 260.419C198.858 260.419 199.01 260.48 199.14 260.601C199.278 260.714 199.348 260.896 199.348 261.147C199.348 261.39 199.278 261.572 199.14 261.693C199.01 261.814 198.858 261.875 198.685 261.875C198.494 261.875 198.334 261.814 198.204 261.693C198.074 261.572 198.009 261.39 198.009 261.147C198.009 260.896 198.074 260.714 198.204 260.601C198.334 260.48 198.494 260.419 198.685 260.419ZM199.244 263.032V270H198.1V263.032H199.244ZM203.131 270H201.987V260.12H203.131V270ZM206.459 260.419C206.633 260.419 206.784 260.48 206.914 260.601C207.053 260.714 207.122 260.896 207.122 261.147C207.122 261.39 207.053 261.572 206.914 261.693C206.784 261.814 206.633 261.875 206.459 261.875C206.269 261.875 206.108 261.814 205.978 261.693C205.848 261.572 205.783 261.39 205.783 261.147C205.783 260.896 205.848 260.714 205.978 260.601C206.108 260.48 206.269 260.419 206.459 260.419ZM207.018 263.032V270H205.874V263.032H207.018ZM214.299 268.076C214.299 268.752 214.047 269.263 213.545 269.61C213.042 269.957 212.366 270.13 211.517 270.13C211.031 270.13 210.611 270.091 210.256 270.013C209.909 269.935 209.601 269.827 209.333 269.688V268.648C209.61 268.787 209.944 268.917 210.334 269.038C210.732 269.151 211.135 269.207 211.543 269.207C212.123 269.207 212.544 269.116 212.804 268.934C213.064 268.743 213.194 268.492 213.194 268.18C213.194 268.007 213.146 267.851 213.051 267.712C212.955 267.573 212.782 267.435 212.531 267.296C212.288 267.157 211.937 267.001 211.478 266.828C211.027 266.655 210.641 266.481 210.321 266.308C210 266.135 209.753 265.927 209.58 265.684C209.406 265.441 209.32 265.129 209.32 264.748C209.32 264.159 209.558 263.704 210.035 263.383C210.52 263.062 211.153 262.902 211.933 262.902C212.357 262.902 212.752 262.945 213.116 263.032C213.488 263.11 213.835 263.223 214.156 263.37L213.766 264.28C213.471 264.159 213.163 264.055 212.843 263.968C212.522 263.881 212.193 263.838 211.855 263.838C211.387 263.838 211.027 263.916 210.776 264.072C210.533 264.219 210.412 264.423 210.412 264.683C210.412 264.874 210.468 265.038 210.581 265.177C210.693 265.307 210.88 265.437 211.14 265.567C211.408 265.688 211.764 265.836 212.206 266.009C212.648 266.174 213.025 266.343 213.337 266.516C213.649 266.689 213.887 266.902 214.052 267.153C214.216 267.396 214.299 267.703 214.299 268.076ZM219.157 262.915C220.006 262.915 220.635 263.101 221.042 263.474C221.449 263.847 221.653 264.44 221.653 265.255V270H220.821L220.6 269.012H220.548C220.245 269.393 219.924 269.675 219.586 269.857C219.257 270.039 218.797 270.13 218.208 270.13C217.575 270.13 217.051 269.965 216.635 269.636C216.219 269.298 216.011 268.774 216.011 268.063C216.011 267.37 216.284 266.837 216.83 266.464C217.376 266.083 218.217 265.875 219.352 265.84L220.535 265.801V265.385C220.535 264.804 220.409 264.401 220.158 264.176C219.907 263.951 219.551 263.838 219.092 263.838C218.728 263.838 218.381 263.894 218.052 264.007C217.723 264.111 217.415 264.232 217.129 264.371L216.778 263.513C217.081 263.348 217.441 263.21 217.857 263.097C218.273 262.976 218.706 262.915 219.157 262.915ZM220.522 266.594L219.495 266.633C218.628 266.668 218.026 266.806 217.688 267.049C217.359 267.292 217.194 267.634 217.194 268.076C217.194 268.466 217.311 268.752 217.545 268.934C217.788 269.116 218.095 269.207 218.468 269.207C219.057 269.207 219.547 269.047 219.937 268.726C220.327 268.397 220.522 267.894 220.522 267.218V266.594ZM226.668 269.194C226.841 269.194 227.019 269.181 227.201 269.155C227.383 269.12 227.53 269.086 227.643 269.051V269.922C227.521 269.983 227.348 270.03 227.123 270.065C226.897 270.108 226.681 270.13 226.473 270.13C226.109 270.13 225.771 270.069 225.459 269.948C225.155 269.818 224.908 269.597 224.718 269.285C224.527 268.973 224.432 268.535 224.432 267.972V263.916H223.444V263.37L224.445 262.915L224.9 261.433H225.576V263.032H227.591V263.916H225.576V267.946C225.576 268.371 225.675 268.687 225.875 268.895C226.083 269.094 226.347 269.194 226.668 269.194ZM230.159 260.419C230.332 260.419 230.484 260.48 230.614 260.601C230.752 260.714 230.822 260.896 230.822 261.147C230.822 261.39 230.752 261.572 230.614 261.693C230.484 261.814 230.332 261.875 230.159 261.875C229.968 261.875 229.808 261.814 229.678 261.693C229.548 261.572 229.483 261.39 229.483 261.147C229.483 260.896 229.548 260.714 229.678 260.601C229.808 260.48 229.968 260.419 230.159 260.419ZM230.718 263.032V270H229.574V263.032H230.718ZM239.519 266.503C239.519 267.656 239.224 268.548 238.635 269.181C238.054 269.814 237.266 270.13 236.269 270.13C235.654 270.13 235.103 269.991 234.618 269.714C234.141 269.428 233.764 269.016 233.487 268.479C233.21 267.933 233.071 267.274 233.071 266.503C233.071 265.35 233.361 264.462 233.942 263.838C234.523 263.214 235.311 262.902 236.308 262.902C236.941 262.902 237.495 263.045 237.972 263.331C238.457 263.608 238.834 264.016 239.103 264.553C239.38 265.082 239.519 265.732 239.519 266.503ZM234.254 266.503C234.254 267.326 234.414 267.981 234.735 268.466C235.064 268.943 235.584 269.181 236.295 269.181C236.997 269.181 237.513 268.943 237.842 268.466C238.171 267.981 238.336 267.326 238.336 266.503C238.336 265.68 238.171 265.034 237.842 264.566C237.513 264.098 236.993 263.864 236.282 263.864C235.571 263.864 235.056 264.098 234.735 264.566C234.414 265.034 234.254 265.68 234.254 266.503ZM245.222 262.902C246.054 262.902 246.682 263.106 247.107 263.513C247.531 263.912 247.744 264.562 247.744 265.463V270H246.613V265.541C246.613 264.423 246.093 263.864 245.053 263.864C244.281 263.864 243.748 264.081 243.454 264.514C243.159 264.947 243.012 265.571 243.012 266.386V270H241.868V263.032H242.791L242.96 263.981H243.025C243.25 263.617 243.562 263.348 243.961 263.175C244.359 262.993 244.78 262.902 245.222 262.902ZM107.409 291L106.291 288.127H102.612L101.507 291H100.324L103.951 281.679H105.004L108.618 291H107.409ZM105.94 287.087L104.9 284.279C104.874 284.21 104.831 284.084 104.77 283.902C104.709 283.72 104.649 283.534 104.588 283.343C104.536 283.144 104.493 282.992 104.458 282.888C104.397 283.157 104.328 283.421 104.25 283.681C104.172 283.932 104.107 284.132 104.055 284.279L103.002 287.087H105.94ZM116.092 284.032V291H115.156L114.987 290.077H114.935C114.709 290.441 114.397 290.71 113.999 290.883C113.6 291.048 113.175 291.13 112.725 291.13C111.884 291.13 111.251 290.931 110.827 290.532C110.402 290.125 110.19 289.479 110.19 288.595V284.032H111.347V288.517C111.347 289.626 111.862 290.181 112.894 290.181C113.665 290.181 114.198 289.964 114.493 289.531C114.796 289.098 114.948 288.474 114.948 287.659V284.032H116.092ZM121.634 291.13C121.019 291.13 120.469 291.004 119.983 290.753C119.507 290.502 119.13 290.112 118.852 289.583C118.584 289.054 118.449 288.378 118.449 287.555C118.449 286.697 118.592 285.999 118.878 285.462C119.164 284.925 119.55 284.53 120.035 284.279C120.529 284.028 121.088 283.902 121.712 283.902C122.068 283.902 122.41 283.941 122.739 284.019C123.069 284.088 123.337 284.175 123.545 284.279L123.194 285.228C122.986 285.15 122.744 285.076 122.466 285.007C122.189 284.938 121.929 284.903 121.686 284.903C120.317 284.903 119.632 285.783 119.632 287.542C119.632 288.383 119.797 289.028 120.126 289.479C120.464 289.921 120.963 290.142 121.621 290.142C122.003 290.142 122.336 290.103 122.622 290.025C122.917 289.947 123.186 289.852 123.428 289.739V290.753C123.194 290.874 122.934 290.965 122.648 291.026C122.371 291.095 122.033 291.13 121.634 291.13ZM131.445 284.032V291H130.509L130.34 290.077H130.288C130.063 290.441 129.751 290.71 129.352 290.883C128.954 291.048 128.529 291.13 128.078 291.13C127.238 291.13 126.605 290.931 126.18 290.532C125.756 290.125 125.543 289.479 125.543 288.595V284.032H126.7V288.517C126.7 289.626 127.216 290.181 128.247 290.181C129.019 290.181 129.552 289.964 129.846 289.531C130.15 289.098 130.301 288.474 130.301 287.659V284.032H131.445ZM137.547 283.902C138.379 283.902 139.007 284.106 139.432 284.513C139.857 284.912 140.069 285.562 140.069 286.463V291H138.938V286.541C138.938 285.423 138.418 284.864 137.378 284.864C136.607 284.864 136.074 285.081 135.779 285.514C135.484 285.947 135.337 286.571 135.337 287.386V291H134.193V284.032H135.116L135.285 284.981H135.35C135.575 284.617 135.887 284.348 136.286 284.175C136.685 283.993 137.105 283.902 137.547 283.902ZM149.317 283.915C150.166 283.915 150.794 284.101 151.202 284.474C151.609 284.847 151.813 285.44 151.813 286.255V291H150.981L150.76 290.012H150.708C150.404 290.393 150.084 290.675 149.746 290.857C149.416 291.039 148.957 291.13 148.368 291.13C147.735 291.13 147.211 290.965 146.795 290.636C146.379 290.298 146.171 289.774 146.171 289.063C146.171 288.37 146.444 287.837 146.99 287.464C147.536 287.083 148.376 286.875 149.512 286.84L150.695 286.801V286.385C150.695 285.804 150.569 285.401 150.318 285.176C150.066 284.951 149.711 284.838 149.252 284.838C148.888 284.838 148.541 284.894 148.212 285.007C147.882 285.111 147.575 285.232 147.289 285.371L146.938 284.513C147.241 284.348 147.601 284.21 148.017 284.097C148.433 283.976 148.866 283.915 149.317 283.915ZM150.682 287.594L149.655 287.633C148.788 287.668 148.186 287.806 147.848 288.049C147.518 288.292 147.354 288.634 147.354 289.076C147.354 289.466 147.471 289.752 147.705 289.934C147.947 290.116 148.255 290.207 148.628 290.207C149.217 290.207 149.707 290.047 150.097 289.726C150.487 289.397 150.682 288.894 150.682 288.218V287.594ZM157.295 291.13C156.68 291.13 156.13 291.004 155.644 290.753C155.168 290.502 154.791 290.112 154.513 289.583C154.245 289.054 154.11 288.378 154.11 287.555C154.11 286.697 154.253 285.999 154.539 285.462C154.825 284.925 155.211 284.53 155.696 284.279C156.19 284.028 156.749 283.902 157.373 283.902C157.729 283.902 158.071 283.941 158.4 284.019C158.73 284.088 158.998 284.175 159.206 284.279L158.855 285.228C158.647 285.15 158.405 285.076 158.127 285.007C157.85 284.938 157.59 284.903 157.347 284.903C155.978 284.903 155.293 285.783 155.293 287.542C155.293 288.383 155.458 289.028 155.787 289.479C156.125 289.921 156.624 290.142 157.282 290.142C157.664 290.142 157.997 290.103 158.283 290.025C158.578 289.947 158.847 289.852 159.089 289.739V290.753C158.855 290.874 158.595 290.965 158.309 291.026C158.032 291.095 157.694 291.13 157.295 291.13ZM162.426 281.12V284.019C162.426 284.366 162.405 284.691 162.361 284.994H162.439C162.665 284.639 162.968 284.37 163.349 284.188C163.739 284.006 164.16 283.915 164.61 283.915C165.46 283.915 166.097 284.119 166.521 284.526C166.946 284.925 167.158 285.57 167.158 286.463V291H166.027V286.541C166.027 285.423 165.507 284.864 164.467 284.864C163.687 284.864 163.15 285.085 162.855 285.527C162.569 285.96 162.426 286.584 162.426 287.399V291H161.282V281.12H162.426ZM172.493 283.915C173.342 283.915 173.971 284.101 174.378 284.474C174.785 284.847 174.989 285.44 174.989 286.255V291H174.157L173.936 290.012H173.884C173.581 290.393 173.26 290.675 172.922 290.857C172.593 291.039 172.133 291.13 171.544 291.13C170.911 291.13 170.387 290.965 169.971 290.636C169.555 290.298 169.347 289.774 169.347 289.063C169.347 288.37 169.62 287.837 170.166 287.464C170.712 287.083 171.553 286.875 172.688 286.84L173.871 286.801V286.385C173.871 285.804 173.745 285.401 173.494 285.176C173.243 284.951 172.887 284.838 172.428 284.838C172.064 284.838 171.717 284.894 171.388 285.007C171.059 285.111 170.751 285.232 170.465 285.371L170.114 284.513C170.417 284.348 170.777 284.21 171.193 284.097C171.609 283.976 172.042 283.915 172.493 283.915ZM173.858 287.594L172.831 287.633C171.964 287.668 171.362 287.806 171.024 288.049C170.695 288.292 170.53 288.634 170.53 289.076C170.53 289.466 170.647 289.752 170.881 289.934C171.124 290.116 171.431 290.207 171.804 290.207C172.393 290.207 172.883 290.047 173.273 289.726C173.663 289.397 173.858 288.894 173.858 288.218V287.594ZM180.004 290.194C180.177 290.194 180.355 290.181 180.537 290.155C180.719 290.12 180.866 290.086 180.979 290.051V290.922C180.858 290.983 180.684 291.03 180.459 291.065C180.234 291.108 180.017 291.13 179.809 291.13C179.445 291.13 179.107 291.069 178.795 290.948C178.492 290.818 178.245 290.597 178.054 290.285C177.863 289.973 177.768 289.535 177.768 288.972V284.916H176.78V284.37L177.781 283.915L178.236 282.433H178.912V284.032H180.927V284.916H178.912V288.946C178.912 289.371 179.012 289.687 179.211 289.895C179.419 290.094 179.683 290.194 180.004 290.194ZM189.513 283.902C190.111 283.902 190.623 284.032 191.047 284.292C191.481 284.552 191.81 284.92 192.035 285.397C192.269 285.865 192.386 286.415 192.386 287.048V287.737H187.615C187.633 288.526 187.832 289.128 188.213 289.544C188.603 289.951 189.145 290.155 189.838 290.155C190.28 290.155 190.67 290.116 191.008 290.038C191.355 289.951 191.71 289.83 192.074 289.674V290.675C191.719 290.831 191.368 290.944 191.021 291.013C190.675 291.091 190.263 291.13 189.786 291.13C189.128 291.13 188.543 290.996 188.031 290.727C187.529 290.458 187.134 290.06 186.848 289.531C186.571 288.994 186.432 288.339 186.432 287.568C186.432 286.805 186.558 286.151 186.809 285.605C187.069 285.059 187.429 284.639 187.888 284.344C188.356 284.049 188.898 283.902 189.513 283.902ZM189.5 284.838C188.954 284.838 188.521 285.016 188.2 285.371C187.888 285.718 187.702 286.203 187.641 286.827H191.19C191.182 286.238 191.043 285.761 190.774 285.397C190.506 285.024 190.081 284.838 189.5 284.838ZM196.093 287.438L193.688 284.032H194.988L196.782 286.658L198.563 284.032H199.85L197.445 287.438L199.98 291H198.68L196.782 288.218L194.858 291H193.571L196.093 287.438ZM204.186 290.194C204.359 290.194 204.537 290.181 204.719 290.155C204.901 290.12 205.048 290.086 205.161 290.051V290.922C205.039 290.983 204.866 291.03 204.641 291.065C204.415 291.108 204.199 291.13 203.991 291.13C203.627 291.13 203.289 291.069 202.977 290.948C202.673 290.818 202.426 290.597 202.236 290.285C202.045 289.973 201.95 289.535 201.95 288.972V284.916H200.962V284.37L201.963 283.915L202.418 282.433H203.094V284.032H205.109V284.916H203.094V288.946C203.094 289.371 203.193 289.687 203.393 289.895C203.601 290.094 203.865 290.194 204.186 290.194ZM209.783 283.902C210.381 283.902 210.892 284.032 211.317 284.292C211.75 284.552 212.079 284.92 212.305 285.397C212.539 285.865 212.656 286.415 212.656 287.048V287.737H207.885C207.902 288.526 208.101 289.128 208.483 289.544C208.873 289.951 209.414 290.155 210.108 290.155C210.55 290.155 210.94 290.116 211.278 290.038C211.624 289.951 211.98 289.83 212.344 289.674V290.675C211.988 290.831 211.637 290.944 211.291 291.013C210.944 291.091 210.532 291.13 210.056 291.13C209.397 291.13 208.812 290.996 208.301 290.727C207.798 290.458 207.404 290.06 207.118 289.531C206.84 288.994 206.702 288.339 206.702 287.568C206.702 286.805 206.827 286.151 207.079 285.605C207.339 285.059 207.698 284.639 208.158 284.344C208.626 284.049 209.167 283.902 209.783 283.902ZM209.77 284.838C209.224 284.838 208.79 285.016 208.47 285.371C208.158 285.718 207.971 286.203 207.911 286.827H211.46C211.451 286.238 211.312 285.761 211.044 285.397C210.775 285.024 210.35 284.838 209.77 284.838ZM218.215 283.902C218.345 283.902 218.484 283.911 218.631 283.928C218.787 283.937 218.922 283.954 219.034 283.98L218.891 285.033C218.779 285.007 218.653 284.985 218.514 284.968C218.384 284.951 218.259 284.942 218.137 284.942C217.782 284.942 217.448 285.042 217.136 285.241C216.824 285.432 216.573 285.705 216.382 286.06C216.2 286.407 216.109 286.814 216.109 287.282V291H214.965V284.032H215.901L216.031 285.306H216.083C216.309 284.925 216.599 284.595 216.954 284.318C217.31 284.041 217.73 283.902 218.215 283.902ZM224.225 283.902C225.057 283.902 225.686 284.106 226.11 284.513C226.535 284.912 226.747 285.562 226.747 286.463V291H225.616V286.541C225.616 285.423 225.096 284.864 224.056 284.864C223.285 284.864 222.752 285.081 222.457 285.514C222.163 285.947 222.015 286.571 222.015 287.386V291H220.871V284.032H221.794L221.963 284.981H222.028C222.254 284.617 222.566 284.348 222.964 284.175C223.363 283.993 223.783 283.902 224.225 283.902ZM232.134 283.902C232.732 283.902 233.243 284.032 233.668 284.292C234.101 284.552 234.431 284.92 234.656 285.397C234.89 285.865 235.007 286.415 235.007 287.048V287.737H230.236C230.253 288.526 230.453 289.128 230.834 289.544C231.224 289.951 231.766 290.155 232.459 290.155C232.901 290.155 233.291 290.116 233.629 290.038C233.976 289.951 234.331 289.83 234.695 289.674V290.675C234.34 290.831 233.989 290.944 233.642 291.013C233.295 291.091 232.884 291.13 232.407 291.13C231.748 291.13 231.163 290.996 230.652 290.727C230.149 290.458 229.755 290.06 229.469 289.531C229.192 288.994 229.053 288.339 229.053 287.568C229.053 286.805 229.179 286.151 229.43 285.605C229.69 285.059 230.05 284.639 230.509 284.344C230.977 284.049 231.519 283.902 232.134 283.902ZM232.121 284.838C231.575 284.838 231.142 285.016 230.821 285.371C230.509 285.718 230.323 286.203 230.262 286.827H233.811C233.802 286.238 233.664 285.761 233.395 285.397C233.126 285.024 232.702 284.838 232.121 284.838Z" fill="black"/>
<path d="M16 25C16 11.1929 27.1929 0 41 0H295C308.807 0 320 11.1929 320 25V56H16V25Z" fill="#26374A"/>
<path d="M134.131 27.782H139.225V34.442C138.553 34.67 137.851 34.85 137.119 34.982C136.399 35.114 135.577 35.18 134.653 35.18C132.733 35.18 131.257 34.616 130.225 33.488C129.193 32.36 128.677 30.716 128.677 28.556C128.677 27.212 128.935 26.048 129.451 25.064C129.979 24.08 130.741 23.318 131.737 22.778C132.733 22.238 133.951 21.968 135.391 21.968C136.075 21.968 136.747 22.04 137.407 22.184C138.067 22.328 138.667 22.52 139.207 22.76L138.307 24.938C137.911 24.734 137.461 24.566 136.957 24.434C136.453 24.302 135.925 24.236 135.373 24.236C134.581 24.236 133.891 24.416 133.303 24.776C132.727 25.136 132.277 25.646 131.953 26.306C131.641 26.954 131.485 27.722 131.485 28.61C131.485 29.45 131.599 30.194 131.827 30.842C132.055 31.49 132.415 32 132.907 32.372C133.399 32.732 134.041 32.912 134.833 32.912C135.217 32.912 135.541 32.894 135.805 32.858C136.081 32.822 136.333 32.78 136.561 32.732V30.05H134.131V27.782ZM146.558 22.148C148.31 22.148 149.6 22.466 150.428 23.102C151.268 23.738 151.688 24.704 151.688 26C151.688 26.588 151.574 27.104 151.346 27.548C151.13 27.98 150.836 28.352 150.464 28.664C150.104 28.964 149.714 29.21 149.294 29.402L153.074 35H150.05L146.99 30.068H145.532V35H142.814V22.148H146.558ZM146.36 24.38H145.532V27.854H146.414C147.314 27.854 147.956 27.704 148.34 27.404C148.736 27.104 148.934 26.66 148.934 26.072C148.934 25.46 148.724 25.028 148.304 24.776C147.896 24.512 147.248 24.38 146.36 24.38ZM163.099 35L162.163 31.94H157.483L156.547 35H153.613L158.149 22.094H161.479L166.033 35H163.099ZM161.515 29.654L160.579 26.666C160.519 26.462 160.441 26.204 160.345 25.892C160.249 25.58 160.153 25.262 160.057 24.938C159.961 24.614 159.883 24.332 159.823 24.092C159.763 24.332 159.679 24.632 159.571 24.992C159.475 25.34 159.379 25.676 159.283 26C159.199 26.312 159.133 26.534 159.085 26.666L158.167 29.654H161.515ZM171.881 35H169.163V24.416H165.671V22.148H175.373V24.416H171.881V35ZM188.348 22.148V30.464C188.348 31.352 188.15 32.156 187.754 32.876C187.37 33.584 186.782 34.148 185.99 34.568C185.21 34.976 184.22 35.18 183.02 35.18C181.316 35.18 180.02 34.748 179.132 33.884C178.244 33.008 177.8 31.856 177.8 30.428V22.148H180.518V30.014C180.518 31.07 180.734 31.814 181.166 32.246C181.598 32.678 182.24 32.894 183.092 32.894C183.98 32.894 184.622 32.66 185.018 32.192C185.426 31.724 185.63 30.992 185.63 29.996V22.148H188.348ZM196.837 35H190.987V33.452L192.553 32.732V24.416L190.987 23.696V22.148H196.837V23.696L195.271 24.416V32.732L196.837 33.452V35ZM204.513 35H201.795V24.416H198.303V22.148H208.005V24.416H204.513V35Z" fill="white"/>
<path d="M206.461 104.798C206.461 106.514 206.275 107.984 205.902 109.208C205.544 110.432 204.954 111.372 204.133 112.029C203.327 112.685 202.238 113.014 200.865 113.014C198.94 113.014 197.529 112.29 196.634 110.842C195.738 109.38 195.291 107.365 195.291 104.798C195.291 103.067 195.47 101.589 195.828 100.365C196.186 99.1415 196.775 98.2012 197.596 97.5445C198.417 96.8879 199.507 96.5595 200.865 96.5595C202.775 96.5595 204.185 97.2834 205.096 98.731C206.006 100.179 206.461 102.201 206.461 104.798ZM198.649 104.798C198.649 106.619 198.805 107.992 199.119 108.917C199.432 109.827 200.014 110.282 200.865 110.282C201.701 110.282 202.283 109.827 202.611 108.917C202.939 108.007 203.103 106.633 203.103 104.798C203.103 102.977 202.939 101.604 202.611 100.679C202.283 99.7534 201.701 99.2907 200.865 99.2907C200.014 99.2907 199.432 99.7534 199.119 100.679C198.805 101.604 198.649 102.977 198.649 104.798Z" fill="#00823B"/>
<path d="M219.872 104.798C219.872 106.514 219.686 107.984 219.312 109.208C218.954 110.432 218.365 111.372 217.544 112.029C216.738 112.685 215.648 113.014 214.275 113.014C212.35 113.014 210.94 112.29 210.044 110.842C209.149 109.38 208.701 107.365 208.701 104.798C208.701 103.067 208.88 101.589 209.238 100.365C209.597 99.1415 210.186 98.2012 211.007 97.5445C211.828 96.8879 212.917 96.5595 214.275 96.5595C216.186 96.5595 217.596 97.2834 218.506 98.731C219.417 100.179 219.872 102.201 219.872 104.798ZM212.059 104.798C212.059 106.619 212.216 107.992 212.529 108.917C212.843 109.827 213.425 110.282 214.275 110.282C215.111 110.282 215.693 109.827 216.022 108.917C216.35 108.007 216.514 106.633 216.514 104.798C216.514 102.977 216.35 101.604 216.022 100.679C215.693 99.7534 215.111 99.2907 214.275 99.2907C213.425 99.2907 212.843 99.7534 212.529 100.679C212.216 101.604 212.059 102.977 212.059 104.798Z" fill="#00823B"/>
<path d="M119.549 146.549V144.355C118.579 144.325 117.713 144.236 116.952 144.087C116.191 143.922 115.497 143.699 114.87 143.415V140.527C115.482 140.826 116.221 141.102 117.086 141.355C117.952 141.594 118.773 141.736 119.549 141.781V138.4C118.4 137.953 117.474 137.52 116.773 137.102C116.086 136.669 115.594 136.192 115.295 135.669C114.997 135.147 114.848 134.52 114.848 133.789C114.848 132.669 115.28 131.781 116.146 131.125C117.027 130.453 118.161 130.058 119.549 129.938V128.259H121.049V129.894C122.705 129.953 124.213 130.289 125.571 130.901L124.541 133.453C123.944 133.199 123.34 133.005 122.728 132.871C122.131 132.737 121.571 132.647 121.049 132.602V135.826C121.855 136.124 122.623 136.453 123.354 136.811C124.086 137.154 124.675 137.595 125.123 138.132C125.586 138.669 125.817 139.378 125.817 140.259C125.817 141.348 125.421 142.258 124.631 142.99C123.84 143.721 122.646 144.161 121.049 144.31V146.549H119.549ZM119.549 135.222V132.647C118.609 132.781 118.138 133.162 118.138 133.789C118.138 134.102 118.25 134.363 118.474 134.572C118.698 134.781 119.056 134.998 119.549 135.222ZM121.049 141.714C122.034 141.535 122.526 141.102 122.526 140.415C122.526 140.117 122.399 139.863 122.146 139.654C121.907 139.43 121.541 139.206 121.049 138.982V141.714Z" fill="#00823B"/>
<path d="M194.165 137.359C194.165 144.411 193.4 150.548 191.87 155.772C190.378 160.958 188.288 165.249 185.602 168.644C182.953 172.04 179.8 174.577 176.143 176.256C172.524 177.897 168.607 178.718 164.391 178.718C160.174 178.718 156.257 177.897 152.638 176.256C149.056 174.577 145.94 172.04 143.291 168.644C140.642 165.249 138.571 160.958 137.079 155.772C135.587 150.548 134.84 144.411 134.84 137.359C134.84 130.27 135.587 124.132 137.079 118.946C138.571 113.76 140.642 109.469 143.291 106.074C145.94 102.679 149.056 100.16 152.638 98.5185C156.257 96.8395 160.174 96 164.391 96C168.607 96 172.524 96.8395 176.143 98.5185C179.8 100.16 182.953 102.679 185.602 106.074C188.288 109.469 190.378 113.76 191.87 118.946C193.4 124.132 194.165 130.27 194.165 137.359ZM179.893 137.359C179.893 131.501 179.464 126.651 178.606 122.808C177.748 118.965 176.591 115.905 175.136 113.629C173.718 111.353 172.077 109.768 170.211 108.872C168.345 107.939 166.405 107.473 164.391 107.473C162.413 107.473 160.492 107.939 158.626 108.872C156.798 109.768 155.175 111.353 153.757 113.629C152.339 115.905 151.201 118.965 150.343 122.808C149.522 126.651 149.112 131.501 149.112 137.359C149.112 143.217 149.522 148.067 150.343 151.91C151.201 155.753 152.339 158.813 153.757 161.089C155.175 163.365 156.798 164.969 158.626 165.902C160.492 166.797 162.413 167.245 164.391 167.245C166.405 167.245 168.345 166.797 170.211 165.902C172.077 164.969 173.718 163.365 175.136 161.089C176.591 158.813 177.748 155.753 178.606 151.91C179.464 148.067 179.893 143.217 179.893 137.359Z" fill="#00823B"/>
<rect x="16.5" y="0.5" width="303" height="343" rx="24.5" stroke="#BBBDBF"/>
</g>
<defs>
<filter id="filter0_d" x="16" y="0" width="312" height="352" filterUnits="userSpaceOnUse" color-interpolation-filters="sRGB">
<feFlood flood-opacity="0" result="BackgroundImageFix"/>
<feColorMatrix in="SourceAlpha" type="matrix" values="0 0 0 0 0 0 0 0 0 0 0 0 0 0 0 0 0 0 127 0"/>
<feOffset dx="4" dy="4"/>
<feGaussianBlur stdDeviation="2"/>
<feColorMatrix type="matrix" values="0 0 0 0 0 0 0 0 0 0 0 0 0 0 0 0 0 0 0.1 0"/>
<feBlend mode="normal" in2="BackgroundImageFix" result="effect1_dropShadow"/>
<feBlend mode="normal" in="SourceGraphic" in2="effect1_dropShadow" result="shape"/>
</filter>
</defs>
</svg>
