<svg width="336" height="352" viewBox="0 0 336 352" fill="none" xmlns="http://www.w3.org/2000/svg">
<rect x="0.5" y="24.5" width="335" height="295" rx="19.5" fill="white"/>
<path d="M0 44C0 32.9543 8.95431 24 20 24H316C327.046 24 336 32.9543 336 44V80H0V44Z" fill="#DADADB"/>
<rect x="0.5" y="24.5" width="335" height="295" rx="19.5" stroke="#DADADB"/>
<g filter="url(#filter0_d)">
<rect x="16" width="304" height="344" rx="25" fill="white"/>
<path d="M131.704 249H130.339L125.373 241.291H125.321C125.339 241.594 125.36 241.971 125.386 242.422C125.412 242.873 125.425 243.336 125.425 243.813V249H124.346V239.718H125.698L130.651 247.401H130.703C130.695 247.262 130.682 247.054 130.664 246.777C130.656 246.5 130.643 246.196 130.625 245.867C130.617 245.538 130.612 245.234 130.612 244.957V239.718H131.704V249ZM140.661 245.503C140.661 246.656 140.366 247.548 139.777 248.181C139.196 248.814 138.408 249.13 137.411 249.13C136.796 249.13 136.245 248.991 135.76 248.714C135.283 248.428 134.906 248.016 134.629 247.479C134.352 246.933 134.213 246.274 134.213 245.503C134.213 244.35 134.503 243.462 135.084 242.838C135.665 242.214 136.453 241.902 137.45 241.902C138.083 241.902 138.637 242.045 139.114 242.331C139.599 242.608 139.976 243.016 140.245 243.553C140.522 244.082 140.661 244.732 140.661 245.503ZM135.396 245.503C135.396 246.326 135.556 246.981 135.877 247.466C136.206 247.943 136.726 248.181 137.437 248.181C138.139 248.181 138.655 247.943 138.984 247.466C139.313 246.981 139.478 246.326 139.478 245.503C139.478 244.68 139.313 244.034 138.984 243.566C138.655 243.098 138.135 242.864 137.424 242.864C136.713 242.864 136.198 243.098 135.877 243.566C135.556 244.034 135.396 244.68 135.396 245.503ZM151.459 247.076C151.459 247.752 151.208 248.263 150.705 248.61C150.203 248.957 149.527 249.13 148.677 249.13C148.192 249.13 147.772 249.091 147.416 249.013C147.07 248.935 146.762 248.827 146.493 248.688V247.648C146.771 247.787 147.104 247.917 147.494 248.038C147.893 248.151 148.296 248.207 148.703 248.207C149.284 248.207 149.704 248.116 149.964 247.934C150.224 247.743 150.354 247.492 150.354 247.18C150.354 247.007 150.307 246.851 150.211 246.712C150.116 246.573 149.943 246.435 149.691 246.296C149.449 246.157 149.098 246.001 148.638 245.828C148.188 245.655 147.802 245.481 147.481 245.308C147.161 245.135 146.914 244.927 146.74 244.684C146.567 244.441 146.48 244.129 146.48 243.748C146.48 243.159 146.719 242.704 147.195 242.383C147.681 242.062 148.313 241.902 149.093 241.902C149.518 241.902 149.912 241.945 150.276 242.032C150.649 242.11 150.996 242.223 151.316 242.37L150.926 243.28C150.632 243.159 150.324 243.055 150.003 242.968C149.683 242.881 149.353 242.838 149.015 242.838C148.547 242.838 148.188 242.916 147.936 243.072C147.694 243.219 147.572 243.423 147.572 243.683C147.572 243.874 147.629 244.038 147.741 244.177C147.854 244.307 148.04 244.437 148.3 244.567C148.569 244.688 148.924 244.836 149.366 245.009C149.808 245.174 150.185 245.343 150.497 245.516C150.809 245.689 151.048 245.902 151.212 246.153C151.377 246.396 151.459 246.703 151.459 247.076ZM156.37 241.902C156.968 241.902 157.479 242.032 157.904 242.292C158.337 242.552 158.667 242.92 158.892 243.397C159.126 243.865 159.243 244.415 159.243 245.048V245.737H154.472C154.489 246.526 154.689 247.128 155.07 247.544C155.46 247.951 156.002 248.155 156.695 248.155C157.137 248.155 157.527 248.116 157.865 248.038C158.212 247.951 158.567 247.83 158.931 247.674V248.675C158.576 248.831 158.225 248.944 157.878 249.013C157.531 249.091 157.12 249.13 156.643 249.13C155.984 249.13 155.399 248.996 154.888 248.727C154.385 248.458 153.991 248.06 153.705 247.531C153.428 246.994 153.289 246.339 153.289 245.568C153.289 244.805 153.415 244.151 153.666 243.605C153.926 243.059 154.286 242.639 154.745 242.344C155.213 242.049 155.755 241.902 156.37 241.902ZM156.357 242.838C155.811 242.838 155.378 243.016 155.057 243.371C154.745 243.718 154.559 244.203 154.498 244.827H158.047C158.038 244.238 157.9 243.761 157.631 243.397C157.362 243.024 156.938 242.838 156.357 242.838ZM163.879 248.194C164.053 248.194 164.23 248.181 164.412 248.155C164.594 248.12 164.742 248.086 164.854 248.051V248.922C164.733 248.983 164.56 249.03 164.334 249.065C164.109 249.108 163.892 249.13 163.684 249.13C163.32 249.13 162.982 249.069 162.67 248.948C162.367 248.818 162.12 248.597 161.929 248.285C161.739 247.973 161.643 247.535 161.643 246.972V242.916H160.655V242.37L161.656 241.915L162.111 240.433H162.787V242.032H164.802V242.916H162.787V246.946C162.787 247.371 162.887 247.687 163.086 247.895C163.294 248.094 163.559 248.194 163.879 248.194ZM172.609 242.032V249H171.673L171.504 248.077H171.452C171.227 248.441 170.915 248.71 170.516 248.883C170.118 249.048 169.693 249.13 169.242 249.13C168.402 249.13 167.769 248.931 167.344 248.532C166.92 248.125 166.707 247.479 166.707 246.595V242.032H167.864V246.517C167.864 247.626 168.38 248.181 169.411 248.181C170.183 248.181 170.716 247.964 171.01 247.531C171.314 247.098 171.465 246.474 171.465 245.659V242.032H172.609ZM178.672 241.902C179.53 241.902 180.219 242.201 180.739 242.799C181.268 243.397 181.532 244.298 181.532 245.503C181.532 246.69 181.268 247.592 180.739 248.207C180.219 248.822 179.526 249.13 178.659 249.13C178.122 249.13 177.676 249.03 177.32 248.831C176.974 248.623 176.701 248.385 176.501 248.116H176.423C176.441 248.263 176.458 248.45 176.475 248.675C176.493 248.9 176.501 249.095 176.501 249.26V252.12H175.357V242.032H176.293L176.449 242.981H176.501C176.709 242.678 176.982 242.422 177.32 242.214C177.658 242.006 178.109 241.902 178.672 241.902ZM178.464 242.864C177.754 242.864 177.251 243.063 176.956 243.462C176.67 243.861 176.519 244.467 176.501 245.282V245.503C176.501 246.361 176.64 247.024 176.917 247.492C177.203 247.951 177.728 248.181 178.49 248.181C178.915 248.181 179.262 248.064 179.53 247.83C179.808 247.596 180.011 247.28 180.141 246.881C180.28 246.474 180.349 246.01 180.349 245.49C180.349 244.693 180.193 244.056 179.881 243.579C179.578 243.102 179.106 242.864 178.464 242.864ZM191.015 242.916H189.26V249H188.116V242.916H186.894V242.383L188.116 241.993V241.59C188.116 240.689 188.315 240.043 188.714 239.653C189.112 239.254 189.667 239.055 190.378 239.055C190.655 239.055 190.906 239.081 191.132 239.133C191.366 239.176 191.565 239.228 191.73 239.289L191.431 240.186C191.292 240.143 191.132 240.099 190.95 240.056C190.768 240.013 190.581 239.991 190.391 239.991C190.009 239.991 189.723 240.121 189.533 240.381C189.351 240.632 189.26 241.031 189.26 241.577V242.032H191.015V242.916ZM195.499 241.902C196.097 241.902 196.609 242.032 197.033 242.292C197.467 242.552 197.796 242.92 198.021 243.397C198.255 243.865 198.372 244.415 198.372 245.048V245.737H193.601C193.619 246.526 193.818 247.128 194.199 247.544C194.589 247.951 195.131 248.155 195.824 248.155C196.266 248.155 196.656 248.116 196.994 248.038C197.341 247.951 197.696 247.83 198.06 247.674V248.675C197.705 248.831 197.354 248.944 197.007 249.013C196.661 249.091 196.249 249.13 195.772 249.13C195.114 249.13 194.529 248.996 194.017 248.727C193.515 248.458 193.12 248.06 192.834 247.531C192.557 246.994 192.418 246.339 192.418 245.568C192.418 244.805 192.544 244.151 192.795 243.605C193.055 243.059 193.415 242.639 193.874 242.344C194.342 242.049 194.884 241.902 195.499 241.902ZM195.486 242.838C194.94 242.838 194.507 243.016 194.186 243.371C193.874 243.718 193.688 244.203 193.627 244.827H197.176C197.168 244.238 197.029 243.761 196.76 243.397C196.492 243.024 196.067 242.838 195.486 242.838ZM203.373 241.902C203.971 241.902 204.482 242.032 204.907 242.292C205.34 242.552 205.669 242.92 205.895 243.397C206.129 243.865 206.246 244.415 206.246 245.048V245.737H201.475C201.492 246.526 201.691 247.128 202.073 247.544C202.463 247.951 203.004 248.155 203.698 248.155C204.14 248.155 204.53 248.116 204.868 248.038C205.214 247.951 205.57 247.83 205.934 247.674V248.675C205.578 248.831 205.227 248.944 204.881 249.013C204.534 249.091 204.122 249.13 203.646 249.13C202.987 249.13 202.402 248.996 201.891 248.727C201.388 248.458 200.994 248.06 200.708 247.531C200.43 246.994 200.292 246.339 200.292 245.568C200.292 244.805 200.417 244.151 200.669 243.605C200.929 243.059 201.288 242.639 201.748 242.344C202.216 242.049 202.757 241.902 203.373 241.902ZM203.36 242.838C202.814 242.838 202.38 243.016 202.06 243.371C201.748 243.718 201.561 244.203 201.501 244.827H205.05C205.041 244.238 204.902 243.761 204.634 243.397C204.365 243.024 203.94 242.838 203.36 242.838ZM126.598 270H125.233L120.267 262.291H120.215C120.233 262.594 120.254 262.971 120.28 263.422C120.306 263.873 120.319 264.336 120.319 264.813V270H119.24V260.718H120.592L125.545 268.401H125.597C125.589 268.262 125.576 268.054 125.558 267.777C125.55 267.5 125.537 267.196 125.519 266.867C125.511 266.538 125.506 266.234 125.506 265.957V260.718H126.598V270ZM135.555 266.503C135.555 267.656 135.26 268.548 134.671 269.181C134.09 269.814 133.302 270.13 132.305 270.13C131.69 270.13 131.139 269.991 130.654 269.714C130.177 269.428 129.8 269.016 129.523 268.479C129.246 267.933 129.107 267.274 129.107 266.503C129.107 265.35 129.397 264.462 129.978 263.838C130.559 263.214 131.347 262.902 132.344 262.902C132.977 262.902 133.531 263.045 134.008 263.331C134.493 263.608 134.87 264.016 135.139 264.553C135.416 265.082 135.555 265.732 135.555 266.503ZM130.29 266.503C130.29 267.326 130.45 267.981 130.771 268.466C131.1 268.943 131.62 269.181 132.331 269.181C133.033 269.181 133.549 268.943 133.878 268.466C134.207 267.981 134.372 267.326 134.372 266.503C134.372 265.68 134.207 265.034 133.878 264.566C133.549 264.098 133.029 263.864 132.318 263.864C131.607 263.864 131.092 264.098 130.771 264.566C130.45 265.034 130.29 265.68 130.29 266.503ZM144.611 270.13C143.996 270.13 143.446 270.004 142.96 269.753C142.484 269.502 142.107 269.112 141.829 268.583C141.561 268.054 141.426 267.378 141.426 266.555C141.426 265.697 141.569 264.999 141.855 264.462C142.141 263.925 142.527 263.53 143.012 263.279C143.506 263.028 144.065 262.902 144.689 262.902C145.045 262.902 145.387 262.941 145.716 263.019C146.046 263.088 146.314 263.175 146.522 263.279L146.171 264.228C145.963 264.15 145.721 264.076 145.443 264.007C145.166 263.938 144.906 263.903 144.663 263.903C143.294 263.903 142.609 264.783 142.609 266.542C142.609 267.383 142.774 268.028 143.103 268.479C143.441 268.921 143.94 269.142 144.598 269.142C144.98 269.142 145.313 269.103 145.599 269.025C145.894 268.947 146.163 268.852 146.405 268.739V269.753C146.171 269.874 145.911 269.965 145.625 270.026C145.348 270.095 145.01 270.13 144.611 270.13ZM154.656 266.503C154.656 267.656 154.362 268.548 153.772 269.181C153.192 269.814 152.403 270.13 151.406 270.13C150.791 270.13 150.241 269.991 149.755 269.714C149.279 269.428 148.902 269.016 148.624 268.479C148.347 267.933 148.208 267.274 148.208 266.503C148.208 265.35 148.499 264.462 149.079 263.838C149.66 263.214 150.449 262.902 151.445 262.902C152.078 262.902 152.633 263.045 153.109 263.331C153.595 263.608 153.972 264.016 154.24 264.553C154.518 265.082 154.656 265.732 154.656 266.503ZM149.391 266.503C149.391 267.326 149.552 267.981 149.872 268.466C150.202 268.943 150.722 269.181 151.432 269.181C152.134 269.181 152.65 268.943 152.979 268.466C153.309 267.981 153.473 267.326 153.473 266.503C153.473 265.68 153.309 265.034 152.979 264.566C152.65 264.098 152.13 263.864 151.419 263.864C150.709 263.864 150.193 264.098 149.872 264.566C149.552 265.034 149.391 265.68 149.391 266.503ZM161.542 268.076C161.542 268.752 161.291 269.263 160.788 269.61C160.285 269.957 159.609 270.13 158.76 270.13C158.275 270.13 157.854 270.091 157.499 270.013C157.152 269.935 156.845 269.827 156.576 269.688V268.648C156.853 268.787 157.187 268.917 157.577 269.038C157.976 269.151 158.379 269.207 158.786 269.207C159.367 269.207 159.787 269.116 160.047 268.934C160.307 268.743 160.437 268.492 160.437 268.18C160.437 268.007 160.389 267.851 160.294 267.712C160.199 267.573 160.025 267.435 159.774 267.296C159.531 267.157 159.18 267.001 158.721 266.828C158.27 266.655 157.885 266.481 157.564 266.308C157.243 266.135 156.996 265.927 156.823 265.684C156.65 265.441 156.563 265.129 156.563 264.748C156.563 264.159 156.801 263.704 157.278 263.383C157.763 263.062 158.396 262.902 159.176 262.902C159.601 262.902 159.995 262.945 160.359 263.032C160.732 263.11 161.078 263.223 161.399 263.37L161.009 264.28C160.714 264.159 160.407 264.055 160.086 263.968C159.765 263.881 159.436 263.838 159.098 263.838C158.63 263.838 158.27 263.916 158.019 264.072C157.776 264.219 157.655 264.423 157.655 264.683C157.655 264.874 157.711 265.038 157.824 265.177C157.937 265.307 158.123 265.437 158.383 265.567C158.652 265.688 159.007 265.836 159.449 266.009C159.891 266.174 160.268 266.343 160.58 266.516C160.892 266.689 161.13 266.902 161.295 267.153C161.46 267.396 161.542 267.703 161.542 268.076ZM166.088 269.194C166.262 269.194 166.439 269.181 166.621 269.155C166.803 269.12 166.951 269.086 167.063 269.051V269.922C166.942 269.983 166.769 270.03 166.543 270.065C166.318 270.108 166.101 270.13 165.893 270.13C165.529 270.13 165.191 270.069 164.879 269.948C164.576 269.818 164.329 269.597 164.138 269.285C163.948 268.973 163.852 268.535 163.852 267.972V263.916H162.864V263.37L163.865 262.915L164.32 261.433H164.996V263.032H167.011V263.916H164.996V267.946C164.996 268.371 165.096 268.687 165.295 268.895C165.503 269.094 165.768 269.194 166.088 269.194ZM175.234 269.194C175.407 269.194 175.585 269.181 175.767 269.155C175.949 269.12 176.096 269.086 176.209 269.051V269.922C176.088 269.983 175.914 270.03 175.689 270.065C175.464 270.108 175.247 270.13 175.039 270.13C174.675 270.13 174.337 270.069 174.025 269.948C173.722 269.818 173.475 269.597 173.284 269.285C173.093 268.973 172.998 268.535 172.998 267.972V263.916H172.01V263.37L173.011 262.915L173.466 261.433H174.142V263.032H176.157V263.916H174.142V267.946C174.142 268.371 174.242 268.687 174.441 268.895C174.649 269.094 174.913 269.194 175.234 269.194ZM184.198 266.503C184.198 267.656 183.903 268.548 183.314 269.181C182.733 269.814 181.945 270.13 180.948 270.13C180.333 270.13 179.782 269.991 179.297 269.714C178.82 269.428 178.443 269.016 178.166 268.479C177.889 267.933 177.75 267.274 177.75 266.503C177.75 265.35 178.04 264.462 178.621 263.838C179.202 263.214 179.99 262.902 180.987 262.902C181.62 262.902 182.174 263.045 182.651 263.331C183.136 263.608 183.513 264.016 183.782 264.553C184.059 265.082 184.198 265.732 184.198 266.503ZM178.933 266.503C178.933 267.326 179.093 267.981 179.414 268.466C179.743 268.943 180.263 269.181 180.974 269.181C181.676 269.181 182.192 268.943 182.521 268.466C182.85 267.981 183.015 267.326 183.015 266.503C183.015 265.68 182.85 265.034 182.521 264.566C182.192 264.098 181.672 263.864 180.961 263.864C180.25 263.864 179.735 264.098 179.414 264.566C179.093 265.034 178.933 265.68 178.933 266.503ZM196.284 263.032V270H195.348L195.179 269.077H195.127C194.901 269.441 194.589 269.71 194.191 269.883C193.792 270.048 193.367 270.13 192.917 270.13C192.076 270.13 191.443 269.931 191.019 269.532C190.594 269.125 190.382 268.479 190.382 267.595V263.032H191.539V267.517C191.539 268.626 192.054 269.181 193.086 269.181C193.857 269.181 194.39 268.964 194.685 268.531C194.988 268.098 195.14 267.474 195.14 266.659V263.032H196.284ZM203.568 268.076C203.568 268.752 203.317 269.263 202.814 269.61C202.312 269.957 201.636 270.13 200.786 270.13C200.301 270.13 199.881 270.091 199.525 270.013C199.179 269.935 198.871 269.827 198.602 269.688V268.648C198.88 268.787 199.213 268.917 199.603 269.038C200.002 269.151 200.405 269.207 200.812 269.207C201.393 269.207 201.813 269.116 202.073 268.934C202.333 268.743 202.463 268.492 202.463 268.18C202.463 268.007 202.416 267.851 202.32 267.712C202.225 267.573 202.052 267.435 201.8 267.296C201.558 267.157 201.207 267.001 200.747 266.828C200.297 266.655 199.911 266.481 199.59 266.308C199.27 266.135 199.023 265.927 198.849 265.684C198.676 265.441 198.589 265.129 198.589 264.748C198.589 264.159 198.828 263.704 199.304 263.383C199.79 263.062 200.422 262.902 201.202 262.902C201.627 262.902 202.021 262.945 202.385 263.032C202.758 263.11 203.105 263.223 203.425 263.37L203.035 264.28C202.741 264.159 202.433 264.055 202.112 263.968C201.792 263.881 201.462 263.838 201.124 263.838C200.656 263.838 200.297 263.916 200.045 264.072C199.803 264.219 199.681 264.423 199.681 264.683C199.681 264.874 199.738 265.038 199.85 265.177C199.963 265.307 200.149 265.437 200.409 265.567C200.678 265.688 201.033 265.836 201.475 266.009C201.917 266.174 202.294 266.343 202.606 266.516C202.918 266.689 203.157 266.902 203.321 267.153C203.486 267.396 203.568 267.703 203.568 268.076ZM208.479 262.902C209.077 262.902 209.588 263.032 210.013 263.292C210.446 263.552 210.775 263.92 211.001 264.397C211.235 264.865 211.352 265.415 211.352 266.048V266.737H206.581C206.598 267.526 206.797 268.128 207.179 268.544C207.569 268.951 208.11 269.155 208.804 269.155C209.246 269.155 209.636 269.116 209.974 269.038C210.32 268.951 210.676 268.83 211.04 268.674V269.675C210.684 269.831 210.333 269.944 209.987 270.013C209.64 270.091 209.228 270.13 208.752 270.13C208.093 270.13 207.508 269.996 206.997 269.727C206.494 269.458 206.1 269.06 205.814 268.531C205.536 267.994 205.398 267.339 205.398 266.568C205.398 265.805 205.523 265.151 205.775 264.605C206.035 264.059 206.394 263.639 206.854 263.344C207.322 263.049 207.863 262.902 208.479 262.902ZM208.466 263.838C207.92 263.838 207.486 264.016 207.166 264.371C206.854 264.718 206.667 265.203 206.607 265.827H210.156C210.147 265.238 210.008 264.761 209.74 264.397C209.471 264.024 209.046 263.838 208.466 263.838ZM119.603 291H118.238L113.272 283.291H113.22C113.237 283.594 113.259 283.971 113.285 284.422C113.311 284.873 113.324 285.336 113.324 285.813V291H112.245V281.718H113.597L118.55 289.401H118.602C118.593 289.262 118.58 289.054 118.563 288.777C118.554 288.5 118.541 288.196 118.524 287.867C118.515 287.538 118.511 287.234 118.511 286.957V281.718H119.603V291ZM128.56 287.503C128.56 288.656 128.265 289.548 127.676 290.181C127.095 290.814 126.306 291.13 125.31 291.13C124.694 291.13 124.144 290.991 123.659 290.714C123.182 290.428 122.805 290.016 122.528 289.479C122.25 288.933 122.112 288.274 122.112 287.503C122.112 286.35 122.402 285.462 122.983 284.838C123.563 284.214 124.352 283.902 125.349 283.902C125.981 283.902 126.536 284.045 127.013 284.331C127.498 284.608 127.875 285.016 128.144 285.553C128.421 286.082 128.56 286.732 128.56 287.503ZM123.295 287.503C123.295 288.326 123.455 288.981 123.776 289.466C124.105 289.943 124.625 290.181 125.336 290.181C126.038 290.181 126.553 289.943 126.883 289.466C127.212 288.981 127.377 288.326 127.377 287.503C127.377 286.68 127.212 286.034 126.883 285.566C126.553 285.098 126.033 284.864 125.323 284.864C124.612 284.864 124.096 285.098 123.776 285.566C123.455 286.034 123.295 286.68 123.295 287.503ZM138.136 283.902C138.994 283.902 139.683 284.201 140.203 284.799C140.732 285.397 140.996 286.298 140.996 287.503C140.996 288.69 140.732 289.592 140.203 290.207C139.683 290.822 138.99 291.13 138.123 291.13C137.586 291.13 137.14 291.03 136.784 290.831C136.438 290.623 136.165 290.385 135.965 290.116H135.887C135.905 290.263 135.922 290.45 135.939 290.675C135.957 290.9 135.965 291.095 135.965 291.26V294.12H134.821V284.032H135.757L135.913 284.981H135.965C136.173 284.678 136.446 284.422 136.784 284.214C137.122 284.006 137.573 283.902 138.136 283.902ZM137.928 284.864C137.218 284.864 136.715 285.063 136.42 285.462C136.134 285.861 135.983 286.467 135.965 287.282V287.503C135.965 288.361 136.104 289.024 136.381 289.492C136.667 289.951 137.192 290.181 137.954 290.181C138.379 290.181 138.726 290.064 138.994 289.83C139.272 289.596 139.475 289.28 139.605 288.881C139.744 288.474 139.813 288.01 139.813 287.49C139.813 286.693 139.657 286.056 139.345 285.579C139.042 285.102 138.57 284.864 137.928 284.864ZM146.605 283.902C146.735 283.902 146.874 283.911 147.021 283.928C147.177 283.937 147.311 283.954 147.424 283.98L147.281 285.033C147.168 285.007 147.043 284.985 146.904 284.968C146.774 284.951 146.648 284.942 146.527 284.942C146.172 284.942 145.838 285.042 145.526 285.241C145.214 285.432 144.963 285.705 144.772 286.06C144.59 286.407 144.499 286.814 144.499 287.282V291H143.355V284.032H144.291L144.421 285.306H144.473C144.698 284.925 144.989 284.595 145.344 284.318C145.699 284.041 146.12 283.902 146.605 283.902ZM155.065 287.503C155.065 288.656 154.77 289.548 154.181 290.181C153.6 290.814 152.812 291.13 151.815 291.13C151.2 291.13 150.649 290.991 150.164 290.714C149.687 290.428 149.31 290.016 149.033 289.479C148.756 288.933 148.617 288.274 148.617 287.503C148.617 286.35 148.907 285.462 149.488 284.838C150.069 284.214 150.857 283.902 151.854 283.902C152.487 283.902 153.041 284.045 153.518 284.331C154.003 284.608 154.38 285.016 154.649 285.553C154.926 286.082 155.065 286.732 155.065 287.503ZM149.8 287.503C149.8 288.326 149.96 288.981 150.281 289.466C150.61 289.943 151.13 290.181 151.841 290.181C152.543 290.181 153.059 289.943 153.388 289.466C153.717 288.981 153.882 288.326 153.882 287.503C153.882 286.68 153.717 286.034 153.388 285.566C153.059 285.098 152.539 284.864 151.828 284.864C151.117 284.864 150.602 285.098 150.281 285.566C149.96 286.034 149.8 286.68 149.8 287.503ZM160.209 291.13C159.593 291.13 159.043 291.004 158.558 290.753C158.081 290.502 157.704 290.112 157.427 289.583C157.158 289.054 157.024 288.378 157.024 287.555C157.024 286.697 157.167 285.999 157.453 285.462C157.739 284.925 158.124 284.53 158.61 284.279C159.104 284.028 159.663 283.902 160.287 283.902C160.642 283.902 160.984 283.941 161.314 284.019C161.643 284.088 161.912 284.175 162.12 284.279L161.769 285.228C161.561 285.15 161.318 285.076 161.041 285.007C160.763 284.938 160.503 284.903 160.261 284.903C158.891 284.903 158.207 285.783 158.207 287.542C158.207 288.383 158.371 289.028 158.701 289.479C159.039 289.921 159.537 290.142 160.196 290.142C160.577 290.142 160.911 290.103 161.197 290.025C161.491 289.947 161.76 289.852 162.003 289.739V290.753C161.769 290.874 161.509 290.965 161.223 291.026C160.945 291.095 160.607 291.13 160.209 291.13ZM170.02 284.032V291H169.084L168.915 290.077H168.863C168.637 290.441 168.325 290.71 167.927 290.883C167.528 291.048 167.103 291.13 166.653 291.13C165.812 291.13 165.179 290.931 164.755 290.532C164.33 290.125 164.118 289.479 164.118 288.595V284.032H165.275V288.517C165.275 289.626 165.79 290.181 166.822 290.181C167.593 290.181 168.126 289.964 168.421 289.531C168.724 289.098 168.876 288.474 168.876 287.659V284.032H170.02ZM176.017 283.902C176.147 283.902 176.286 283.911 176.433 283.928C176.589 283.937 176.724 283.954 176.836 283.98L176.693 285.033C176.581 285.007 176.455 284.985 176.316 284.968C176.186 284.951 176.061 284.942 175.939 284.942C175.584 284.942 175.25 285.042 174.938 285.241C174.626 285.432 174.375 285.705 174.184 286.06C174.002 286.407 173.911 286.814 173.911 287.282V291H172.767V284.032H173.703L173.833 285.306H173.885C174.111 284.925 174.401 284.595 174.756 284.318C175.112 284.041 175.532 283.902 176.017 283.902ZM181.11 283.902C181.708 283.902 182.22 284.032 182.644 284.292C183.078 284.552 183.407 284.92 183.632 285.397C183.866 285.865 183.983 286.415 183.983 287.048V287.737H179.212C179.23 288.526 179.429 289.128 179.81 289.544C180.2 289.951 180.742 290.155 181.435 290.155C181.877 290.155 182.267 290.116 182.605 290.038C182.952 289.951 183.307 289.83 183.671 289.674V290.675C183.316 290.831 182.965 290.944 182.618 291.013C182.272 291.091 181.86 291.13 181.383 291.13C180.725 291.13 180.14 290.996 179.628 290.727C179.126 290.458 178.731 290.06 178.445 289.531C178.168 288.994 178.029 288.339 178.029 287.568C178.029 286.805 178.155 286.151 178.406 285.605C178.666 285.059 179.026 284.639 179.485 284.344C179.953 284.049 180.495 283.902 181.11 283.902ZM181.097 284.838C180.551 284.838 180.118 285.016 179.797 285.371C179.485 285.718 179.299 286.203 179.238 286.827H182.787C182.779 286.238 182.64 285.761 182.371 285.397C182.103 285.024 181.678 284.838 181.097 284.838ZM193.937 283.902C194.726 283.902 195.315 284.106 195.705 284.513C196.095 284.912 196.29 285.562 196.29 286.463V291H195.159V286.515C195.159 285.414 194.687 284.864 193.742 284.864C193.066 284.864 192.581 285.059 192.286 285.449C192 285.839 191.857 286.407 191.857 287.152V291H190.726V286.515C190.726 285.414 190.249 284.864 189.296 284.864C188.594 284.864 188.109 285.081 187.84 285.514C187.571 285.947 187.437 286.571 187.437 287.386V291H186.293V284.032H187.216L187.385 284.981H187.45C187.667 284.617 187.957 284.348 188.321 284.175C188.694 283.993 189.088 283.902 189.504 283.902C190.596 283.902 191.307 284.292 191.636 285.072H191.701C191.935 284.673 192.251 284.379 192.65 284.188C193.057 283.997 193.486 283.902 193.937 283.902ZM201.669 283.902C202.267 283.902 202.778 284.032 203.203 284.292C203.636 284.552 203.966 284.92 204.191 285.397C204.425 285.865 204.542 286.415 204.542 287.048V287.737H199.771C199.788 288.526 199.988 289.128 200.369 289.544C200.759 289.951 201.301 290.155 201.994 290.155C202.436 290.155 202.826 290.116 203.164 290.038C203.511 289.951 203.866 289.83 204.23 289.674V290.675C203.875 290.831 203.524 290.944 203.177 291.013C202.83 291.091 202.419 291.13 201.942 291.13C201.283 291.13 200.698 290.996 200.187 290.727C199.684 290.458 199.29 290.06 199.004 289.531C198.727 288.994 198.588 288.339 198.588 287.568C198.588 286.805 198.714 286.151 198.965 285.605C199.225 285.059 199.585 284.639 200.044 284.344C200.512 284.049 201.054 283.902 201.669 283.902ZM201.656 284.838C201.11 284.838 200.677 285.016 200.356 285.371C200.044 285.718 199.858 286.203 199.797 286.827H203.346C203.337 286.238 203.199 285.761 202.93 285.397C202.661 285.024 202.237 284.838 201.656 284.838ZM210.206 283.902C211.038 283.902 211.666 284.106 212.091 284.513C212.515 284.912 212.728 285.562 212.728 286.463V291H211.597V286.541C211.597 285.423 211.077 284.864 210.037 284.864C209.265 284.864 208.732 285.081 208.438 285.514C208.143 285.947 207.996 286.571 207.996 287.386V291H206.852V284.032H207.775L207.944 284.981H208.009C208.234 284.617 208.546 284.348 208.945 284.175C209.343 283.993 209.764 283.902 210.206 283.902ZM217.751 290.194C217.924 290.194 218.102 290.181 218.284 290.155C218.466 290.12 218.613 290.086 218.726 290.051V290.922C218.604 290.983 218.431 291.03 218.206 291.065C217.98 291.108 217.764 291.13 217.556 291.13C217.192 291.13 216.854 291.069 216.542 290.948C216.238 290.818 215.991 290.597 215.801 290.285C215.61 289.973 215.515 289.535 215.515 288.972V284.916H214.527V284.37L215.528 283.915L215.983 282.433H216.659V284.032H218.674V284.916H216.659V288.946C216.659 289.371 216.758 289.687 216.958 289.895C217.166 290.094 217.43 290.194 217.751 290.194Z" fill="black"/>
<path d="M16 25C16 11.1929 27.1929 0 41 0H295C308.807 0 320 11.1929 320 25V56H16V25Z" fill="#26374A"/>
<path d="M150.545 35H147.863V22.148H155.225V24.38H150.545V27.692H154.901V29.924H150.545V35ZM162.022 22.148C163.774 22.148 165.064 22.466 165.892 23.102C166.732 23.738 167.152 24.704 167.152 26C167.152 26.588 167.038 27.104 166.81 27.548C166.594 27.98 166.3 28.352 165.928 28.664C165.568 28.964 165.178 29.21 164.758 29.402L168.538 35H165.514L162.454 30.068H160.996V35H158.278V22.148H162.022ZM161.824 24.38H160.996V27.854H161.878C162.778 27.854 163.42 27.704 163.804 27.404C164.2 27.104 164.398 26.66 164.398 26.072C164.398 25.46 164.188 25.028 163.768 24.776C163.36 24.512 162.712 24.38 161.824 24.38ZM178.094 35H170.696V22.148H178.094V24.38H173.414V27.206H177.77V29.438H173.414V32.75H178.094V35ZM188.702 35H181.304V22.148H188.702V24.38H184.022V27.206H188.378V29.438H184.022V32.75H188.702V35Z" fill="white"/>
<path d="M206.461 104.798C206.461 106.514 206.275 107.984 205.902 109.208C205.543 110.432 204.954 111.372 204.133 112.029C203.327 112.685 202.238 113.014 200.865 113.014C198.939 113.014 197.529 112.29 196.634 110.842C195.738 109.38 195.29 107.365 195.29 104.798C195.29 103.067 195.47 101.589 195.828 100.365C196.186 99.1415 196.775 98.2012 197.596 97.5445C198.417 96.8879 199.507 96.5595 200.865 96.5595C202.775 96.5595 204.185 97.2834 205.096 98.731C206.006 100.179 206.461 102.201 206.461 104.798ZM198.648 104.798C198.648 106.619 198.805 107.992 199.119 108.917C199.432 109.827 200.014 110.282 200.865 110.282C201.7 110.282 202.283 109.827 202.611 108.917C202.939 108.007 203.103 106.633 203.103 104.798C203.103 102.977 202.939 101.604 202.611 100.679C202.283 99.7534 201.7 99.2907 200.865 99.2907C200.014 99.2907 199.432 99.7534 199.119 100.679C198.805 101.604 198.648 102.977 198.648 104.798Z" fill="#00823B"/>
<path d="M219.872 104.798C219.872 106.514 219.685 107.984 219.312 109.208C218.954 110.432 218.365 111.372 217.544 112.029C216.738 112.685 215.648 113.014 214.275 113.014C212.35 113.014 210.94 112.29 210.044 110.842C209.149 109.38 208.701 107.365 208.701 104.798C208.701 103.067 208.88 101.589 209.238 100.365C209.597 99.1415 210.186 98.2012 211.007 97.5445C211.828 96.8879 212.917 96.5595 214.275 96.5595C216.186 96.5595 217.596 97.2834 218.506 98.731C219.417 100.179 219.872 102.201 219.872 104.798ZM212.059 104.798C212.059 106.619 212.216 107.992 212.529 108.917C212.843 109.827 213.425 110.282 214.275 110.282C215.111 110.282 215.693 109.827 216.022 108.917C216.35 108.007 216.514 106.633 216.514 104.798C216.514 102.977 216.35 101.604 216.022 100.679C215.693 99.7534 215.111 99.2907 214.275 99.2907C213.425 99.2907 212.843 99.7534 212.529 100.679C212.216 101.604 212.059 102.977 212.059 104.798Z" fill="#00823B"/>
<path d="M119.549 146.549V144.355C118.579 144.325 117.713 144.236 116.952 144.087C116.191 143.922 115.497 143.699 114.87 143.415V140.527C115.482 140.826 116.221 141.102 117.086 141.355C117.952 141.594 118.773 141.736 119.549 141.781V138.4C118.4 137.953 117.474 137.52 116.773 137.102C116.086 136.669 115.594 136.192 115.295 135.669C114.997 135.147 114.848 134.52 114.848 133.789C114.848 132.669 115.28 131.781 116.146 131.125C117.027 130.453 118.161 130.058 119.549 129.938V128.259H121.049V129.894C122.705 129.953 124.213 130.289 125.571 130.901L124.541 133.453C123.944 133.199 123.34 133.005 122.728 132.871C122.131 132.737 121.571 132.647 121.049 132.602V135.826C121.855 136.124 122.623 136.453 123.354 136.811C124.086 137.154 124.675 137.595 125.123 138.132C125.586 138.669 125.817 139.378 125.817 140.259C125.817 141.348 125.421 142.258 124.63 142.99C123.839 143.721 122.646 144.161 121.049 144.31V146.549H119.549ZM119.549 135.222V132.647C118.609 132.781 118.138 133.162 118.138 133.789C118.138 134.102 118.25 134.363 118.474 134.572C118.698 134.781 119.056 134.998 119.549 135.222ZM121.049 141.714C122.034 141.535 122.526 141.102 122.526 140.415C122.526 140.117 122.399 139.863 122.146 139.654C121.907 139.43 121.541 139.206 121.049 138.982V141.714Z" fill="#00823B"/>
<path d="M194.165 137.359C194.165 144.411 193.4 150.548 191.87 155.772C190.377 160.958 188.288 165.249 185.602 168.644C182.953 172.04 179.8 174.577 176.143 176.256C172.524 177.897 168.607 178.718 164.39 178.718C160.174 178.718 156.257 177.897 152.638 176.256C149.056 174.577 145.94 172.04 143.291 168.644C140.642 165.249 138.571 160.958 137.079 155.772C135.586 150.548 134.84 144.411 134.84 137.359C134.84 130.27 135.586 124.132 137.079 118.946C138.571 113.76 140.642 109.469 143.291 106.074C145.94 102.679 149.056 100.16 152.638 98.5185C156.257 96.8395 160.174 96 164.39 96C168.607 96 172.524 96.8395 176.143 98.5185C179.8 100.16 182.953 102.679 185.602 106.074C188.288 109.469 190.377 113.76 191.87 118.946C193.4 124.132 194.165 130.27 194.165 137.359ZM179.893 137.359C179.893 131.501 179.464 126.651 178.606 122.808C177.748 118.965 176.591 115.905 175.136 113.629C173.718 111.353 172.077 109.768 170.211 108.872C168.345 107.939 166.405 107.473 164.39 107.473C162.413 107.473 160.491 107.939 158.626 108.872C156.798 109.768 155.175 111.353 153.757 113.629C152.339 115.905 151.201 118.965 150.343 122.808C149.522 126.651 149.112 131.501 149.112 137.359C149.112 143.217 149.522 148.067 150.343 151.91C151.201 155.753 152.339 158.813 153.757 161.089C155.175 163.365 156.798 164.969 158.626 165.902C160.491 166.797 162.413 167.245 164.39 167.245C166.405 167.245 168.345 166.797 170.211 165.902C172.077 164.969 173.718 163.365 175.136 161.089C176.591 158.813 177.748 155.753 178.606 151.91C179.464 148.067 179.893 143.217 179.893 137.359Z" fill="#00823B"/>
<rect x="16.5" y="0.5" width="303" height="343" rx="24.5" stroke="#BBBDBF"/>
</g>
<defs>
<filter id="filter0_d" x="16" y="0" width="312" height="352" filterUnits="userSpaceOnUse" color-interpolation-filters="sRGB">
<feFlood flood-opacity="0" result="BackgroundImageFix"/>
<feColorMatrix in="SourceAlpha" type="matrix" values="0 0 0 0 0 0 0 0 0 0 0 0 0 0 0 0 0 0 127 0"/>
<feOffset dx="4" dy="4"/>
<feGaussianBlur stdDeviation="2"/>
<feColorMatrix type="matrix" values="0 0 0 0 0 0 0 0 0 0 0 0 0 0 0 0 0 0 0.1 0"/>
<feBlend mode="normal" in2="BackgroundImageFix" result="effect1_dropShadow"/>
<feBlend mode="normal" in="SourceGraphic" in2="effect1_dropShadow" result="shape"/>
</filter>
</defs>
</svg>
