<svg width="367" height="240" viewBox="0 0 367 240" fill="none" xmlns="http://www.w3.org/2000/svg">
<g filter="url(#filter0_d)">
<path d="M0 15C0 6.71573 6.71573 0 15 0H344C352.284 0 359 6.71573 359 15V232H0V15Z" fill="white"/>
<path d="M0 15C0 6.71573 6.71573 0 15 0H344C352.284 0 359 6.71573 359 15V18H0V15Z" fill="#727272"/>
<path d="M210 93.4916C210 95.6295 209.772 97.482 209.317 99.049C208.861 100.616 208.228 101.914 207.417 102.944C206.617 103.974 205.661 104.741 204.55 105.244C203.45 105.748 202.256 106 200.967 106C199.678 106 198.483 105.748 197.383 105.244C196.294 104.741 195.35 103.974 194.55 102.944C193.75 101.914 193.122 100.616 192.667 99.049C192.222 97.482 192 95.6295 192 93.4916C192 91.3537 192.222 89.5012 192.667 87.9342C193.122 86.3671 193.75 85.0687 194.55 84.039C195.35 83.0092 196.294 82.248 197.383 81.7555C198.483 81.2518 199.678 81 200.967 81C202.256 81 203.45 81.2518 204.55 81.7555C205.661 82.248 206.617 83.0092 207.417 84.039C208.228 85.0687 208.861 86.3671 209.317 87.9342C209.772 89.5012 210 91.3537 210 93.4916ZM204.667 93.4916C204.667 91.8014 204.561 90.4191 204.35 89.3445C204.139 88.2588 203.856 87.4081 203.5 86.7925C203.156 86.1769 202.761 85.7571 202.317 85.5332C201.872 85.2982 201.422 85.1807 200.967 85.1807C200.511 85.1807 200.061 85.2982 199.617 85.5332C199.183 85.7571 198.794 86.1769 198.45 86.7925C198.117 87.4081 197.844 88.2588 197.633 89.3445C197.433 90.4191 197.333 91.8014 197.333 93.4916C197.333 95.193 197.433 96.5809 197.633 97.6555C197.844 98.73 198.117 99.5807 198.45 100.208C198.794 100.823 199.183 101.248 199.617 101.484C200.061 101.707 200.511 101.819 200.967 101.819C201.422 101.819 201.872 101.707 202.317 101.484C202.761 101.248 203.156 100.823 203.5 100.208C203.856 99.5807 204.139 98.73 204.35 97.6555C204.561 96.5809 204.667 95.193 204.667 93.4916Z" fill="white"/>
<path d="M18.457 41.8035C19.256 41.8035 19.8397 41.6108 20.208 41.2255C20.582 40.8402 20.769 40.3132 20.769 39.6445C20.769 39.3385 20.7208 39.0608 20.6245 38.8115C20.5338 38.5565 20.3922 38.3412 20.1995 38.1655C20.0125 37.9842 19.7745 37.8453 19.4855 37.749C19.1965 37.6527 18.8537 37.6045 18.457 37.6045H16.842V41.8035H18.457ZM18.457 35.6665C19.3013 35.6665 20.0295 35.7657 20.6415 35.964C21.2592 36.1623 21.7663 36.44 22.163 36.797C22.5597 37.1483 22.8515 37.5677 23.0385 38.055C23.2312 38.5423 23.3275 39.0722 23.3275 39.6445C23.3275 40.2508 23.2283 40.8062 23.03 41.3105C22.8317 41.8148 22.5313 42.2483 22.129 42.611C21.7267 42.9737 21.2195 43.257 20.6075 43.461C19.9955 43.6593 19.2787 43.7585 18.457 43.7585H16.842V48H14.292V35.6665H18.457ZM27.2482 40.6815C27.5259 40.1828 27.846 39.789 28.2087 39.5C28.5714 39.211 28.9964 39.0665 29.4837 39.0665C29.8804 39.0665 30.2034 39.16 30.4527 39.347L30.2997 41.081C30.2714 41.1943 30.226 41.2737 30.1637 41.319C30.107 41.3587 30.0277 41.3785 29.9257 41.3785C29.835 41.3785 29.7047 41.3672 29.5347 41.3445C29.3647 41.3162 29.206 41.302 29.0587 41.302C28.8434 41.302 28.6507 41.3332 28.4807 41.3955C28.3164 41.4578 28.169 41.5457 28.0387 41.659C27.9084 41.7723 27.7894 41.9112 27.6817 42.0755C27.5797 42.2398 27.4834 42.4268 27.3927 42.6365V48H25.0467V39.2365H26.4322C26.6702 39.2365 26.8345 39.279 26.9252 39.364C27.0159 39.449 27.081 39.5963 27.1207 39.806L27.2482 40.6815ZM35.7439 39.1005C36.4012 39.1005 36.9991 39.2053 37.5374 39.415C38.0757 39.6247 38.5376 39.925 38.9229 40.316C39.3082 40.7013 39.6057 41.1717 39.8154 41.727C40.0251 42.2823 40.1299 42.9085 40.1299 43.6055C40.1299 44.3025 40.0251 44.9315 39.8154 45.4925C39.6057 46.0478 39.3082 46.521 38.9229 46.912C38.5376 47.303 38.0757 47.6033 37.5374 47.813C36.9991 48.0227 36.4012 48.1275 35.7439 48.1275C35.0809 48.1275 34.4774 48.0227 33.9334 47.813C33.3951 47.6033 32.9332 47.303 32.5479 46.912C32.1626 46.521 31.8622 46.0478 31.6469 45.4925C31.4372 44.9315 31.3324 44.3025 31.3324 43.6055C31.3324 42.9085 31.4372 42.2823 31.6469 41.727C31.8622 41.1717 32.1626 40.7013 32.5479 40.316C32.9332 39.925 33.3951 39.6247 33.9334 39.415C34.4774 39.2053 35.0809 39.1005 35.7439 39.1005ZM35.7439 46.368C36.4126 46.368 36.9084 46.1385 37.2314 45.6795C37.5544 45.2148 37.7159 44.5263 37.7159 43.614C37.7159 42.7073 37.5544 42.0245 37.2314 41.5655C36.9084 41.1008 36.4126 40.8685 35.7439 40.8685C35.0582 40.8685 34.5539 41.1008 34.2309 41.5655C33.9079 42.0245 33.7464 42.7073 33.7464 43.614C33.7464 44.5263 33.9079 45.2148 34.2309 45.6795C34.5539 46.1385 35.0582 46.368 35.7439 46.368ZM45.3196 43.291C45.8013 43.291 46.1555 43.1692 46.3821 42.9255C46.6145 42.6818 46.7306 42.3673 46.7306 41.982C46.7306 41.5797 46.6145 41.2652 46.3821 41.0385C46.1555 40.8062 45.8013 40.69 45.3196 40.69C44.838 40.69 44.4838 40.8062 44.2571 41.0385C44.0305 41.2652 43.9171 41.5797 43.9171 41.982C43.9171 42.3617 44.0305 42.6762 44.2571 42.9255C44.4895 43.1692 44.8436 43.291 45.3196 43.291ZM47.5381 48.357C47.5381 48.204 47.49 48.0793 47.3936 47.983C47.2973 47.8867 47.167 47.8102 47.0026 47.7535C46.844 47.6968 46.6541 47.6572 46.4331 47.6345C46.2121 47.6062 45.977 47.5863 45.7276 47.575C45.4783 47.558 45.2205 47.5438 44.9541 47.5325C44.6878 47.5212 44.4271 47.5013 44.1721 47.473C43.9738 47.592 43.8095 47.7337 43.6791 47.898C43.5545 48.0567 43.4921 48.238 43.4921 48.442C43.4921 48.5837 43.5233 48.714 43.5856 48.833C43.6536 48.952 43.7641 49.054 43.9171 49.139C44.0701 49.224 44.2713 49.2892 44.5206 49.3345C44.77 49.3855 45.0816 49.411 45.4556 49.411C45.841 49.411 46.1668 49.3855 46.4331 49.3345C46.6995 49.2835 46.9148 49.2098 47.0791 49.1135C47.2435 49.0228 47.3596 48.9123 47.4276 48.782C47.5013 48.6517 47.5381 48.51 47.5381 48.357ZM49.8671 39.5255V40.384C49.8671 40.52 49.8275 40.6277 49.7481 40.707C49.6745 40.7863 49.5498 40.8458 49.3741 40.8855L48.6601 41.03C48.7565 41.3077 48.8046 41.6052 48.8046 41.9225C48.8046 42.3588 48.714 42.7527 48.5326 43.104C48.357 43.4497 48.1133 43.7472 47.8016 43.9965C47.49 44.2402 47.1216 44.43 46.6966 44.566C46.2716 44.6963 45.8126 44.7615 45.3196 44.7615C45.008 44.7615 44.7161 44.736 44.4441 44.685C44.2061 44.8323 44.0871 44.9938 44.0871 45.1695C44.0871 45.3338 44.1665 45.4528 44.3251 45.5265C44.4895 45.6002 44.702 45.654 44.9626 45.688C45.229 45.7163 45.5293 45.7362 45.8636 45.7475C46.2036 45.7532 46.5465 45.7702 46.8921 45.7985C47.2435 45.8268 47.5863 45.8778 47.9206 45.9515C48.2606 46.0195 48.561 46.1357 48.8216 46.3C49.088 46.4587 49.3005 46.6712 49.4591 46.9375C49.6235 47.2038 49.7056 47.5467 49.7056 47.966C49.7056 48.357 49.6093 48.7367 49.4166 49.105C49.224 49.4733 48.9435 49.802 48.5751 50.091C48.2125 50.38 47.7648 50.6123 47.2321 50.788C46.6995 50.9637 46.0931 51.0515 45.4131 51.0515C44.7388 51.0515 44.1523 50.9863 43.6536 50.856C43.1606 50.7313 42.7498 50.5613 42.4211 50.346C42.0981 50.1363 41.8573 49.8927 41.6986 49.615C41.54 49.3373 41.4606 49.0483 41.4606 48.748C41.4606 48.357 41.5796 48.0255 41.8176 47.7535C42.0556 47.4815 42.3843 47.2633 42.8036 47.099C42.5826 46.9743 42.4041 46.8128 42.2681 46.6145C42.1378 46.4105 42.0726 46.147 42.0726 45.824C42.0726 45.5633 42.1661 45.2885 42.3531 44.9995C42.5458 44.7105 42.8405 44.4697 43.2371 44.277C42.7895 44.039 42.4353 43.7217 42.1746 43.325C41.914 42.9227 41.7836 42.4552 41.7836 41.9225C41.7836 41.4862 41.8715 41.0923 42.0471 40.741C42.2285 40.3897 42.4778 40.0922 42.7951 39.8485C43.1125 39.5992 43.4865 39.4093 43.9171 39.279C44.3478 39.1487 44.8153 39.0835 45.3196 39.0835C46.0676 39.0835 46.7278 39.2308 47.3001 39.5255H49.8671ZM53.8241 40.6815C54.1018 40.1828 54.4219 39.789 54.7846 39.5C55.1473 39.211 55.5723 39.0665 56.0596 39.0665C56.4563 39.0665 56.7793 39.16 57.0286 39.347L56.8756 41.081C56.8473 41.1943 56.8019 41.2737 56.7396 41.319C56.6829 41.3587 56.6036 41.3785 56.5016 41.3785C56.4109 41.3785 56.2806 41.3672 56.1106 41.3445C55.9406 41.3162 55.7819 41.302 55.6346 41.302C55.4193 41.302 55.2266 41.3332 55.0566 41.3955C54.8923 41.4578 54.7449 41.5457 54.6146 41.659C54.4843 41.7723 54.3653 41.9112 54.2576 42.0755C54.1556 42.2398 54.0593 42.4268 53.9686 42.6365V48H51.6226V39.2365H53.0081C53.2461 39.2365 53.4104 39.279 53.5011 39.364C53.5918 39.449 53.6569 39.5963 53.6966 39.806L53.8241 40.6815ZM63.0484 44.3365C62.4761 44.3648 62.0001 44.4158 61.6204 44.4895C61.2407 44.5575 60.9376 44.6482 60.7109 44.7615C60.4899 44.8748 60.3312 45.0052 60.2349 45.1525C60.1442 45.2942 60.0989 45.45 60.0989 45.62C60.0989 45.96 60.1924 46.2008 60.3794 46.3425C60.5721 46.4842 60.8384 46.555 61.1784 46.555C61.5694 46.555 61.9066 46.487 62.1899 46.351C62.4789 46.2093 62.7651 45.9912 63.0484 45.6965V44.3365ZM58.2714 40.452C58.7871 39.9873 59.3566 39.6417 59.9799 39.415C60.6032 39.1827 61.2776 39.0665 62.0029 39.0665C62.5242 39.0665 62.9889 39.1515 63.3969 39.3215C63.8106 39.4915 64.1591 39.7295 64.4424 40.0355C64.7314 40.3358 64.9524 40.6957 65.1054 41.115C65.2584 41.5343 65.3349 41.9933 65.3349 42.492V48H64.2639C64.0429 48 63.8729 47.9688 63.7539 47.9065C63.6406 47.8442 63.5471 47.7138 63.4734 47.5155L63.2864 46.9545C63.0654 47.1472 62.8501 47.3172 62.6404 47.4645C62.4364 47.6118 62.2239 47.7365 62.0029 47.8385C61.7819 47.9348 61.5439 48.0085 61.2889 48.0595C61.0396 48.1105 60.7591 48.136 60.4474 48.136C60.0621 48.136 59.7107 48.085 59.3934 47.983C59.0761 47.881 58.8012 47.7308 58.5689 47.5325C58.3422 47.3285 58.1666 47.0763 58.0419 46.776C57.9172 46.4757 57.8549 46.13 57.8549 45.739C57.8549 45.416 57.9371 45.093 58.1014 44.77C58.2657 44.447 58.5462 44.1552 58.9429 43.8945C59.3452 43.6282 59.8779 43.41 60.5409 43.24C61.2096 43.0643 62.0454 42.9652 63.0484 42.9425V42.492C63.0484 41.9423 62.9322 41.54 62.6999 41.285C62.4676 41.0243 62.1332 40.894 61.6969 40.894C61.3739 40.894 61.1047 40.9337 60.8894 41.013C60.6741 41.0867 60.4842 41.1688 60.3199 41.2595C60.1612 41.3445 60.0111 41.4267 59.8694 41.506C59.7277 41.5797 59.5634 41.6165 59.3764 41.6165C59.2121 41.6165 59.0732 41.5768 58.9599 41.4975C58.8522 41.4125 58.7616 41.3133 58.6879 41.2L58.2714 40.452ZM67.7018 48V39.2365H69.1468C69.4415 39.2365 69.637 39.3725 69.7333 39.6445L69.8693 40.214C70.0223 40.0553 70.1782 39.908 70.3368 39.772C70.5012 39.636 70.6768 39.5198 70.8638 39.4235C71.0508 39.3215 71.252 39.2422 71.4673 39.1855C71.6883 39.1288 71.9263 39.1005 72.1813 39.1005C72.7197 39.1005 73.1645 39.245 73.5158 39.534C73.8672 39.8173 74.1335 40.197 74.3148 40.673C74.4565 40.3953 74.6293 40.1573 74.8333 39.959C75.043 39.755 75.2697 39.5907 75.5133 39.466C75.7627 39.3413 76.0233 39.2507 76.2953 39.194C76.573 39.1317 76.8507 39.1005 77.1283 39.1005C77.6213 39.1005 78.0577 39.1742 78.4373 39.3215C78.817 39.4688 79.1343 39.687 79.3893 39.976C79.65 40.2593 79.8483 40.6078 79.9843 41.0215C80.1203 41.4352 80.1883 41.9055 80.1883 42.4325V48H77.8423V42.4325C77.8423 41.4068 77.4032 40.894 76.5248 40.894C76.3265 40.894 76.1423 40.928 75.9723 40.996C75.808 41.0583 75.6607 41.1547 75.5303 41.285C75.4057 41.4153 75.3065 41.5768 75.2328 41.7695C75.1648 41.9622 75.1308 42.1832 75.1308 42.4325V48H72.7848V42.4325C72.7848 41.8772 72.6743 41.4833 72.4533 41.251C72.238 41.013 71.9178 40.894 71.4928 40.894C71.2208 40.894 70.963 40.9592 70.7193 41.0895C70.4813 41.2142 70.2575 41.3898 70.0478 41.6165V48H67.7018ZM82.5813 48V39.2365H84.0263C84.321 39.2365 84.5165 39.3725 84.6128 39.6445L84.7488 40.214C84.9018 40.0553 85.0576 39.908 85.2163 39.772C85.3806 39.636 85.5563 39.5198 85.7433 39.4235C85.9303 39.3215 86.1315 39.2422 86.3468 39.1855C86.5678 39.1288 86.8058 39.1005 87.0608 39.1005C87.5991 39.1005 88.044 39.245 88.3953 39.534C88.7466 39.8173 89.013 40.197 89.1943 40.673C89.336 40.3953 89.5088 40.1573 89.7128 39.959C89.9225 39.755 90.1491 39.5907 90.3928 39.466C90.6421 39.3413 90.9028 39.2507 91.1748 39.194C91.4525 39.1317 91.7301 39.1005 92.0078 39.1005C92.5008 39.1005 92.9371 39.1742 93.3168 39.3215C93.6965 39.4688 94.0138 39.687 94.2688 39.976C94.5295 40.2593 94.7278 40.6078 94.8638 41.0215C94.9998 41.4352 95.0678 41.9055 95.0678 42.4325V48H92.7218V42.4325C92.7218 41.4068 92.2826 40.894 91.4043 40.894C91.206 40.894 91.0218 40.928 90.8518 40.996C90.6875 41.0583 90.5401 41.1547 90.4098 41.285C90.2851 41.4153 90.186 41.5768 90.1123 41.7695C90.0443 41.9622 90.0103 42.1832 90.0103 42.4325V48H87.6643V42.4325C87.6643 41.8772 87.5538 41.4833 87.3328 41.251C87.1175 41.013 86.7973 40.894 86.3723 40.894C86.1003 40.894 85.8425 40.9592 85.5988 41.0895C85.3608 41.2142 85.137 41.3898 84.9273 41.6165V48H82.5813ZM103.02 42.5855C103.02 42.3418 102.986 42.1095 102.918 41.8885C102.855 41.6675 102.753 41.472 102.612 41.302C102.47 41.132 102.292 40.9988 102.076 40.9025C101.861 40.8005 101.603 40.7495 101.303 40.7495C100.742 40.7495 100.303 40.9082 99.9853 41.2255C99.6679 41.5428 99.4611 41.9962 99.3648 42.5855H103.02ZM99.3308 43.9795C99.4044 44.8012 99.6368 45.4018 100.028 45.7815C100.424 46.1612 100.94 46.351 101.575 46.351C101.898 46.351 102.175 46.3142 102.408 46.2405C102.646 46.1612 102.853 46.0762 103.028 45.9855C103.21 45.8892 103.371 45.8042 103.513 45.7305C103.66 45.6512 103.805 45.6115 103.946 45.6115C104.128 45.6115 104.269 45.6795 104.371 45.8155L105.051 46.6655C104.802 46.9545 104.527 47.1953 104.227 47.388C103.926 47.575 103.615 47.7252 103.292 47.8385C102.969 47.9462 102.643 48.0198 102.314 48.0595C101.986 48.1048 101.668 48.1275 101.362 48.1275C100.75 48.1275 100.178 48.0283 99.6453 47.83C99.1183 47.626 98.6564 47.3285 98.2598 46.9375C97.8688 46.5408 97.5599 46.0507 97.3333 45.467C97.1066 44.8833 96.9933 44.2062 96.9933 43.4355C96.9933 42.8405 97.0896 42.2795 97.2823 41.7525C97.4806 41.2255 97.7639 40.7665 98.1323 40.3755C98.5006 39.9845 98.9483 39.6757 99.4753 39.449C100.002 39.2167 100.597 39.1005 101.26 39.1005C101.821 39.1005 102.337 39.1912 102.807 39.3725C103.283 39.5482 103.691 39.806 104.031 40.146C104.377 40.486 104.643 40.9053 104.83 41.404C105.023 41.897 105.119 42.4608 105.119 43.0955C105.119 43.2712 105.111 43.4157 105.094 43.529C105.077 43.6423 105.048 43.733 105.009 43.801C104.969 43.869 104.915 43.9172 104.847 43.9455C104.779 43.9682 104.691 43.9795 104.584 43.9795H99.3308ZM109.312 40.6815C109.59 40.1828 109.91 39.789 110.273 39.5C110.635 39.211 111.06 39.0665 111.548 39.0665C111.944 39.0665 112.267 39.16 112.517 39.347L112.364 41.081C112.335 41.1943 112.29 41.2737 112.228 41.319C112.171 41.3587 112.092 41.3785 111.99 41.3785C111.899 41.3785 111.769 41.3672 111.599 41.3445C111.429 41.3162 111.27 41.302 111.123 41.302C110.907 41.302 110.715 41.3332 110.545 41.3955C110.38 41.4578 110.233 41.5457 110.103 41.659C109.972 41.7723 109.853 41.9112 109.746 42.0755C109.644 42.2398 109.547 42.4268 109.457 42.6365V48H107.111V39.2365H108.496C108.734 39.2365 108.899 39.279 108.989 39.364C109.08 39.449 109.145 39.5963 109.185 39.806L109.312 40.6815ZM120.639 35.3265V48H118.293V35.3265H120.639ZM124.718 34.8505C125.007 35.3152 125.199 35.7968 125.296 36.2955C125.398 36.7942 125.406 37.2872 125.321 37.7745C125.236 38.2562 125.058 38.7208 124.786 39.1685C124.519 39.6162 124.159 40.0185 123.706 40.3755L122.975 39.9335C122.907 39.8938 122.859 39.8485 122.831 39.7975C122.808 39.7408 122.797 39.687 122.797 39.636C122.802 39.5793 122.816 39.5283 122.839 39.483C122.862 39.432 122.89 39.3895 122.924 39.3555C123.032 39.2308 123.139 39.058 123.247 38.837C123.36 38.6103 123.44 38.3553 123.485 38.072C123.53 37.783 123.528 37.4713 123.477 37.137C123.426 36.8027 123.295 36.4655 123.086 36.1255C122.972 35.9498 122.941 35.7968 122.992 35.6665C123.043 35.5305 123.145 35.437 123.298 35.386L124.718 34.8505ZM132.46 42.5855C132.46 42.3418 132.426 42.1095 132.358 41.8885C132.296 41.6675 132.194 41.472 132.052 41.302C131.91 41.132 131.732 40.9988 131.517 40.9025C131.301 40.8005 131.043 40.7495 130.743 40.7495C130.182 40.7495 129.743 40.9082 129.426 41.2255C129.108 41.5428 128.901 41.9962 128.805 42.5855H132.46ZM128.771 43.9795C128.845 44.8012 129.077 45.4018 129.468 45.7815C129.865 46.1612 130.38 46.351 131.015 46.351C131.338 46.351 131.616 46.3142 131.848 46.2405C132.086 46.1612 132.293 46.0762 132.469 45.9855C132.65 45.8892 132.811 45.8042 132.953 45.7305C133.1 45.6512 133.245 45.6115 133.387 45.6115C133.568 45.6115 133.71 45.6795 133.812 45.8155L134.492 46.6655C134.242 46.9545 133.967 47.1953 133.667 47.388C133.367 47.575 133.055 47.7252 132.732 47.8385C132.409 47.9462 132.083 48.0198 131.755 48.0595C131.426 48.1048 131.109 48.1275 130.803 48.1275C130.191 48.1275 129.618 48.0283 129.086 47.83C128.559 47.626 128.097 47.3285 127.7 46.9375C127.309 46.5408 127 46.0507 126.774 45.467C126.547 44.8833 126.434 44.2062 126.434 43.4355C126.434 42.8405 126.53 42.2795 126.723 41.7525C126.921 41.2255 127.204 40.7665 127.573 40.3755C127.941 39.9845 128.389 39.6757 128.916 39.449C129.443 39.2167 130.038 39.1005 130.701 39.1005C131.262 39.1005 131.777 39.1912 132.248 39.3725C132.724 39.5482 133.132 39.806 133.472 40.146C133.817 40.486 134.084 40.9053 134.271 41.404C134.463 41.897 134.56 42.4608 134.56 43.0955C134.56 43.2712 134.551 43.4157 134.534 43.529C134.517 43.6423 134.489 43.733 134.449 43.801C134.409 43.869 134.356 43.9172 134.288 43.9455C134.22 43.9682 134.132 43.9795 134.024 43.9795H128.771ZM138.727 40.2565C138.903 40.0865 139.084 39.9307 139.271 39.789C139.464 39.6473 139.665 39.5255 139.875 39.4235C140.09 39.3215 140.319 39.2422 140.563 39.1855C140.812 39.1288 141.082 39.1005 141.371 39.1005C141.847 39.1005 142.269 39.1827 142.637 39.347C143.005 39.5113 143.314 39.7408 143.564 40.0355C143.819 40.3302 144.008 40.6815 144.133 41.0895C144.263 41.4975 144.329 41.9452 144.329 42.4325V48H141.991V42.4325C141.991 41.9452 141.878 41.5683 141.651 41.302C141.424 41.03 141.09 40.894 140.648 40.894C140.319 40.894 140.011 40.9648 139.722 41.1065C139.433 41.2482 139.158 41.4465 138.897 41.7015V48H136.551V39.2365H137.996C138.291 39.2365 138.486 39.3725 138.583 39.6445L138.727 40.2565ZM154.6 39.2365L151.157 48H149.032L145.59 39.2365H147.536C147.706 39.2365 147.848 39.2762 147.961 39.3555C148.074 39.4348 148.154 39.5368 148.199 39.6615L149.67 43.9965C149.766 44.2912 149.851 44.5802 149.925 44.8635C149.998 45.1412 150.063 45.4217 150.12 45.705C150.182 45.4217 150.25 45.1412 150.324 44.8635C150.403 44.5802 150.494 44.2912 150.596 43.9965L152.118 39.6615C152.157 39.5368 152.234 39.4348 152.347 39.3555C152.46 39.2762 152.594 39.2365 152.747 39.2365H154.6ZM159.803 39.1005C160.461 39.1005 161.059 39.2053 161.597 39.415C162.135 39.6247 162.597 39.925 162.982 40.316C163.368 40.7013 163.665 41.1717 163.875 41.727C164.085 42.2823 164.189 42.9085 164.189 43.6055C164.189 44.3025 164.085 44.9315 163.875 45.4925C163.665 46.0478 163.368 46.521 162.982 46.912C162.597 47.303 162.135 47.6033 161.597 47.813C161.059 48.0227 160.461 48.1275 159.803 48.1275C159.14 48.1275 158.537 48.0227 157.993 47.813C157.455 47.6033 156.993 47.303 156.607 46.912C156.222 46.521 155.922 46.0478 155.706 45.4925C155.497 44.9315 155.392 44.3025 155.392 43.6055C155.392 42.9085 155.497 42.2823 155.706 41.727C155.922 41.1717 156.222 40.7013 156.607 40.316C156.993 39.925 157.455 39.6247 157.993 39.415C158.537 39.2053 159.14 39.1005 159.803 39.1005ZM159.803 46.368C160.472 46.368 160.968 46.1385 161.291 45.6795C161.614 45.2148 161.775 44.5263 161.775 43.614C161.775 42.7073 161.614 42.0245 161.291 41.5655C160.968 41.1008 160.472 40.8685 159.803 40.8685C159.118 40.8685 158.613 41.1008 158.29 41.5655C157.967 42.0245 157.806 42.7073 157.806 43.614C157.806 44.5263 157.967 45.2148 158.29 45.6795C158.613 46.1385 159.118 46.368 159.803 46.368ZM168.612 39.2365V48H166.266V39.2365H168.612ZM168.893 36.746C168.893 36.9443 168.853 37.1285 168.774 37.2985C168.694 37.4685 168.587 37.6187 168.451 37.749C168.32 37.8793 168.165 37.9813 167.983 38.055C167.808 38.1287 167.618 38.1655 167.414 38.1655C167.221 38.1655 167.037 38.1287 166.861 38.055C166.691 37.9813 166.541 37.8793 166.411 37.749C166.28 37.6187 166.176 37.4685 166.096 37.2985C166.023 37.1285 165.986 36.9443 165.986 36.746C165.986 36.5477 166.023 36.3635 166.096 36.1935C166.176 36.0178 166.28 35.8648 166.411 35.7345C166.541 35.6042 166.691 35.5022 166.861 35.4285C167.037 35.3548 167.221 35.318 167.414 35.318C167.618 35.318 167.808 35.3548 167.983 35.4285C168.165 35.5022 168.32 35.6042 168.451 35.7345C168.587 35.8648 168.694 36.0178 168.774 36.1935C168.853 36.3635 168.893 36.5477 168.893 36.746Z" fill="black"/>
<path d="M201.66 156.878V167H200.694C200.545 167 200.419 166.977 200.316 166.93C200.218 166.879 200.122 166.795 200.029 166.678L194.744 159.93C194.772 160.238 194.786 160.523 194.786 160.784V167H193.127V156.878H194.114C194.193 156.878 194.261 156.883 194.317 156.892C194.378 156.897 194.429 156.911 194.471 156.934C194.518 156.953 194.562 156.983 194.604 157.025C194.646 157.062 194.693 157.114 194.744 157.179L200.05 163.955C200.036 163.792 200.024 163.631 200.015 163.472C200.006 163.313 200.001 163.166 200.001 163.031V156.878H201.66ZM206.6 159.706C207.132 159.706 207.615 159.792 208.049 159.965C208.488 160.138 208.861 160.383 209.169 160.7C209.482 161.017 209.722 161.405 209.89 161.862C210.058 162.319 210.142 162.83 210.142 163.395C210.142 163.964 210.058 164.478 209.89 164.935C209.722 165.392 209.482 165.782 209.169 166.104C208.861 166.426 208.488 166.673 208.049 166.846C207.615 167.019 207.132 167.105 206.6 167.105C206.064 167.105 205.576 167.019 205.137 166.846C204.699 166.673 204.323 166.426 204.01 166.104C203.702 165.782 203.462 165.392 203.289 164.935C203.121 164.478 203.037 163.964 203.037 163.395C203.037 162.83 203.121 162.319 203.289 161.862C203.462 161.405 203.702 161.017 204.01 160.7C204.323 160.383 204.699 160.138 205.137 159.965C205.576 159.792 206.064 159.706 206.6 159.706ZM206.6 165.775C207.198 165.775 207.639 165.574 207.923 165.173C208.213 164.772 208.357 164.184 208.357 163.409C208.357 162.634 208.213 162.044 207.923 161.638C207.639 161.232 207.198 161.029 206.6 161.029C205.994 161.029 205.543 161.234 205.249 161.645C204.96 162.051 204.815 162.639 204.815 163.409C204.815 164.179 204.96 164.767 205.249 165.173C205.543 165.574 205.994 165.775 206.6 165.775ZM215.37 167V161.12L214.747 161.022C214.611 160.994 214.502 160.947 214.418 160.882C214.338 160.812 214.299 160.714 214.299 160.588V159.881H215.37V159.349C215.37 158.938 215.43 158.57 215.552 158.243C215.678 157.916 215.855 157.639 216.084 157.41C216.317 157.181 216.599 157.006 216.931 156.885C217.262 156.764 217.635 156.703 218.051 156.703C218.382 156.703 218.69 156.747 218.975 156.836L218.94 157.704C218.935 157.769 218.916 157.823 218.884 157.865C218.851 157.902 218.807 157.933 218.751 157.956C218.699 157.975 218.639 157.989 218.569 157.998C218.499 158.003 218.424 158.005 218.345 158.005C218.139 158.005 217.955 158.028 217.792 158.075C217.633 158.117 217.498 158.194 217.386 158.306C217.274 158.413 217.187 158.558 217.127 158.74C217.071 158.917 217.043 159.139 217.043 159.405V159.881H218.912V161.113H217.099V167H215.37ZM223.65 163.934C223.151 163.957 222.731 164.002 222.39 164.067C222.049 164.128 221.776 164.207 221.571 164.305C221.366 164.403 221.219 164.517 221.13 164.648C221.041 164.779 220.997 164.921 220.997 165.075C220.997 165.378 221.086 165.595 221.263 165.726C221.445 165.857 221.681 165.922 221.97 165.922C222.325 165.922 222.63 165.859 222.887 165.733C223.148 165.602 223.403 165.406 223.65 165.145V163.934ZM219.688 160.819C220.514 160.063 221.508 159.685 222.67 159.685C223.09 159.685 223.466 159.755 223.797 159.895C224.128 160.03 224.408 160.222 224.637 160.469C224.866 160.712 225.038 161.003 225.155 161.344C225.276 161.685 225.337 162.058 225.337 162.464V167H224.553C224.39 167 224.264 166.977 224.175 166.93C224.086 166.879 224.016 166.778 223.965 166.629L223.811 166.111C223.629 166.274 223.452 166.419 223.279 166.545C223.106 166.666 222.927 166.769 222.74 166.853C222.553 166.937 222.353 167 222.138 167.042C221.928 167.089 221.695 167.112 221.438 167.112C221.135 167.112 220.855 167.072 220.598 166.993C220.341 166.909 220.12 166.785 219.933 166.622C219.746 166.459 219.602 166.256 219.499 166.013C219.396 165.77 219.345 165.488 219.345 165.166C219.345 164.984 219.375 164.804 219.436 164.627C219.497 164.445 219.595 164.272 219.73 164.109C219.87 163.946 220.05 163.792 220.269 163.647C220.488 163.502 220.757 163.376 221.074 163.269C221.396 163.162 221.769 163.075 222.194 163.01C222.619 162.94 223.104 162.898 223.65 162.884V162.464C223.65 161.983 223.547 161.629 223.342 161.4C223.137 161.167 222.84 161.05 222.453 161.05C222.173 161.05 221.94 161.083 221.753 161.148C221.571 161.213 221.41 161.288 221.27 161.372C221.13 161.451 221.002 161.524 220.885 161.589C220.773 161.654 220.647 161.687 220.507 161.687C220.386 161.687 220.283 161.657 220.199 161.596C220.115 161.531 220.047 161.456 219.996 161.372L219.688 160.819ZM228.757 159.818V167H227.021V159.818H228.757ZM228.995 157.725C228.995 157.874 228.965 158.014 228.904 158.145C228.844 158.276 228.762 158.39 228.659 158.488C228.561 158.586 228.445 158.665 228.309 158.726C228.174 158.782 228.029 158.81 227.875 158.81C227.726 158.81 227.584 158.782 227.448 158.726C227.318 158.665 227.203 158.586 227.105 158.488C227.007 158.39 226.928 158.276 226.867 158.145C226.811 158.014 226.783 157.874 226.783 157.725C226.783 157.571 226.811 157.426 226.867 157.291C226.928 157.156 227.007 157.039 227.105 156.941C227.203 156.843 227.318 156.766 227.448 156.71C227.584 156.649 227.726 156.619 227.875 156.619C228.029 156.619 228.174 156.649 228.309 156.71C228.445 156.766 228.561 156.843 228.659 156.941C228.762 157.039 228.844 157.156 228.904 157.291C228.965 157.426 228.995 157.571 228.995 157.725ZM232.27 156.598V167H230.541V156.598H232.27ZM240.181 159.818V167H239.124C238.895 167 238.75 166.895 238.69 166.685L238.571 166.111C238.277 166.41 237.952 166.652 237.598 166.839C237.243 167.021 236.825 167.112 236.345 167.112C235.953 167.112 235.605 167.047 235.302 166.916C235.003 166.781 234.751 166.592 234.546 166.349C234.34 166.106 234.184 165.819 234.077 165.488C233.974 165.152 233.923 164.783 233.923 164.382V159.818H235.652V164.382C235.652 164.821 235.752 165.161 235.953 165.404C236.158 165.642 236.464 165.761 236.87 165.761C237.168 165.761 237.448 165.696 237.71 165.565C237.971 165.43 238.218 165.245 238.452 165.012V159.818H240.181ZM243.526 161.064C243.75 160.635 244.016 160.299 244.324 160.056C244.632 159.809 244.996 159.685 245.416 159.685C245.747 159.685 246.013 159.757 246.214 159.902L246.102 161.197C246.079 161.281 246.044 161.342 245.997 161.379C245.955 161.412 245.897 161.428 245.822 161.428C245.752 161.428 245.647 161.416 245.507 161.393C245.372 161.37 245.239 161.358 245.108 161.358C244.917 161.358 244.746 161.386 244.597 161.442C244.448 161.498 244.312 161.58 244.191 161.687C244.074 161.79 243.969 161.916 243.876 162.065C243.787 162.214 243.703 162.385 243.624 162.576V167H241.895V159.818H242.91C243.087 159.818 243.211 159.851 243.281 159.916C243.351 159.977 243.398 160.089 243.421 160.252L243.526 161.064ZM251.54 162.583C251.54 162.359 251.507 162.149 251.442 161.953C251.381 161.752 251.288 161.577 251.162 161.428C251.036 161.279 250.875 161.162 250.679 161.078C250.487 160.989 250.263 160.945 250.007 160.945C249.507 160.945 249.113 161.087 248.824 161.372C248.539 161.657 248.357 162.06 248.278 162.583H251.54ZM248.243 163.626C248.271 163.995 248.336 164.314 248.439 164.585C248.541 164.851 248.677 165.073 248.845 165.25C249.013 165.423 249.211 165.553 249.44 165.642C249.673 165.726 249.93 165.768 250.21 165.768C250.49 165.768 250.73 165.735 250.931 165.67C251.136 165.605 251.313 165.532 251.463 165.453C251.617 165.374 251.75 165.301 251.862 165.236C251.978 165.171 252.09 165.138 252.198 165.138C252.342 165.138 252.45 165.192 252.52 165.299L253.017 165.929C252.825 166.153 252.611 166.342 252.373 166.496C252.135 166.645 251.885 166.767 251.624 166.86C251.367 166.949 251.103 167.012 250.833 167.049C250.567 167.086 250.308 167.105 250.056 167.105C249.556 167.105 249.092 167.023 248.663 166.86C248.233 166.692 247.86 166.447 247.543 166.125C247.225 165.798 246.976 165.397 246.794 164.921C246.612 164.44 246.521 163.885 246.521 163.255C246.521 162.765 246.6 162.305 246.759 161.876C246.917 161.442 247.144 161.066 247.438 160.749C247.736 160.427 248.098 160.173 248.523 159.986C248.952 159.799 249.435 159.706 249.972 159.706C250.424 159.706 250.842 159.778 251.225 159.923C251.607 160.068 251.936 160.28 252.212 160.56C252.487 160.835 252.702 161.176 252.856 161.582C253.014 161.983 253.094 162.443 253.094 162.961C253.094 163.222 253.066 163.4 253.01 163.493C252.954 163.582 252.846 163.626 252.688 163.626H248.243ZM258.773 161.218C258.726 161.293 258.677 161.346 258.626 161.379C258.575 161.407 258.509 161.421 258.43 161.421C258.346 161.421 258.255 161.398 258.157 161.351C258.064 161.304 257.954 161.253 257.828 161.197C257.702 161.136 257.557 161.083 257.394 161.036C257.235 160.989 257.046 160.966 256.827 160.966C256.486 160.966 256.218 161.038 256.022 161.183C255.831 161.328 255.735 161.517 255.735 161.75C255.735 161.904 255.784 162.035 255.882 162.142C255.985 162.245 256.118 162.336 256.281 162.415C256.449 162.494 256.638 162.567 256.848 162.632C257.058 162.693 257.27 162.76 257.485 162.835C257.704 162.91 257.919 162.996 258.129 163.094C258.339 163.187 258.526 163.309 258.689 163.458C258.857 163.603 258.99 163.778 259.088 163.983C259.191 164.188 259.242 164.436 259.242 164.725C259.242 165.07 259.179 165.39 259.053 165.684C258.932 165.973 258.75 166.225 258.507 166.44C258.264 166.65 257.963 166.816 257.604 166.937C257.249 167.054 256.839 167.112 256.372 167.112C256.125 167.112 255.882 167.089 255.644 167.042C255.411 167 255.184 166.939 254.965 166.86C254.75 166.781 254.55 166.687 254.363 166.58C254.181 166.473 254.02 166.356 253.88 166.23L254.279 165.572C254.33 165.493 254.391 165.432 254.461 165.39C254.531 165.348 254.62 165.327 254.727 165.327C254.834 165.327 254.935 165.357 255.028 165.418C255.126 165.479 255.238 165.544 255.364 165.614C255.49 165.684 255.637 165.749 255.805 165.81C255.978 165.871 256.195 165.901 256.456 165.901C256.661 165.901 256.836 165.878 256.981 165.831C257.13 165.78 257.252 165.714 257.345 165.635C257.443 165.556 257.513 165.465 257.555 165.362C257.602 165.255 257.625 165.145 257.625 165.033C257.625 164.865 257.574 164.727 257.471 164.62C257.373 164.513 257.24 164.419 257.072 164.34C256.909 164.261 256.72 164.191 256.505 164.13C256.295 164.065 256.078 163.995 255.854 163.92C255.635 163.845 255.418 163.759 255.203 163.661C254.993 163.558 254.804 163.43 254.636 163.276C254.473 163.122 254.34 162.933 254.237 162.709C254.139 162.485 254.09 162.214 254.09 161.897C254.09 161.603 254.148 161.323 254.265 161.057C254.382 160.791 254.552 160.56 254.776 160.364C255.005 160.163 255.287 160.005 255.623 159.888C255.964 159.767 256.356 159.706 256.799 159.706C257.294 159.706 257.744 159.788 258.15 159.951C258.556 160.114 258.894 160.329 259.165 160.595L258.773 161.218Z" fill="white"/>
<path d="M192 170.57H259.69V171.263H192V170.57Z" fill="white"/>
<rect x="66" y="139" width="118" height="23" fill="#CFE4F0"/>
<rect x="113" y="139" width="22" height="23" fill="#0F5198"/>
<path d="M196.66 156.878V167H195.694C195.545 167 195.419 166.977 195.316 166.93C195.218 166.879 195.122 166.795 195.029 166.678L189.744 159.93C189.772 160.238 189.786 160.523 189.786 160.784V167H188.127V156.878H189.114C189.193 156.878 189.261 156.883 189.317 156.892C189.378 156.897 189.429 156.911 189.471 156.934C189.518 156.953 189.562 156.983 189.604 157.025C189.646 157.062 189.693 157.114 189.744 157.179L195.05 163.955C195.036 163.792 195.024 163.631 195.015 163.472C195.006 163.313 195.001 163.166 195.001 163.031V156.878H196.66ZM201.6 159.706C202.132 159.706 202.615 159.792 203.049 159.965C203.488 160.138 203.861 160.383 204.169 160.7C204.482 161.017 204.722 161.405 204.89 161.862C205.058 162.319 205.142 162.83 205.142 163.395C205.142 163.964 205.058 164.478 204.89 164.935C204.722 165.392 204.482 165.782 204.169 166.104C203.861 166.426 203.488 166.673 203.049 166.846C202.615 167.019 202.132 167.105 201.6 167.105C201.064 167.105 200.576 167.019 200.137 166.846C199.699 166.673 199.323 166.426 199.01 166.104C198.702 165.782 198.462 165.392 198.289 164.935C198.121 164.478 198.037 163.964 198.037 163.395C198.037 162.83 198.121 162.319 198.289 161.862C198.462 161.405 198.702 161.017 199.01 160.7C199.323 160.383 199.699 160.138 200.137 159.965C200.576 159.792 201.064 159.706 201.6 159.706ZM201.6 165.775C202.198 165.775 202.639 165.574 202.923 165.173C203.213 164.772 203.357 164.184 203.357 163.409C203.357 162.634 203.213 162.044 202.923 161.638C202.639 161.232 202.198 161.029 201.6 161.029C200.994 161.029 200.543 161.234 200.249 161.645C199.96 162.051 199.815 162.639 199.815 163.409C199.815 164.179 199.96 164.767 200.249 165.173C200.543 165.574 200.994 165.775 201.6 165.775ZM210.37 167V161.12L209.747 161.022C209.611 160.994 209.502 160.947 209.418 160.882C209.338 160.812 209.299 160.714 209.299 160.588V159.881H210.37V159.349C210.37 158.938 210.43 158.57 210.552 158.243C210.678 157.916 210.855 157.639 211.084 157.41C211.317 157.181 211.599 157.006 211.931 156.885C212.262 156.764 212.635 156.703 213.051 156.703C213.382 156.703 213.69 156.747 213.975 156.836L213.94 157.704C213.935 157.769 213.916 157.823 213.884 157.865C213.851 157.902 213.807 157.933 213.751 157.956C213.699 157.975 213.639 157.989 213.569 157.998C213.499 158.003 213.424 158.005 213.345 158.005C213.139 158.005 212.955 158.028 212.792 158.075C212.633 158.117 212.498 158.194 212.386 158.306C212.274 158.413 212.187 158.558 212.127 158.74C212.071 158.917 212.043 159.139 212.043 159.405V159.881H213.912V161.113H212.099V167H210.37ZM218.65 163.934C218.151 163.957 217.731 164.002 217.39 164.067C217.049 164.128 216.776 164.207 216.571 164.305C216.366 164.403 216.219 164.517 216.13 164.648C216.041 164.779 215.997 164.921 215.997 165.075C215.997 165.378 216.086 165.595 216.263 165.726C216.445 165.857 216.681 165.922 216.97 165.922C217.325 165.922 217.63 165.859 217.887 165.733C218.148 165.602 218.403 165.406 218.65 165.145V163.934ZM214.688 160.819C215.514 160.063 216.508 159.685 217.67 159.685C218.09 159.685 218.466 159.755 218.797 159.895C219.128 160.03 219.408 160.222 219.637 160.469C219.866 160.712 220.038 161.003 220.155 161.344C220.276 161.685 220.337 162.058 220.337 162.464V167H219.553C219.39 167 219.264 166.977 219.175 166.93C219.086 166.879 219.016 166.778 218.965 166.629L218.811 166.111C218.629 166.274 218.452 166.419 218.279 166.545C218.106 166.666 217.927 166.769 217.74 166.853C217.553 166.937 217.353 167 217.138 167.042C216.928 167.089 216.695 167.112 216.438 167.112C216.135 167.112 215.855 167.072 215.598 166.993C215.341 166.909 215.12 166.785 214.933 166.622C214.746 166.459 214.602 166.256 214.499 166.013C214.396 165.77 214.345 165.488 214.345 165.166C214.345 164.984 214.375 164.804 214.436 164.627C214.497 164.445 214.595 164.272 214.73 164.109C214.87 163.946 215.05 163.792 215.269 163.647C215.488 163.502 215.757 163.376 216.074 163.269C216.396 163.162 216.769 163.075 217.194 163.01C217.619 162.94 218.104 162.898 218.65 162.884V162.464C218.65 161.983 218.547 161.629 218.342 161.4C218.137 161.167 217.84 161.05 217.453 161.05C217.173 161.05 216.94 161.083 216.753 161.148C216.571 161.213 216.41 161.288 216.27 161.372C216.13 161.451 216.002 161.524 215.885 161.589C215.773 161.654 215.647 161.687 215.507 161.687C215.386 161.687 215.283 161.657 215.199 161.596C215.115 161.531 215.047 161.456 214.996 161.372L214.688 160.819ZM223.757 159.818V167H222.021V159.818H223.757ZM223.995 157.725C223.995 157.874 223.965 158.014 223.904 158.145C223.844 158.276 223.762 158.39 223.659 158.488C223.561 158.586 223.445 158.665 223.309 158.726C223.174 158.782 223.029 158.81 222.875 158.81C222.726 158.81 222.584 158.782 222.448 158.726C222.318 158.665 222.203 158.586 222.105 158.488C222.007 158.39 221.928 158.276 221.867 158.145C221.811 158.014 221.783 157.874 221.783 157.725C221.783 157.571 221.811 157.426 221.867 157.291C221.928 157.156 222.007 157.039 222.105 156.941C222.203 156.843 222.318 156.766 222.448 156.71C222.584 156.649 222.726 156.619 222.875 156.619C223.029 156.619 223.174 156.649 223.309 156.71C223.445 156.766 223.561 156.843 223.659 156.941C223.762 157.039 223.844 157.156 223.904 157.291C223.965 157.426 223.995 157.571 223.995 157.725ZM227.27 156.598V167H225.541V156.598H227.27ZM235.181 159.818V167H234.124C233.895 167 233.75 166.895 233.69 166.685L233.571 166.111C233.277 166.41 232.952 166.652 232.598 166.839C232.243 167.021 231.825 167.112 231.345 167.112C230.953 167.112 230.605 167.047 230.302 166.916C230.003 166.781 229.751 166.592 229.546 166.349C229.34 166.106 229.184 165.819 229.077 165.488C228.974 165.152 228.923 164.783 228.923 164.382V159.818H230.652V164.382C230.652 164.821 230.752 165.161 230.953 165.404C231.158 165.642 231.464 165.761 231.87 165.761C232.168 165.761 232.448 165.696 232.71 165.565C232.971 165.43 233.218 165.245 233.452 165.012V159.818H235.181ZM238.526 161.064C238.75 160.635 239.016 160.299 239.324 160.056C239.632 159.809 239.996 159.685 240.416 159.685C240.747 159.685 241.013 159.757 241.214 159.902L241.102 161.197C241.079 161.281 241.044 161.342 240.997 161.379C240.955 161.412 240.897 161.428 240.822 161.428C240.752 161.428 240.647 161.416 240.507 161.393C240.372 161.37 240.239 161.358 240.108 161.358C239.917 161.358 239.746 161.386 239.597 161.442C239.448 161.498 239.312 161.58 239.191 161.687C239.074 161.79 238.969 161.916 238.876 162.065C238.787 162.214 238.703 162.385 238.624 162.576V167H236.895V159.818H237.91C238.087 159.818 238.211 159.851 238.281 159.916C238.351 159.977 238.398 160.089 238.421 160.252L238.526 161.064ZM246.54 162.583C246.54 162.359 246.507 162.149 246.442 161.953C246.381 161.752 246.288 161.577 246.162 161.428C246.036 161.279 245.875 161.162 245.679 161.078C245.487 160.989 245.263 160.945 245.007 160.945C244.507 160.945 244.113 161.087 243.824 161.372C243.539 161.657 243.357 162.06 243.278 162.583H246.54ZM243.243 163.626C243.271 163.995 243.336 164.314 243.439 164.585C243.541 164.851 243.677 165.073 243.845 165.25C244.013 165.423 244.211 165.553 244.44 165.642C244.673 165.726 244.93 165.768 245.21 165.768C245.49 165.768 245.73 165.735 245.931 165.67C246.136 165.605 246.313 165.532 246.463 165.453C246.617 165.374 246.75 165.301 246.862 165.236C246.978 165.171 247.09 165.138 247.198 165.138C247.342 165.138 247.45 165.192 247.52 165.299L248.017 165.929C247.825 166.153 247.611 166.342 247.373 166.496C247.135 166.645 246.885 166.767 246.624 166.86C246.367 166.949 246.103 167.012 245.833 167.049C245.567 167.086 245.308 167.105 245.056 167.105C244.556 167.105 244.092 167.023 243.663 166.86C243.233 166.692 242.86 166.447 242.543 166.125C242.225 165.798 241.976 165.397 241.794 164.921C241.612 164.44 241.521 163.885 241.521 163.255C241.521 162.765 241.6 162.305 241.759 161.876C241.917 161.442 242.144 161.066 242.438 160.749C242.736 160.427 243.098 160.173 243.523 159.986C243.952 159.799 244.435 159.706 244.972 159.706C245.424 159.706 245.842 159.778 246.225 159.923C246.607 160.068 246.936 160.28 247.212 160.56C247.487 160.835 247.702 161.176 247.856 161.582C248.014 161.983 248.094 162.443 248.094 162.961C248.094 163.222 248.066 163.4 248.01 163.493C247.954 163.582 247.846 163.626 247.688 163.626H243.243ZM253.773 161.218C253.726 161.293 253.677 161.346 253.626 161.379C253.575 161.407 253.509 161.421 253.43 161.421C253.346 161.421 253.255 161.398 253.157 161.351C253.064 161.304 252.954 161.253 252.828 161.197C252.702 161.136 252.557 161.083 252.394 161.036C252.235 160.989 252.046 160.966 251.827 160.966C251.486 160.966 251.218 161.038 251.022 161.183C250.831 161.328 250.735 161.517 250.735 161.75C250.735 161.904 250.784 162.035 250.882 162.142C250.985 162.245 251.118 162.336 251.281 162.415C251.449 162.494 251.638 162.567 251.848 162.632C252.058 162.693 252.27 162.76 252.485 162.835C252.704 162.91 252.919 162.996 253.129 163.094C253.339 163.187 253.526 163.309 253.689 163.458C253.857 163.603 253.99 163.778 254.088 163.983C254.191 164.188 254.242 164.436 254.242 164.725C254.242 165.07 254.179 165.39 254.053 165.684C253.932 165.973 253.75 166.225 253.507 166.44C253.264 166.65 252.963 166.816 252.604 166.937C252.249 167.054 251.839 167.112 251.372 167.112C251.125 167.112 250.882 167.089 250.644 167.042C250.411 167 250.184 166.939 249.965 166.86C249.75 166.781 249.55 166.687 249.363 166.58C249.181 166.473 249.02 166.356 248.88 166.23L249.279 165.572C249.33 165.493 249.391 165.432 249.461 165.39C249.531 165.348 249.62 165.327 249.727 165.327C249.834 165.327 249.935 165.357 250.028 165.418C250.126 165.479 250.238 165.544 250.364 165.614C250.49 165.684 250.637 165.749 250.805 165.81C250.978 165.871 251.195 165.901 251.456 165.901C251.661 165.901 251.836 165.878 251.981 165.831C252.13 165.78 252.252 165.714 252.345 165.635C252.443 165.556 252.513 165.465 252.555 165.362C252.602 165.255 252.625 165.145 252.625 165.033C252.625 164.865 252.574 164.727 252.471 164.62C252.373 164.513 252.24 164.419 252.072 164.34C251.909 164.261 251.72 164.191 251.505 164.13C251.295 164.065 251.078 163.995 250.854 163.92C250.635 163.845 250.418 163.759 250.203 163.661C249.993 163.558 249.804 163.43 249.636 163.276C249.473 163.122 249.34 162.933 249.237 162.709C249.139 162.485 249.09 162.214 249.09 161.897C249.09 161.603 249.148 161.323 249.265 161.057C249.382 160.791 249.552 160.56 249.776 160.364C250.005 160.163 250.287 160.005 250.623 159.888C250.964 159.767 251.356 159.706 251.799 159.706C252.294 159.706 252.744 159.788 253.15 159.951C253.556 160.114 253.894 160.329 254.165 160.595L253.773 161.218Z" fill="white"/>
<path d="M187 170.57H254.69V171.263H187V170.57Z" fill="white"/>
<rect x="13.5" y="64.5" width="178" height="148" stroke="#BBBDBF"/>
<path d="M80.191 78.13C80.191 77.85 80.2676 77.66 80.421 77.56C80.581 77.4533 80.7743 77.4 81.001 77.4C81.221 77.4 81.411 77.4533 81.571 77.56C81.731 77.66 81.811 77.85 81.811 78.13C81.811 78.4033 81.731 78.5933 81.571 78.7C81.411 78.8067 81.221 78.86 81.001 78.86C80.7743 78.86 80.581 78.8067 80.421 78.7C80.2676 78.5933 80.191 78.4033 80.191 78.13ZM79.811 87.4C79.6443 87.4 79.471 87.3867 79.291 87.36C79.1043 87.34 78.951 87.3133 78.831 87.28V86.11C78.951 86.1367 79.0643 86.1567 79.171 86.17C79.2776 86.19 79.3976 86.2 79.531 86.2C79.731 86.2 79.901 86.1433 80.041 86.03C80.181 85.9167 80.251 85.6967 80.251 85.37V79.54H81.741V85.59C81.741 85.9233 81.6776 86.2267 81.551 86.5C81.4243 86.7733 81.2176 86.99 80.931 87.15C80.651 87.3167 80.2776 87.4 79.811 87.4ZM86.0736 79.43C86.8069 79.43 87.3669 79.59 87.7536 79.91C88.1469 80.2233 88.3436 80.7067 88.3436 81.36V85H87.3036L87.0136 84.26H86.9736C86.7402 84.5533 86.4936 84.7667 86.2336 84.9C85.9736 85.0333 85.6169 85.1 85.1636 85.1C84.6769 85.1 84.2736 84.96 83.9536 84.68C83.6336 84.3933 83.4736 83.9567 83.4736 83.37C83.4736 82.79 83.6769 82.3633 84.0836 82.09C84.4902 81.81 85.1002 81.6567 85.9136 81.63L86.8636 81.6V81.36C86.8636 81.0733 86.7869 80.8633 86.6336 80.73C86.4869 80.5967 86.2802 80.53 86.0136 80.53C85.7469 80.53 85.4869 80.57 85.2336 80.65C84.9802 80.7233 84.7269 80.8167 84.4736 80.93L83.9836 79.92C84.2769 79.7667 84.6002 79.6467 84.9536 79.56C85.3136 79.4733 85.6869 79.43 86.0736 79.43ZM86.2836 82.49C85.8036 82.5033 85.4702 82.59 85.2836 82.75C85.0969 82.91 85.0036 83.12 85.0036 83.38C85.0036 83.6067 85.0702 83.77 85.2036 83.87C85.3369 83.9633 85.5102 84.01 85.7236 84.01C86.0436 84.01 86.3136 83.9167 86.5336 83.73C86.7536 83.5367 86.8636 83.2667 86.8636 82.92V82.47L86.2836 82.49ZM93.5044 79.44C94.0911 79.44 94.5611 79.6 94.9144 79.92C95.2678 80.2333 95.4444 80.74 95.4444 81.44V85H93.9544V81.81C93.9544 81.4167 93.8844 81.1233 93.7444 80.93C93.6044 80.73 93.3811 80.63 93.0744 80.63C92.6211 80.63 92.3111 80.7867 92.1444 81.1C91.9778 81.4067 91.8944 81.85 91.8944 82.43V85H90.4044V79.54H91.5444L91.7444 80.24H91.8244C91.9978 79.96 92.2344 79.7567 92.5344 79.63C92.8411 79.5033 93.1644 79.44 93.5044 79.44ZM98.8124 85L96.7324 79.54H98.2924L99.3424 82.65C99.4024 82.8367 99.4491 83.03 99.4824 83.23C99.5224 83.43 99.5458 83.61 99.5524 83.77H99.5924C99.6124 83.41 99.6858 83.0367 99.8124 82.65L100.862 79.54H102.422L100.342 85H98.8124ZM104.491 77.4C104.711 77.4 104.901 77.4533 105.061 77.56C105.221 77.66 105.301 77.85 105.301 78.13C105.301 78.4033 105.221 78.5933 105.061 78.7C104.901 78.8067 104.711 78.86 104.491 78.86C104.265 78.86 104.071 78.8067 103.911 78.7C103.758 78.5933 103.681 78.4033 103.681 78.13C103.681 77.85 103.758 77.66 103.911 77.56C104.071 77.4533 104.265 77.4 104.491 77.4ZM105.231 79.54V85H103.741V79.54H105.231ZM109.574 79.44C110.327 79.44 110.924 79.6567 111.364 80.09C111.804 80.5167 112.024 81.1267 112.024 81.92V82.64H108.504C108.517 83.06 108.641 83.39 108.874 83.63C109.114 83.87 109.444 83.99 109.864 83.99C110.217 83.99 110.537 83.9567 110.824 83.89C111.111 83.8167 111.407 83.7067 111.714 83.56V84.71C111.447 84.8433 111.164 84.94 110.864 85C110.571 85.0667 110.214 85.1 109.794 85.1C109.247 85.1 108.764 85 108.344 84.8C107.924 84.5933 107.594 84.2833 107.354 83.87C107.114 83.4567 106.994 82.9367 106.994 82.31C106.994 81.67 107.101 81.14 107.314 80.72C107.534 80.2933 107.837 79.9733 108.224 79.76C108.611 79.5467 109.061 79.44 109.574 79.44ZM109.584 80.5C109.297 80.5 109.057 80.5933 108.864 80.78C108.677 80.9667 108.567 81.2567 108.534 81.65H110.624C110.617 81.3167 110.531 81.0433 110.364 80.83C110.197 80.61 109.937 80.5 109.584 80.5ZM116.818 79.44C116.891 79.44 116.978 79.4433 117.078 79.45C117.178 79.4567 117.258 79.4667 117.318 79.48L117.208 80.88C117.161 80.8667 117.091 80.8567 116.998 80.85C116.911 80.8367 116.835 80.83 116.768 80.83C116.515 80.83 116.271 80.8767 116.038 80.97C115.805 81.0567 115.615 81.2 115.468 81.4C115.328 81.6 115.258 81.8733 115.258 82.22V85H113.768V79.54H114.898L115.118 80.46H115.188C115.348 80.18 115.568 79.94 115.848 79.74C116.128 79.54 116.451 79.44 116.818 79.44Z" fill="black"/>
<path d="M28.1169 108.1C27.4502 108.1 26.9169 107.87 26.5169 107.41C26.1169 106.943 25.9169 106.25 25.9169 105.33C25.9169 104.41 26.1169 103.717 26.5169 103.25C26.9236 102.777 27.4602 102.54 28.1269 102.54C28.5402 102.54 28.8769 102.617 29.1369 102.77C29.4036 102.923 29.6202 103.11 29.7869 103.33H29.8469C29.8402 103.243 29.8269 103.117 29.8069 102.95C29.7936 102.777 29.7869 102.64 29.7869 102.54V100.4H30.6669V108H29.9569L29.8269 107.28H29.7869C29.6269 107.507 29.4136 107.7 29.1469 107.86C28.8802 108.02 28.5369 108.1 28.1169 108.1ZM28.2569 107.37C28.8236 107.37 29.2202 107.217 29.4469 106.91C29.6802 106.597 29.7969 106.127 29.7969 105.5V105.34C29.7969 104.673 29.6869 104.163 29.4669 103.81C29.2469 103.45 28.8402 103.27 28.2469 103.27C27.7736 103.27 27.4169 103.46 27.1769 103.84C26.9436 104.213 26.8269 104.717 26.8269 105.35C26.8269 105.99 26.9436 106.487 27.1769 106.84C27.4169 107.193 27.7769 107.37 28.2569 107.37ZM33.355 100.63C33.4883 100.63 33.605 100.677 33.705 100.77C33.8116 100.857 33.865 100.997 33.865 101.19C33.865 101.377 33.8116 101.517 33.705 101.61C33.605 101.703 33.4883 101.75 33.355 101.75C33.2083 101.75 33.085 101.703 32.985 101.61C32.885 101.517 32.835 101.377 32.835 101.19C32.835 100.997 32.885 100.857 32.985 100.77C33.085 100.677 33.2083 100.63 33.355 100.63ZM33.785 102.64V108H32.905V102.64H33.785Z" fill="black"/>
<path d="M51.0823 108H50.2023V100.4H51.0823V108ZM57.7961 102.64V108H57.0761L56.9461 107.29H56.9061C56.7328 107.57 56.4928 107.777 56.1861 107.91C55.8794 108.037 55.5528 108.1 55.2061 108.1C54.5594 108.1 54.0728 107.947 53.7461 107.64C53.4194 107.327 53.2561 106.83 53.2561 106.15V102.64H54.1461V106.09C54.1461 106.943 54.5428 107.37 55.3361 107.37C55.9294 107.37 56.3394 107.203 56.5661 106.87C56.7994 106.537 56.9161 106.057 56.9161 105.43V102.64H57.7961Z" fill="black"/>
<path d="M79.9866 102.54C80.5932 102.54 81.0466 102.697 81.3466 103.01C81.6466 103.317 81.7966 103.817 81.7966 104.51V108H80.9266V104.55C80.9266 103.703 80.5632 103.28 79.8366 103.28C79.3166 103.28 78.9432 103.43 78.7166 103.73C78.4966 104.03 78.3866 104.467 78.3866 105.04V108H77.5166V104.55C77.5166 103.703 77.1499 103.28 76.4166 103.28C75.8766 103.28 75.5032 103.447 75.2966 103.78C75.0899 104.113 74.9866 104.593 74.9866 105.22V108H74.1066V102.64H74.8166L74.9466 103.37H74.9966C75.1632 103.09 75.3866 102.883 75.6666 102.75C75.9532 102.61 76.2566 102.54 76.5766 102.54C77.4166 102.54 77.9632 102.84 78.2166 103.44H78.2666C78.4466 103.133 78.6899 102.907 78.9966 102.76C79.3099 102.613 79.6399 102.54 79.9866 102.54ZM86.018 102.55C86.6713 102.55 87.1546 102.693 87.468 102.98C87.7813 103.267 87.938 103.723 87.938 104.35V108H87.298L87.128 107.24H87.088C86.8546 107.533 86.608 107.75 86.348 107.89C86.0946 108.03 85.7413 108.1 85.288 108.1C84.8013 108.1 84.398 107.973 84.078 107.72C83.758 107.46 83.598 107.057 83.598 106.51C83.598 105.977 83.808 105.567 84.228 105.28C84.648 104.987 85.2946 104.827 86.168 104.8L87.078 104.77V104.45C87.078 104.003 86.9813 103.693 86.788 103.52C86.5946 103.347 86.3213 103.26 85.968 103.26C85.688 103.26 85.4213 103.303 85.168 103.39C84.9146 103.47 84.678 103.563 84.458 103.67L84.188 103.01C84.4213 102.883 84.698 102.777 85.018 102.69C85.338 102.597 85.6713 102.55 86.018 102.55ZM86.278 105.41C85.6113 105.437 85.148 105.543 84.888 105.73C84.6346 105.917 84.508 106.18 84.508 106.52C84.508 106.82 84.598 107.04 84.778 107.18C84.9646 107.32 85.2013 107.39 85.488 107.39C85.9413 107.39 86.318 107.267 86.618 107.02C86.918 106.767 87.068 106.38 87.068 105.86V105.38L86.278 105.41Z" fill="black"/>
<path d="M103.967 102.54C104.574 102.54 105.027 102.697 105.327 103.01C105.627 103.317 105.777 103.817 105.777 104.51V108H104.907V104.55C104.907 103.703 104.544 103.28 103.817 103.28C103.297 103.28 102.924 103.43 102.697 103.73C102.477 104.03 102.367 104.467 102.367 105.04V108H101.497V104.55C101.497 103.703 101.13 103.28 100.397 103.28C99.857 103.28 99.4837 103.447 99.277 103.78C99.0704 104.113 98.967 104.593 98.967 105.22V108H98.087V102.64H98.797L98.927 103.37H98.977C99.1437 103.09 99.367 102.883 99.647 102.75C99.9337 102.61 100.237 102.54 100.557 102.54C101.397 102.54 101.944 102.84 102.197 103.44H102.247C102.427 103.133 102.67 102.907 102.977 102.76C103.29 102.613 103.62 102.54 103.967 102.54ZM110.038 102.54C110.498 102.54 110.892 102.64 111.218 102.84C111.552 103.04 111.805 103.323 111.978 103.69C112.158 104.05 112.248 104.473 112.248 104.96V105.49H108.578C108.592 106.097 108.745 106.56 109.038 106.88C109.338 107.193 109.755 107.35 110.288 107.35C110.628 107.35 110.928 107.32 111.188 107.26C111.455 107.193 111.728 107.1 112.008 106.98V107.75C111.735 107.87 111.465 107.957 111.198 108.01C110.932 108.07 110.615 108.1 110.248 108.1C109.742 108.1 109.292 107.997 108.898 107.79C108.512 107.583 108.208 107.277 107.988 106.87C107.775 106.457 107.668 105.953 107.668 105.36C107.668 104.773 107.765 104.27 107.958 103.85C108.158 103.43 108.435 103.107 108.788 102.88C109.148 102.653 109.565 102.54 110.038 102.54ZM110.028 103.26C109.608 103.26 109.275 103.397 109.028 103.67C108.788 103.937 108.645 104.31 108.598 104.79H111.328C111.322 104.337 111.215 103.97 111.008 103.69C110.802 103.403 110.475 103.26 110.028 103.26Z" fill="black"/>
<path d="M121.901 101.19C121.901 100.997 121.951 100.857 122.051 100.77C122.151 100.677 122.274 100.63 122.421 100.63C122.554 100.63 122.671 100.677 122.771 100.77C122.877 100.857 122.931 100.997 122.931 101.19C122.931 101.377 122.877 101.517 122.771 101.61C122.671 101.703 122.554 101.75 122.421 101.75C122.274 101.75 122.151 101.703 122.051 101.61C121.951 101.517 121.901 101.377 121.901 101.19ZM121.341 110.4C121.174 110.4 121.027 110.387 120.901 110.36C120.774 110.34 120.664 110.313 120.571 110.28V109.57C120.671 109.597 120.774 109.62 120.881 109.64C120.987 109.66 121.104 109.67 121.231 109.67C121.444 109.67 121.621 109.61 121.761 109.49C121.901 109.377 121.971 109.157 121.971 108.83V102.64H122.851V108.8C122.851 109.3 122.731 109.69 122.491 109.97C122.251 110.257 121.867 110.4 121.341 110.4ZM127.155 102.54C127.615 102.54 128.008 102.64 128.335 102.84C128.668 103.04 128.921 103.323 129.095 103.69C129.275 104.05 129.365 104.473 129.365 104.96V105.49H125.695C125.708 106.097 125.861 106.56 126.155 106.88C126.455 107.193 126.871 107.35 127.405 107.35C127.745 107.35 128.045 107.32 128.305 107.26C128.571 107.193 128.845 107.1 129.125 106.98V107.75C128.851 107.87 128.581 107.957 128.315 108.01C128.048 108.07 127.731 108.1 127.365 108.1C126.858 108.1 126.408 107.997 126.015 107.79C125.628 107.583 125.325 107.277 125.105 106.87C124.891 106.457 124.785 105.953 124.785 105.36C124.785 104.773 124.881 104.27 125.075 103.85C125.275 103.43 125.551 103.107 125.905 102.88C126.265 102.653 126.681 102.54 127.155 102.54ZM127.145 103.26C126.725 103.26 126.391 103.397 126.145 103.67C125.905 103.937 125.761 104.31 125.715 104.79H128.445C128.438 104.337 128.331 103.97 128.125 103.69C127.918 103.403 127.591 103.26 127.145 103.26Z" fill="black"/>
<path d="M147.401 108L145.371 102.64H146.311L147.451 105.8C147.504 105.947 147.561 106.11 147.621 106.29C147.681 106.47 147.734 106.643 147.781 106.81C147.827 106.97 147.861 107.107 147.881 107.22H147.921C147.947 107.107 147.984 106.967 148.031 106.8C148.084 106.633 148.141 106.46 148.201 106.28C148.267 106.1 148.324 105.94 148.371 105.8L149.511 102.64H150.451L148.411 108H147.401ZM153.905 102.54C154.365 102.54 154.758 102.64 155.085 102.84C155.418 103.04 155.671 103.323 155.845 103.69C156.025 104.05 156.115 104.473 156.115 104.96V105.49H152.445C152.458 106.097 152.611 106.56 152.905 106.88C153.205 107.193 153.621 107.35 154.155 107.35C154.495 107.35 154.795 107.32 155.055 107.26C155.321 107.193 155.595 107.1 155.875 106.98V107.75C155.601 107.87 155.331 107.957 155.065 108.01C154.798 108.07 154.481 108.1 154.115 108.1C153.608 108.1 153.158 107.997 152.765 107.79C152.378 107.583 152.075 107.277 151.855 106.87C151.641 106.457 151.535 105.953 151.535 105.36C151.535 104.773 151.631 104.27 151.825 103.85C152.025 103.43 152.301 103.107 152.655 102.88C153.015 102.653 153.431 102.54 153.905 102.54ZM153.895 103.26C153.475 103.26 153.141 103.397 152.895 103.67C152.655 103.937 152.511 104.31 152.465 104.79H155.195C155.188 104.337 155.081 103.97 154.875 103.69C154.668 103.403 154.341 103.26 153.895 103.26Z" fill="black"/>
<path d="M173.377 106.52C173.377 107.04 173.183 107.433 172.797 107.7C172.41 107.967 171.89 108.1 171.237 108.1C170.863 108.1 170.54 108.07 170.267 108.01C170 107.95 169.763 107.867 169.557 107.76V106.96C169.77 107.067 170.027 107.167 170.327 107.26C170.633 107.347 170.943 107.39 171.257 107.39C171.703 107.39 172.027 107.32 172.227 107.18C172.427 107.033 172.527 106.84 172.527 106.6C172.527 106.467 172.49 106.347 172.417 106.24C172.343 106.133 172.21 106.027 172.017 105.92C171.83 105.813 171.56 105.693 171.207 105.56C170.86 105.427 170.563 105.293 170.317 105.16C170.07 105.027 169.88 104.867 169.747 104.68C169.613 104.493 169.547 104.253 169.547 103.96C169.547 103.507 169.73 103.157 170.097 102.91C170.47 102.663 170.957 102.54 171.557 102.54C171.883 102.54 172.187 102.573 172.467 102.64C172.753 102.7 173.02 102.787 173.267 102.9L172.967 103.6C172.74 103.507 172.503 103.427 172.257 103.36C172.01 103.293 171.757 103.26 171.497 103.26C171.137 103.26 170.86 103.32 170.667 103.44C170.48 103.553 170.387 103.71 170.387 103.91C170.387 104.057 170.43 104.183 170.517 104.29C170.603 104.39 170.747 104.49 170.947 104.59C171.153 104.683 171.427 104.797 171.767 104.93C172.107 105.057 172.397 105.187 172.637 105.32C172.877 105.453 173.06 105.617 173.187 105.81C173.313 105.997 173.377 106.233 173.377 106.52ZM177.238 102.55C177.891 102.55 178.374 102.693 178.688 102.98C179.001 103.267 179.158 103.723 179.158 104.35V108H178.518L178.348 107.24H178.308C178.074 107.533 177.828 107.75 177.568 107.89C177.314 108.03 176.961 108.1 176.508 108.1C176.021 108.1 175.618 107.973 175.298 107.72C174.978 107.46 174.818 107.057 174.818 106.51C174.818 105.977 175.028 105.567 175.448 105.28C175.868 104.987 176.514 104.827 177.388 104.8L178.298 104.77V104.45C178.298 104.003 178.201 103.693 178.008 103.52C177.814 103.347 177.541 103.26 177.188 103.26C176.908 103.26 176.641 103.303 176.388 103.39C176.134 103.47 175.898 103.563 175.678 103.67L175.408 103.01C175.641 102.883 175.918 102.777 176.238 102.69C176.558 102.597 176.891 102.55 177.238 102.55ZM177.498 105.41C176.831 105.437 176.368 105.543 176.108 105.73C175.854 105.917 175.728 106.18 175.728 106.52C175.728 106.82 175.818 107.04 175.998 107.18C176.184 107.32 176.421 107.39 176.708 107.39C177.161 107.39 177.538 107.267 177.838 107.02C178.138 106.767 178.288 106.38 178.288 105.86V105.38L177.498 105.41Z" fill="black"/>
<path d="M148.689 131H147.829V126.01C147.829 125.723 147.832 125.493 147.839 125.32C147.845 125.147 147.855 124.967 147.869 124.78C147.762 124.887 147.665 124.977 147.579 125.05C147.492 125.123 147.382 125.217 147.249 125.33L146.489 125.95L146.029 125.36L147.959 123.86H148.689V131Z" fill="black"/>
<path d="M174.339 131H169.619V130.27L171.489 128.38C171.849 128.02 172.152 127.7 172.399 127.42C172.645 127.14 172.832 126.867 172.959 126.6C173.085 126.327 173.149 126.03 173.149 125.71C173.149 125.317 173.032 125.02 172.799 124.82C172.565 124.613 172.262 124.51 171.889 124.51C171.542 124.51 171.235 124.57 170.969 124.69C170.709 124.81 170.442 124.977 170.169 125.19L169.699 124.6C169.979 124.367 170.299 124.17 170.659 124.01C171.025 123.843 171.435 123.76 171.889 123.76C172.555 123.76 173.082 123.93 173.469 124.27C173.855 124.603 174.049 125.067 174.049 125.66C174.049 126.033 173.972 126.383 173.819 126.71C173.665 127.037 173.452 127.36 173.179 127.68C172.905 127.993 172.585 128.33 172.219 128.69L170.729 130.16V130.2H174.339V131Z" fill="black"/>
<path d="M30.0687 148.53C30.0687 149.01 29.9353 149.393 29.6687 149.68C29.402 149.96 29.042 150.147 28.5887 150.24V150.28C29.162 150.347 29.5887 150.527 29.8687 150.82C30.1487 151.113 30.2887 151.497 30.2887 151.97C30.2887 152.383 30.192 152.753 29.9987 153.08C29.8053 153.4 29.5053 153.65 29.0987 153.83C28.6987 154.01 28.182 154.1 27.5487 154.1C27.1753 154.1 26.8287 154.07 26.5087 154.01C26.1887 153.957 25.882 153.857 25.5887 153.71V152.89C25.8887 153.037 26.212 153.153 26.5587 153.24C26.9053 153.32 27.2387 153.36 27.5587 153.36C28.1987 153.36 28.6587 153.237 28.9387 152.99C29.2253 152.737 29.3687 152.39 29.3687 151.95C29.3687 151.503 29.192 151.183 28.8387 150.99C28.492 150.79 28.002 150.69 27.3687 150.69H26.6787V149.94H27.3787C27.9653 149.94 28.4087 149.817 28.7087 149.57C29.0153 149.323 29.1687 148.997 29.1687 148.59C29.1687 148.243 29.052 147.977 28.8187 147.79C28.5853 147.597 28.2687 147.5 27.8687 147.5C27.482 147.5 27.152 147.557 26.8787 147.67C26.6053 147.783 26.3353 147.927 26.0687 148.1L25.6287 147.5C25.882 147.3 26.1953 147.127 26.5687 146.98C26.9487 146.833 27.3787 146.76 27.8587 146.76C28.6053 146.76 29.1587 146.927 29.5187 147.26C29.8853 147.593 30.0687 148.017 30.0687 148.53Z" fill="black"/>
<path d="M54.6587 152.38H53.6187V154H52.7687V152.38H49.3487V151.63L52.7087 146.82H53.6187V151.59H54.6587V152.38ZM52.7687 149.34C52.7687 148.993 52.7753 148.7 52.7887 148.46C52.802 148.213 52.812 147.98 52.8187 147.76H52.7787C52.7253 147.887 52.6587 148.023 52.5787 148.17C52.4987 148.317 52.422 148.44 52.3487 148.54L50.2087 151.59H52.7687V149.34Z" fill="black"/>
<path d="M75.8887 149.62C76.622 149.62 77.2053 149.803 77.6387 150.17C78.072 150.537 78.2887 151.053 78.2887 151.72C78.2887 152.46 78.052 153.043 77.5787 153.47C77.112 153.89 76.4587 154.1 75.6187 154.1C75.252 154.1 74.9053 154.067 74.5787 154C74.2587 153.933 73.9887 153.837 73.7687 153.71V152.88C74.0087 153.027 74.2987 153.143 74.6387 153.23C74.9853 153.31 75.3153 153.35 75.6287 153.35C76.1553 153.35 76.5787 153.227 76.8987 152.98C77.2253 152.727 77.3887 152.337 77.3887 151.81C77.3887 151.343 77.2453 150.987 76.9587 150.74C76.672 150.487 76.2187 150.36 75.5987 150.36C75.412 150.36 75.1987 150.377 74.9587 150.41C74.7187 150.443 74.5253 150.477 74.3787 150.51L73.9387 150.23L74.2087 146.86H77.7887V147.66H74.9587L74.7887 149.73C74.902 149.71 75.0553 149.687 75.2487 149.66C75.442 149.633 75.6553 149.62 75.8887 149.62Z" fill="black"/>
<path d="M97.6887 150.95C97.6887 150.437 97.732 149.933 97.8187 149.44C97.912 148.94 98.0753 148.49 98.3087 148.09C98.5487 147.683 98.882 147.36 99.3087 147.12C99.7353 146.88 100.285 146.76 100.959 146.76C101.099 146.76 101.252 146.767 101.419 146.78C101.592 146.793 101.732 146.817 101.839 146.85V147.6C101.719 147.56 101.582 147.53 101.429 147.51C101.282 147.49 101.132 147.48 100.979 147.48C100.519 147.48 100.135 147.557 99.8287 147.71C99.522 147.863 99.2787 148.073 99.0987 148.34C98.9253 148.607 98.7987 148.913 98.7187 149.26C98.6387 149.607 98.5887 149.977 98.5687 150.37H98.6287C98.782 150.137 98.9953 149.94 99.2687 149.78C99.542 149.613 99.892 149.53 100.319 149.53C100.939 149.53 101.439 149.72 101.819 150.1C102.199 150.473 102.389 151.007 102.389 151.7C102.389 152.447 102.182 153.033 101.769 153.46C101.362 153.887 100.812 154.1 100.119 154.1C99.6653 154.1 99.2553 153.987 98.8887 153.76C98.522 153.533 98.2287 153.187 98.0087 152.72C97.7953 152.253 97.6887 151.663 97.6887 150.95ZM100.109 153.36C100.529 153.36 100.869 153.227 101.129 152.96C101.389 152.687 101.519 152.267 101.519 151.7C101.519 151.247 101.402 150.887 101.169 150.62C100.942 150.353 100.599 150.22 100.139 150.22C99.8253 150.22 99.552 150.287 99.3187 150.42C99.0853 150.547 98.902 150.71 98.7687 150.91C98.642 151.11 98.5787 151.317 98.5787 151.53C98.5787 151.817 98.6353 152.103 98.7487 152.39C98.862 152.67 99.032 152.903 99.2587 153.09C99.4853 153.27 99.7687 153.36 100.109 153.36Z" fill="black"/>
<path d="M122.499 154L125.429 147.66H121.579V146.86H126.369V147.54L123.469 154H122.499Z" fill="white"/>
<path d="M147.989 146.76C148.615 146.76 149.129 146.907 149.529 147.2C149.929 147.493 150.129 147.917 150.129 148.47C150.129 148.757 150.065 149.007 149.939 149.22C149.819 149.433 149.655 149.623 149.449 149.79C149.242 149.95 149.015 150.093 148.769 150.22C149.062 150.36 149.329 150.52 149.569 150.7C149.809 150.873 149.999 151.077 150.139 151.31C150.285 151.543 150.359 151.823 150.359 152.15C150.359 152.75 150.145 153.227 149.719 153.58C149.299 153.927 148.732 154.1 148.019 154.1C147.252 154.1 146.662 153.933 146.249 153.6C145.835 153.26 145.629 152.787 145.629 152.18C145.629 151.853 145.695 151.57 145.829 151.33C145.969 151.09 146.152 150.883 146.379 150.71C146.605 150.537 146.849 150.39 147.109 150.27C146.762 150.07 146.465 149.83 146.219 149.55C145.979 149.263 145.859 148.9 145.859 148.46C145.859 148.093 145.952 147.787 146.139 147.54C146.325 147.287 146.579 147.093 146.899 146.96C147.219 146.827 147.582 146.76 147.989 146.76ZM147.979 147.47C147.612 147.47 147.309 147.56 147.069 147.74C146.835 147.913 146.719 148.167 146.719 148.5C146.719 148.747 146.775 148.953 146.889 149.12C147.009 149.287 147.169 149.43 147.369 149.55C147.569 149.663 147.789 149.773 148.029 149.88C148.375 149.733 148.665 149.557 148.899 149.35C149.139 149.143 149.259 148.86 149.259 148.5C149.259 148.167 149.142 147.913 148.909 147.74C148.675 147.56 148.365 147.47 147.979 147.47ZM146.489 152.19C146.489 152.537 146.612 152.827 146.859 153.06C147.105 153.287 147.485 153.4 147.999 153.4C148.485 153.4 148.855 153.287 149.109 153.06C149.369 152.827 149.499 152.527 149.499 152.16C149.499 151.813 149.362 151.527 149.089 151.3C148.815 151.067 148.452 150.863 147.999 150.69L147.839 150.63C147.399 150.817 147.062 151.033 146.829 151.28C146.602 151.52 146.489 151.823 146.489 152.19Z" fill="black"/>
<path d="M174.339 149.91C174.339 150.423 174.292 150.93 174.199 151.43C174.112 151.923 173.949 152.373 173.709 152.78C173.475 153.18 173.142 153.5 172.709 153.74C172.282 153.98 171.732 154.1 171.059 154.1C170.925 154.1 170.769 154.09 170.589 154.07C170.415 154.057 170.272 154.033 170.159 154V153.25C170.419 153.337 170.712 153.38 171.039 153.38C171.505 153.38 171.889 153.303 172.189 153.15C172.495 152.997 172.739 152.79 172.919 152.53C173.099 152.263 173.229 151.957 173.309 151.61C173.389 151.257 173.435 150.887 173.449 150.5H173.389C173.242 150.727 173.029 150.923 172.749 151.09C172.475 151.25 172.122 151.33 171.689 151.33C171.075 151.33 170.579 151.143 170.199 150.77C169.825 150.39 169.639 149.857 169.639 149.17C169.639 148.67 169.732 148.24 169.919 147.88C170.112 147.52 170.379 147.243 170.719 147.05C171.059 146.857 171.459 146.76 171.919 146.76C172.372 146.76 172.782 146.877 173.149 147.11C173.515 147.337 173.805 147.683 174.019 148.15C174.232 148.61 174.339 149.197 174.339 149.91ZM171.919 147.5C171.505 147.5 171.165 147.637 170.899 147.91C170.639 148.183 170.509 148.6 170.509 149.16C170.509 149.62 170.619 149.983 170.839 150.25C171.065 150.51 171.412 150.64 171.879 150.64C172.199 150.64 172.475 150.577 172.709 150.45C172.942 150.317 173.122 150.15 173.249 149.95C173.382 149.75 173.449 149.543 173.449 149.33C173.449 149.043 173.392 148.76 173.279 148.48C173.165 148.2 172.995 147.967 172.769 147.78C172.542 147.593 172.259 147.5 171.919 147.5Z" fill="black"/>
<path d="M28.5595 177H27.6995V172.01C27.6995 171.723 27.7028 171.493 27.7095 171.32C27.7162 171.147 27.7262 170.967 27.7395 170.78C27.6328 170.887 27.5362 170.977 27.4495 171.05C27.3628 171.123 27.2528 171.217 27.1195 171.33L26.3595 171.95L25.8995 171.36L27.8295 169.86H28.5595V177ZM36.4979 173.42C36.4979 174.187 36.4179 174.847 36.2579 175.4C36.0979 175.947 35.8445 176.367 35.4979 176.66C35.1512 176.953 34.6912 177.1 34.1179 177.1C33.3112 177.1 32.7145 176.777 32.3279 176.13C31.9479 175.477 31.7579 174.573 31.7579 173.42C31.7579 172.647 31.8345 171.987 31.9879 171.44C32.1479 170.893 32.4012 170.477 32.7479 170.19C33.0945 169.897 33.5512 169.75 34.1179 169.75C34.9179 169.75 35.5145 170.073 35.9079 170.72C36.3012 171.36 36.4979 172.26 36.4979 173.42ZM32.6379 173.42C32.6379 174.4 32.7479 175.133 32.9679 175.62C33.1945 176.107 33.5779 176.35 34.1179 176.35C34.6512 176.35 35.0312 176.11 35.2579 175.63C35.4912 175.143 35.6079 174.407 35.6079 173.42C35.6079 172.447 35.4912 171.717 35.2579 171.23C35.0312 170.743 34.6512 170.5 34.1179 170.5C33.5779 170.5 33.1945 170.743 32.9679 171.23C32.7479 171.717 32.6379 172.447 32.6379 173.42Z" fill="black"/>
<path d="M52.5595 177H51.6995V172.01C51.6995 171.723 51.7028 171.493 51.7095 171.32C51.7162 171.147 51.7262 170.967 51.7395 170.78C51.6328 170.887 51.5362 170.977 51.4495 171.05C51.3628 171.123 51.2528 171.217 51.1195 171.33L50.3595 171.95L49.8995 171.36L51.8295 169.86H52.5595V177ZM58.8179 177H57.9579V172.01C57.9579 171.723 57.9612 171.493 57.9679 171.32C57.9745 171.147 57.9845 170.967 57.9979 170.78C57.8912 170.887 57.7945 170.977 57.7079 171.05C57.6212 171.123 57.5112 171.217 57.3779 171.33L56.6179 171.95L56.1579 171.36L58.0879 169.86H58.8179V177Z" fill="black"/>
<path d="M76.5595 177H75.6995V172.01C75.6995 171.723 75.7028 171.493 75.7095 171.32C75.7162 171.147 75.7262 170.967 75.7395 170.78C75.6328 170.887 75.5362 170.977 75.4495 171.05C75.3628 171.123 75.2528 171.217 75.1195 171.33L74.3595 171.95L73.8995 171.36L75.8295 169.86H76.5595V177ZM84.4679 177H79.7479V176.27L81.6179 174.38C81.9779 174.02 82.2812 173.7 82.5279 173.42C82.7745 173.14 82.9612 172.867 83.0879 172.6C83.2145 172.327 83.2779 172.03 83.2779 171.71C83.2779 171.317 83.1612 171.02 82.9279 170.82C82.6945 170.613 82.3912 170.51 82.0179 170.51C81.6712 170.51 81.3645 170.57 81.0979 170.69C80.8379 170.81 80.5712 170.977 80.2979 171.19L79.8279 170.6C80.1079 170.367 80.4279 170.17 80.7879 170.01C81.1545 169.843 81.5645 169.76 82.0179 169.76C82.6845 169.76 83.2112 169.93 83.5979 170.27C83.9845 170.603 84.1779 171.067 84.1779 171.66C84.1779 172.033 84.1012 172.383 83.9479 172.71C83.7945 173.037 83.5812 173.36 83.3079 173.68C83.0345 173.993 82.7145 174.33 82.3479 174.69L80.8579 176.16V176.2H84.4679V177Z" fill="black"/>
<path d="M100.559 177H99.6995V172.01C99.6995 171.723 99.7028 171.493 99.7095 171.32C99.7162 171.147 99.7262 170.967 99.7395 170.78C99.6328 170.887 99.5362 170.977 99.4495 171.05C99.3628 171.123 99.2528 171.217 99.1195 171.33L98.3595 171.95L97.8995 171.36L99.8295 169.86H100.559V177ZM108.198 171.53C108.198 172.01 108.065 172.393 107.798 172.68C107.531 172.96 107.171 173.147 106.718 173.24V173.28C107.291 173.347 107.718 173.527 107.998 173.82C108.278 174.113 108.418 174.497 108.418 174.97C108.418 175.383 108.321 175.753 108.128 176.08C107.935 176.4 107.635 176.65 107.228 176.83C106.828 177.01 106.311 177.1 105.678 177.1C105.305 177.1 104.958 177.07 104.638 177.01C104.318 176.957 104.011 176.857 103.718 176.71V175.89C104.018 176.037 104.341 176.153 104.688 176.24C105.035 176.32 105.368 176.36 105.688 176.36C106.328 176.36 106.788 176.237 107.068 175.99C107.355 175.737 107.498 175.39 107.498 174.95C107.498 174.503 107.321 174.183 106.968 173.99C106.621 173.79 106.131 173.69 105.498 173.69H104.808V172.94H105.508C106.095 172.94 106.538 172.817 106.838 172.57C107.145 172.323 107.298 171.997 107.298 171.59C107.298 171.243 107.181 170.977 106.948 170.79C106.715 170.597 106.398 170.5 105.998 170.5C105.611 170.5 105.281 170.557 105.008 170.67C104.735 170.783 104.465 170.927 104.198 171.1L103.758 170.5C104.011 170.3 104.325 170.127 104.698 169.98C105.078 169.833 105.508 169.76 105.988 169.76C106.735 169.76 107.288 169.927 107.648 170.26C108.015 170.593 108.198 171.017 108.198 171.53Z" fill="black"/>
<path d="M124.559 177H123.699V172.01C123.699 171.723 123.703 171.493 123.709 171.32C123.716 171.147 123.726 170.967 123.739 170.78C123.633 170.887 123.536 170.977 123.449 171.05C123.363 171.123 123.253 171.217 123.119 171.33L122.359 171.95L121.899 171.36L123.829 169.86H124.559V177ZM132.788 175.38H131.748V177H130.898V175.38H127.478V174.63L130.838 169.82H131.748V174.59H132.788V175.38ZM130.898 172.34C130.898 171.993 130.905 171.7 130.918 171.46C130.931 171.213 130.941 170.98 130.948 170.76H130.908C130.855 170.887 130.788 171.023 130.708 171.17C130.628 171.317 130.551 171.44 130.478 171.54L128.338 174.59H130.898V172.34Z" fill="black"/>
<path d="M148.559 177H147.699V172.01C147.699 171.723 147.703 171.493 147.709 171.32C147.716 171.147 147.726 170.967 147.739 170.78C147.633 170.887 147.536 170.977 147.449 171.05C147.363 171.123 147.253 171.217 147.119 171.33L146.359 171.95L145.899 171.36L147.829 169.86H148.559V177ZM154.018 172.62C154.751 172.62 155.335 172.803 155.768 173.17C156.201 173.537 156.418 174.053 156.418 174.72C156.418 175.46 156.181 176.043 155.708 176.47C155.241 176.89 154.588 177.1 153.748 177.1C153.381 177.1 153.035 177.067 152.708 177C152.388 176.933 152.118 176.837 151.898 176.71V175.88C152.138 176.027 152.428 176.143 152.768 176.23C153.115 176.31 153.445 176.35 153.758 176.35C154.285 176.35 154.708 176.227 155.028 175.98C155.355 175.727 155.518 175.337 155.518 174.81C155.518 174.343 155.375 173.987 155.088 173.74C154.801 173.487 154.348 173.36 153.728 173.36C153.541 173.36 153.328 173.377 153.088 173.41C152.848 173.443 152.655 173.477 152.508 173.51L152.068 173.23L152.338 169.86H155.918V170.66H153.088L152.918 172.73C153.031 172.71 153.185 172.687 153.378 172.66C153.571 172.633 153.785 172.62 154.018 172.62Z" fill="black"/>
<path d="M172.559 177H171.699V172.01C171.699 171.723 171.703 171.493 171.709 171.32C171.716 171.147 171.726 170.967 171.739 170.78C171.633 170.887 171.536 170.977 171.449 171.05C171.363 171.123 171.253 171.217 171.119 171.33L170.359 171.95L169.899 171.36L171.829 169.86H172.559V177ZM175.818 173.95C175.818 173.437 175.861 172.933 175.948 172.44C176.041 171.94 176.205 171.49 176.438 171.09C176.678 170.683 177.011 170.36 177.438 170.12C177.865 169.88 178.415 169.76 179.088 169.76C179.228 169.76 179.381 169.767 179.548 169.78C179.721 169.793 179.861 169.817 179.968 169.85V170.6C179.848 170.56 179.711 170.53 179.558 170.51C179.411 170.49 179.261 170.48 179.108 170.48C178.648 170.48 178.265 170.557 177.958 170.71C177.651 170.863 177.408 171.073 177.228 171.34C177.055 171.607 176.928 171.913 176.848 172.26C176.768 172.607 176.718 172.977 176.698 173.37H176.758C176.911 173.137 177.125 172.94 177.398 172.78C177.671 172.613 178.021 172.53 178.448 172.53C179.068 172.53 179.568 172.72 179.948 173.1C180.328 173.473 180.518 174.007 180.518 174.7C180.518 175.447 180.311 176.033 179.898 176.46C179.491 176.887 178.941 177.1 178.248 177.1C177.795 177.1 177.385 176.987 177.018 176.76C176.651 176.533 176.358 176.187 176.138 175.72C175.925 175.253 175.818 174.663 175.818 173.95ZM178.238 176.36C178.658 176.36 178.998 176.227 179.258 175.96C179.518 175.687 179.648 175.267 179.648 174.7C179.648 174.247 179.531 173.887 179.298 173.62C179.071 173.353 178.728 173.22 178.268 173.22C177.955 173.22 177.681 173.287 177.448 173.42C177.215 173.547 177.031 173.71 176.898 173.91C176.771 174.11 176.708 174.317 176.708 174.53C176.708 174.817 176.765 175.103 176.878 175.39C176.991 175.67 177.161 175.903 177.388 176.09C177.615 176.27 177.898 176.36 178.238 176.36Z" fill="black"/>
<path d="M28.5595 200H27.6995V195.01C27.6995 194.723 27.7028 194.493 27.7095 194.32C27.7162 194.147 27.7262 193.967 27.7395 193.78C27.6328 193.887 27.5362 193.977 27.4495 194.05C27.3628 194.123 27.2528 194.217 27.1195 194.33L26.3595 194.95L25.8995 194.36L27.8295 192.86H28.5595V200ZM32.6279 200L35.5579 193.66H31.7079V192.86H36.4979V193.54L33.5979 200H32.6279Z" fill="black"/>
<path d="M52.5595 200H51.6995V195.01C51.6995 194.723 51.7028 194.493 51.7095 194.32C51.7162 194.147 51.7262 193.967 51.7395 193.78C51.6328 193.887 51.5362 193.977 51.4495 194.05C51.3628 194.123 51.2528 194.217 51.1195 194.33L50.3595 194.95L49.8995 194.36L51.8295 192.86H52.5595V200ZM58.1179 192.76C58.7445 192.76 59.2579 192.907 59.6579 193.2C60.0579 193.493 60.2579 193.917 60.2579 194.47C60.2579 194.757 60.1945 195.007 60.0679 195.22C59.9479 195.433 59.7845 195.623 59.5779 195.79C59.3712 195.95 59.1445 196.093 58.8979 196.22C59.1912 196.36 59.4579 196.52 59.6979 196.7C59.9379 196.873 60.1279 197.077 60.2679 197.31C60.4145 197.543 60.4879 197.823 60.4879 198.15C60.4879 198.75 60.2745 199.227 59.8479 199.58C59.4279 199.927 58.8612 200.1 58.1479 200.1C57.3812 200.1 56.7912 199.933 56.3779 199.6C55.9645 199.26 55.7579 198.787 55.7579 198.18C55.7579 197.853 55.8245 197.57 55.9579 197.33C56.0979 197.09 56.2812 196.883 56.5079 196.71C56.7345 196.537 56.9779 196.39 57.2379 196.27C56.8912 196.07 56.5945 195.83 56.3479 195.55C56.1079 195.263 55.9879 194.9 55.9879 194.46C55.9879 194.093 56.0812 193.787 56.2679 193.54C56.4545 193.287 56.7079 193.093 57.0279 192.96C57.3479 192.827 57.7112 192.76 58.1179 192.76ZM58.1079 193.47C57.7412 193.47 57.4379 193.56 57.1979 193.74C56.9645 193.913 56.8479 194.167 56.8479 194.5C56.8479 194.747 56.9045 194.953 57.0179 195.12C57.1379 195.287 57.2979 195.43 57.4979 195.55C57.6979 195.663 57.9179 195.773 58.1579 195.88C58.5045 195.733 58.7945 195.557 59.0279 195.35C59.2679 195.143 59.3879 194.86 59.3879 194.5C59.3879 194.167 59.2712 193.913 59.0379 193.74C58.8045 193.56 58.4945 193.47 58.1079 193.47ZM56.6179 198.19C56.6179 198.537 56.7412 198.827 56.9879 199.06C57.2345 199.287 57.6145 199.4 58.1279 199.4C58.6145 199.4 58.9845 199.287 59.2379 199.06C59.4979 198.827 59.6279 198.527 59.6279 198.16C59.6279 197.813 59.4912 197.527 59.2179 197.3C58.9445 197.067 58.5812 196.863 58.1279 196.69L57.9679 196.63C57.5279 196.817 57.1912 197.033 56.9579 197.28C56.7312 197.52 56.6179 197.823 56.6179 198.19Z" fill="black"/>
<path d="M76.5595 200H75.6995V195.01C75.6995 194.723 75.7028 194.493 75.7095 194.32C75.7162 194.147 75.7262 193.967 75.7395 193.78C75.6328 193.887 75.5362 193.977 75.4495 194.05C75.3628 194.123 75.2528 194.217 75.1195 194.33L74.3595 194.95L73.8995 194.36L75.8295 192.86H76.5595V200ZM84.4679 195.91C84.4679 196.423 84.4212 196.93 84.3279 197.43C84.2412 197.923 84.0779 198.373 83.8379 198.78C83.6045 199.18 83.2712 199.5 82.8379 199.74C82.4112 199.98 81.8612 200.1 81.1879 200.1C81.0545 200.1 80.8979 200.09 80.7179 200.07C80.5445 200.057 80.4012 200.033 80.2879 200V199.25C80.5479 199.337 80.8412 199.38 81.1679 199.38C81.6345 199.38 82.0179 199.303 82.3179 199.15C82.6245 198.997 82.8679 198.79 83.0479 198.53C83.2279 198.263 83.3579 197.957 83.4379 197.61C83.5179 197.257 83.5645 196.887 83.5779 196.5H83.5179C83.3712 196.727 83.1579 196.923 82.8779 197.09C82.6045 197.25 82.2512 197.33 81.8179 197.33C81.2045 197.33 80.7079 197.143 80.3279 196.77C79.9545 196.39 79.7679 195.857 79.7679 195.17C79.7679 194.67 79.8612 194.24 80.0479 193.88C80.2412 193.52 80.5079 193.243 80.8479 193.05C81.1879 192.857 81.5879 192.76 82.0479 192.76C82.5012 192.76 82.9112 192.877 83.2779 193.11C83.6445 193.337 83.9345 193.683 84.1479 194.15C84.3612 194.61 84.4679 195.197 84.4679 195.91ZM82.0479 193.5C81.6345 193.5 81.2945 193.637 81.0279 193.91C80.7679 194.183 80.6379 194.6 80.6379 195.16C80.6379 195.62 80.7479 195.983 80.9679 196.25C81.1945 196.51 81.5412 196.64 82.0079 196.64C82.3279 196.64 82.6045 196.577 82.8379 196.45C83.0712 196.317 83.2512 196.15 83.3779 195.95C83.5112 195.75 83.5779 195.543 83.5779 195.33C83.5779 195.043 83.5212 194.76 83.4079 194.48C83.2945 194.2 83.1245 193.967 82.8979 193.78C82.6712 193.593 82.3879 193.5 82.0479 193.5Z" fill="black"/>
<path d="M102.209 200H97.4895V199.27L99.3595 197.38C99.7195 197.02 100.023 196.7 100.269 196.42C100.516 196.14 100.703 195.867 100.829 195.6C100.956 195.327 101.019 195.03 101.019 194.71C101.019 194.317 100.903 194.02 100.669 193.82C100.436 193.613 100.133 193.51 99.7595 193.51C99.4128 193.51 99.1062 193.57 98.8395 193.69C98.5795 193.81 98.3128 193.977 98.0395 194.19L97.5695 193.6C97.8495 193.367 98.1695 193.17 98.5295 193.01C98.8962 192.843 99.3062 192.76 99.7595 192.76C100.426 192.76 100.953 192.93 101.339 193.27C101.726 193.603 101.919 194.067 101.919 194.66C101.919 195.033 101.843 195.383 101.689 195.71C101.536 196.037 101.323 196.36 101.049 196.68C100.776 196.993 100.456 197.33 100.089 197.69L98.5995 199.16V199.2H102.209V200ZM108.498 196.42C108.498 197.187 108.418 197.847 108.258 198.4C108.098 198.947 107.845 199.367 107.498 199.66C107.151 199.953 106.691 200.1 106.118 200.1C105.311 200.1 104.715 199.777 104.328 199.13C103.948 198.477 103.758 197.573 103.758 196.42C103.758 195.647 103.835 194.987 103.988 194.44C104.148 193.893 104.401 193.477 104.748 193.19C105.095 192.897 105.551 192.75 106.118 192.75C106.918 192.75 107.515 193.073 107.908 193.72C108.301 194.36 108.498 195.26 108.498 196.42ZM104.638 196.42C104.638 197.4 104.748 198.133 104.968 198.62C105.195 199.107 105.578 199.35 106.118 199.35C106.651 199.35 107.031 199.11 107.258 198.63C107.491 198.143 107.608 197.407 107.608 196.42C107.608 195.447 107.491 194.717 107.258 194.23C107.031 193.743 106.651 193.5 106.118 193.5C105.578 193.5 105.195 193.743 104.968 194.23C104.748 194.717 104.638 195.447 104.638 196.42Z" fill="black"/>
<path d="M126.209 200H121.489V199.27L123.359 197.38C123.719 197.02 124.023 196.7 124.269 196.42C124.516 196.14 124.703 195.867 124.829 195.6C124.956 195.327 125.019 195.03 125.019 194.71C125.019 194.317 124.903 194.02 124.669 193.82C124.436 193.613 124.133 193.51 123.759 193.51C123.413 193.51 123.106 193.57 122.839 193.69C122.579 193.81 122.313 193.977 122.039 194.19L121.569 193.6C121.849 193.367 122.169 193.17 122.529 193.01C122.896 192.843 123.306 192.76 123.759 192.76C124.426 192.76 124.953 192.93 125.339 193.27C125.726 193.603 125.919 194.067 125.919 194.66C125.919 195.033 125.843 195.383 125.689 195.71C125.536 196.037 125.323 196.36 125.049 196.68C124.776 196.993 124.456 197.33 124.089 197.69L122.599 199.16V199.2H126.209V200ZM130.818 200H129.958V195.01C129.958 194.723 129.961 194.493 129.968 194.32C129.975 194.147 129.985 193.967 129.998 193.78C129.891 193.887 129.795 193.977 129.708 194.05C129.621 194.123 129.511 194.217 129.378 194.33L128.618 194.95L128.158 194.36L130.088 192.86H130.818V200Z" fill="black"/>
<path d="M150.209 200H145.489V199.27L147.359 197.38C147.719 197.02 148.023 196.7 148.269 196.42C148.516 196.14 148.703 195.867 148.829 195.6C148.956 195.327 149.019 195.03 149.019 194.71C149.019 194.317 148.903 194.02 148.669 193.82C148.436 193.613 148.133 193.51 147.759 193.51C147.413 193.51 147.106 193.57 146.839 193.69C146.579 193.81 146.313 193.977 146.039 194.19L145.569 193.6C145.849 193.367 146.169 193.17 146.529 193.01C146.896 192.843 147.306 192.76 147.759 192.76C148.426 192.76 148.953 192.93 149.339 193.27C149.726 193.603 149.919 194.067 149.919 194.66C149.919 195.033 149.843 195.383 149.689 195.71C149.536 196.037 149.323 196.36 149.049 196.68C148.776 196.993 148.456 197.33 148.089 197.69L146.599 199.16V199.2H150.209V200ZM156.468 200H151.748V199.27L153.618 197.38C153.978 197.02 154.281 196.7 154.528 196.42C154.775 196.14 154.961 195.867 155.088 195.6C155.215 195.327 155.278 195.03 155.278 194.71C155.278 194.317 155.161 194.02 154.928 193.82C154.695 193.613 154.391 193.51 154.018 193.51C153.671 193.51 153.365 193.57 153.098 193.69C152.838 193.81 152.571 193.977 152.298 194.19L151.828 193.6C152.108 193.367 152.428 193.17 152.788 193.01C153.155 192.843 153.565 192.76 154.018 192.76C154.685 192.76 155.211 192.93 155.598 193.27C155.985 193.603 156.178 194.067 156.178 194.66C156.178 195.033 156.101 195.383 155.948 195.71C155.795 196.037 155.581 196.36 155.308 196.68C155.035 196.993 154.715 197.33 154.348 197.69L152.858 199.16V199.2H156.468V200Z" fill="black"/>
<path d="M174.209 200H169.489V199.27L171.359 197.38C171.719 197.02 172.023 196.7 172.269 196.42C172.516 196.14 172.703 195.867 172.829 195.6C172.956 195.327 173.019 195.03 173.019 194.71C173.019 194.317 172.903 194.02 172.669 193.82C172.436 193.613 172.133 193.51 171.759 193.51C171.413 193.51 171.106 193.57 170.839 193.69C170.579 193.81 170.313 193.977 170.039 194.19L169.569 193.6C169.849 193.367 170.169 193.17 170.529 193.01C170.896 192.843 171.306 192.76 171.759 192.76C172.426 192.76 172.953 192.93 173.339 193.27C173.726 193.603 173.919 194.067 173.919 194.66C173.919 195.033 173.843 195.383 173.689 195.71C173.536 196.037 173.323 196.36 173.049 196.68C172.776 196.993 172.456 197.33 172.089 197.69L170.599 199.16V199.2H174.209V200ZM180.198 194.53C180.198 195.01 180.065 195.393 179.798 195.68C179.531 195.96 179.171 196.147 178.718 196.24V196.28C179.291 196.347 179.718 196.527 179.998 196.82C180.278 197.113 180.418 197.497 180.418 197.97C180.418 198.383 180.321 198.753 180.128 199.08C179.935 199.4 179.635 199.65 179.228 199.83C178.828 200.01 178.311 200.1 177.678 200.1C177.305 200.1 176.958 200.07 176.638 200.01C176.318 199.957 176.011 199.857 175.718 199.71V198.89C176.018 199.037 176.341 199.153 176.688 199.24C177.035 199.32 177.368 199.36 177.688 199.36C178.328 199.36 178.788 199.237 179.068 198.99C179.355 198.737 179.498 198.39 179.498 197.95C179.498 197.503 179.321 197.183 178.968 196.99C178.621 196.79 178.131 196.69 177.498 196.69H176.808V195.94H177.508C178.095 195.94 178.538 195.817 178.838 195.57C179.145 195.323 179.298 194.997 179.298 194.59C179.298 194.243 179.181 193.977 178.948 193.79C178.715 193.597 178.398 193.5 177.998 193.5C177.611 193.5 177.281 193.557 177.008 193.67C176.735 193.783 176.465 193.927 176.198 194.1L175.758 193.5C176.011 193.3 176.325 193.127 176.698 192.98C177.078 192.833 177.508 192.76 177.988 192.76C178.735 192.76 179.288 192.927 179.648 193.26C180.015 193.593 180.198 194.017 180.198 194.53Z" fill="black"/>
<rect x="207" y="97" width="120" height="51" fill="#CFE4F0"/>
<path d="M200 111L210.5 99.7417V122.258L200 111Z" fill="#CFE4F0"/>
<path d="M213.816 114H212.624V107.92H213.816V114ZM217.397 109.552C218 109.552 218.477 109.725 218.829 110.072C219.181 110.413 219.357 110.901 219.357 111.536V112.112H216.541C216.552 112.448 216.651 112.712 216.837 112.904C217.029 113.096 217.293 113.192 217.629 113.192C217.912 113.192 218.168 113.165 218.397 113.112C218.627 113.053 218.864 112.965 219.109 112.848V113.768C218.896 113.875 218.669 113.952 218.429 114C218.195 114.053 217.909 114.08 217.573 114.08C217.136 114.08 216.749 114 216.413 113.84C216.077 113.675 215.813 113.427 215.621 113.096C215.429 112.765 215.333 112.349 215.333 111.848C215.333 111.336 215.419 110.912 215.589 110.576C215.765 110.235 216.008 109.979 216.317 109.808C216.627 109.637 216.987 109.552 217.397 109.552ZM217.405 110.4C217.176 110.4 216.984 110.475 216.829 110.624C216.68 110.773 216.592 111.005 216.565 111.32H218.237C218.232 111.053 218.163 110.835 218.029 110.664C217.896 110.488 217.688 110.4 217.405 110.4ZM223.425 108.504C223.425 108.28 223.487 108.128 223.609 108.048C223.737 107.963 223.892 107.92 224.073 107.92C224.249 107.92 224.401 107.963 224.529 108.048C224.657 108.128 224.721 108.28 224.721 108.504C224.721 108.723 224.657 108.875 224.529 108.96C224.401 109.045 224.249 109.088 224.073 109.088C223.892 109.088 223.737 109.045 223.609 108.96C223.487 108.875 223.425 108.723 223.425 108.504ZM223.121 115.92C222.988 115.92 222.849 115.909 222.705 115.888C222.556 115.872 222.433 115.851 222.337 115.824V114.888C222.433 114.909 222.524 114.925 222.609 114.936C222.695 114.952 222.791 114.96 222.897 114.96C223.057 114.96 223.193 114.915 223.305 114.824C223.417 114.733 223.473 114.557 223.473 114.296V109.632H224.665V114.472C224.665 114.739 224.615 114.981 224.513 115.2C224.412 115.419 224.247 115.592 224.017 115.72C223.793 115.853 223.495 115.92 223.121 115.92ZM228.247 109.552C228.849 109.552 229.327 109.725 229.679 110.072C230.031 110.413 230.207 110.901 230.207 111.536V112.112H227.391C227.401 112.448 227.5 112.712 227.687 112.904C227.879 113.096 228.143 113.192 228.479 113.192C228.761 113.192 229.017 113.165 229.247 113.112C229.476 113.053 229.713 112.965 229.959 112.848V113.768C229.745 113.875 229.519 113.952 229.279 114C229.044 114.053 228.759 114.08 228.423 114.08C227.985 114.08 227.599 114 227.263 113.84C226.927 113.675 226.663 113.427 226.471 113.096C226.279 112.765 226.183 112.349 226.183 111.848C226.183 111.336 226.268 110.912 226.439 110.576C226.615 110.235 226.857 109.979 227.167 109.808C227.476 109.637 227.836 109.552 228.247 109.552ZM228.255 110.4C228.025 110.4 227.833 110.475 227.679 110.624C227.529 110.773 227.441 111.005 227.415 111.32H229.087C229.081 111.053 229.012 110.835 228.879 110.664C228.745 110.488 228.537 110.4 228.255 110.4ZM235.717 109.632V114H234.805L234.645 113.44H234.581C234.442 113.664 234.25 113.827 234.005 113.928C233.765 114.029 233.509 114.08 233.237 114.08C232.767 114.08 232.391 113.955 232.109 113.704C231.826 113.448 231.685 113.04 231.685 112.48V109.632H232.877V112.184C232.877 112.493 232.933 112.728 233.045 112.888C233.157 113.048 233.335 113.128 233.581 113.128C233.943 113.128 234.191 113.005 234.325 112.76C234.458 112.509 234.525 112.152 234.525 111.688V109.632H235.717ZM238.886 114.08C238.401 114.08 238.004 113.891 237.694 113.512C237.39 113.128 237.238 112.565 237.238 111.824C237.238 111.077 237.393 110.512 237.702 110.128C238.012 109.744 238.417 109.552 238.918 109.552C239.233 109.552 239.492 109.613 239.694 109.736C239.897 109.859 240.057 110.011 240.174 110.192H240.214C240.198 110.107 240.18 109.984 240.158 109.824C240.137 109.659 240.126 109.491 240.126 109.32V107.92H241.318V114H240.406L240.174 113.432H240.126C240.009 113.613 239.852 113.768 239.654 113.896C239.457 114.019 239.201 114.08 238.886 114.08ZM239.302 113.128C239.633 113.128 239.865 113.032 239.998 112.84C240.132 112.643 240.201 112.349 240.206 111.96V111.832C240.206 111.405 240.14 111.08 240.006 110.856C239.878 110.632 239.638 110.52 239.286 110.52C239.025 110.52 238.82 110.635 238.67 110.864C238.521 111.088 238.446 111.413 238.446 111.84C238.446 112.267 238.521 112.589 238.67 112.808C238.82 113.021 239.03 113.128 239.302 113.128ZM243.701 107.92C243.877 107.92 244.029 107.963 244.157 108.048C244.285 108.128 244.349 108.28 244.349 108.504C244.349 108.723 244.285 108.875 244.157 108.96C244.029 109.045 243.877 109.088 243.701 109.088C243.519 109.088 243.365 109.045 243.237 108.96C243.114 108.875 243.053 108.723 243.053 108.504C243.053 108.28 243.114 108.128 243.237 108.048C243.365 107.963 243.519 107.92 243.701 107.92ZM244.293 109.632V114H243.101V109.632H244.293ZM248.952 114L251.096 109.304H248.28V108.288H252.376V109.048L250.216 114H248.952ZM256.367 108.504C256.367 108.28 256.429 108.128 256.551 108.048C256.679 107.963 256.834 107.92 257.015 107.92C257.191 107.92 257.343 107.963 257.471 108.048C257.599 108.128 257.663 108.28 257.663 108.504C257.663 108.723 257.599 108.875 257.471 108.96C257.343 109.045 257.191 109.088 257.015 109.088C256.834 109.088 256.679 109.045 256.551 108.96C256.429 108.875 256.367 108.723 256.367 108.504ZM256.063 115.92C255.93 115.92 255.791 115.909 255.647 115.888C255.498 115.872 255.375 115.851 255.279 115.824V114.888C255.375 114.909 255.466 114.925 255.551 114.936C255.637 114.952 255.733 114.96 255.839 114.96C255.999 114.96 256.135 114.915 256.247 114.824C256.359 114.733 256.415 114.557 256.415 114.296V109.632H257.607V114.472C257.607 114.739 257.557 114.981 257.455 115.2C257.354 115.419 257.189 115.592 256.959 115.72C256.735 115.853 256.437 115.92 256.063 115.92ZM261.181 109.544C261.767 109.544 262.215 109.672 262.525 109.928C262.839 110.179 262.997 110.565 262.997 111.088V114H262.165L261.933 113.408H261.901C261.714 113.643 261.517 113.813 261.309 113.92C261.101 114.027 260.815 114.08 260.453 114.08C260.063 114.08 259.741 113.968 259.485 113.744C259.229 113.515 259.101 113.165 259.101 112.696C259.101 112.232 259.263 111.891 259.589 111.672C259.914 111.448 260.402 111.325 261.053 111.304L261.813 111.28V111.088C261.813 110.859 261.751 110.691 261.629 110.584C261.511 110.477 261.346 110.424 261.133 110.424C260.919 110.424 260.711 110.456 260.509 110.52C260.306 110.579 260.103 110.653 259.901 110.744L259.509 109.936C259.743 109.813 260.002 109.717 260.285 109.648C260.573 109.579 260.871 109.544 261.181 109.544ZM261.349 111.992C260.965 112.003 260.698 112.072 260.549 112.2C260.399 112.328 260.325 112.496 260.325 112.704C260.325 112.885 260.378 113.016 260.485 113.096C260.591 113.171 260.73 113.208 260.901 113.208C261.157 113.208 261.373 113.133 261.549 112.984C261.725 112.829 261.813 112.613 261.813 112.336V111.976L261.349 111.992ZM267.232 109.552C267.702 109.552 268.078 109.68 268.36 109.936C268.643 110.187 268.784 110.592 268.784 111.152V114H267.592V111.448C267.592 111.133 267.536 110.899 267.424 110.744C267.312 110.584 267.134 110.504 266.888 110.504C266.526 110.504 266.278 110.629 266.144 110.88C266.011 111.125 265.944 111.48 265.944 111.944V114H264.752V109.632H265.664L265.824 110.192H265.888C266.027 109.968 266.216 109.805 266.456 109.704C266.702 109.603 266.96 109.552 267.232 109.552ZM271.586 114L269.922 109.632H271.17L272.01 112.12C272.058 112.269 272.095 112.424 272.122 112.584C272.154 112.744 272.173 112.888 272.178 113.016H272.21C272.226 112.728 272.285 112.429 272.386 112.12L273.226 109.632H274.474L272.81 114H271.586ZM276.236 107.92C276.412 107.92 276.564 107.963 276.692 108.048C276.82 108.128 276.884 108.28 276.884 108.504C276.884 108.723 276.82 108.875 276.692 108.96C276.564 109.045 276.412 109.088 276.236 109.088C276.055 109.088 275.9 109.045 275.772 108.96C275.65 108.875 275.588 108.723 275.588 108.504C275.588 108.28 275.65 108.128 275.772 108.048C275.9 107.963 276.055 107.92 276.236 107.92ZM276.828 109.632V114H275.636V109.632H276.828ZM280.409 109.552C281.012 109.552 281.489 109.725 281.841 110.072C282.193 110.413 282.369 110.901 282.369 111.536V112.112H279.553C279.564 112.448 279.663 112.712 279.849 112.904C280.041 113.096 280.305 113.192 280.641 113.192C280.924 113.192 281.18 113.165 281.409 113.112C281.639 113.053 281.876 112.965 282.121 112.848V113.768C281.908 113.875 281.681 113.952 281.441 114C281.207 114.053 280.921 114.08 280.585 114.08C280.148 114.08 279.761 114 279.425 113.84C279.089 113.675 278.825 113.427 278.633 113.096C278.441 112.765 278.345 112.349 278.345 111.848C278.345 111.336 278.431 110.912 278.601 110.576C278.777 110.235 279.02 109.979 279.329 109.808C279.639 109.637 279.999 109.552 280.409 109.552ZM280.417 110.4C280.188 110.4 279.996 110.475 279.841 110.624C279.692 110.773 279.604 111.005 279.577 111.32H281.249C281.244 111.053 281.175 110.835 281.041 110.664C280.908 110.488 280.7 110.4 280.417 110.4ZM286.312 109.552C286.37 109.552 286.44 109.555 286.52 109.56C286.6 109.565 286.664 109.573 286.712 109.584L286.624 110.704C286.586 110.693 286.53 110.685 286.456 110.68C286.386 110.669 286.325 110.664 286.272 110.664C286.069 110.664 285.874 110.701 285.688 110.776C285.501 110.845 285.349 110.96 285.232 111.12C285.12 111.28 285.064 111.499 285.064 111.776V114H283.872V109.632H284.776L284.952 110.368H285.008C285.136 110.144 285.312 109.952 285.536 109.792C285.76 109.632 286.018 109.552 286.312 109.552ZM294.342 114H290.35V113.16L291.782 111.712C292.07 111.413 292.302 111.165 292.478 110.968C292.654 110.765 292.782 110.584 292.862 110.424C292.942 110.259 292.982 110.083 292.982 109.896C292.982 109.667 292.918 109.496 292.79 109.384C292.667 109.272 292.499 109.216 292.286 109.216C292.067 109.216 291.854 109.267 291.646 109.368C291.438 109.469 291.219 109.613 290.99 109.8L290.334 109.024C290.499 108.88 290.673 108.747 290.854 108.624C291.041 108.501 291.254 108.403 291.494 108.328C291.739 108.248 292.033 108.208 292.374 108.208C292.747 108.208 293.067 108.277 293.334 108.416C293.606 108.549 293.814 108.733 293.958 108.968C294.107 109.197 294.182 109.459 294.182 109.752C294.182 110.067 294.118 110.355 293.99 110.616C293.867 110.877 293.686 111.136 293.446 111.392C293.211 111.648 292.926 111.931 292.59 112.24L291.854 112.928V112.984H294.342V114ZM299.424 111.144C299.424 111.757 299.357 112.283 299.224 112.72C299.096 113.157 298.885 113.493 298.592 113.728C298.304 113.963 297.915 114.08 297.424 114.08C296.736 114.08 296.232 113.821 295.912 113.304C295.592 112.781 295.432 112.061 295.432 111.144C295.432 110.525 295.496 109.997 295.624 109.56C295.752 109.123 295.963 108.787 296.256 108.552C296.549 108.317 296.939 108.2 297.424 108.2C298.107 108.2 298.611 108.459 298.936 108.976C299.261 109.493 299.424 110.216 299.424 111.144ZM296.632 111.144C296.632 111.795 296.688 112.285 296.8 112.616C296.912 112.941 297.12 113.104 297.424 113.104C297.723 113.104 297.931 112.941 298.048 112.616C298.165 112.291 298.224 111.8 298.224 111.144C298.224 110.493 298.165 110.003 298.048 109.672C297.931 109.341 297.723 109.176 297.424 109.176C297.12 109.176 296.912 109.341 296.8 109.672C296.688 110.003 296.632 110.493 296.632 111.144ZM304.57 114H300.578V113.16L302.01 111.712C302.298 111.413 302.53 111.165 302.706 110.968C302.882 110.765 303.01 110.584 303.09 110.424C303.17 110.259 303.21 110.083 303.21 109.896C303.21 109.667 303.146 109.496 303.018 109.384C302.895 109.272 302.727 109.216 302.514 109.216C302.295 109.216 302.082 109.267 301.874 109.368C301.666 109.469 301.447 109.613 301.218 109.8L300.562 109.024C300.727 108.88 300.9 108.747 301.082 108.624C301.268 108.501 301.482 108.403 301.722 108.328C301.967 108.248 302.26 108.208 302.602 108.208C302.975 108.208 303.295 108.277 303.562 108.416C303.834 108.549 304.042 108.733 304.186 108.968C304.335 109.197 304.41 109.459 304.41 109.752C304.41 110.067 304.346 110.355 304.218 110.616C304.095 110.877 303.914 111.136 303.674 111.392C303.439 111.648 303.154 111.931 302.818 112.24L302.082 112.928V112.984H304.57V114ZM308.676 114H307.468V110.696C307.468 110.557 307.47 110.376 307.476 110.152C307.486 109.928 307.494 109.731 307.5 109.56C307.473 109.592 307.414 109.651 307.324 109.736C307.238 109.816 307.158 109.888 307.084 109.952L306.428 110.48L305.844 109.752L307.684 108.288H308.676V114Z" fill="black"/>
<rect x="212.25" y="123.25" width="108.5" height="13.5" fill="white" stroke="black" stroke-width="0.5"/>
<path d="M221.16 129.728C221.16 130.139 221.123 130.544 221.048 130.944C220.979 131.339 220.848 131.699 220.656 132.024C220.469 132.344 220.203 132.6 219.856 132.792C219.515 132.984 219.075 133.08 218.536 133.08C218.429 133.08 218.304 133.072 218.16 133.056C218.021 133.045 217.907 133.027 217.816 133V132.4C218.024 132.469 218.259 132.504 218.52 132.504C218.893 132.504 219.2 132.443 219.44 132.32C219.685 132.197 219.88 132.032 220.024 131.824C220.168 131.611 220.272 131.365 220.336 131.088C220.4 130.805 220.437 130.509 220.448 130.2H220.4C220.283 130.381 220.112 130.539 219.888 130.672C219.669 130.8 219.387 130.864 219.04 130.864C218.549 130.864 218.152 130.715 217.848 130.416C217.549 130.112 217.4 129.685 217.4 129.136C217.4 128.736 217.475 128.392 217.624 128.104C217.779 127.816 217.992 127.595 218.264 127.44C218.536 127.285 218.856 127.208 219.224 127.208C219.587 127.208 219.915 127.301 220.208 127.488C220.501 127.669 220.733 127.947 220.904 128.32C221.075 128.688 221.16 129.157 221.16 129.728ZM219.224 127.8C218.893 127.8 218.621 127.909 218.408 128.128C218.2 128.347 218.096 128.68 218.096 129.128C218.096 129.496 218.184 129.787 218.36 130C218.541 130.208 218.819 130.312 219.192 130.312C219.448 130.312 219.669 130.261 219.856 130.16C220.043 130.053 220.187 129.92 220.288 129.76C220.395 129.6 220.448 129.435 220.448 129.264C220.448 129.035 220.403 128.808 220.312 128.584C220.221 128.36 220.085 128.173 219.904 128.024C219.723 127.875 219.496 127.8 219.224 127.8ZM226.112 128.704C226.112 128.917 226.098 129.117 226.072 129.304H226.12C226.258 129.085 226.445 128.92 226.68 128.808C226.92 128.696 227.178 128.64 227.456 128.64C227.978 128.64 228.37 128.765 228.632 129.016C228.893 129.261 229.024 129.659 229.024 130.208V133H228.328V130.256C228.328 129.568 228.008 129.224 227.368 129.224C226.888 129.224 226.557 129.36 226.376 129.632C226.2 129.899 226.112 130.283 226.112 130.784V133H225.408V126.92H226.112V128.704ZM237.007 130.136C237.007 130.749 236.943 131.277 236.815 131.72C236.687 132.157 236.484 132.493 236.207 132.728C235.929 132.963 235.561 133.08 235.103 133.08C234.457 133.08 233.98 132.821 233.671 132.304C233.367 131.781 233.215 131.059 233.215 130.136C233.215 129.517 233.276 128.989 233.399 128.552C233.527 128.115 233.729 127.781 234.007 127.552C234.284 127.317 234.649 127.2 235.103 127.2C235.743 127.2 236.22 127.459 236.535 127.976C236.849 128.488 237.007 129.208 237.007 130.136ZM233.919 130.136C233.919 130.92 234.007 131.507 234.183 131.896C234.364 132.285 234.671 132.48 235.103 132.48C235.529 132.48 235.833 132.288 236.015 131.904C236.201 131.515 236.295 130.925 236.295 130.136C236.295 129.357 236.201 128.773 236.015 128.384C235.833 127.995 235.529 127.8 235.103 127.8C234.671 127.8 234.364 127.995 234.183 128.384C234.007 128.773 233.919 129.357 233.919 130.136ZM242.12 130.136C242.12 130.749 242.056 131.277 241.928 131.72C241.8 132.157 241.598 132.493 241.32 132.728C241.043 132.963 240.675 133.08 240.216 133.08C239.571 133.08 239.094 132.821 238.784 132.304C238.48 131.781 238.328 131.059 238.328 130.136C238.328 129.517 238.39 128.989 238.512 128.552C238.64 128.115 238.843 127.781 239.12 127.552C239.398 127.317 239.763 127.2 240.216 127.2C240.856 127.2 241.334 127.459 241.648 127.976C241.963 128.488 242.12 129.208 242.12 130.136ZM239.032 130.136C239.032 130.92 239.12 131.507 239.296 131.896C239.478 132.285 239.784 132.48 240.216 132.48C240.643 132.48 240.947 132.288 241.128 131.904C241.315 131.515 241.408 130.925 241.408 130.136C241.408 129.357 241.315 128.773 241.128 128.384C240.947 127.995 240.643 127.8 240.216 127.8C239.784 127.8 239.478 127.995 239.296 128.384C239.12 128.773 239.032 129.357 239.032 130.136Z" fill="black"/>
<path d="M0.5 15C0.5 6.99187 6.99187 0.5 15 0.5H344C352.008 0.5 358.5 6.99187 358.5 15V231.5H0.5V15Z" stroke="#BBBDBF"/>
</g>
<defs>
<filter id="filter0_d" x="0" y="0" width="367" height="240" filterUnits="userSpaceOnUse" color-interpolation-filters="sRGB">
<feFlood flood-opacity="0" result="BackgroundImageFix"/>
<feColorMatrix in="SourceAlpha" type="matrix" values="0 0 0 0 0 0 0 0 0 0 0 0 0 0 0 0 0 0 127 0"/>
<feOffset dx="4" dy="4"/>
<feGaussianBlur stdDeviation="2"/>
<feColorMatrix type="matrix" values="0 0 0 0 0 0 0 0 0 0 0 0 0 0 0 0 0 0 0.1 0"/>
<feBlend mode="normal" in2="BackgroundImageFix" result="effect1_dropShadow"/>
<feBlend mode="normal" in="SourceGraphic" in2="effect1_dropShadow" result="shape"/>
</filter>
</defs>
</svg>
