<svg width="367" height="240" viewBox="0 0 367 240" fill="none" xmlns="http://www.w3.org/2000/svg">
<g filter="url(#filter0_d)">
<path d="M0 15C0 6.71573 6.71573 0 15 0H344C352.284 0 359 6.71573 359 15V232H0V15Z" fill="white"/>
<rect x="71" y="139" width="118" height="23" fill="#CFE4F0"/>
<rect x="118" y="139" width="22" height="23" fill="#0F5198"/>
<path d="M0 15C0 6.71573 6.71573 0 15 0H344C352.284 0 359 6.71573 359 15V18H0V15Z" fill="#727272"/>
<path d="M25.973 38.0295C25.8937 38.1598 25.8115 38.2562 25.7265 38.3185C25.6472 38.3752 25.5423 38.4035 25.412 38.4035C25.2873 38.4035 25.1513 38.361 25.004 38.276C24.8623 38.1853 24.6952 38.089 24.5025 37.987C24.3098 37.885 24.0888 37.7915 23.8395 37.7065C23.5902 37.6158 23.2983 37.5705 22.964 37.5705C22.3747 37.5705 21.9327 37.7037 21.638 37.97C21.3433 38.2307 21.196 38.5735 21.196 38.9985C21.196 39.2705 21.2753 39.4972 21.434 39.6785C21.5983 39.8542 21.8108 40.0072 22.0715 40.1375C22.3378 40.2678 22.6382 40.384 22.9725 40.486C23.3068 40.588 23.6497 40.7013 24.001 40.826C24.3523 40.945 24.6952 41.0867 25.0295 41.251C25.3638 41.4153 25.6613 41.6222 25.922 41.8715C26.1883 42.1208 26.4008 42.4268 26.5595 42.7895C26.7238 43.1465 26.806 43.5828 26.806 44.0985C26.806 44.6595 26.7068 45.1865 26.5085 45.6795C26.3158 46.1668 26.0353 46.5947 25.667 46.963C25.2987 47.3257 24.8425 47.6118 24.2985 47.8215C23.7602 48.0312 23.1482 48.136 22.4625 48.136C22.0715 48.136 21.6805 48.0963 21.2895 48.017C20.9042 47.9377 20.5302 47.8272 20.1675 47.6855C19.8105 47.5438 19.4733 47.3738 19.156 47.1755C18.8387 46.9772 18.561 46.7562 18.323 46.5125L19.071 45.3055C19.1333 45.2148 19.2155 45.1412 19.3175 45.0845C19.4195 45.0222 19.5272 44.991 19.6405 44.991C19.7935 44.991 19.955 45.0477 20.125 45.161C20.295 45.2743 20.4905 45.399 20.7115 45.535C20.9325 45.671 21.1875 45.7957 21.4765 45.909C21.7712 46.0223 22.1225 46.079 22.5305 46.079C23.1255 46.079 23.5845 45.943 23.9075 45.671C24.2362 45.399 24.4005 44.9938 24.4005 44.4555C24.4005 44.1438 24.3183 43.8917 24.154 43.699C23.9953 43.5063 23.7857 43.3448 23.525 43.2145C23.2643 43.0842 22.9668 42.9737 22.6325 42.883C22.2982 42.7867 21.9553 42.6818 21.604 42.5685C21.2527 42.4552 20.9098 42.3192 20.5755 42.1605C20.2412 42.0018 19.9437 41.7922 19.683 41.5315C19.4223 41.2708 19.2098 40.9478 19.0455 40.5625C18.8868 40.1772 18.8075 39.6983 18.8075 39.126C18.8075 38.667 18.8982 38.2222 19.0795 37.7915C19.2608 37.3608 19.5272 36.9783 19.8785 36.644C20.2298 36.3097 20.6605 36.0405 21.1705 35.8365C21.6862 35.6325 22.2755 35.5305 22.9385 35.5305C23.6808 35.5305 24.3665 35.6467 24.9955 35.879C25.6302 36.1057 26.1657 36.423 26.602 36.831L25.973 38.0295ZM35.2094 41.1915C35.1414 41.2822 35.0734 41.353 35.0054 41.404C34.9374 41.4493 34.8411 41.472 34.7164 41.472C34.6031 41.472 34.4926 41.4408 34.3849 41.3785C34.2829 41.3105 34.1639 41.2397 34.0279 41.166C33.8919 41.0867 33.7304 41.0158 33.5434 40.9535C33.3564 40.8855 33.1241 40.8515 32.8464 40.8515C32.4951 40.8515 32.1891 40.9167 31.9284 41.047C31.6734 41.1717 31.4609 41.353 31.2909 41.591C31.1209 41.829 30.9934 42.118 30.9084 42.458C30.8291 42.798 30.7894 43.1805 30.7894 43.6055C30.7894 44.5008 30.9679 45.1865 31.3249 45.6625C31.6876 46.1385 32.1806 46.3765 32.8039 46.3765C33.0192 46.3765 33.2034 46.3595 33.3564 46.3255C33.5151 46.2858 33.6511 46.2377 33.7644 46.181C33.8834 46.1243 33.9854 46.062 34.0704 45.994C34.1554 45.926 34.2347 45.8637 34.3084 45.807C34.3877 45.7503 34.4642 45.705 34.5379 45.671C34.6172 45.6313 34.7051 45.6115 34.8014 45.6115C34.9827 45.6115 35.1244 45.6795 35.2264 45.8155L35.8979 46.6655C35.6486 46.9545 35.3822 47.1953 35.0989 47.388C34.8156 47.575 34.5209 47.7252 34.2149 47.8385C33.9146 47.9462 33.6086 48.0198 33.2969 48.0595C32.9852 48.1048 32.6764 48.1275 32.3704 48.1275C31.8321 48.1275 31.3221 48.0283 30.8404 47.83C30.3587 47.626 29.9366 47.3313 29.5739 46.946C29.2112 46.5607 28.9222 46.0875 28.7069 45.5265C28.4972 44.9655 28.3924 44.3252 28.3924 43.6055C28.3924 42.9652 28.4859 42.3702 28.6729 41.8205C28.8599 41.2708 29.1347 40.7948 29.4974 40.3925C29.8601 39.9902 30.3077 39.6757 30.8404 39.449C31.3787 39.2167 31.9992 39.1005 32.7019 39.1005C33.3706 39.1005 33.9571 39.2082 34.4614 39.4235C34.9657 39.6388 35.4191 39.9505 35.8214 40.3585L35.2094 41.1915ZM39.9675 40.095C40.1318 39.9477 40.3018 39.8145 40.4775 39.6955C40.6588 39.5708 40.8486 39.466 41.047 39.381C41.251 39.2903 41.4663 39.2223 41.693 39.177C41.9253 39.126 42.1746 39.1005 42.441 39.1005C42.917 39.1005 43.3392 39.1827 43.7075 39.347C44.0758 39.5113 44.3847 39.7408 44.634 40.0355C44.889 40.3302 45.0788 40.6815 45.2035 41.0895C45.3338 41.4975 45.399 41.9452 45.399 42.4325V48H43.0615V42.4325C43.0615 41.9452 42.9481 41.5683 42.7215 41.302C42.4948 41.03 42.1605 40.894 41.7185 40.894C41.3898 40.894 41.081 40.9648 40.792 41.1065C40.503 41.2482 40.2281 41.4465 39.9675 41.7015V48H37.6215V35.3265H39.9675V40.095ZM53.3617 42.5855C53.3617 42.3418 53.3277 42.1095 53.2597 41.8885C53.1974 41.6675 53.0954 41.472 52.9537 41.302C52.812 41.132 52.6335 40.9988 52.4182 40.9025C52.2029 40.8005 51.945 40.7495 51.6447 40.7495C51.0837 40.7495 50.6445 40.9082 50.3272 41.2255C50.0099 41.5428 49.803 41.9962 49.7067 42.5855H53.3617ZM49.6727 43.9795C49.7464 44.8012 49.9787 45.4018 50.3697 45.7815C50.7664 46.1612 51.282 46.351 51.9167 46.351C52.2397 46.351 52.5174 46.3142 52.7497 46.2405C52.9877 46.1612 53.1945 46.0762 53.3702 45.9855C53.5515 45.8892 53.713 45.8042 53.8547 45.7305C54.002 45.6512 54.1465 45.6115 54.2882 45.6115C54.4695 45.6115 54.6112 45.6795 54.7132 45.8155L55.3932 46.6655C55.1439 46.9545 54.869 47.1953 54.5687 47.388C54.2684 47.575 53.9567 47.7252 53.6337 47.8385C53.3107 47.9462 52.9849 48.0198 52.6562 48.0595C52.3275 48.1048 52.0102 48.1275 51.7042 48.1275C51.0922 48.1275 50.5199 48.0283 49.9872 47.83C49.4602 47.626 48.9984 47.3285 48.6017 46.9375C48.2107 46.5408 47.9019 46.0507 47.6752 45.467C47.4485 44.8833 47.3352 44.2062 47.3352 43.4355C47.3352 42.8405 47.4315 42.2795 47.6242 41.7525C47.8225 41.2255 48.1059 40.7665 48.4742 40.3755C48.8425 39.9845 49.2902 39.6757 49.8172 39.449C50.3442 39.2167 50.9392 39.1005 51.6022 39.1005C52.1632 39.1005 52.6789 39.1912 53.1492 39.3725C53.6252 39.5482 54.0332 39.806 54.3732 40.146C54.7189 40.486 54.9852 40.9053 55.1722 41.404C55.3649 41.897 55.4612 42.4608 55.4612 43.0955C55.4612 43.2712 55.4527 43.4157 55.4357 43.529C55.4187 43.6423 55.3904 43.733 55.3507 43.801C55.311 43.869 55.2572 43.9172 55.1892 43.9455C55.1212 43.9682 55.0334 43.9795 54.9257 43.9795H49.6727ZM62.8672 41.5145C62.6462 41.2595 62.4053 41.081 62.1447 40.979C61.8897 40.877 61.6177 40.826 61.3287 40.826C61.0453 40.826 60.7875 40.8798 60.5552 40.9875C60.3228 41.0952 60.1217 41.2652 59.9517 41.4975C59.7873 41.7242 59.6598 42.016 59.5692 42.373C59.4785 42.73 59.4332 43.155 59.4332 43.648C59.4332 44.1353 59.47 44.549 59.5437 44.889C59.6173 45.229 59.7222 45.5038 59.8582 45.7135C59.9998 45.9232 60.1698 46.0762 60.3682 46.1725C60.5665 46.2632 60.7875 46.3085 61.0312 46.3085C61.4448 46.3085 61.7905 46.2263 62.0682 46.062C62.3515 45.8977 62.6178 45.6653 62.8672 45.365V41.5145ZM65.2132 35.3265V48H63.7682C63.4678 48 63.2752 47.864 63.1902 47.592L62.9947 46.827C62.819 47.0197 62.632 47.1953 62.4337 47.354C62.241 47.5127 62.0313 47.6515 61.8047 47.7705C61.578 47.8838 61.3343 47.9717 61.0737 48.034C60.813 48.0963 60.5297 48.1275 60.2237 48.1275C59.7533 48.1275 59.3227 48.0283 58.9317 47.83C58.5407 47.6317 58.2007 47.3427 57.9117 46.963C57.6283 46.5777 57.4073 46.1073 57.2487 45.552C57.09 44.9967 57.0107 44.362 57.0107 43.648C57.0107 42.9963 57.0985 42.39 57.2742 41.829C57.4555 41.268 57.7105 40.7835 58.0392 40.3755C58.3678 39.9675 58.7645 39.6473 59.2292 39.415C59.6938 39.1827 60.2095 39.0665 60.7762 39.0665C61.2522 39.0665 61.6517 39.1373 61.9747 39.279C62.3033 39.4207 62.6008 39.6133 62.8672 39.857V35.3265H65.2132ZM75.3928 39.2365V48H73.9478C73.6475 48 73.4548 47.864 73.3698 47.592L73.2168 46.98C73.0411 47.15 72.8598 47.3058 72.6728 47.4475C72.4858 47.5892 72.2846 47.711 72.0693 47.813C71.8596 47.915 71.6301 47.9943 71.3808 48.051C71.1371 48.1077 70.8708 48.136 70.5818 48.136C70.1058 48.136 69.6808 48.0538 69.3068 47.8895C68.9385 47.7252 68.6296 47.4957 68.3803 47.201C68.131 46.9063 67.9411 46.555 67.8108 46.147C67.6805 45.739 67.6153 45.2913 67.6153 44.804V39.2365H69.9613V44.804C69.9613 45.2913 70.0718 45.671 70.2928 45.943C70.5195 46.2093 70.8538 46.3425 71.2958 46.3425C71.6245 46.3425 71.9333 46.2717 72.2223 46.13C72.5113 45.9827 72.7861 45.7843 73.0468 45.535V39.2365H75.3928ZM80.2279 35.3265V48H77.8819V35.3265H80.2279ZM88.276 42.5855C88.276 42.3418 88.242 42.1095 88.174 41.8885C88.1117 41.6675 88.0097 41.472 87.868 41.302C87.7264 41.132 87.5479 40.9988 87.3325 40.9025C87.1172 40.8005 86.8594 40.7495 86.559 40.7495C85.998 40.7495 85.5589 40.9082 85.2415 41.2255C84.9242 41.5428 84.7174 41.9962 84.621 42.5855H88.276ZM84.587 43.9795C84.6607 44.8012 84.893 45.4018 85.284 45.7815C85.6807 46.1612 86.1964 46.351 86.831 46.351C87.154 46.351 87.4317 46.3142 87.664 46.2405C87.902 46.1612 88.1089 46.0762 88.2845 45.9855C88.4659 45.8892 88.6274 45.8042 88.769 45.7305C88.9164 45.6512 89.0609 45.6115 89.2025 45.6115C89.3839 45.6115 89.5255 45.6795 89.6275 45.8155L90.3075 46.6655C90.0582 46.9545 89.7834 47.1953 89.483 47.388C89.1827 47.575 88.871 47.7252 88.548 47.8385C88.225 47.9462 87.8992 48.0198 87.5705 48.0595C87.2419 48.1048 86.9245 48.1275 86.6185 48.1275C86.0065 48.1275 85.4342 48.0283 84.9015 47.83C84.3745 47.626 83.9127 47.3285 83.516 46.9375C83.125 46.5408 82.8162 46.0507 82.5895 45.467C82.3629 44.8833 82.2495 44.2062 82.2495 43.4355C82.2495 42.8405 82.3459 42.2795 82.5385 41.7525C82.7369 41.2255 83.0202 40.7665 83.3885 40.3755C83.7569 39.9845 84.2045 39.6757 84.7315 39.449C85.2585 39.2167 85.8535 39.1005 86.5165 39.1005C87.0775 39.1005 87.5932 39.1912 88.0635 39.3725C88.5395 39.5482 88.9475 39.806 89.2875 40.146C89.6332 40.486 89.8995 40.9053 90.0865 41.404C90.2792 41.897 90.3755 42.4608 90.3755 43.0955C90.3755 43.2712 90.367 43.4157 90.35 43.529C90.333 43.6423 90.3047 43.733 90.265 43.801C90.2254 43.869 90.1715 43.9172 90.1035 43.9455C90.0355 43.9682 89.9477 43.9795 89.84 43.9795H84.587ZM102.385 41.0385C102.323 41.1348 102.258 41.2057 102.19 41.251C102.128 41.2907 102.04 41.3105 101.926 41.3105C101.813 41.3105 101.697 41.2822 101.578 41.2255C101.459 41.1688 101.326 41.1093 101.178 41.047C101.031 40.979 100.861 40.9167 100.668 40.86C100.481 40.8033 100.263 40.775 100.014 40.775C99.6342 40.775 99.3396 40.8543 99.1299 41.013C98.9202 41.166 98.8154 41.37 98.8154 41.625C98.8154 41.8007 98.8749 41.948 98.9939 42.067C99.1129 42.186 99.2687 42.2908 99.4614 42.3815C99.6597 42.4665 99.8836 42.5487 100.133 42.628C100.382 42.7017 100.637 42.7838 100.898 42.8745C101.164 42.9652 101.422 43.07 101.671 43.189C101.921 43.308 102.142 43.4582 102.334 43.6395C102.533 43.8152 102.691 44.0305 102.81 44.2855C102.929 44.5348 102.989 44.838 102.989 45.195C102.989 45.62 102.91 46.0138 102.751 46.3765C102.598 46.7335 102.371 47.0423 102.071 47.303C101.771 47.5637 101.397 47.7677 100.949 47.915C100.501 48.0623 99.9856 48.136 99.4019 48.136C99.1016 48.136 98.8041 48.1077 98.5094 48.051C98.2147 48 97.9342 47.9263 97.6679 47.83C97.4016 47.728 97.1522 47.6118 96.9199 47.4815C96.6876 47.3512 96.4864 47.2095 96.3164 47.0565L96.8604 46.181C96.9227 46.079 96.9992 45.9997 97.0899 45.943C97.1862 45.8863 97.3081 45.858 97.4554 45.858C97.5971 45.858 97.7274 45.8948 97.8464 45.9685C97.9654 46.0365 98.0986 46.113 98.2459 46.198C98.3932 46.2773 98.5661 46.3538 98.7644 46.4275C98.9684 46.4955 99.2206 46.5295 99.5209 46.5295C99.7476 46.5295 99.9431 46.504 100.107 46.453C100.272 46.402 100.405 46.334 100.507 46.249C100.609 46.1583 100.683 46.0592 100.728 45.9515C100.779 45.8382 100.804 45.722 100.804 45.603C100.804 45.4103 100.742 45.2545 100.617 45.1355C100.498 45.0108 100.34 44.9032 100.141 44.8125C99.9487 44.7218 99.7249 44.6397 99.4699 44.566C99.2149 44.4923 98.9542 44.4102 98.6879 44.3195C98.4272 44.2288 98.1694 44.1212 97.9144 43.9965C97.6651 43.8718 97.4412 43.716 97.2429 43.529C97.0502 43.3363 96.8916 43.1012 96.7669 42.8235C96.6479 42.5458 96.5884 42.2087 96.5884 41.812C96.5884 41.4493 96.6592 41.1065 96.8009 40.7835C96.9426 40.4548 97.1551 40.1658 97.4384 39.9165C97.7217 39.6672 98.0731 39.4688 98.4924 39.3215C98.9174 39.1742 99.4076 39.1005 99.9629 39.1005C100.586 39.1005 101.153 39.2025 101.663 39.4065C102.173 39.6105 102.592 39.8768 102.921 40.2055L102.385 41.0385ZM110.552 42.5855C110.552 42.3418 110.518 42.1095 110.45 41.8885C110.388 41.6675 110.286 41.472 110.144 41.302C110.002 41.132 109.824 40.9988 109.609 40.9025C109.393 40.8005 109.135 40.7495 108.835 40.7495C108.274 40.7495 107.835 40.9082 107.518 41.2255C107.2 41.5428 106.993 41.9962 106.897 42.5855H110.552ZM106.863 43.9795C106.937 44.8012 107.169 45.4018 107.56 45.7815C107.957 46.1612 108.472 46.351 109.107 46.351C109.43 46.351 109.708 46.3142 109.94 46.2405C110.178 46.1612 110.385 46.0762 110.561 45.9855C110.742 45.8892 110.903 45.8042 111.045 45.7305C111.192 45.6512 111.337 45.6115 111.479 45.6115C111.66 45.6115 111.802 45.6795 111.904 45.8155L112.584 46.6655C112.334 46.9545 112.059 47.1953 111.759 47.388C111.459 47.575 111.147 47.7252 110.824 47.8385C110.501 47.9462 110.175 48.0198 109.847 48.0595C109.518 48.1048 109.201 48.1275 108.895 48.1275C108.283 48.1275 107.71 48.0283 107.178 47.83C106.651 47.626 106.189 47.3285 105.792 46.9375C105.401 46.5408 105.092 46.0507 104.866 45.467C104.639 44.8833 104.526 44.2062 104.526 43.4355C104.526 42.8405 104.622 42.2795 104.815 41.7525C105.013 41.2255 105.296 40.7665 105.665 40.3755C106.033 39.9845 106.481 39.6757 107.008 39.449C107.535 39.2167 108.13 39.1005 108.793 39.1005C109.354 39.1005 109.869 39.1912 110.34 39.3725C110.816 39.5482 111.224 39.806 111.564 40.146C111.909 40.486 112.176 40.9053 112.363 41.404C112.555 41.897 112.652 42.4608 112.652 43.0955C112.652 43.2712 112.643 43.4157 112.626 43.529C112.609 43.6423 112.581 43.733 112.541 43.801C112.501 43.869 112.448 43.9172 112.38 43.9455C112.312 43.9682 112.224 43.9795 112.116 43.9795H106.863ZM116.819 40.2565C116.995 40.0865 117.176 39.9307 117.363 39.789C117.556 39.6473 117.757 39.5255 117.967 39.4235C118.182 39.3215 118.411 39.2422 118.655 39.1855C118.904 39.1288 119.174 39.1005 119.463 39.1005C119.939 39.1005 120.361 39.1827 120.729 39.347C121.097 39.5113 121.406 39.7408 121.656 40.0355C121.911 40.3302 122.1 40.6815 122.225 41.0895C122.355 41.4975 122.421 41.9452 122.421 42.4325V48H120.083V42.4325C120.083 41.9452 119.97 41.5683 119.743 41.302C119.516 41.03 119.182 40.894 118.74 40.894C118.411 40.894 118.103 40.9648 117.814 41.1065C117.525 41.2482 117.25 41.4465 116.989 41.7015V48H114.643V39.2365H116.088C116.383 39.2365 116.578 39.3725 116.675 39.6445L116.819 40.2565ZM130.239 41.5145C130.018 41.2595 129.777 41.081 129.516 40.979C129.261 40.877 128.989 40.826 128.7 40.826C128.417 40.826 128.159 40.8798 127.927 40.9875C127.694 41.0952 127.493 41.2652 127.323 41.4975C127.159 41.7242 127.031 42.016 126.941 42.373C126.85 42.73 126.805 43.155 126.805 43.648C126.805 44.1353 126.842 44.549 126.915 44.889C126.989 45.229 127.094 45.5038 127.23 45.7135C127.371 45.9232 127.541 46.0762 127.74 46.1725C127.938 46.2632 128.159 46.3085 128.403 46.3085C128.816 46.3085 129.162 46.2263 129.44 46.062C129.723 45.8977 129.989 45.6653 130.239 45.365V41.5145ZM132.585 35.3265V48H131.14C130.839 48 130.647 47.864 130.562 47.592L130.366 46.827C130.191 47.0197 130.004 47.1953 129.805 47.354C129.613 47.5127 129.403 47.6515 129.176 47.7705C128.95 47.8838 128.706 47.9717 128.445 48.034C128.185 48.0963 127.901 48.1275 127.595 48.1275C127.125 48.1275 126.694 48.0283 126.303 47.83C125.912 47.6317 125.572 47.3427 125.283 46.963C125 46.5777 124.779 46.1073 124.62 45.552C124.462 44.9967 124.382 44.362 124.382 43.648C124.382 42.9963 124.47 42.39 124.646 41.829C124.827 41.268 125.082 40.7835 125.411 40.3755C125.739 39.9675 126.136 39.6473 126.601 39.415C127.065 39.1827 127.581 39.0665 128.148 39.0665C128.624 39.0665 129.023 39.1373 129.346 39.279C129.675 39.4207 129.972 39.6133 130.239 39.857V35.3265H132.585ZM137.486 39.2365V48H135.14V39.2365H137.486ZM137.766 36.746C137.766 36.9443 137.727 37.1285 137.647 37.2985C137.568 37.4685 137.46 37.6187 137.324 37.749C137.194 37.8793 137.038 37.9813 136.857 38.055C136.681 38.1287 136.491 38.1655 136.287 38.1655C136.095 38.1655 135.911 38.1287 135.735 38.055C135.565 37.9813 135.415 37.8793 135.284 37.749C135.154 37.6187 135.049 37.4685 134.97 37.2985C134.896 37.1285 134.859 36.9443 134.859 36.746C134.859 36.5477 134.896 36.3635 134.97 36.1935C135.049 36.0178 135.154 35.8648 135.284 35.7345C135.415 35.6042 135.565 35.5022 135.735 35.4285C135.911 35.3548 136.095 35.318 136.287 35.318C136.491 35.318 136.681 35.3548 136.857 35.4285C137.038 35.5022 137.194 35.6042 137.324 35.7345C137.46 35.8648 137.568 36.0178 137.647 36.1935C137.727 36.3635 137.766 36.5477 137.766 36.746ZM142.2 40.2565C142.375 40.0865 142.557 39.9307 142.744 39.789C142.936 39.6473 143.138 39.5255 143.347 39.4235C143.563 39.3215 143.792 39.2422 144.036 39.1855C144.285 39.1288 144.554 39.1005 144.843 39.1005C145.319 39.1005 145.741 39.1827 146.11 39.347C146.478 39.5113 146.787 39.7408 147.036 40.0355C147.291 40.3302 147.481 40.6815 147.606 41.0895C147.736 41.4975 147.801 41.9452 147.801 42.4325V48H145.464V42.4325C145.464 41.9452 145.35 41.5683 145.124 41.302C144.897 41.03 144.563 40.894 144.121 40.894C143.792 40.894 143.483 40.9648 143.194 41.1065C142.905 41.2482 142.63 41.4465 142.37 41.7015V48H140.024V39.2365H141.469C141.763 39.2365 141.959 39.3725 142.055 39.6445L142.2 40.2565ZM153.469 43.291C153.951 43.291 154.305 43.1692 154.531 42.9255C154.764 42.6818 154.88 42.3673 154.88 41.982C154.88 41.5797 154.764 41.2652 154.531 41.0385C154.305 40.8062 153.951 40.69 153.469 40.69C152.987 40.69 152.633 40.8062 152.406 41.0385C152.18 41.2652 152.066 41.5797 152.066 41.982C152.066 42.3617 152.18 42.6762 152.406 42.9255C152.639 43.1692 152.993 43.291 153.469 43.291ZM155.687 48.357C155.687 48.204 155.639 48.0793 155.543 47.983C155.447 47.8867 155.316 47.8102 155.152 47.7535C154.993 47.6968 154.803 47.6572 154.582 47.6345C154.361 47.6062 154.126 47.5863 153.877 47.575C153.628 47.558 153.37 47.5438 153.103 47.5325C152.837 47.5212 152.576 47.5013 152.321 47.473C152.123 47.592 151.959 47.7337 151.828 47.898C151.704 48.0567 151.641 48.238 151.641 48.442C151.641 48.5837 151.673 48.714 151.735 48.833C151.803 48.952 151.913 49.054 152.066 49.139C152.219 49.224 152.421 49.2892 152.67 49.3345C152.919 49.3855 153.231 49.411 153.605 49.411C153.99 49.411 154.316 49.3855 154.582 49.3345C154.849 49.2835 155.064 49.2098 155.228 49.1135C155.393 49.0228 155.509 48.9123 155.577 48.782C155.651 48.6517 155.687 48.51 155.687 48.357ZM158.016 39.5255V40.384C158.016 40.52 157.977 40.6277 157.897 40.707C157.824 40.7863 157.699 40.8458 157.523 40.8855L156.809 41.03C156.906 41.3077 156.954 41.6052 156.954 41.9225C156.954 42.3588 156.863 42.7527 156.682 43.104C156.506 43.4497 156.263 43.7472 155.951 43.9965C155.639 44.2402 155.271 44.43 154.846 44.566C154.421 44.6963 153.962 44.7615 153.469 44.7615C153.157 44.7615 152.865 44.736 152.593 44.685C152.355 44.8323 152.236 44.9938 152.236 45.1695C152.236 45.3338 152.316 45.4528 152.474 45.5265C152.639 45.6002 152.851 45.654 153.112 45.688C153.378 45.7163 153.679 45.7362 154.013 45.7475C154.353 45.7532 154.696 45.7702 155.041 45.7985C155.393 45.8268 155.736 45.8778 156.07 45.9515C156.41 46.0195 156.71 46.1357 156.971 46.3C157.237 46.4587 157.45 46.6712 157.608 46.9375C157.773 47.2038 157.855 47.5467 157.855 47.966C157.855 48.357 157.759 48.7367 157.566 49.105C157.373 49.4733 157.093 49.802 156.724 50.091C156.362 50.38 155.914 50.6123 155.381 50.788C154.849 50.9637 154.242 51.0515 153.562 51.0515C152.888 51.0515 152.302 50.9863 151.803 50.856C151.31 50.7313 150.899 50.5613 150.57 50.346C150.247 50.1363 150.007 49.8927 149.848 49.615C149.689 49.3373 149.61 49.0483 149.61 48.748C149.61 48.357 149.729 48.0255 149.967 47.7535C150.205 47.4815 150.534 47.2633 150.953 47.099C150.732 46.9743 150.553 46.8128 150.417 46.6145C150.287 46.4105 150.222 46.147 150.222 45.824C150.222 45.5633 150.315 45.2885 150.502 44.9995C150.695 44.7105 150.99 44.4697 151.386 44.277C150.939 44.039 150.585 43.7217 150.324 43.325C150.063 42.9227 149.933 42.4552 149.933 41.9225C149.933 41.4862 150.021 41.0923 150.196 40.741C150.378 40.3897 150.627 40.0922 150.944 39.8485C151.262 39.5992 151.636 39.4093 152.066 39.279C152.497 39.1487 152.965 39.0835 153.469 39.0835C154.217 39.0835 154.877 39.2308 155.449 39.5255H158.016Z" fill="black"/>
<path d="M201.66 156.878V167H200.694C200.545 167 200.419 166.977 200.316 166.93C200.218 166.879 200.122 166.795 200.029 166.678L194.744 159.93C194.772 160.238 194.786 160.523 194.786 160.784V167H193.127V156.878H194.114C194.193 156.878 194.261 156.883 194.317 156.892C194.378 156.897 194.429 156.911 194.471 156.934C194.518 156.953 194.562 156.983 194.604 157.025C194.646 157.062 194.693 157.114 194.744 157.179L200.05 163.955C200.036 163.792 200.024 163.631 200.015 163.472C200.006 163.313 200.001 163.166 200.001 163.031V156.878H201.66ZM206.6 159.706C207.132 159.706 207.615 159.792 208.049 159.965C208.488 160.138 208.861 160.383 209.169 160.7C209.482 161.017 209.722 161.405 209.89 161.862C210.058 162.319 210.142 162.83 210.142 163.395C210.142 163.964 210.058 164.478 209.89 164.935C209.722 165.392 209.482 165.782 209.169 166.104C208.861 166.426 208.488 166.673 208.049 166.846C207.615 167.019 207.132 167.105 206.6 167.105C206.064 167.105 205.576 167.019 205.137 166.846C204.699 166.673 204.323 166.426 204.01 166.104C203.702 165.782 203.462 165.392 203.289 164.935C203.121 164.478 203.037 163.964 203.037 163.395C203.037 162.83 203.121 162.319 203.289 161.862C203.462 161.405 203.702 161.017 204.01 160.7C204.323 160.383 204.699 160.138 205.137 159.965C205.576 159.792 206.064 159.706 206.6 159.706ZM206.6 165.775C207.198 165.775 207.639 165.574 207.923 165.173C208.213 164.772 208.357 164.184 208.357 163.409C208.357 162.634 208.213 162.044 207.923 161.638C207.639 161.232 207.198 161.029 206.6 161.029C205.994 161.029 205.543 161.234 205.249 161.645C204.96 162.051 204.815 162.639 204.815 163.409C204.815 164.179 204.96 164.767 205.249 165.173C205.543 165.574 205.994 165.775 206.6 165.775ZM215.37 167V161.12L214.747 161.022C214.611 160.994 214.502 160.947 214.418 160.882C214.338 160.812 214.299 160.714 214.299 160.588V159.881H215.37V159.349C215.37 158.938 215.43 158.57 215.552 158.243C215.678 157.916 215.855 157.639 216.084 157.41C216.317 157.181 216.599 157.006 216.931 156.885C217.262 156.764 217.635 156.703 218.051 156.703C218.382 156.703 218.69 156.747 218.975 156.836L218.94 157.704C218.935 157.769 218.916 157.823 218.884 157.865C218.851 157.902 218.807 157.933 218.751 157.956C218.699 157.975 218.639 157.989 218.569 157.998C218.499 158.003 218.424 158.005 218.345 158.005C218.139 158.005 217.955 158.028 217.792 158.075C217.633 158.117 217.498 158.194 217.386 158.306C217.274 158.413 217.187 158.558 217.127 158.74C217.071 158.917 217.043 159.139 217.043 159.405V159.881H218.912V161.113H217.099V167H215.37ZM223.65 163.934C223.151 163.957 222.731 164.002 222.39 164.067C222.049 164.128 221.776 164.207 221.571 164.305C221.366 164.403 221.219 164.517 221.13 164.648C221.041 164.779 220.997 164.921 220.997 165.075C220.997 165.378 221.086 165.595 221.263 165.726C221.445 165.857 221.681 165.922 221.97 165.922C222.325 165.922 222.63 165.859 222.887 165.733C223.148 165.602 223.403 165.406 223.65 165.145V163.934ZM219.688 160.819C220.514 160.063 221.508 159.685 222.67 159.685C223.09 159.685 223.466 159.755 223.797 159.895C224.128 160.03 224.408 160.222 224.637 160.469C224.866 160.712 225.038 161.003 225.155 161.344C225.276 161.685 225.337 162.058 225.337 162.464V167H224.553C224.39 167 224.264 166.977 224.175 166.93C224.086 166.879 224.016 166.778 223.965 166.629L223.811 166.111C223.629 166.274 223.452 166.419 223.279 166.545C223.106 166.666 222.927 166.769 222.74 166.853C222.553 166.937 222.353 167 222.138 167.042C221.928 167.089 221.695 167.112 221.438 167.112C221.135 167.112 220.855 167.072 220.598 166.993C220.341 166.909 220.12 166.785 219.933 166.622C219.746 166.459 219.602 166.256 219.499 166.013C219.396 165.77 219.345 165.488 219.345 165.166C219.345 164.984 219.375 164.804 219.436 164.627C219.497 164.445 219.595 164.272 219.73 164.109C219.87 163.946 220.05 163.792 220.269 163.647C220.488 163.502 220.757 163.376 221.074 163.269C221.396 163.162 221.769 163.075 222.194 163.01C222.619 162.94 223.104 162.898 223.65 162.884V162.464C223.65 161.983 223.547 161.629 223.342 161.4C223.137 161.167 222.84 161.05 222.453 161.05C222.173 161.05 221.94 161.083 221.753 161.148C221.571 161.213 221.41 161.288 221.27 161.372C221.13 161.451 221.002 161.524 220.885 161.589C220.773 161.654 220.647 161.687 220.507 161.687C220.386 161.687 220.283 161.657 220.199 161.596C220.115 161.531 220.047 161.456 219.996 161.372L219.688 160.819ZM228.757 159.818V167H227.021V159.818H228.757ZM228.995 157.725C228.995 157.874 228.965 158.014 228.904 158.145C228.844 158.276 228.762 158.39 228.659 158.488C228.561 158.586 228.445 158.665 228.309 158.726C228.174 158.782 228.029 158.81 227.875 158.81C227.726 158.81 227.584 158.782 227.448 158.726C227.318 158.665 227.203 158.586 227.105 158.488C227.007 158.39 226.928 158.276 226.867 158.145C226.811 158.014 226.783 157.874 226.783 157.725C226.783 157.571 226.811 157.426 226.867 157.291C226.928 157.156 227.007 157.039 227.105 156.941C227.203 156.843 227.318 156.766 227.448 156.71C227.584 156.649 227.726 156.619 227.875 156.619C228.029 156.619 228.174 156.649 228.309 156.71C228.445 156.766 228.561 156.843 228.659 156.941C228.762 157.039 228.844 157.156 228.904 157.291C228.965 157.426 228.995 157.571 228.995 157.725ZM232.27 156.598V167H230.541V156.598H232.27ZM240.181 159.818V167H239.124C238.895 167 238.75 166.895 238.69 166.685L238.571 166.111C238.277 166.41 237.952 166.652 237.598 166.839C237.243 167.021 236.825 167.112 236.345 167.112C235.953 167.112 235.605 167.047 235.302 166.916C235.003 166.781 234.751 166.592 234.546 166.349C234.34 166.106 234.184 165.819 234.077 165.488C233.974 165.152 233.923 164.783 233.923 164.382V159.818H235.652V164.382C235.652 164.821 235.752 165.161 235.953 165.404C236.158 165.642 236.464 165.761 236.87 165.761C237.168 165.761 237.448 165.696 237.71 165.565C237.971 165.43 238.218 165.245 238.452 165.012V159.818H240.181ZM243.526 161.064C243.75 160.635 244.016 160.299 244.324 160.056C244.632 159.809 244.996 159.685 245.416 159.685C245.747 159.685 246.013 159.757 246.214 159.902L246.102 161.197C246.079 161.281 246.044 161.342 245.997 161.379C245.955 161.412 245.897 161.428 245.822 161.428C245.752 161.428 245.647 161.416 245.507 161.393C245.372 161.37 245.239 161.358 245.108 161.358C244.917 161.358 244.746 161.386 244.597 161.442C244.448 161.498 244.312 161.58 244.191 161.687C244.074 161.79 243.969 161.916 243.876 162.065C243.787 162.214 243.703 162.385 243.624 162.576V167H241.895V159.818H242.91C243.087 159.818 243.211 159.851 243.281 159.916C243.351 159.977 243.398 160.089 243.421 160.252L243.526 161.064ZM251.54 162.583C251.54 162.359 251.507 162.149 251.442 161.953C251.381 161.752 251.288 161.577 251.162 161.428C251.036 161.279 250.875 161.162 250.679 161.078C250.487 160.989 250.263 160.945 250.007 160.945C249.507 160.945 249.113 161.087 248.824 161.372C248.539 161.657 248.357 162.06 248.278 162.583H251.54ZM248.243 163.626C248.271 163.995 248.336 164.314 248.439 164.585C248.541 164.851 248.677 165.073 248.845 165.25C249.013 165.423 249.211 165.553 249.44 165.642C249.673 165.726 249.93 165.768 250.21 165.768C250.49 165.768 250.73 165.735 250.931 165.67C251.136 165.605 251.313 165.532 251.463 165.453C251.617 165.374 251.75 165.301 251.862 165.236C251.978 165.171 252.09 165.138 252.198 165.138C252.342 165.138 252.45 165.192 252.52 165.299L253.017 165.929C252.825 166.153 252.611 166.342 252.373 166.496C252.135 166.645 251.885 166.767 251.624 166.86C251.367 166.949 251.103 167.012 250.833 167.049C250.567 167.086 250.308 167.105 250.056 167.105C249.556 167.105 249.092 167.023 248.663 166.86C248.233 166.692 247.86 166.447 247.543 166.125C247.225 165.798 246.976 165.397 246.794 164.921C246.612 164.44 246.521 163.885 246.521 163.255C246.521 162.765 246.6 162.305 246.759 161.876C246.917 161.442 247.144 161.066 247.438 160.749C247.736 160.427 248.098 160.173 248.523 159.986C248.952 159.799 249.435 159.706 249.972 159.706C250.424 159.706 250.842 159.778 251.225 159.923C251.607 160.068 251.936 160.28 252.212 160.56C252.487 160.835 252.702 161.176 252.856 161.582C253.014 161.983 253.094 162.443 253.094 162.961C253.094 163.222 253.066 163.4 253.01 163.493C252.954 163.582 252.846 163.626 252.688 163.626H248.243ZM258.773 161.218C258.726 161.293 258.677 161.346 258.626 161.379C258.575 161.407 258.509 161.421 258.43 161.421C258.346 161.421 258.255 161.398 258.157 161.351C258.064 161.304 257.954 161.253 257.828 161.197C257.702 161.136 257.557 161.083 257.394 161.036C257.235 160.989 257.046 160.966 256.827 160.966C256.486 160.966 256.218 161.038 256.022 161.183C255.831 161.328 255.735 161.517 255.735 161.75C255.735 161.904 255.784 162.035 255.882 162.142C255.985 162.245 256.118 162.336 256.281 162.415C256.449 162.494 256.638 162.567 256.848 162.632C257.058 162.693 257.27 162.76 257.485 162.835C257.704 162.91 257.919 162.996 258.129 163.094C258.339 163.187 258.526 163.309 258.689 163.458C258.857 163.603 258.99 163.778 259.088 163.983C259.191 164.188 259.242 164.436 259.242 164.725C259.242 165.07 259.179 165.39 259.053 165.684C258.932 165.973 258.75 166.225 258.507 166.44C258.264 166.65 257.963 166.816 257.604 166.937C257.249 167.054 256.839 167.112 256.372 167.112C256.125 167.112 255.882 167.089 255.644 167.042C255.411 167 255.184 166.939 254.965 166.86C254.75 166.781 254.55 166.687 254.363 166.58C254.181 166.473 254.02 166.356 253.88 166.23L254.279 165.572C254.33 165.493 254.391 165.432 254.461 165.39C254.531 165.348 254.62 165.327 254.727 165.327C254.834 165.327 254.935 165.357 255.028 165.418C255.126 165.479 255.238 165.544 255.364 165.614C255.49 165.684 255.637 165.749 255.805 165.81C255.978 165.871 256.195 165.901 256.456 165.901C256.661 165.901 256.836 165.878 256.981 165.831C257.13 165.78 257.252 165.714 257.345 165.635C257.443 165.556 257.513 165.465 257.555 165.362C257.602 165.255 257.625 165.145 257.625 165.033C257.625 164.865 257.574 164.727 257.471 164.62C257.373 164.513 257.24 164.419 257.072 164.34C256.909 164.261 256.72 164.191 256.505 164.13C256.295 164.065 256.078 163.995 255.854 163.92C255.635 163.845 255.418 163.759 255.203 163.661C254.993 163.558 254.804 163.43 254.636 163.276C254.473 163.122 254.34 162.933 254.237 162.709C254.139 162.485 254.09 162.214 254.09 161.897C254.09 161.603 254.148 161.323 254.265 161.057C254.382 160.791 254.552 160.56 254.776 160.364C255.005 160.163 255.287 160.005 255.623 159.888C255.964 159.767 256.356 159.706 256.799 159.706C257.294 159.706 257.744 159.788 258.15 159.951C258.556 160.114 258.894 160.329 259.165 160.595L258.773 161.218Z" fill="white"/>
<path d="M192 170.57H259.69V171.263H192V170.57Z" fill="white"/>
<rect x="18.5" y="64.5" width="178" height="148" stroke="#BBBDBF"/>
<path d="M84.163 87.1C83.9696 87.1 83.7996 87.0867 83.653 87.06C83.5063 87.04 83.3796 87.0167 83.273 86.99V85.73C83.3796 85.7567 83.493 85.78 83.613 85.8C83.7263 85.82 83.8496 85.83 83.983 85.83C84.1563 85.83 84.313 85.7967 84.453 85.73C84.5996 85.6633 84.713 85.5367 84.793 85.35C84.873 85.1633 84.913 84.8967 84.913 84.55V77.86H86.423V84.54C86.423 85.1533 86.3263 85.6467 86.133 86.02C85.9463 86.4 85.683 86.6733 85.343 86.84C85.003 87.0133 84.6096 87.1 84.163 87.1ZM90.8792 79.43C91.6126 79.43 92.1726 79.59 92.5592 79.91C92.9526 80.2233 93.1492 80.7067 93.1492 81.36V85H92.1092L91.8192 84.26H91.7792C91.5459 84.5533 91.2992 84.7667 91.0392 84.9C90.7792 85.0333 90.4226 85.1 89.9692 85.1C89.4826 85.1 89.0792 84.96 88.7592 84.68C88.4392 84.3933 88.2792 83.9567 88.2792 83.37C88.2792 82.79 88.4826 82.3633 88.8892 82.09C89.2959 81.81 89.9059 81.6567 90.7192 81.63L91.6692 81.6V81.36C91.6692 81.0733 91.5926 80.8633 91.4392 80.73C91.2926 80.5967 91.0859 80.53 90.8192 80.53C90.5526 80.53 90.2926 80.57 90.0392 80.65C89.7859 80.7233 89.5326 80.8167 89.2792 80.93L88.7892 79.92C89.0826 79.7667 89.4059 79.6467 89.7592 79.56C90.1192 79.4733 90.4926 79.43 90.8792 79.43ZM91.0892 82.49C90.6092 82.5033 90.2759 82.59 90.0892 82.75C89.9026 82.91 89.8092 83.12 89.8092 83.38C89.8092 83.6067 89.8759 83.77 90.0092 83.87C90.1426 83.9633 90.3159 84.01 90.5292 84.01C90.8492 84.01 91.1192 83.9167 91.3392 83.73C91.5592 83.5367 91.6692 83.2667 91.6692 82.92V82.47L91.0892 82.49ZM98.3101 79.44C98.8968 79.44 99.3668 79.6 99.7201 79.92C100.073 80.2333 100.25 80.74 100.25 81.44V85H98.7601V81.81C98.7601 81.4167 98.6901 81.1233 98.5501 80.93C98.4101 80.73 98.1868 80.63 97.8801 80.63C97.4268 80.63 97.1168 80.7867 96.9501 81.1C96.7834 81.4067 96.7001 81.85 96.7001 82.43V85H95.2101V79.54H96.3501L96.5501 80.24H96.6301C96.8034 79.96 97.0401 79.7567 97.3401 79.63C97.6468 79.5033 97.9701 79.44 98.3101 79.44ZM107.328 79.54V85H106.188L105.988 84.3H105.908C105.735 84.58 105.495 84.7833 105.188 84.91C104.888 85.0367 104.568 85.1 104.228 85.1C103.641 85.1 103.171 84.9433 102.818 84.63C102.465 84.31 102.288 83.8 102.288 83.1V79.54H103.778V82.73C103.778 83.1167 103.848 83.41 103.988 83.61C104.128 83.81 104.351 83.91 104.658 83.91C105.111 83.91 105.421 83.7567 105.588 83.45C105.755 83.1367 105.838 82.69 105.838 82.11V79.54H107.328ZM111.666 79.43C112.399 79.43 112.959 79.59 113.346 79.91C113.739 80.2233 113.936 80.7067 113.936 81.36V85H112.896L112.606 84.26H112.566C112.333 84.5533 112.086 84.7667 111.826 84.9C111.566 85.0333 111.209 85.1 110.756 85.1C110.269 85.1 109.866 84.96 109.546 84.68C109.226 84.3933 109.066 83.9567 109.066 83.37C109.066 82.79 109.269 82.3633 109.676 82.09C110.083 81.81 110.693 81.6567 111.506 81.63L112.456 81.6V81.36C112.456 81.0733 112.379 80.8633 112.226 80.73C112.079 80.5967 111.873 80.53 111.606 80.53C111.339 80.53 111.079 80.57 110.826 80.65C110.573 80.7233 110.319 80.8167 110.066 80.93L109.576 79.92C109.869 79.7667 110.193 79.6467 110.546 79.56C110.906 79.4733 111.279 79.43 111.666 79.43ZM111.876 82.49C111.396 82.5033 111.063 82.59 110.876 82.75C110.689 82.91 110.596 83.12 110.596 83.38C110.596 83.6067 110.663 83.77 110.796 83.87C110.929 83.9633 111.103 84.01 111.316 84.01C111.636 84.01 111.906 83.9167 112.126 83.73C112.346 83.5367 112.456 83.2667 112.456 82.92V82.47L111.876 82.49ZM119.047 79.44C119.12 79.44 119.207 79.4433 119.307 79.45C119.407 79.4567 119.487 79.4667 119.547 79.48L119.437 80.88C119.39 80.8667 119.32 80.8567 119.227 80.85C119.14 80.8367 119.064 80.83 118.997 80.83C118.744 80.83 118.5 80.8767 118.267 80.97C118.034 81.0567 117.844 81.2 117.697 81.4C117.557 81.6 117.487 81.8733 117.487 82.22V85H115.997V79.54H117.127L117.347 80.46H117.417C117.577 80.18 117.797 79.94 118.077 79.74C118.357 79.54 118.68 79.44 119.047 79.44ZM120.294 79.54H121.924L122.954 82.61C123.007 82.7567 123.047 82.91 123.074 83.07C123.1 83.2233 123.12 83.3867 123.134 83.56H123.164C123.184 83.3867 123.21 83.2233 123.244 83.07C123.284 82.91 123.327 82.7567 123.374 82.61L124.384 79.54H125.984L123.674 85.7C123.467 86.2667 123.164 86.69 122.764 86.97C122.37 87.2567 121.914 87.4 121.394 87.4C121.227 87.4 121.08 87.39 120.954 87.37C120.834 87.3567 120.727 87.34 120.634 87.32V86.14C120.707 86.1533 120.794 86.1667 120.894 86.18C121 86.1933 121.11 86.2 121.224 86.2C121.537 86.2 121.784 86.1033 121.964 85.91C122.15 85.7233 122.287 85.4967 122.374 85.23L122.464 84.96L120.294 79.54Z" fill="black"/>
<path d="M35.4172 106.09C35.4172 106.723 35.1872 107.217 34.7272 107.57C34.2672 107.923 33.6472 108.1 32.8672 108.1C32.4672 108.1 32.0972 108.07 31.7572 108.01C31.4172 107.95 31.1338 107.867 30.9072 107.76V106.9C31.1472 107.007 31.4438 107.103 31.7972 107.19C32.1572 107.277 32.5272 107.32 32.9072 107.32C33.4405 107.32 33.8405 107.217 34.1072 107.01C34.3805 106.803 34.5172 106.523 34.5172 106.17C34.5172 105.937 34.4672 105.74 34.3672 105.58C34.2672 105.42 34.0938 105.273 33.8472 105.14C33.6072 105 33.2705 104.853 32.8372 104.7C32.2305 104.48 31.7705 104.21 31.4572 103.89C31.1505 103.57 30.9972 103.133 30.9972 102.58C30.9972 102.2 31.0938 101.877 31.2872 101.61C31.4805 101.337 31.7472 101.127 32.0872 100.98C32.4338 100.833 32.8305 100.76 33.2772 100.76C33.6705 100.76 34.0305 100.797 34.3572 100.87C34.6838 100.943 34.9805 101.04 35.2472 101.16L34.9672 101.93C34.7205 101.823 34.4505 101.733 34.1572 101.66C33.8705 101.587 33.5705 101.55 33.2572 101.55C32.8105 101.55 32.4738 101.647 32.2472 101.84C32.0205 102.027 31.9072 102.277 31.9072 102.59C31.9072 102.83 31.9572 103.03 32.0572 103.19C32.1572 103.35 32.3205 103.493 32.5472 103.62C32.7738 103.747 33.0805 103.883 33.4672 104.03C33.8872 104.183 34.2405 104.35 34.5272 104.53C34.8205 104.703 35.0405 104.913 35.1872 105.16C35.3405 105.407 35.4172 105.717 35.4172 106.09ZM41.7512 102.64V108H41.0312L40.9012 107.29H40.8612C40.6878 107.57 40.4478 107.777 40.1412 107.91C39.8345 108.037 39.5078 108.1 39.1612 108.1C38.5145 108.1 38.0278 107.947 37.7012 107.64C37.3745 107.327 37.2112 106.83 37.2112 106.15V102.64H38.1012V106.09C38.1012 106.943 38.4978 107.37 39.2912 107.37C39.8845 107.37 40.2945 107.203 40.5212 106.87C40.7545 106.537 40.8712 106.057 40.8712 105.43V102.64H41.7512Z" fill="black"/>
<path d="M58.2887 108L55.9387 101.74H55.8987C55.9187 101.947 55.9353 102.227 55.9487 102.58C55.962 102.927 55.9687 103.29 55.9687 103.67V108H55.1387V100.86H56.4687L58.6687 106.71H58.7087L60.9487 100.86H62.2687V108H61.3787V103.61C61.3787 103.263 61.3853 102.92 61.3987 102.58C61.4187 102.24 61.4353 101.963 61.4487 101.75H61.4087L59.0287 108H58.2887ZM69.2866 105.31C69.2866 106.197 69.06 106.883 68.6066 107.37C68.16 107.857 67.5533 108.1 66.7866 108.1C66.3133 108.1 65.89 107.993 65.5166 107.78C65.15 107.56 64.86 107.243 64.6466 106.83C64.4333 106.41 64.3266 105.903 64.3266 105.31C64.3266 104.423 64.55 103.74 64.9966 103.26C65.4433 102.78 66.05 102.54 66.8166 102.54C67.3033 102.54 67.73 102.65 68.0966 102.87C68.47 103.083 68.76 103.397 68.9666 103.81C69.18 104.217 69.2866 104.717 69.2866 105.31ZM65.2366 105.31C65.2366 105.943 65.36 106.447 65.6066 106.82C65.86 107.187 66.26 107.37 66.8066 107.37C67.3466 107.37 67.7433 107.187 67.9966 106.82C68.25 106.447 68.3766 105.943 68.3766 105.31C68.3766 104.677 68.25 104.18 67.9966 103.82C67.7433 103.46 67.3433 103.28 66.7966 103.28C66.25 103.28 65.8533 103.46 65.6066 103.82C65.36 104.18 65.2366 104.677 65.2366 105.31Z" fill="black"/>
<path d="M81.342 108H80.442V101.65H78.212V100.86H83.562V101.65H81.342V108ZM89.0363 102.64V108H88.3163L88.1863 107.29H88.1463C87.973 107.57 87.733 107.777 87.4263 107.91C87.1197 108.037 86.793 108.1 86.4463 108.1C85.7997 108.1 85.313 107.947 84.9863 107.64C84.6597 107.327 84.4963 106.83 84.4963 106.15V102.64H85.3863V106.09C85.3863 106.943 85.783 107.37 86.5763 107.37C87.1697 107.37 87.5797 107.203 87.8063 106.87C88.0397 106.537 88.1563 106.057 88.1563 105.43V102.64H89.0363Z" fill="black"/>
<path d="M111.529 100.86L109.629 108H108.719L107.329 103.32C107.276 103.127 107.222 102.933 107.169 102.74C107.116 102.547 107.072 102.377 107.039 102.23C107.006 102.077 106.982 101.97 106.969 101.91C106.962 101.997 106.926 102.183 106.859 102.47C106.799 102.75 106.722 103.043 106.629 103.35L105.279 108H104.369L102.479 100.86H103.419L104.529 105.22C104.609 105.527 104.676 105.823 104.729 106.11C104.789 106.397 104.836 106.667 104.869 106.92C104.902 106.66 104.952 106.377 105.019 106.07C105.086 105.763 105.162 105.463 105.249 105.17L106.509 100.86H107.439L108.749 105.2C108.842 105.507 108.922 105.813 108.989 106.12C109.056 106.42 109.106 106.687 109.139 106.92C109.172 106.673 109.219 106.407 109.279 106.12C109.339 105.827 109.409 105.523 109.489 105.21L110.589 100.86H111.529ZM114.916 102.54C115.376 102.54 115.77 102.64 116.096 102.84C116.43 103.04 116.683 103.323 116.856 103.69C117.036 104.05 117.126 104.473 117.126 104.96V105.49H113.456C113.47 106.097 113.623 106.56 113.916 106.88C114.216 107.193 114.633 107.35 115.166 107.35C115.506 107.35 115.806 107.32 116.066 107.26C116.333 107.193 116.606 107.1 116.886 106.98V107.75C116.613 107.87 116.343 107.957 116.076 108.01C115.81 108.07 115.493 108.1 115.126 108.1C114.62 108.1 114.17 107.997 113.776 107.79C113.39 107.583 113.086 107.277 112.866 106.87C112.653 106.457 112.546 105.953 112.546 105.36C112.546 104.773 112.643 104.27 112.836 103.85C113.036 103.43 113.313 103.107 113.666 102.88C114.026 102.653 114.443 102.54 114.916 102.54ZM114.906 103.26C114.486 103.26 114.153 103.397 113.906 103.67C113.666 103.937 113.523 104.31 113.476 104.79H116.206C116.2 104.337 116.093 103.97 115.886 103.69C115.68 103.403 115.353 103.26 114.906 103.26Z" fill="black"/>
<path d="M129.593 108H128.693V101.65H126.463V100.86H131.813V101.65H129.593V108ZM134.185 102.63C134.185 102.897 134.169 103.147 134.135 103.38H134.195C134.369 103.107 134.602 102.9 134.895 102.76C135.195 102.62 135.519 102.55 135.865 102.55C136.519 102.55 137.009 102.707 137.335 103.02C137.662 103.327 137.825 103.823 137.825 104.51V108H136.955V104.57C136.955 103.71 136.555 103.28 135.755 103.28C135.155 103.28 134.742 103.45 134.515 103.79C134.295 104.123 134.185 104.603 134.185 105.23V108H133.305V100.4H134.185V102.63Z" fill="black"/>
<path d="M151.944 108H151.044V100.86H155.034V101.65H151.944V104.18H154.844V104.97H151.944V108ZM159.145 102.54C159.245 102.54 159.352 102.547 159.465 102.56C159.585 102.567 159.689 102.58 159.775 102.6L159.665 103.41C159.579 103.39 159.482 103.373 159.375 103.36C159.275 103.347 159.179 103.34 159.085 103.34C158.812 103.34 158.555 103.417 158.315 103.57C158.075 103.717 157.882 103.927 157.735 104.2C157.595 104.467 157.525 104.78 157.525 105.14V108H156.645V102.64H157.365L157.465 103.62H157.505C157.679 103.327 157.902 103.073 158.175 102.86C158.449 102.647 158.772 102.54 159.145 102.54Z" fill="black"/>
<path d="M179.205 106.09C179.205 106.723 178.975 107.217 178.515 107.57C178.055 107.923 177.435 108.1 176.655 108.1C176.255 108.1 175.885 108.07 175.545 108.01C175.205 107.95 174.922 107.867 174.695 107.76V106.9C174.935 107.007 175.232 107.103 175.585 107.19C175.945 107.277 176.315 107.32 176.695 107.32C177.229 107.32 177.629 107.217 177.895 107.01C178.169 106.803 178.305 106.523 178.305 106.17C178.305 105.937 178.255 105.74 178.155 105.58C178.055 105.42 177.882 105.273 177.635 105.14C177.395 105 177.059 104.853 176.625 104.7C176.019 104.48 175.559 104.21 175.245 103.89C174.939 103.57 174.785 103.133 174.785 102.58C174.785 102.2 174.882 101.877 175.075 101.61C175.269 101.337 175.535 101.127 175.875 100.98C176.222 100.833 176.619 100.76 177.065 100.76C177.459 100.76 177.819 100.797 178.145 100.87C178.472 100.943 178.769 101.04 179.035 101.16L178.755 101.93C178.509 101.823 178.239 101.733 177.945 101.66C177.659 101.587 177.359 101.55 177.045 101.55C176.599 101.55 176.262 101.647 176.035 101.84C175.809 102.027 175.695 102.277 175.695 102.59C175.695 102.83 175.745 103.03 175.845 103.19C175.945 103.35 176.109 103.493 176.335 103.62C176.562 103.747 176.869 103.883 177.255 104.03C177.675 104.183 178.029 104.35 178.315 104.53C178.609 104.703 178.829 104.913 178.975 105.16C179.129 105.407 179.205 105.717 179.205 106.09ZM183.089 102.55C183.743 102.55 184.226 102.693 184.539 102.98C184.853 103.267 185.009 103.723 185.009 104.35V108H184.369L184.199 107.24H184.159C183.926 107.533 183.679 107.75 183.419 107.89C183.166 108.03 182.813 108.1 182.359 108.1C181.873 108.1 181.469 107.973 181.149 107.72C180.829 107.46 180.669 107.057 180.669 106.51C180.669 105.977 180.879 105.567 181.299 105.28C181.719 104.987 182.366 104.827 183.239 104.8L184.149 104.77V104.45C184.149 104.003 184.053 103.693 183.859 103.52C183.666 103.347 183.393 103.26 183.039 103.26C182.759 103.26 182.493 103.303 182.239 103.39C181.986 103.47 181.749 103.563 181.529 103.67L181.259 103.01C181.493 102.883 181.769 102.777 182.089 102.69C182.409 102.597 182.743 102.55 183.089 102.55ZM183.349 105.41C182.683 105.437 182.219 105.543 181.959 105.73C181.706 105.917 181.579 106.18 181.579 106.52C181.579 106.82 181.669 107.04 181.849 107.18C182.036 107.32 182.273 107.39 182.559 107.39C183.013 107.39 183.389 107.267 183.689 107.02C183.989 106.767 184.139 106.38 184.139 105.86V105.38L183.349 105.41Z" fill="black"/>
<path d="M153.689 131H152.829V126.01C152.829 125.723 152.832 125.493 152.839 125.32C152.845 125.147 152.855 124.967 152.869 124.78C152.762 124.887 152.665 124.977 152.579 125.05C152.492 125.123 152.382 125.217 152.249 125.33L151.489 125.95L151.029 125.36L152.959 123.86H153.689V131Z" fill="black"/>
<path d="M179.339 131H174.619V130.27L176.489 128.38C176.849 128.02 177.152 127.7 177.399 127.42C177.645 127.14 177.832 126.867 177.959 126.6C178.085 126.327 178.149 126.03 178.149 125.71C178.149 125.317 178.032 125.02 177.799 124.82C177.565 124.613 177.262 124.51 176.889 124.51C176.542 124.51 176.235 124.57 175.969 124.69C175.709 124.81 175.442 124.977 175.169 125.19L174.699 124.6C174.979 124.367 175.299 124.17 175.659 124.01C176.025 123.843 176.435 123.76 176.889 123.76C177.555 123.76 178.082 123.93 178.469 124.27C178.855 124.603 179.049 125.067 179.049 125.66C179.049 126.033 178.972 126.383 178.819 126.71C178.665 127.037 178.452 127.36 178.179 127.68C177.905 127.993 177.585 128.33 177.219 128.69L175.729 130.16V130.2H179.339V131Z" fill="black"/>
<path d="M35.0687 148.53C35.0687 149.01 34.9353 149.393 34.6687 149.68C34.402 149.96 34.042 150.147 33.5887 150.24V150.28C34.162 150.347 34.5887 150.527 34.8687 150.82C35.1487 151.113 35.2887 151.497 35.2887 151.97C35.2887 152.383 35.192 152.753 34.9987 153.08C34.8053 153.4 34.5053 153.65 34.0987 153.83C33.6987 154.01 33.182 154.1 32.5487 154.1C32.1753 154.1 31.8287 154.07 31.5087 154.01C31.1887 153.957 30.882 153.857 30.5887 153.71V152.89C30.8887 153.037 31.212 153.153 31.5587 153.24C31.9053 153.32 32.2387 153.36 32.5587 153.36C33.1987 153.36 33.6587 153.237 33.9387 152.99C34.2253 152.737 34.3687 152.39 34.3687 151.95C34.3687 151.503 34.192 151.183 33.8387 150.99C33.492 150.79 33.002 150.69 32.3687 150.69H31.6787V149.94H32.3787C32.9653 149.94 33.4087 149.817 33.7087 149.57C34.0153 149.323 34.1687 148.997 34.1687 148.59C34.1687 148.243 34.052 147.977 33.8187 147.79C33.5853 147.597 33.2687 147.5 32.8687 147.5C32.482 147.5 32.152 147.557 31.8787 147.67C31.6053 147.783 31.3353 147.927 31.0687 148.1L30.6287 147.5C30.882 147.3 31.1953 147.127 31.5687 146.98C31.9487 146.833 32.3787 146.76 32.8587 146.76C33.6053 146.76 34.1587 146.927 34.5187 147.26C34.8853 147.593 35.0687 148.017 35.0687 148.53Z" fill="black"/>
<path d="M59.6587 152.38H58.6187V154H57.7687V152.38H54.3487V151.63L57.7087 146.82H58.6187V151.59H59.6587V152.38ZM57.7687 149.34C57.7687 148.993 57.7753 148.7 57.7887 148.46C57.802 148.213 57.812 147.98 57.8187 147.76H57.7787C57.7253 147.887 57.6587 148.023 57.5787 148.17C57.4987 148.317 57.422 148.44 57.3487 148.54L55.2087 151.59H57.7687V149.34Z" fill="black"/>
<path d="M80.8887 149.62C81.622 149.62 82.2053 149.803 82.6387 150.17C83.072 150.537 83.2887 151.053 83.2887 151.72C83.2887 152.46 83.052 153.043 82.5787 153.47C82.112 153.89 81.4587 154.1 80.6187 154.1C80.252 154.1 79.9053 154.067 79.5787 154C79.2587 153.933 78.9887 153.837 78.7687 153.71V152.88C79.0087 153.027 79.2987 153.143 79.6387 153.23C79.9853 153.31 80.3153 153.35 80.6287 153.35C81.1553 153.35 81.5787 153.227 81.8987 152.98C82.2253 152.727 82.3887 152.337 82.3887 151.81C82.3887 151.343 82.2453 150.987 81.9587 150.74C81.672 150.487 81.2187 150.36 80.5987 150.36C80.412 150.36 80.1987 150.377 79.9587 150.41C79.7187 150.443 79.5253 150.477 79.3787 150.51L78.9387 150.23L79.2087 146.86H82.7887V147.66H79.9587L79.7887 149.73C79.902 149.71 80.0553 149.687 80.2487 149.66C80.442 149.633 80.6553 149.62 80.8887 149.62Z" fill="black"/>
<path d="M102.689 150.95C102.689 150.437 102.732 149.933 102.819 149.44C102.912 148.94 103.075 148.49 103.309 148.09C103.549 147.683 103.882 147.36 104.309 147.12C104.735 146.88 105.285 146.76 105.959 146.76C106.099 146.76 106.252 146.767 106.419 146.78C106.592 146.793 106.732 146.817 106.839 146.85V147.6C106.719 147.56 106.582 147.53 106.429 147.51C106.282 147.49 106.132 147.48 105.979 147.48C105.519 147.48 105.135 147.557 104.829 147.71C104.522 147.863 104.279 148.073 104.099 148.34C103.925 148.607 103.799 148.913 103.719 149.26C103.639 149.607 103.589 149.977 103.569 150.37H103.629C103.782 150.137 103.995 149.94 104.269 149.78C104.542 149.613 104.892 149.53 105.319 149.53C105.939 149.53 106.439 149.72 106.819 150.1C107.199 150.473 107.389 151.007 107.389 151.7C107.389 152.447 107.182 153.033 106.769 153.46C106.362 153.887 105.812 154.1 105.119 154.1C104.665 154.1 104.255 153.987 103.889 153.76C103.522 153.533 103.229 153.187 103.009 152.72C102.795 152.253 102.689 151.663 102.689 150.95ZM105.109 153.36C105.529 153.36 105.869 153.227 106.129 152.96C106.389 152.687 106.519 152.267 106.519 151.7C106.519 151.247 106.402 150.887 106.169 150.62C105.942 150.353 105.599 150.22 105.139 150.22C104.825 150.22 104.552 150.287 104.319 150.42C104.085 150.547 103.902 150.71 103.769 150.91C103.642 151.11 103.579 151.317 103.579 151.53C103.579 151.817 103.635 152.103 103.749 152.39C103.862 152.67 104.032 152.903 104.259 153.09C104.485 153.27 104.769 153.36 105.109 153.36Z" fill="black"/>
<path d="M127.499 154L130.429 147.66H126.579V146.86H131.369V147.54L128.469 154H127.499Z" fill="white"/>
<path d="M152.989 146.76C153.615 146.76 154.129 146.907 154.529 147.2C154.929 147.493 155.129 147.917 155.129 148.47C155.129 148.757 155.065 149.007 154.939 149.22C154.819 149.433 154.655 149.623 154.449 149.79C154.242 149.95 154.015 150.093 153.769 150.22C154.062 150.36 154.329 150.52 154.569 150.7C154.809 150.873 154.999 151.077 155.139 151.31C155.285 151.543 155.359 151.823 155.359 152.15C155.359 152.75 155.145 153.227 154.719 153.58C154.299 153.927 153.732 154.1 153.019 154.1C152.252 154.1 151.662 153.933 151.249 153.6C150.835 153.26 150.629 152.787 150.629 152.18C150.629 151.853 150.695 151.57 150.829 151.33C150.969 151.09 151.152 150.883 151.379 150.71C151.605 150.537 151.849 150.39 152.109 150.27C151.762 150.07 151.465 149.83 151.219 149.55C150.979 149.263 150.859 148.9 150.859 148.46C150.859 148.093 150.952 147.787 151.139 147.54C151.325 147.287 151.579 147.093 151.899 146.96C152.219 146.827 152.582 146.76 152.989 146.76ZM152.979 147.47C152.612 147.47 152.309 147.56 152.069 147.74C151.835 147.913 151.719 148.167 151.719 148.5C151.719 148.747 151.775 148.953 151.889 149.12C152.009 149.287 152.169 149.43 152.369 149.55C152.569 149.663 152.789 149.773 153.029 149.88C153.375 149.733 153.665 149.557 153.899 149.35C154.139 149.143 154.259 148.86 154.259 148.5C154.259 148.167 154.142 147.913 153.909 147.74C153.675 147.56 153.365 147.47 152.979 147.47ZM151.489 152.19C151.489 152.537 151.612 152.827 151.859 153.06C152.105 153.287 152.485 153.4 152.999 153.4C153.485 153.4 153.855 153.287 154.109 153.06C154.369 152.827 154.499 152.527 154.499 152.16C154.499 151.813 154.362 151.527 154.089 151.3C153.815 151.067 153.452 150.863 152.999 150.69L152.839 150.63C152.399 150.817 152.062 151.033 151.829 151.28C151.602 151.52 151.489 151.823 151.489 152.19Z" fill="black"/>
<path d="M179.339 149.91C179.339 150.423 179.292 150.93 179.199 151.43C179.112 151.923 178.949 152.373 178.709 152.78C178.475 153.18 178.142 153.5 177.709 153.74C177.282 153.98 176.732 154.1 176.059 154.1C175.925 154.1 175.769 154.09 175.589 154.07C175.415 154.057 175.272 154.033 175.159 154V153.25C175.419 153.337 175.712 153.38 176.039 153.38C176.505 153.38 176.889 153.303 177.189 153.15C177.495 152.997 177.739 152.79 177.919 152.53C178.099 152.263 178.229 151.957 178.309 151.61C178.389 151.257 178.435 150.887 178.449 150.5H178.389C178.242 150.727 178.029 150.923 177.749 151.09C177.475 151.25 177.122 151.33 176.689 151.33C176.075 151.33 175.579 151.143 175.199 150.77C174.825 150.39 174.639 149.857 174.639 149.17C174.639 148.67 174.732 148.24 174.919 147.88C175.112 147.52 175.379 147.243 175.719 147.05C176.059 146.857 176.459 146.76 176.919 146.76C177.372 146.76 177.782 146.877 178.149 147.11C178.515 147.337 178.805 147.683 179.019 148.15C179.232 148.61 179.339 149.197 179.339 149.91ZM176.919 147.5C176.505 147.5 176.165 147.637 175.899 147.91C175.639 148.183 175.509 148.6 175.509 149.16C175.509 149.62 175.619 149.983 175.839 150.25C176.065 150.51 176.412 150.64 176.879 150.64C177.199 150.64 177.475 150.577 177.709 150.45C177.942 150.317 178.122 150.15 178.249 149.95C178.382 149.75 178.449 149.543 178.449 149.33C178.449 149.043 178.392 148.76 178.279 148.48C178.165 148.2 177.995 147.967 177.769 147.78C177.542 147.593 177.259 147.5 176.919 147.5Z" fill="black"/>
<path d="M33.5595 177H32.6995V172.01C32.6995 171.723 32.7028 171.493 32.7095 171.32C32.7162 171.147 32.7262 170.967 32.7395 170.78C32.6328 170.887 32.5362 170.977 32.4495 171.05C32.3628 171.123 32.2528 171.217 32.1195 171.33L31.3595 171.95L30.8995 171.36L32.8295 169.86H33.5595V177ZM41.4979 173.42C41.4979 174.187 41.4179 174.847 41.2579 175.4C41.0979 175.947 40.8445 176.367 40.4979 176.66C40.1512 176.953 39.6912 177.1 39.1179 177.1C38.3112 177.1 37.7145 176.777 37.3279 176.13C36.9479 175.477 36.7579 174.573 36.7579 173.42C36.7579 172.647 36.8345 171.987 36.9879 171.44C37.1479 170.893 37.4012 170.477 37.7479 170.19C38.0945 169.897 38.5512 169.75 39.1179 169.75C39.9179 169.75 40.5145 170.073 40.9079 170.72C41.3012 171.36 41.4979 172.26 41.4979 173.42ZM37.6379 173.42C37.6379 174.4 37.7479 175.133 37.9679 175.62C38.1945 176.107 38.5779 176.35 39.1179 176.35C39.6512 176.35 40.0312 176.11 40.2579 175.63C40.4912 175.143 40.6079 174.407 40.6079 173.42C40.6079 172.447 40.4912 171.717 40.2579 171.23C40.0312 170.743 39.6512 170.5 39.1179 170.5C38.5779 170.5 38.1945 170.743 37.9679 171.23C37.7479 171.717 37.6379 172.447 37.6379 173.42Z" fill="black"/>
<path d="M57.5595 177H56.6995V172.01C56.6995 171.723 56.7028 171.493 56.7095 171.32C56.7162 171.147 56.7262 170.967 56.7395 170.78C56.6328 170.887 56.5362 170.977 56.4495 171.05C56.3628 171.123 56.2528 171.217 56.1195 171.33L55.3595 171.95L54.8995 171.36L56.8295 169.86H57.5595V177ZM63.8179 177H62.9579V172.01C62.9579 171.723 62.9612 171.493 62.9679 171.32C62.9745 171.147 62.9845 170.967 62.9979 170.78C62.8912 170.887 62.7945 170.977 62.7079 171.05C62.6212 171.123 62.5112 171.217 62.3779 171.33L61.6179 171.95L61.1579 171.36L63.0879 169.86H63.8179V177Z" fill="black"/>
<path d="M81.5595 177H80.6995V172.01C80.6995 171.723 80.7028 171.493 80.7095 171.32C80.7162 171.147 80.7262 170.967 80.7395 170.78C80.6328 170.887 80.5362 170.977 80.4495 171.05C80.3628 171.123 80.2528 171.217 80.1195 171.33L79.3595 171.95L78.8995 171.36L80.8295 169.86H81.5595V177ZM89.4679 177H84.7479V176.27L86.6179 174.38C86.9779 174.02 87.2812 173.7 87.5279 173.42C87.7745 173.14 87.9612 172.867 88.0879 172.6C88.2145 172.327 88.2779 172.03 88.2779 171.71C88.2779 171.317 88.1612 171.02 87.9279 170.82C87.6945 170.613 87.3912 170.51 87.0179 170.51C86.6712 170.51 86.3645 170.57 86.0979 170.69C85.8379 170.81 85.5712 170.977 85.2979 171.19L84.8279 170.6C85.1079 170.367 85.4279 170.17 85.7879 170.01C86.1545 169.843 86.5645 169.76 87.0179 169.76C87.6845 169.76 88.2112 169.93 88.5979 170.27C88.9845 170.603 89.1779 171.067 89.1779 171.66C89.1779 172.033 89.1012 172.383 88.9479 172.71C88.7945 173.037 88.5812 173.36 88.3079 173.68C88.0345 173.993 87.7145 174.33 87.3479 174.69L85.8579 176.16V176.2H89.4679V177Z" fill="black"/>
<path d="M105.559 177H104.699V172.01C104.699 171.723 104.703 171.493 104.709 171.32C104.716 171.147 104.726 170.967 104.739 170.78C104.633 170.887 104.536 170.977 104.449 171.05C104.363 171.123 104.253 171.217 104.119 171.33L103.359 171.95L102.899 171.36L104.829 169.86H105.559V177ZM113.198 171.53C113.198 172.01 113.065 172.393 112.798 172.68C112.531 172.96 112.171 173.147 111.718 173.24V173.28C112.291 173.347 112.718 173.527 112.998 173.82C113.278 174.113 113.418 174.497 113.418 174.97C113.418 175.383 113.321 175.753 113.128 176.08C112.935 176.4 112.635 176.65 112.228 176.83C111.828 177.01 111.311 177.1 110.678 177.1C110.305 177.1 109.958 177.07 109.638 177.01C109.318 176.957 109.011 176.857 108.718 176.71V175.89C109.018 176.037 109.341 176.153 109.688 176.24C110.035 176.32 110.368 176.36 110.688 176.36C111.328 176.36 111.788 176.237 112.068 175.99C112.355 175.737 112.498 175.39 112.498 174.95C112.498 174.503 112.321 174.183 111.968 173.99C111.621 173.79 111.131 173.69 110.498 173.69H109.808V172.94H110.508C111.095 172.94 111.538 172.817 111.838 172.57C112.145 172.323 112.298 171.997 112.298 171.59C112.298 171.243 112.181 170.977 111.948 170.79C111.715 170.597 111.398 170.5 110.998 170.5C110.611 170.5 110.281 170.557 110.008 170.67C109.735 170.783 109.465 170.927 109.198 171.1L108.758 170.5C109.011 170.3 109.325 170.127 109.698 169.98C110.078 169.833 110.508 169.76 110.988 169.76C111.735 169.76 112.288 169.927 112.648 170.26C113.015 170.593 113.198 171.017 113.198 171.53Z" fill="black"/>
<path d="M129.559 177H128.699V172.01C128.699 171.723 128.703 171.493 128.709 171.32C128.716 171.147 128.726 170.967 128.739 170.78C128.633 170.887 128.536 170.977 128.449 171.05C128.363 171.123 128.253 171.217 128.119 171.33L127.359 171.95L126.899 171.36L128.829 169.86H129.559V177ZM137.788 175.38H136.748V177H135.898V175.38H132.478V174.63L135.838 169.82H136.748V174.59H137.788V175.38ZM135.898 172.34C135.898 171.993 135.905 171.7 135.918 171.46C135.931 171.213 135.941 170.98 135.948 170.76H135.908C135.855 170.887 135.788 171.023 135.708 171.17C135.628 171.317 135.551 171.44 135.478 171.54L133.338 174.59H135.898V172.34Z" fill="black"/>
<path d="M153.559 177H152.699V172.01C152.699 171.723 152.703 171.493 152.709 171.32C152.716 171.147 152.726 170.967 152.739 170.78C152.633 170.887 152.536 170.977 152.449 171.05C152.363 171.123 152.253 171.217 152.119 171.33L151.359 171.95L150.899 171.36L152.829 169.86H153.559V177ZM159.018 172.62C159.751 172.62 160.335 172.803 160.768 173.17C161.201 173.537 161.418 174.053 161.418 174.72C161.418 175.46 161.181 176.043 160.708 176.47C160.241 176.89 159.588 177.1 158.748 177.1C158.381 177.1 158.035 177.067 157.708 177C157.388 176.933 157.118 176.837 156.898 176.71V175.88C157.138 176.027 157.428 176.143 157.768 176.23C158.115 176.31 158.445 176.35 158.758 176.35C159.285 176.35 159.708 176.227 160.028 175.98C160.355 175.727 160.518 175.337 160.518 174.81C160.518 174.343 160.375 173.987 160.088 173.74C159.801 173.487 159.348 173.36 158.728 173.36C158.541 173.36 158.328 173.377 158.088 173.41C157.848 173.443 157.655 173.477 157.508 173.51L157.068 173.23L157.338 169.86H160.918V170.66H158.088L157.918 172.73C158.031 172.71 158.185 172.687 158.378 172.66C158.571 172.633 158.785 172.62 159.018 172.62Z" fill="black"/>
<path d="M177.559 177H176.699V172.01C176.699 171.723 176.703 171.493 176.709 171.32C176.716 171.147 176.726 170.967 176.739 170.78C176.633 170.887 176.536 170.977 176.449 171.05C176.363 171.123 176.253 171.217 176.119 171.33L175.359 171.95L174.899 171.36L176.829 169.86H177.559V177ZM180.818 173.95C180.818 173.437 180.861 172.933 180.948 172.44C181.041 171.94 181.205 171.49 181.438 171.09C181.678 170.683 182.011 170.36 182.438 170.12C182.865 169.88 183.415 169.76 184.088 169.76C184.228 169.76 184.381 169.767 184.548 169.78C184.721 169.793 184.861 169.817 184.968 169.85V170.6C184.848 170.56 184.711 170.53 184.558 170.51C184.411 170.49 184.261 170.48 184.108 170.48C183.648 170.48 183.265 170.557 182.958 170.71C182.651 170.863 182.408 171.073 182.228 171.34C182.055 171.607 181.928 171.913 181.848 172.26C181.768 172.607 181.718 172.977 181.698 173.37H181.758C181.911 173.137 182.125 172.94 182.398 172.78C182.671 172.613 183.021 172.53 183.448 172.53C184.068 172.53 184.568 172.72 184.948 173.1C185.328 173.473 185.518 174.007 185.518 174.7C185.518 175.447 185.311 176.033 184.898 176.46C184.491 176.887 183.941 177.1 183.248 177.1C182.795 177.1 182.385 176.987 182.018 176.76C181.651 176.533 181.358 176.187 181.138 175.72C180.925 175.253 180.818 174.663 180.818 173.95ZM183.238 176.36C183.658 176.36 183.998 176.227 184.258 175.96C184.518 175.687 184.648 175.267 184.648 174.7C184.648 174.247 184.531 173.887 184.298 173.62C184.071 173.353 183.728 173.22 183.268 173.22C182.955 173.22 182.681 173.287 182.448 173.42C182.215 173.547 182.031 173.71 181.898 173.91C181.771 174.11 181.708 174.317 181.708 174.53C181.708 174.817 181.765 175.103 181.878 175.39C181.991 175.67 182.161 175.903 182.388 176.09C182.615 176.27 182.898 176.36 183.238 176.36Z" fill="black"/>
<path d="M33.5595 200H32.6995V195.01C32.6995 194.723 32.7028 194.493 32.7095 194.32C32.7162 194.147 32.7262 193.967 32.7395 193.78C32.6328 193.887 32.5362 193.977 32.4495 194.05C32.3628 194.123 32.2528 194.217 32.1195 194.33L31.3595 194.95L30.8995 194.36L32.8295 192.86H33.5595V200ZM37.6279 200L40.5579 193.66H36.7079V192.86H41.4979V193.54L38.5979 200H37.6279Z" fill="black"/>
<path d="M57.5595 200H56.6995V195.01C56.6995 194.723 56.7028 194.493 56.7095 194.32C56.7162 194.147 56.7262 193.967 56.7395 193.78C56.6328 193.887 56.5362 193.977 56.4495 194.05C56.3628 194.123 56.2528 194.217 56.1195 194.33L55.3595 194.95L54.8995 194.36L56.8295 192.86H57.5595V200ZM63.1179 192.76C63.7445 192.76 64.2579 192.907 64.6579 193.2C65.0579 193.493 65.2579 193.917 65.2579 194.47C65.2579 194.757 65.1945 195.007 65.0679 195.22C64.9479 195.433 64.7845 195.623 64.5779 195.79C64.3712 195.95 64.1445 196.093 63.8979 196.22C64.1912 196.36 64.4579 196.52 64.6979 196.7C64.9379 196.873 65.1279 197.077 65.2679 197.31C65.4145 197.543 65.4879 197.823 65.4879 198.15C65.4879 198.75 65.2745 199.227 64.8479 199.58C64.4279 199.927 63.8612 200.1 63.1479 200.1C62.3812 200.1 61.7912 199.933 61.3779 199.6C60.9645 199.26 60.7579 198.787 60.7579 198.18C60.7579 197.853 60.8245 197.57 60.9579 197.33C61.0979 197.09 61.2812 196.883 61.5079 196.71C61.7345 196.537 61.9779 196.39 62.2379 196.27C61.8912 196.07 61.5945 195.83 61.3479 195.55C61.1079 195.263 60.9879 194.9 60.9879 194.46C60.9879 194.093 61.0812 193.787 61.2679 193.54C61.4545 193.287 61.7079 193.093 62.0279 192.96C62.3479 192.827 62.7112 192.76 63.1179 192.76ZM63.1079 193.47C62.7412 193.47 62.4379 193.56 62.1979 193.74C61.9645 193.913 61.8479 194.167 61.8479 194.5C61.8479 194.747 61.9045 194.953 62.0179 195.12C62.1379 195.287 62.2979 195.43 62.4979 195.55C62.6979 195.663 62.9179 195.773 63.1579 195.88C63.5045 195.733 63.7945 195.557 64.0279 195.35C64.2679 195.143 64.3879 194.86 64.3879 194.5C64.3879 194.167 64.2712 193.913 64.0379 193.74C63.8045 193.56 63.4945 193.47 63.1079 193.47ZM61.6179 198.19C61.6179 198.537 61.7412 198.827 61.9879 199.06C62.2345 199.287 62.6145 199.4 63.1279 199.4C63.6145 199.4 63.9845 199.287 64.2379 199.06C64.4979 198.827 64.6279 198.527 64.6279 198.16C64.6279 197.813 64.4912 197.527 64.2179 197.3C63.9445 197.067 63.5812 196.863 63.1279 196.69L62.9679 196.63C62.5279 196.817 62.1912 197.033 61.9579 197.28C61.7312 197.52 61.6179 197.823 61.6179 198.19Z" fill="black"/>
<path d="M81.5595 200H80.6995V195.01C80.6995 194.723 80.7028 194.493 80.7095 194.32C80.7162 194.147 80.7262 193.967 80.7395 193.78C80.6328 193.887 80.5362 193.977 80.4495 194.05C80.3628 194.123 80.2528 194.217 80.1195 194.33L79.3595 194.95L78.8995 194.36L80.8295 192.86H81.5595V200ZM89.4679 195.91C89.4679 196.423 89.4212 196.93 89.3279 197.43C89.2412 197.923 89.0779 198.373 88.8379 198.78C88.6045 199.18 88.2712 199.5 87.8379 199.74C87.4112 199.98 86.8612 200.1 86.1879 200.1C86.0545 200.1 85.8979 200.09 85.7179 200.07C85.5445 200.057 85.4012 200.033 85.2879 200V199.25C85.5479 199.337 85.8412 199.38 86.1679 199.38C86.6345 199.38 87.0179 199.303 87.3179 199.15C87.6245 198.997 87.8679 198.79 88.0479 198.53C88.2279 198.263 88.3579 197.957 88.4379 197.61C88.5179 197.257 88.5645 196.887 88.5779 196.5H88.5179C88.3712 196.727 88.1579 196.923 87.8779 197.09C87.6045 197.25 87.2512 197.33 86.8179 197.33C86.2045 197.33 85.7079 197.143 85.3279 196.77C84.9545 196.39 84.7679 195.857 84.7679 195.17C84.7679 194.67 84.8612 194.24 85.0479 193.88C85.2412 193.52 85.5079 193.243 85.8479 193.05C86.1879 192.857 86.5879 192.76 87.0479 192.76C87.5012 192.76 87.9112 192.877 88.2779 193.11C88.6445 193.337 88.9345 193.683 89.1479 194.15C89.3612 194.61 89.4679 195.197 89.4679 195.91ZM87.0479 193.5C86.6345 193.5 86.2945 193.637 86.0279 193.91C85.7679 194.183 85.6379 194.6 85.6379 195.16C85.6379 195.62 85.7479 195.983 85.9679 196.25C86.1945 196.51 86.5412 196.64 87.0079 196.64C87.3279 196.64 87.6045 196.577 87.8379 196.45C88.0712 196.317 88.2512 196.15 88.3779 195.95C88.5112 195.75 88.5779 195.543 88.5779 195.33C88.5779 195.043 88.5212 194.76 88.4079 194.48C88.2945 194.2 88.1245 193.967 87.8979 193.78C87.6712 193.593 87.3879 193.5 87.0479 193.5Z" fill="black"/>
<path d="M107.209 200H102.489V199.27L104.359 197.38C104.719 197.02 105.023 196.7 105.269 196.42C105.516 196.14 105.703 195.867 105.829 195.6C105.956 195.327 106.019 195.03 106.019 194.71C106.019 194.317 105.903 194.02 105.669 193.82C105.436 193.613 105.133 193.51 104.759 193.51C104.413 193.51 104.106 193.57 103.839 193.69C103.579 193.81 103.313 193.977 103.039 194.19L102.569 193.6C102.849 193.367 103.169 193.17 103.529 193.01C103.896 192.843 104.306 192.76 104.759 192.76C105.426 192.76 105.953 192.93 106.339 193.27C106.726 193.603 106.919 194.067 106.919 194.66C106.919 195.033 106.843 195.383 106.689 195.71C106.536 196.037 106.323 196.36 106.049 196.68C105.776 196.993 105.456 197.33 105.089 197.69L103.599 199.16V199.2H107.209V200ZM113.498 196.42C113.498 197.187 113.418 197.847 113.258 198.4C113.098 198.947 112.845 199.367 112.498 199.66C112.151 199.953 111.691 200.1 111.118 200.1C110.311 200.1 109.715 199.777 109.328 199.13C108.948 198.477 108.758 197.573 108.758 196.42C108.758 195.647 108.835 194.987 108.988 194.44C109.148 193.893 109.401 193.477 109.748 193.19C110.095 192.897 110.551 192.75 111.118 192.75C111.918 192.75 112.515 193.073 112.908 193.72C113.301 194.36 113.498 195.26 113.498 196.42ZM109.638 196.42C109.638 197.4 109.748 198.133 109.968 198.62C110.195 199.107 110.578 199.35 111.118 199.35C111.651 199.35 112.031 199.11 112.258 198.63C112.491 198.143 112.608 197.407 112.608 196.42C112.608 195.447 112.491 194.717 112.258 194.23C112.031 193.743 111.651 193.5 111.118 193.5C110.578 193.5 110.195 193.743 109.968 194.23C109.748 194.717 109.638 195.447 109.638 196.42Z" fill="black"/>
<path d="M131.209 200H126.489V199.27L128.359 197.38C128.719 197.02 129.023 196.7 129.269 196.42C129.516 196.14 129.703 195.867 129.829 195.6C129.956 195.327 130.019 195.03 130.019 194.71C130.019 194.317 129.903 194.02 129.669 193.82C129.436 193.613 129.133 193.51 128.759 193.51C128.413 193.51 128.106 193.57 127.839 193.69C127.579 193.81 127.313 193.977 127.039 194.19L126.569 193.6C126.849 193.367 127.169 193.17 127.529 193.01C127.896 192.843 128.306 192.76 128.759 192.76C129.426 192.76 129.953 192.93 130.339 193.27C130.726 193.603 130.919 194.067 130.919 194.66C130.919 195.033 130.843 195.383 130.689 195.71C130.536 196.037 130.323 196.36 130.049 196.68C129.776 196.993 129.456 197.33 129.089 197.69L127.599 199.16V199.2H131.209V200ZM135.818 200H134.958V195.01C134.958 194.723 134.961 194.493 134.968 194.32C134.975 194.147 134.985 193.967 134.998 193.78C134.891 193.887 134.795 193.977 134.708 194.05C134.621 194.123 134.511 194.217 134.378 194.33L133.618 194.95L133.158 194.36L135.088 192.86H135.818V200Z" fill="black"/>
<path d="M155.209 200H150.489V199.27L152.359 197.38C152.719 197.02 153.023 196.7 153.269 196.42C153.516 196.14 153.703 195.867 153.829 195.6C153.956 195.327 154.019 195.03 154.019 194.71C154.019 194.317 153.903 194.02 153.669 193.82C153.436 193.613 153.133 193.51 152.759 193.51C152.413 193.51 152.106 193.57 151.839 193.69C151.579 193.81 151.313 193.977 151.039 194.19L150.569 193.6C150.849 193.367 151.169 193.17 151.529 193.01C151.896 192.843 152.306 192.76 152.759 192.76C153.426 192.76 153.953 192.93 154.339 193.27C154.726 193.603 154.919 194.067 154.919 194.66C154.919 195.033 154.843 195.383 154.689 195.71C154.536 196.037 154.323 196.36 154.049 196.68C153.776 196.993 153.456 197.33 153.089 197.69L151.599 199.16V199.2H155.209V200ZM161.468 200H156.748V199.27L158.618 197.38C158.978 197.02 159.281 196.7 159.528 196.42C159.775 196.14 159.961 195.867 160.088 195.6C160.215 195.327 160.278 195.03 160.278 194.71C160.278 194.317 160.161 194.02 159.928 193.82C159.695 193.613 159.391 193.51 159.018 193.51C158.671 193.51 158.365 193.57 158.098 193.69C157.838 193.81 157.571 193.977 157.298 194.19L156.828 193.6C157.108 193.367 157.428 193.17 157.788 193.01C158.155 192.843 158.565 192.76 159.018 192.76C159.685 192.76 160.211 192.93 160.598 193.27C160.985 193.603 161.178 194.067 161.178 194.66C161.178 195.033 161.101 195.383 160.948 195.71C160.795 196.037 160.581 196.36 160.308 196.68C160.035 196.993 159.715 197.33 159.348 197.69L157.858 199.16V199.2H161.468V200Z" fill="black"/>
<path d="M179.209 200H174.489V199.27L176.359 197.38C176.719 197.02 177.023 196.7 177.269 196.42C177.516 196.14 177.703 195.867 177.829 195.6C177.956 195.327 178.019 195.03 178.019 194.71C178.019 194.317 177.903 194.02 177.669 193.82C177.436 193.613 177.133 193.51 176.759 193.51C176.413 193.51 176.106 193.57 175.839 193.69C175.579 193.81 175.313 193.977 175.039 194.19L174.569 193.6C174.849 193.367 175.169 193.17 175.529 193.01C175.896 192.843 176.306 192.76 176.759 192.76C177.426 192.76 177.953 192.93 178.339 193.27C178.726 193.603 178.919 194.067 178.919 194.66C178.919 195.033 178.843 195.383 178.689 195.71C178.536 196.037 178.323 196.36 178.049 196.68C177.776 196.993 177.456 197.33 177.089 197.69L175.599 199.16V199.2H179.209V200ZM185.198 194.53C185.198 195.01 185.065 195.393 184.798 195.68C184.531 195.96 184.171 196.147 183.718 196.24V196.28C184.291 196.347 184.718 196.527 184.998 196.82C185.278 197.113 185.418 197.497 185.418 197.97C185.418 198.383 185.321 198.753 185.128 199.08C184.935 199.4 184.635 199.65 184.228 199.83C183.828 200.01 183.311 200.1 182.678 200.1C182.305 200.1 181.958 200.07 181.638 200.01C181.318 199.957 181.011 199.857 180.718 199.71V198.89C181.018 199.037 181.341 199.153 181.688 199.24C182.035 199.32 182.368 199.36 182.688 199.36C183.328 199.36 183.788 199.237 184.068 198.99C184.355 198.737 184.498 198.39 184.498 197.95C184.498 197.503 184.321 197.183 183.968 196.99C183.621 196.79 183.131 196.69 182.498 196.69H181.808V195.94H182.508C183.095 195.94 183.538 195.817 183.838 195.57C184.145 195.323 184.298 194.997 184.298 194.59C184.298 194.243 184.181 193.977 183.948 193.79C183.715 193.597 183.398 193.5 182.998 193.5C182.611 193.5 182.281 193.557 182.008 193.67C181.735 193.783 181.465 193.927 181.198 194.1L180.758 193.5C181.011 193.3 181.325 193.127 181.698 192.98C182.078 192.833 182.508 192.76 182.988 192.76C183.735 192.76 184.288 192.927 184.648 193.26C185.015 193.593 185.198 194.017 185.198 194.53Z" fill="black"/>
<rect x="212" y="97" width="120" height="51" fill="#CFE4F0"/>
<path d="M205 111L215.5 99.7417V122.258L205 111Z" fill="#CFE4F0"/>
<path d="M219.92 114H218.712V109.296H217.16V108.288H221.472V109.296H219.92V114ZM223.985 109.16C223.985 109.373 223.977 109.579 223.961 109.776C223.95 109.973 223.939 110.112 223.929 110.192H223.993C224.131 109.968 224.31 109.805 224.529 109.704C224.747 109.603 224.99 109.552 225.257 109.552C225.731 109.552 226.11 109.68 226.393 109.936C226.681 110.187 226.825 110.592 226.825 111.152V114H225.633V111.448C225.633 110.819 225.398 110.504 224.929 110.504C224.571 110.504 224.323 110.629 224.185 110.88C224.051 111.125 223.985 111.48 223.985 111.944V114H222.793V107.92H223.985V109.16ZM232.594 109.632V114H231.682L231.522 113.44H231.458C231.319 113.664 231.127 113.827 230.882 113.928C230.642 114.029 230.386 114.08 230.114 114.08C229.645 114.08 229.269 113.955 228.986 113.704C228.703 113.448 228.562 113.04 228.562 112.48V109.632H229.754V112.184C229.754 112.493 229.81 112.728 229.922 112.888C230.034 113.048 230.213 113.128 230.458 113.128C230.821 113.128 231.069 113.005 231.202 112.76C231.335 112.509 231.402 112.152 231.402 111.688V109.632H232.594ZM236.82 109.552C236.878 109.552 236.948 109.555 237.028 109.56C237.108 109.565 237.172 109.573 237.22 109.584L237.132 110.704C237.094 110.693 237.038 110.685 236.964 110.68C236.894 110.669 236.833 110.664 236.78 110.664C236.577 110.664 236.382 110.701 236.196 110.776C236.009 110.845 235.857 110.96 235.74 111.12C235.628 111.28 235.572 111.499 235.572 111.776V114H234.38V109.632H235.284L235.46 110.368H235.516C235.644 110.144 235.82 109.952 236.044 109.792C236.268 109.632 236.526 109.552 236.82 109.552ZM241.596 112.704C241.596 113.147 241.439 113.488 241.124 113.728C240.815 113.963 240.351 114.08 239.732 114.08C239.428 114.08 239.167 114.059 238.948 114.016C238.729 113.979 238.511 113.915 238.292 113.824V112.84C238.527 112.947 238.78 113.035 239.052 113.104C239.324 113.173 239.564 113.208 239.772 113.208C240.007 113.208 240.172 113.173 240.268 113.104C240.369 113.035 240.42 112.944 240.42 112.832C240.42 112.757 240.399 112.691 240.356 112.632C240.319 112.573 240.233 112.507 240.1 112.432C239.967 112.357 239.759 112.261 239.476 112.144C239.204 112.027 238.98 111.912 238.804 111.8C238.628 111.683 238.497 111.544 238.412 111.384C238.327 111.219 238.284 111.013 238.284 110.768C238.284 110.363 238.441 110.059 238.756 109.856C239.071 109.653 239.489 109.552 240.012 109.552C240.284 109.552 240.543 109.579 240.788 109.632C241.033 109.685 241.287 109.773 241.548 109.896L241.188 110.752C240.975 110.661 240.772 110.587 240.58 110.528C240.388 110.464 240.193 110.432 239.996 110.432C239.644 110.432 239.468 110.528 239.468 110.72C239.468 110.789 239.489 110.853 239.532 110.912C239.58 110.965 239.668 111.024 239.796 111.088C239.929 111.152 240.124 111.237 240.38 111.344C240.631 111.445 240.847 111.552 241.028 111.664C241.209 111.771 241.348 111.907 241.444 112.072C241.545 112.232 241.596 112.443 241.596 112.704ZM244.444 114.08C243.959 114.08 243.562 113.891 243.252 113.512C242.948 113.128 242.796 112.565 242.796 111.824C242.796 111.077 242.951 110.512 243.26 110.128C243.57 109.744 243.975 109.552 244.476 109.552C244.791 109.552 245.05 109.613 245.252 109.736C245.455 109.859 245.615 110.011 245.732 110.192H245.772C245.756 110.107 245.738 109.984 245.716 109.824C245.695 109.659 245.684 109.491 245.684 109.32V107.92H246.876V114H245.964L245.732 113.432H245.684C245.567 113.613 245.41 113.768 245.212 113.896C245.015 114.019 244.759 114.08 244.444 114.08ZM244.86 113.128C245.191 113.128 245.423 113.032 245.556 112.84C245.69 112.643 245.759 112.349 245.764 111.96V111.832C245.764 111.405 245.698 111.08 245.564 110.856C245.436 110.632 245.196 110.52 244.844 110.52C244.583 110.52 244.378 110.635 244.228 110.864C244.079 111.088 244.004 111.413 244.004 111.84C244.004 112.267 244.079 112.589 244.228 112.808C244.378 113.021 244.588 113.128 244.86 113.128ZM250.451 109.544C251.037 109.544 251.485 109.672 251.795 109.928C252.109 110.179 252.267 110.565 252.267 111.088V114H251.435L251.203 113.408H251.171C250.984 113.643 250.787 113.813 250.579 113.92C250.371 114.027 250.085 114.08 249.723 114.08C249.333 114.08 249.011 113.968 248.755 113.744C248.499 113.515 248.371 113.165 248.371 112.696C248.371 112.232 248.533 111.891 248.859 111.672C249.184 111.448 249.672 111.325 250.323 111.304L251.083 111.28V111.088C251.083 110.859 251.021 110.691 250.899 110.584C250.781 110.477 250.616 110.424 250.403 110.424C250.189 110.424 249.981 110.456 249.779 110.52C249.576 110.579 249.373 110.653 249.171 110.744L248.779 109.936C249.013 109.813 249.272 109.717 249.555 109.648C249.843 109.579 250.141 109.544 250.451 109.544ZM250.619 111.992C250.235 112.003 249.968 112.072 249.819 112.2C249.669 112.328 249.595 112.496 249.595 112.704C249.595 112.885 249.648 113.016 249.755 113.096C249.861 113.171 250 113.208 250.171 113.208C250.427 113.208 250.643 113.133 250.819 112.984C250.995 112.829 251.083 112.613 251.083 112.336V111.976L250.619 111.992ZM253.398 109.632H254.702L255.526 112.088C255.569 112.205 255.601 112.328 255.622 112.456C255.644 112.579 255.66 112.709 255.67 112.848H255.694C255.71 112.709 255.732 112.579 255.758 112.456C255.79 112.328 255.825 112.205 255.862 112.088L256.67 109.632H257.95L256.102 114.56C255.937 115.013 255.694 115.352 255.374 115.576C255.06 115.805 254.694 115.92 254.278 115.92C254.145 115.92 254.028 115.912 253.926 115.896C253.83 115.885 253.745 115.872 253.67 115.856V114.912C253.729 114.923 253.798 114.933 253.878 114.944C253.964 114.955 254.052 114.96 254.142 114.96C254.393 114.96 254.59 114.883 254.734 114.728C254.884 114.579 254.993 114.397 255.062 114.184L255.134 113.968L253.398 109.632ZM259.961 113.16C259.891 113.443 259.793 113.752 259.665 114.088C259.537 114.424 259.406 114.739 259.273 115.032H258.417C258.491 114.717 258.566 114.381 258.641 114.024C258.715 113.667 258.771 113.349 258.809 113.072H259.905L259.961 113.16ZM263.719 115.68C263.565 115.68 263.429 115.669 263.311 115.648C263.194 115.632 263.093 115.613 263.007 115.592V114.584C263.093 114.605 263.183 114.624 263.279 114.64C263.37 114.656 263.469 114.664 263.575 114.664C263.714 114.664 263.839 114.637 263.951 114.584C264.069 114.531 264.159 114.429 264.223 114.28C264.287 114.131 264.319 113.917 264.319 113.64V108.288H265.527V113.632C265.527 114.123 265.45 114.517 265.295 114.816C265.146 115.12 264.935 115.339 264.663 115.472C264.391 115.611 264.077 115.68 263.719 115.68ZM269.199 109.544C269.786 109.544 270.234 109.672 270.543 109.928C270.858 110.179 271.015 110.565 271.015 111.088V114H270.183L269.951 113.408H269.919C269.733 113.643 269.535 113.813 269.327 113.92C269.119 114.027 268.834 114.08 268.471 114.08C268.082 114.08 267.759 113.968 267.503 113.744C267.247 113.515 267.119 113.165 267.119 112.696C267.119 112.232 267.282 111.891 267.607 111.672C267.933 111.448 268.421 111.325 269.071 111.304L269.831 111.28V111.088C269.831 110.859 269.77 110.691 269.647 110.584C269.53 110.477 269.365 110.424 269.151 110.424C268.938 110.424 268.73 110.456 268.527 110.52C268.325 110.579 268.122 110.653 267.919 110.744L267.527 109.936C267.762 109.813 268.021 109.717 268.303 109.648C268.591 109.579 268.89 109.544 269.199 109.544ZM269.367 111.992C268.983 112.003 268.717 112.072 268.567 112.2C268.418 112.328 268.343 112.496 268.343 112.704C268.343 112.885 268.397 113.016 268.503 113.096C268.61 113.171 268.749 113.208 268.919 113.208C269.175 113.208 269.391 113.133 269.567 112.984C269.743 112.829 269.831 112.613 269.831 112.336V111.976L269.367 111.992ZM275.251 109.552C275.721 109.552 276.097 109.68 276.379 109.936C276.662 110.187 276.803 110.592 276.803 111.152V114H275.611V111.448C275.611 111.133 275.555 110.899 275.443 110.744C275.331 110.584 275.153 110.504 274.907 110.504C274.545 110.504 274.297 110.629 274.163 110.88C274.03 111.125 273.963 111.48 273.963 111.944V114H272.771V109.632H273.683L273.843 110.192H273.907C274.046 109.968 274.235 109.805 274.475 109.704C274.721 109.603 274.979 109.552 275.251 109.552ZM282.573 109.632V114H281.661L281.501 113.44H281.437C281.298 113.664 281.106 113.827 280.861 113.928C280.621 114.029 280.365 114.08 280.093 114.08C279.624 114.08 279.248 113.955 278.965 113.704C278.682 113.448 278.541 113.04 278.541 112.48V109.632H279.733V112.184C279.733 112.493 279.789 112.728 279.901 112.888C280.013 113.048 280.192 113.128 280.437 113.128C280.8 113.128 281.048 113.005 281.181 112.76C281.314 112.509 281.381 112.152 281.381 111.688V109.632H282.573ZM286.15 109.544C286.737 109.544 287.185 109.672 287.494 109.928C287.809 110.179 287.966 110.565 287.966 111.088V114H287.134L286.902 113.408H286.87C286.684 113.643 286.486 113.813 286.278 113.92C286.07 114.027 285.785 114.08 285.422 114.08C285.033 114.08 284.71 113.968 284.454 113.744C284.198 113.515 284.07 113.165 284.07 112.696C284.07 112.232 284.233 111.891 284.558 111.672C284.884 111.448 285.372 111.325 286.022 111.304L286.782 111.28V111.088C286.782 110.859 286.721 110.691 286.598 110.584C286.481 110.477 286.316 110.424 286.102 110.424C285.889 110.424 285.681 110.456 285.478 110.52C285.276 110.579 285.073 110.653 284.87 110.744L284.478 109.936C284.713 109.813 284.972 109.717 285.254 109.648C285.542 109.579 285.841 109.544 286.15 109.544ZM286.318 111.992C285.934 112.003 285.668 112.072 285.518 112.2C285.369 112.328 285.294 112.496 285.294 112.704C285.294 112.885 285.348 113.016 285.454 113.096C285.561 113.171 285.7 113.208 285.87 113.208C286.126 113.208 286.342 113.133 286.518 112.984C286.694 112.829 286.782 112.613 286.782 112.336V111.976L286.318 111.992ZM292.162 109.552C292.221 109.552 292.29 109.555 292.37 109.56C292.45 109.565 292.514 109.573 292.562 109.584L292.474 110.704C292.437 110.693 292.381 110.685 292.306 110.68C292.237 110.669 292.176 110.664 292.122 110.664C291.92 110.664 291.725 110.701 291.538 110.776C291.352 110.845 291.2 110.96 291.082 111.12C290.97 111.28 290.914 111.499 290.914 111.776V114H289.722V109.632H290.626L290.802 110.368H290.858C290.986 110.144 291.162 109.952 291.386 109.792C291.61 109.632 291.869 109.552 292.162 109.552ZM293.267 109.632H294.571L295.395 112.088C295.437 112.205 295.469 112.328 295.491 112.456C295.512 112.579 295.528 112.709 295.539 112.848H295.563C295.579 112.709 295.6 112.579 295.627 112.456C295.659 112.328 295.693 112.205 295.731 112.088L296.539 109.632H297.819L295.971 114.56C295.805 115.013 295.563 115.352 295.243 115.576C294.928 115.805 294.563 115.92 294.147 115.92C294.013 115.92 293.896 115.912 293.795 115.896C293.699 115.885 293.613 115.872 293.539 115.856V114.912C293.597 114.923 293.667 114.933 293.747 114.944C293.832 114.955 293.92 114.96 294.011 114.96C294.261 114.96 294.459 114.883 294.603 114.728C294.752 114.579 294.861 114.397 294.931 114.184L295.003 113.968L293.267 109.632ZM301.859 114L304.003 109.304H301.187V108.288H305.283V109.048L303.123 114H301.859ZM313.011 114H309.019V113.16L310.451 111.712C310.739 111.413 310.971 111.165 311.147 110.968C311.323 110.765 311.451 110.584 311.531 110.424C311.611 110.259 311.651 110.083 311.651 109.896C311.651 109.667 311.587 109.496 311.459 109.384C311.336 109.272 311.168 109.216 310.955 109.216C310.736 109.216 310.523 109.267 310.315 109.368C310.107 109.469 309.888 109.613 309.659 109.8L309.003 109.024C309.168 108.88 309.341 108.747 309.523 108.624C309.709 108.501 309.923 108.403 310.163 108.328C310.408 108.248 310.701 108.208 311.043 108.208C311.416 108.208 311.736 108.277 312.003 108.416C312.275 108.549 312.483 108.733 312.627 108.968C312.776 109.197 312.851 109.459 312.851 109.752C312.851 110.067 312.787 110.355 312.659 110.616C312.536 110.877 312.355 111.136 312.115 111.392C311.88 111.648 311.595 111.931 311.259 112.24L310.523 112.928V112.984H313.011V114ZM318.093 111.144C318.093 111.757 318.026 112.283 317.893 112.72C317.765 113.157 317.554 113.493 317.261 113.728C316.973 113.963 316.583 114.08 316.093 114.08C315.405 114.08 314.901 113.821 314.581 113.304C314.261 112.781 314.101 112.061 314.101 111.144C314.101 110.525 314.165 109.997 314.293 109.56C314.421 109.123 314.631 108.787 314.925 108.552C315.218 108.317 315.607 108.2 316.093 108.2C316.775 108.2 317.279 108.459 317.605 108.976C317.93 109.493 318.093 110.216 318.093 111.144ZM315.301 111.144C315.301 111.795 315.357 112.285 315.469 112.616C315.581 112.941 315.789 113.104 316.093 113.104C316.391 113.104 316.599 112.941 316.717 112.616C316.834 112.291 316.893 111.8 316.893 111.144C316.893 110.493 316.834 110.003 316.717 109.672C316.599 109.341 316.391 109.176 316.093 109.176C315.789 109.176 315.581 109.341 315.469 109.672C315.357 110.003 315.301 110.493 315.301 111.144ZM323.238 114H319.246V113.16L320.678 111.712C320.966 111.413 321.198 111.165 321.374 110.968C321.55 110.765 321.678 110.584 321.758 110.424C321.838 110.259 321.878 110.083 321.878 109.896C321.878 109.667 321.814 109.496 321.686 109.384C321.564 109.272 321.396 109.216 321.182 109.216C320.964 109.216 320.75 109.267 320.542 109.368C320.334 109.469 320.116 109.613 319.886 109.8L319.23 109.024C319.396 108.88 319.569 108.747 319.75 108.624C319.937 108.501 320.15 108.403 320.39 108.328C320.636 108.248 320.929 108.208 321.27 108.208C321.644 108.208 321.964 108.277 322.23 108.416C322.502 108.549 322.71 108.733 322.854 108.968C323.004 109.197 323.078 109.459 323.078 109.752C323.078 110.067 323.014 110.355 322.886 110.616C322.764 110.877 322.582 111.136 322.342 111.392C322.108 111.648 321.822 111.931 321.486 112.24L320.75 112.928V112.984H323.238V114ZM327.344 114H326.136V110.696C326.136 110.557 326.139 110.376 326.144 110.152C326.155 109.928 326.163 109.731 326.168 109.56C326.142 109.592 326.083 109.651 325.992 109.736C325.907 109.816 325.827 109.888 325.752 109.952L325.096 110.48L324.512 109.752L326.352 108.288H327.344V114Z" fill="black"/>
<rect x="217.25" y="123.25" width="108.5" height="13.5" fill="white" stroke="black" stroke-width="0.5"/>
<path d="M226.16 129.728C226.16 130.139 226.123 130.544 226.048 130.944C225.979 131.339 225.848 131.699 225.656 132.024C225.469 132.344 225.203 132.6 224.856 132.792C224.515 132.984 224.075 133.08 223.536 133.08C223.429 133.08 223.304 133.072 223.16 133.056C223.021 133.045 222.907 133.027 222.816 133V132.4C223.024 132.469 223.259 132.504 223.52 132.504C223.893 132.504 224.2 132.443 224.44 132.32C224.685 132.197 224.88 132.032 225.024 131.824C225.168 131.611 225.272 131.365 225.336 131.088C225.4 130.805 225.437 130.509 225.448 130.2H225.4C225.283 130.381 225.112 130.539 224.888 130.672C224.669 130.8 224.387 130.864 224.04 130.864C223.549 130.864 223.152 130.715 222.848 130.416C222.549 130.112 222.4 129.685 222.4 129.136C222.4 128.736 222.475 128.392 222.624 128.104C222.779 127.816 222.992 127.595 223.264 127.44C223.536 127.285 223.856 127.208 224.224 127.208C224.587 127.208 224.915 127.301 225.208 127.488C225.501 127.669 225.733 127.947 225.904 128.32C226.075 128.688 226.16 129.157 226.16 129.728ZM224.224 127.8C223.893 127.8 223.621 127.909 223.408 128.128C223.2 128.347 223.096 128.68 223.096 129.128C223.096 129.496 223.184 129.787 223.36 130C223.541 130.208 223.819 130.312 224.192 130.312C224.448 130.312 224.669 130.261 224.856 130.16C225.043 130.053 225.187 129.92 225.288 129.76C225.395 129.6 225.448 129.435 225.448 129.264C225.448 129.035 225.403 128.808 225.312 128.584C225.221 128.36 225.085 128.173 224.904 128.024C224.723 127.875 224.496 127.8 224.224 127.8ZM227.69 129.144C227.69 128.941 227.738 128.8 227.834 128.72C227.93 128.64 228.045 128.6 228.178 128.6C228.317 128.6 228.434 128.64 228.53 128.72C228.631 128.8 228.682 128.941 228.682 129.144C228.682 129.336 228.631 129.475 228.53 129.56C228.434 129.645 228.317 129.688 228.178 129.688C228.045 129.688 227.93 129.645 227.834 129.56C227.738 129.475 227.69 129.336 227.69 129.144ZM227.69 132.568C227.69 132.371 227.738 132.232 227.834 132.152C227.93 132.072 228.045 132.032 228.178 132.032C228.317 132.032 228.434 132.072 228.53 132.152C228.631 132.232 228.682 132.371 228.682 132.568C228.682 132.76 228.631 132.899 228.53 132.984C228.434 133.069 228.317 133.112 228.178 133.112C228.045 133.112 227.93 133.069 227.834 132.984C227.738 132.899 227.69 132.76 227.69 132.568ZM233.974 130.136C233.974 130.749 233.91 131.277 233.782 131.72C233.654 132.157 233.452 132.493 233.174 132.728C232.897 132.963 232.529 133.08 232.07 133.08C231.425 133.08 230.948 132.821 230.638 132.304C230.334 131.781 230.182 131.059 230.182 130.136C230.182 129.517 230.244 128.989 230.366 128.552C230.494 128.115 230.697 127.781 230.974 127.552C231.252 127.317 231.617 127.2 232.07 127.2C232.71 127.2 233.188 127.459 233.502 127.976C233.817 128.488 233.974 129.208 233.974 130.136ZM230.886 130.136C230.886 130.92 230.974 131.507 231.15 131.896C231.332 132.285 231.638 132.48 232.07 132.48C232.497 132.48 232.801 132.288 232.982 131.904C233.169 131.515 233.262 130.925 233.262 130.136C233.262 129.357 233.169 128.773 232.982 128.384C232.801 127.995 232.497 127.8 232.07 127.8C231.638 127.8 231.332 127.995 231.15 128.384C230.974 128.773 230.886 129.357 230.886 130.136ZM239.088 130.136C239.088 130.749 239.024 131.277 238.896 131.72C238.768 132.157 238.565 132.493 238.288 132.728C238.011 132.963 237.643 133.08 237.184 133.08C236.539 133.08 236.061 132.821 235.752 132.304C235.448 131.781 235.296 131.059 235.296 130.136C235.296 129.517 235.357 128.989 235.48 128.552C235.608 128.115 235.811 127.781 236.088 127.552C236.365 127.317 236.731 127.2 237.184 127.2C237.824 127.2 238.301 127.459 238.616 127.976C238.931 128.488 239.088 129.208 239.088 130.136ZM236 130.136C236 130.92 236.088 131.507 236.264 131.896C236.445 132.285 236.752 132.48 237.184 132.48C237.611 132.48 237.915 132.288 238.096 131.904C238.283 131.515 238.376 130.925 238.376 130.136C238.376 129.357 238.283 128.773 238.096 128.384C237.915 127.995 237.611 127.8 237.184 127.8C236.752 127.8 236.445 127.995 236.264 128.384C236.088 128.773 236 129.357 236 130.136ZM246.992 133L246.304 131.232H244.04L243.36 133H242.632L244.864 127.264H245.512L247.736 133H246.992ZM245.448 128.864C245.432 128.821 245.405 128.744 245.368 128.632C245.33 128.52 245.293 128.405 245.256 128.288C245.224 128.165 245.197 128.072 245.176 128.008C245.138 128.173 245.096 128.336 245.048 128.496C245 128.651 244.96 128.773 244.928 128.864L244.28 130.592H246.088L245.448 128.864ZM251.573 133L249.693 127.992H249.661C249.677 128.157 249.69 128.381 249.701 128.664C249.711 128.941 249.717 129.232 249.717 129.536V133H249.053V127.288H250.117L251.877 131.968H251.909L253.701 127.288H254.757V133H254.045V129.488C254.045 129.211 254.05 128.936 254.061 128.664C254.077 128.392 254.09 128.171 254.101 128H254.069L252.165 133H251.573Z" fill="black"/>
<path d="M0.5 15C0.5 6.99187 6.99187 0.5 15 0.5H344C352.008 0.5 358.5 6.99187 358.5 15V231.5H0.5V15Z" stroke="#BBBDBF"/>
</g>
<defs>
<filter id="filter0_d" x="0" y="0" width="367" height="240" filterUnits="userSpaceOnUse" color-interpolation-filters="sRGB">
<feFlood flood-opacity="0" result="BackgroundImageFix"/>
<feColorMatrix in="SourceAlpha" type="matrix" values="0 0 0 0 0 0 0 0 0 0 0 0 0 0 0 0 0 0 127 0"/>
<feOffset dx="4" dy="4"/>
<feGaussianBlur stdDeviation="2"/>
<feColorMatrix type="matrix" values="0 0 0 0 0 0 0 0 0 0 0 0 0 0 0 0 0 0 0.1 0"/>
<feBlend mode="normal" in2="BackgroundImageFix" result="effect1_dropShadow"/>
<feBlend mode="normal" in="SourceGraphic" in2="effect1_dropShadow" result="shape"/>
</filter>
</defs>
</svg>
