<svg width="367" height="240" fill="none" xmlns="http://www.w3.org/2000/svg"><g filter="url(#filter0_d)"><path d="M0 15C0 6.716 6.716 0 15 0h329c8.284 0 15 6.716 15 15v217H0V15z" fill="#fff"/><path d="M0 15C0 6.716 6.716 0 15 0h329c8.284 0 15 6.716 15 15v3H0v-3z" fill="#727272"/><g filter="url(#filter1_d)"><path fill="#00703C" d="M18 182h91v26H18z"/></g><path d="M38.542 199.052l-.006.948h-5.298v-8.598h5.298v.948h-4.134v2.856h3.348v.912h-3.348v2.934h4.14zm2.75-4.248c.131-.148.271-.282.42-.402.147-.12.303-.222.467-.306a2.443 2.443 0 011.134-.27c.332 0 .624.056.876.168.256.108.468.264.636.468.172.2.302.442.39.726.088.284.132.598.132.942V200h-1.074v-3.87c0-.46-.106-.816-.318-1.068-.208-.256-.526-.384-.954-.384-.316 0-.612.076-.888.228a2.936 2.936 0 00-.756.618V200h-1.074v-6.078h.642c.152 0 .246.074.282.222l.084.66zm7.232.336c.192-.416.428-.74.708-.972.28-.236.622-.354 1.026-.354.128 0 .25.014.366.042.12.028.226.072.318.132l-.078.798c-.024.1-.084.15-.18.15-.056 0-.138-.012-.246-.036a1.694 1.694 0 00-.366-.036c-.192 0-.364.028-.516.084-.148.056-.282.14-.402.252a1.782 1.782 0 00-.318.408c-.092.16-.176.344-.252.552V200H47.51v-6.078h.612c.116 0 .196.022.24.066.044.044.074.12.09.228l.072.924zm7.715 1.158c0-.248-.036-.474-.108-.678a1.437 1.437 0 00-.306-.534 1.292 1.292 0 00-.486-.348 1.616 1.616 0 00-.654-.126c-.512 0-.918.15-1.218.45-.296.296-.48.708-.552 1.236h3.324zm.864 2.85c-.132.16-.29.3-.474.42a3.022 3.022 0 01-.594.288 3.503 3.503 0 01-.648.168c-.224.04-.446.06-.666.06-.42 0-.808-.07-1.164-.21a2.636 2.636 0 01-.918-.624 2.919 2.919 0 01-.6-1.02 4.135 4.135 0 01-.216-1.392c0-.424.064-.82.192-1.188.132-.368.32-.686.564-.954.244-.272.542-.484.894-.636a2.902 2.902 0 011.188-.234c.364 0 .7.062 1.008.186.312.12.58.296.804.528.228.228.406.512.534.852.128.336.192.72.192 1.152 0 .168-.018.28-.054.336-.036.056-.104.084-.204.084H52.88c.012.384.064.718.156 1.002.096.284.228.522.396.714.168.188.368.33.6.426a2.1 2.1 0 00.78.138c.268 0 .498-.03.69-.09a3.456 3.456 0 00.852-.402.47.47 0 01.246-.096c.088 0 .156.034.204.102l.3.39zm4.062-2.118c.216 0 .406-.03.57-.09.164-.06.302-.144.414-.252.112-.108.196-.236.252-.384a1.43 1.43 0 00.084-.498c0-.372-.114-.668-.342-.888-.224-.22-.55-.33-.978-.33-.432 0-.762.11-.99.33-.224.22-.336.516-.336.888 0 .18.028.346.084.498a1.102 1.102 0 00.672.636c.164.06.354.09.57.09zm1.926 3.3a.513.513 0 00-.126-.36.838.838 0 00-.342-.216 2.036 2.036 0 00-.492-.108 8.573 8.573 0 00-.6-.054l-.636-.036a7.504 7.504 0 01-.624-.06 1.685 1.685 0 00-.552.396.8.8 0 00-.108.93c.072.12.18.222.324.306.144.088.324.156.54.204.22.052.478.078.774.078.288 0 .546-.026.774-.078.228-.052.42-.126.576-.222.16-.096.282-.21.366-.342a.8.8 0 00.126-.438zm1.086-6.168v.396c0 .132-.084.216-.252.252l-.69.09c.136.264.204.556.204.876a1.862 1.862 0 01-.642 1.428c-.2.172-.44.304-.72.396-.28.092-.584.138-.912.138-.284 0-.552-.034-.804-.102-.128.08-.226.166-.294.258a.438.438 0 00-.102.27.37.37 0 00.174.33c.12.072.276.124.468.156s.41.052.654.06c.248.008.5.022.756.042.26.016.512.046.756.09.248.044.468.116.66.216.192.1.346.238.462.414.12.176.18.404.18.684 0 .26-.066.512-.198.756a1.98 1.98 0 01-.558.648 2.798 2.798 0 01-.9.456c-.352.116-.75.174-1.194.174-.444 0-.832-.044-1.164-.132a2.732 2.732 0 01-.828-.354 1.562 1.562 0 01-.498-.516 1.218 1.218 0 01-.162-.606c0-.3.094-.554.282-.762.188-.208.446-.374.774-.498a1.149 1.149 0 01-.432-.318c-.104-.136-.156-.318-.156-.546 0-.088.016-.178.048-.27.032-.096.08-.19.144-.282a1.55 1.55 0 01.582-.492c-.3-.168-.534-.39-.702-.666a1.852 1.852 0 01-.252-.972c0-.296.056-.564.168-.804a1.78 1.78 0 01.48-.618c.204-.172.446-.304.726-.396.284-.092.594-.138.93-.138.264 0 .51.03.738.09.228.056.436.14.624.252h1.65zm2.768-.24V200h-1.068v-6.078h1.068zm.228-1.908a.673.673 0 01-.066.294.815.815 0 01-.168.24.753.753 0 01-.246.162.73.73 0 01-.294.06.73.73 0 01-.528-.222.875.875 0 01-.162-.24.73.73 0 01-.06-.294.73.73 0 01.06-.294.753.753 0 01.162-.246.742.742 0 01.234-.168.73.73 0 01.294-.06.73.73 0 01.294.06c.096.04.178.096.246.168.072.068.128.15.168.246.044.092.066.19.066.294zm5.602 2.91a.237.237 0 01-.222.132.418.418 0 01-.204-.066 3.59 3.59 0 00-.282-.144 2.152 2.152 0 00-.39-.15 1.802 1.802 0 00-.54-.072c-.18 0-.342.024-.486.072a1.16 1.16 0 00-.372.186.875.875 0 00-.234.282.754.754 0 00-.078.342c0 .156.044.286.132.39.092.104.212.194.36.27.148.076.316.144.504.204.188.056.38.118.576.186.2.064.394.136.582.216.188.08.356.18.504.3a1.329 1.329 0 01.492 1.068c0 .28-.05.54-.15.78a1.73 1.73 0 01-.444.618 2.17 2.17 0 01-.72.408c-.284.1-.612.15-.984.15a3.11 3.11 0 01-1.152-.204 2.966 2.966 0 01-.876-.534l.252-.408a.366.366 0 01.114-.12.308.308 0 01.168-.042c.072 0 .148.028.228.084.08.056.176.118.288.186a1.915 1.915 0 001.032.27c.208 0 .39-.026.546-.078.156-.056.286-.13.39-.222a.837.837 0 00.228-.318.955.955 0 00.078-.384.616.616 0 00-.138-.414 1.052 1.052 0 00-.354-.282 2.606 2.606 0 00-.51-.204l-.582-.186a7.84 7.84 0 01-.582-.216 2.137 2.137 0 01-.504-.312 1.445 1.445 0 01-.36-.456 1.533 1.533 0 01-.132-.666c0-.232.048-.454.144-.666.096-.216.236-.404.42-.564.184-.164.41-.294.678-.39.268-.096.574-.144.918-.144.4 0 .758.064 1.074.192.32.124.596.296.828.516l-.24.39zm4.053 5.172c-.48 0-.85-.134-1.11-.402-.256-.268-.384-.654-.384-1.158v-3.72h-.732a.247.247 0 01-.162-.054c-.044-.04-.066-.1-.066-.18v-.426l.996-.126.246-1.878a.254.254 0 01.078-.144.24.24 0 01.168-.06h.54v2.094h1.758v.774h-1.758v3.648c0 .256.062.446.186.57a.65.65 0 00.48.186.875.875 0 00.504-.144c.06-.036.11-.068.15-.096.044-.032.082-.048.114-.048.056 0 .106.034.15.102l.312.51a2.029 2.029 0 01-.666.408c-.26.096-.528.144-.804.144zm3.985-4.956c.192-.416.428-.74.708-.972.28-.236.622-.354 1.026-.354.128 0 .25.014.366.042.12.028.226.072.318.132l-.078.798c-.024.1-.084.15-.18.15-.056 0-.138-.012-.246-.036a1.694 1.694 0 00-.366-.036c-.192 0-.364.028-.516.084-.148.056-.282.14-.402.252a1.782 1.782 0 00-.318.408c-.092.16-.176.344-.252.552V200h-1.074v-6.078h.612c.116 0 .196.022.24.066.044.044.074.12.09.228l.072.924zm7.715 1.158c0-.248-.036-.474-.108-.678a1.437 1.437 0 00-.306-.534 1.292 1.292 0 00-.486-.348 1.616 1.616 0 00-.654-.126c-.512 0-.918.15-1.218.45-.296.296-.48.708-.552 1.236h3.324zm.864 2.85c-.132.16-.29.3-.474.42a3.022 3.022 0 01-.594.288 3.503 3.503 0 01-.648.168c-.224.04-.446.06-.666.06-.42 0-.808-.07-1.164-.21a2.636 2.636 0 01-.918-.624 2.919 2.919 0 01-.6-1.02 4.135 4.135 0 01-.216-1.392c0-.424.064-.82.192-1.188.132-.368.32-.686.564-.954.244-.272.542-.484.894-.636a2.902 2.902 0 011.188-.234c.364 0 .7.062 1.008.186.312.12.58.296.804.528.228.228.406.512.534.852.128.336.192.72.192 1.152 0 .168-.018.28-.054.336-.036.056-.104.084-.204.084h-4.062c.012.384.064.718.156 1.002.096.284.228.522.396.714.168.188.368.33.6.426a2.1 2.1 0 00.78.138c.268 0 .498-.03.69-.09a3.456 3.456 0 00.852-.402.47.47 0 01.246-.096c.088 0 .156.034.204.102l.3.39zm2.957-4.008c.192-.416.428-.74.708-.972.28-.236.622-.354 1.026-.354.128 0 .25.014.366.042.12.028.226.072.318.132l-.078.798c-.024.1-.084.15-.18.15-.056 0-.138-.012-.246-.036a1.694 1.694 0 00-.366-.036c-.192 0-.364.028-.516.084-.148.056-.282.14-.402.252a1.782 1.782 0 00-.318.408c-.092.16-.176.344-.252.552V200h-1.074v-6.078h.612c.116 0 .196.022.24.066.044.044.074.12.09.228l.072.924z" fill="#fff"/><path stroke="#BBBDBF" d="M18.5 80.5h258v85h-258z"/><path d="M25.293 41.718h4.233v5.092c-.629.459-1.3.796-2.014 1.011-.709.21-1.46.315-2.253.315-1.014 0-1.932-.156-2.754-.468a6.249 6.249 0 01-2.108-1.317 5.797 5.797 0 01-1.351-1.998 6.568 6.568 0 01-.476-2.524c0-.924.15-1.77.45-2.541.306-.771.74-1.434 1.3-1.99a5.93 5.93 0 012.032-1.3c.799-.312 1.692-.467 2.677-.467.51 0 .986.042 1.428.127.442.08.85.193 1.224.34a5.617 5.617 0 011.879 1.165l-.74 1.139a.688.688 0 01-.442.331c-.18.04-.38-.006-.595-.136a7.137 7.137 0 00-.603-.331 4.088 4.088 0 00-1.343-.434c-.26-.04-.561-.06-.901-.06-.572 0-1.09.1-1.555.298a3.368 3.368 0 00-1.19.842 3.805 3.805 0 00-.748 1.309 5.222 5.222 0 00-.264 1.708c0 .68.096 1.29.289 1.828.193.532.465.983.816 1.351.351.368.77.649 1.258.841.493.193 1.04.29 1.64.29.409 0 .771-.04 1.088-.12.323-.084.638-.198.944-.34v-2.074H25.82a.57.57 0 01-.391-.127.461.461 0 01-.136-.34v-1.42zm11.095 2.618a10.38 10.38 0 00-1.428.154c-.38.067-.683.158-.91.271-.22.114-.38.244-.475.392a.85.85 0 00-.137.467c0 .34.094.58.281.723.193.141.459.212.799.212.391 0 .728-.068 1.011-.204.29-.142.576-.36.859-.654v-1.36zm-4.777-3.884a5.18 5.18 0 011.708-1.037 5.747 5.747 0 012.023-.349c.522 0 .986.085 1.395.255.413.17.762.409 1.045.715.289.3.51.66.663 1.079.153.42.23.878.23 1.377V48h-1.072c-.22 0-.39-.031-.51-.093-.113-.063-.206-.193-.28-.391l-.187-.561a7.9 7.9 0 01-.646.51 3.828 3.828 0 01-.637.373 3.5 3.5 0 01-.715.221c-.249.052-.53.077-.841.077a3.43 3.43 0 01-1.054-.153 2.37 2.37 0 01-.824-.45 2.067 2.067 0 01-.527-.757 2.686 2.686 0 01-.188-1.037c0-.323.083-.646.247-.969.164-.323.445-.615.841-.876.403-.266.936-.484 1.599-.654.668-.176 1.504-.275 2.507-.297v-.451c0-.55-.116-.952-.349-1.207-.232-.26-.566-.391-1.003-.391-.322 0-.592.04-.807.119a3.574 3.574 0 00-.57.247c-.158.084-.308.167-.45.246-.142.074-.306.11-.493.11a.708.708 0 01-.416-.118 1.232 1.232 0 01-.272-.298l-.417-.748zm11.776 5.236c.221.255.46.433.714.535.261.102.53.154.808.154.289 0 .55-.052.782-.154.238-.107.442-.274.612-.501.17-.232.3-.533.39-.901.092-.368.137-.813.137-1.334a5.4 5.4 0 00-.11-1.182 2.252 2.252 0 00-.332-.807 1.274 1.274 0 00-.527-.46 1.735 1.735 0 00-.731-.144c-.368 0-.689.082-.96.247a3.06 3.06 0 00-.783.705v3.842zm0-5.44a4.4 4.4 0 011.148-.833c.42-.21.89-.315 1.41-.315.505 0 .959.102 1.36.306.409.199.755.485 1.038.859.289.374.51.827.663 1.36.159.527.238 1.12.238 1.776 0 .709-.09 1.355-.272 1.938a4.437 4.437 0 01-.757 1.488 3.354 3.354 0 01-2.703 1.3 2.876 2.876 0 01-1.326-.306 2.788 2.788 0 01-.501-.34 4.093 4.093 0 01-.434-.45l-.093.527c-.04.164-.105.28-.196.349a.635.635 0 01-.365.093H41.04V35.327h2.346v4.921zm12.483 4.089c-.572.028-1.048.079-1.427.152-.38.069-.683.16-.91.273-.221.113-.38.243-.476.39a.85.85 0 00-.136.468c0 .34.093.58.28.723.193.141.46.212.8.212.39 0 .728-.068 1.011-.204.289-.142.575-.36.858-.654v-1.36zm-4.776-3.885a5.183 5.183 0 011.708-1.037 5.748 5.748 0 012.023-.349c.521 0 .986.085 1.394.255.414.17.762.409 1.045.715.29.3.51.66.663 1.079.154.42.23.878.23 1.377V48h-1.071c-.221 0-.391-.031-.51-.093-.113-.063-.207-.193-.28-.391l-.188-.561a7.883 7.883 0 01-.645.51 3.828 3.828 0 01-.638.373 3.5 3.5 0 01-.714.221c-.25.052-.53.077-.841.077-.386 0-.737-.051-1.055-.153a2.372 2.372 0 01-.824-.45 2.069 2.069 0 01-.527-.757 2.688 2.688 0 01-.187-1.037c0-.323.082-.646.246-.969.165-.323.445-.615.842-.876.402-.266.935-.484 1.598-.654.669-.176 1.505-.275 2.508-.297v-.451c0-.55-.117-.952-.349-1.207-.232-.26-.567-.391-1.003-.391-.323 0-.592.04-.807.119a3.582 3.582 0 00-.57.247 28.23 28.23 0 00-.45.246c-.142.074-.306.11-.493.11a.709.709 0 01-.417-.118 1.236 1.236 0 01-.272-.298l-.416-.748zm11.631.23c.278-.5.598-.893.961-1.182a1.985 1.985 0 011.275-.434c.397 0 .72.094.969.281l-.153 1.734c-.028.113-.074.193-.136.238a.41.41 0 01-.238.06c-.09 0-.221-.012-.391-.035a2.91 2.91 0 00-.476-.042c-.215 0-.408.031-.578.093-.164.063-.312.15-.442.264-.13.113-.25.252-.357.416a4.29 4.29 0 00-.289.561V48h-2.346v-8.764h1.386c.238 0 .402.043.493.128.09.085.155.232.195.442l.127.876zm7.157-1.446V48h-2.346v-8.764h2.346zm.28-2.49c0 .198-.04.383-.119.552-.079.17-.187.32-.323.451-.13.13-.286.232-.467.306-.176.074-.366.11-.57.11-.192 0-.377-.036-.552-.11a1.443 1.443 0 01-.45-.306 1.57 1.57 0 01-.315-.45 1.374 1.374 0 01-.11-.553c0-.198.036-.383.11-.553.08-.175.184-.328.314-.459.13-.13.28-.232.45-.306.177-.073.36-.11.553-.11.204 0 .394.037.57.11.181.074.337.176.467.306.136.13.244.284.323.46.08.17.12.354.12.552zm5.284 11.39c-.397 0-.748-.057-1.054-.17a2.15 2.15 0 01-.774-.502 2.105 2.105 0 01-.476-.782 3.111 3.111 0 01-.161-1.037V40.92h-.825a.475.475 0 01-.323-.118c-.085-.08-.127-.199-.127-.358v-.917l1.402-.256.476-2.269c.062-.255.235-.383.519-.383h1.224v2.67h2.26v1.632h-2.26v4.572c0 .244.056.437.17.579.119.141.286.212.501.212.113 0 .21-.011.29-.034.078-.028.146-.057.203-.085.057-.034.108-.062.153-.085a.313.313 0 01.153-.043c.068 0 .125.017.17.051.045.029.09.08.136.153l.706 1.122a3.443 3.443 0 01-1.097.578c-.408.13-.83.196-1.266.196zm13.919-6.622a1.863 1.863 0 00-.723-.535 2.177 2.177 0 00-.816-.153c-.283 0-.541.054-.773.161a1.561 1.561 0 00-.604.51 2.554 2.554 0 00-.382.876c-.091.357-.136.782-.136 1.275 0 .487.036.901.11 1.241.074.34.178.615.315.825.141.21.311.362.51.459.198.09.419.136.662.136.414 0 .76-.083 1.037-.247.284-.164.55-.397.8-.697v-3.85zm2.346-6.188V48h-1.445c-.3 0-.494-.136-.579-.408l-.195-.765a4.897 4.897 0 01-.561.527 3.663 3.663 0 01-.629.416 3.39 3.39 0 01-.731.264c-.26.062-.544.093-.85.093-.47 0-.901-.099-1.292-.297a2.961 2.961 0 01-1.02-.867c-.283-.385-.504-.856-.663-1.411-.159-.555-.238-1.19-.238-1.904 0-.652.088-1.258.264-1.819a4.496 4.496 0 01.764-1.453 3.552 3.552 0 011.19-.961c.465-.232.98-.349 1.547-.349.477 0 .876.071 1.199.213.329.142.626.334.893.578v-4.53h2.346zm8.046 7.26c0-.244-.034-.477-.102-.697a1.572 1.572 0 00-.306-.587 1.462 1.462 0 00-.536-.4 1.794 1.794 0 00-.773-.153c-.561 0-1 .16-1.318.476-.317.318-.524.771-.62 1.36h3.655zm-3.69 1.394c.074.821.307 1.422.698 1.802.396.38.912.569 1.547.569.323 0 .6-.037.833-.11.238-.08.445-.165.62-.255.181-.097.343-.182.485-.255a.907.907 0 01.433-.12c.181 0 .323.069.425.205l.68.85c-.249.289-.524.53-.824.722a4.742 4.742 0 01-.935.45c-.323.108-.65.182-.978.221a6.975 6.975 0 01-.952.069c-.612 0-1.184-.1-1.717-.298a4.017 4.017 0 01-1.385-.892 4.258 4.258 0 01-.927-1.471c-.226-.584-.34-1.26-.34-2.032 0-.595.096-1.156.29-1.683.198-.527.48-.986.85-1.377.367-.39.815-.7 1.342-.926.527-.232 1.122-.349 1.785-.349.561 0 1.077.091 1.547.273a3.343 3.343 0 012.023 2.031c.193.493.289 1.057.289 1.691 0 .176-.008.32-.025.434a.784.784 0 01-.085.272.334.334 0 01-.162.145.849.849 0 01-.263.034h-5.253zM108.419 48v-8.764h1.445c.294 0 .49.137.586.409l.136.569a6.7 6.7 0 01.468-.442c.164-.136.34-.252.527-.349.187-.102.388-.18.603-.238.221-.056.459-.085.714-.085.538 0 .983.145 1.335.434.351.283.617.663.799 1.139.141-.278.314-.516.518-.714a2.81 2.81 0 01.68-.493c.249-.125.51-.215.782-.272.278-.062.555-.094.833-.094.493 0 .929.074 1.309.221.38.148.697.366.952.655.261.283.459.632.595 1.046.136.413.204.884.204 1.41V48h-2.346v-5.568c0-1.025-.439-1.538-1.317-1.538-.199 0-.383.034-.553.102a1.245 1.245 0 00-.442.289c-.125.13-.224.292-.297.485a1.988 1.988 0 00-.102.662V48h-2.346v-5.568c0-.555-.111-.949-.332-1.181-.215-.238-.535-.357-.96-.357-.272 0-.53.065-.774.196-.238.124-.462.3-.671.526V48h-2.346zm20.438-5.414c0-.244-.034-.477-.102-.697a1.56 1.56 0 00-.306-.587 1.46 1.46 0 00-.536-.4 1.791 1.791 0 00-.773-.153c-.561 0-1 .16-1.318.476-.317.318-.524.771-.62 1.36h3.655zm-3.689 1.394c.074.821.306 1.422.697 1.802.397.38.912.569 1.547.569.323 0 .601-.037.833-.11.238-.08.445-.165.62-.255.182-.097.343-.182.485-.255a.91.91 0 01.433-.12.5.5 0 01.425.205l.68.85c-.249.289-.524.53-.824.722-.3.187-.612.337-.935.45a4.966 4.966 0 01-.978.221 6.967 6.967 0 01-.952.069c-.612 0-1.184-.1-1.717-.298a4.018 4.018 0 01-1.385-.892 4.265 4.265 0 01-.927-1.471c-.226-.584-.34-1.26-.34-2.032 0-.595.097-1.156.289-1.683.199-.527.482-.986.85-1.377.369-.39.816-.7 1.343-.926.527-.232 1.122-.349 1.785-.349.561 0 1.077.091 1.547.273.476.175.884.433 1.224.773.346.34.612.76.799 1.258.193.493.289 1.057.289 1.691 0 .176-.008.32-.025.434a.763.763 0 01-.085.272.334.334 0 01-.162.145.844.844 0 01-.263.034h-5.253zm13.228-2.941a.715.715 0 01-.195.212.49.49 0 01-.264.06.806.806 0 01-.348-.086 9.518 9.518 0 00-.4-.178 3.713 3.713 0 00-.51-.187 2.261 2.261 0 00-.654-.085c-.38 0-.674.08-.884.238a.72.72 0 00-.315.612.6.6 0 00.179.442c.119.119.275.224.467.315.199.085.423.167.672.246.249.074.504.156.765.246.266.091.524.196.773.315.25.119.471.27.663.45.199.176.357.392.476.646.119.25.179.553.179.91 0 .425-.079.819-.238 1.181-.153.358-.38.666-.68.927-.3.26-.674.465-1.122.612-.448.147-.963.221-1.547.221-.3 0-.598-.028-.893-.085a4.958 4.958 0 01-.841-.221 5.679 5.679 0 01-.748-.349 3.357 3.357 0 01-.604-.425l.544-.875a.717.717 0 01.23-.238.71.71 0 01.365-.085c.142 0 .272.037.391.11l.4.23c.147.08.32.156.518.23.204.068.457.102.757.102.227 0 .422-.026.586-.077.165-.051.298-.119.4-.204a.828.828 0 00.221-.297.84.84 0 00.076-.349.616.616 0 00-.187-.468 1.518 1.518 0 00-.476-.322 4.513 4.513 0 00-.671-.247 17.362 17.362 0 01-.782-.247 6.966 6.966 0 01-.774-.323 2.792 2.792 0 01-.671-.467 2.341 2.341 0 01-.476-.706c-.119-.277-.179-.614-.179-1.011 0-.363.071-.706.213-1.029.142-.328.354-.617.637-.867a3.17 3.17 0 011.054-.594c.425-.148.916-.222 1.471-.222.623 0 1.19.102 1.7.306.51.205.929.47 1.258.8l-.536.832zm8.057 0a.73.73 0 01-.196.212.488.488 0 01-.263.06.807.807 0 01-.349-.086 10.051 10.051 0 00-.399-.178 3.813 3.813 0 00-.51-.187 2.264 2.264 0 00-.655-.085c-.379 0-.674.08-.884.238a.722.722 0 00-.314.612.6.6 0 00.178.442c.119.119.275.224.468.315.198.085.422.167.671.246.25.074.505.156.765.246.267.091.524.196.774.315.249.119.47.27.663.45.198.176.357.392.476.646.119.25.178.553.178.91 0 .425-.079.819-.238 1.181a2.53 2.53 0 01-.68.927c-.3.26-.674.465-1.122.612-.447.147-.963.221-1.547.221-.3 0-.598-.028-.892-.085a4.969 4.969 0 01-.842-.221 5.74 5.74 0 01-.748-.349 3.348 3.348 0 01-.603-.425l.544-.875a.714.714 0 01.229-.238.714.714 0 01.366-.085.73.73 0 01.391.11l.399.23c.148.08.32.156.519.23.204.068.456.102.756.102.227 0 .422-.026.587-.077a1.15 1.15 0 00.399-.204.828.828 0 00.221-.297.842.842 0 00.077-.349.62.62 0 00-.187-.468 1.53 1.53 0 00-.476-.322 4.57 4.57 0 00-.672-.247 17.775 17.775 0 01-.782-.247 7.032 7.032 0 01-.773-.323 2.798 2.798 0 01-.672-.467 2.36 2.36 0 01-.476-.706c-.119-.277-.178-.614-.178-1.011 0-.363.071-.706.212-1.029.142-.328.354-.617.638-.867a3.15 3.15 0 011.054-.594c.425-.148.915-.222 1.47-.222.624 0 1.19.102 1.7.306.51.205.93.47 1.258.8l-.535.832zm7.189 3.297c-.572.029-1.048.08-1.428.154-.38.067-.683.158-.91.271-.221.114-.379.244-.476.392a.855.855 0 00-.136.467c0 .34.094.58.281.723.193.141.459.212.799.212.391 0 .728-.068 1.011-.204.289-.142.576-.36.859-.654v-1.36zm-4.777-3.884a5.187 5.187 0 011.708-1.037 5.752 5.752 0 012.023-.349c.522 0 .986.085 1.394.255.414.17.763.409 1.046.715.289.3.51.66.663 1.079.153.42.229.878.229 1.377V48h-1.071c-.221 0-.391-.031-.51-.093-.113-.063-.206-.193-.28-.391l-.187-.561a7.832 7.832 0 01-.646.51 3.832 3.832 0 01-.638.373 3.5 3.5 0 01-.714.221 4.207 4.207 0 01-.841.077c-.385 0-.737-.051-1.054-.153a2.383 2.383 0 01-.825-.45 2.08 2.08 0 01-.527-.757 2.7 2.7 0 01-.187-1.037c0-.323.083-.646.247-.969.164-.323.445-.615.841-.876.403-.266.935-.484 1.598-.654.669-.176 1.505-.275 2.508-.297v-.451c0-.55-.116-.952-.349-1.207-.232-.26-.566-.391-1.003-.391-.323 0-.592.04-.807.119a3.625 3.625 0 00-.57.247c-.158.084-.308.167-.45.246-.142.074-.306.11-.493.11a.712.712 0 01-.417-.118 1.255 1.255 0 01-.272-.298l-.416-.748zm12.694 2.839c.482 0 .836-.122 1.063-.365.232-.244.348-.559.348-.944 0-.402-.116-.717-.348-.944-.227-.232-.581-.348-1.063-.348-.481 0-.836.116-1.062.349-.227.226-.34.54-.34.943 0 .38.113.694.34.944.232.243.586.365 1.062.365zm2.219 5.066a.504.504 0 00-.145-.374 1 1 0 00-.391-.23 2.436 2.436 0 00-.569-.118 8.632 8.632 0 00-.706-.06 30.15 30.15 0 00-.773-.043 11.48 11.48 0 01-.782-.059c-.199.119-.363.26-.493.425a.855.855 0 00-.187.544c0 .142.031.272.093.391a.835.835 0 00.332.306c.153.085.354.15.603.195.25.051.561.077.935.077.386 0 .711-.026.978-.077.266-.05.481-.124.646-.22a.846.846 0 00.459-.757zm2.329-8.831v.858c0 .136-.04.244-.119.323-.074.08-.199.139-.374.178l-.714.145c.096.278.144.575.144.892 0 .437-.09.83-.272 1.182a2.687 2.687 0 01-.731.892c-.311.244-.68.434-1.105.57-.425.13-.884.195-1.377.195a4.75 4.75 0 01-.875-.076c-.238.147-.357.309-.357.484 0 .165.079.284.238.358.164.073.377.127.637.161.267.028.567.048.901.06.34.005.683.022 1.029.05.351.029.694.08 1.028.154.34.068.641.184.901.348.267.159.479.371.638.638.164.266.246.609.246 1.028 0 .391-.096.77-.289 1.139a3.052 3.052 0 01-.841.986c-.363.289-.811.521-1.343.697-.533.176-1.139.264-1.819.264-.675 0-1.261-.066-1.76-.196-.493-.125-.904-.295-1.232-.51a2.169 2.169 0 01-.723-.731 1.73 1.73 0 01-.238-.867c0-.391.119-.722.357-.994.238-.273.567-.49.986-.655a1.577 1.577 0 01-.535-.484c-.131-.205-.196-.468-.196-.791 0-.26.094-.535.281-.825.192-.288.487-.53.884-.722a2.838 2.838 0 01-1.063-.952c-.26-.402-.391-.87-.391-1.403 0-.436.088-.83.264-1.181.181-.351.43-.649.748-.892.317-.25.691-.44 1.122-.57.43-.13.898-.196 1.402-.196.748 0 1.408.148 1.981.443h2.567zm7.148 3.06c0-.244-.034-.477-.102-.697a1.56 1.56 0 00-.306-.587 1.457 1.457 0 00-.535-.4 1.796 1.796 0 00-.774-.153c-.561 0-1 .16-1.317.476-.318.318-.524.771-.621 1.36h3.655zm-3.689 1.394c.074.821.306 1.422.697 1.802.397.38.913.569 1.547.569.323 0 .601-.037.833-.11.238-.08.445-.165.621-.255.181-.097.343-.182.484-.255a.914.914 0 01.434-.12c.181 0 .323.069.425.205l.68.85c-.25.289-.524.53-.825.722-.3.187-.612.337-.935.45a4.973 4.973 0 01-.977.221 6.978 6.978 0 01-.952.069 4.88 4.88 0 01-1.717-.298 4.023 4.023 0 01-1.386-.892 4.248 4.248 0 01-.926-1.471c-.227-.584-.34-1.26-.34-2.032 0-.595.096-1.156.289-1.683.198-.527.481-.986.85-1.377.368-.39.816-.7 1.343-.926.527-.232 1.122-.349 1.785-.349.561 0 1.076.091 1.547.273.476.175.884.433 1.224.773.345.34.612.76.799 1.258.192.493.289 1.057.289 1.691 0 .176-.009.32-.026.434a.763.763 0 01-.085.272.328.328 0 01-.161.145.851.851 0 01-.264.034h-5.253zM22.944 72l-2.82-7.512h-.048c.024.248.044.584.06 1.008.016.416.024.852.024 1.308V72h-.996v-8.568h1.596l2.64 7.02h.048l2.688-7.02h1.584V72h-1.068v-5.268c0-.416.008-.828.024-1.236l.06-.996h-.048L23.832 72h-.888zm9.982-6.552c.552 0 1.024.12 1.416.36.4.24.704.58.912 1.02.216.432.324.94.324 1.524v.636h-4.404c.016.728.2 1.284.552 1.668.36.376.86.564 1.5.564.408 0 .768-.036 1.08-.108.32-.08.648-.192.984-.336v.924a4.723 4.723 0 01-.972.312c-.32.072-.7.108-1.14.108-.608 0-1.148-.124-1.62-.372a2.642 2.642 0 01-1.092-1.104c-.256-.496-.384-1.1-.384-1.812 0-.704.116-1.308.348-1.812.24-.504.572-.892.996-1.164.432-.272.932-.408 1.5-.408zm-.012.864c-.504 0-.904.164-1.2.492-.288.32-.46.768-.516 1.344h3.276c-.008-.544-.136-.984-.384-1.32-.248-.344-.64-.516-1.176-.516zm9.026 3.912c0 .624-.232 1.096-.696 1.416-.464.32-1.088.48-1.872.48a5.49 5.49 0 01-1.164-.108 3.553 3.553 0 01-.852-.3v-.96c.256.128.564.248.924.36.368.104.74.156 1.116.156.536 0 .924-.084 1.164-.252a.823.823 0 00.36-.696.745.745 0 00-.132-.432c-.088-.128-.248-.256-.48-.384a7.127 7.127 0 00-.972-.432 9.254 9.254 0 01-1.068-.48 1.972 1.972 0 01-.684-.576c-.16-.224-.24-.512-.24-.864 0-.544.22-.964.66-1.26.448-.296 1.032-.444 1.752-.444.392 0 .756.04 1.092.12a4.5 4.5 0 01.96.312l-.36.84a7.101 7.101 0 00-.852-.288 3.48 3.48 0 00-.912-.12c-.432 0-.764.072-.996.216-.224.136-.336.324-.336.564a.7.7 0 00.156.456c.104.12.276.24.516.36.248.112.576.248.984.408.408.152.756.308 1.044.468.288.16.508.356.66.588.152.224.228.508.228.852zm6.278 0c0 .624-.233 1.096-.697 1.416-.464.32-1.087.48-1.871.48a5.49 5.49 0 01-1.164-.108 3.553 3.553 0 01-.852-.3v-.96c.255.128.563.248.923.36.368.104.74.156 1.116.156.536 0 .924-.084 1.164-.252a.823.823 0 00.36-.696.745.745 0 00-.132-.432c-.087-.128-.247-.256-.48-.384a7.127 7.127 0 00-.971-.432 9.254 9.254 0 01-1.069-.48 1.972 1.972 0 01-.684-.576c-.16-.224-.24-.512-.24-.864 0-.544.22-.964.66-1.26.449-.296 1.032-.444 1.752-.444.392 0 .756.04 1.093.12a4.5 4.5 0 01.96.312l-.36.84a7.101 7.101 0 00-.852-.288 3.48 3.48 0 00-.913-.12c-.431 0-.764.072-.995.216-.224.136-.337.324-.337.564a.7.7 0 00.157.456c.103.12.276.24.515.36.248.112.576.248.984.408.409.152.757.308 1.045.468.288.16.508.356.66.588.151.224.227.508.227.852zm4.525-4.764c.784 0 1.364.172 1.74.516.376.344.564.892.564 1.644V72h-.768l-.204-.912h-.048c-.28.352-.576.612-.888.78-.304.168-.728.252-1.272.252-.584 0-1.068-.152-1.452-.456-.384-.312-.576-.796-.576-1.452 0-.64.252-1.132.756-1.476.504-.352 1.28-.544 2.328-.576l1.092-.036v-.384c0-.536-.116-.908-.348-1.116-.232-.208-.56-.312-.984-.312-.336 0-.656.052-.96.156a6.297 6.297 0 00-.852.336l-.324-.792c.28-.152.612-.28.996-.384a4.264 4.264 0 011.2-.168zm1.26 3.396l-.948.036c-.8.032-1.356.16-1.668.384-.304.224-.456.54-.456.948 0 .36.108.624.324.792.224.168.508.252.852.252.544 0 .996-.148 1.356-.444.36-.304.54-.768.54-1.392v-.576zm5.847-3.408c.424 0 .804.08 1.14.24.344.16.636.404.876.732h.06l.144-.852h.84v6.54c0 .92-.236 1.612-.708 2.076-.464.464-1.188.696-2.172.696-.944 0-1.716-.136-2.316-.408V73.5c.632.336 1.424.504 2.376.504.552 0 .984-.164 1.296-.492.32-.32.48-.76.48-1.32v-.252c0-.096.004-.232.012-.408.008-.184.016-.312.024-.384h-.048c-.432.648-1.096.972-1.992.972-.832 0-1.484-.292-1.956-.876-.464-.584-.696-1.4-.696-2.448 0-1.024.232-1.836.696-2.436.472-.608 1.12-.912 1.944-.912zm.144.888c-.536 0-.952.216-1.248.648-.296.424-.444 1.032-.444 1.824s.144 1.4.432 1.824c.296.416.724.624 1.284.624.648 0 1.12-.172 1.416-.516.296-.352.444-.916.444-1.692v-.252c0-.88-.152-1.508-.456-1.884-.304-.384-.78-.576-1.428-.576zm7.978-.888c.552 0 1.024.12 1.416.36.4.24.704.58.912 1.02.216.432.324.94.324 1.524v.636H66.22c.016.728.2 1.284.552 1.668.36.376.86.564 1.5.564.408 0 .768-.036 1.08-.108.32-.08.648-.192.984-.336v.924a4.723 4.723 0 01-.972.312c-.32.072-.7.108-1.14.108-.608 0-1.148-.124-1.62-.372a2.642 2.642 0 01-1.092-1.104c-.256-.496-.384-1.1-.384-1.812 0-.704.116-1.308.348-1.812.24-.504.572-.892.996-1.164.432-.272.932-.408 1.5-.408zm-.012.864c-.504 0-.904.164-1.2.492-.288.32-.46.768-.516 1.344h3.276c-.008-.544-.136-.984-.384-1.32-.248-.344-.64-.516-1.176-.516zM30.913 88.718c1.161 0 2.037.173 2.626.52.598.338.897.932.897 1.781 0 .546-.152 1.001-.455 1.365-.303.355-.741.585-1.313.689v.065c.39.06.741.173 1.053.338.32.165.572.399.754.702.182.303.273.698.273 1.183 0 .84-.29 1.49-.871 1.95-.572.46-1.356.689-2.353.689h-3.263v-9.282h2.652zm.234 3.952c.797 0 1.343-.126 1.638-.377.295-.26.442-.641.442-1.144 0-.511-.182-.875-.546-1.092-.355-.225-.927-.338-1.716-.338h-1.534v2.951h1.716zm-1.716.975v3.367h1.872c.823 0 1.395-.16 1.716-.481.32-.32.481-.741.481-1.261 0-.485-.169-.875-.507-1.17-.33-.303-.923-.455-1.781-.455h-1.781zm13.723.858c0 1.153-.295 2.045-.884 2.678-.58.633-1.37.949-2.366.949-.616 0-1.166-.139-1.651-.416a3.009 3.009 0 01-1.131-1.235c-.278-.546-.416-1.205-.416-1.976 0-1.153.29-2.041.87-2.665.581-.624 1.37-.936 2.367-.936.633 0 1.187.143 1.664.429.485.277.862.685 1.13 1.222.278.529.417 1.179.417 1.95zm-5.265 0c0 .823.16 1.478.48 1.963.33.477.85.715 1.56.715.703 0 1.218-.238 1.548-.715.33-.485.494-1.14.494-1.963 0-.823-.165-1.469-.494-1.937-.33-.468-.85-.702-1.56-.702-.71 0-1.227.234-1.547.702-.32.468-.481 1.114-.481 1.937zm10.968-3.601c.832 0 1.46.204 1.885.611.424.399.637 1.049.637 1.95V98h-1.131v-4.459c0-1.118-.52-1.677-1.56-1.677-.772 0-1.305.217-1.6.65-.294.433-.441 1.057-.441 1.872V98h-1.144v-6.968h.923l.169.949h.065c.225-.364.537-.633.936-.806a3.002 3.002 0 011.26-.273zm5.126-1.755c0-.251.065-.433.195-.546a.679.679 0 01.481-.182c.174 0 .325.06.455.182.14.113.208.295.208.546 0 .243-.069.425-.208.546a.646.646 0 01-.455.182.679.679 0 01-.48-.182c-.13-.121-.196-.303-.196-.546zm-.728 11.973c-.216 0-.407-.017-.572-.052a2.428 2.428 0 01-.429-.104v-.923c.13.035.265.065.403.091.14.026.29.039.455.039.278 0 .507-.078.69-.234.181-.147.272-.433.272-.858v-8.047h1.144v8.008c0 .65-.156 1.157-.468 1.521-.312.373-.81.559-1.495.559zm10.765-6.617c0 1.153-.295 2.045-.884 2.678-.58.633-1.37.949-2.366.949-.616 0-1.166-.139-1.651-.416a3.01 3.01 0 01-1.131-1.235c-.278-.546-.416-1.205-.416-1.976 0-1.153.29-2.041.87-2.665.581-.624 1.37-.936 2.367-.936.632 0 1.187.143 1.664.429.485.277.862.685 1.13 1.222.278.529.417 1.179.417 1.95zm-5.265 0c0 .823.16 1.478.48 1.963.33.477.85.715 1.56.715.703 0 1.218-.238 1.548-.715.33-.485.494-1.14.494-1.963 0-.823-.165-1.469-.494-1.937-.33-.468-.85-.702-1.56-.702-.71 0-1.227.234-1.547.702-.32.468-.481 1.114-.481 1.937zm13.437-3.471V98h-.935l-.17-.923h-.052a2.022 2.022 0 01-.935.806 3.303 3.303 0 01-1.274.247c-.841 0-1.474-.2-1.898-.598-.425-.407-.638-1.053-.638-1.937v-4.563h1.157v4.485c0 1.11.516 1.664 1.547 1.664.772 0 1.305-.217 1.6-.65.303-.433.455-1.057.455-1.872v-3.627h1.143zm5.998-.13c.13 0 .269.009.416.026.156.009.29.026.403.052l-.143 1.053a3.754 3.754 0 00-.754-.091c-.355 0-.689.1-1 .299-.313.19-.564.464-.755.819-.182.347-.273.754-.273 1.222V98H74.94v-6.968h.936l.13 1.274h.052c.226-.381.516-.71.871-.988a1.989 1.989 0 011.261-.416zM90.74 98l-1.118-2.873h-3.68L84.838 98h-1.183l3.627-9.321h1.053L91.948 98h-1.21zm-2.51-6.721a41.31 41.31 0 01-.312-.936 7.716 7.716 0 00-.13-.455 11.831 11.831 0 01-.402 1.391l-1.053 2.808h2.938l-1.04-2.808zm8.722-.377c.832 0 1.46.204 1.885.611.425.399.637 1.049.637 1.95V98h-1.13v-4.459c0-1.118-.52-1.677-1.56-1.677-.772 0-1.305.217-1.6.65-.294.433-.442 1.057-.442 1.872V98h-1.144v-6.968h.923l.17.949h.064c.226-.364.538-.633.936-.806a3.002 3.002 0 011.261-.273zm8.572 0c.832 0 1.461.204 1.885.611.425.399.637 1.049.637 1.95V98h-1.131v-4.459c0-1.118-.52-1.677-1.56-1.677-.771 0-1.304.217-1.599.65-.294.433-.442 1.057-.442 1.872V98h-1.144v-6.968h.923l.169.949h.065c.226-.364.538-.633.936-.806a3.003 3.003 0 011.261-.273zm7.857.013c.849 0 1.478.186 1.885.559.407.373.611.966.611 1.781V98h-.832l-.221-.988h-.052c-.303.381-.624.663-.962.845-.329.182-.789.273-1.378.273-.633 0-1.157-.165-1.573-.494-.416-.338-.624-.862-.624-1.573 0-.693.273-1.226.819-1.599.546-.381 1.387-.59 2.522-.624l1.183-.039v-.416c0-.58-.126-.984-.377-1.209-.251-.225-.607-.338-1.066-.338-.364 0-.711.056-1.04.169a6.834 6.834 0 00-.923.364l-.351-.858a5 5 0 011.079-.416 4.619 4.619 0 011.3-.182zm.338 3.718c-.867.035-1.469.173-1.807.416-.329.243-.494.585-.494 1.027 0 .39.117.676.351.858.243.182.55.273.923.273.589 0 1.079-.16 1.469-.481.39-.33.585-.832.585-1.508v-.624l-1.027.039zm6.237 2.002c-.113.46-.277.962-.494 1.508a27.953 27.953 0 01-.624 1.534h-.845c.121-.494.243-1.036.364-1.625.13-.59.225-1.11.286-1.56h1.222l.091.143zM34.8 106.718L31.485 116h-1.17L27 106.718h1.222l2.093 5.954c.139.381.256.741.351 1.079.095.329.173.646.234.949.06-.303.139-.624.234-.962.095-.338.212-.702.351-1.092l2.08-5.928H34.8zm7.44 5.785c0 1.153-.295 2.045-.884 2.678-.58.633-1.37.949-2.366.949a3.272 3.272 0 01-1.651-.416 3.012 3.012 0 01-1.131-1.235c-.278-.546-.416-1.205-.416-1.976 0-1.153.29-2.041.87-2.665.581-.624 1.37-.936 2.367-.936.632 0 1.187.143 1.664.429.485.277.862.685 1.13 1.222.278.529.417 1.179.417 1.95zm-5.265 0c0 .823.16 1.478.48 1.963.33.477.85.715 1.56.715.703 0 1.218-.238 1.548-.715.33-.485.494-1.14.494-1.963 0-.823-.165-1.469-.494-1.937-.33-.468-.85-.702-1.56-.702-.71 0-1.227.234-1.547.702-.32.468-.481 1.114-.481 1.937zm9.94 2.691c.174 0 .352-.013.534-.039.181-.035.329-.069.442-.104v.871a1.82 1.82 0 01-.52.143 3.47 3.47 0 01-.65.065 2.78 2.78 0 01-1.014-.182 1.602 1.602 0 01-.742-.663c-.19-.312-.286-.75-.286-1.313v-4.056h-.988v-.546l1.002-.455.455-1.482h.675v1.599h2.016v.884h-2.015v4.03c0 .425.1.741.299.949.208.199.472.299.793.299zm6.157-6.292c.13 0 .268.009.415.026.157.009.29.026.404.052l-.143 1.053a3.661 3.661 0 00-.755-.091c-.355 0-.689.1-1 .299a2.098 2.098 0 00-.755.819c-.181.347-.273.754-.273 1.222V116h-1.144v-6.968h.937l.13 1.274h.052a3.51 3.51 0 01.87-.988 1.991 1.991 0 011.261-.416zm5.092 0c.598 0 1.11.13 1.534.39a2.5 2.5 0 01.988 1.105c.234.468.351 1.018.351 1.651v.689h-4.77c.017.789.216 1.391.597 1.807.39.407.932.611 1.625.611.442 0 .832-.039 1.17-.117a7.09 7.09 0 001.066-.364v1.001a5.095 5.095 0 01-1.053.338 5.69 5.69 0 01-1.235.117c-.658 0-1.243-.134-1.755-.403a2.863 2.863 0 01-1.183-1.196c-.277-.537-.416-1.192-.416-1.963 0-.763.126-1.417.377-1.963.26-.546.62-.966 1.08-1.261.467-.295 1.01-.442 1.624-.442zm-.013.936c-.546 0-.979.178-1.3.533-.312.347-.498.832-.559 1.456h3.55c-.01-.589-.148-1.066-.417-1.43-.268-.373-.693-.559-1.274-.559zm11.579 6.292c-.867 0-1.56-.299-2.08-.897-.52-.607-.78-1.508-.78-2.704 0-1.196.26-2.097.78-2.704.528-.615 1.226-.923 2.093-.923.537 0 .975.1 1.313.299.346.199.628.442.845.728h.078a12.494 12.494 0 00-.052-.494 7.37 7.37 0 01-.026-.533v-2.782h1.144V116h-.923l-.17-.936h-.051a2.694 2.694 0 01-.832.754c-.347.208-.793.312-1.34.312zm.182-.949c.736 0 1.252-.199 1.547-.598.303-.407.455-1.018.455-1.833v-.208c0-.867-.143-1.53-.43-1.989-.285-.468-.814-.702-1.585-.702-.616 0-1.08.247-1.391.741-.304.485-.455 1.14-.455 1.963 0 .832.151 1.478.455 1.937.312.459.78.689 1.404.689zm8.572-6.279c.599 0 1.11.13 1.535.39a2.5 2.5 0 01.987 1.105c.234.468.352 1.018.352 1.651v.689h-4.772c.018.789.217 1.391.599 1.807.39.407.931.611 1.624.611.442 0 .832-.039 1.17-.117a7.094 7.094 0 001.067-.364v1.001a5.099 5.099 0 01-1.053.338 5.692 5.692 0 01-1.236.117c-.658 0-1.243-.134-1.755-.403a2.863 2.863 0 01-1.182-1.196c-.278-.537-.416-1.192-.416-1.963 0-.763.125-1.417.377-1.963.26-.546.62-.966 1.078-1.261.469-.295 1.01-.442 1.626-.442zm-.012.936c-.546 0-.98.178-1.3.533-.313.347-.499.832-.56 1.456h3.55c-.01-.589-.148-1.066-.416-1.43-.27-.373-.694-.559-1.274-.559zm12.84-.936c.788 0 1.377.204 1.767.611.39.399.585 1.049.585 1.95V116h-1.13v-4.485c0-1.101-.473-1.651-1.418-1.651-.676 0-1.161.195-1.456.585-.286.39-.429.958-.429 1.703V116h-1.13v-4.485c0-1.101-.478-1.651-1.43-1.651-.703 0-1.188.217-1.457.65-.269.433-.403 1.057-.403 1.872V116h-1.144v-6.968h.923l.17.949h.064c.217-.364.507-.633.871-.806a2.661 2.661 0 011.183-.273c1.092 0 1.803.39 2.132 1.17h.065a2.17 2.17 0 01.95-.884 2.995 2.995 0 011.286-.286zm7.68.013c.849 0 1.477.186 1.884.559.408.373.611.966.611 1.781V116h-.832l-.221-.988h-.052c-.303.381-.624.663-.962.845-.33.182-.788.273-1.378.273-.633 0-1.157-.165-1.573-.494-.416-.338-.624-.862-.624-1.573 0-.693.273-1.226.82-1.599.545-.381 1.386-.589 2.521-.624l1.183-.039v-.416c0-.581-.125-.984-.377-1.209-.251-.225-.607-.338-1.066-.338-.364 0-.71.056-1.04.169a6.78 6.78 0 00-.923.364l-.35-.858a5.006 5.006 0 011.078-.416c.416-.121.85-.182 1.3-.182zm.337 3.718c-.866.035-1.469.173-1.807.416-.33.243-.494.585-.494 1.027 0 .39.117.676.351.858.243.182.55.273.923.273.59 0 1.08-.16 1.47-.481.389-.329.584-.832.584-1.508v-.624l-1.027.039zm8.2-3.731c.832 0 1.46.204 1.885.611.425.399.637 1.049.637 1.95V116h-1.131v-4.459c0-1.118-.52-1.677-1.56-1.677-.771 0-1.304.217-1.599.65-.295.433-.442 1.057-.442 1.872V116h-1.144v-6.968h.923l.169.949h.065c.225-.364.537-.633.936-.806a3.003 3.003 0 011.261-.273zm7.688 7.228c-.867 0-1.56-.299-2.08-.897-.52-.607-.78-1.508-.78-2.704 0-1.196.26-2.097.78-2.704.529-.615 1.226-.923 2.093-.923.537 0 .975.1 1.313.299.347.199.628.442.845.728h.078a13.32 13.32 0 00-.052-.494 7.549 7.549 0 01-.026-.533v-2.782h1.144V116h-.923l-.169-.936h-.052a2.69 2.69 0 01-.832.754c-.347.208-.793.312-1.339.312zm.182-.949c.737 0 1.252-.199 1.547-.598.303-.407.455-1.018.455-1.833v-.208c0-.867-.143-1.53-.429-1.989-.286-.468-.815-.702-1.586-.702-.615 0-1.079.247-1.391.741-.303.485-.455 1.14-.455 1.963 0 .832.152 1.478.455 1.937.312.459.78.689 1.404.689zm8.573-6.279c.598 0 1.109.13 1.534.39.433.26.762.628.988 1.105.234.468.351 1.018.351 1.651v.689h-4.771c.017.789.216 1.391.598 1.807.39.407.931.611 1.625.611.442 0 .832-.039 1.17-.117a7.117 7.117 0 001.066-.364v1.001a5.122 5.122 0 01-1.053.338 5.698 5.698 0 01-1.235.117c-.659 0-1.244-.134-1.755-.403a2.86 2.86 0 01-1.183-1.196c-.278-.537-.416-1.192-.416-1.963 0-.763.125-1.417.377-1.963.26-.546.619-.966 1.079-1.261.468-.295 1.009-.442 1.625-.442zm-.013.936c-.546 0-.98.178-1.3.533-.312.347-.499.832-.559 1.456h3.549c-.009-.589-.148-1.066-.416-1.43-.269-.373-.694-.559-1.274-.559zm11.747-.923c.849 0 1.478.186 1.885.559.407.373.611.966.611 1.781V116h-.832l-.221-.988h-.052c-.303.381-.624.663-.962.845-.329.182-.789.273-1.378.273-.633 0-1.157-.165-1.573-.494-.416-.338-.624-.862-.624-1.573 0-.693.273-1.226.819-1.599.546-.381 1.387-.589 2.522-.624l1.183-.039v-.416c0-.581-.126-.984-.377-1.209-.251-.225-.607-.338-1.066-.338a3.18 3.18 0 00-1.04.169 6.795 6.795 0 00-.923.364l-.351-.858a5 5 0 011.079-.416 4.63 4.63 0 011.3-.182zm.338 3.718c-.867.035-1.469.173-1.807.416-.329.243-.494.585-.494 1.027 0 .39.117.676.351.858.243.182.55.273.923.273.589 0 1.079-.16 1.469-.481.39-.329.585-.832.585-1.508v-.624l-1.027.039zm9.902-4.108c0 .295-.008.572-.026.832a7.032 7.032 0 01-.039.598h.065c.2-.295.473-.542.819-.741.347-.199.793-.299 1.339-.299.867 0 1.56.303 2.08.91.529.598.793 1.495.793 2.691 0 1.196-.264 2.097-.793 2.704-.528.607-1.222.91-2.08.91-.546 0-.992-.1-1.339-.299a2.57 2.57 0 01-.819-.715h-.091l-.234.884h-.819v-9.88h1.144v2.405zm1.963 1.339c-.736 0-1.248.212-1.534.637-.286.425-.429 1.083-.429 1.976v.052c0 .858.139 1.517.416 1.976.286.451.811.676 1.573.676.624 0 1.088-.23 1.391-.689.312-.459.468-1.122.468-1.989 0-1.759-.628-2.639-1.885-2.639zm6.012-3.445c.174 0 .325.061.455.182.139.113.208.295.208.546 0 .243-.069.425-.208.546a.646.646 0 01-.455.182.68.68 0 01-.481-.182c-.13-.121-.195-.303-.195-.546 0-.251.065-.433.195-.546a.68.68 0 01.481-.182zm.559 2.613V116h-1.144v-6.968h1.144zm5.434-.13c.598 0 1.11.13 1.534.39.434.26.763.628.988 1.105.234.468.351 1.018.351 1.651v.689h-4.771c.018.789.217 1.391.598 1.807.39.407.932.611 1.625.611.442 0 .832-.039 1.17-.117a7.079 7.079 0 001.066-.364v1.001a5.084 5.084 0 01-1.053.338 5.685 5.685 0 01-1.235.117c-.658 0-1.243-.134-1.755-.403a2.867 2.867 0 01-1.183-1.196c-.277-.537-.416-1.192-.416-1.963 0-.763.126-1.417.377-1.963.26-.546.62-.966 1.079-1.261.468-.295 1.01-.442 1.625-.442zm-.013.936c-.546 0-.979.178-1.3.533-.312.347-.498.832-.559 1.456h3.549c-.008-.589-.147-1.066-.416-1.43-.268-.373-.693-.559-1.274-.559zm8.55-.936c.832 0 1.46.204 1.885.611.425.399.637 1.049.637 1.95V116h-1.131v-4.459c0-1.118-.52-1.677-1.56-1.677-.771 0-1.304.217-1.599.65-.295.433-.442 1.057-.442 1.872V116h-1.144v-6.968h.923l.169.949h.065c.225-.364.537-.633.936-.806a3.003 3.003 0 011.261-.273zm11.822 0c.598 0 1.109.13 1.534.39.433.26.762.628.988 1.105.234.468.351 1.018.351 1.651v.689h-4.771c.017.789.216 1.391.598 1.807.39.407.931.611 1.625.611.442 0 .832-.039 1.17-.117a7.117 7.117 0 001.066-.364v1.001a5.122 5.122 0 01-1.053.338 5.698 5.698 0 01-1.235.117c-.659 0-1.244-.134-1.755-.403a2.86 2.86 0 01-1.183-1.196c-.278-.537-.416-1.192-.416-1.963 0-.763.125-1.417.377-1.963.26-.546.619-.966 1.079-1.261.468-.295 1.009-.442 1.625-.442zm-.013.936c-.546 0-.98.178-1.3.533-.312.347-.499.832-.559 1.456h3.549c-.009-.589-.148-1.066-.416-1.43-.269-.373-.694-.559-1.274-.559zm1.755-3.666c-.104.156-.265.36-.481.611-.217.243-.451.49-.702.741a6.446 6.446 0 01-.676.598h-.754v-.156c.13-.165.268-.36.416-.585.156-.225.307-.455.455-.689.147-.243.268-.459.364-.65h1.378v.13zm5.767 9.022c.174 0 .351-.013.533-.039.182-.035.33-.069.442-.104v.871a1.811 1.811 0 01-.52.143 3.467 3.467 0 01-.65.065 2.78 2.78 0 01-1.014-.182 1.605 1.605 0 01-.741-.663c-.19-.312-.286-.75-.286-1.313v-4.056h-.988v-.546l1.001-.455.455-1.482h.676v1.599h2.015v.884h-2.015v4.03c0 .425.1.741.299.949.208.199.473.299.793.299zm5.597-6.292c.598 0 1.109.13 1.534.39a2.5 2.5 0 01.988 1.105c.234.468.351 1.018.351 1.651v.689h-4.771c.017.789.217 1.391.598 1.807.39.407.932.611 1.625.611.442 0 .832-.039 1.17-.117a7.079 7.079 0 001.066-.364v1.001a5.084 5.084 0 01-1.053.338 5.691 5.691 0 01-1.235.117c-.659 0-1.244-.134-1.755-.403a2.86 2.86 0 01-1.183-1.196c-.277-.537-.416-1.192-.416-1.963 0-.763.126-1.417.377-1.963.26-.546.62-.966 1.079-1.261.468-.295 1.01-.442 1.625-.442zm-.013.936c-.546 0-.979.178-1.3.533-.312.347-.498.832-.559 1.456h3.549c-.009-.589-.147-1.066-.416-1.43-.269-.373-.693-.559-1.274-.559zm1.755-3.666c-.104.156-.264.36-.481.611-.217.243-.451.49-.702.741a6.446 6.446 0 01-.676.598h-.754v-.156c.13-.165.269-.36.416-.585.156-.225.308-.455.455-.689.147-.243.269-.459.364-.65h1.378v.13zm10.603 2.73c.13 0 .269.009.416.026.156.009.291.026.403.052l-.143 1.053a3.62 3.62 0 00-.754-.091c-.355 0-.689.1-1.001.299a2.1 2.1 0 00-.754.819c-.182.347-.273.754-.273 1.222V116h-1.144v-6.968h.936l.13 1.274h.052c.226-.381.516-.711.871-.988a1.993 1.993 0 011.261-.416zm5.093 0c.598 0 1.11.13 1.534.39.434.26.763.628.988 1.105.234.468.351 1.018.351 1.651v.689h-4.771c.018.789.217 1.391.598 1.807.39.407.932.611 1.625.611.442 0 .832-.039 1.17-.117a7.079 7.079 0 001.066-.364v1.001a5.084 5.084 0 01-1.053.338 5.685 5.685 0 01-1.235.117c-.658 0-1.243-.134-1.755-.403a2.867 2.867 0 01-1.183-1.196c-.277-.537-.416-1.192-.416-1.963 0-.763.126-1.417.377-1.963.26-.546.62-.966 1.079-1.261.468-.295 1.01-.442 1.625-.442zm-.013.936c-.546 0-.979.178-1.3.533-.312.347-.498.832-.559 1.456h3.549c-.008-.589-.147-1.066-.416-1.43-.268-.373-.693-.559-1.274-.559zm7.991 6.292c-.615 0-1.166-.126-1.651-.377-.477-.251-.854-.641-1.131-1.17-.269-.529-.403-1.205-.403-2.028 0-.858.143-1.556.429-2.093.286-.537.672-.932 1.157-1.183.494-.251 1.053-.377 1.677-.377.355 0 .698.039 1.027.117.329.069.598.156.806.26l-.351.949a6.712 6.712 0 00-.728-.221 3.237 3.237 0 00-.78-.104c-1.369 0-2.054.88-2.054 2.639 0 .841.165 1.486.494 1.937.338.442.836.663 1.495.663.381 0 .715-.039 1.001-.117.295-.078.563-.173.806-.286v1.014a3.096 3.096 0 01-.78.273 4.256 4.256 0 01-1.014.104zm1.066 1.677c0 .416-.16.737-.481.962-.321.234-.802.351-1.443.351-.277 0-.494-.022-.65-.065v-.715c.078.017.182.03.312.039.13.017.256.026.377.026.312 0 .55-.043.715-.13.165-.078.247-.225.247-.442 0-.225-.117-.39-.351-.494a2.884 2.884 0 00-.832-.221l.559-1.118h.754l-.338.689c.312.069.576.191.793.364.225.173.338.425.338.754zm8.745-8.775V116h-.936l-.169-.923h-.052a2.027 2.027 0 01-.936.806 3.301 3.301 0 01-1.274.247c-.841 0-1.474-.199-1.898-.598-.425-.407-.637-1.053-.637-1.937v-4.563h1.157v4.485c0 1.109.515 1.664 1.547 1.664.771 0 1.304-.217 1.599-.65.303-.433.455-1.057.455-1.872v-3.627h1.144zm5.439-.13c.598 0 1.109.13 1.534.39.433.26.762.628.988 1.105.234.468.351 1.018.351 1.651v.689h-4.771c.017.789.216 1.391.598 1.807.39.407.931.611 1.625.611.442 0 .832-.039 1.17-.117a7.117 7.117 0 001.066-.364v1.001a5.122 5.122 0 01-1.053.338 5.698 5.698 0 01-1.235.117c-.659 0-1.244-.134-1.755-.403a2.86 2.86 0 01-1.183-1.196c-.278-.537-.416-1.192-.416-1.963 0-.763.125-1.417.377-1.963.26-.546.619-.966 1.079-1.261.468-.295 1.009-.442 1.625-.442zm-.013.936c-.546 0-.98.178-1.3.533-.312.347-.499.832-.559 1.456h3.549c-.009-.589-.148-1.066-.416-1.43-.269-.373-.694-.559-1.274-.559zm5.026 5.46c0-.321.078-.546.234-.676a.846.846 0 01.559-.195c.226 0 .416.065.572.195.165.13.247.355.247.676 0 .312-.082.537-.247.676a.828.828 0 01-.572.208.813.813 0 01-.559-.208c-.156-.139-.234-.364-.234-.676zM35.619 134h-1.365l-4.966-7.709h-.052l.065 1.131c.026.451.039.914.039 1.391V134h-1.079v-9.282h1.352l4.953 7.683h.052l-.039-.624a43.364 43.364 0 00-.039-.91 34.638 34.638 0 01-.013-.91v-5.239h1.092V134zm8.957-3.497c0 1.153-.295 2.045-.884 2.678-.581.633-1.37.949-2.366.949a3.271 3.271 0 01-1.651-.416 3.01 3.01 0 01-1.131-1.235c-.278-.546-.416-1.205-.416-1.976 0-1.153.29-2.041.87-2.665.581-.624 1.37-.936 2.367-.936.632 0 1.187.143 1.664.429.485.277.862.685 1.13 1.222.278.529.417 1.179.417 1.95zm-5.265 0c0 .823.16 1.478.48 1.963.33.477.85.715 1.56.715.703 0 1.218-.238 1.548-.715.329-.485.494-1.14.494-1.963 0-.823-.165-1.469-.494-1.937-.33-.468-.85-.702-1.56-.702-.711 0-1.227.234-1.547.702-.321.468-.481 1.114-.481 1.937zm13.438-3.471V134h-.937l-.168-.923h-.052a2.021 2.021 0 01-.936.806 3.298 3.298 0 01-1.274.247c-.841 0-1.474-.199-1.898-.598-.425-.407-.638-1.053-.638-1.937v-4.563h1.158v4.485c0 1.109.515 1.664 1.547 1.664.77 0 1.304-.217 1.599-.65.303-.433.455-1.057.455-1.872v-3.627h1.144zm7.284 5.044c0 .676-.251 1.187-.754 1.534-.502.347-1.178.52-2.028.52-.485 0-.905-.039-1.26-.117a3.836 3.836 0 01-.924-.325v-1.04c.278.139.611.269 1.001.39.399.113.802.169 1.21.169.58 0 1-.091 1.26-.273a.892.892 0 00.39-.754.808.808 0 00-.143-.468c-.095-.139-.268-.277-.52-.416a7.631 7.631 0 00-1.053-.468c-.45-.173-.836-.347-1.157-.52a2.13 2.13 0 01-.74-.624c-.174-.243-.26-.555-.26-.936 0-.589.238-1.044.714-1.365.486-.321 1.118-.481 1.898-.481.425 0 .82.043 1.183.13.373.078.72.191 1.04.338l-.39.91a7.807 7.807 0 00-.923-.312c-.32-.087-.65-.13-.988-.13-.468 0-.827.078-1.079.234-.242.147-.364.351-.364.611a.76.76 0 00.17.494c.112.13.298.26.558.39.269.121.624.269 1.066.442.442.165.82.334 1.131.507.312.173.55.386.715.637.165.243.247.55.247.923zm8.46 1.118c.173 0 .35-.013.532-.039a4.28 4.28 0 00.442-.104v.871a1.82 1.82 0 01-.52.143 3.47 3.47 0 01-.65.065 2.78 2.78 0 01-1.014-.182 1.602 1.602 0 01-.74-.663c-.191-.312-.287-.75-.287-1.313v-4.056h-.988v-.546l1.001-.455.455-1.482h.676v1.599h2.015v.884H67.4v4.03c0 .425.1.741.3.949a1.1 1.1 0 00.792.299zm6.155-6.292c.13 0 .27.009.416.026.156.009.29.026.403.052l-.143 1.053a3.666 3.666 0 00-.754-.091c-.355 0-.689.1-1 .299a2.098 2.098 0 00-.755.819c-.182.347-.273.754-.273 1.222V134h-1.144v-6.968h.936l.13 1.274h.052c.226-.381.516-.711.871-.988a1.99 1.99 0 011.261-.416zm5.041.013c.85 0 1.478.186 1.885.559.408.373.611.966.611 1.781V134h-.832l-.22-.988h-.053c-.303.381-.624.663-.962.845-.329.182-.788.273-1.378.273-.632 0-1.157-.165-1.573-.494-.416-.338-.624-.862-.624-1.573 0-.693.273-1.226.82-1.599.545-.381 1.386-.589 2.521-.624l1.183-.039v-.416c0-.581-.125-.984-.377-1.209-.251-.225-.606-.338-1.066-.338-.364 0-.71.056-1.04.169a6.78 6.78 0 00-.923.364l-.35-.858a5.006 5.006 0 011.078-.416c.416-.121.85-.182 1.3-.182zm.338 3.718c-.866.035-1.469.173-1.807.416-.329.243-.494.585-.494 1.027 0 .39.117.676.351.858.243.182.55.273.923.273.59 0 1.08-.16 1.47-.481.39-.329.584-.832.584-1.508v-.624l-1.027.039zm5.431-6.214c.174 0 .325.061.455.182.139.113.208.295.208.546 0 .243-.07.425-.208.546a.647.647 0 01-.455.182.68.68 0 01-.48-.182c-.13-.121-.196-.303-.196-.546 0-.251.065-.433.195-.546a.68.68 0 01.481-.182zm.56 2.613V134h-1.145v-6.968h1.144zm5.07 6.162c.173 0 .35-.013.532-.039a4.28 4.28 0 00.442-.104v.871a1.82 1.82 0 01-.52.143 3.47 3.47 0 01-.65.065 2.78 2.78 0 01-1.014-.182 1.602 1.602 0 01-.74-.663c-.191-.312-.287-.75-.287-1.313v-4.056h-.988v-.546l1.001-.455.455-1.482h.676v1.599h2.015v.884h-2.015v4.03c0 .425.1.741.3.949a1.1 1.1 0 00.792.299zm5.596-6.292c.598 0 1.11.13 1.534.39a2.5 2.5 0 01.988 1.105c.234.468.351 1.018.351 1.651v.689h-4.77c.017.789.216 1.391.597 1.807.39.407.932.611 1.625.611.442 0 .832-.039 1.17-.117a7.09 7.09 0 001.066-.364v1.001a5.095 5.095 0 01-1.053.338 5.691 5.691 0 01-1.235.117c-.658 0-1.243-.134-1.755-.403a2.863 2.863 0 01-1.183-1.196c-.277-.537-.416-1.192-.416-1.963 0-.763.126-1.417.377-1.963.26-.546.62-.966 1.08-1.261.467-.295 1.01-.442 1.624-.442zm-.013.936c-.546 0-.979.178-1.3.533-.312.347-.498.832-.559 1.456h3.55c-.01-.589-.148-1.066-.417-1.43-.268-.373-.693-.559-1.274-.559zm8.446-.936c.13 0 .269.009.416.026.156.009.29.026.403.052l-.143 1.053a3.666 3.666 0 00-.754-.091c-.355 0-.689.1-1.001.299a2.1 2.1 0 00-.754.819c-.182.347-.273.754-.273 1.222V134h-1.144v-6.968h.936l.13 1.274h.052c.225-.381.516-.711.871-.988a1.99 1.99 0 011.261-.416zm8.46 3.601c0 1.153-.295 2.045-.884 2.678-.581.633-1.369.949-2.366.949a3.271 3.271 0 01-1.651-.416 3.007 3.007 0 01-1.131-1.235c-.277-.546-.416-1.205-.416-1.976 0-1.153.29-2.041.871-2.665.581-.624 1.369-.936 2.366-.936.633 0 1.187.143 1.664.429a2.82 2.82 0 011.131 1.222c.277.529.416 1.179.416 1.95zm-5.265 0c0 .823.16 1.478.481 1.963.329.477.849.715 1.56.715.702 0 1.218-.238 1.547-.715.329-.485.494-1.14.494-1.963 0-.823-.165-1.469-.494-1.937-.329-.468-.849-.702-1.56-.702-.711 0-1.226.234-1.547.702-.321.468-.481 1.114-.481 1.937zm10.968-3.601c.832 0 1.46.204 1.885.611.424.399.637 1.049.637 1.95V134h-1.131v-4.459c0-1.118-.52-1.677-1.56-1.677-.772 0-1.305.217-1.599.65-.295.433-.442 1.057-.442 1.872V134h-1.144v-6.968h.923l.169.949h.065c.225-.364.537-.633.936-.806a3 3 0 011.261-.273zm9.755 5.174c0 .676-.252 1.187-.754 1.534-.503.347-1.179.52-2.028.52a5.94 5.94 0 01-1.261-.117 3.82 3.82 0 01-.923-.325v-1.04c.277.139.611.269 1.001.39.398.113.801.169 1.209.169.58 0 1.001-.091 1.261-.273a.892.892 0 00.39-.754.81.81 0 00-.143-.468c-.096-.139-.269-.277-.52-.416a7.676 7.676 0 00-1.053-.468 9.948 9.948 0 01-1.157-.52 2.123 2.123 0 01-.741-.624c-.174-.243-.26-.555-.26-.936 0-.589.238-1.044.715-1.365.485-.321 1.118-.481 1.898-.481.424 0 .819.043 1.183.13.372.078.719.191 1.04.338l-.39.91a7.875 7.875 0 00-.923-.312 3.758 3.758 0 00-.988-.13c-.468 0-.828.078-1.079.234-.243.147-.364.351-.364.611 0 .191.056.355.169.494.112.13.299.26.559.39.268.121.624.269 1.066.442.442.165.819.334 1.131.507.312.173.55.386.715.637.164.243.247.55.247.923zm7.666 1.924l-2.639-6.968h1.222l1.482 4.108c.069.191.143.403.221.637.078.234.147.459.208.676.06.208.104.386.13.533h.052c.034-.147.082-.329.143-.546.069-.217.143-.442.221-.676.086-.234.16-.442.221-.624l1.482-4.108h1.222L138.014 134h-1.313zm11.661-3.497c0 1.153-.295 2.045-.884 2.678-.581.633-1.369.949-2.366.949a3.271 3.271 0 01-1.651-.416 3.007 3.007 0 01-1.131-1.235c-.277-.546-.416-1.205-.416-1.976 0-1.153.29-2.041.871-2.665.581-.624 1.369-.936 2.366-.936.633 0 1.187.143 1.664.429a2.82 2.82 0 011.131 1.222c.277.529.416 1.179.416 1.95zm-5.265 0c0 .823.16 1.478.481 1.963.329.477.849.715 1.56.715.702 0 1.218-.238 1.547-.715.329-.485.494-1.14.494-1.963 0-.823-.165-1.469-.494-1.937-.329-.468-.849-.702-1.56-.702-.711 0-1.226.234-1.547.702-.321.468-.481 1.114-.481 1.937zm9.941 2.691c.173 0 .351-.013.533-.039.182-.035.329-.069.442-.104v.871a1.83 1.83 0 01-.52.143 3.475 3.475 0 01-.65.065 2.78 2.78 0 01-1.014-.182 1.596 1.596 0 01-.741-.663c-.191-.312-.286-.75-.286-1.313v-4.056h-.988v-.546l1.001-.455.455-1.482h.676v1.599h2.015v.884h-2.015v4.03c0 .425.099.741.299.949a1.1 1.1 0 00.793.299zm6.156-6.292c.13 0 .268.009.416.026.156.009.29.026.403.052l-.143 1.053a3.714 3.714 0 00-.754-.091c-.356 0-.689.1-1.001.299a2.093 2.093 0 00-.754.819c-.182.347-.273.754-.273 1.222V134h-1.144v-6.968h.936l.13 1.274h.052c.225-.381.515-.711.871-.988a1.989 1.989 0 011.261-.416zm5.093 0c.598 0 1.109.13 1.534.39.433.26.762.628.988 1.105.234.468.351 1.018.351 1.651v.689h-4.771c.017.789.216 1.391.598 1.807.39.407.931.611 1.625.611.442 0 .832-.039 1.17-.117a7.117 7.117 0 001.066-.364v1.001a5.122 5.122 0 01-1.053.338 5.698 5.698 0 01-1.235.117c-.659 0-1.244-.134-1.755-.403a2.86 2.86 0 01-1.183-1.196c-.278-.537-.416-1.192-.416-1.963 0-.763.125-1.417.377-1.963.26-.546.619-.966 1.079-1.261.468-.295 1.009-.442 1.625-.442zm-.013.936c-.546 0-.98.178-1.3.533-.312.347-.499.832-.559 1.456h3.549c-.009-.589-.148-1.066-.416-1.43-.269-.373-.694-.559-1.274-.559zm11.578 6.292c-.867 0-1.56-.299-2.08-.897-.52-.607-.78-1.508-.78-2.704 0-1.196.26-2.097.78-2.704.529-.615 1.226-.923 2.093-.923.537 0 .975.1 1.313.299.347.199.628.442.845.728h.078a13.32 13.32 0 00-.052-.494 7.549 7.549 0 01-.026-.533v-2.782h1.144V134h-.923l-.169-.936h-.052a2.69 2.69 0 01-.832.754c-.347.208-.793.312-1.339.312zm.182-.949c.737 0 1.252-.199 1.547-.598.303-.407.455-1.018.455-1.833v-.208c0-.867-.143-1.53-.429-1.989-.286-.468-.815-.702-1.586-.702-.615 0-1.079.247-1.391.741-.303.485-.455 1.14-.455 1.963 0 .832.152 1.478.455 1.937.312.459.78.689 1.404.689zm8.573-6.279c.598 0 1.109.13 1.534.39.433.26.762.628.988 1.105.234.468.351 1.018.351 1.651v.689h-4.771c.017.789.216 1.391.598 1.807.39.407.931.611 1.625.611.442 0 .832-.039 1.17-.117a7.117 7.117 0 001.066-.364v1.001a5.122 5.122 0 01-1.053.338 5.698 5.698 0 01-1.235.117c-.659 0-1.244-.134-1.755-.403a2.86 2.86 0 01-1.183-1.196c-.278-.537-.416-1.192-.416-1.963 0-.763.125-1.417.377-1.963.26-.546.619-.966 1.079-1.261.468-.295 1.009-.442 1.625-.442zm-.013.936c-.546 0-.98.178-1.3.533-.312.347-.499.832-.559 1.456h3.549c-.009-.589-.148-1.066-.416-1.43-.269-.373-.694-.559-1.274-.559zm12.839-.936c.789 0 1.378.204 1.768.611.39.399.585 1.049.585 1.95V134h-1.131v-4.485c0-1.101-.472-1.651-1.417-1.651-.676 0-1.161.195-1.456.585-.286.39-.429.958-.429 1.703V134h-1.131v-4.485c0-1.101-.476-1.651-1.43-1.651-.702 0-1.187.217-1.456.65-.268.433-.403 1.057-.403 1.872V134h-1.144v-6.968h.923l.169.949h.065a2 2 0 01.871-.806 2.662 2.662 0 011.183-.273c1.092 0 1.803.39 2.132 1.17h.065c.234-.399.551-.693.949-.884a3 3 0 011.287-.286zm7.68.013c.85 0 1.478.186 1.885.559.408.373.611.966.611 1.781V134h-.832l-.221-.988h-.052c-.303.381-.624.663-.962.845-.329.182-.788.273-1.378.273-.632 0-1.157-.165-1.573-.494-.416-.338-.624-.862-.624-1.573 0-.693.273-1.226.819-1.599.546-.381 1.387-.589 2.522-.624l1.183-.039v-.416c0-.581-.125-.984-.377-1.209-.251-.225-.606-.338-1.066-.338-.364 0-.71.056-1.04.169a6.795 6.795 0 00-.923.364l-.351-.858a5.02 5.02 0 011.079-.416c.416-.121.85-.182 1.3-.182zm.338 3.718c-.866.035-1.469.173-1.807.416-.329.243-.494.585-.494 1.027 0 .39.117.676.351.858.243.182.551.273.923.273.59 0 1.079-.16 1.469-.481.39-.329.585-.832.585-1.508v-.624l-1.027.039zm8.2-3.731c.832 0 1.461.204 1.885.611.425.399.637 1.049.637 1.95V134h-1.131v-4.459c0-1.118-.52-1.677-1.56-1.677-.771 0-1.304.217-1.599.65-.294.433-.442 1.057-.442 1.872V134h-1.144v-6.968h.923l.169.949h.065c.226-.364.538-.633.936-.806a3.003 3.003 0 011.261-.273zm7.688 7.228c-.867 0-1.56-.299-2.08-.897-.52-.607-.78-1.508-.78-2.704 0-1.196.26-2.097.78-2.704.529-.615 1.226-.923 2.093-.923.537 0 .975.1 1.313.299.347.199.628.442.845.728h.078a13.32 13.32 0 00-.052-.494 7.549 7.549 0 01-.026-.533v-2.782h1.144V134h-.923l-.169-.936h-.052a2.69 2.69 0 01-.832.754c-.347.208-.793.312-1.339.312zm.182-.949c.737 0 1.252-.199 1.547-.598.303-.407.455-1.018.455-1.833v-.208c0-.867-.143-1.53-.429-1.989-.286-.468-.815-.702-1.586-.702-.615 0-1.079.247-1.391.741-.303.485-.455 1.14-.455 1.963 0 .832.152 1.478.455 1.937.312.459.78.689 1.404.689zm8.573-6.279c.598 0 1.109.13 1.534.39a2.5 2.5 0 01.988 1.105c.234.468.351 1.018.351 1.651v.689h-4.771c.017.789.217 1.391.598 1.807.39.407.932.611 1.625.611.442 0 .832-.039 1.17-.117a7.079 7.079 0 001.066-.364v1.001a5.084 5.084 0 01-1.053.338 5.691 5.691 0 01-1.235.117c-.659 0-1.244-.134-1.755-.403a2.86 2.86 0 01-1.183-1.196c-.277-.537-.416-1.192-.416-1.963 0-.763.126-1.417.377-1.963.26-.546.62-.966 1.079-1.261.468-.295 1.01-.442 1.625-.442zm-.013.936c-.546 0-.979.178-1.3.533-.312.347-.498.832-.559 1.456h3.549c-.009-.589-.147-1.066-.416-1.43-.269-.373-.693-.559-1.274-.559zm11.578 6.292c-.867 0-1.56-.299-2.08-.897-.52-.607-.78-1.508-.78-2.704 0-1.196.26-2.097.78-2.704.529-.615 1.226-.923 2.093-.923.537 0 .975.1 1.313.299.347.199.628.442.845.728h.078a13.32 13.32 0 00-.052-.494 7.549 7.549 0 01-.026-.533v-2.782h1.144V134h-.923l-.169-.936h-.052a2.69 2.69 0 01-.832.754c-.347.208-.793.312-1.339.312zm.182-.949c.737 0 1.252-.199 1.547-.598.303-.407.455-1.018.455-1.833v-.208c0-.867-.143-1.53-.429-1.989-.286-.468-.815-.702-1.586-.702-.615 0-1.079.247-1.391.741-.303.485-.455 1.14-.455 1.963 0 .832.152 1.478.455 1.937.312.459.78.689 1.404.689zm6.896-8.32a13.21 13.21 0 01-.494 1.521 24.692 24.692 0 01-.624 1.521h-.845c.087-.329.169-.68.247-1.053.087-.381.165-.754.234-1.118.069-.373.126-.711.169-1.014h1.222l.091.143zm2.379-.442c.173 0 .325.061.455.182.139.113.208.295.208.546 0 .243-.069.425-.208.546a.648.648 0 01-.455.182.68.68 0 01-.481-.182c-.13-.121-.195-.303-.195-.546 0-.251.065-.433.195-.546a.68.68 0 01.481-.182zm.559 2.613V134h-1.144v-6.968h1.144zm5.538 7.098c-.615 0-1.165-.126-1.651-.377-.476-.251-.853-.641-1.131-1.17-.268-.529-.403-1.205-.403-2.028 0-.858.143-1.556.429-2.093.286-.537.672-.932 1.157-1.183.494-.251 1.053-.377 1.677-.377.356 0 .698.039 1.027.117.33.069.598.156.806.26l-.351.949a6.644 6.644 0 00-.728-.221 3.237 3.237 0 00-.78-.104c-1.369 0-2.054.88-2.054 2.639 0 .841.165 1.486.494 1.937.338.442.837.663 1.495.663.382 0 .715-.039 1.001-.117.295-.078.564-.173.806-.286v1.014a3.096 3.096 0 01-.78.273 4.256 4.256 0 01-1.014.104zm4.572-9.711c.173 0 .325.061.455.182.139.113.208.295.208.546 0 .243-.069.425-.208.546a.648.648 0 01-.455.182.68.68 0 01-.481-.182c-.13-.121-.195-.303-.195-.546 0-.251.065-.433.195-.546a.68.68 0 01.481-.182zm.559 2.613V134H261.2v-6.968h1.144zM29.249 152h-1.144v-9.88h1.144V152zm5.434-7.098c.598 0 1.11.13 1.534.39a2.5 2.5 0 01.988 1.105c.234.468.351 1.018.351 1.651v.689h-4.77c.017.789.216 1.391.597 1.807.39.407.932.611 1.625.611.442 0 .832-.039 1.17-.117a7.094 7.094 0 001.066-.364v1.001a5.099 5.099 0 01-1.053.338 5.692 5.692 0 01-1.235.117c-.658 0-1.243-.134-1.755-.403a2.863 2.863 0 01-1.183-1.196c-.277-.537-.416-1.192-.416-1.963 0-.763.126-1.417.377-1.963.26-.546.62-.966 1.08-1.261.467-.295 1.009-.442 1.624-.442zm-.013.936c-.546 0-.98.178-1.3.533-.312.347-.498.832-.559 1.456h3.55c-.01-.589-.148-1.066-.417-1.43-.268-.373-.693-.559-1.274-.559zm9.733 4.238c0 .676-.252 1.187-.754 1.534-.503.347-1.179.52-2.028.52-.486 0-.906-.039-1.261-.117a3.833 3.833 0 01-.923-.325v-1.04c.277.139.61.269 1 .39.4.113.803.169 1.21.169.58 0 1-.091 1.26-.273a.892.892 0 00.39-.754.809.809 0 00-.142-.468c-.096-.139-.269-.277-.52-.416a7.642 7.642 0 00-1.053-.468c-.45-.173-.837-.347-1.157-.52a2.129 2.129 0 01-.741-.624c-.173-.243-.26-.555-.26-.936 0-.589.238-1.044.715-1.365.485-.321 1.118-.481 1.898-.481.425 0 .819.043 1.183.13.373.078.72.191 1.04.338l-.39.91a7.819 7.819 0 00-.923-.312c-.32-.087-.65-.13-.988-.13-.468 0-.828.078-1.08.234-.242.147-.363.351-.363.611 0 .191.056.355.169.494.112.13.299.26.559.39.269.121.624.269 1.066.442.442.165.819.334 1.13.507.313.173.551.386.716.637.165.243.247.55.247.923zM54.045 152h-1.118v-6.487c0-.373.004-.672.013-.897.009-.225.022-.459.039-.702a6.105 6.105 0 01-.377.351l-.429.364-.988.806-.598-.767 2.509-1.95h.949V152zm10.16-4.654c0 .997-.105 1.855-.313 2.574-.208.711-.537 1.257-.988 1.638-.45.381-1.049.572-1.794.572-1.048 0-1.824-.42-2.327-1.261-.494-.849-.74-2.024-.74-3.523 0-1.005.099-1.863.298-2.574.208-.711.538-1.252.988-1.625.45-.381 1.044-.572 1.781-.572 1.04 0 1.816.42 2.327 1.261.512.832.767 2.002.767 3.51zm-5.019 0c0 1.274.143 2.227.43 2.86.294.633.792.949 1.494.949.694 0 1.188-.312 1.482-.936.303-.633.455-1.59.455-2.873 0-1.265-.151-2.214-.455-2.847-.294-.633-.788-.949-1.482-.949-.702 0-1.2.316-1.495.949-.286.633-.429 1.582-.429 2.847zm14.527-2.444c.858 0 1.547.299 2.067.897.529.598.793 1.499.793 2.704 0 1.187-.264 2.089-.793 2.704-.52.615-1.213.923-2.08.923-.537 0-.984-.1-1.339-.299a2.778 2.778 0 01-.819-.715h-.078c.017.147.035.334.052.559.017.225.026.42.026.585v2.86h-1.144v-10.088h.936l.156.949h.052c.208-.303.481-.559.819-.767.338-.208.789-.312 1.352-.312zm-.208.962c-.71 0-1.213.199-1.508.598-.286.399-.438 1.005-.455 1.82v.221c0 .858.139 1.521.416 1.989.286.459.81.689 1.573.689.425 0 .771-.117 1.04-.351.277-.234.481-.55.611-.949.139-.407.208-.871.208-1.391 0-.797-.156-1.434-.468-1.911-.303-.477-.776-.715-1.417-.715zm8.677-.962c.13 0 .268.009.416.026.156.009.29.026.403.052l-.143 1.053a3.661 3.661 0 00-.754-.091c-.356 0-.69.1-1.001.299a2.098 2.098 0 00-.754.819c-.182.347-.273.754-.273 1.222V152h-1.144v-6.968h.936l.13 1.274h.052a3.51 3.51 0 01.87-.988 1.991 1.991 0 011.262-.416zm8.46 3.601c0 1.153-.295 2.045-.884 2.678-.581.633-1.37.949-2.366.949a3.271 3.271 0 01-1.651-.416 3.01 3.01 0 01-1.131-1.235c-.278-.546-.416-1.205-.416-1.976 0-1.153.29-2.041.87-2.665.581-.624 1.37-.936 2.367-.936.632 0 1.187.143 1.664.429.485.277.862.685 1.13 1.222.278.529.417 1.179.417 1.95zm-5.265 0c0 .823.16 1.478.48 1.963.33.477.85.715 1.56.715.703 0 1.218-.238 1.548-.715.329-.485.494-1.14.494-1.963 0-.823-.165-1.469-.494-1.937-.33-.468-.85-.702-1.56-.702-.711 0-1.227.234-1.547.702-.321.468-.481 1.114-.481 1.937zm10.409 3.627c-.616 0-1.166-.126-1.651-.377-.477-.251-.854-.641-1.132-1.17-.268-.529-.403-1.205-.403-2.028 0-.858.144-1.556.43-2.093.285-.537.671-.932 1.156-1.183.494-.251 1.053-.377 1.677-.377.356 0 .698.039 1.028.117.329.069.597.156.805.26l-.35.949a6.692 6.692 0 00-.728-.221 3.242 3.242 0 00-.78-.104c-1.37 0-2.054.88-2.054 2.639 0 .841.164 1.486.493 1.937.338.442.837.663 1.495.663.382 0 .715-.039 1.001-.117.295-.078.564-.173.806-.286v1.014a3.096 3.096 0 01-.78.273 4.261 4.261 0 01-1.014.104zm5.13-7.111c0 .347-.021.672-.065.975h.078c.226-.355.529-.624.91-.806.39-.182.811-.273 1.261-.273.85 0 1.487.204 1.911.611.425.399.637 1.044.637 1.937V152h-1.131v-4.459c0-1.118-.52-1.677-1.56-1.677-.78 0-1.317.221-1.612.663-.286.433-.429 1.057-.429 1.872V152h-1.144v-9.88h1.144v2.899zm10.067-.104c.849 0 1.478.186 1.885.559.407.373.611.966.611 1.781V152h-.832l-.221-.988h-.052c-.303.381-.624.663-.962.845-.329.182-.789.273-1.378.273-.633 0-1.157-.165-1.573-.494-.416-.338-.624-.862-.624-1.573 0-.693.273-1.226.819-1.599.546-.381 1.387-.589 2.522-.624l1.183-.039v-.416c0-.581-.126-.984-.377-1.209-.251-.225-.607-.338-1.066-.338a3.18 3.18 0 00-1.04.169 6.795 6.795 0 00-.923.364l-.351-.858a5 5 0 011.079-.416 4.63 4.63 0 011.3-.182zm.338 3.718c-.867.035-1.469.173-1.807.416-.329.243-.494.585-.494 1.027 0 .39.117.676.351.858.243.182.55.273.923.273.589 0 1.079-.16 1.469-.481.39-.329.585-.832.585-1.508v-.624l-1.027.039zm5.431-6.214c.173 0 .325.061.455.182.139.113.208.295.208.546 0 .243-.069.425-.208.546a.648.648 0 01-.455.182.68.68 0 01-.481-.182c-.13-.121-.195-.303-.195-.546 0-.251.065-.433.195-.546a.68.68 0 01.481-.182zm.559 2.613V152h-1.144v-6.968h1.144zm6.097-.13c.832 0 1.461.204 1.885.611.425.399.637 1.049.637 1.95V152h-1.131v-4.459c0-1.118-.52-1.677-1.56-1.677-.771 0-1.304.217-1.599.65-.294.433-.442 1.057-.442 1.872V152h-1.144v-6.968h.923l.169.949h.065c.226-.364.538-.633.936-.806a3.003 3.003 0 011.261-.273zm9.755 5.174c0 .676-.251 1.187-.754 1.534s-1.179.52-2.028.52c-.485 0-.906-.039-1.261-.117a3.834 3.834 0 01-.923-.325v-1.04c.277.139.611.269 1.001.39.399.113.802.169 1.209.169.581 0 1.001-.091 1.261-.273a.892.892 0 00.39-.754.81.81 0 00-.143-.468c-.095-.139-.269-.277-.52-.416a7.676 7.676 0 00-1.053-.468 10.025 10.025 0 01-1.157-.52 2.123 2.123 0 01-.741-.624c-.173-.243-.26-.555-.26-.936 0-.589.238-1.044.715-1.365.485-.321 1.118-.481 1.898-.481.425 0 .819.043 1.183.13.373.078.719.191 1.04.338l-.39.91a7.813 7.813 0 00-.923-.312 3.758 3.758 0 00-.988-.13c-.468 0-.828.078-1.079.234-.243.147-.364.351-.364.611 0 .191.056.355.169.494.113.13.299.26.559.39.269.121.624.269 1.066.442.442.165.819.334 1.131.507.312.173.55.386.715.637.165.243.247.55.247.923zm6.041-6.929c0-.251.065-.433.195-.546a.68.68 0 01.481-.182c.173 0 .325.061.455.182.139.113.208.295.208.546 0 .243-.069.425-.208.546a.648.648 0 01-.455.182.68.68 0 01-.481-.182c-.13-.121-.195-.303-.195-.546zm-.728 11.973c-.217 0-.407-.017-.572-.052a2.41 2.41 0 01-.429-.104v-.923c.13.035.264.065.403.091.139.026.29.039.455.039.277 0 .507-.078.689-.234.182-.147.273-.433.273-.858v-8.047h1.144v8.008c0 .65-.156 1.157-.468 1.521-.312.373-.81.559-1.495.559zm10.764-6.617c0 1.153-.294 2.045-.884 2.678-.58.633-1.369.949-2.366.949a3.274 3.274 0 01-1.651-.416 3.02 3.02 0 01-1.131-1.235c-.277-.546-.416-1.205-.416-1.976 0-1.153.291-2.041.871-2.665.581-.624 1.37-.936 2.366-.936.633 0 1.188.143 1.664.429.486.277.863.685 1.131 1.222.278.529.416 1.179.416 1.95zm-5.265 0c0 .823.161 1.478.481 1.963.33.477.85.715 1.56.715.702 0 1.218-.238 1.547-.715.33-.485.494-1.14.494-1.963 0-.823-.164-1.469-.494-1.937-.329-.468-.849-.702-1.56-.702-.71 0-1.226.234-1.547.702-.32.468-.481 1.114-.481 1.937zm13.438-3.471V152h-.936l-.169-.923h-.052a2.018 2.018 0 01-.936.806 3.294 3.294 0 01-1.274.247c-.84 0-1.473-.199-1.898-.598-.424-.407-.637-1.053-.637-1.937v-4.563h1.157v4.485c0 1.109.516 1.664 1.547 1.664.772 0 1.305-.217 1.599-.65.304-.433.455-1.057.455-1.872v-3.627h1.144zm5.998-.13c.13 0 .269.009.416.026.156.009.29.026.403.052l-.143 1.053a3.666 3.666 0 00-.754-.091c-.355 0-.689.1-1.001.299a2.1 2.1 0 00-.754.819c-.182.347-.273.754-.273 1.222V152h-1.144v-6.968h.936l.13 1.274h.052c.225-.381.516-.711.871-.988a1.99 1.99 0 011.261-.416zm7.193 5.174c0 .676-.251 1.187-.754 1.534s-1.179.52-2.028.52c-.485 0-.906-.039-1.261-.117a3.834 3.834 0 01-.923-.325v-1.04c.277.139.611.269 1.001.39.399.113.802.169 1.209.169.581 0 1.001-.091 1.261-.273a.892.892 0 00.39-.754.81.81 0 00-.143-.468c-.095-.139-.269-.277-.52-.416a7.676 7.676 0 00-1.053-.468 10.025 10.025 0 01-1.157-.52 2.123 2.123 0 01-.741-.624c-.173-.243-.26-.555-.26-.936 0-.589.238-1.044.715-1.365.485-.321 1.118-.481 1.898-.481.425 0 .819.043 1.183.13.373.078.719.191 1.04.338l-.39.91a7.813 7.813 0 00-.923-.312 3.758 3.758 0 00-.988-.13c-.468 0-.828.078-1.079.234-.243.147-.364.351-.364.611 0 .191.056.355.169.494.113.13.299.26.559.39.269.121.624.269 1.066.442.442.165.819.334 1.131.507.312.173.55.386.715.637.165.243.247.55.247.923zm2.05 1.222c0-.321.078-.546.234-.676a.846.846 0 01.559-.195c.226 0 .416.065.572.195.165.13.247.355.247.676 0 .312-.082.537-.247.676a.828.828 0 01-.572.208.813.813 0 01-.559-.208c-.156-.139-.234-.364-.234-.676z" fill="#000"/><path d="M.5 15C.5 6.992 6.992.5 15 .5h329c8.008 0 14.5 6.492 14.5 14.5v216.5H.5V15z" stroke="#BBBDBF"/></g><defs><filter id="filter0_d" x="0" y="0" width="367" height="240" filterUnits="userSpaceOnUse" color-interpolation-filters="sRGB"><feFlood flood-opacity="0" result="BackgroundImageFix"/><feColorMatrix in="SourceAlpha" values="0 0 0 0 0 0 0 0 0 0 0 0 0 0 0 0 0 0 127 0"/><feOffset dx="4" dy="4"/><feGaussianBlur stdDeviation="2"/><feColorMatrix values="0 0 0 0 0 0 0 0 0 0 0 0 0 0 0 0 0 0 0.1 0"/><feBlend in2="BackgroundImageFix" result="effect1_dropShadow"/><feBlend in="SourceGraphic" in2="effect1_dropShadow" result="shape"/></filter><filter id="filter1_d" x="18" y="182" width="91" height="28" filterUnits="userSpaceOnUse" color-interpolation-filters="sRGB"><feFlood flood-opacity="0" result="BackgroundImageFix"/><feColorMatrix in="SourceAlpha" values="0 0 0 0 0 0 0 0 0 0 0 0 0 0 0 0 0 0 127 0"/><feOffset dy="2"/><feColorMatrix values="0 0 0 0 0 0 0 0 0 0 0 0 0 0 0 0 0 0 1 0"/><feBlend in2="BackgroundImageFix" result="effect1_dropShadow"/><feBlend in="SourceGraphic" in2="effect1_dropShadow" result="shape"/></filter></defs></svg>