<svg width="367" height="240" viewBox="0 0 367 240" fill="none" xmlns="http://www.w3.org/2000/svg">
<g filter="url(#filter0_d)">
<path d="M0 15C0 6.71573 6.71573 0 15 0H344C352.284 0 359 6.71573 359 15V232H0V15Z" fill="white"/>
<path d="M0 15C0 6.71573 6.71573 0 15 0H344C352.284 0 359 6.71573 359 15V18H0V15Z" fill="#727272"/>
<g filter="url(#filter1_d)">
<rect x="18" y="176" width="65" height="26" fill="#00703C"/>
</g>
<path d="M42.876 186.746C42.84 186.806 42.8 186.852 42.756 186.884C42.716 186.912 42.666 186.926 42.606 186.926C42.538 186.926 42.458 186.892 42.366 186.824C42.274 186.756 42.158 186.682 42.018 186.602C41.882 186.518 41.716 186.442 41.52 186.374C41.328 186.306 41.094 186.272 40.818 186.272C40.558 186.272 40.328 186.308 40.128 186.38C39.932 186.448 39.766 186.542 39.63 186.662C39.498 186.782 39.398 186.924 39.33 187.088C39.262 187.248 39.228 187.422 39.228 187.61C39.228 187.85 39.286 188.05 39.402 188.21C39.522 188.366 39.678 188.5 39.87 188.612C40.066 188.724 40.286 188.822 40.53 188.906C40.778 188.986 41.03 189.07 41.286 189.158C41.546 189.246 41.798 189.346 42.042 189.458C42.29 189.566 42.51 189.704 42.702 189.872C42.898 190.04 43.054 190.246 43.17 190.49C43.29 190.734 43.35 191.034 43.35 191.39C43.35 191.766 43.286 192.12 43.158 192.452C43.03 192.78 42.842 193.066 42.594 193.31C42.35 193.554 42.048 193.746 41.688 193.886C41.332 194.026 40.926 194.096 40.47 194.096C39.91 194.096 39.402 193.996 38.946 193.796C38.49 193.592 38.1 193.318 37.776 192.974L38.112 192.422C38.144 192.378 38.182 192.342 38.226 192.314C38.274 192.282 38.326 192.266 38.382 192.266C38.434 192.266 38.492 192.288 38.556 192.332C38.624 192.372 38.7 192.424 38.784 192.488C38.868 192.552 38.964 192.622 39.072 192.698C39.18 192.774 39.302 192.844 39.438 192.908C39.578 192.972 39.736 193.026 39.912 193.07C40.088 193.11 40.286 193.13 40.506 193.13C40.782 193.13 41.028 193.092 41.244 193.016C41.46 192.94 41.642 192.834 41.79 192.698C41.942 192.558 42.058 192.392 42.138 192.2C42.218 192.008 42.258 191.794 42.258 191.558C42.258 191.298 42.198 191.086 42.078 190.922C41.962 190.754 41.808 190.614 41.616 190.502C41.424 190.39 41.204 190.296 40.956 190.22C40.708 190.14 40.456 190.06 40.2 189.98C39.944 189.896 39.692 189.8 39.444 189.692C39.196 189.584 38.976 189.444 38.784 189.272C38.592 189.1 38.436 188.886 38.316 188.63C38.2 188.37 38.142 188.05 38.142 187.67C38.142 187.366 38.2 187.072 38.316 186.788C38.436 186.504 38.608 186.252 38.832 186.032C39.06 185.812 39.338 185.636 39.666 185.504C39.998 185.372 40.378 185.306 40.806 185.306C41.286 185.306 41.722 185.382 42.114 185.534C42.51 185.686 42.858 185.906 43.158 186.194L42.876 186.746ZM48.4893 191.264C47.9973 191.28 47.5773 191.32 47.2293 191.384C46.8853 191.444 46.6033 191.524 46.3833 191.624C46.1673 191.724 46.0093 191.842 45.9093 191.978C45.8133 192.114 45.7653 192.266 45.7653 192.434C45.7653 192.594 45.7913 192.732 45.8433 192.848C45.8953 192.964 45.9653 193.06 46.0533 193.136C46.1453 193.208 46.2513 193.262 46.3713 193.298C46.4953 193.33 46.6273 193.346 46.7673 193.346C46.9553 193.346 47.1273 193.328 47.2833 193.292C47.4393 193.252 47.5853 193.196 47.7213 193.124C47.8613 193.052 47.9933 192.966 48.1173 192.866C48.2453 192.766 48.3693 192.652 48.4893 192.524V191.264ZM45.0393 188.78C45.3753 188.456 45.7373 188.214 46.1253 188.054C46.5133 187.894 46.9433 187.814 47.4153 187.814C47.7553 187.814 48.0573 187.87 48.3213 187.982C48.5853 188.094 48.8073 188.25 48.9873 188.45C49.1673 188.65 49.3033 188.892 49.3953 189.176C49.4873 189.46 49.5333 189.772 49.5333 190.112V194H49.0593C48.9553 194 48.8753 193.984 48.8193 193.952C48.7633 193.916 48.7193 193.848 48.6873 193.748L48.5673 193.172C48.4073 193.32 48.2513 193.452 48.0993 193.568C47.9473 193.68 47.7873 193.776 47.6193 193.856C47.4513 193.932 47.2713 193.99 47.0793 194.03C46.8913 194.074 46.6813 194.096 46.4493 194.096C46.2133 194.096 45.9913 194.064 45.7833 194C45.5753 193.932 45.3933 193.832 45.2373 193.7C45.0853 193.568 44.9633 193.402 44.8713 193.202C44.7833 192.998 44.7393 192.758 44.7393 192.482C44.7393 192.242 44.8053 192.012 44.9373 191.792C45.0693 191.568 45.2833 191.37 45.5793 191.198C45.8753 191.026 46.2613 190.886 46.7373 190.778C47.2133 190.666 47.7973 190.602 48.4893 190.586V190.112C48.4893 189.64 48.3873 189.284 48.1833 189.044C47.9793 188.8 47.6813 188.678 47.2893 188.678C47.0253 188.678 46.8033 188.712 46.6233 188.78C46.4473 188.844 46.2933 188.918 46.1613 189.002C46.0333 189.082 45.9213 189.156 45.8253 189.224C45.7333 189.288 45.6413 189.32 45.5493 189.32C45.4773 189.32 45.4153 189.302 45.3633 189.266C45.3113 189.226 45.2673 189.178 45.2313 189.122L45.0393 188.78ZM56.775 187.922L54.297 194H53.337L50.859 187.922H51.729C51.817 187.922 51.889 187.944 51.945 187.988C52.001 188.032 52.039 188.084 52.059 188.144L53.601 192.056C53.649 192.204 53.691 192.348 53.727 192.488C53.763 192.628 53.797 192.768 53.829 192.908C53.861 192.768 53.895 192.628 53.931 192.488C53.967 192.348 54.011 192.204 54.063 192.056L55.623 188.144C55.647 188.08 55.687 188.028 55.743 187.988C55.799 187.944 55.865 187.922 55.941 187.922H56.775ZM62.1941 190.298C62.1941 190.05 62.1581 189.824 62.0861 189.62C62.0181 189.412 61.9161 189.234 61.7801 189.086C61.6481 188.934 61.4861 188.818 61.2941 188.738C61.1021 188.654 60.8841 188.612 60.6401 188.612C60.1281 188.612 59.7221 188.762 59.4221 189.062C59.1261 189.358 58.9421 189.77 58.8701 190.298H62.1941ZM63.0581 193.148C62.9261 193.308 62.7681 193.448 62.5841 193.568C62.4001 193.684 62.2021 193.78 61.9901 193.856C61.7821 193.932 61.5661 193.988 61.3421 194.024C61.1181 194.064 60.8961 194.084 60.6761 194.084C60.2561 194.084 59.8681 194.014 59.5121 193.874C59.1601 193.73 58.8541 193.522 58.5941 193.25C58.3381 192.974 58.1381 192.634 57.9941 192.23C57.8501 191.826 57.7781 191.362 57.7781 190.838C57.7781 190.414 57.8421 190.018 57.9701 189.65C58.1021 189.282 58.2901 188.964 58.5341 188.696C58.7781 188.424 59.0761 188.212 59.4281 188.06C59.7801 187.904 60.1761 187.826 60.6161 187.826C60.9801 187.826 61.3161 187.888 61.6241 188.012C61.9361 188.132 62.2041 188.308 62.4281 188.54C62.6561 188.768 62.8341 189.052 62.9621 189.392C63.0901 189.728 63.1541 190.112 63.1541 190.544C63.1541 190.712 63.1361 190.824 63.1001 190.88C63.0641 190.936 62.9961 190.964 62.8961 190.964H58.8341C58.8461 191.348 58.8981 191.682 58.9901 191.966C59.0861 192.25 59.2181 192.488 59.3861 192.68C59.5541 192.868 59.7541 193.01 59.9861 193.106C60.2181 193.198 60.4781 193.244 60.7661 193.244C61.0341 193.244 61.2641 193.214 61.4561 193.154C61.6521 193.09 61.8201 193.022 61.9601 192.95C62.1001 192.878 62.2161 192.812 62.3081 192.752C62.4041 192.688 62.4861 192.656 62.5541 192.656C62.6421 192.656 62.7101 192.69 62.7581 192.758L63.0581 193.148Z" fill="white"/>
<rect x="21.5" y="80.5" width="221" height="79" stroke="#BBBDBF"/>
<rect x="19" y="78" width="226" height="84" stroke="#FFDD00" stroke-width="2"/>
<rect x="49" y="88" width="69" height="12" rx="4" fill="#FFDD00"/>
<rect x="49" y="88" width="69" height="12" rx="4" fill="#FFDD00"/>
<rect x="95" y="139" width="34" height="12" rx="4" fill="#FFDD00"/>
<rect x="32" y="139" width="34" height="12" rx="4" fill="#FFDD00"/>
<path d="M32.892 35.6665V48H30.6395V40.4265C30.6395 40.2678 30.6423 40.0978 30.648 39.9165C30.6593 39.7352 30.6763 39.551 30.699 39.364L27.1715 46.0535C26.9788 46.4218 26.6813 46.606 26.279 46.606H25.922C25.7237 46.606 25.548 46.5607 25.395 46.47C25.242 46.3737 25.1202 46.2348 25.0295 46.0535L21.485 39.3385C21.502 39.5368 21.5162 39.7295 21.5275 39.9165C21.5388 40.0978 21.5445 40.2678 21.5445 40.4265V48H19.292V35.6665H21.23C21.3377 35.6665 21.434 35.6693 21.519 35.675C21.604 35.6807 21.6777 35.6977 21.74 35.726C21.808 35.7487 21.8675 35.7883 21.9185 35.845C21.9752 35.896 22.029 35.9697 22.08 36.066L25.531 42.645C25.6387 42.8433 25.7378 43.0473 25.8285 43.257C25.9248 43.4667 26.0155 43.682 26.1005 43.903C26.1855 43.6763 26.2733 43.4553 26.364 43.24C26.4603 43.0247 26.5623 42.8178 26.67 42.6195L30.0955 36.066C30.1465 35.9697 30.2003 35.896 30.257 35.845C30.3137 35.7883 30.3732 35.7487 30.4355 35.726C30.5035 35.6977 30.5772 35.6807 30.6565 35.675C30.7415 35.6693 30.8407 35.6665 30.954 35.6665H32.892ZM40.968 42.5855C40.968 42.3418 40.934 42.1095 40.866 41.8885C40.8037 41.6675 40.7017 41.472 40.56 41.302C40.4183 41.132 40.2398 40.9988 40.0245 40.9025C39.8092 40.8005 39.5513 40.7495 39.251 40.7495C38.69 40.7495 38.2508 40.9082 37.9335 41.2255C37.6162 41.5428 37.4093 41.9962 37.313 42.5855H40.968ZM37.279 43.9795C37.3527 44.8012 37.585 45.4018 37.976 45.7815C38.3727 46.1612 38.8883 46.351 39.523 46.351C39.846 46.351 40.1237 46.3142 40.356 46.2405C40.594 46.1612 40.8008 46.0762 40.9765 45.9855C41.1578 45.8892 41.3193 45.8042 41.461 45.7305C41.6083 45.6512 41.7528 45.6115 41.8945 45.6115C42.0758 45.6115 42.2175 45.6795 42.3195 45.8155L42.9995 46.6655C42.7502 46.9545 42.4753 47.1953 42.175 47.388C41.8747 47.575 41.563 47.7252 41.24 47.8385C40.917 47.9462 40.5912 48.0198 40.2625 48.0595C39.9338 48.1048 39.6165 48.1275 39.3105 48.1275C38.6985 48.1275 38.1262 48.0283 37.5935 47.83C37.0665 47.626 36.6047 47.3285 36.208 46.9375C35.817 46.5408 35.5082 46.0507 35.2815 45.467C35.0548 44.8833 34.9415 44.2062 34.9415 43.4355C34.9415 42.8405 35.0378 42.2795 35.2305 41.7525C35.4288 41.2255 35.7122 40.7665 36.0805 40.3755C36.4488 39.9845 36.8965 39.6757 37.4235 39.449C37.9505 39.2167 38.5455 39.1005 39.2085 39.1005C39.7695 39.1005 40.2852 39.1912 40.7555 39.3725C41.2315 39.5482 41.6395 39.806 41.9795 40.146C42.3252 40.486 42.5915 40.9053 42.7785 41.404C42.9712 41.897 43.0675 42.4608 43.0675 43.0955C43.0675 43.2712 43.059 43.4157 43.042 43.529C43.025 43.6423 42.9967 43.733 42.957 43.801C42.9173 43.869 42.8635 43.9172 42.7955 43.9455C42.7275 43.9682 42.6397 43.9795 42.532 43.9795H37.279ZM50.5075 41.0385C50.4451 41.1348 50.38 41.2057 50.312 41.251C50.2496 41.2907 50.1618 41.3105 50.0485 41.3105C49.9352 41.3105 49.819 41.2822 49.7 41.2255C49.581 41.1688 49.4478 41.1093 49.3005 41.047C49.1531 40.979 48.9831 40.9167 48.7905 40.86C48.6035 40.8033 48.3853 40.775 48.136 40.775C47.7563 40.775 47.4616 40.8543 47.252 41.013C47.0423 41.166 46.9375 41.37 46.9375 41.625C46.9375 41.8007 46.997 41.948 47.116 42.067C47.235 42.186 47.3908 42.2908 47.5835 42.3815C47.7818 42.4665 48.0056 42.5487 48.255 42.628C48.5043 42.7017 48.7593 42.7838 49.02 42.8745C49.2863 42.9652 49.5441 43.07 49.7935 43.189C50.0428 43.308 50.2638 43.4582 50.4565 43.6395C50.6548 43.8152 50.8135 44.0305 50.9325 44.2855C51.0515 44.5348 51.111 44.838 51.111 45.195C51.111 45.62 51.0316 46.0138 50.873 46.3765C50.72 46.7335 50.4933 47.0423 50.193 47.303C49.8926 47.5637 49.5186 47.7677 49.071 47.915C48.6233 48.0623 48.1076 48.136 47.524 48.136C47.2236 48.136 46.9261 48.1077 46.6315 48.051C46.3368 48 46.0563 47.9263 45.79 47.83C45.5236 47.728 45.2743 47.6118 45.042 47.4815C44.8096 47.3512 44.6085 47.2095 44.4385 47.0565L44.9825 46.181C45.0448 46.079 45.1213 45.9997 45.212 45.943C45.3083 45.8863 45.4301 45.858 45.5775 45.858C45.7191 45.858 45.8495 45.8948 45.9685 45.9685C46.0875 46.0365 46.2206 46.113 46.368 46.198C46.5153 46.2773 46.6881 46.3538 46.8865 46.4275C47.0905 46.4955 47.3426 46.5295 47.643 46.5295C47.8696 46.5295 48.0651 46.504 48.2295 46.453C48.3938 46.402 48.527 46.334 48.629 46.249C48.731 46.1583 48.8046 46.0592 48.85 45.9515C48.901 45.8382 48.9265 45.722 48.9265 45.603C48.9265 45.4103 48.8641 45.2545 48.7395 45.1355C48.6205 45.0108 48.4618 44.9032 48.2635 44.8125C48.0708 44.7218 47.847 44.6397 47.592 44.566C47.337 44.4923 47.0763 44.4102 46.81 44.3195C46.5493 44.2288 46.2915 44.1212 46.0365 43.9965C45.7871 43.8718 45.5633 43.716 45.365 43.529C45.1723 43.3363 45.0136 43.1012 44.889 42.8235C44.77 42.5458 44.7105 42.2087 44.7105 41.812C44.7105 41.4493 44.7813 41.1065 44.923 40.7835C45.0646 40.4548 45.2771 40.1658 45.5605 39.9165C45.8438 39.6672 46.1951 39.4688 46.6145 39.3215C47.0395 39.1742 47.5296 39.1005 48.085 39.1005C48.7083 39.1005 49.275 39.2025 49.785 39.4065C50.295 39.6105 50.7143 39.8768 51.043 40.2055L50.5075 41.0385ZM58.5637 41.0385C58.5014 41.1348 58.4362 41.2057 58.3682 41.251C58.3059 41.2907 58.218 41.3105 58.1047 41.3105C57.9914 41.3105 57.8752 41.2822 57.7562 41.2255C57.6372 41.1688 57.504 41.1093 57.3567 41.047C57.2094 40.979 57.0394 40.9167 56.8467 40.86C56.6597 40.8033 56.4415 40.775 56.1922 40.775C55.8125 40.775 55.5179 40.8543 55.3082 41.013C55.0985 41.166 54.9937 41.37 54.9937 41.625C54.9937 41.8007 55.0532 41.948 55.1722 42.067C55.2912 42.186 55.447 42.2908 55.6397 42.3815C55.838 42.4665 56.0619 42.5487 56.3112 42.628C56.5605 42.7017 56.8155 42.7838 57.0762 42.8745C57.3425 42.9652 57.6004 43.07 57.8497 43.189C58.099 43.308 58.32 43.4582 58.5127 43.6395C58.711 43.8152 58.8697 44.0305 58.9887 44.2855C59.1077 44.5348 59.1672 44.838 59.1672 45.195C59.1672 45.62 59.0879 46.0138 58.9292 46.3765C58.7762 46.7335 58.5495 47.0423 58.2492 47.303C57.9489 47.5637 57.5749 47.7677 57.1272 47.915C56.6795 48.0623 56.1639 48.136 55.5802 48.136C55.2799 48.136 54.9824 48.1077 54.6877 48.051C54.393 48 54.1125 47.9263 53.8462 47.83C53.5799 47.728 53.3305 47.6118 53.0982 47.4815C52.8659 47.3512 52.6647 47.2095 52.4947 47.0565L53.0387 46.181C53.101 46.079 53.1775 45.9997 53.2682 45.943C53.3645 45.8863 53.4864 45.858 53.6337 45.858C53.7754 45.858 53.9057 45.8948 54.0247 45.9685C54.1437 46.0365 54.2769 46.113 54.4242 46.198C54.5715 46.2773 54.7444 46.3538 54.9427 46.4275C55.1467 46.4955 55.3989 46.5295 55.6992 46.5295C55.9259 46.5295 56.1214 46.504 56.2857 46.453C56.45 46.402 56.5832 46.334 56.6852 46.249C56.7872 46.1583 56.8609 46.0592 56.9062 45.9515C56.9572 45.8382 56.9827 45.722 56.9827 45.603C56.9827 45.4103 56.9204 45.2545 56.7957 45.1355C56.6767 45.0108 56.518 44.9032 56.3197 44.8125C56.127 44.7218 55.9032 44.6397 55.6482 44.566C55.3932 44.4923 55.1325 44.4102 54.8662 44.3195C54.6055 44.2288 54.3477 44.1212 54.0927 43.9965C53.8434 43.8718 53.6195 43.716 53.4212 43.529C53.2285 43.3363 53.0699 43.1012 52.9452 42.8235C52.8262 42.5458 52.7667 42.2087 52.7667 41.812C52.7667 41.4493 52.8375 41.1065 52.9792 40.7835C53.1209 40.4548 53.3334 40.1658 53.6167 39.9165C53.9 39.6672 54.2514 39.4688 54.6707 39.3215C55.0957 39.1742 55.5859 39.1005 56.1412 39.1005C56.7645 39.1005 57.3312 39.2025 57.8412 39.4065C58.3512 39.6105 58.7705 39.8768 59.0992 40.2055L58.5637 41.0385ZM65.7529 44.3365C65.1806 44.3648 64.7046 44.4158 64.3249 44.4895C63.9453 44.5575 63.6421 44.6482 63.4154 44.7615C63.1944 44.8748 63.0358 45.0052 62.9394 45.1525C62.8488 45.2942 62.8034 45.45 62.8034 45.62C62.8034 45.96 62.8969 46.2008 63.0839 46.3425C63.2766 46.4842 63.5429 46.555 63.8829 46.555C64.2739 46.555 64.6111 46.487 64.8944 46.351C65.1834 46.2093 65.4696 45.9912 65.7529 45.6965V44.3365ZM60.9759 40.452C61.4916 39.9873 62.0611 39.6417 62.6844 39.415C63.3078 39.1827 63.9821 39.0665 64.7074 39.0665C65.2288 39.0665 65.6934 39.1515 66.1014 39.3215C66.5151 39.4915 66.8636 39.7295 67.1469 40.0355C67.4359 40.3358 67.6569 40.6957 67.8099 41.115C67.9629 41.5343 68.0394 41.9933 68.0394 42.492V48H66.9684C66.7474 48 66.5774 47.9688 66.4584 47.9065C66.3451 47.8442 66.2516 47.7138 66.1779 47.5155L65.9909 46.9545C65.7699 47.1472 65.5546 47.3172 65.3449 47.4645C65.1409 47.6118 64.9284 47.7365 64.7074 47.8385C64.4864 47.9348 64.2484 48.0085 63.9934 48.0595C63.7441 48.1105 63.4636 48.136 63.1519 48.136C62.7666 48.136 62.4153 48.085 62.0979 47.983C61.7806 47.881 61.5058 47.7308 61.2734 47.5325C61.0468 47.3285 60.8711 47.0763 60.7464 46.776C60.6218 46.4757 60.5594 46.13 60.5594 45.739C60.5594 45.416 60.6416 45.093 60.8059 44.77C60.9703 44.447 61.2508 44.1552 61.6474 43.8945C62.0498 43.6282 62.5824 43.41 63.2454 43.24C63.9141 43.0643 64.7499 42.9652 65.7529 42.9425V42.492C65.7529 41.9423 65.6368 41.54 65.4044 41.285C65.1721 41.0243 64.8378 40.894 64.4014 40.894C64.0784 40.894 63.8093 40.9337 63.5939 41.013C63.3786 41.0867 63.1888 41.1688 63.0244 41.2595C62.8658 41.3445 62.7156 41.4267 62.5739 41.506C62.4323 41.5797 62.2679 41.6165 62.0809 41.6165C61.9166 41.6165 61.7778 41.5768 61.6644 41.4975C61.5568 41.4125 61.4661 41.3133 61.3924 41.2L60.9759 40.452ZM73.6704 43.291C74.152 43.291 74.5062 43.1692 74.7329 42.9255C74.9652 42.6818 75.0814 42.3673 75.0814 41.982C75.0814 41.5797 74.9652 41.2652 74.7329 41.0385C74.5062 40.8062 74.152 40.69 73.6704 40.69C73.1887 40.69 72.8345 40.8062 72.6079 41.0385C72.3812 41.2652 72.2679 41.5797 72.2679 41.982C72.2679 42.3617 72.3812 42.6762 72.6079 42.9255C72.8402 43.1692 73.1944 43.291 73.6704 43.291ZM75.8889 48.357C75.8889 48.204 75.8407 48.0793 75.7444 47.983C75.648 47.8867 75.5177 47.8102 75.3534 47.7535C75.1947 47.6968 75.0049 47.6572 74.7839 47.6345C74.5629 47.6062 74.3277 47.5863 74.0784 47.575C73.829 47.558 73.5712 47.5438 73.3049 47.5325C73.0385 47.5212 72.7779 47.5013 72.5229 47.473C72.3245 47.592 72.1602 47.7337 72.0299 47.898C71.9052 48.0567 71.8429 48.238 71.8429 48.442C71.8429 48.5837 71.874 48.714 71.9364 48.833C72.0044 48.952 72.1149 49.054 72.2679 49.139C72.4209 49.224 72.622 49.2892 72.8714 49.3345C73.1207 49.3855 73.4324 49.411 73.8064 49.411C74.1917 49.411 74.5175 49.3855 74.7839 49.3345C75.0502 49.2835 75.2655 49.2098 75.4299 49.1135C75.5942 49.0228 75.7104 48.9123 75.7784 48.782C75.852 48.6517 75.8889 48.51 75.8889 48.357ZM78.2179 39.5255V40.384C78.2179 40.52 78.1782 40.6277 78.0989 40.707C78.0252 40.7863 77.9005 40.8458 77.7249 40.8855L77.0109 41.03C77.1072 41.3077 77.1554 41.6052 77.1554 41.9225C77.1554 42.3588 77.0647 42.7527 76.8834 43.104C76.7077 43.4497 76.464 43.7472 76.1524 43.9965C75.8407 44.2402 75.4724 44.43 75.0474 44.566C74.6224 44.6963 74.1634 44.7615 73.6704 44.7615C73.3587 44.7615 73.0669 44.736 72.7949 44.685C72.5569 44.8323 72.4379 44.9938 72.4379 45.1695C72.4379 45.3338 72.5172 45.4528 72.6759 45.5265C72.8402 45.6002 73.0527 45.654 73.3134 45.688C73.5797 45.7163 73.88 45.7362 74.2144 45.7475C74.5544 45.7532 74.8972 45.7702 75.2429 45.7985C75.5942 45.8268 75.937 45.8778 76.2714 45.9515C76.6114 46.0195 76.9117 46.1357 77.1724 46.3C77.4387 46.4587 77.6512 46.6712 77.8099 46.9375C77.9742 47.2038 78.0564 47.5467 78.0564 47.966C78.0564 48.357 77.96 48.7367 77.7674 49.105C77.5747 49.4733 77.2942 49.802 76.9259 50.091C76.5632 50.38 76.1155 50.6123 75.5829 50.788C75.0502 50.9637 74.4439 51.0515 73.7639 51.0515C73.0895 51.0515 72.503 50.9863 72.0044 50.856C71.5114 50.7313 71.1005 50.5613 70.7719 50.346C70.4489 50.1363 70.208 49.8927 70.0494 49.615C69.8907 49.3373 69.8114 49.0483 69.8114 48.748C69.8114 48.357 69.9304 48.0255 70.1684 47.7535C70.4064 47.4815 70.735 47.2633 71.1544 47.099C70.9334 46.9743 70.7549 46.8128 70.6189 46.6145C70.4885 46.4105 70.4234 46.147 70.4234 45.824C70.4234 45.5633 70.5169 45.2885 70.7039 44.9995C70.8965 44.7105 71.1912 44.4697 71.5879 44.277C71.1402 44.039 70.786 43.7217 70.5254 43.325C70.2647 42.9227 70.1344 42.4552 70.1344 41.9225C70.1344 41.4862 70.2222 41.0923 70.3979 40.741C70.5792 40.3897 70.8285 40.0922 71.1459 39.8485C71.4632 39.5992 71.8372 39.4093 72.2679 39.279C72.6985 39.1487 73.166 39.0835 73.6704 39.0835C74.4184 39.0835 75.0785 39.2308 75.6509 39.5255H78.2179ZM85.3663 42.5855C85.3663 42.3418 85.3323 42.1095 85.2643 41.8885C85.202 41.6675 85.1 41.472 84.9583 41.302C84.8166 41.132 84.6381 40.9988 84.4228 40.9025C84.2075 40.8005 83.9496 40.7495 83.6493 40.7495C83.0883 40.7495 82.6491 40.9082 82.3318 41.2255C82.0145 41.5428 81.8076 41.9962 81.7113 42.5855H85.3663ZM81.6773 43.9795C81.751 44.8012 81.9833 45.4018 82.3743 45.7815C82.771 46.1612 83.2866 46.351 83.9213 46.351C84.2443 46.351 84.522 46.3142 84.7543 46.2405C84.9923 46.1612 85.1991 46.0762 85.3748 45.9855C85.5561 45.8892 85.7176 45.8042 85.8593 45.7305C86.0066 45.6512 86.1511 45.6115 86.2928 45.6115C86.4741 45.6115 86.6158 45.6795 86.7178 45.8155L87.3978 46.6655C87.1485 46.9545 86.8736 47.1953 86.5733 47.388C86.273 47.575 85.9613 47.7252 85.6383 47.8385C85.3153 47.9462 84.9895 48.0198 84.6608 48.0595C84.3321 48.1048 84.0148 48.1275 83.7088 48.1275C83.0968 48.1275 82.5245 48.0283 81.9918 47.83C81.4648 47.626 81.003 47.3285 80.6063 46.9375C80.2153 46.5408 79.9065 46.0507 79.6798 45.467C79.4531 44.8833 79.3398 44.2062 79.3398 43.4355C79.3398 42.8405 79.4361 42.2795 79.6288 41.7525C79.8271 41.2255 80.1105 40.7665 80.4788 40.3755C80.8471 39.9845 81.2948 39.6757 81.8218 39.449C82.3488 39.2167 82.9438 39.1005 83.6068 39.1005C84.1678 39.1005 84.6835 39.1912 85.1538 39.3725C85.6298 39.5482 86.0378 39.806 86.3778 40.146C86.7235 40.486 86.9898 40.9053 87.1768 41.404C87.3695 41.897 87.4658 42.4608 87.4658 43.0955C87.4658 43.2712 87.4573 43.4157 87.4403 43.529C87.4233 43.6423 87.395 43.733 87.3553 43.801C87.3156 43.869 87.2618 43.9172 87.1938 43.9455C87.1258 43.9682 87.038 43.9795 86.9303 43.9795H81.6773ZM97.0532 48.136C96.6565 48.136 96.3052 48.0793 95.9992 47.966C95.6932 47.847 95.4353 47.6798 95.2257 47.4645C95.016 47.2492 94.8573 46.9885 94.7497 46.6825C94.642 46.3765 94.5882 46.0308 94.5882 45.6455V40.9195H93.7637C93.639 40.9195 93.5313 40.8798 93.4407 40.8005C93.3557 40.7212 93.3132 40.6022 93.3132 40.4435V39.5255L94.7157 39.2705L95.1917 37.001C95.254 36.746 95.4268 36.6185 95.7102 36.6185H96.9342V39.2875H99.1952V40.9195H96.9342V45.4925C96.9342 45.7362 96.9908 45.9288 97.1042 46.0705C97.2232 46.2122 97.3903 46.283 97.6057 46.283C97.719 46.283 97.8153 46.2717 97.8947 46.249C97.974 46.2207 98.042 46.1923 98.0987 46.164C98.1553 46.13 98.2063 46.1017 98.2517 46.079C98.3027 46.0507 98.3537 46.0365 98.4047 46.0365C98.4727 46.0365 98.5293 46.0535 98.5747 46.0875C98.62 46.1158 98.6653 46.1668 98.7107 46.2405L99.4162 47.3625C99.0932 47.6175 98.7277 47.8102 98.3197 47.9405C97.9117 48.0708 97.4895 48.136 97.0532 48.136ZM106.464 42.5855C106.464 42.3418 106.43 42.1095 106.362 41.8885C106.299 41.6675 106.197 41.472 106.056 41.302C105.914 41.132 105.736 40.9988 105.52 40.9025C105.305 40.8005 105.047 40.7495 104.747 40.7495C104.186 40.7495 103.747 40.9082 103.429 41.2255C103.112 41.5428 102.905 41.9962 102.809 42.5855H106.464ZM102.775 43.9795C102.848 44.8012 103.081 45.4018 103.472 45.7815C103.868 46.1612 104.384 46.351 105.019 46.351C105.342 46.351 105.619 46.3142 105.852 46.2405C106.09 46.1612 106.297 46.0762 106.472 45.9855C106.654 45.8892 106.815 45.8042 106.957 45.7305C107.104 45.6512 107.249 45.6115 107.39 45.6115C107.572 45.6115 107.713 45.6795 107.815 45.8155L108.495 46.6655C108.246 46.9545 107.971 47.1953 107.671 47.388C107.37 47.575 107.059 47.7252 106.736 47.8385C106.413 47.9462 106.087 48.0198 105.758 48.0595C105.43 48.1048 105.112 48.1275 104.806 48.1275C104.194 48.1275 103.622 48.0283 103.089 47.83C102.562 47.626 102.1 47.3285 101.704 46.9375C101.313 46.5408 101.004 46.0507 100.777 45.467C100.551 44.8833 100.437 44.2062 100.437 43.4355C100.437 42.8405 100.534 42.2795 100.726 41.7525C100.925 41.2255 101.208 40.7665 101.576 40.3755C101.945 39.9845 102.392 39.6757 102.919 39.449C103.446 39.2167 104.041 39.1005 104.704 39.1005C105.265 39.1005 105.781 39.1912 106.251 39.3725C106.727 39.5482 107.135 39.806 107.475 40.146C107.821 40.486 108.087 40.9053 108.274 41.404C108.467 41.897 108.563 42.4608 108.563 43.0955C108.563 43.2712 108.555 43.4157 108.538 43.529C108.521 43.6423 108.492 43.733 108.453 43.801C108.413 43.869 108.359 43.9172 108.291 43.9455C108.223 43.9682 108.135 43.9795 108.028 43.9795H102.775ZM110.555 48V39.2365H112C112.294 39.2365 112.49 39.3725 112.586 39.6445L112.722 40.214C112.875 40.0553 113.031 39.908 113.19 39.772C113.354 39.636 113.53 39.5198 113.717 39.4235C113.904 39.3215 114.105 39.2422 114.32 39.1855C114.541 39.1288 114.779 39.1005 115.034 39.1005C115.572 39.1005 116.017 39.245 116.369 39.534C116.72 39.8173 116.986 40.197 117.168 40.673C117.309 40.3953 117.482 40.1573 117.686 39.959C117.896 39.755 118.122 39.5907 118.366 39.466C118.615 39.3413 118.876 39.2507 119.148 39.194C119.426 39.1317 119.703 39.1005 119.981 39.1005C120.474 39.1005 120.91 39.1742 121.29 39.3215C121.67 39.4688 121.987 39.687 122.242 39.976C122.503 40.2593 122.701 40.6078 122.837 41.0215C122.973 41.4352 123.041 41.9055 123.041 42.4325V48H120.695V42.4325C120.695 41.4068 120.256 40.894 119.378 40.894C119.179 40.894 118.995 40.928 118.825 40.996C118.661 41.0583 118.513 41.1547 118.383 41.285C118.258 41.4153 118.159 41.5768 118.086 41.7695C118.018 41.9622 117.984 42.1832 117.984 42.4325V48H115.638V42.4325C115.638 41.8772 115.527 41.4833 115.306 41.251C115.091 41.013 114.771 40.894 114.346 40.894C114.074 40.894 113.816 40.9592 113.572 41.0895C113.334 41.2142 113.11 41.3898 112.901 41.6165V48H110.555ZM127.78 45.688C128.001 45.943 128.239 46.1215 128.494 46.2235C128.755 46.3255 129.032 46.3765 129.327 46.3765C129.61 46.3765 129.868 46.3227 130.101 46.215C130.333 46.1073 130.531 45.9402 130.696 45.7135C130.866 45.4812 130.996 45.1865 131.087 44.8295C131.177 44.4725 131.223 44.0475 131.223 43.5545C131.223 43.0672 131.183 42.6535 131.104 42.3135C131.03 41.9735 130.922 41.6987 130.781 41.489C130.645 41.2793 130.477 41.1292 130.279 41.0385C130.081 40.9422 129.86 40.894 129.616 40.894C129.202 40.894 128.854 40.9762 128.571 41.1405C128.293 41.2992 128.029 41.5343 127.78 41.846V45.688ZM127.644 40.384C127.82 40.1913 128.007 40.0157 128.205 39.857C128.403 39.6927 128.616 39.5538 128.843 39.4405C129.069 39.3215 129.313 39.2308 129.574 39.1685C129.834 39.1005 130.118 39.0665 130.424 39.0665C130.894 39.0665 131.325 39.1685 131.716 39.3725C132.112 39.5708 132.452 39.8627 132.736 40.248C133.019 40.6277 133.24 41.0952 133.399 41.6505C133.557 42.2058 133.637 42.8405 133.637 43.5545C133.637 44.2118 133.546 44.821 133.365 45.382C133.189 45.9373 132.937 46.419 132.608 46.827C132.279 47.235 131.883 47.5552 131.418 47.7875C130.959 48.0142 130.446 48.1275 129.88 48.1275C129.404 48.1275 128.998 48.0567 128.664 47.915C128.335 47.7733 128.041 47.5807 127.78 47.337V50.8305H125.434V39.2365H126.879C127.174 39.2365 127.369 39.3725 127.466 39.6445L127.644 40.384ZM138.045 35.3265V48H135.699V35.3265H138.045ZM145.115 44.3365C144.543 44.3648 144.067 44.4158 143.687 44.4895C143.308 44.5575 143.005 44.6482 142.778 44.7615C142.557 44.8748 142.398 45.0052 142.302 45.1525C142.211 45.2942 142.166 45.45 142.166 45.62C142.166 45.96 142.259 46.2008 142.446 46.3425C142.639 46.4842 142.905 46.555 143.245 46.555C143.636 46.555 143.974 46.487 144.257 46.351C144.546 46.2093 144.832 45.9912 145.115 45.6965V44.3365ZM140.338 40.452C140.854 39.9873 141.424 39.6417 142.047 39.415C142.67 39.1827 143.345 39.0665 144.07 39.0665C144.591 39.0665 145.056 39.1515 145.464 39.3215C145.878 39.4915 146.226 39.7295 146.509 40.0355C146.798 40.3358 147.019 40.6957 147.172 41.115C147.325 41.5343 147.402 41.9933 147.402 42.492V48H146.331C146.11 48 145.94 47.9688 145.821 47.9065C145.708 47.8442 145.614 47.7138 145.54 47.5155L145.353 46.9545C145.132 47.1472 144.917 47.3172 144.707 47.4645C144.503 47.6118 144.291 47.7365 144.07 47.8385C143.849 47.9348 143.611 48.0085 143.356 48.0595C143.107 48.1105 142.826 48.136 142.514 48.136C142.129 48.136 141.778 48.085 141.46 47.983C141.143 47.881 140.868 47.7308 140.636 47.5325C140.409 47.3285 140.234 47.0763 140.109 46.776C139.984 46.4757 139.922 46.13 139.922 45.739C139.922 45.416 140.004 45.093 140.168 44.77C140.333 44.447 140.613 44.1552 141.01 43.8945C141.412 43.6282 141.945 43.41 142.608 43.24C143.277 43.0643 144.112 42.9652 145.115 42.9425V42.492C145.115 41.9423 144.999 41.54 144.767 41.285C144.535 41.0243 144.2 40.894 143.764 40.894C143.441 40.894 143.172 40.9337 142.956 41.013C142.741 41.0867 142.551 41.1688 142.387 41.2595C142.228 41.3445 142.078 41.4267 141.936 41.506C141.795 41.5797 141.63 41.6165 141.443 41.6165C141.279 41.6165 141.14 41.5768 141.027 41.4975C140.919 41.4125 140.829 41.3133 140.755 41.2L140.338 40.452ZM152.662 48.136C152.265 48.136 151.914 48.0793 151.608 47.966C151.302 47.847 151.044 47.6798 150.834 47.4645C150.625 47.2492 150.466 46.9885 150.358 46.6825C150.251 46.3765 150.197 46.0308 150.197 45.6455V40.9195H149.372C149.248 40.9195 149.14 40.8798 149.049 40.8005C148.964 40.7212 148.922 40.6022 148.922 40.4435V39.5255L150.324 39.2705L150.8 37.001C150.863 36.746 151.036 36.6185 151.319 36.6185H152.543V39.2875H154.804V40.9195H152.543V45.4925C152.543 45.7362 152.6 45.9288 152.713 46.0705C152.832 46.2122 152.999 46.283 153.214 46.283C153.328 46.283 153.424 46.2717 153.503 46.249C153.583 46.2207 153.651 46.1923 153.707 46.164C153.764 46.13 153.815 46.1017 153.86 46.079C153.911 46.0507 153.962 46.0365 154.013 46.0365C154.081 46.0365 154.138 46.0535 154.183 46.0875C154.229 46.1158 154.274 46.1668 154.319 46.2405L155.025 47.3625C154.702 47.6175 154.336 47.8102 153.928 47.9405C153.52 48.0708 153.098 48.136 152.662 48.136ZM162.073 42.5855C162.073 42.3418 162.039 42.1095 161.971 41.8885C161.908 41.6675 161.806 41.472 161.665 41.302C161.523 41.132 161.344 40.9988 161.129 40.9025C160.914 40.8005 160.656 40.7495 160.356 40.7495C159.795 40.7495 159.355 40.9082 159.038 41.2255C158.721 41.5428 158.514 41.9962 158.418 42.5855H162.073ZM158.384 43.9795C158.457 44.8012 158.69 45.4018 159.081 45.7815C159.477 46.1612 159.993 46.351 160.628 46.351C160.951 46.351 161.228 46.3142 161.461 46.2405C161.699 46.1612 161.905 46.0762 162.081 45.9855C162.262 45.8892 162.424 45.8042 162.566 45.7305C162.713 45.6512 162.857 45.6115 162.999 45.6115C163.18 45.6115 163.322 45.6795 163.424 45.8155L164.104 46.6655C163.855 46.9545 163.58 47.1953 163.28 47.388C162.979 47.575 162.668 47.7252 162.345 47.8385C162.022 47.9462 161.696 48.0198 161.367 48.0595C161.038 48.1048 160.721 48.1275 160.415 48.1275C159.803 48.1275 159.231 48.0283 158.698 47.83C158.171 47.626 157.709 47.3285 157.313 46.9375C156.922 46.5408 156.613 46.0507 156.386 45.467C156.159 44.8833 156.046 44.2062 156.046 43.4355C156.046 42.8405 156.142 42.2795 156.335 41.7525C156.533 41.2255 156.817 40.7665 157.185 40.3755C157.553 39.9845 158.001 39.6757 158.528 39.449C159.055 39.2167 159.65 39.1005 160.313 39.1005C160.874 39.1005 161.39 39.1912 161.86 39.3725C162.336 39.5482 162.744 39.806 163.084 40.146C163.43 40.486 163.696 40.9053 163.883 41.404C164.076 41.897 164.172 42.4608 164.172 43.0955C164.172 43.2712 164.164 43.4157 164.147 43.529C164.13 43.6423 164.101 43.733 164.062 43.801C164.022 43.869 163.968 43.9172 163.9 43.9455C163.832 43.9682 163.744 43.9795 163.637 43.9795H158.384Z" fill="black"/>
<path d="M22.944 72L20.124 64.488H20.076C20.1 64.736 20.12 65.072 20.136 65.496C20.152 65.912 20.16 66.348 20.16 66.804V72H19.164V63.432H20.76L23.4 70.452H23.448L26.136 63.432H27.72V72H26.652V66.732C26.652 66.316 26.66 65.904 26.676 65.496C26.7 65.088 26.72 64.756 26.736 64.5H26.688L23.832 72H22.944ZM32.9264 65.448C33.4784 65.448 33.9504 65.568 34.3424 65.808C34.7424 66.048 35.0464 66.388 35.2544 66.828C35.4704 67.26 35.5784 67.768 35.5784 68.352V68.988H31.1744C31.1904 69.716 31.3744 70.272 31.7264 70.656C32.0864 71.032 32.5864 71.22 33.2264 71.22C33.6344 71.22 33.9944 71.184 34.3064 71.112C34.6264 71.032 34.9544 70.92 35.2904 70.776V71.7C34.9624 71.844 34.6384 71.948 34.3184 72.012C33.9984 72.084 33.6184 72.12 33.1784 72.12C32.5704 72.12 32.0304 71.996 31.5584 71.748C31.0944 71.5 30.7304 71.132 30.4664 70.644C30.2104 70.148 30.0824 69.544 30.0824 68.832C30.0824 68.128 30.1984 67.524 30.4304 67.02C30.6704 66.516 31.0024 66.128 31.4264 65.856C31.8584 65.584 32.3584 65.448 32.9264 65.448ZM32.9144 66.312C32.4104 66.312 32.0104 66.476 31.7144 66.804C31.4264 67.124 31.2544 67.572 31.1984 68.148H34.4744C34.4664 67.604 34.3384 67.164 34.0904 66.828C33.8424 66.484 33.4504 66.312 32.9144 66.312ZM41.9396 70.224C41.9396 70.848 41.7076 71.32 41.2436 71.64C40.7796 71.96 40.1556 72.12 39.3716 72.12C38.9236 72.12 38.5356 72.084 38.2076 72.012C37.8876 71.94 37.6036 71.84 37.3556 71.712V70.752C37.6116 70.88 37.9196 71 38.2796 71.112C38.6476 71.216 39.0196 71.268 39.3956 71.268C39.9316 71.268 40.3196 71.184 40.5596 71.016C40.7996 70.84 40.9196 70.608 40.9196 70.32C40.9196 70.16 40.8756 70.016 40.7876 69.888C40.6996 69.76 40.5396 69.632 40.3076 69.504C40.0836 69.376 39.7596 69.232 39.3356 69.072C38.9196 68.912 38.5636 68.752 38.2676 68.592C37.9716 68.432 37.7436 68.24 37.5836 68.016C37.4236 67.792 37.3436 67.504 37.3436 67.152C37.3436 66.608 37.5636 66.188 38.0036 65.892C38.4516 65.596 39.0356 65.448 39.7556 65.448C40.1476 65.448 40.5116 65.488 40.8476 65.568C41.1916 65.64 41.5116 65.744 41.8076 65.88L41.4476 66.72C41.1756 66.608 40.8916 66.512 40.5956 66.432C40.2996 66.352 39.9956 66.312 39.6836 66.312C39.2516 66.312 38.9196 66.384 38.6876 66.528C38.4636 66.664 38.3516 66.852 38.3516 67.092C38.3516 67.268 38.4036 67.42 38.5076 67.548C38.6116 67.668 38.7836 67.788 39.0236 67.908C39.2716 68.02 39.5996 68.156 40.0076 68.316C40.4156 68.468 40.7636 68.624 41.0516 68.784C41.3396 68.944 41.5596 69.14 41.7116 69.372C41.8636 69.596 41.9396 69.88 41.9396 70.224ZM48.2175 70.224C48.2175 70.848 47.9855 71.32 47.5215 71.64C47.0575 71.96 46.4335 72.12 45.6495 72.12C45.2015 72.12 44.8135 72.084 44.4855 72.012C44.1655 71.94 43.8815 71.84 43.6335 71.712V70.752C43.8895 70.88 44.1975 71 44.5575 71.112C44.9255 71.216 45.2975 71.268 45.6735 71.268C46.2095 71.268 46.5975 71.184 46.8375 71.016C47.0775 70.84 47.1975 70.608 47.1975 70.32C47.1975 70.16 47.1535 70.016 47.0655 69.888C46.9775 69.76 46.8175 69.632 46.5855 69.504C46.3615 69.376 46.0375 69.232 45.6135 69.072C45.1975 68.912 44.8415 68.752 44.5455 68.592C44.2495 68.432 44.0215 68.24 43.8615 68.016C43.7015 67.792 43.6215 67.504 43.6215 67.152C43.6215 66.608 43.8415 66.188 44.2815 65.892C44.7295 65.596 45.3135 65.448 46.0335 65.448C46.4255 65.448 46.7895 65.488 47.1255 65.568C47.4695 65.64 47.7895 65.744 48.0855 65.88L47.7255 66.72C47.4535 66.608 47.1695 66.512 46.8735 66.432C46.5775 66.352 46.2735 66.312 45.9615 66.312C45.5295 66.312 45.1975 66.384 44.9655 66.528C44.7415 66.664 44.6295 66.852 44.6295 67.092C44.6295 67.268 44.6815 67.42 44.7855 67.548C44.8895 67.668 45.0615 67.788 45.3015 67.908C45.5495 68.02 45.8775 68.156 46.2855 68.316C46.6935 68.468 47.0415 68.624 47.3295 68.784C47.6175 68.944 47.8375 69.14 47.9895 69.372C48.1415 69.596 48.2175 69.88 48.2175 70.224ZM52.7434 65.46C53.5274 65.46 54.1074 65.632 54.4834 65.976C54.8594 66.32 55.0474 66.868 55.0474 67.62V72H54.2794L54.0754 71.088H54.0274C53.7474 71.44 53.4514 71.7 53.1394 71.868C52.8354 72.036 52.4114 72.12 51.8674 72.12C51.2834 72.12 50.7994 71.968 50.4154 71.664C50.0314 71.352 49.8394 70.868 49.8394 70.212C49.8394 69.572 50.0914 69.08 50.5954 68.736C51.0994 68.384 51.8754 68.192 52.9234 68.16L54.0154 68.124V67.74C54.0154 67.204 53.8994 66.832 53.6674 66.624C53.4354 66.416 53.1074 66.312 52.6834 66.312C52.3474 66.312 52.0274 66.364 51.7234 66.468C51.4194 66.564 51.1354 66.676 50.8714 66.804L50.5474 66.012C50.8274 65.86 51.1594 65.732 51.5434 65.628C51.9274 65.516 52.3274 65.46 52.7434 65.46ZM54.0034 68.856L53.0554 68.892C52.2554 68.924 51.6994 69.052 51.3874 69.276C51.0834 69.5 50.9314 69.816 50.9314 70.224C50.9314 70.584 51.0394 70.848 51.2554 71.016C51.4794 71.184 51.7634 71.268 52.1074 71.268C52.6514 71.268 53.1034 71.12 53.4634 70.824C53.8234 70.52 54.0034 70.056 54.0034 69.432V68.856ZM59.8497 65.448C60.2737 65.448 60.6537 65.528 60.9897 65.688C61.3337 65.848 61.6257 66.092 61.8657 66.42H61.9257L62.0697 65.568H62.9097V72.108C62.9097 73.028 62.6737 73.72 62.2017 74.184C61.7377 74.648 61.0137 74.88 60.0297 74.88C59.0857 74.88 58.3137 74.744 57.7137 74.472V73.5C58.3457 73.836 59.1377 74.004 60.0897 74.004C60.6417 74.004 61.0737 73.84 61.3857 73.512C61.7057 73.192 61.8657 72.752 61.8657 72.192V71.94C61.8657 71.844 61.8697 71.708 61.8777 71.532C61.8857 71.348 61.8937 71.22 61.9017 71.148H61.8537C61.4217 71.796 60.7577 72.12 59.8617 72.12C59.0297 72.12 58.3777 71.828 57.9057 71.244C57.4417 70.66 57.2097 69.844 57.2097 68.796C57.2097 67.772 57.4417 66.96 57.9057 66.36C58.3777 65.752 59.0257 65.448 59.8497 65.448ZM59.9937 66.336C59.4577 66.336 59.0417 66.552 58.7457 66.984C58.4497 67.408 58.3017 68.016 58.3017 68.808C58.3017 69.6 58.4457 70.208 58.7337 70.632C59.0297 71.048 59.4577 71.256 60.0177 71.256C60.6657 71.256 61.1377 71.084 61.4337 70.74C61.7297 70.388 61.8777 69.824 61.8777 69.048V68.796C61.8777 67.916 61.7257 67.288 61.4217 66.912C61.1177 66.528 60.6417 66.336 59.9937 66.336ZM67.9722 65.448C68.5242 65.448 68.9962 65.568 69.3882 65.808C69.7882 66.048 70.0922 66.388 70.3002 66.828C70.5162 67.26 70.6242 67.768 70.6242 68.352V68.988H66.2202C66.2362 69.716 66.4202 70.272 66.7722 70.656C67.1322 71.032 67.6322 71.22 68.2722 71.22C68.6802 71.22 69.0402 71.184 69.3522 71.112C69.6722 71.032 70.0002 70.92 70.3362 70.776V71.7C70.0082 71.844 69.6842 71.948 69.3642 72.012C69.0442 72.084 68.6642 72.12 68.2242 72.12C67.6162 72.12 67.0762 71.996 66.6042 71.748C66.1402 71.5 65.7762 71.132 65.5122 70.644C65.2562 70.148 65.1282 69.544 65.1282 68.832C65.1282 68.128 65.2442 67.524 65.4762 67.02C65.7162 66.516 66.0482 66.128 66.4722 65.856C66.9042 65.584 67.4042 65.448 67.9722 65.448ZM67.9602 66.312C67.4562 66.312 67.0562 66.476 66.7602 66.804C66.4722 67.124 66.3002 67.572 66.2442 68.148H69.5202C69.5122 67.604 69.3842 67.164 69.1362 66.828C68.8882 66.484 68.4962 66.312 67.9602 66.312Z" fill="black"/>
<path d="M34.716 97H33.636V93.004H29.244V97H28.164V88.432H29.244V92.056H33.636V88.432H34.716V97ZM37.9902 88.156C38.1502 88.156 38.2902 88.212 38.4102 88.324C38.5382 88.428 38.6022 88.596 38.6022 88.828C38.6022 89.052 38.5382 89.22 38.4102 89.332C38.2902 89.444 38.1502 89.5 37.9902 89.5C37.8142 89.5 37.6662 89.444 37.5462 89.332C37.4262 89.22 37.3662 89.052 37.3662 88.828C37.3662 88.596 37.4262 88.428 37.5462 88.324C37.6662 88.212 37.8142 88.156 37.9902 88.156ZM38.5062 90.568V97H37.4502V90.568H38.5062ZM44.1926 93.712C44.1926 92.736 44.3326 91.796 44.6126 90.892C44.9006 89.98 45.3486 89.16 45.9566 88.432H46.9526C46.3926 89.184 45.9686 90.012 45.6806 90.916C45.4006 91.82 45.2606 92.748 45.2606 93.7C45.2606 94.628 45.4006 95.54 45.6806 96.436C45.9686 97.324 46.3886 98.144 46.9406 98.896H45.9566C45.3486 98.192 44.9006 97.396 44.6126 96.508C44.3326 95.612 44.1926 94.68 44.1926 93.712ZM48.326 93.712C48.326 92.736 48.466 91.796 48.746 90.892C49.034 89.98 49.482 89.16 50.09 88.432H51.086C50.526 89.184 50.102 90.012 49.814 90.916C49.534 91.82 49.394 92.748 49.394 93.7C49.394 94.628 49.534 95.54 49.814 96.436C50.102 97.324 50.522 98.144 51.074 98.896H50.09C49.482 98.192 49.034 97.396 48.746 96.508C48.466 95.612 48.326 94.68 48.326 93.712ZM55.9634 91.384H54.3434V97H53.2874V91.384H52.1594V90.892L53.2874 90.532V90.16C53.2874 89.328 53.4714 88.732 53.8394 88.372C54.2074 88.004 54.7194 87.82 55.3754 87.82C55.6314 87.82 55.8634 87.844 56.0714 87.892C56.2874 87.932 56.4714 87.98 56.6234 88.036L56.3474 88.864C56.2194 88.824 56.0714 88.784 55.9034 88.744C55.7354 88.704 55.5634 88.684 55.3874 88.684C55.0354 88.684 54.7714 88.804 54.5954 89.044C54.4274 89.276 54.3434 89.644 54.3434 90.148V90.568H55.9634V91.384ZM58.2001 88.156C58.3601 88.156 58.5001 88.212 58.6201 88.324C58.7481 88.428 58.8121 88.596 58.8121 88.828C58.8121 89.052 58.7481 89.22 58.6201 89.332C58.5001 89.444 58.3601 89.5 58.2001 89.5C58.0241 89.5 57.8761 89.444 57.7561 89.332C57.6361 89.22 57.5761 89.052 57.5761 88.828C57.5761 88.596 57.6361 88.428 57.7561 88.324C57.8761 88.212 58.0241 88.156 58.2001 88.156ZM58.7161 90.568V97H57.6601V90.568H58.7161ZM64.2895 90.448C64.4095 90.448 64.5375 90.456 64.6735 90.472C64.8175 90.48 64.9415 90.496 65.0455 90.52L64.9135 91.492C64.8095 91.468 64.6935 91.448 64.5655 91.432C64.4455 91.416 64.3295 91.408 64.2175 91.408C63.8895 91.408 63.5815 91.5 63.2935 91.684C63.0055 91.86 62.7735 92.112 62.5975 92.44C62.4295 92.76 62.3455 93.136 62.3455 93.568V97H61.2895V90.568H62.1535L62.2735 91.744H62.3215C62.5295 91.392 62.7975 91.088 63.1255 90.832C63.4535 90.576 63.8415 90.448 64.2895 90.448ZM70.9703 95.224C70.9703 95.848 70.7383 96.32 70.2743 96.64C69.8103 96.96 69.1863 97.12 68.4023 97.12C67.9543 97.12 67.5663 97.084 67.2383 97.012C66.9183 96.94 66.6343 96.84 66.3863 96.712V95.752C66.6423 95.88 66.9503 96 67.3103 96.112C67.6783 96.216 68.0503 96.268 68.4263 96.268C68.9623 96.268 69.3503 96.184 69.5903 96.016C69.8303 95.84 69.9503 95.608 69.9503 95.32C69.9503 95.16 69.9063 95.016 69.8183 94.888C69.7303 94.76 69.5703 94.632 69.3383 94.504C69.1143 94.376 68.7903 94.232 68.3663 94.072C67.9503 93.912 67.5943 93.752 67.2983 93.592C67.0023 93.432 66.7743 93.24 66.6143 93.016C66.4543 92.792 66.3743 92.504 66.3743 92.152C66.3743 91.608 66.5943 91.188 67.0343 90.892C67.4823 90.596 68.0663 90.448 68.7863 90.448C69.1783 90.448 69.5423 90.488 69.8783 90.568C70.2223 90.64 70.5423 90.744 70.8383 90.88L70.4783 91.72C70.2063 91.608 69.9223 91.512 69.6263 91.432C69.3303 91.352 69.0263 91.312 68.7143 91.312C68.2823 91.312 67.9503 91.384 67.7183 91.528C67.4943 91.664 67.3823 91.852 67.3823 92.092C67.3823 92.268 67.4343 92.42 67.5383 92.548C67.6423 92.668 67.8143 92.788 68.0543 92.908C68.3023 93.02 68.6303 93.156 69.0383 93.316C69.4463 93.468 69.7943 93.624 70.0823 93.784C70.3703 93.944 70.5903 94.14 70.7423 94.372C70.8943 94.596 70.9703 94.88 70.9703 95.224ZM75.2082 96.256C75.3682 96.256 75.5322 96.244 75.7002 96.22C75.8682 96.188 76.0042 96.156 76.1082 96.124V96.928C75.9962 96.984 75.8362 97.028 75.6282 97.06C75.4202 97.1 75.2202 97.12 75.0282 97.12C74.6922 97.12 74.3802 97.064 74.0922 96.952C73.8122 96.832 73.5842 96.628 73.4082 96.34C73.2322 96.052 73.1442 95.648 73.1442 95.128V91.384H72.2322V90.88L73.1562 90.46L73.5762 89.092H74.2002V90.568H76.0602V91.384H74.2002V95.104C74.2002 95.496 74.2922 95.788 74.4762 95.98C74.6682 96.164 74.9122 96.256 75.2082 96.256ZM84.6807 90.448C85.4487 90.448 86.0287 90.636 86.4207 91.012C86.8127 91.38 87.0087 91.98 87.0087 92.812V97H85.9647V92.884C85.9647 91.852 85.4847 91.336 84.5247 91.336C83.8127 91.336 83.3207 91.536 83.0487 91.936C82.7767 92.336 82.6407 92.912 82.6407 93.664V97H81.5847V90.568H82.4367L82.5927 91.444H82.6527C82.8607 91.108 83.1487 90.86 83.5167 90.7C83.8847 90.532 84.2727 90.448 84.6807 90.448ZM91.9744 90.46C92.7584 90.46 93.3384 90.632 93.7144 90.976C94.0904 91.32 94.2784 91.868 94.2784 92.62V97H93.5104L93.3064 96.088H93.2584C92.9784 96.44 92.6824 96.7 92.3704 96.868C92.0664 97.036 91.6424 97.12 91.0984 97.12C90.5144 97.12 90.0304 96.968 89.6464 96.664C89.2624 96.352 89.0704 95.868 89.0704 95.212C89.0704 94.572 89.3224 94.08 89.8264 93.736C90.3304 93.384 91.1064 93.192 92.1544 93.16L93.2464 93.124V92.74C93.2464 92.204 93.1304 91.832 92.8984 91.624C92.6664 91.416 92.3384 91.312 91.9144 91.312C91.5784 91.312 91.2584 91.364 90.9544 91.468C90.6504 91.564 90.3664 91.676 90.1024 91.804L89.7784 91.012C90.0584 90.86 90.3904 90.732 90.7744 90.628C91.1584 90.516 91.5584 90.46 91.9744 90.46ZM93.2344 93.856L92.2864 93.892C91.4864 93.924 90.9304 94.052 90.6184 94.276C90.3144 94.5 90.1624 94.816 90.1624 95.224C90.1624 95.584 90.2704 95.848 90.4864 96.016C90.7104 96.184 90.9944 96.268 91.3384 96.268C91.8824 96.268 92.3344 96.12 92.6944 95.824C93.0544 95.52 93.2344 95.056 93.2344 94.432V93.856ZM103.857 90.448C104.585 90.448 105.129 90.636 105.489 91.012C105.849 91.38 106.029 91.98 106.029 92.812V97H104.985V92.86C104.985 91.844 104.549 91.336 103.677 91.336C103.053 91.336 102.605 91.516 102.333 91.876C102.069 92.236 101.937 92.76 101.937 93.448V97H100.893V92.86C100.893 91.844 100.453 91.336 99.5727 91.336C98.9247 91.336 98.4767 91.536 98.2287 91.936C97.9807 92.336 97.8567 92.912 97.8567 93.664V97H96.8007V90.568H97.6527L97.8087 91.444H97.8687C98.0687 91.108 98.3367 90.86 98.6727 90.7C99.0167 90.532 99.3807 90.448 99.7647 90.448C100.773 90.448 101.429 90.808 101.733 91.528H101.793C102.009 91.16 102.301 90.888 102.669 90.712C103.045 90.536 103.441 90.448 103.857 90.448ZM111.035 90.448C111.587 90.448 112.059 90.568 112.451 90.808C112.851 91.048 113.155 91.388 113.363 91.828C113.579 92.26 113.687 92.768 113.687 93.352V93.988H109.283C109.299 94.716 109.483 95.272 109.835 95.656C110.195 96.032 110.695 96.22 111.335 96.22C111.743 96.22 112.103 96.184 112.415 96.112C112.735 96.032 113.063 95.92 113.399 95.776V96.7C113.071 96.844 112.747 96.948 112.427 97.012C112.107 97.084 111.727 97.12 111.287 97.12C110.679 97.12 110.139 96.996 109.667 96.748C109.203 96.5 108.839 96.132 108.575 95.644C108.319 95.148 108.191 94.544 108.191 93.832C108.191 93.128 108.307 92.524 108.539 92.02C108.779 91.516 109.111 91.128 109.535 90.856C109.967 90.584 110.467 90.448 111.035 90.448ZM111.023 91.312C110.519 91.312 110.119 91.476 109.823 91.804C109.535 92.124 109.363 92.572 109.307 93.148H112.583C112.575 92.604 112.447 92.164 112.199 91.828C111.951 91.484 111.559 91.312 111.023 91.312ZM117.96 93.712C117.96 94.68 117.816 95.612 117.528 96.508C117.248 97.396 116.804 98.192 116.196 98.896H115.212C115.764 98.144 116.18 97.324 116.46 96.436C116.748 95.54 116.892 94.628 116.892 93.7C116.892 92.748 116.748 91.82 116.46 90.916C116.18 90.012 115.76 89.184 115.2 88.432H116.196C116.804 89.16 117.248 89.98 117.528 90.892C117.816 91.796 117.96 92.736 117.96 93.712ZM122.094 93.712C122.094 94.68 121.95 95.612 121.662 96.508C121.382 97.396 120.938 98.192 120.33 98.896H119.346C119.898 98.144 120.314 97.324 120.594 96.436C120.882 95.54 121.026 94.628 121.026 93.7C121.026 92.748 120.882 91.82 120.594 90.916C120.314 90.012 119.894 89.184 119.334 88.432H120.33C120.938 89.16 121.382 89.98 121.662 90.892C121.95 91.796 122.094 92.736 122.094 93.712ZM125.327 95.608L125.411 95.74C125.307 96.164 125.155 96.628 124.955 97.132C124.763 97.644 124.571 98.116 124.379 98.548H123.599C123.711 98.092 123.823 97.592 123.935 97.048C124.055 96.504 124.143 96.024 124.199 95.608H125.327ZM30.876 114H29.796V106.38H27.12V105.432H33.54V106.38H30.876V114ZM36.2797 104.88V107.556C36.2797 107.876 36.2597 108.176 36.2197 108.456H36.2917C36.4997 108.128 36.7797 107.88 37.1317 107.712C37.4917 107.544 37.8797 107.46 38.2957 107.46C39.0797 107.46 39.6677 107.648 40.0597 108.024C40.4517 108.392 40.6477 108.988 40.6477 109.812V114H39.6037V109.884C39.6037 108.852 39.1237 108.336 38.1637 108.336C37.4437 108.336 36.9477 108.54 36.6757 108.948C36.4117 109.348 36.2797 109.924 36.2797 110.676V114H35.2237V104.88H36.2797ZM43.7174 105.156C43.8774 105.156 44.0174 105.212 44.1374 105.324C44.2654 105.428 44.3294 105.596 44.3294 105.828C44.3294 106.052 44.2654 106.22 44.1374 106.332C44.0174 106.444 43.8774 106.5 43.7174 106.5C43.5414 106.5 43.3934 106.444 43.2734 106.332C43.1534 106.22 43.0934 106.052 43.0934 105.828C43.0934 105.596 43.1534 105.428 43.2734 105.324C43.3934 105.212 43.5414 105.156 43.7174 105.156ZM44.2334 107.568V114H43.1774V107.568H44.2334ZM50.9948 112.224C50.9948 112.848 50.7628 113.32 50.2988 113.64C49.8348 113.96 49.2108 114.12 48.4268 114.12C47.9788 114.12 47.5908 114.084 47.2628 114.012C46.9428 113.94 46.6588 113.84 46.4108 113.712V112.752C46.6668 112.88 46.9748 113 47.3348 113.112C47.7028 113.216 48.0748 113.268 48.4508 113.268C48.9868 113.268 49.3748 113.184 49.6148 113.016C49.8548 112.84 49.9748 112.608 49.9748 112.32C49.9748 112.16 49.9308 112.016 49.8428 111.888C49.7548 111.76 49.5948 111.632 49.3628 111.504C49.1388 111.376 48.8148 111.232 48.3908 111.072C47.9748 110.912 47.6188 110.752 47.3228 110.592C47.0268 110.432 46.7988 110.24 46.6388 110.016C46.4788 109.792 46.3988 109.504 46.3988 109.152C46.3988 108.608 46.6188 108.188 47.0588 107.892C47.5068 107.596 48.0908 107.448 48.8108 107.448C49.2028 107.448 49.5668 107.488 49.9028 107.568C50.2468 107.64 50.5668 107.744 50.8628 107.88L50.5028 108.72C50.2308 108.608 49.9468 108.512 49.6508 108.432C49.3548 108.352 49.0508 108.312 48.7388 108.312C48.3068 108.312 47.9748 108.384 47.7428 108.528C47.5188 108.664 47.4068 108.852 47.4068 109.092C47.4068 109.268 47.4588 109.42 47.5628 109.548C47.6668 109.668 47.8388 109.788 48.0788 109.908C48.3268 110.02 48.6548 110.156 49.0628 110.316C49.4708 110.468 49.8188 110.624 50.1068 110.784C50.3948 110.944 50.6148 111.14 50.7668 111.372C50.9188 111.596 50.9948 111.88 50.9948 112.224ZM57.2776 105.156C57.4376 105.156 57.5776 105.212 57.6976 105.324C57.8256 105.428 57.8896 105.596 57.8896 105.828C57.8896 106.052 57.8256 106.22 57.6976 106.332C57.5776 106.444 57.4376 106.5 57.2776 106.5C57.1016 106.5 56.9536 106.444 56.8336 106.332C56.7136 106.22 56.6536 106.052 56.6536 105.828C56.6536 105.596 56.7136 105.428 56.8336 105.324C56.9536 105.212 57.1016 105.156 57.2776 105.156ZM57.7936 107.568V114H56.7376V107.568H57.7936ZM64.5551 112.224C64.5551 112.848 64.3231 113.32 63.8591 113.64C63.3951 113.96 62.7711 114.12 61.9871 114.12C61.5391 114.12 61.1511 114.084 60.8231 114.012C60.5031 113.94 60.2191 113.84 59.9711 113.712V112.752C60.2271 112.88 60.5351 113 60.8951 113.112C61.2631 113.216 61.6351 113.268 62.0111 113.268C62.5471 113.268 62.9351 113.184 63.1751 113.016C63.4151 112.84 63.5351 112.608 63.5351 112.32C63.5351 112.16 63.4911 112.016 63.4031 111.888C63.3151 111.76 63.1551 111.632 62.9231 111.504C62.6991 111.376 62.3751 111.232 61.9511 111.072C61.5351 110.912 61.1791 110.752 60.8831 110.592C60.5871 110.432 60.3591 110.24 60.1991 110.016C60.0391 109.792 59.9591 109.504 59.9591 109.152C59.9591 108.608 60.1791 108.188 60.6191 107.892C61.0671 107.596 61.6511 107.448 62.3711 107.448C62.7631 107.448 63.1271 107.488 63.4631 107.568C63.8071 107.64 64.1271 107.744 64.4231 107.88L64.0631 108.72C63.7911 108.608 63.5071 108.512 63.2111 108.432C62.9151 108.352 62.6111 108.312 62.2991 108.312C61.8671 108.312 61.5351 108.384 61.3031 108.528C61.0791 108.664 60.9671 108.852 60.9671 109.092C60.9671 109.268 61.0191 109.42 61.1231 109.548C61.2271 109.668 61.3991 109.788 61.6391 109.908C61.8871 110.02 62.2151 110.156 62.6231 110.316C63.0311 110.468 63.3791 110.624 63.6671 110.784C63.9551 110.944 64.1751 111.14 64.3271 111.372C64.4791 111.596 64.5551 111.88 64.5551 112.224ZM72.7339 107.46C73.5179 107.46 74.0979 107.632 74.4739 107.976C74.8499 108.32 75.0379 108.868 75.0379 109.62V114H74.2699L74.0659 113.088H74.0179C73.7379 113.44 73.4419 113.7 73.1299 113.868C72.8259 114.036 72.4019 114.12 71.8579 114.12C71.2739 114.12 70.7899 113.968 70.4059 113.664C70.0219 113.352 69.8299 112.868 69.8299 112.212C69.8299 111.572 70.0819 111.08 70.5859 110.736C71.0899 110.384 71.8659 110.192 72.9139 110.16L74.0059 110.124V109.74C74.0059 109.204 73.8899 108.832 73.6579 108.624C73.4259 108.416 73.0979 108.312 72.6739 108.312C72.3379 108.312 72.0179 108.364 71.7139 108.468C71.4099 108.564 71.1259 108.676 70.8619 108.804L70.5379 108.012C70.8179 107.86 71.1499 107.732 71.5339 107.628C71.9179 107.516 72.3179 107.46 72.7339 107.46ZM73.9939 110.856L73.0459 110.892C72.2459 110.924 71.6899 111.052 71.3779 111.276C71.0739 111.5 70.9219 111.816 70.9219 112.224C70.9219 112.584 71.0299 112.848 71.2459 113.016C71.4699 113.184 71.7539 113.268 72.0979 113.268C72.6419 113.268 73.0939 113.12 73.4539 112.824C73.8139 112.52 73.9939 112.056 73.9939 111.432V110.856ZM84.2131 107.448C84.3331 107.448 84.4611 107.456 84.5971 107.472C84.7411 107.48 84.8651 107.496 84.9691 107.52L84.8371 108.492C84.7331 108.468 84.6171 108.448 84.4891 108.432C84.3691 108.416 84.2531 108.408 84.1411 108.408C83.8131 108.408 83.5051 108.5 83.2171 108.684C82.9291 108.86 82.6971 109.112 82.5211 109.44C82.3531 109.76 82.2691 110.136 82.2691 110.568V114H81.2131V107.568H82.0771L82.1971 108.744H82.2451C82.4531 108.392 82.7211 108.088 83.0491 107.832C83.3771 107.576 83.7651 107.448 84.2131 107.448ZM88.9555 107.448C89.5075 107.448 89.9795 107.568 90.3715 107.808C90.7715 108.048 91.0755 108.388 91.2835 108.828C91.4995 109.26 91.6075 109.768 91.6075 110.352V110.988H87.2035C87.2195 111.716 87.4035 112.272 87.7555 112.656C88.1155 113.032 88.6155 113.22 89.2555 113.22C89.6635 113.22 90.0235 113.184 90.3355 113.112C90.6555 113.032 90.9835 112.92 91.3195 112.776V113.7C90.9915 113.844 90.6675 113.948 90.3475 114.012C90.0275 114.084 89.6475 114.12 89.2075 114.12C88.5995 114.12 88.0595 113.996 87.5875 113.748C87.1235 113.5 86.7595 113.132 86.4955 112.644C86.2395 112.148 86.1115 111.544 86.1115 110.832C86.1115 110.128 86.2275 109.524 86.4595 109.02C86.6995 108.516 87.0315 108.128 87.4555 107.856C87.8875 107.584 88.3875 107.448 88.9555 107.448ZM88.9435 108.312C88.4395 108.312 88.0395 108.476 87.7435 108.804C87.4555 109.124 87.2835 109.572 87.2275 110.148H90.5035C90.4955 109.604 90.3675 109.164 90.1195 108.828C89.8715 108.484 89.4795 108.312 88.9435 108.312ZM100.837 107.448C101.565 107.448 102.109 107.636 102.469 108.012C102.829 108.38 103.009 108.98 103.009 109.812V114H101.965V109.86C101.965 108.844 101.529 108.336 100.657 108.336C100.033 108.336 99.5846 108.516 99.3126 108.876C99.0486 109.236 98.9166 109.76 98.9166 110.448V114H97.8726V109.86C97.8726 108.844 97.4326 108.336 96.5526 108.336C95.9046 108.336 95.4566 108.536 95.2086 108.936C94.9606 109.336 94.8366 109.912 94.8366 110.664V114H93.7806V107.568H94.6326L94.7886 108.444H94.8486C95.0486 108.108 95.3166 107.86 95.6526 107.7C95.9966 107.532 96.3606 107.448 96.7446 107.448C97.7526 107.448 98.4086 107.808 98.7126 108.528H98.7726C98.9886 108.16 99.2806 107.888 99.6486 107.712C100.025 107.536 100.421 107.448 100.837 107.448ZM106.071 105.156C106.231 105.156 106.371 105.212 106.491 105.324C106.619 105.428 106.683 105.596 106.683 105.828C106.683 106.052 106.619 106.22 106.491 106.332C106.371 106.444 106.231 106.5 106.071 106.5C105.895 106.5 105.747 106.444 105.627 106.332C105.507 106.22 105.447 106.052 105.447 105.828C105.447 105.596 105.507 105.428 105.627 105.324C105.747 105.212 105.895 105.156 106.071 105.156ZM106.587 107.568V114H105.531V107.568H106.587ZM112.257 107.448C113.025 107.448 113.605 107.636 113.997 108.012C114.389 108.38 114.585 108.98 114.585 109.812V114H113.541V109.884C113.541 108.852 113.061 108.336 112.101 108.336C111.389 108.336 110.897 108.536 110.625 108.936C110.353 109.336 110.217 109.912 110.217 110.664V114H109.161V107.568H110.013L110.169 108.444H110.229C110.437 108.108 110.725 107.86 111.093 107.7C111.461 107.532 111.849 107.448 112.257 107.448ZM119.394 114.12C118.594 114.12 117.954 113.844 117.474 113.292C116.994 112.732 116.754 111.9 116.754 110.796C116.754 109.692 116.994 108.86 117.474 108.3C117.962 107.732 118.606 107.448 119.406 107.448C119.902 107.448 120.306 107.54 120.618 107.724C120.938 107.908 121.198 108.132 121.398 108.396H121.47C121.462 108.292 121.446 108.14 121.422 107.94C121.406 107.732 121.398 107.568 121.398 107.448V104.88H122.454V114H121.602L121.446 113.136H121.398C121.206 113.408 120.95 113.64 120.63 113.832C120.31 114.024 119.898 114.12 119.394 114.12ZM119.562 113.244C120.242 113.244 120.718 113.06 120.99 112.692C121.27 112.316 121.41 111.752 121.41 111V110.808C121.41 110.008 121.278 109.396 121.014 108.972C120.75 108.54 120.262 108.324 119.55 108.324C118.982 108.324 118.554 108.552 118.266 109.008C117.986 109.456 117.846 110.06 117.846 110.82C117.846 111.588 117.986 112.184 118.266 112.608C118.554 113.032 118.986 113.244 119.562 113.244ZM127.517 107.448C128.069 107.448 128.541 107.568 128.933 107.808C129.333 108.048 129.637 108.388 129.845 108.828C130.061 109.26 130.169 109.768 130.169 110.352V110.988H125.765C125.781 111.716 125.965 112.272 126.317 112.656C126.677 113.032 127.177 113.22 127.817 113.22C128.225 113.22 128.585 113.184 128.897 113.112C129.217 113.032 129.545 112.92 129.881 112.776V113.7C129.553 113.844 129.229 113.948 128.909 114.012C128.589 114.084 128.209 114.12 127.769 114.12C127.161 114.12 126.621 113.996 126.149 113.748C125.685 113.5 125.321 113.132 125.057 112.644C124.801 112.148 124.673 111.544 124.673 110.832C124.673 110.128 124.789 109.524 125.021 109.02C125.261 108.516 125.593 108.128 126.017 107.856C126.449 107.584 126.949 107.448 127.517 107.448ZM127.505 108.312C127.001 108.312 126.601 108.476 126.305 108.804C126.017 109.124 125.845 109.572 125.789 110.148H129.065C129.057 109.604 128.929 109.164 128.681 108.828C128.433 108.484 128.041 108.312 127.505 108.312ZM135.342 107.448C135.462 107.448 135.59 107.456 135.726 107.472C135.87 107.48 135.994 107.496 136.098 107.52L135.966 108.492C135.862 108.468 135.746 108.448 135.618 108.432C135.498 108.416 135.382 108.408 135.27 108.408C134.942 108.408 134.634 108.5 134.346 108.684C134.058 108.86 133.826 109.112 133.65 109.44C133.482 109.76 133.398 110.136 133.398 110.568V114H132.342V107.568H133.206L133.326 108.744H133.374C133.582 108.392 133.85 108.088 134.178 107.832C134.506 107.576 134.894 107.448 135.342 107.448ZM147.08 110.772C147.08 111.836 146.808 112.66 146.264 113.244C145.728 113.828 145 114.12 144.08 114.12C143.512 114.12 143.004 113.992 142.556 113.736C142.116 113.472 141.768 113.092 141.512 112.596C141.256 112.092 141.128 111.484 141.128 110.772C141.128 109.708 141.396 108.888 141.932 108.312C142.468 107.736 143.196 107.448 144.116 107.448C144.7 107.448 145.212 107.58 145.652 107.844C146.1 108.1 146.448 108.476 146.696 108.972C146.952 109.46 147.08 110.06 147.08 110.772ZM142.22 110.772C142.22 111.532 142.368 112.136 142.664 112.584C142.968 113.024 143.448 113.244 144.104 113.244C144.752 113.244 145.228 113.024 145.532 112.584C145.836 112.136 145.988 111.532 145.988 110.772C145.988 110.012 145.836 109.416 145.532 108.984C145.228 108.552 144.748 108.336 144.092 108.336C143.436 108.336 142.96 108.552 142.664 108.984C142.368 109.416 142.22 110.012 142.22 110.772ZM152.253 108.384H150.633V114H149.577V108.384H148.449V107.892L149.577 107.532V107.16C149.577 106.328 149.761 105.732 150.129 105.372C150.497 105.004 151.009 104.82 151.665 104.82C151.921 104.82 152.153 104.844 152.361 104.892C152.577 104.932 152.761 104.98 152.913 105.036L152.637 105.864C152.509 105.824 152.361 105.784 152.193 105.744C152.025 105.704 151.853 105.684 151.677 105.684C151.325 105.684 151.061 105.804 150.885 106.044C150.717 106.276 150.633 106.644 150.633 107.148V107.568H152.253V108.384ZM156.595 107.568H157.723L159.115 111.228C159.235 111.548 159.343 111.856 159.439 112.152C159.535 112.44 159.607 112.716 159.655 112.98H159.703C159.751 112.78 159.827 112.52 159.931 112.2C160.035 111.872 160.143 111.544 160.255 111.216L161.563 107.568H162.703L159.931 114.888C159.707 115.496 159.415 115.98 159.055 116.34C158.703 116.7 158.215 116.88 157.591 116.88C157.399 116.88 157.231 116.868 157.087 116.844C156.943 116.828 156.819 116.808 156.715 116.784V115.944C156.803 115.96 156.907 115.976 157.027 115.992C157.155 116.008 157.287 116.016 157.423 116.016C157.791 116.016 158.087 115.912 158.311 115.704C158.543 115.496 158.723 115.22 158.851 114.876L159.187 114.024L156.595 107.568ZM169.847 110.772C169.847 111.836 169.575 112.66 169.031 113.244C168.495 113.828 167.767 114.12 166.847 114.12C166.279 114.12 165.771 113.992 165.323 113.736C164.883 113.472 164.535 113.092 164.279 112.596C164.023 112.092 163.895 111.484 163.895 110.772C163.895 109.708 164.163 108.888 164.699 108.312C165.235 107.736 165.963 107.448 166.883 107.448C167.467 107.448 167.979 107.58 168.419 107.844C168.867 108.1 169.215 108.476 169.463 108.972C169.719 109.46 169.847 110.06 169.847 110.772ZM164.987 110.772C164.987 111.532 165.135 112.136 165.431 112.584C165.735 113.024 166.215 113.244 166.871 113.244C167.519 113.244 167.995 113.024 168.299 112.584C168.603 112.136 168.755 111.532 168.755 110.772C168.755 110.012 168.603 109.416 168.299 108.984C167.995 108.552 167.515 108.336 166.859 108.336C166.203 108.336 165.727 108.552 165.431 108.984C165.135 109.416 164.987 110.012 164.987 110.772ZM177.433 107.568V114H176.569L176.413 113.148H176.365C176.157 113.484 175.869 113.732 175.501 113.892C175.133 114.044 174.741 114.12 174.325 114.12C173.549 114.12 172.965 113.936 172.573 113.568C172.181 113.192 171.985 112.596 171.985 111.78V107.568H173.053V111.708C173.053 112.732 173.529 113.244 174.481 113.244C175.193 113.244 175.685 113.044 175.957 112.644C176.237 112.244 176.377 111.668 176.377 110.916V107.568H177.433ZM183.011 107.448C183.131 107.448 183.259 107.456 183.395 107.472C183.539 107.48 183.663 107.496 183.767 107.52L183.635 108.492C183.531 108.468 183.415 108.448 183.287 108.432C183.167 108.416 183.051 108.408 182.939 108.408C182.611 108.408 182.303 108.5 182.015 108.684C181.727 108.86 181.495 109.112 181.319 109.44C181.151 109.76 181.067 110.136 181.067 110.568V114H180.011V107.568H180.875L180.995 108.744H181.043C181.251 108.392 181.519 108.088 181.847 107.832C182.175 107.576 182.563 107.448 183.011 107.448ZM33.396 124.568V131H32.532L32.376 130.148H32.328C32.12 130.484 31.832 130.732 31.464 130.892C31.096 131.044 30.704 131.12 30.288 131.12C29.512 131.12 28.928 130.936 28.536 130.568C28.144 130.192 27.948 129.596 27.948 128.78V124.568H29.016V128.708C29.016 129.732 29.492 130.244 30.444 130.244C31.156 130.244 31.648 130.044 31.92 129.644C32.2 129.244 32.34 128.668 32.34 127.916V124.568H33.396ZM39.0337 124.448C39.8257 124.448 40.4617 124.724 40.9417 125.276C41.4297 125.828 41.6737 126.66 41.6737 127.772C41.6737 128.868 41.4297 129.7 40.9417 130.268C40.4617 130.836 39.8217 131.12 39.0217 131.12C38.5257 131.12 38.1137 131.028 37.7857 130.844C37.4657 130.652 37.2137 130.432 37.0297 130.184H36.9577C36.9737 130.32 36.9897 130.492 37.0057 130.7C37.0217 130.908 37.0297 131.088 37.0297 131.24V133.88H35.9737V124.568H36.8377L36.9817 125.444H37.0297C37.2217 125.164 37.4737 124.928 37.7857 124.736C38.0977 124.544 38.5137 124.448 39.0337 124.448ZM38.8417 125.336C38.1857 125.336 37.7217 125.52 37.4497 125.888C37.1857 126.256 37.0457 126.816 37.0297 127.568V127.772C37.0297 128.564 37.1577 129.176 37.4137 129.608C37.6777 130.032 38.1617 130.244 38.8657 130.244C39.2577 130.244 39.5777 130.136 39.8257 129.92C40.0817 129.704 40.2697 129.412 40.3897 129.044C40.5177 128.668 40.5817 128.24 40.5817 127.76C40.5817 127.024 40.4377 126.436 40.1497 125.996C39.8697 125.556 39.4337 125.336 38.8417 125.336ZM46.4722 131.12C45.9042 131.12 45.3962 131.004 44.9482 130.772C44.5082 130.54 44.1602 130.18 43.9042 129.692C43.6562 129.204 43.5322 128.58 43.5322 127.82C43.5322 127.028 43.6642 126.384 43.9282 125.888C44.1922 125.392 44.5482 125.028 44.9962 124.796C45.4522 124.564 45.9682 124.448 46.5442 124.448C46.8722 124.448 47.1882 124.484 47.4922 124.556C47.7962 124.62 48.0442 124.7 48.2362 124.796L47.9122 125.672C47.7202 125.6 47.4962 125.532 47.2402 125.468C46.9842 125.404 46.7442 125.372 46.5202 125.372C45.2562 125.372 44.6242 126.184 44.6242 127.808C44.6242 128.584 44.7762 129.18 45.0802 129.596C45.3922 130.004 45.8522 130.208 46.4602 130.208C46.8122 130.208 47.1202 130.172 47.3842 130.1C47.6562 130.028 47.9042 129.94 48.1282 129.836V130.772C47.9122 130.884 47.6722 130.968 47.4082 131.024C47.1522 131.088 46.8402 131.12 46.4722 131.12ZM55.7855 127.772C55.7855 128.836 55.5135 129.66 54.9695 130.244C54.4335 130.828 53.7055 131.12 52.7855 131.12C52.2175 131.12 51.7095 130.992 51.2615 130.736C50.8215 130.472 50.4735 130.092 50.2175 129.596C49.9615 129.092 49.8335 128.484 49.8335 127.772C49.8335 126.708 50.1015 125.888 50.6375 125.312C51.1735 124.736 51.9015 124.448 52.8215 124.448C53.4055 124.448 53.9175 124.58 54.3575 124.844C54.8055 125.1 55.1536 125.476 55.4016 125.972C55.6575 126.46 55.7855 127.06 55.7855 127.772ZM50.9255 127.772C50.9255 128.532 51.0735 129.136 51.3695 129.584C51.6735 130.024 52.1535 130.244 52.8095 130.244C53.4575 130.244 53.9335 130.024 54.2375 129.584C54.5415 129.136 54.6935 128.532 54.6935 127.772C54.6935 127.012 54.5415 126.416 54.2375 125.984C53.9335 125.552 53.4535 125.336 52.7975 125.336C52.1415 125.336 51.6655 125.552 51.3695 125.984C51.0735 126.416 50.9255 127.012 50.9255 127.772ZM65.0509 124.448C65.7789 124.448 66.3229 124.636 66.6829 125.012C67.0429 125.38 67.2229 125.98 67.2229 126.812V131H66.1789V126.86C66.1789 125.844 65.7429 125.336 64.8709 125.336C64.2469 125.336 63.7989 125.516 63.5269 125.876C63.2629 126.236 63.1309 126.76 63.1309 127.448V131H62.0869V126.86C62.0869 125.844 61.6469 125.336 60.7669 125.336C60.1189 125.336 59.6709 125.536 59.4229 125.936C59.1749 126.336 59.0509 126.912 59.0509 127.664V131H57.9949V124.568H58.8469L59.0029 125.444H59.0629C59.2629 125.108 59.5309 124.86 59.8669 124.7C60.2109 124.532 60.5749 124.448 60.9589 124.448C61.9669 124.448 62.6229 124.808 62.9269 125.528H62.9869C63.2029 125.16 63.4949 124.888 63.8629 124.712C64.2389 124.536 64.6349 124.448 65.0509 124.448ZM70.2854 122.156C70.4454 122.156 70.5854 122.212 70.7054 122.324C70.8334 122.428 70.8974 122.596 70.8974 122.828C70.8974 123.052 70.8334 123.22 70.7054 123.332C70.5854 123.444 70.4454 123.5 70.2854 123.5C70.1094 123.5 69.9614 123.444 69.8414 123.332C69.7214 123.22 69.6614 123.052 69.6614 122.828C69.6614 122.596 69.7214 122.428 69.8414 122.324C69.9614 122.212 70.1094 122.156 70.2854 122.156ZM70.8014 124.568V131H69.7454V124.568H70.8014ZM76.4709 124.448C77.2389 124.448 77.8189 124.636 78.2109 125.012C78.6029 125.38 78.7989 125.98 78.7989 126.812V131H77.7549V126.884C77.7549 125.852 77.2749 125.336 76.3149 125.336C75.6029 125.336 75.1109 125.536 74.8389 125.936C74.5669 126.336 74.4309 126.912 74.4309 127.664V131H73.3749V124.568H74.2269L74.3829 125.444H74.4429C74.6509 125.108 74.9389 124.86 75.3069 124.7C75.6749 124.532 76.0629 124.448 76.4709 124.448ZM83.6086 124.448C84.0326 124.448 84.4126 124.528 84.7486 124.688C85.0926 124.848 85.3846 125.092 85.6246 125.42H85.6846L85.8286 124.568H86.6686V131.108C86.6686 132.028 86.4326 132.72 85.9606 133.184C85.4966 133.648 84.7726 133.88 83.7886 133.88C82.8446 133.88 82.0726 133.744 81.4726 133.472V132.5C82.1046 132.836 82.8966 133.004 83.8486 133.004C84.4006 133.004 84.8326 132.84 85.1446 132.512C85.4646 132.192 85.6246 131.752 85.6246 131.192V130.94C85.6246 130.844 85.6286 130.708 85.6366 130.532C85.6446 130.348 85.6526 130.22 85.6606 130.148H85.6126C85.1806 130.796 84.5166 131.12 83.6206 131.12C82.7886 131.12 82.1366 130.828 81.6646 130.244C81.2006 129.66 80.9686 128.844 80.9686 127.796C80.9686 126.772 81.2006 125.96 81.6646 125.36C82.1366 124.752 82.7846 124.448 83.6086 124.448ZM83.7526 125.336C83.2166 125.336 82.8006 125.552 82.5046 125.984C82.2086 126.408 82.0606 127.016 82.0606 127.808C82.0606 128.6 82.2046 129.208 82.4926 129.632C82.7886 130.048 83.2166 130.256 83.7766 130.256C84.4246 130.256 84.8966 130.084 85.1926 129.74C85.4886 129.388 85.6366 128.824 85.6366 128.048V127.796C85.6366 126.916 85.4846 126.288 85.1806 125.912C84.8766 125.528 84.4006 125.336 83.7526 125.336ZM95.336 124.46C96.12 124.46 96.7 124.632 97.076 124.976C97.452 125.32 97.64 125.868 97.64 126.62V131H96.872L96.668 130.088H96.62C96.34 130.44 96.044 130.7 95.732 130.868C95.428 131.036 95.004 131.12 94.46 131.12C93.876 131.12 93.392 130.968 93.008 130.664C92.624 130.352 92.432 129.868 92.432 129.212C92.432 128.572 92.684 128.08 93.188 127.736C93.692 127.384 94.468 127.192 95.516 127.16L96.608 127.124V126.74C96.608 126.204 96.492 125.832 96.26 125.624C96.028 125.416 95.7 125.312 95.276 125.312C94.94 125.312 94.62 125.364 94.316 125.468C94.012 125.564 93.728 125.676 93.464 125.804L93.14 125.012C93.42 124.86 93.752 124.732 94.136 124.628C94.52 124.516 94.92 124.46 95.336 124.46ZM96.596 127.856L95.648 127.892C94.848 127.924 94.292 128.052 93.98 128.276C93.676 128.5 93.524 128.816 93.524 129.224C93.524 129.584 93.632 129.848 93.848 130.016C94.072 130.184 94.356 130.268 94.7 130.268C95.244 130.268 95.696 130.12 96.056 129.824C96.416 129.52 96.596 129.056 96.596 128.432V127.856ZM103.222 124.448C104.014 124.448 104.65 124.724 105.13 125.276C105.618 125.828 105.862 126.66 105.862 127.772C105.862 128.868 105.618 129.7 105.13 130.268C104.65 130.836 104.01 131.12 103.21 131.12C102.714 131.12 102.302 131.028 101.974 130.844C101.654 130.652 101.402 130.432 101.218 130.184H101.146C101.162 130.32 101.178 130.492 101.194 130.7C101.21 130.908 101.218 131.088 101.218 131.24V133.88H100.162V124.568H101.026L101.17 125.444H101.218C101.41 125.164 101.662 124.928 101.974 124.736C102.286 124.544 102.702 124.448 103.222 124.448ZM103.03 125.336C102.374 125.336 101.91 125.52 101.638 125.888C101.374 126.256 101.234 126.816 101.218 127.568V127.772C101.218 128.564 101.346 129.176 101.602 129.608C101.866 130.032 102.35 130.244 103.054 130.244C103.446 130.244 103.766 130.136 104.014 129.92C104.27 129.704 104.458 129.412 104.578 129.044C104.706 128.668 104.77 128.24 104.77 127.76C104.77 127.024 104.626 126.436 104.338 125.996C104.058 125.556 103.622 125.336 103.03 125.336ZM111.141 124.448C111.933 124.448 112.569 124.724 113.049 125.276C113.537 125.828 113.781 126.66 113.781 127.772C113.781 128.868 113.537 129.7 113.049 130.268C112.569 130.836 111.929 131.12 111.129 131.12C110.633 131.12 110.221 131.028 109.893 130.844C109.573 130.652 109.321 130.432 109.137 130.184H109.065C109.081 130.32 109.097 130.492 109.113 130.7C109.129 130.908 109.137 131.088 109.137 131.24V133.88H108.081V124.568H108.945L109.089 125.444H109.137C109.329 125.164 109.581 124.928 109.893 124.736C110.205 124.544 110.621 124.448 111.141 124.448ZM110.949 125.336C110.293 125.336 109.829 125.52 109.557 125.888C109.293 126.256 109.153 126.816 109.137 127.568V127.772C109.137 128.564 109.265 129.176 109.521 129.608C109.785 130.032 110.269 130.244 110.973 130.244C111.365 130.244 111.685 130.136 111.933 129.92C112.189 129.704 112.377 129.412 112.497 129.044C112.625 128.668 112.689 128.24 112.689 127.76C112.689 127.024 112.545 126.436 112.257 125.996C111.977 125.556 111.541 125.336 110.949 125.336ZM121.591 127.772C121.591 128.836 121.319 129.66 120.775 130.244C120.239 130.828 119.511 131.12 118.591 131.12C118.023 131.12 117.515 130.992 117.067 130.736C116.627 130.472 116.279 130.092 116.023 129.596C115.767 129.092 115.639 128.484 115.639 127.772C115.639 126.708 115.907 125.888 116.443 125.312C116.979 124.736 117.707 124.448 118.627 124.448C119.211 124.448 119.723 124.58 120.163 124.844C120.611 125.1 120.959 125.476 121.207 125.972C121.463 126.46 121.591 127.06 121.591 127.772ZM116.731 127.772C116.731 128.532 116.879 129.136 117.175 129.584C117.479 130.024 117.959 130.244 118.615 130.244C119.263 130.244 119.739 130.024 120.043 129.584C120.347 129.136 120.499 128.532 120.499 127.772C120.499 127.012 120.347 126.416 120.043 125.984C119.739 125.552 119.259 125.336 118.603 125.336C117.947 125.336 117.471 125.552 117.175 125.984C116.879 126.416 116.731 127.012 116.731 127.772ZM124.341 122.156C124.501 122.156 124.641 122.212 124.761 122.324C124.889 122.428 124.953 122.596 124.953 122.828C124.953 123.052 124.889 123.22 124.761 123.332C124.641 123.444 124.501 123.5 124.341 123.5C124.165 123.5 124.017 123.444 123.897 123.332C123.777 123.22 123.717 123.052 123.717 122.828C123.717 122.596 123.777 122.428 123.897 122.324C124.017 122.212 124.165 122.156 124.341 122.156ZM124.857 124.568V131H123.801V124.568H124.857ZM130.526 124.448C131.294 124.448 131.874 124.636 132.266 125.012C132.658 125.38 132.854 125.98 132.854 126.812V131H131.81V126.884C131.81 125.852 131.33 125.336 130.37 125.336C129.658 125.336 129.166 125.536 128.894 125.936C128.622 126.336 128.486 126.912 128.486 127.664V131H127.43V124.568H128.282L128.438 125.444H128.498C128.706 125.108 128.994 124.86 129.362 124.7C129.73 124.532 130.118 124.448 130.526 124.448ZM137.532 130.256C137.692 130.256 137.856 130.244 138.024 130.22C138.192 130.188 138.328 130.156 138.432 130.124V130.928C138.32 130.984 138.16 131.028 137.952 131.06C137.744 131.1 137.544 131.12 137.352 131.12C137.016 131.12 136.704 131.064 136.416 130.952C136.136 130.832 135.908 130.628 135.732 130.34C135.556 130.052 135.468 129.648 135.468 129.128V125.384H134.556V124.88L135.48 124.46L135.9 123.092H136.524V124.568H138.384V125.384H136.524V129.104C136.524 129.496 136.616 129.788 136.8 129.98C136.992 130.164 137.236 130.256 137.532 130.256ZM147.311 124.448C148.039 124.448 148.583 124.636 148.943 125.012C149.303 125.38 149.483 125.98 149.483 126.812V131H148.439V126.86C148.439 125.844 148.003 125.336 147.131 125.336C146.507 125.336 146.059 125.516 145.787 125.876C145.523 126.236 145.391 126.76 145.391 127.448V131H144.347V126.86C144.347 125.844 143.907 125.336 143.027 125.336C142.379 125.336 141.931 125.536 141.683 125.936C141.435 126.336 141.311 126.912 141.311 127.664V131H140.255V124.568H141.107L141.263 125.444H141.323C141.523 125.108 141.791 124.86 142.127 124.7C142.471 124.532 142.835 124.448 143.219 124.448C144.227 124.448 144.883 124.808 145.187 125.528H145.247C145.463 125.16 145.755 124.888 146.123 124.712C146.499 124.536 146.895 124.448 147.311 124.448ZM154.49 124.448C155.042 124.448 155.514 124.568 155.906 124.808C156.306 125.048 156.61 125.388 156.818 125.828C157.034 126.26 157.142 126.768 157.142 127.352V127.988H152.738C152.754 128.716 152.938 129.272 153.29 129.656C153.65 130.032 154.15 130.22 154.79 130.22C155.198 130.22 155.558 130.184 155.87 130.112C156.19 130.032 156.518 129.92 156.854 129.776V130.7C156.526 130.844 156.202 130.948 155.882 131.012C155.562 131.084 155.182 131.12 154.742 131.12C154.134 131.12 153.594 130.996 153.122 130.748C152.658 130.5 152.294 130.132 152.03 129.644C151.774 129.148 151.646 128.544 151.646 127.832C151.646 127.128 151.762 126.524 151.994 126.02C152.234 125.516 152.566 125.128 152.99 124.856C153.422 124.584 153.922 124.448 154.49 124.448ZM154.478 125.312C153.974 125.312 153.574 125.476 153.278 125.804C152.99 126.124 152.818 126.572 152.762 127.148H156.038C156.03 126.604 155.902 126.164 155.654 125.828C155.406 125.484 155.014 125.312 154.478 125.312ZM162.411 124.448C163.179 124.448 163.759 124.636 164.151 125.012C164.543 125.38 164.739 125.98 164.739 126.812V131H163.695V126.884C163.695 125.852 163.215 125.336 162.255 125.336C161.543 125.336 161.051 125.536 160.779 125.936C160.507 126.336 160.371 126.912 160.371 127.664V131H159.315V124.568H160.167L160.323 125.444H160.383C160.591 125.108 160.879 124.86 161.247 124.7C161.615 124.532 162.003 124.448 162.411 124.448ZM169.417 130.256C169.577 130.256 169.741 130.244 169.909 130.22C170.077 130.188 170.213 130.156 170.317 130.124V130.928C170.205 130.984 170.045 131.028 169.837 131.06C169.629 131.1 169.429 131.12 169.237 131.12C168.901 131.12 168.589 131.064 168.301 130.952C168.021 130.832 167.793 130.628 167.617 130.34C167.441 130.052 167.353 129.648 167.353 129.128V125.384H166.441V124.88L167.365 124.46L167.785 123.092H168.409V124.568H170.269V125.384H168.409V129.104C168.409 129.496 168.501 129.788 168.685 129.98C168.877 130.164 169.121 130.256 169.417 130.256ZM181.385 127.772C181.385 128.836 181.113 129.66 180.569 130.244C180.033 130.828 179.305 131.12 178.385 131.12C177.817 131.12 177.309 130.992 176.861 130.736C176.421 130.472 176.073 130.092 175.817 129.596C175.561 129.092 175.433 128.484 175.433 127.772C175.433 126.708 175.701 125.888 176.237 125.312C176.773 124.736 177.501 124.448 178.421 124.448C179.005 124.448 179.517 124.58 179.957 124.844C180.405 125.1 180.753 125.476 181.001 125.972C181.257 126.46 181.385 127.06 181.385 127.772ZM176.525 127.772C176.525 128.532 176.673 129.136 176.969 129.584C177.273 130.024 177.753 130.244 178.409 130.244C179.057 130.244 179.533 130.024 179.837 129.584C180.141 129.136 180.293 128.532 180.293 127.772C180.293 127.012 180.141 126.416 179.837 125.984C179.533 125.552 179.053 125.336 178.397 125.336C177.741 125.336 177.265 125.552 176.969 125.984C176.673 126.416 176.525 127.012 176.525 127.772ZM186.691 124.448C187.459 124.448 188.039 124.636 188.431 125.012C188.823 125.38 189.019 125.98 189.019 126.812V131H187.975V126.884C187.975 125.852 187.495 125.336 186.535 125.336C185.823 125.336 185.331 125.536 185.059 125.936C184.787 126.336 184.651 126.912 184.651 127.664V131H183.595V124.568H184.447L184.603 125.444H184.663C184.871 125.108 185.159 124.86 185.527 124.7C185.895 124.532 186.283 124.448 186.691 124.448ZM27.48 144.712C27.48 143.736 27.62 142.796 27.9 141.892C28.188 140.98 28.636 140.16 29.244 139.432H30.24C29.68 140.184 29.256 141.012 28.968 141.916C28.688 142.82 28.548 143.748 28.548 144.7C28.548 145.628 28.688 146.54 28.968 147.436C29.256 148.324 29.676 149.144 30.228 149.896H29.244C28.636 149.192 28.188 148.396 27.9 147.508C27.62 146.612 27.48 145.68 27.48 144.712ZM31.6134 144.712C31.6134 143.736 31.7534 142.796 32.0334 141.892C32.3214 140.98 32.7694 140.16 33.3774 139.432H34.3734C33.8134 140.184 33.3894 141.012 33.1014 141.916C32.8214 142.82 32.6814 143.748 32.6814 144.7C32.6814 145.628 32.8214 146.54 33.1014 147.436C33.3894 148.324 33.8094 149.144 34.3614 149.896H33.3774C32.7694 149.192 32.3214 148.396 32.0334 147.508C31.7534 146.612 31.6134 145.68 31.6134 144.712ZM38.5667 148.12C37.7667 148.12 37.1267 147.844 36.6467 147.292C36.1667 146.732 35.9267 145.9 35.9267 144.796C35.9267 143.692 36.1667 142.86 36.6467 142.3C37.1347 141.732 37.7787 141.448 38.5787 141.448C39.0747 141.448 39.4787 141.54 39.7907 141.724C40.1107 141.908 40.3707 142.132 40.5707 142.396H40.6427C40.6347 142.292 40.6187 142.14 40.5947 141.94C40.5787 141.732 40.5707 141.568 40.5707 141.448V138.88H41.6267V148H40.7747L40.6187 147.136H40.5707C40.3787 147.408 40.1227 147.64 39.8027 147.832C39.4827 148.024 39.0707 148.12 38.5667 148.12ZM38.7347 147.244C39.4147 147.244 39.8907 147.06 40.1627 146.692C40.4427 146.316 40.5827 145.752 40.5827 145V144.808C40.5827 144.008 40.4507 143.396 40.1867 142.972C39.9227 142.54 39.4347 142.324 38.7227 142.324C38.1547 142.324 37.7267 142.552 37.4387 143.008C37.1587 143.456 37.0187 144.06 37.0187 144.82C37.0187 145.588 37.1587 146.184 37.4387 146.608C37.7267 147.032 38.1587 147.244 38.7347 147.244ZM46.6413 141.46C47.4253 141.46 48.0053 141.632 48.3813 141.976C48.7573 142.32 48.9453 142.868 48.9453 143.62V148H48.1773L47.9733 147.088H47.9253C47.6453 147.44 47.3493 147.7 47.0373 147.868C46.7333 148.036 46.3093 148.12 45.7653 148.12C45.1813 148.12 44.6973 147.968 44.3133 147.664C43.9293 147.352 43.7373 146.868 43.7373 146.212C43.7373 145.572 43.9893 145.08 44.4933 144.736C44.9973 144.384 45.7733 144.192 46.8213 144.16L47.9133 144.124V143.74C47.9133 143.204 47.7973 142.832 47.5653 142.624C47.3333 142.416 47.0053 142.312 46.5813 142.312C46.2453 142.312 45.9253 142.364 45.6213 142.468C45.3173 142.564 45.0333 142.676 44.7693 142.804L44.4453 142.012C44.7253 141.86 45.0573 141.732 45.4413 141.628C45.8253 141.516 46.2253 141.46 46.6413 141.46ZM47.9013 144.856L46.9533 144.892C46.1533 144.924 45.5973 145.052 45.2853 145.276C44.9813 145.5 44.8293 145.816 44.8293 146.224C44.8293 146.584 44.9373 146.848 45.1533 147.016C45.3773 147.184 45.6613 147.268 46.0053 147.268C46.5493 147.268 47.0013 147.12 47.3613 146.824C47.7213 146.52 47.9013 146.056 47.9013 145.432V144.856ZM53.6155 147.256C53.7755 147.256 53.9395 147.244 54.1075 147.22C54.2755 147.188 54.4115 147.156 54.5155 147.124V147.928C54.4035 147.984 54.2435 148.028 54.0355 148.06C53.8275 148.1 53.6275 148.12 53.4355 148.12C53.0995 148.12 52.7875 148.064 52.4995 147.952C52.2195 147.832 51.9915 147.628 51.8155 147.34C51.6395 147.052 51.5515 146.648 51.5515 146.128V142.384H50.6395V141.88L51.5635 141.46L51.9835 140.092H52.6075V141.568H54.4675V142.384H52.6075V146.104C52.6075 146.496 52.6995 146.788 52.8835 146.98C53.0755 147.164 53.3195 147.256 53.6155 147.256ZM58.8232 141.448C59.3752 141.448 59.8472 141.568 60.2392 141.808C60.6392 142.048 60.9432 142.388 61.1512 142.828C61.3672 143.26 61.4752 143.768 61.4752 144.352V144.988H57.0712C57.0872 145.716 57.2712 146.272 57.6232 146.656C57.9832 147.032 58.4832 147.22 59.1232 147.22C59.5312 147.22 59.8912 147.184 60.2032 147.112C60.5232 147.032 60.8512 146.92 61.1872 146.776V147.7C60.8592 147.844 60.5352 147.948 60.2152 148.012C59.8952 148.084 59.5152 148.12 59.0752 148.12C58.4672 148.12 57.9272 147.996 57.4552 147.748C56.9912 147.5 56.6272 147.132 56.3632 146.644C56.1072 146.148 55.9792 145.544 55.9792 144.832C55.9792 144.128 56.0952 143.524 56.3272 143.02C56.5672 142.516 56.8992 142.128 57.3232 141.856C57.7552 141.584 58.2552 141.448 58.8232 141.448ZM58.8112 142.312C58.3072 142.312 57.9072 142.476 57.6112 142.804C57.3232 143.124 57.1512 143.572 57.0952 144.148H60.3712C60.3632 143.604 60.2352 143.164 59.9872 142.828C59.7392 142.484 59.3472 142.312 58.8112 142.312ZM65.7483 144.712C65.7483 145.68 65.6043 146.612 65.3163 147.508C65.0363 148.396 64.5923 149.192 63.9843 149.896H63.0003C63.5523 149.144 63.9683 148.324 64.2483 147.436C64.5363 146.54 64.6803 145.628 64.6803 144.7C64.6803 143.748 64.5363 142.82 64.2483 141.916C63.9683 141.012 63.5483 140.184 62.9883 139.432H63.9843C64.5923 140.16 65.0363 140.98 65.3163 141.892C65.6043 142.796 65.7483 143.736 65.7483 144.712ZM69.8817 144.712C69.8817 145.68 69.7377 146.612 69.4497 147.508C69.1697 148.396 68.7257 149.192 68.1177 149.896H67.1337C67.6857 149.144 68.1017 148.324 68.3817 147.436C68.6697 146.54 68.8137 145.628 68.8137 144.7C68.8137 143.748 68.6697 142.82 68.3817 141.916C68.1017 141.012 67.6817 140.184 67.1217 139.432H68.1177C68.7257 140.16 69.1697 140.98 69.4497 141.892C69.7377 142.796 69.8817 143.736 69.8817 144.712ZM78.004 141.46C78.788 141.46 79.368 141.632 79.744 141.976C80.12 142.32 80.308 142.868 80.308 143.62V148H79.54L79.336 147.088H79.288C79.008 147.44 78.712 147.7 78.4 147.868C78.096 148.036 77.672 148.12 77.128 148.12C76.544 148.12 76.06 147.968 75.676 147.664C75.292 147.352 75.1 146.868 75.1 146.212C75.1 145.572 75.352 145.08 75.856 144.736C76.36 144.384 77.136 144.192 78.184 144.16L79.276 144.124V143.74C79.276 143.204 79.16 142.832 78.928 142.624C78.696 142.416 78.368 142.312 77.944 142.312C77.608 142.312 77.288 142.364 76.984 142.468C76.68 142.564 76.396 142.676 76.132 142.804L75.808 142.012C76.088 141.86 76.42 141.732 76.804 141.628C77.188 141.516 77.588 141.46 78.004 141.46ZM79.264 144.856L78.316 144.892C77.516 144.924 76.96 145.052 76.648 145.276C76.344 145.5 76.192 145.816 76.192 146.224C76.192 146.584 76.3 146.848 76.516 147.016C76.74 147.184 77.024 147.268 77.368 147.268C77.912 147.268 78.364 147.12 78.724 146.824C79.084 146.52 79.264 146.056 79.264 145.432V144.856ZM84.9783 147.256C85.1383 147.256 85.3023 147.244 85.4703 147.22C85.6383 147.188 85.7743 147.156 85.8783 147.124V147.928C85.7663 147.984 85.6063 148.028 85.3983 148.06C85.1903 148.1 84.9903 148.12 84.7983 148.12C84.4623 148.12 84.1503 148.064 83.8623 147.952C83.5823 147.832 83.3543 147.628 83.1783 147.34C83.0023 147.052 82.9143 146.648 82.9143 146.128V142.384H82.0023V141.88L82.9263 141.46L83.3463 140.092H83.9703V141.568H85.8303V142.384H83.9703V146.104C83.9703 146.496 84.0623 146.788 84.2463 146.98C84.4383 147.164 84.6823 147.256 84.9783 147.256ZM90.8148 144.712C90.8148 143.736 90.9548 142.796 91.2348 141.892C91.5228 140.98 91.9708 140.16 92.5788 139.432H93.5748C93.0148 140.184 92.5908 141.012 92.3028 141.916C92.0228 142.82 91.8828 143.748 91.8828 144.7C91.8828 145.628 92.0228 146.54 92.3028 147.436C92.5908 148.324 93.0108 149.144 93.5628 149.896H92.5788C91.9708 149.192 91.5228 148.396 91.2348 147.508C90.9548 146.612 90.8148 145.68 90.8148 144.712ZM94.9482 144.712C94.9482 143.736 95.0882 142.796 95.3682 141.892C95.6562 140.98 96.1042 140.16 96.7122 139.432H97.7082C97.1482 140.184 96.7242 141.012 96.4362 141.916C96.1562 142.82 96.0162 143.748 96.0162 144.7C96.0162 145.628 96.1562 146.54 96.4362 147.436C96.7242 148.324 97.1442 149.144 97.6962 149.896H96.7122C96.1042 149.192 95.6562 148.396 95.3682 147.508C95.0882 146.612 94.9482 145.68 94.9482 144.712ZM101.77 147.256C101.93 147.256 102.094 147.244 102.262 147.22C102.43 147.188 102.566 147.156 102.67 147.124V147.928C102.558 147.984 102.398 148.028 102.19 148.06C101.982 148.1 101.782 148.12 101.59 148.12C101.254 148.12 100.942 148.064 100.654 147.952C100.374 147.832 100.146 147.628 99.9696 147.34C99.7936 147.052 99.7056 146.648 99.7056 146.128V142.384H98.7936V141.88L99.7176 141.46L100.138 140.092H100.762V141.568H102.622V142.384H100.762V146.104C100.762 146.496 100.854 146.788 101.038 146.98C101.23 147.164 101.474 147.256 101.77 147.256ZM105.033 139.156C105.193 139.156 105.333 139.212 105.453 139.324C105.581 139.428 105.645 139.596 105.645 139.828C105.645 140.052 105.581 140.22 105.453 140.332C105.333 140.444 105.193 140.5 105.033 140.5C104.857 140.5 104.709 140.444 104.589 140.332C104.469 140.22 104.409 140.052 104.409 139.828C104.409 139.596 104.469 139.428 104.589 139.324C104.709 139.212 104.857 139.156 105.033 139.156ZM105.549 141.568V148H104.493V141.568H105.549ZM115.179 141.448C115.907 141.448 116.451 141.636 116.811 142.012C117.171 142.38 117.351 142.98 117.351 143.812V148H116.307V143.86C116.307 142.844 115.871 142.336 114.999 142.336C114.375 142.336 113.927 142.516 113.655 142.876C113.391 143.236 113.259 143.76 113.259 144.448V148H112.215V143.86C112.215 142.844 111.775 142.336 110.895 142.336C110.247 142.336 109.799 142.536 109.551 142.936C109.303 143.336 109.179 143.912 109.179 144.664V148H108.123V141.568H108.975L109.131 142.444H109.191C109.391 142.108 109.659 141.86 109.995 141.7C110.339 141.532 110.703 141.448 111.087 141.448C112.095 141.448 112.751 141.808 113.055 142.528H113.115C113.331 142.16 113.623 141.888 113.991 141.712C114.367 141.536 114.763 141.448 115.179 141.448ZM122.357 141.448C122.909 141.448 123.381 141.568 123.773 141.808C124.173 142.048 124.477 142.388 124.685 142.828C124.901 143.26 125.009 143.768 125.009 144.352V144.988H120.605C120.621 145.716 120.805 146.272 121.157 146.656C121.517 147.032 122.017 147.22 122.657 147.22C123.065 147.22 123.425 147.184 123.737 147.112C124.057 147.032 124.385 146.92 124.721 146.776V147.7C124.393 147.844 124.069 147.948 123.749 148.012C123.429 148.084 123.049 148.12 122.609 148.12C122.001 148.12 121.461 147.996 120.989 147.748C120.525 147.5 120.161 147.132 119.897 146.644C119.641 146.148 119.513 145.544 119.513 144.832C119.513 144.128 119.629 143.524 119.861 143.02C120.101 142.516 120.433 142.128 120.857 141.856C121.289 141.584 121.789 141.448 122.357 141.448ZM122.345 142.312C121.841 142.312 121.441 142.476 121.145 142.804C120.857 143.124 120.685 143.572 120.629 144.148H123.905C123.897 143.604 123.769 143.164 123.521 142.828C123.273 142.484 122.881 142.312 122.345 142.312ZM129.282 144.712C129.282 145.68 129.138 146.612 128.85 147.508C128.57 148.396 128.126 149.192 127.518 149.896H126.534C127.086 149.144 127.502 148.324 127.782 147.436C128.07 146.54 128.214 145.628 128.214 144.7C128.214 143.748 128.07 142.82 127.782 141.916C127.502 141.012 127.082 140.184 126.522 139.432H127.518C128.126 140.16 128.57 140.98 128.85 141.892C129.138 142.796 129.282 143.736 129.282 144.712ZM133.416 144.712C133.416 145.68 133.272 146.612 132.984 147.508C132.704 148.396 132.26 149.192 131.652 149.896H130.668C131.22 149.144 131.636 148.324 131.916 147.436C132.204 146.54 132.348 145.628 132.348 144.7C132.348 143.748 132.204 142.82 131.916 141.916C131.636 141.012 131.216 140.184 130.656 139.432H131.652C132.26 140.16 132.704 140.98 132.984 141.892C133.272 142.796 133.416 143.736 133.416 144.712ZM135.293 147.352C135.293 147.056 135.365 146.848 135.509 146.728C135.653 146.608 135.825 146.548 136.025 146.548C136.233 146.548 136.409 146.608 136.553 146.728C136.705 146.848 136.781 147.056 136.781 147.352C136.781 147.64 136.705 147.848 136.553 147.976C136.409 148.104 136.233 148.168 136.025 148.168C135.825 148.168 135.653 148.104 135.509 147.976C135.365 147.848 135.293 147.64 135.293 147.352Z" fill="black"/>
<path d="M0.5 15C0.5 6.99187 6.99187 0.5 15 0.5H344C352.008 0.5 358.5 6.99187 358.5 15V231.5H0.5V15Z" stroke="#BBBDBF"/>
</g>
<defs>
<filter id="filter0_d" x="0" y="0" width="367" height="240" filterUnits="userSpaceOnUse" color-interpolation-filters="sRGB">
<feFlood flood-opacity="0" result="BackgroundImageFix"/>
<feColorMatrix in="SourceAlpha" type="matrix" values="0 0 0 0 0 0 0 0 0 0 0 0 0 0 0 0 0 0 127 0"/>
<feOffset dx="4" dy="4"/>
<feGaussianBlur stdDeviation="2"/>
<feColorMatrix type="matrix" values="0 0 0 0 0 0 0 0 0 0 0 0 0 0 0 0 0 0 0.1 0"/>
<feBlend mode="normal" in2="BackgroundImageFix" result="effect1_dropShadow"/>
<feBlend mode="normal" in="SourceGraphic" in2="effect1_dropShadow" result="shape"/>
</filter>
<filter id="filter1_d" x="18" y="176" width="65" height="28" filterUnits="userSpaceOnUse" color-interpolation-filters="sRGB">
<feFlood flood-opacity="0" result="BackgroundImageFix"/>
<feColorMatrix in="SourceAlpha" type="matrix" values="0 0 0 0 0 0 0 0 0 0 0 0 0 0 0 0 0 0 127 0"/>
<feOffset dy="2"/>
<feColorMatrix type="matrix" values="0 0 0 0 0 0 0 0 0 0 0 0 0 0 0 0 0 0 1 0"/>
<feBlend mode="normal" in2="BackgroundImageFix" result="effect1_dropShadow"/>
<feBlend mode="normal" in="SourceGraphic" in2="effect1_dropShadow" result="shape"/>
</filter>
</defs>
</svg>
