<svg width="367" height="240" viewBox="0 0 367 240" fill="none" xmlns="http://www.w3.org/2000/svg">
<g filter="url(#filter0_d)">
<path d="M0 15C0 6.71573 6.71573 0 15 0H344C352.284 0 359 6.71573 359 15V232H0V15Z" fill="white"/>
<path d="M0 15C0 6.71573 6.71573 0 15 0H344C352.284 0 359 6.71573 359 15V18H0V15Z" fill="#727272"/>
<g filter="url(#filter1_d)">
<rect x="18" y="176" width="65" height="26" fill="#00703C"/>
</g>
<path d="M42.876 186.746C42.84 186.806 42.8 186.852 42.756 186.884C42.716 186.912 42.666 186.926 42.606 186.926C42.538 186.926 42.458 186.892 42.366 186.824C42.274 186.756 42.158 186.682 42.018 186.602C41.882 186.518 41.716 186.442 41.52 186.374C41.328 186.306 41.094 186.272 40.818 186.272C40.558 186.272 40.328 186.308 40.128 186.38C39.932 186.448 39.766 186.542 39.63 186.662C39.498 186.782 39.398 186.924 39.33 187.088C39.262 187.248 39.228 187.422 39.228 187.61C39.228 187.85 39.286 188.05 39.402 188.21C39.522 188.366 39.678 188.5 39.87 188.612C40.066 188.724 40.286 188.822 40.53 188.906C40.778 188.986 41.03 189.07 41.286 189.158C41.546 189.246 41.798 189.346 42.042 189.458C42.29 189.566 42.51 189.704 42.702 189.872C42.898 190.04 43.054 190.246 43.17 190.49C43.29 190.734 43.35 191.034 43.35 191.39C43.35 191.766 43.286 192.12 43.158 192.452C43.03 192.78 42.842 193.066 42.594 193.31C42.35 193.554 42.048 193.746 41.688 193.886C41.332 194.026 40.926 194.096 40.47 194.096C39.91 194.096 39.402 193.996 38.946 193.796C38.49 193.592 38.1 193.318 37.776 192.974L38.112 192.422C38.144 192.378 38.182 192.342 38.226 192.314C38.274 192.282 38.326 192.266 38.382 192.266C38.434 192.266 38.492 192.288 38.556 192.332C38.624 192.372 38.7 192.424 38.784 192.488C38.868 192.552 38.964 192.622 39.072 192.698C39.18 192.774 39.302 192.844 39.438 192.908C39.578 192.972 39.736 193.026 39.912 193.07C40.088 193.11 40.286 193.13 40.506 193.13C40.782 193.13 41.028 193.092 41.244 193.016C41.46 192.94 41.642 192.834 41.79 192.698C41.942 192.558 42.058 192.392 42.138 192.2C42.218 192.008 42.258 191.794 42.258 191.558C42.258 191.298 42.198 191.086 42.078 190.922C41.962 190.754 41.808 190.614 41.616 190.502C41.424 190.39 41.204 190.296 40.956 190.22C40.708 190.14 40.456 190.06 40.2 189.98C39.944 189.896 39.692 189.8 39.444 189.692C39.196 189.584 38.976 189.444 38.784 189.272C38.592 189.1 38.436 188.886 38.316 188.63C38.2 188.37 38.142 188.05 38.142 187.67C38.142 187.366 38.2 187.072 38.316 186.788C38.436 186.504 38.608 186.252 38.832 186.032C39.06 185.812 39.338 185.636 39.666 185.504C39.998 185.372 40.378 185.306 40.806 185.306C41.286 185.306 41.722 185.382 42.114 185.534C42.51 185.686 42.858 185.906 43.158 186.194L42.876 186.746ZM48.4893 191.264C47.9973 191.28 47.5773 191.32 47.2293 191.384C46.8853 191.444 46.6033 191.524 46.3833 191.624C46.1673 191.724 46.0093 191.842 45.9093 191.978C45.8133 192.114 45.7653 192.266 45.7653 192.434C45.7653 192.594 45.7913 192.732 45.8433 192.848C45.8953 192.964 45.9653 193.06 46.0533 193.136C46.1453 193.208 46.2513 193.262 46.3713 193.298C46.4953 193.33 46.6273 193.346 46.7673 193.346C46.9553 193.346 47.1273 193.328 47.2833 193.292C47.4393 193.252 47.5853 193.196 47.7213 193.124C47.8613 193.052 47.9933 192.966 48.1173 192.866C48.2453 192.766 48.3693 192.652 48.4893 192.524V191.264ZM45.0393 188.78C45.3753 188.456 45.7373 188.214 46.1253 188.054C46.5133 187.894 46.9433 187.814 47.4153 187.814C47.7553 187.814 48.0573 187.87 48.3213 187.982C48.5853 188.094 48.8073 188.25 48.9873 188.45C49.1673 188.65 49.3033 188.892 49.3953 189.176C49.4873 189.46 49.5333 189.772 49.5333 190.112V194H49.0593C48.9553 194 48.8753 193.984 48.8193 193.952C48.7633 193.916 48.7193 193.848 48.6873 193.748L48.5673 193.172C48.4073 193.32 48.2513 193.452 48.0993 193.568C47.9473 193.68 47.7873 193.776 47.6193 193.856C47.4513 193.932 47.2713 193.99 47.0793 194.03C46.8913 194.074 46.6813 194.096 46.4493 194.096C46.2133 194.096 45.9913 194.064 45.7833 194C45.5753 193.932 45.3933 193.832 45.2373 193.7C45.0853 193.568 44.9633 193.402 44.8713 193.202C44.7833 192.998 44.7393 192.758 44.7393 192.482C44.7393 192.242 44.8053 192.012 44.9373 191.792C45.0693 191.568 45.2833 191.37 45.5793 191.198C45.8753 191.026 46.2613 190.886 46.7373 190.778C47.2133 190.666 47.7973 190.602 48.4893 190.586V190.112C48.4893 189.64 48.3873 189.284 48.1833 189.044C47.9793 188.8 47.6813 188.678 47.2893 188.678C47.0253 188.678 46.8033 188.712 46.6233 188.78C46.4473 188.844 46.2933 188.918 46.1613 189.002C46.0333 189.082 45.9213 189.156 45.8253 189.224C45.7333 189.288 45.6413 189.32 45.5493 189.32C45.4773 189.32 45.4153 189.302 45.3633 189.266C45.3113 189.226 45.2673 189.178 45.2313 189.122L45.0393 188.78ZM56.775 187.922L54.297 194H53.337L50.859 187.922H51.729C51.817 187.922 51.889 187.944 51.945 187.988C52.001 188.032 52.039 188.084 52.059 188.144L53.601 192.056C53.649 192.204 53.691 192.348 53.727 192.488C53.763 192.628 53.797 192.768 53.829 192.908C53.861 192.768 53.895 192.628 53.931 192.488C53.967 192.348 54.011 192.204 54.063 192.056L55.623 188.144C55.647 188.08 55.687 188.028 55.743 187.988C55.799 187.944 55.865 187.922 55.941 187.922H56.775ZM62.1941 190.298C62.1941 190.05 62.1581 189.824 62.0861 189.62C62.0181 189.412 61.9161 189.234 61.7801 189.086C61.6481 188.934 61.4861 188.818 61.2941 188.738C61.1021 188.654 60.8841 188.612 60.6401 188.612C60.1281 188.612 59.7221 188.762 59.4221 189.062C59.1261 189.358 58.9421 189.77 58.8701 190.298H62.1941ZM63.0581 193.148C62.9261 193.308 62.7681 193.448 62.5841 193.568C62.4001 193.684 62.2021 193.78 61.9901 193.856C61.7821 193.932 61.5661 193.988 61.3421 194.024C61.1181 194.064 60.8961 194.084 60.6761 194.084C60.2561 194.084 59.8681 194.014 59.5121 193.874C59.1601 193.73 58.8541 193.522 58.5941 193.25C58.3381 192.974 58.1381 192.634 57.9941 192.23C57.8501 191.826 57.7781 191.362 57.7781 190.838C57.7781 190.414 57.8421 190.018 57.9701 189.65C58.1021 189.282 58.2901 188.964 58.5341 188.696C58.7781 188.424 59.0761 188.212 59.4281 188.06C59.7801 187.904 60.1761 187.826 60.6161 187.826C60.9801 187.826 61.3161 187.888 61.6241 188.012C61.9361 188.132 62.2041 188.308 62.4281 188.54C62.6561 188.768 62.8341 189.052 62.9621 189.392C63.0901 189.728 63.1541 190.112 63.1541 190.544C63.1541 190.712 63.1361 190.824 63.1001 190.88C63.0641 190.936 62.9961 190.964 62.8961 190.964H58.8341C58.8461 191.348 58.8981 191.682 58.9901 191.966C59.0861 192.25 59.2181 192.488 59.3861 192.68C59.5541 192.868 59.7541 193.01 59.9861 193.106C60.2181 193.198 60.4781 193.244 60.7661 193.244C61.0341 193.244 61.2641 193.214 61.4561 193.154C61.6521 193.09 61.8201 193.022 61.9601 192.95C62.1001 192.878 62.2161 192.812 62.3081 192.752C62.4041 192.688 62.4861 192.656 62.5541 192.656C62.6421 192.656 62.7101 192.69 62.7581 192.758L63.0581 193.148Z" fill="white"/>
<rect x="21.5" y="80.5" width="221" height="79" stroke="#BBBDBF"/>
<rect x="19" y="78" width="226" height="84" stroke="#FFDD00" stroke-width="2"/>
<rect x="59" y="88" width="40" height="12" rx="4" fill="#FFDD00"/>
<rect x="32" y="122" width="79" height="12" rx="4" fill="#FFDD00"/>
<rect x="89" y="139" width="44" height="12" rx="4" fill="#FFDD00"/>
<path d="M25.803 43.3165L24.4685 39.5425C24.3892 39.3442 24.3042 39.1118 24.2135 38.8455C24.1285 38.5792 24.0463 38.2902 23.967 37.9785C23.8877 38.2958 23.8027 38.5905 23.712 38.8625C23.627 39.1288 23.5448 39.3612 23.4655 39.5595L22.1395 43.3165H25.803ZM30.087 48H28.1065C27.8855 48 27.7042 47.949 27.5625 47.847C27.4265 47.7393 27.3245 47.6033 27.2565 47.439L26.4235 45.0845H21.5105L20.6775 47.439C20.6208 47.5807 20.5217 47.711 20.38 47.83C20.2383 47.9433 20.0598 48 19.8445 48H17.847L22.6665 35.6665H25.276L30.087 48ZM36.6731 41.5145C36.4521 41.2595 36.2113 41.081 35.9506 40.979C35.6956 40.877 35.4236 40.826 35.1346 40.826C34.8513 40.826 34.5935 40.8798 34.3611 40.9875C34.1288 41.0952 33.9276 41.2652 33.7576 41.4975C33.5933 41.7242 33.4658 42.016 33.3751 42.373C33.2845 42.73 33.2391 43.155 33.2391 43.648C33.2391 44.1353 33.276 44.549 33.3496 44.889C33.4233 45.229 33.5281 45.5038 33.6641 45.7135C33.8058 45.9232 33.9758 46.0762 34.1741 46.1725C34.3725 46.2632 34.5935 46.3085 34.8371 46.3085C35.2508 46.3085 35.5965 46.2263 35.8741 46.062C36.1575 45.8977 36.4238 45.6653 36.6731 45.365V41.5145ZM39.0191 35.3265V48H37.5741C37.2738 48 37.0811 47.864 36.9961 47.592L36.8006 46.827C36.625 47.0197 36.438 47.1953 36.2396 47.354C36.047 47.5127 35.8373 47.6515 35.6106 47.7705C35.384 47.8838 35.1403 47.9717 34.8796 48.034C34.619 48.0963 34.3356 48.1275 34.0296 48.1275C33.5593 48.1275 33.1286 48.0283 32.7376 47.83C32.3466 47.6317 32.0066 47.3427 31.7176 46.963C31.4343 46.5777 31.2133 46.1073 31.0546 45.552C30.896 44.9967 30.8166 44.362 30.8166 43.648C30.8166 42.9963 30.9045 42.39 31.0801 41.829C31.2615 41.268 31.5165 40.7835 31.8451 40.3755C32.1738 39.9675 32.5705 39.6473 33.0351 39.415C33.4998 39.1827 34.0155 39.0665 34.5821 39.0665C35.0581 39.0665 35.4576 39.1373 35.7806 39.279C36.1093 39.4207 36.4068 39.6133 36.6731 39.857V35.3265H39.0191ZM46.9207 41.5145C46.6997 41.2595 46.4589 41.081 46.1982 40.979C45.9432 40.877 45.6712 40.826 45.3822 40.826C45.0989 40.826 44.8411 40.8798 44.6087 40.9875C44.3764 41.0952 44.1752 41.2652 44.0052 41.4975C43.8409 41.7242 43.7134 42.016 43.6227 42.373C43.5321 42.73 43.4867 43.155 43.4867 43.648C43.4867 44.1353 43.5236 44.549 43.5972 44.889C43.6709 45.229 43.7757 45.5038 43.9117 45.7135C44.0534 45.9232 44.2234 46.0762 44.4217 46.1725C44.6201 46.2632 44.8411 46.3085 45.0847 46.3085C45.4984 46.3085 45.8441 46.2263 46.1217 46.062C46.4051 45.8977 46.6714 45.6653 46.9207 45.365V41.5145ZM49.2667 35.3265V48H47.8217C47.5214 48 47.3287 47.864 47.2437 47.592L47.0482 46.827C46.8726 47.0197 46.6856 47.1953 46.4872 47.354C46.2946 47.5127 46.0849 47.6515 45.8582 47.7705C45.6316 47.8838 45.3879 47.9717 45.1272 48.034C44.8666 48.0963 44.5832 48.1275 44.2772 48.1275C43.8069 48.1275 43.3762 48.0283 42.9852 47.83C42.5942 47.6317 42.2542 47.3427 41.9652 46.963C41.6819 46.5777 41.4609 46.1073 41.3022 45.552C41.1436 44.9967 41.0642 44.362 41.0642 43.648C41.0642 42.9963 41.1521 42.39 41.3277 41.829C41.5091 41.268 41.7641 40.7835 42.0927 40.3755C42.4214 39.9675 42.8181 39.6473 43.2827 39.415C43.7474 39.1827 44.2631 39.0665 44.8297 39.0665C45.3057 39.0665 45.7052 39.1373 46.0282 39.279C46.3569 39.4207 46.6544 39.6133 46.9207 39.857V35.3265H49.2667ZM59.3498 48.136C58.9531 48.136 58.6018 48.0793 58.2958 47.966C57.9898 47.847 57.7319 47.6798 57.5223 47.4645C57.3126 47.2492 57.1539 46.9885 57.0463 46.6825C56.9386 46.3765 56.8848 46.0308 56.8848 45.6455V40.9195H56.0603C55.9356 40.9195 55.8279 40.8798 55.7373 40.8005C55.6523 40.7212 55.6098 40.6022 55.6098 40.4435V39.5255L57.0123 39.2705L57.4883 37.001C57.5506 36.746 57.7234 36.6185 58.0068 36.6185H59.2308V39.2875H61.4918V40.9195H59.2308V45.4925C59.2308 45.7362 59.2874 45.9288 59.4008 46.0705C59.5198 46.2122 59.6869 46.283 59.9023 46.283C60.0156 46.283 60.1119 46.2717 60.1913 46.249C60.2706 46.2207 60.3386 46.1923 60.3953 46.164C60.4519 46.13 60.5029 46.1017 60.5483 46.079C60.5993 46.0507 60.6503 46.0365 60.7013 46.0365C60.7693 46.0365 60.8259 46.0535 60.8713 46.0875C60.9166 46.1158 60.9619 46.1668 61.0073 46.2405L61.7128 47.3625C61.3898 47.6175 61.0243 47.8102 60.6163 47.9405C60.2083 48.0708 59.7861 48.136 59.3498 48.136ZM68.7603 42.5855C68.7603 42.3418 68.7263 42.1095 68.6583 41.8885C68.5959 41.6675 68.4939 41.472 68.3523 41.302C68.2106 41.132 68.0321 40.9988 67.8168 40.9025C67.6014 40.8005 67.3436 40.7495 67.0433 40.7495C66.4823 40.7495 66.0431 40.9082 65.7258 41.2255C65.4084 41.5428 65.2016 41.9962 65.1053 42.5855H68.7603ZM65.0713 43.9795C65.1449 44.8012 65.3773 45.4018 65.7683 45.7815C66.1649 46.1612 66.6806 46.351 67.3153 46.351C67.6383 46.351 67.9159 46.3142 68.1483 46.2405C68.3863 46.1612 68.5931 46.0762 68.7688 45.9855C68.9501 45.8892 69.1116 45.8042 69.2533 45.7305C69.4006 45.6512 69.5451 45.6115 69.6868 45.6115C69.8681 45.6115 70.0098 45.6795 70.1118 45.8155L70.7918 46.6655C70.5424 46.9545 70.2676 47.1953 69.9673 47.388C69.6669 47.575 69.3553 47.7252 69.0323 47.8385C68.7093 47.9462 68.3834 48.0198 68.0548 48.0595C67.7261 48.1048 67.4088 48.1275 67.1028 48.1275C66.4908 48.1275 65.9184 48.0283 65.3858 47.83C64.8588 47.626 64.3969 47.3285 64.0003 46.9375C63.6093 46.5408 63.3004 46.0507 63.0738 45.467C62.8471 44.8833 62.7338 44.2062 62.7338 43.4355C62.7338 42.8405 62.8301 42.2795 63.0228 41.7525C63.2211 41.2255 63.5044 40.7665 63.8728 40.3755C64.2411 39.9845 64.6888 39.6757 65.2158 39.449C65.7428 39.2167 66.3378 39.1005 67.0008 39.1005C67.5618 39.1005 68.0774 39.1912 68.5478 39.3725C69.0238 39.5482 69.4318 39.806 69.7718 40.146C70.1174 40.486 70.3838 40.9053 70.5708 41.404C70.7634 41.897 70.8598 42.4608 70.8598 43.0955C70.8598 43.2712 70.8513 43.4157 70.8343 43.529C70.8173 43.6423 70.7889 43.733 70.7493 43.801C70.7096 43.869 70.6558 43.9172 70.5878 43.9455C70.5198 43.9682 70.4319 43.9795 70.3243 43.9795H65.0713ZM80.8019 48H78.5494C78.3794 48 78.2406 47.9575 78.1329 47.8725C78.0309 47.7875 77.9488 47.6883 77.8864 47.575L76.1609 44.6935C76.1099 44.8862 76.0363 45.0562 75.9399 45.2035L74.4609 47.575C74.3929 47.6827 74.3079 47.7818 74.2059 47.8725C74.1096 47.9575 73.9849 48 73.8319 48H71.7409L74.7159 43.478L71.8599 39.2365H74.1124C74.2824 39.2365 74.4071 39.2592 74.4864 39.3045C74.5658 39.3498 74.6366 39.4235 74.6989 39.5255L76.4159 42.305C76.4443 42.2087 76.4811 42.1123 76.5264 42.016C76.5718 41.914 76.6256 41.8148 76.6879 41.7185L78.0054 39.568C78.1414 39.347 78.3171 39.2365 78.5324 39.2365H80.6829L77.8269 43.376L80.8019 48ZM85.328 48.136C84.9313 48.136 84.58 48.0793 84.274 47.966C83.968 47.847 83.7102 47.6798 83.5005 47.4645C83.2908 47.2492 83.1322 46.9885 83.0245 46.6825C82.9168 46.3765 82.863 46.0308 82.863 45.6455V40.9195H82.0385C81.9138 40.9195 81.8062 40.8798 81.7155 40.8005C81.6305 40.7212 81.588 40.6022 81.588 40.4435V39.5255L82.9905 39.2705L83.4665 37.001C83.5288 36.746 83.7017 36.6185 83.985 36.6185H85.209V39.2875H87.47V40.9195H85.209V45.4925C85.209 45.7362 85.2657 45.9288 85.379 46.0705C85.498 46.2122 85.6652 46.283 85.8805 46.283C85.9938 46.283 86.0902 46.2717 86.1695 46.249C86.2488 46.2207 86.3168 46.1923 86.3735 46.164C86.4302 46.13 86.4812 46.1017 86.5265 46.079C86.5775 46.0507 86.6285 46.0365 86.6795 46.0365C86.7475 46.0365 86.8042 46.0535 86.8495 46.0875C86.8948 46.1158 86.9402 46.1668 86.9855 46.2405L87.691 47.3625C87.368 47.6175 87.0025 47.8102 86.5945 47.9405C86.1865 48.0708 85.7643 48.136 85.328 48.136ZM93.8324 48V39.2365H95.2774C95.5721 39.2365 95.7676 39.3725 95.8639 39.6445L95.9999 40.214C96.1529 40.0553 96.3088 39.908 96.4674 39.772C96.6318 39.636 96.8074 39.5198 96.9944 39.4235C97.1814 39.3215 97.3826 39.2422 97.5979 39.1855C97.8189 39.1288 98.0569 39.1005 98.3119 39.1005C98.8503 39.1005 99.2951 39.245 99.6464 39.534C99.9978 39.8173 100.264 40.197 100.445 40.673C100.587 40.3953 100.76 40.1573 100.964 39.959C101.174 39.755 101.4 39.5907 101.644 39.466C101.893 39.3413 102.154 39.2507 102.426 39.194C102.704 39.1317 102.981 39.1005 103.259 39.1005C103.752 39.1005 104.188 39.1742 104.568 39.3215C104.948 39.4688 105.265 39.687 105.52 39.976C105.781 40.2593 105.979 40.6078 106.115 41.0215C106.251 41.4352 106.319 41.9055 106.319 42.4325V48H103.973V42.4325C103.973 41.4068 103.534 40.894 102.655 40.894C102.457 40.894 102.273 40.928 102.103 40.996C101.939 41.0583 101.791 41.1547 101.661 41.285C101.536 41.4153 101.437 41.5768 101.363 41.7695C101.295 41.9622 101.261 42.1832 101.261 42.4325V48H98.9154V42.4325C98.9154 41.8772 98.8049 41.4833 98.5839 41.251C98.3686 41.013 98.0484 40.894 97.6234 40.894C97.3514 40.894 97.0936 40.9592 96.8499 41.0895C96.6119 41.2142 96.3881 41.3898 96.1784 41.6165V48H93.8324ZM114.271 42.5855C114.271 42.3418 114.237 42.1095 114.169 41.8885C114.107 41.6675 114.005 41.472 113.863 41.302C113.721 41.132 113.543 40.9988 113.327 40.9025C113.112 40.8005 112.854 40.7495 112.554 40.7495C111.993 40.7495 111.554 40.9082 111.236 41.2255C110.919 41.5428 110.712 41.9962 110.616 42.5855H114.271ZM110.582 43.9795C110.656 44.8012 110.888 45.4018 111.279 45.7815C111.676 46.1612 112.191 46.351 112.826 46.351C113.149 46.351 113.427 46.3142 113.659 46.2405C113.897 46.1612 114.104 46.0762 114.279 45.9855C114.461 45.8892 114.622 45.8042 114.764 45.7305C114.911 45.6512 115.056 45.6115 115.197 45.6115C115.379 45.6115 115.52 45.6795 115.622 45.8155L116.302 46.6655C116.053 46.9545 115.778 47.1953 115.478 47.388C115.178 47.575 114.866 47.7252 114.543 47.8385C114.22 47.9462 113.894 48.0198 113.565 48.0595C113.237 48.1048 112.919 48.1275 112.613 48.1275C112.001 48.1275 111.429 48.0283 110.896 47.83C110.369 47.626 109.908 47.3285 109.511 46.9375C109.12 46.5408 108.811 46.0507 108.584 45.467C108.358 44.8833 108.244 44.2062 108.244 43.4355C108.244 42.8405 108.341 42.2795 108.533 41.7525C108.732 41.2255 109.015 40.7665 109.383 40.3755C109.752 39.9845 110.199 39.6757 110.726 39.449C111.253 39.2167 111.848 39.1005 112.511 39.1005C113.072 39.1005 113.588 39.1912 114.058 39.3725C114.534 39.5482 114.942 39.806 115.282 40.146C115.628 40.486 115.894 40.9053 116.081 41.404C116.274 41.897 116.37 42.4608 116.37 43.0955C116.37 43.2712 116.362 43.4157 116.345 43.529C116.328 43.6423 116.3 43.733 116.26 43.801C116.22 43.869 116.166 43.9172 116.098 43.9455C116.03 43.9682 115.943 43.9795 115.835 43.9795H110.582ZM123.81 41.0385C123.748 41.1348 123.683 41.2057 123.615 41.251C123.553 41.2907 123.465 41.3105 123.351 41.3105C123.238 41.3105 123.122 41.2822 123.003 41.2255C122.884 41.1688 122.751 41.1093 122.603 41.047C122.456 40.979 122.286 40.9167 122.093 40.86C121.906 40.8033 121.688 40.775 121.439 40.775C121.059 40.775 120.765 40.8543 120.555 41.013C120.345 41.166 120.24 41.37 120.24 41.625C120.24 41.8007 120.3 41.948 120.419 42.067C120.538 42.186 120.694 42.2908 120.886 42.3815C121.085 42.4665 121.309 42.5487 121.558 42.628C121.807 42.7017 122.062 42.7838 122.323 42.8745C122.589 42.9652 122.847 43.07 123.096 43.189C123.346 43.308 123.567 43.4582 123.759 43.6395C123.958 43.8152 124.116 44.0305 124.235 44.2855C124.354 44.5348 124.414 44.838 124.414 45.195C124.414 45.62 124.335 46.0138 124.176 46.3765C124.023 46.7335 123.796 47.0423 123.496 47.303C123.196 47.5637 122.822 47.7677 122.374 47.915C121.926 48.0623 121.411 48.136 120.827 48.136C120.527 48.136 120.229 48.1077 119.934 48.051C119.64 48 119.359 47.9263 119.093 47.83C118.827 47.728 118.577 47.6118 118.345 47.4815C118.113 47.3512 117.911 47.2095 117.741 47.0565L118.285 46.181C118.348 46.079 118.424 45.9997 118.515 45.943C118.611 45.8863 118.733 45.858 118.88 45.858C119.022 45.858 119.152 45.8948 119.271 45.9685C119.39 46.0365 119.524 46.113 119.671 46.198C119.818 46.2773 119.991 46.3538 120.189 46.4275C120.393 46.4955 120.646 46.5295 120.946 46.5295C121.173 46.5295 121.368 46.504 121.532 46.453C121.697 46.402 121.83 46.334 121.932 46.249C122.034 46.1583 122.108 46.0592 122.153 45.9515C122.204 45.8382 122.229 45.722 122.229 45.603C122.229 45.4103 122.167 45.2545 122.042 45.1355C121.923 45.0108 121.765 44.9032 121.566 44.8125C121.374 44.7218 121.15 44.6397 120.895 44.566C120.64 44.4923 120.379 44.4102 120.113 44.3195C119.852 44.2288 119.594 44.1212 119.339 43.9965C119.09 43.8718 118.866 43.716 118.668 43.529C118.475 43.3363 118.317 43.1012 118.192 42.8235C118.073 42.5458 118.013 42.2087 118.013 41.812C118.013 41.4493 118.084 41.1065 118.226 40.7835C118.368 40.4548 118.58 40.1658 118.863 39.9165C119.147 39.6672 119.498 39.4688 119.917 39.3215C120.342 39.1742 120.833 39.1005 121.388 39.1005C122.011 39.1005 122.578 39.2025 123.088 39.4065C123.598 39.6105 124.017 39.8768 124.346 40.2055L123.81 41.0385ZM131.867 41.0385C131.804 41.1348 131.739 41.2057 131.671 41.251C131.609 41.2907 131.521 41.3105 131.408 41.3105C131.294 41.3105 131.178 41.2822 131.059 41.2255C130.94 41.1688 130.807 41.1093 130.66 41.047C130.512 40.979 130.342 40.9167 130.15 40.86C129.963 40.8033 129.744 40.775 129.495 40.775C129.115 40.775 128.821 40.8543 128.611 41.013C128.401 41.166 128.297 41.37 128.297 41.625C128.297 41.8007 128.356 41.948 128.475 42.067C128.594 42.186 128.75 42.2908 128.943 42.3815C129.141 42.4665 129.365 42.5487 129.614 42.628C129.863 42.7017 130.118 42.7838 130.379 42.8745C130.645 42.9652 130.903 43.07 131.153 43.189C131.402 43.308 131.623 43.4582 131.816 43.6395C132.014 43.8152 132.173 44.0305 132.292 44.2855C132.411 44.5348 132.47 44.838 132.47 45.195C132.47 45.62 132.391 46.0138 132.232 46.3765C132.079 46.7335 131.852 47.0423 131.552 47.303C131.252 47.5637 130.878 47.7677 130.43 47.915C129.982 48.0623 129.467 48.136 128.883 48.136C128.583 48.136 128.285 48.1077 127.991 48.051C127.696 48 127.415 47.9263 127.149 47.83C126.883 47.728 126.633 47.6118 126.401 47.4815C126.169 47.3512 125.968 47.2095 125.798 47.0565L126.342 46.181C126.404 46.079 126.48 45.9997 126.571 45.943C126.667 45.8863 126.789 45.858 126.937 45.858C127.078 45.858 127.209 45.8948 127.328 45.9685C127.447 46.0365 127.58 46.113 127.727 46.198C127.874 46.2773 128.047 46.3538 128.246 46.4275C128.45 46.4955 128.702 46.5295 129.002 46.5295C129.229 46.5295 129.424 46.504 129.589 46.453C129.753 46.402 129.886 46.334 129.988 46.249C130.09 46.1583 130.164 46.0592 130.209 45.9515C130.26 45.8382 130.286 45.722 130.286 45.603C130.286 45.4103 130.223 45.2545 130.099 45.1355C129.98 45.0108 129.821 44.9032 129.623 44.8125C129.43 44.7218 129.206 44.6397 128.951 44.566C128.696 44.4923 128.435 44.4102 128.169 44.3195C127.908 44.2288 127.651 44.1212 127.396 43.9965C127.146 43.8718 126.922 43.716 126.724 43.529C126.531 43.3363 126.373 43.1012 126.248 42.8235C126.129 42.5458 126.07 42.2087 126.07 41.812C126.07 41.4493 126.14 41.1065 126.282 40.7835C126.424 40.4548 126.636 40.1658 126.92 39.9165C127.203 39.6672 127.554 39.4688 127.974 39.3215C128.399 39.1742 128.889 39.1005 129.444 39.1005C130.067 39.1005 130.634 39.2025 131.144 39.4065C131.654 39.6105 132.073 39.8768 132.402 40.2055L131.867 41.0385ZM139.056 44.3365C138.483 44.3648 138.007 44.4158 137.628 44.4895C137.248 44.5575 136.945 44.6482 136.718 44.7615C136.497 44.8748 136.339 45.0052 136.242 45.1525C136.152 45.2942 136.106 45.45 136.106 45.62C136.106 45.96 136.2 46.2008 136.387 46.3425C136.579 46.4842 136.846 46.555 137.186 46.555C137.577 46.555 137.914 46.487 138.197 46.351C138.486 46.2093 138.772 45.9912 139.056 45.6965V44.3365ZM134.279 40.452C134.794 39.9873 135.364 39.6417 135.987 39.415C136.611 39.1827 137.285 39.0665 138.01 39.0665C138.532 39.0665 138.996 39.1515 139.404 39.3215C139.818 39.4915 140.166 39.7295 140.45 40.0355C140.739 40.3358 140.96 40.6957 141.113 41.115C141.266 41.5343 141.342 41.9933 141.342 42.492V48H140.271C140.05 48 139.88 47.9688 139.761 47.9065C139.648 47.8442 139.554 47.7138 139.481 47.5155L139.294 46.9545C139.073 47.1472 138.857 47.3172 138.648 47.4645C138.444 47.6118 138.231 47.7365 138.01 47.8385C137.789 47.9348 137.551 48.0085 137.296 48.0595C137.047 48.1105 136.766 48.136 136.455 48.136C136.069 48.136 135.718 48.085 135.401 47.983C135.083 47.881 134.809 47.7308 134.576 47.5325C134.35 47.3285 134.174 47.0763 134.049 46.776C133.925 46.4757 133.862 46.13 133.862 45.739C133.862 45.416 133.944 45.093 134.109 44.77C134.273 44.447 134.554 44.1552 134.95 43.8945C135.353 43.6282 135.885 43.41 136.548 43.24C137.217 43.0643 138.053 42.9652 139.056 42.9425V42.492C139.056 41.9423 138.94 41.54 138.707 41.285C138.475 41.0243 138.141 40.894 137.704 40.894C137.381 40.894 137.112 40.9337 136.897 41.013C136.681 41.0867 136.492 41.1688 136.327 41.2595C136.169 41.3445 136.018 41.4267 135.877 41.506C135.735 41.5797 135.571 41.6165 135.384 41.6165C135.219 41.6165 135.081 41.5768 134.967 41.4975C134.86 41.4125 134.769 41.3133 134.695 41.2L134.279 40.452ZM146.973 43.291C147.455 43.291 147.809 43.1692 148.036 42.9255C148.268 42.6818 148.384 42.3673 148.384 41.982C148.384 41.5797 148.268 41.2652 148.036 41.0385C147.809 40.8062 147.455 40.69 146.973 40.69C146.492 40.69 146.137 40.8062 145.911 41.0385C145.684 41.2652 145.571 41.5797 145.571 41.982C145.571 42.3617 145.684 42.6762 145.911 42.9255C146.143 43.1692 146.497 43.291 146.973 43.291ZM149.192 48.357C149.192 48.204 149.144 48.0793 149.047 47.983C148.951 47.8867 148.821 47.8102 148.656 47.7535C148.498 47.6968 148.308 47.6572 148.087 47.6345C147.866 47.6062 147.631 47.5863 147.381 47.575C147.132 47.558 146.874 47.5438 146.608 47.5325C146.341 47.5212 146.081 47.5013 145.826 47.473C145.627 47.592 145.463 47.7337 145.333 47.898C145.208 48.0567 145.146 48.238 145.146 48.442C145.146 48.5837 145.177 48.714 145.239 48.833C145.307 48.952 145.418 49.054 145.571 49.139C145.724 49.224 145.925 49.2892 146.174 49.3345C146.424 49.3855 146.735 49.411 147.109 49.411C147.495 49.411 147.82 49.3855 148.087 49.3345C148.353 49.2835 148.568 49.2098 148.733 49.1135C148.897 49.0228 149.013 48.9123 149.081 48.782C149.155 48.6517 149.192 48.51 149.192 48.357ZM151.521 39.5255V40.384C151.521 40.52 151.481 40.6277 151.402 40.707C151.328 40.7863 151.203 40.8458 151.028 40.8855L150.314 41.03C150.41 41.3077 150.458 41.6052 150.458 41.9225C150.458 42.3588 150.368 42.7527 150.186 43.104C150.011 43.4497 149.767 43.7472 149.455 43.9965C149.144 44.2402 148.775 44.43 148.35 44.566C147.925 44.6963 147.466 44.7615 146.973 44.7615C146.662 44.7615 146.37 44.736 146.098 44.685C145.86 44.8323 145.741 44.9938 145.741 45.1695C145.741 45.3338 145.82 45.4528 145.979 45.5265C146.143 45.6002 146.356 45.654 146.616 45.688C146.883 45.7163 147.183 45.7362 147.517 45.7475C147.857 45.7532 148.2 45.7702 148.546 45.7985C148.897 45.8268 149.24 45.8778 149.574 45.9515C149.914 46.0195 150.215 46.1357 150.475 46.3C150.742 46.4587 150.954 46.6712 151.113 46.9375C151.277 47.2038 151.359 47.5467 151.359 47.966C151.359 48.357 151.263 48.7367 151.07 49.105C150.878 49.4733 150.597 49.802 150.229 50.091C149.866 50.38 149.418 50.6123 148.886 50.788C148.353 50.9637 147.747 51.0515 147.067 51.0515C146.392 51.0515 145.806 50.9863 145.307 50.856C144.814 50.7313 144.403 50.5613 144.075 50.346C143.752 50.1363 143.511 49.8927 143.352 49.615C143.194 49.3373 143.114 49.0483 143.114 48.748C143.114 48.357 143.233 48.0255 143.471 47.7535C143.709 47.4815 144.038 47.2633 144.457 47.099C144.236 46.9743 144.058 46.8128 143.922 46.6145C143.791 46.4105 143.726 46.147 143.726 45.824C143.726 45.5633 143.82 45.2885 144.007 44.9995C144.199 44.7105 144.494 44.4697 144.891 44.277C144.443 44.039 144.089 43.7217 143.828 43.325C143.568 42.9227 143.437 42.4552 143.437 41.9225C143.437 41.4862 143.525 41.0923 143.701 40.741C143.882 40.3897 144.131 40.0922 144.449 39.8485C144.766 39.5992 145.14 39.4093 145.571 39.279C146.001 39.1487 146.469 39.0835 146.973 39.0835C147.721 39.0835 148.381 39.2308 148.954 39.5255H151.521ZM158.669 42.5855C158.669 42.3418 158.635 42.1095 158.567 41.8885C158.505 41.6675 158.403 41.472 158.261 41.302C158.12 41.132 157.941 40.9988 157.726 40.9025C157.51 40.8005 157.253 40.7495 156.952 40.7495C156.391 40.7495 155.952 40.9082 155.635 41.2255C155.317 41.5428 155.111 41.9962 155.014 42.5855H158.669ZM154.98 43.9795C155.054 44.8012 155.286 45.4018 155.677 45.7815C156.074 46.1612 156.59 46.351 157.224 46.351C157.547 46.351 157.825 46.3142 158.057 46.2405C158.295 46.1612 158.502 46.0762 158.678 45.9855C158.859 45.8892 159.021 45.8042 159.162 45.7305C159.31 45.6512 159.454 45.6115 159.596 45.6115C159.777 45.6115 159.919 45.6795 160.021 45.8155L160.701 46.6655C160.451 46.9545 160.177 47.1953 159.876 47.388C159.576 47.575 159.264 47.7252 158.941 47.8385C158.618 47.9462 158.292 48.0198 157.964 48.0595C157.635 48.1048 157.318 48.1275 157.012 48.1275C156.4 48.1275 155.827 48.0283 155.295 47.83C154.768 47.626 154.306 47.3285 153.909 46.9375C153.518 46.5408 153.209 46.0507 152.983 45.467C152.756 44.8833 152.643 44.2062 152.643 43.4355C152.643 42.8405 152.739 42.2795 152.932 41.7525C153.13 41.2255 153.413 40.7665 153.782 40.3755C154.15 39.9845 154.598 39.6757 155.125 39.449C155.652 39.2167 156.247 39.1005 156.91 39.1005C157.471 39.1005 157.986 39.1912 158.457 39.3725C158.933 39.5482 159.341 39.806 159.681 40.146C160.026 40.486 160.293 40.9053 160.48 41.404C160.672 41.897 160.769 42.4608 160.769 43.0955C160.769 43.2712 160.76 43.4157 160.743 43.529C160.726 43.6423 160.698 43.733 160.658 43.801C160.619 43.869 160.565 43.9172 160.497 43.9455C160.429 43.9682 160.341 43.9795 160.233 43.9795H154.98ZM170.356 48.136C169.959 48.136 169.608 48.0793 169.302 47.966C168.996 47.847 168.738 47.6798 168.529 47.4645C168.319 47.2492 168.16 46.9885 168.053 46.6825C167.945 46.3765 167.891 46.0308 167.891 45.6455V40.9195H167.067C166.942 40.9195 166.834 40.8798 166.744 40.8005C166.659 40.7212 166.616 40.6022 166.616 40.4435V39.5255L168.019 39.2705L168.495 37.001C168.557 36.746 168.73 36.6185 169.013 36.6185H170.237V39.2875H172.498V40.9195H170.237V45.4925C170.237 45.7362 170.294 45.9288 170.407 46.0705C170.526 46.2122 170.693 46.283 170.909 46.283C171.022 46.283 171.118 46.2717 171.198 46.249C171.277 46.2207 171.345 46.1923 171.402 46.164C171.458 46.13 171.509 46.1017 171.555 46.079C171.606 46.0507 171.657 46.0365 171.708 46.0365C171.776 46.0365 171.832 46.0535 171.878 46.0875C171.923 46.1158 171.968 46.1668 172.014 46.2405L172.719 47.3625C172.396 47.6175 172.031 47.8102 171.623 47.9405C171.215 48.0708 170.792 48.136 170.356 48.136ZM179.767 42.5855C179.767 42.3418 179.733 42.1095 179.665 41.8885C179.602 41.6675 179.5 41.472 179.359 41.302C179.217 41.132 179.038 40.9988 178.823 40.9025C178.608 40.8005 178.35 40.7495 178.05 40.7495C177.489 40.7495 177.049 40.9082 176.732 41.2255C176.415 41.5428 176.208 41.9962 176.112 42.5855H179.767ZM176.078 43.9795C176.151 44.8012 176.384 45.4018 176.775 45.7815C177.171 46.1612 177.687 46.351 178.322 46.351C178.645 46.351 178.922 46.3142 179.155 46.2405C179.393 46.1612 179.599 46.0762 179.775 45.9855C179.956 45.8892 180.118 45.8042 180.26 45.7305C180.407 45.6512 180.551 45.6115 180.693 45.6115C180.874 45.6115 181.016 45.6795 181.118 45.8155L181.798 46.6655C181.549 46.9545 181.274 47.1953 180.974 47.388C180.673 47.575 180.362 47.7252 180.039 47.8385C179.716 47.9462 179.39 48.0198 179.061 48.0595C178.732 48.1048 178.415 48.1275 178.109 48.1275C177.497 48.1275 176.925 48.0283 176.392 47.83C175.865 47.626 175.403 47.3285 175.007 46.9375C174.616 46.5408 174.307 46.0507 174.08 45.467C173.853 44.8833 173.74 44.2062 173.74 43.4355C173.74 42.8405 173.836 42.2795 174.029 41.7525C174.227 41.2255 174.511 40.7665 174.879 40.3755C175.247 39.9845 175.695 39.6757 176.222 39.449C176.749 39.2167 177.344 39.1005 178.007 39.1005C178.568 39.1005 179.084 39.1912 179.554 39.3725C180.03 39.5482 180.438 39.806 180.778 40.146C181.124 40.486 181.39 40.9053 181.577 41.404C181.77 41.897 181.866 42.4608 181.866 43.0955C181.866 43.2712 181.858 43.4157 181.841 43.529C181.824 43.6423 181.795 43.733 181.756 43.801C181.716 43.869 181.662 43.9172 181.594 43.9455C181.526 43.9682 181.438 43.9795 181.331 43.9795H176.078ZM183.858 48V39.2365H185.303C185.597 39.2365 185.793 39.3725 185.889 39.6445L186.025 40.214C186.178 40.0553 186.334 39.908 186.493 39.772C186.657 39.636 186.833 39.5198 187.02 39.4235C187.207 39.3215 187.408 39.2422 187.623 39.1855C187.844 39.1288 188.082 39.1005 188.337 39.1005C188.875 39.1005 189.32 39.245 189.672 39.534C190.023 39.8173 190.289 40.197 190.471 40.673C190.612 40.3953 190.785 40.1573 190.989 39.959C191.199 39.755 191.425 39.5907 191.669 39.466C191.918 39.3413 192.179 39.2507 192.451 39.194C192.729 39.1317 193.006 39.1005 193.284 39.1005C193.777 39.1005 194.213 39.1742 194.593 39.3215C194.973 39.4688 195.29 39.687 195.545 39.976C195.806 40.2593 196.004 40.6078 196.14 41.0215C196.276 41.4352 196.344 41.9055 196.344 42.4325V48H193.998V42.4325C193.998 41.4068 193.559 40.894 192.681 40.894C192.482 40.894 192.298 40.928 192.128 40.996C191.964 41.0583 191.816 41.1547 191.686 41.285C191.561 41.4153 191.462 41.5768 191.389 41.7695C191.321 41.9622 191.287 42.1832 191.287 42.4325V48H188.941V42.4325C188.941 41.8772 188.83 41.4833 188.609 41.251C188.394 41.013 188.074 40.894 187.649 40.894C187.377 40.894 187.119 40.9592 186.875 41.0895C186.637 41.2142 186.413 41.3898 186.204 41.6165V48H183.858ZM201.083 45.688C201.304 45.943 201.542 46.1215 201.797 46.2235C202.058 46.3255 202.335 46.3765 202.63 46.3765C202.913 46.3765 203.171 46.3227 203.403 46.215C203.636 46.1073 203.834 45.9402 203.998 45.7135C204.168 45.4812 204.299 45.1865 204.389 44.8295C204.48 44.4725 204.525 44.0475 204.525 43.5545C204.525 43.0672 204.486 42.6535 204.406 42.3135C204.333 41.9735 204.225 41.6987 204.083 41.489C203.947 41.2793 203.78 41.1292 203.582 41.0385C203.384 40.9422 203.163 40.894 202.919 40.894C202.505 40.894 202.157 40.9762 201.873 41.1405C201.596 41.2992 201.332 41.5343 201.083 41.846V45.688ZM200.947 40.384C201.123 40.1913 201.31 40.0157 201.508 39.857C201.706 39.6927 201.919 39.5538 202.145 39.4405C202.372 39.3215 202.616 39.2308 202.876 39.1685C203.137 39.1005 203.42 39.0665 203.726 39.0665C204.197 39.0665 204.627 39.1685 205.018 39.3725C205.415 39.5708 205.755 39.8627 206.038 40.248C206.322 40.6277 206.543 41.0952 206.701 41.6505C206.86 42.2058 206.939 42.8405 206.939 43.5545C206.939 44.2118 206.849 44.821 206.667 45.382C206.492 45.9373 206.24 46.419 205.911 46.827C205.582 47.235 205.186 47.5552 204.721 47.7875C204.262 48.0142 203.749 48.1275 203.182 48.1275C202.706 48.1275 202.301 48.0567 201.967 47.915C201.638 47.7733 201.344 47.5807 201.083 47.337V50.8305H198.737V39.2365H200.182C200.477 39.2365 200.672 39.3725 200.768 39.6445L200.947 40.384ZM211.348 35.3265V48H209.002V35.3265H211.348ZM218.418 44.3365C217.846 44.3648 217.37 44.4158 216.99 44.4895C216.611 44.5575 216.307 44.6482 216.081 44.7615C215.86 44.8748 215.701 45.0052 215.605 45.1525C215.514 45.2942 215.469 45.45 215.469 45.62C215.469 45.96 215.562 46.2008 215.749 46.3425C215.942 46.4842 216.208 46.555 216.548 46.555C216.939 46.555 217.276 46.487 217.56 46.351C217.849 46.2093 218.135 45.9912 218.418 45.6965V44.3365ZM213.641 40.452C214.157 39.9873 214.726 39.6417 215.35 39.415C215.973 39.1827 216.647 39.0665 217.373 39.0665C217.894 39.0665 218.359 39.1515 218.767 39.3215C219.18 39.4915 219.529 39.7295 219.812 40.0355C220.101 40.3358 220.322 40.6957 220.475 41.115C220.628 41.5343 220.705 41.9933 220.705 42.492V48H219.634C219.413 48 219.243 47.9688 219.124 47.9065C219.01 47.8442 218.917 47.7138 218.843 47.5155L218.656 46.9545C218.435 47.1472 218.22 47.3172 218.01 47.4645C217.806 47.6118 217.594 47.7365 217.373 47.8385C217.152 47.9348 216.914 48.0085 216.659 48.0595C216.409 48.1105 216.129 48.136 215.817 48.136C215.432 48.136 215.081 48.085 214.763 47.983C214.446 47.881 214.171 47.7308 213.939 47.5325C213.712 47.3285 213.536 47.0763 213.412 46.776C213.287 46.4757 213.225 46.13 213.225 45.739C213.225 45.416 213.307 45.093 213.471 44.77C213.636 44.447 213.916 44.1552 214.313 43.8945C214.715 43.6282 215.248 43.41 215.911 43.24C216.579 43.0643 217.415 42.9652 218.418 42.9425V42.492C218.418 41.9423 218.302 41.54 218.07 41.285C217.837 41.0243 217.503 40.894 217.067 40.894C216.744 40.894 216.475 40.9337 216.259 41.013C216.044 41.0867 215.854 41.1688 215.69 41.2595C215.531 41.3445 215.381 41.4267 215.239 41.506C215.098 41.5797 214.933 41.6165 214.746 41.6165C214.582 41.6165 214.443 41.5768 214.33 41.4975C214.222 41.4125 214.131 41.3133 214.058 41.2L213.641 40.452ZM225.965 48.136C225.568 48.136 225.217 48.0793 224.911 47.966C224.605 47.847 224.347 47.6798 224.137 47.4645C223.928 47.2492 223.769 46.9885 223.661 46.6825C223.554 46.3765 223.5 46.0308 223.5 45.6455V40.9195H222.675C222.551 40.9195 222.443 40.8798 222.352 40.8005C222.267 40.7212 222.225 40.6022 222.225 40.4435V39.5255L223.627 39.2705L224.103 37.001C224.166 36.746 224.339 36.6185 224.622 36.6185H225.846V39.2875H228.107V40.9195H225.846V45.4925C225.846 45.7362 225.903 45.9288 226.016 46.0705C226.135 46.2122 226.302 46.283 226.517 46.283C226.631 46.283 226.727 46.2717 226.806 46.249C226.886 46.2207 226.954 46.1923 227.01 46.164C227.067 46.13 227.118 46.1017 227.163 46.079C227.214 46.0507 227.265 46.0365 227.316 46.0365C227.384 46.0365 227.441 46.0535 227.486 46.0875C227.532 46.1158 227.577 46.1668 227.622 46.2405L228.328 47.3625C228.005 47.6175 227.639 47.8102 227.231 47.9405C226.823 48.0708 226.401 48.136 225.965 48.136ZM235.375 42.5855C235.375 42.3418 235.341 42.1095 235.273 41.8885C235.211 41.6675 235.109 41.472 234.967 41.302C234.826 41.132 234.647 40.9988 234.432 40.9025C234.217 40.8005 233.959 40.7495 233.658 40.7495C233.097 40.7495 232.658 40.9082 232.341 41.2255C232.024 41.5428 231.817 41.9962 231.72 42.5855H235.375ZM231.686 43.9795C231.76 44.8012 231.992 45.4018 232.383 45.7815C232.78 46.1612 233.296 46.351 233.93 46.351C234.253 46.351 234.531 46.3142 234.763 46.2405C235.001 46.1612 235.208 46.0762 235.384 45.9855C235.565 45.8892 235.727 45.8042 235.868 45.7305C236.016 45.6512 236.16 45.6115 236.302 45.6115C236.483 45.6115 236.625 45.6795 236.727 45.8155L237.407 46.6655C237.158 46.9545 236.883 47.1953 236.582 47.388C236.282 47.575 235.97 47.7252 235.647 47.8385C235.324 47.9462 234.999 48.0198 234.67 48.0595C234.341 48.1048 234.024 48.1275 233.718 48.1275C233.106 48.1275 232.534 48.0283 232.001 47.83C231.474 47.626 231.012 47.3285 230.615 46.9375C230.224 46.5408 229.916 46.0507 229.689 45.467C229.462 44.8833 229.349 44.2062 229.349 43.4355C229.349 42.8405 229.445 42.2795 229.638 41.7525C229.836 41.2255 230.12 40.7665 230.488 40.3755C230.856 39.9845 231.304 39.6757 231.831 39.449C232.358 39.2167 232.953 39.1005 233.616 39.1005C234.177 39.1005 234.693 39.1912 235.163 39.3725C235.639 39.5482 236.047 39.806 236.387 40.146C236.733 40.486 236.999 40.9053 237.186 41.404C237.379 41.897 237.475 42.4608 237.475 43.0955C237.475 43.2712 237.466 43.4157 237.449 43.529C237.432 43.6423 237.404 43.733 237.364 43.801C237.325 43.869 237.271 43.9172 237.203 43.9455C237.135 43.9682 237.047 43.9795 236.939 43.9795H231.686Z" fill="black"/>
<path d="M22.944 72L20.124 64.488H20.076C20.1 64.736 20.12 65.072 20.136 65.496C20.152 65.912 20.16 66.348 20.16 66.804V72H19.164V63.432H20.76L23.4 70.452H23.448L26.136 63.432H27.72V72H26.652V66.732C26.652 66.316 26.66 65.904 26.676 65.496C26.7 65.088 26.72 64.756 26.736 64.5H26.688L23.832 72H22.944ZM32.9264 65.448C33.4784 65.448 33.9504 65.568 34.3424 65.808C34.7424 66.048 35.0464 66.388 35.2544 66.828C35.4704 67.26 35.5784 67.768 35.5784 68.352V68.988H31.1744C31.1904 69.716 31.3744 70.272 31.7264 70.656C32.0864 71.032 32.5864 71.22 33.2264 71.22C33.6344 71.22 33.9944 71.184 34.3064 71.112C34.6264 71.032 34.9544 70.92 35.2904 70.776V71.7C34.9624 71.844 34.6384 71.948 34.3184 72.012C33.9984 72.084 33.6184 72.12 33.1784 72.12C32.5704 72.12 32.0304 71.996 31.5584 71.748C31.0944 71.5 30.7304 71.132 30.4664 70.644C30.2104 70.148 30.0824 69.544 30.0824 68.832C30.0824 68.128 30.1984 67.524 30.4304 67.02C30.6704 66.516 31.0024 66.128 31.4264 65.856C31.8584 65.584 32.3584 65.448 32.9264 65.448ZM32.9144 66.312C32.4104 66.312 32.0104 66.476 31.7144 66.804C31.4264 67.124 31.2544 67.572 31.1984 68.148H34.4744C34.4664 67.604 34.3384 67.164 34.0904 66.828C33.8424 66.484 33.4504 66.312 32.9144 66.312ZM41.9396 70.224C41.9396 70.848 41.7076 71.32 41.2436 71.64C40.7796 71.96 40.1556 72.12 39.3716 72.12C38.9236 72.12 38.5356 72.084 38.2076 72.012C37.8876 71.94 37.6036 71.84 37.3556 71.712V70.752C37.6116 70.88 37.9196 71 38.2796 71.112C38.6476 71.216 39.0196 71.268 39.3956 71.268C39.9316 71.268 40.3196 71.184 40.5596 71.016C40.7996 70.84 40.9196 70.608 40.9196 70.32C40.9196 70.16 40.8756 70.016 40.7876 69.888C40.6996 69.76 40.5396 69.632 40.3076 69.504C40.0836 69.376 39.7596 69.232 39.3356 69.072C38.9196 68.912 38.5636 68.752 38.2676 68.592C37.9716 68.432 37.7436 68.24 37.5836 68.016C37.4236 67.792 37.3436 67.504 37.3436 67.152C37.3436 66.608 37.5636 66.188 38.0036 65.892C38.4516 65.596 39.0356 65.448 39.7556 65.448C40.1476 65.448 40.5116 65.488 40.8476 65.568C41.1916 65.64 41.5116 65.744 41.8076 65.88L41.4476 66.72C41.1756 66.608 40.8916 66.512 40.5956 66.432C40.2996 66.352 39.9956 66.312 39.6836 66.312C39.2516 66.312 38.9196 66.384 38.6876 66.528C38.4636 66.664 38.3516 66.852 38.3516 67.092C38.3516 67.268 38.4036 67.42 38.5076 67.548C38.6116 67.668 38.7836 67.788 39.0236 67.908C39.2716 68.02 39.5996 68.156 40.0076 68.316C40.4156 68.468 40.7636 68.624 41.0516 68.784C41.3396 68.944 41.5596 69.14 41.7116 69.372C41.8636 69.596 41.9396 69.88 41.9396 70.224ZM48.2175 70.224C48.2175 70.848 47.9855 71.32 47.5215 71.64C47.0575 71.96 46.4335 72.12 45.6495 72.12C45.2015 72.12 44.8135 72.084 44.4855 72.012C44.1655 71.94 43.8815 71.84 43.6335 71.712V70.752C43.8895 70.88 44.1975 71 44.5575 71.112C44.9255 71.216 45.2975 71.268 45.6735 71.268C46.2095 71.268 46.5975 71.184 46.8375 71.016C47.0775 70.84 47.1975 70.608 47.1975 70.32C47.1975 70.16 47.1535 70.016 47.0655 69.888C46.9775 69.76 46.8175 69.632 46.5855 69.504C46.3615 69.376 46.0375 69.232 45.6135 69.072C45.1975 68.912 44.8415 68.752 44.5455 68.592C44.2495 68.432 44.0215 68.24 43.8615 68.016C43.7015 67.792 43.6215 67.504 43.6215 67.152C43.6215 66.608 43.8415 66.188 44.2815 65.892C44.7295 65.596 45.3135 65.448 46.0335 65.448C46.4255 65.448 46.7895 65.488 47.1255 65.568C47.4695 65.64 47.7895 65.744 48.0855 65.88L47.7255 66.72C47.4535 66.608 47.1695 66.512 46.8735 66.432C46.5775 66.352 46.2735 66.312 45.9615 66.312C45.5295 66.312 45.1975 66.384 44.9655 66.528C44.7415 66.664 44.6295 66.852 44.6295 67.092C44.6295 67.268 44.6815 67.42 44.7855 67.548C44.8895 67.668 45.0615 67.788 45.3015 67.908C45.5495 68.02 45.8775 68.156 46.2855 68.316C46.6935 68.468 47.0415 68.624 47.3295 68.784C47.6175 68.944 47.8375 69.14 47.9895 69.372C48.1415 69.596 48.2175 69.88 48.2175 70.224ZM52.7434 65.46C53.5274 65.46 54.1074 65.632 54.4834 65.976C54.8594 66.32 55.0474 66.868 55.0474 67.62V72H54.2794L54.0754 71.088H54.0274C53.7474 71.44 53.4514 71.7 53.1394 71.868C52.8354 72.036 52.4114 72.12 51.8674 72.12C51.2834 72.12 50.7994 71.968 50.4154 71.664C50.0314 71.352 49.8394 70.868 49.8394 70.212C49.8394 69.572 50.0914 69.08 50.5954 68.736C51.0994 68.384 51.8754 68.192 52.9234 68.16L54.0154 68.124V67.74C54.0154 67.204 53.8994 66.832 53.6674 66.624C53.4354 66.416 53.1074 66.312 52.6834 66.312C52.3474 66.312 52.0274 66.364 51.7234 66.468C51.4194 66.564 51.1354 66.676 50.8714 66.804L50.5474 66.012C50.8274 65.86 51.1594 65.732 51.5434 65.628C51.9274 65.516 52.3274 65.46 52.7434 65.46ZM54.0034 68.856L53.0554 68.892C52.2554 68.924 51.6994 69.052 51.3874 69.276C51.0834 69.5 50.9314 69.816 50.9314 70.224C50.9314 70.584 51.0394 70.848 51.2554 71.016C51.4794 71.184 51.7634 71.268 52.1074 71.268C52.6514 71.268 53.1034 71.12 53.4634 70.824C53.8234 70.52 54.0034 70.056 54.0034 69.432V68.856ZM59.8497 65.448C60.2737 65.448 60.6537 65.528 60.9897 65.688C61.3337 65.848 61.6257 66.092 61.8657 66.42H61.9257L62.0697 65.568H62.9097V72.108C62.9097 73.028 62.6737 73.72 62.2017 74.184C61.7377 74.648 61.0137 74.88 60.0297 74.88C59.0857 74.88 58.3137 74.744 57.7137 74.472V73.5C58.3457 73.836 59.1377 74.004 60.0897 74.004C60.6417 74.004 61.0737 73.84 61.3857 73.512C61.7057 73.192 61.8657 72.752 61.8657 72.192V71.94C61.8657 71.844 61.8697 71.708 61.8777 71.532C61.8857 71.348 61.8937 71.22 61.9017 71.148H61.8537C61.4217 71.796 60.7577 72.12 59.8617 72.12C59.0297 72.12 58.3777 71.828 57.9057 71.244C57.4417 70.66 57.2097 69.844 57.2097 68.796C57.2097 67.772 57.4417 66.96 57.9057 66.36C58.3777 65.752 59.0257 65.448 59.8497 65.448ZM59.9937 66.336C59.4577 66.336 59.0417 66.552 58.7457 66.984C58.4497 67.408 58.3017 68.016 58.3017 68.808C58.3017 69.6 58.4457 70.208 58.7337 70.632C59.0297 71.048 59.4577 71.256 60.0177 71.256C60.6657 71.256 61.1377 71.084 61.4337 70.74C61.7297 70.388 61.8777 69.824 61.8777 69.048V68.796C61.8777 67.916 61.7257 67.288 61.4217 66.912C61.1177 66.528 60.6417 66.336 59.9937 66.336ZM67.9722 65.448C68.5242 65.448 68.9962 65.568 69.3882 65.808C69.7882 66.048 70.0922 66.388 70.3002 66.828C70.5162 67.26 70.6242 67.768 70.6242 68.352V68.988H66.2202C66.2362 69.716 66.4202 70.272 66.7722 70.656C67.1322 71.032 67.6322 71.22 68.2722 71.22C68.6802 71.22 69.0402 71.184 69.3522 71.112C69.6722 71.032 70.0002 70.92 70.3362 70.776V71.7C70.0082 71.844 69.6842 71.948 69.3642 72.012C69.0442 72.084 68.6642 72.12 68.2242 72.12C67.6162 72.12 67.0762 71.996 66.6042 71.748C66.1402 71.5 65.7762 71.132 65.5122 70.644C65.2562 70.148 65.1282 69.544 65.1282 68.832C65.1282 68.128 65.2442 67.524 65.4762 67.02C65.7162 66.516 66.0482 66.128 66.4722 65.856C66.9042 65.584 67.4042 65.448 67.9722 65.448ZM67.9602 66.312C67.4562 66.312 67.0562 66.476 66.7602 66.804C66.4722 67.124 66.3002 67.572 66.2442 68.148H69.5202C69.5122 67.604 69.3842 67.164 69.1362 66.828C68.8882 66.484 68.4962 66.312 67.9602 66.312Z" fill="black"/>
<path d="M34.716 97H33.636V93.004H29.244V97H28.164V88.432H29.244V92.056H33.636V88.432H34.716V97ZM39.9342 90.448C40.4862 90.448 40.9582 90.568 41.3502 90.808C41.7502 91.048 42.0542 91.388 42.2622 91.828C42.4782 92.26 42.5862 92.768 42.5862 93.352V93.988H38.1822C38.1982 94.716 38.3822 95.272 38.7342 95.656C39.0942 96.032 39.5942 96.22 40.2342 96.22C40.6422 96.22 41.0022 96.184 41.3142 96.112C41.6342 96.032 41.9622 95.92 42.2982 95.776V96.7C41.9702 96.844 41.6462 96.948 41.3262 97.012C41.0062 97.084 40.6262 97.12 40.1862 97.12C39.5782 97.12 39.0382 96.996 38.5662 96.748C38.1022 96.5 37.7382 96.132 37.4742 95.644C37.2182 95.148 37.0902 94.544 37.0902 93.832C37.0902 93.128 37.2062 92.524 37.4382 92.02C37.6782 91.516 38.0102 91.128 38.4342 90.856C38.8662 90.584 39.3662 90.448 39.9342 90.448ZM39.9222 91.312C39.4182 91.312 39.0182 91.476 38.7222 91.804C38.4342 92.124 38.2622 92.572 38.2062 93.148H41.4822C41.4742 92.604 41.3462 92.164 41.0982 91.828C40.8502 91.484 40.4582 91.312 39.9222 91.312ZM43.517 90.568H44.645L46.037 94.228C46.157 94.548 46.265 94.856 46.361 95.152C46.457 95.44 46.529 95.716 46.577 95.98H46.625C46.673 95.78 46.749 95.52 46.853 95.2C46.957 94.872 47.065 94.544 47.177 94.216L48.485 90.568H49.625L46.853 97.888C46.629 98.496 46.337 98.98 45.977 99.34C45.625 99.7 45.137 99.88 44.513 99.88C44.321 99.88 44.153 99.868 44.009 99.844C43.865 99.828 43.741 99.808 43.637 99.784V98.944C43.725 98.96 43.829 98.976 43.949 98.992C44.077 99.008 44.209 99.016 44.345 99.016C44.713 99.016 45.009 98.912 45.233 98.704C45.465 98.496 45.645 98.22 45.773 97.876L46.109 97.024L43.517 90.568ZM54.2908 93.712C54.2908 92.736 54.4308 91.796 54.7108 90.892C54.9988 89.98 55.4468 89.16 56.0548 88.432H57.0508C56.4908 89.184 56.0668 90.012 55.7788 90.916C55.4988 91.82 55.3588 92.748 55.3588 93.7C55.3588 94.628 55.4988 95.54 55.7788 96.436C56.0668 97.324 56.4868 98.144 57.0388 98.896H56.0548C55.4468 98.192 54.9988 97.396 54.7108 96.508C54.4308 95.612 54.2908 94.68 54.2908 93.712ZM58.4242 93.712C58.4242 92.736 58.5642 91.796 58.8442 90.892C59.1322 89.98 59.5802 89.16 60.1882 88.432H61.1842C60.6242 89.184 60.2002 90.012 59.9122 90.916C59.6322 91.82 59.4922 92.748 59.4922 93.7C59.4922 94.628 59.6322 95.54 59.9122 96.436C60.2002 97.324 60.6202 98.144 61.1722 98.896H60.1882C59.5802 98.192 59.1322 97.396 58.8442 96.508C58.5642 95.612 58.4242 94.68 58.4242 93.712ZM66.1936 90.448C66.9616 90.448 67.5416 90.636 67.9336 91.012C68.3256 91.38 68.5216 91.98 68.5216 92.812V97H67.4776V92.884C67.4776 91.852 66.9976 91.336 66.0376 91.336C65.3256 91.336 64.8336 91.536 64.5616 91.936C64.2896 92.336 64.1536 92.912 64.1536 93.664V97H63.0976V90.568H63.9496L64.1056 91.444H64.1656C64.3736 91.108 64.6616 90.86 65.0296 90.7C65.3976 90.532 65.7856 90.448 66.1936 90.448ZM73.4873 90.46C74.2713 90.46 74.8513 90.632 75.2273 90.976C75.6033 91.32 75.7913 91.868 75.7913 92.62V97H75.0233L74.8193 96.088H74.7713C74.4913 96.44 74.1953 96.7 73.8833 96.868C73.5793 97.036 73.1553 97.12 72.6113 97.12C72.0273 97.12 71.5433 96.968 71.1593 96.664C70.7753 96.352 70.5833 95.868 70.5833 95.212C70.5833 94.572 70.8353 94.08 71.3393 93.736C71.8433 93.384 72.6193 93.192 73.6673 93.16L74.7593 93.124V92.74C74.7593 92.204 74.6433 91.832 74.4113 91.624C74.1793 91.416 73.8513 91.312 73.4273 91.312C73.0913 91.312 72.7713 91.364 72.4673 91.468C72.1633 91.564 71.8793 91.676 71.6152 91.804L71.2913 91.012C71.5713 90.86 71.9033 90.732 72.2873 90.628C72.6713 90.516 73.0713 90.46 73.4873 90.46ZM74.7473 93.856L73.7993 93.892C72.9993 93.924 72.4433 94.052 72.1313 94.276C71.8273 94.5 71.6753 94.816 71.6753 95.224C71.6753 95.584 71.7833 95.848 71.9993 96.016C72.2233 96.184 72.5073 96.268 72.8513 96.268C73.3953 96.268 73.8473 96.12 74.2073 95.824C74.5673 95.52 74.7473 95.056 74.7473 94.432V93.856ZM85.3695 90.448C86.0975 90.448 86.6415 90.636 87.0015 91.012C87.3615 91.38 87.5415 91.98 87.5415 92.812V97H86.4975V92.86C86.4975 91.844 86.0615 91.336 85.1895 91.336C84.5655 91.336 84.1175 91.516 83.8455 91.876C83.5815 92.236 83.4495 92.76 83.4495 93.448V97H82.4055V92.86C82.4055 91.844 81.9655 91.336 81.0855 91.336C80.4375 91.336 79.9895 91.536 79.7415 91.936C79.4935 92.336 79.3695 92.912 79.3695 93.664V97H78.3135V90.568H79.1655L79.3215 91.444H79.3815C79.5815 91.108 79.8495 90.86 80.1855 90.7C80.5295 90.532 80.8935 90.448 81.2775 90.448C82.2855 90.448 82.9415 90.808 83.2455 91.528H83.3055C83.5215 91.16 83.8135 90.888 84.1815 90.712C84.5575 90.536 84.9535 90.448 85.3695 90.448ZM92.5481 90.448C93.1001 90.448 93.5721 90.568 93.9641 90.808C94.3641 91.048 94.6681 91.388 94.8761 91.828C95.0921 92.26 95.2001 92.768 95.2001 93.352V93.988H90.7961C90.8121 94.716 90.9961 95.272 91.3481 95.656C91.7081 96.032 92.2081 96.22 92.8481 96.22C93.2561 96.22 93.6161 96.184 93.9281 96.112C94.2481 96.032 94.5761 95.92 94.9121 95.776V96.7C94.5841 96.844 94.2601 96.948 93.9401 97.012C93.6201 97.084 93.2401 97.12 92.8001 97.12C92.1921 97.12 91.6521 96.996 91.1801 96.748C90.7161 96.5 90.3521 96.132 90.0881 95.644C89.8321 95.148 89.7041 94.544 89.7041 93.832C89.7041 93.128 89.8201 92.524 90.0521 92.02C90.2921 91.516 90.6241 91.128 91.0481 90.856C91.4801 90.584 91.9801 90.448 92.5481 90.448ZM92.5361 91.312C92.0321 91.312 91.6321 91.476 91.3361 91.804C91.0481 92.124 90.8761 92.572 90.8201 93.148H94.0961C94.0881 92.604 93.9601 92.164 93.7121 91.828C93.4641 91.484 93.0721 91.312 92.5361 91.312ZM99.4732 93.712C99.4732 94.68 99.3292 95.612 99.0412 96.508C98.7612 97.396 98.3172 98.192 97.7092 98.896H96.7252C97.2772 98.144 97.6932 97.324 97.9732 96.436C98.2612 95.54 98.4052 94.628 98.4052 93.7C98.4052 92.748 98.2612 91.82 97.9732 90.916C97.6932 90.012 97.2732 89.184 96.7132 88.432H97.7092C98.3172 89.16 98.7612 89.98 99.0412 90.892C99.3292 91.796 99.4732 92.736 99.4732 93.712ZM103.607 93.712C103.607 94.68 103.463 95.612 103.175 96.508C102.895 97.396 102.451 98.192 101.843 98.896H100.859C101.411 98.144 101.827 97.324 102.107 96.436C102.395 95.54 102.539 94.628 102.539 93.7C102.539 92.748 102.395 91.82 102.107 90.916C101.827 90.012 101.407 89.184 100.847 88.432H101.843C102.451 89.16 102.895 89.98 103.175 90.892C103.463 91.796 103.607 92.736 103.607 93.712ZM106.84 95.608L106.924 95.74C106.82 96.164 106.668 96.628 106.468 97.132C106.276 97.644 106.084 98.116 105.892 98.548H105.112C105.224 98.092 105.336 97.592 105.448 97.048C105.568 96.504 105.656 96.024 105.712 95.608H106.84ZM30.576 114H27.48V113.376L28.488 113.148V106.296L27.48 106.056V105.432H30.576V106.056L29.568 106.296V113.148L30.576 113.376V114ZM33.4741 105.432L33.5581 105.564C33.4541 105.98 33.3021 106.448 33.1021 106.968C32.9101 107.48 32.7181 107.948 32.5261 108.372H31.7461C31.8261 108.068 31.9021 107.744 31.9741 107.4C32.0541 107.048 32.1261 106.704 32.1901 106.368C32.2541 106.024 32.3061 105.712 32.3461 105.432H33.4741ZM41.9482 107.448C42.6762 107.448 43.2202 107.636 43.5802 108.012C43.9402 108.38 44.1202 108.98 44.1202 109.812V114H43.0762V109.86C43.0762 108.844 42.6402 108.336 41.7682 108.336C41.1442 108.336 40.6962 108.516 40.4242 108.876C40.1602 109.236 40.0282 109.76 40.0282 110.448V114H38.9842V109.86C38.9842 108.844 38.5442 108.336 37.6642 108.336C37.0162 108.336 36.5682 108.536 36.3202 108.936C36.0722 109.336 35.9482 109.912 35.9482 110.664V114H34.8922V107.568H35.7442L35.9002 108.444H35.9602C36.1602 108.108 36.4282 107.86 36.7642 107.7C37.1082 107.532 37.4722 107.448 37.8562 107.448C38.8642 107.448 39.5202 107.808 39.8242 108.528H39.8842C40.1002 108.16 40.3922 107.888 40.7602 107.712C41.1362 107.536 41.5322 107.448 41.9482 107.448ZM52.4437 113.256C52.6037 113.256 52.7677 113.244 52.9357 113.22C53.1037 113.188 53.2397 113.156 53.3437 113.124V113.928C53.2317 113.984 53.0717 114.028 52.8637 114.06C52.6557 114.1 52.4557 114.12 52.2637 114.12C51.9277 114.12 51.6157 114.064 51.3277 113.952C51.0477 113.832 50.8197 113.628 50.6437 113.34C50.4677 113.052 50.3797 112.648 50.3797 112.128V108.384H49.4677V107.88L50.3917 107.46L50.8117 106.092H51.4357V107.568H53.2957V108.384H51.4357V112.104C51.4357 112.496 51.5277 112.788 51.7117 112.98C51.9037 113.164 52.1477 113.256 52.4437 113.256ZM58.1673 107.448C58.2873 107.448 58.4153 107.456 58.5513 107.472C58.6953 107.48 58.8193 107.496 58.9233 107.52L58.7913 108.492C58.6873 108.468 58.5713 108.448 58.4433 108.432C58.3233 108.416 58.2073 108.408 58.0953 108.408C57.7673 108.408 57.4593 108.5 57.1713 108.684C56.8833 108.86 56.6513 109.112 56.4753 109.44C56.3073 109.76 56.2233 110.136 56.2233 110.568V114H55.1673V107.568H56.0313L56.1513 108.744H56.1993C56.4073 108.392 56.6753 108.088 57.0033 107.832C57.3313 107.576 57.7193 107.448 58.1673 107.448ZM59.6521 107.568H60.7801L62.1721 111.228C62.2921 111.548 62.4001 111.856 62.4961 112.152C62.5921 112.44 62.6641 112.716 62.7121 112.98H62.7601C62.8081 112.78 62.8841 112.52 62.9881 112.2C63.0921 111.872 63.2001 111.544 63.3121 111.216L64.6201 107.568H65.7601L62.9881 114.888C62.7641 115.496 62.4721 115.98 62.1121 116.34C61.7601 116.7 61.2721 116.88 60.6481 116.88C60.4561 116.88 60.2881 116.868 60.1441 116.844C60.0001 116.828 59.8761 116.808 59.7721 116.784V115.944C59.8601 115.96 59.9641 115.976 60.0841 115.992C60.2121 116.008 60.3441 116.016 60.4801 116.016C60.8481 116.016 61.1441 115.912 61.3681 115.704C61.6001 115.496 61.7801 115.22 61.9081 114.876L62.2441 114.024L59.6521 107.568ZM67.853 105.156C68.013 105.156 68.153 105.212 68.273 105.324C68.401 105.428 68.465 105.596 68.465 105.828C68.465 106.052 68.401 106.22 68.273 106.332C68.153 106.444 68.013 106.5 67.853 106.5C67.677 106.5 67.529 106.444 67.409 106.332C67.289 106.22 67.229 106.052 67.229 105.828C67.229 105.596 67.289 105.428 67.409 105.324C67.529 105.212 67.677 105.156 67.853 105.156ZM68.369 107.568V114H67.313V107.568H68.369ZM74.0384 107.448C74.8064 107.448 75.3864 107.636 75.7784 108.012C76.1704 108.38 76.3664 108.98 76.3664 109.812V114H75.3224V109.884C75.3224 108.852 74.8424 108.336 73.8824 108.336C73.1704 108.336 72.6784 108.536 72.4064 108.936C72.1344 109.336 71.9984 109.912 71.9984 110.664V114H70.9424V107.568H71.7944L71.9504 108.444H72.0104C72.2184 108.108 72.5064 107.86 72.8744 107.7C73.2424 107.532 73.6304 107.448 74.0384 107.448ZM81.1761 107.448C81.6001 107.448 81.9801 107.528 82.3161 107.688C82.6601 107.848 82.9521 108.092 83.1921 108.42H83.2521L83.3961 107.568H84.2361V114.108C84.2361 115.028 84.0001 115.72 83.5281 116.184C83.0641 116.648 82.3401 116.88 81.3561 116.88C80.4121 116.88 79.6401 116.744 79.0401 116.472V115.5C79.6721 115.836 80.4641 116.004 81.4161 116.004C81.9681 116.004 82.4001 115.84 82.7121 115.512C83.0321 115.192 83.1921 114.752 83.1921 114.192V113.94C83.1921 113.844 83.1961 113.708 83.2041 113.532C83.2121 113.348 83.2201 113.22 83.2281 113.148H83.1801C82.7481 113.796 82.0841 114.12 81.1881 114.12C80.3561 114.12 79.7041 113.828 79.2321 113.244C78.7681 112.66 78.5361 111.844 78.5361 110.796C78.5361 109.772 78.7681 108.96 79.2321 108.36C79.7041 107.752 80.3521 107.448 81.1761 107.448ZM81.3201 108.336C80.7841 108.336 80.3681 108.552 80.0721 108.984C79.7761 109.408 79.6281 110.016 79.6281 110.808C79.6281 111.6 79.7721 112.208 80.0601 112.632C80.3561 113.048 80.7841 113.256 81.3441 113.256C81.9921 113.256 82.4641 113.084 82.7601 112.74C83.0561 112.388 83.2041 111.824 83.2041 111.048V110.796C83.2041 109.916 83.0521 109.288 82.7481 108.912C82.4441 108.528 81.9681 108.336 81.3201 108.336ZM96.0595 110.772C96.0595 111.836 95.7875 112.66 95.2435 113.244C94.7075 113.828 93.9795 114.12 93.0595 114.12C92.4915 114.12 91.9835 113.992 91.5355 113.736C91.0955 113.472 90.7475 113.092 90.4915 112.596C90.2355 112.092 90.1075 111.484 90.1075 110.772C90.1075 109.708 90.3755 108.888 90.9115 108.312C91.4475 107.736 92.1755 107.448 93.0955 107.448C93.6795 107.448 94.1915 107.58 94.6315 107.844C95.0795 108.1 95.4275 108.476 95.6755 108.972C95.9315 109.46 96.0595 110.06 96.0595 110.772ZM91.1995 110.772C91.1995 111.532 91.3475 112.136 91.6435 112.584C91.9475 113.024 92.4275 113.244 93.0835 113.244C93.7315 113.244 94.2075 113.024 94.5115 112.584C94.8155 112.136 94.9675 111.532 94.9675 110.772C94.9675 110.012 94.8155 109.416 94.5115 108.984C94.2075 108.552 93.7275 108.336 93.0715 108.336C92.4155 108.336 91.9395 108.552 91.6435 108.984C91.3475 109.416 91.1995 110.012 91.1995 110.772ZM103.645 107.568V114H102.781L102.625 113.148H102.577C102.369 113.484 102.081 113.732 101.713 113.892C101.345 114.044 100.953 114.12 100.537 114.12C99.7609 114.12 99.1769 113.936 98.7849 113.568C98.3929 113.192 98.1969 112.596 98.1969 111.78V107.568H99.2649V111.708C99.2649 112.732 99.7409 113.244 100.693 113.244C101.405 113.244 101.897 113.044 102.169 112.644C102.449 112.244 102.589 111.668 102.589 110.916V107.568H103.645ZM108.371 113.256C108.531 113.256 108.695 113.244 108.863 113.22C109.031 113.188 109.167 113.156 109.271 113.124V113.928C109.159 113.984 108.999 114.028 108.791 114.06C108.583 114.1 108.383 114.12 108.191 114.12C107.855 114.12 107.543 114.064 107.255 113.952C106.975 113.832 106.747 113.628 106.571 113.34C106.395 113.052 106.307 112.648 106.307 112.128V108.384H105.395V107.88L106.319 107.46L106.739 106.092H107.363V107.568H109.223V108.384H107.363V112.104C107.363 112.496 107.455 112.788 107.639 112.98C107.831 113.164 108.075 113.256 108.371 113.256ZM118.611 109.476H121.575V113.676C121.111 113.828 120.643 113.94 120.171 114.012C119.699 114.084 119.163 114.12 118.563 114.12C117.675 114.12 116.927 113.944 116.319 113.592C115.711 113.232 115.247 112.724 114.927 112.068C114.615 111.404 114.459 110.62 114.459 109.716C114.459 108.82 114.635 108.044 114.987 107.388C115.339 106.732 115.843 106.224 116.499 105.864C117.163 105.496 117.963 105.312 118.899 105.312C119.379 105.312 119.831 105.356 120.255 105.444C120.687 105.532 121.087 105.656 121.455 105.816L121.047 106.752C120.743 106.616 120.399 106.5 120.015 106.404C119.639 106.308 119.247 106.26 118.839 106.26C117.815 106.26 117.015 106.568 116.439 107.184C115.871 107.8 115.587 108.644 115.587 109.716C115.587 110.396 115.695 111 115.911 111.528C116.135 112.048 116.483 112.456 116.955 112.752C117.427 113.04 118.047 113.184 118.815 113.184C119.191 113.184 119.511 113.164 119.775 113.124C120.039 113.084 120.279 113.036 120.495 112.98V110.436H118.611V109.476ZM127.829 106.26C126.909 106.26 126.185 106.568 125.657 107.184C125.129 107.8 124.865 108.644 124.865 109.716C124.865 110.78 125.109 111.624 125.597 112.248C126.093 112.864 126.833 113.172 127.817 113.172C128.193 113.172 128.549 113.14 128.885 113.076C129.221 113.012 129.549 112.932 129.869 112.836V113.772C129.549 113.892 129.217 113.98 128.873 114.036C128.537 114.092 128.133 114.12 127.661 114.12C126.789 114.12 126.061 113.94 125.477 113.58C124.893 113.22 124.453 112.708 124.157 112.044C123.869 111.38 123.725 110.6 123.725 109.704C123.725 108.84 123.881 108.08 124.193 107.424C124.513 106.76 124.981 106.244 125.597 105.876C126.213 105.5 126.961 105.312 127.841 105.312C128.745 105.312 129.533 105.48 130.205 105.816L129.773 106.728C129.509 106.608 129.213 106.5 128.885 106.404C128.565 106.308 128.213 106.26 127.829 106.26ZM142.72 114H141.46L136.876 106.884H136.828C136.844 107.164 136.864 107.512 136.888 107.928C136.912 108.344 136.924 108.772 136.924 109.212V114H135.928V105.432H137.176L141.748 112.524H141.796C141.788 112.396 141.776 112.204 141.76 111.948C141.752 111.692 141.74 111.412 141.724 111.108C141.716 110.804 141.712 110.524 141.712 110.268V105.432H142.72V114ZM151.029 110.772C151.029 111.836 150.757 112.66 150.213 113.244C149.677 113.828 148.949 114.12 148.029 114.12C147.461 114.12 146.953 113.992 146.505 113.736C146.065 113.472 145.717 113.092 145.461 112.596C145.205 112.092 145.077 111.484 145.077 110.772C145.077 109.708 145.345 108.888 145.881 108.312C146.417 107.736 147.145 107.448 148.065 107.448C148.649 107.448 149.161 107.58 149.601 107.844C150.049 108.1 150.397 108.476 150.645 108.972C150.901 109.46 151.029 110.06 151.029 110.772ZM146.169 110.772C146.169 111.532 146.317 112.136 146.613 112.584C146.917 113.024 147.397 113.244 148.053 113.244C148.701 113.244 149.177 113.024 149.481 112.584C149.785 112.136 149.937 111.532 149.937 110.772C149.937 110.012 149.785 109.416 149.481 108.984C149.177 108.552 148.697 108.336 148.041 108.336C147.385 108.336 146.909 108.552 146.613 108.984C146.317 109.416 146.169 110.012 146.169 110.772ZM155.386 113.256C155.546 113.256 155.71 113.244 155.878 113.22C156.046 113.188 156.182 113.156 156.286 113.124V113.928C156.174 113.984 156.014 114.028 155.806 114.06C155.598 114.1 155.398 114.12 155.206 114.12C154.87 114.12 154.558 114.064 154.27 113.952C153.99 113.832 153.762 113.628 153.586 113.34C153.41 113.052 153.322 112.648 153.322 112.128V108.384H152.41V107.88L153.334 107.46L153.754 106.092H154.378V107.568H156.238V108.384H154.378V112.104C154.378 112.496 154.47 112.788 154.654 112.98C154.846 113.164 155.09 113.256 155.386 113.256ZM158.65 105.156C158.81 105.156 158.95 105.212 159.07 105.324C159.198 105.428 159.262 105.596 159.262 105.828C159.262 106.052 159.198 106.22 159.07 106.332C158.95 106.444 158.81 106.5 158.65 106.5C158.474 106.5 158.326 106.444 158.206 106.332C158.086 106.22 158.026 106.052 158.026 105.828C158.026 105.596 158.086 105.428 158.206 105.324C158.326 105.212 158.474 105.156 158.65 105.156ZM159.166 107.568V114H158.11V107.568H159.166ZM164.703 108.384H163.083V114H162.027V108.384H160.899V107.892L162.027 107.532V107.16C162.027 106.328 162.211 105.732 162.579 105.372C162.947 105.004 163.459 104.82 164.115 104.82C164.371 104.82 164.603 104.844 164.811 104.892C165.027 104.932 165.211 104.98 165.363 105.036L165.087 105.864C164.959 105.824 164.811 105.784 164.643 105.744C164.475 105.704 164.303 105.684 164.127 105.684C163.775 105.684 163.511 105.804 163.335 106.044C163.167 106.276 163.083 106.644 163.083 107.148V107.568H164.703V108.384ZM165.392 107.568H166.52L167.912 111.228C168.032 111.548 168.14 111.856 168.236 112.152C168.332 112.44 168.404 112.716 168.452 112.98H168.5C168.548 112.78 168.624 112.52 168.728 112.2C168.832 111.872 168.94 111.544 169.052 111.216L170.36 107.568H171.5L168.728 114.888C168.504 115.496 168.212 115.98 167.852 116.34C167.5 116.7 167.012 116.88 166.388 116.88C166.196 116.88 166.028 116.868 165.884 116.844C165.74 116.828 165.616 116.808 165.512 116.784V115.944C165.6 115.96 165.704 115.976 165.824 115.992C165.952 116.008 166.084 116.016 166.22 116.016C166.588 116.016 166.884 115.912 167.108 115.704C167.34 115.496 167.52 115.22 167.648 114.876L167.984 114.024L165.392 107.568ZM172.416 113.352C172.416 113.056 172.488 112.848 172.632 112.728C172.776 112.608 172.948 112.548 173.148 112.548C173.356 112.548 173.532 112.608 173.676 112.728C173.828 112.848 173.904 113.056 173.904 113.352C173.904 113.64 173.828 113.848 173.676 113.976C173.532 114.104 173.356 114.168 173.148 114.168C172.948 114.168 172.776 114.104 172.632 113.976C172.488 113.848 172.416 113.64 172.416 113.352ZM182.828 114H181.748V106.38H179.072V105.432H185.492V106.38H182.828V114ZM191.924 110.772C191.924 111.836 191.652 112.66 191.108 113.244C190.572 113.828 189.844 114.12 188.924 114.12C188.356 114.12 187.848 113.992 187.4 113.736C186.96 113.472 186.612 113.092 186.356 112.596C186.1 112.092 185.972 111.484 185.972 110.772C185.972 109.708 186.24 108.888 186.776 108.312C187.312 107.736 188.04 107.448 188.96 107.448C189.544 107.448 190.056 107.58 190.496 107.844C190.944 108.1 191.292 108.476 191.54 108.972C191.796 109.46 191.924 110.06 191.924 110.772ZM187.064 110.772C187.064 111.532 187.212 112.136 187.508 112.584C187.812 113.024 188.292 113.244 188.948 113.244C189.596 113.244 190.072 113.024 190.376 112.584C190.68 112.136 190.832 111.532 190.832 110.772C190.832 110.012 190.68 109.416 190.376 108.984C190.072 108.552 189.592 108.336 188.936 108.336C188.28 108.336 187.804 108.552 187.508 108.984C187.212 109.416 187.064 110.012 187.064 110.772ZM196.413 114.12C195.613 114.12 194.973 113.844 194.493 113.292C194.013 112.732 193.773 111.9 193.773 110.796C193.773 109.692 194.013 108.86 194.493 108.3C194.981 107.732 195.625 107.448 196.425 107.448C196.921 107.448 197.325 107.54 197.637 107.724C197.957 107.908 198.217 108.132 198.417 108.396H198.489C198.481 108.292 198.465 108.14 198.441 107.94C198.425 107.732 198.417 107.568 198.417 107.448V104.88H199.473V114H198.621L198.465 113.136H198.417C198.225 113.408 197.969 113.64 197.649 113.832C197.329 114.024 196.917 114.12 196.413 114.12ZM196.581 113.244C197.261 113.244 197.737 113.06 198.009 112.692C198.289 112.316 198.429 111.752 198.429 111V110.808C198.429 110.008 198.297 109.396 198.033 108.972C197.769 108.54 197.281 108.324 196.569 108.324C196.001 108.324 195.573 108.552 195.285 109.008C195.005 109.456 194.865 110.06 194.865 110.82C194.865 111.588 195.005 112.184 195.285 112.608C195.573 113.032 196.005 113.244 196.581 113.244ZM204.488 107.46C205.272 107.46 205.852 107.632 206.228 107.976C206.604 108.32 206.792 108.868 206.792 109.62V114H206.024L205.82 113.088H205.772C205.492 113.44 205.196 113.7 204.884 113.868C204.58 114.036 204.156 114.12 203.612 114.12C203.028 114.12 202.544 113.968 202.16 113.664C201.776 113.352 201.584 112.868 201.584 112.212C201.584 111.572 201.836 111.08 202.34 110.736C202.844 110.384 203.62 110.192 204.668 110.16L205.76 110.124V109.74C205.76 109.204 205.644 108.832 205.412 108.624C205.18 108.416 204.852 108.312 204.428 108.312C204.092 108.312 203.772 108.364 203.468 108.468C203.164 108.564 202.88 108.676 202.616 108.804L202.292 108.012C202.572 107.86 202.904 107.732 203.288 107.628C203.672 107.516 204.072 107.46 204.488 107.46ZM205.748 110.856L204.8 110.892C204 110.924 203.444 111.052 203.132 111.276C202.828 111.5 202.676 111.816 202.676 112.224C202.676 112.584 202.784 112.848 203 113.016C203.224 113.184 203.508 113.268 203.852 113.268C204.396 113.268 204.848 113.12 205.208 112.824C205.568 112.52 205.748 112.056 205.748 111.432V110.856ZM208.306 107.568H209.434L210.826 111.228C210.946 111.548 211.054 111.856 211.15 112.152C211.246 112.44 211.318 112.716 211.366 112.98H211.414C211.462 112.78 211.538 112.52 211.642 112.2C211.746 111.872 211.854 111.544 211.966 111.216L213.274 107.568H214.414L211.642 114.888C211.418 115.496 211.126 115.98 210.766 116.34C210.414 116.7 209.926 116.88 209.302 116.88C209.11 116.88 208.942 116.868 208.798 116.844C208.654 116.828 208.53 116.808 208.426 116.784V115.944C208.514 115.96 208.618 115.976 208.738 115.992C208.866 116.008 208.998 116.016 209.134 116.016C209.502 116.016 209.798 115.912 210.022 115.704C210.254 115.496 210.434 115.22 210.562 114.876L210.898 114.024L208.306 107.568ZM220.16 105.156C220.32 105.156 220.46 105.212 220.58 105.324C220.708 105.428 220.772 105.596 220.772 105.828C220.772 106.052 220.708 106.22 220.58 106.332C220.46 106.444 220.32 106.5 220.16 106.5C219.984 106.5 219.836 106.444 219.716 106.332C219.596 106.22 219.536 106.052 219.536 105.828C219.536 105.596 219.596 105.428 219.716 105.324C219.836 105.212 219.984 105.156 220.16 105.156ZM220.676 107.568V114H219.62V107.568H220.676ZM227.437 112.224C227.437 112.848 227.205 113.32 226.741 113.64C226.277 113.96 225.653 114.12 224.869 114.12C224.421 114.12 224.033 114.084 223.705 114.012C223.385 113.94 223.101 113.84 222.853 113.712V112.752C223.109 112.88 223.417 113 223.777 113.112C224.145 113.216 224.517 113.268 224.893 113.268C225.429 113.268 225.817 113.184 226.057 113.016C226.297 112.84 226.417 112.608 226.417 112.32C226.417 112.16 226.373 112.016 226.285 111.888C226.197 111.76 226.037 111.632 225.805 111.504C225.581 111.376 225.257 111.232 224.833 111.072C224.417 110.912 224.061 110.752 223.765 110.592C223.469 110.432 223.241 110.24 223.081 110.016C222.921 109.792 222.841 109.504 222.841 109.152C222.841 108.608 223.061 108.188 223.501 107.892C223.949 107.596 224.533 107.448 225.253 107.448C225.645 107.448 226.009 107.488 226.345 107.568C226.689 107.64 227.009 107.744 227.305 107.88L226.945 108.72C226.673 108.608 226.389 108.512 226.093 108.432C225.797 108.352 225.493 108.312 225.181 108.312C224.749 108.312 224.417 108.384 224.185 108.528C223.961 108.664 223.849 108.852 223.849 109.092C223.849 109.268 223.901 109.42 224.005 109.548C224.109 109.668 224.281 109.788 224.521 109.908C224.769 110.02 225.097 110.156 225.505 110.316C225.913 110.468 226.261 110.624 226.549 110.784C226.837 110.944 227.057 111.14 227.209 111.372C227.361 111.596 227.437 111.88 227.437 112.224ZM27.48 127.712C27.48 126.736 27.62 125.796 27.9 124.892C28.188 123.98 28.636 123.16 29.244 122.432H30.24C29.68 123.184 29.256 124.012 28.968 124.916C28.688 125.82 28.548 126.748 28.548 127.7C28.548 128.628 28.688 129.54 28.968 130.436C29.256 131.324 29.676 132.144 30.228 132.896H29.244C28.636 132.192 28.188 131.396 27.9 130.508C27.62 129.612 27.48 128.68 27.48 127.712ZM31.6134 127.712C31.6134 126.736 31.7534 125.796 32.0334 124.892C32.3214 123.98 32.7694 123.16 33.3774 122.432H34.3734C33.8134 123.184 33.3894 124.012 33.1014 124.916C32.8214 125.82 32.6814 126.748 32.6814 127.7C32.6814 128.628 32.8214 129.54 33.1014 130.436C33.3894 131.324 33.8094 132.144 34.3614 132.896H33.3774C32.7694 132.192 32.3214 131.396 32.0334 130.508C31.7534 129.612 31.6134 128.68 31.6134 127.712ZM38.5667 131.12C37.7667 131.12 37.1267 130.844 36.6467 130.292C36.1667 129.732 35.9267 128.9 35.9267 127.796C35.9267 126.692 36.1667 125.86 36.6467 125.3C37.1347 124.732 37.7787 124.448 38.5787 124.448C39.0747 124.448 39.4787 124.54 39.7907 124.724C40.1107 124.908 40.3707 125.132 40.5707 125.396H40.6427C40.6347 125.292 40.6187 125.14 40.5947 124.94C40.5787 124.732 40.5707 124.568 40.5707 124.448V121.88H41.6267V131H40.7747L40.6187 130.136H40.5707C40.3787 130.408 40.1227 130.64 39.8027 130.832C39.4827 131.024 39.0707 131.12 38.5667 131.12ZM38.7347 130.244C39.4147 130.244 39.8907 130.06 40.1627 129.692C40.4427 129.316 40.5827 128.752 40.5827 128V127.808C40.5827 127.008 40.4507 126.396 40.1867 125.972C39.9227 125.54 39.4347 125.324 38.7227 125.324C38.1547 125.324 37.7267 125.552 37.4387 126.008C37.1587 126.456 37.0187 127.06 37.0187 127.82C37.0187 128.588 37.1587 129.184 37.4387 129.608C37.7267 130.032 38.1587 130.244 38.7347 130.244ZM46.6413 124.46C47.4253 124.46 48.0053 124.632 48.3813 124.976C48.7573 125.32 48.9453 125.868 48.9453 126.62V131H48.1773L47.9733 130.088H47.9253C47.6453 130.44 47.3493 130.7 47.0373 130.868C46.7333 131.036 46.3093 131.12 45.7653 131.12C45.1813 131.12 44.6973 130.968 44.3133 130.664C43.9293 130.352 43.7373 129.868 43.7373 129.212C43.7373 128.572 43.9893 128.08 44.4933 127.736C44.9973 127.384 45.7733 127.192 46.8213 127.16L47.9133 127.124V126.74C47.9133 126.204 47.7973 125.832 47.5653 125.624C47.3333 125.416 47.0053 125.312 46.5813 125.312C46.2453 125.312 45.9253 125.364 45.6213 125.468C45.3173 125.564 45.0333 125.676 44.7693 125.804L44.4453 125.012C44.7253 124.86 45.0573 124.732 45.4413 124.628C45.8253 124.516 46.2253 124.46 46.6413 124.46ZM47.9013 127.856L46.9533 127.892C46.1533 127.924 45.5973 128.052 45.2853 128.276C44.9813 128.5 44.8293 128.816 44.8293 129.224C44.8293 129.584 44.9373 129.848 45.1533 130.016C45.3773 130.184 45.6613 130.268 46.0053 130.268C46.5493 130.268 47.0013 130.12 47.3613 129.824C47.7213 129.52 47.9013 129.056 47.9013 128.432V127.856ZM50.4595 124.568H51.5875L52.9795 128.228C53.0995 128.548 53.2075 128.856 53.3035 129.152C53.3995 129.44 53.4715 129.716 53.5195 129.98H53.5675C53.6155 129.78 53.6915 129.52 53.7955 129.2C53.8995 128.872 54.0075 128.544 54.1195 128.216L55.4275 124.568H56.5675L53.7955 131.888C53.5715 132.496 53.2795 132.98 52.9195 133.34C52.5675 133.7 52.0795 133.88 51.4555 133.88C51.2635 133.88 51.0955 133.868 50.9515 133.844C50.8075 133.828 50.6835 133.808 50.5795 133.784V132.944C50.6675 132.96 50.7715 132.976 50.8915 132.992C51.0195 133.008 51.1515 133.016 51.2875 133.016C51.6555 133.016 51.9515 132.912 52.1755 132.704C52.4075 132.496 52.5875 132.22 52.7155 131.876L53.0515 131.024L50.4595 124.568ZM67.3653 127.772C67.3653 128.836 67.0933 129.66 66.5493 130.244C66.0133 130.828 65.2853 131.12 64.3653 131.12C63.7973 131.12 63.2893 130.992 62.8413 130.736C62.4013 130.472 62.0533 130.092 61.7973 129.596C61.5413 129.092 61.4133 128.484 61.4133 127.772C61.4133 126.708 61.6813 125.888 62.2173 125.312C62.7533 124.736 63.4813 124.448 64.4013 124.448C64.9853 124.448 65.4973 124.58 65.9373 124.844C66.3853 125.1 66.7333 125.476 66.9813 125.972C67.2373 126.46 67.3653 127.06 67.3653 127.772ZM62.5053 127.772C62.5053 128.532 62.6533 129.136 62.9493 129.584C63.2533 130.024 63.7333 130.244 64.3893 130.244C65.0373 130.244 65.5133 130.024 65.8173 129.584C66.1213 129.136 66.2733 128.532 66.2733 127.772C66.2733 127.012 66.1213 126.416 65.8173 125.984C65.5133 125.552 65.0333 125.336 64.3773 125.336C63.7213 125.336 63.2453 125.552 62.9493 125.984C62.6533 126.416 62.5053 127.012 62.5053 127.772ZM72.5387 125.384H70.9187V131H69.8627V125.384H68.7347V124.892L69.8627 124.532V124.16C69.8627 123.328 70.0467 122.732 70.4147 122.372C70.7827 122.004 71.2947 121.82 71.9507 121.82C72.2067 121.82 72.4387 121.844 72.6467 121.892C72.8627 121.932 73.0467 121.98 73.1987 122.036L72.9227 122.864C72.7947 122.824 72.6467 122.784 72.4787 122.744C72.3107 122.704 72.1387 122.684 71.9627 122.684C71.6107 122.684 71.3467 122.804 71.1707 123.044C71.0027 123.276 70.9187 123.644 70.9187 124.148V124.568H72.5387V125.384ZM83.1443 130.988L82.0403 127.364C81.9363 127.036 81.8443 126.716 81.7643 126.404C81.6923 126.084 81.6363 125.836 81.5963 125.66H81.5483C81.5163 125.836 81.4643 126.084 81.3923 126.404C81.3203 126.716 81.2283 127.04 81.1163 127.376L79.9643 130.988H78.7643L77.0003 124.556H78.0923L78.9803 127.988C79.0683 128.332 79.1523 128.68 79.2323 129.032C79.3123 129.384 79.3683 129.676 79.4003 129.908H79.4483C79.4803 129.772 79.5163 129.604 79.5563 129.404C79.6043 129.204 79.6563 128.996 79.7123 128.78C79.7683 128.556 79.8243 128.356 79.8803 128.18L81.0203 124.556H82.1723L83.2763 128.18C83.3643 128.452 83.4483 128.748 83.5283 129.068C83.6163 129.388 83.6763 129.664 83.7083 129.896H83.7563C83.7803 129.696 83.8323 129.42 83.9123 129.068C84.0003 128.716 84.0923 128.356 84.1883 127.988L85.0883 124.556H86.1683L84.3803 130.988H83.1443ZM90.3416 124.448C90.8936 124.448 91.3656 124.568 91.7576 124.808C92.1576 125.048 92.4616 125.388 92.6696 125.828C92.8856 126.26 92.9936 126.768 92.9936 127.352V127.988H88.5896C88.6056 128.716 88.7896 129.272 89.1416 129.656C89.5016 130.032 90.0016 130.22 90.6416 130.22C91.0496 130.22 91.4096 130.184 91.7216 130.112C92.0416 130.032 92.3696 129.92 92.7056 129.776V130.7C92.3776 130.844 92.0536 130.948 91.7336 131.012C91.4136 131.084 91.0336 131.12 90.5936 131.12C89.9856 131.12 89.4456 130.996 88.9736 130.748C88.5096 130.5 88.1456 130.132 87.8816 129.644C87.6256 129.148 87.4976 128.544 87.4976 127.832C87.4976 127.128 87.6136 126.524 87.8456 126.02C88.0856 125.516 88.4176 125.128 88.8416 124.856C89.2736 124.584 89.7736 124.448 90.3416 124.448ZM90.3296 125.312C89.8256 125.312 89.4256 125.476 89.1296 125.804C88.8416 126.124 88.6696 126.572 88.6136 127.148H91.8896C91.8816 126.604 91.7536 126.164 91.5056 125.828C91.2576 125.484 90.8656 125.312 90.3296 125.312ZM97.6508 124.448C98.2028 124.448 98.6748 124.568 99.0668 124.808C99.4668 125.048 99.7708 125.388 99.9788 125.828C100.195 126.26 100.303 126.768 100.303 127.352V127.988H95.8988C95.9148 128.716 96.0988 129.272 96.4508 129.656C96.8108 130.032 97.3108 130.22 97.9508 130.22C98.3588 130.22 98.7188 130.184 99.0308 130.112C99.3508 130.032 99.6788 129.92 100.015 129.776V130.7C99.6868 130.844 99.3628 130.948 99.0428 131.012C98.7228 131.084 98.3428 131.12 97.9028 131.12C97.2948 131.12 96.7548 130.996 96.2828 130.748C95.8188 130.5 95.4548 130.132 95.1908 129.644C94.9348 129.148 94.8068 128.544 94.8068 127.832C94.8068 127.128 94.9228 126.524 95.1548 126.02C95.3948 125.516 95.7268 125.128 96.1508 124.856C96.5828 124.584 97.0828 124.448 97.6508 124.448ZM97.6388 125.312C97.1348 125.312 96.7348 125.476 96.4388 125.804C96.1508 126.124 95.9788 126.572 95.9228 127.148H99.1988C99.1908 126.604 99.0628 126.164 98.8148 125.828C98.5668 125.484 98.1748 125.312 97.6388 125.312ZM103.52 121.88V126.644C103.52 126.772 103.512 126.94 103.496 127.148C103.488 127.356 103.48 127.536 103.472 127.688H103.52C103.568 127.624 103.64 127.532 103.736 127.412C103.832 127.292 103.928 127.172 104.024 127.052C104.128 126.924 104.216 126.82 104.288 126.74L106.34 124.568H107.576L104.972 127.316L107.756 131H106.484L104.252 128L103.52 128.636V131H102.476V121.88H103.52ZM111.522 127.712C111.522 128.68 111.378 129.612 111.09 130.508C110.81 131.396 110.366 132.192 109.758 132.896H108.774C109.326 132.144 109.742 131.324 110.022 130.436C110.31 129.54 110.454 128.628 110.454 127.7C110.454 126.748 110.31 125.82 110.022 124.916C109.742 124.012 109.322 123.184 108.762 122.432H109.758C110.366 123.16 110.81 123.98 111.09 124.892C111.378 125.796 111.522 126.736 111.522 127.712ZM115.655 127.712C115.655 128.68 115.511 129.612 115.223 130.508C114.943 131.396 114.499 132.192 113.891 132.896H112.907C113.459 132.144 113.875 131.324 114.155 130.436C114.443 129.54 114.587 128.628 114.587 127.7C114.587 126.748 114.443 125.82 114.155 124.916C113.875 124.012 113.455 123.184 112.895 122.432H113.891C114.499 123.16 114.943 123.98 115.223 124.892C115.511 125.796 115.655 126.736 115.655 127.712ZM123.777 124.46C124.561 124.46 125.141 124.632 125.517 124.976C125.893 125.32 126.081 125.868 126.081 126.62V131H125.313L125.109 130.088H125.061C124.781 130.44 124.485 130.7 124.173 130.868C123.869 131.036 123.445 131.12 122.901 131.12C122.317 131.12 121.833 130.968 121.449 130.664C121.065 130.352 120.873 129.868 120.873 129.212C120.873 128.572 121.125 128.08 121.629 127.736C122.133 127.384 122.909 127.192 123.957 127.16L125.049 127.124V126.74C125.049 126.204 124.933 125.832 124.701 125.624C124.469 125.416 124.141 125.312 123.717 125.312C123.381 125.312 123.061 125.364 122.757 125.468C122.453 125.564 122.169 125.676 121.905 125.804L121.581 125.012C121.861 124.86 122.193 124.732 122.577 124.628C122.961 124.516 123.361 124.46 123.777 124.46ZM125.037 127.856L124.089 127.892C123.289 127.924 122.733 128.052 122.421 128.276C122.117 128.5 121.965 128.816 121.965 129.224C121.965 129.584 122.073 129.848 122.289 130.016C122.513 130.184 122.797 130.268 123.141 130.268C123.685 130.268 124.137 130.12 124.497 129.824C124.857 129.52 125.037 129.056 125.037 128.432V127.856ZM131.7 124.448C132.468 124.448 133.048 124.636 133.44 125.012C133.832 125.38 134.028 125.98 134.028 126.812V131H132.984V126.884C132.984 125.852 132.504 125.336 131.544 125.336C130.832 125.336 130.34 125.536 130.068 125.936C129.796 126.336 129.66 126.912 129.66 127.664V131H128.604V124.568H129.456L129.612 125.444H129.672C129.88 125.108 130.168 124.86 130.536 124.7C130.904 124.532 131.292 124.448 131.7 124.448ZM138.837 131.12C138.037 131.12 137.397 130.844 136.917 130.292C136.437 129.732 136.197 128.9 136.197 127.796C136.197 126.692 136.437 125.86 136.917 125.3C137.405 124.732 138.049 124.448 138.849 124.448C139.345 124.448 139.749 124.54 140.061 124.724C140.381 124.908 140.641 125.132 140.841 125.396H140.913C140.905 125.292 140.889 125.14 140.865 124.94C140.849 124.732 140.841 124.568 140.841 124.448V121.88H141.897V131H141.045L140.889 130.136H140.841C140.649 130.408 140.393 130.64 140.073 130.832C139.753 131.024 139.341 131.12 138.837 131.12ZM139.005 130.244C139.685 130.244 140.161 130.06 140.433 129.692C140.713 129.316 140.853 128.752 140.853 128V127.808C140.853 127.008 140.721 126.396 140.457 125.972C140.193 125.54 139.705 125.324 138.993 125.324C138.425 125.324 137.997 125.552 137.709 126.008C137.429 126.456 137.289 127.06 137.289 127.82C137.289 128.588 137.429 129.184 137.709 129.608C137.997 130.032 138.429 130.244 139.005 130.244ZM155.185 124.448C155.913 124.448 156.457 124.636 156.817 125.012C157.177 125.38 157.357 125.98 157.357 126.812V131H156.313V126.86C156.313 125.844 155.877 125.336 155.005 125.336C154.381 125.336 153.933 125.516 153.661 125.876C153.397 126.236 153.265 126.76 153.265 127.448V131H152.221V126.86C152.221 125.844 151.781 125.336 150.901 125.336C150.253 125.336 149.805 125.536 149.557 125.936C149.309 126.336 149.185 126.912 149.185 127.664V131H148.129V124.568H148.981L149.137 125.444H149.197C149.397 125.108 149.665 124.86 150.001 124.7C150.345 124.532 150.709 124.448 151.093 124.448C152.101 124.448 152.757 124.808 153.061 125.528H153.121C153.337 125.16 153.629 124.888 153.997 124.712C154.373 124.536 154.769 124.448 155.185 124.448ZM158.871 124.568H159.999L161.391 128.228C161.511 128.548 161.619 128.856 161.715 129.152C161.811 129.44 161.883 129.716 161.931 129.98H161.979C162.027 129.78 162.103 129.52 162.207 129.2C162.311 128.872 162.419 128.544 162.531 128.216L163.839 124.568H164.979L162.207 131.888C161.983 132.496 161.691 132.98 161.331 133.34C160.979 133.7 160.491 133.88 159.867 133.88C159.675 133.88 159.507 133.868 159.363 133.844C159.219 133.828 159.095 133.808 158.991 133.784V132.944C159.079 132.96 159.183 132.976 159.303 132.992C159.431 133.008 159.563 133.016 159.699 133.016C160.067 133.016 160.363 132.912 160.587 132.704C160.819 132.496 160.999 132.22 161.127 131.876L161.463 131.024L158.871 124.568ZM173.149 125.384H171.529V131H170.473V125.384H169.345V124.892L170.473 124.532V124.16C170.473 123.328 170.657 122.732 171.025 122.372C171.393 122.004 171.905 121.82 172.561 121.82C172.817 121.82 173.049 121.844 173.257 121.892C173.473 121.932 173.657 121.98 173.809 122.036L173.533 122.864C173.405 122.824 173.257 122.784 173.089 122.744C172.921 122.704 172.749 122.684 172.573 122.684C172.221 122.684 171.957 122.804 171.781 123.044C171.613 123.276 171.529 123.644 171.529 124.148V124.568H173.149V125.384ZM177.282 124.46C178.066 124.46 178.646 124.632 179.022 124.976C179.398 125.32 179.586 125.868 179.586 126.62V131H178.818L178.614 130.088H178.566C178.286 130.44 177.99 130.7 177.678 130.868C177.374 131.036 176.95 131.12 176.406 131.12C175.822 131.12 175.338 130.968 174.954 130.664C174.57 130.352 174.378 129.868 174.378 129.212C174.378 128.572 174.63 128.08 175.134 127.736C175.638 127.384 176.414 127.192 177.462 127.16L178.554 127.124V126.74C178.554 126.204 178.438 125.832 178.206 125.624C177.974 125.416 177.646 125.312 177.222 125.312C176.886 125.312 176.566 125.364 176.262 125.468C175.958 125.564 175.674 125.676 175.41 125.804L175.086 125.012C175.366 124.86 175.698 124.732 176.082 124.628C176.466 124.516 176.866 124.46 177.282 124.46ZM178.542 127.856L177.594 127.892C176.794 127.924 176.238 128.052 175.926 128.276C175.622 128.5 175.47 128.816 175.47 129.224C175.47 129.584 175.578 129.848 175.794 130.016C176.018 130.184 176.302 130.268 176.646 130.268C177.19 130.268 177.642 130.12 178.002 129.824C178.362 129.52 178.542 129.056 178.542 128.432V127.856ZM183.524 131L181.088 124.568H182.216L183.584 128.36C183.648 128.536 183.716 128.732 183.788 128.948C183.86 129.164 183.924 129.372 183.98 129.572C184.036 129.764 184.076 129.928 184.1 130.064H184.148C184.18 129.928 184.224 129.76 184.28 129.56C184.344 129.36 184.412 129.152 184.484 128.936C184.564 128.72 184.632 128.528 184.688 128.36L186.056 124.568H187.184L184.736 131H183.524ZM194.33 127.772C194.33 128.836 194.058 129.66 193.514 130.244C192.978 130.828 192.25 131.12 191.33 131.12C190.762 131.12 190.254 130.992 189.806 130.736C189.366 130.472 189.018 130.092 188.762 129.596C188.506 129.092 188.378 128.484 188.378 127.772C188.378 126.708 188.646 125.888 189.182 125.312C189.718 124.736 190.446 124.448 191.366 124.448C191.95 124.448 192.462 124.58 192.902 124.844C193.35 125.1 193.698 125.476 193.946 125.972C194.202 126.46 194.33 127.06 194.33 127.772ZM189.47 127.772C189.47 128.532 189.618 129.136 189.914 129.584C190.218 130.024 190.698 130.244 191.354 130.244C192.002 130.244 192.478 130.024 192.782 129.584C193.086 129.136 193.238 128.532 193.238 127.772C193.238 127.012 193.086 126.416 192.782 125.984C192.478 125.552 191.998 125.336 191.342 125.336C190.686 125.336 190.21 125.552 189.914 125.984C189.618 126.416 189.47 127.012 189.47 127.772ZM199.539 124.448C199.659 124.448 199.787 124.456 199.923 124.472C200.067 124.48 200.191 124.496 200.295 124.52L200.163 125.492C200.059 125.468 199.943 125.448 199.815 125.432C199.695 125.416 199.579 125.408 199.467 125.408C199.139 125.408 198.831 125.5 198.543 125.684C198.255 125.86 198.023 126.112 197.847 126.44C197.679 126.76 197.595 127.136 197.595 127.568V131H196.539V124.568H197.403L197.523 125.744H197.571C197.779 125.392 198.047 125.088 198.375 124.832C198.703 124.576 199.091 124.448 199.539 124.448ZM202.572 122.156C202.732 122.156 202.872 122.212 202.992 122.324C203.12 122.428 203.184 122.596 203.184 122.828C203.184 123.052 203.12 123.22 202.992 123.332C202.872 123.444 202.732 123.5 202.572 123.5C202.396 123.5 202.248 123.444 202.128 123.332C202.008 123.22 201.948 123.052 201.948 122.828C201.948 122.596 202.008 122.428 202.128 122.324C202.248 122.212 202.396 122.156 202.572 122.156ZM203.088 124.568V131H202.032V124.568H203.088ZM207.809 130.256C207.969 130.256 208.133 130.244 208.301 130.22C208.469 130.188 208.605 130.156 208.709 130.124V130.928C208.597 130.984 208.437 131.028 208.229 131.06C208.021 131.1 207.821 131.12 207.629 131.12C207.293 131.12 206.981 131.064 206.693 130.952C206.413 130.832 206.185 130.628 206.009 130.34C205.833 130.052 205.745 129.648 205.745 129.128V125.384H204.833V124.88L205.757 124.46L206.177 123.092H206.801V124.568H208.661V125.384H206.801V129.104C206.801 129.496 206.893 129.788 207.077 129.98C207.269 130.164 207.513 130.256 207.809 130.256ZM213.017 124.448C213.569 124.448 214.041 124.568 214.433 124.808C214.833 125.048 215.137 125.388 215.345 125.828C215.561 126.26 215.669 126.768 215.669 127.352V127.988H211.265C211.281 128.716 211.465 129.272 211.817 129.656C212.177 130.032 212.677 130.22 213.317 130.22C213.725 130.22 214.085 130.184 214.397 130.112C214.717 130.032 215.045 129.92 215.381 129.776V130.7C215.053 130.844 214.729 130.948 214.409 131.012C214.089 131.084 213.709 131.12 213.269 131.12C212.661 131.12 212.121 130.996 211.649 130.748C211.185 130.5 210.821 130.132 210.557 129.644C210.301 129.148 210.173 128.544 210.173 127.832C210.173 127.128 210.289 126.524 210.521 126.02C210.761 125.516 211.093 125.128 211.517 124.856C211.949 124.584 212.449 124.448 213.017 124.448ZM213.005 125.312C212.501 125.312 212.101 125.476 211.805 125.804C211.517 126.124 211.345 126.572 211.289 127.148H214.565C214.557 126.604 214.429 126.164 214.181 125.828C213.933 125.484 213.541 125.312 213.005 125.312ZM30.6 148.12C30.032 148.12 29.524 148.004 29.076 147.772C28.636 147.54 28.288 147.18 28.032 146.692C27.784 146.204 27.66 145.58 27.66 144.82C27.66 144.028 27.792 143.384 28.056 142.888C28.32 142.392 28.676 142.028 29.124 141.796C29.58 141.564 30.096 141.448 30.672 141.448C31 141.448 31.316 141.484 31.62 141.556C31.924 141.62 32.172 141.7 32.364 141.796L32.04 142.672C31.848 142.6 31.624 142.532 31.368 142.468C31.112 142.404 30.872 142.372 30.648 142.372C29.384 142.372 28.752 143.184 28.752 144.808C28.752 145.584 28.904 146.18 29.208 146.596C29.52 147.004 29.98 147.208 30.588 147.208C30.94 147.208 31.248 147.172 31.512 147.1C31.784 147.028 32.032 146.94 32.256 146.836V147.772C32.04 147.884 31.8 147.968 31.536 148.024C31.28 148.088 30.968 148.12 30.6 148.12ZM39.9133 144.772C39.9133 145.836 39.6413 146.66 39.0973 147.244C38.5613 147.828 37.8333 148.12 36.9133 148.12C36.3453 148.12 35.8373 147.992 35.3893 147.736C34.9493 147.472 34.6013 147.092 34.3453 146.596C34.0893 146.092 33.9613 145.484 33.9613 144.772C33.9613 143.708 34.2293 142.888 34.7653 142.312C35.3013 141.736 36.0293 141.448 36.9493 141.448C37.5333 141.448 38.0453 141.58 38.4853 141.844C38.9333 142.1 39.2813 142.476 39.5293 142.972C39.7853 143.46 39.9133 144.06 39.9133 144.772ZM35.0533 144.772C35.0533 145.532 35.2013 146.136 35.4973 146.584C35.8013 147.024 36.2813 147.244 36.9373 147.244C37.5853 147.244 38.0613 147.024 38.3653 146.584C38.6693 146.136 38.8213 145.532 38.8213 144.772C38.8213 144.012 38.6693 143.416 38.3653 142.984C38.0613 142.552 37.5813 142.336 36.9253 142.336C36.2693 142.336 35.7933 142.552 35.4973 142.984C35.2013 143.416 35.0533 144.012 35.0533 144.772ZM43.1787 148H42.1227V138.88H43.1787V148ZM51.3441 144.772C51.3441 145.836 51.0721 146.66 50.5281 147.244C49.9921 147.828 49.2641 148.12 48.3441 148.12C47.7761 148.12 47.2681 147.992 46.8201 147.736C46.3801 147.472 46.0321 147.092 45.7761 146.596C45.5201 146.092 45.3921 145.484 45.3921 144.772C45.3921 143.708 45.6601 142.888 46.1961 142.312C46.7321 141.736 47.4601 141.448 48.3801 141.448C48.9641 141.448 49.4761 141.58 49.9161 141.844C50.3641 142.1 50.7121 142.476 50.9601 142.972C51.2161 143.46 51.3441 144.06 51.3441 144.772ZM46.4841 144.772C46.4841 145.532 46.6321 146.136 46.9281 146.584C47.2321 147.024 47.7121 147.244 48.3681 147.244C49.0161 147.244 49.4921 147.024 49.7961 146.584C50.1001 146.136 50.2521 145.532 50.2521 144.772C50.2521 144.012 50.1001 143.416 49.7961 142.984C49.4921 142.552 49.0121 142.336 48.3561 142.336C47.7001 142.336 47.2241 142.552 46.9281 142.984C46.6321 143.416 46.4841 144.012 46.4841 144.772ZM58.9295 141.568V148H58.0655L57.9095 147.148H57.8615C57.6535 147.484 57.3655 147.732 56.9975 147.892C56.6295 148.044 56.2375 148.12 55.8215 148.12C55.0455 148.12 54.4615 147.936 54.0695 147.568C53.6775 147.192 53.4815 146.596 53.4815 145.78V141.568H54.5495V145.708C54.5495 146.732 55.0255 147.244 55.9775 147.244C56.6895 147.244 57.1815 147.044 57.4535 146.644C57.7335 146.244 57.8735 145.668 57.8735 144.916V141.568H58.9295ZM64.5072 141.448C64.6272 141.448 64.7552 141.456 64.8912 141.472C65.0352 141.48 65.1592 141.496 65.2632 141.52L65.1312 142.492C65.0272 142.468 64.9112 142.448 64.7832 142.432C64.6632 142.416 64.5472 142.408 64.4352 142.408C64.1072 142.408 63.7992 142.5 63.5112 142.684C63.2232 142.86 62.9912 143.112 62.8152 143.44C62.6472 143.76 62.5632 144.136 62.5632 144.568V148H61.5072V141.568H62.3712L62.4912 142.744H62.5392C62.7472 142.392 63.0152 142.088 63.3432 141.832C63.6712 141.576 64.0592 141.448 64.5072 141.448ZM71.1928 139.156C71.3528 139.156 71.4928 139.212 71.6128 139.324C71.7408 139.428 71.8048 139.596 71.8048 139.828C71.8048 140.052 71.7408 140.22 71.6128 140.332C71.4928 140.444 71.3528 140.5 71.1928 140.5C71.0168 140.5 70.8688 140.444 70.7488 140.332C70.6288 140.22 70.5688 140.052 70.5688 139.828C70.5688 139.596 70.6288 139.428 70.7488 139.324C70.8688 139.212 71.0168 139.156 71.1928 139.156ZM71.7088 141.568V148H70.6528V141.568H71.7088ZM78.4703 146.224C78.4703 146.848 78.2383 147.32 77.7743 147.64C77.3103 147.96 76.6863 148.12 75.9023 148.12C75.4543 148.12 75.0663 148.084 74.7383 148.012C74.4183 147.94 74.1343 147.84 73.8863 147.712V146.752C74.1423 146.88 74.4503 147 74.8103 147.112C75.1783 147.216 75.5503 147.268 75.9263 147.268C76.4623 147.268 76.8503 147.184 77.0903 147.016C77.3303 146.84 77.4503 146.608 77.4503 146.32C77.4503 146.16 77.4063 146.016 77.3183 145.888C77.2303 145.76 77.0703 145.632 76.8383 145.504C76.6143 145.376 76.2903 145.232 75.8663 145.072C75.4503 144.912 75.0943 144.752 74.7983 144.592C74.5023 144.432 74.2743 144.24 74.1143 144.016C73.9543 143.792 73.8743 143.504 73.8743 143.152C73.8743 142.608 74.0943 142.188 74.5343 141.892C74.9823 141.596 75.5663 141.448 76.2863 141.448C76.6783 141.448 77.0423 141.488 77.3783 141.568C77.7223 141.64 78.0423 141.744 78.3383 141.88L77.9783 142.72C77.7063 142.608 77.4223 142.512 77.1263 142.432C76.8303 142.352 76.5263 142.312 76.2143 142.312C75.7823 142.312 75.4503 142.384 75.2183 142.528C74.9943 142.664 74.8823 142.852 74.8823 143.092C74.8823 143.268 74.9343 143.42 75.0383 143.548C75.1423 143.668 75.3143 143.788 75.5543 143.908C75.8023 144.02 76.1303 144.156 76.5383 144.316C76.9463 144.468 77.2943 144.624 77.5823 144.784C77.8703 144.944 78.0903 145.14 78.2423 145.372C78.3943 145.596 78.4703 145.88 78.4703 146.224ZM83.6731 144.712C83.6731 143.736 83.8131 142.796 84.0931 141.892C84.3811 140.98 84.8291 140.16 85.4371 139.432H86.4331C85.8731 140.184 85.4491 141.012 85.1611 141.916C84.8811 142.82 84.7411 143.748 84.7411 144.7C84.7411 145.628 84.8811 146.54 85.1611 147.436C85.4491 148.324 85.8691 149.144 86.4211 149.896H85.4371C84.8291 149.192 84.3811 148.396 84.0931 147.508C83.8131 146.612 83.6731 145.68 83.6731 144.712ZM87.8065 144.712C87.8065 143.736 87.9465 142.796 88.2265 141.892C88.5145 140.98 88.9625 140.16 89.5705 139.432H90.5665C90.0065 140.184 89.5825 141.012 89.2945 141.916C89.0145 142.82 88.8745 143.748 88.8745 144.7C88.8745 145.628 89.0145 146.54 89.2945 147.436C89.5825 148.324 90.0025 149.144 90.5545 149.896H89.5705C88.9625 149.192 88.5145 148.396 88.2265 147.508C87.9465 146.612 87.8065 145.68 87.8065 144.712ZM95.0598 148.12C94.4918 148.12 93.9838 148.004 93.5358 147.772C93.0958 147.54 92.7478 147.18 92.4918 146.692C92.2438 146.204 92.1198 145.58 92.1198 144.82C92.1198 144.028 92.2518 143.384 92.5158 142.888C92.7798 142.392 93.1358 142.028 93.5838 141.796C94.0398 141.564 94.5558 141.448 95.1318 141.448C95.4598 141.448 95.7758 141.484 96.0798 141.556C96.3838 141.62 96.6318 141.7 96.8238 141.796L96.4998 142.672C96.3078 142.6 96.0838 142.532 95.8278 142.468C95.5718 142.404 95.3318 142.372 95.1078 142.372C93.8438 142.372 93.2118 143.184 93.2118 144.808C93.2118 145.584 93.3638 146.18 93.6678 146.596C93.9798 147.004 94.4398 147.208 95.0478 147.208C95.3998 147.208 95.7078 147.172 95.9718 147.1C96.2438 147.028 96.4918 146.94 96.7158 146.836V147.772C96.4998 147.884 96.2598 147.968 95.9958 148.024C95.7398 148.088 95.4278 148.12 95.0598 148.12ZM104.373 144.772C104.373 145.836 104.101 146.66 103.557 147.244C103.021 147.828 102.293 148.12 101.373 148.12C100.805 148.12 100.297 147.992 99.8492 147.736C99.4092 147.472 99.0612 147.092 98.8052 146.596C98.5492 146.092 98.4212 145.484 98.4212 144.772C98.4212 143.708 98.6892 142.888 99.2252 142.312C99.7612 141.736 100.489 141.448 101.409 141.448C101.993 141.448 102.505 141.58 102.945 141.844C103.393 142.1 103.741 142.476 103.989 142.972C104.245 143.46 104.373 144.06 104.373 144.772ZM99.5132 144.772C99.5132 145.532 99.6612 146.136 99.9572 146.584C100.261 147.024 100.741 147.244 101.397 147.244C102.045 147.244 102.521 147.024 102.825 146.584C103.129 146.136 103.281 145.532 103.281 144.772C103.281 144.012 103.129 143.416 102.825 142.984C102.521 142.552 102.041 142.336 101.385 142.336C100.729 142.336 100.253 142.552 99.9572 142.984C99.6612 143.416 99.5132 144.012 99.5132 144.772ZM107.639 148H106.583V138.88H107.639V148ZM115.804 144.772C115.804 145.836 115.532 146.66 114.988 147.244C114.452 147.828 113.724 148.12 112.804 148.12C112.236 148.12 111.728 147.992 111.28 147.736C110.84 147.472 110.492 147.092 110.236 146.596C109.98 146.092 109.852 145.484 109.852 144.772C109.852 143.708 110.12 142.888 110.656 142.312C111.192 141.736 111.92 141.448 112.84 141.448C113.424 141.448 113.936 141.58 114.376 141.844C114.824 142.1 115.172 142.476 115.42 142.972C115.676 143.46 115.804 144.06 115.804 144.772ZM110.944 144.772C110.944 145.532 111.092 146.136 111.388 146.584C111.692 147.024 112.172 147.244 112.828 147.244C113.476 147.244 113.952 147.024 114.256 146.584C114.56 146.136 114.712 145.532 114.712 144.772C114.712 144.012 114.56 143.416 114.256 142.984C113.952 142.552 113.472 142.336 112.816 142.336C112.16 142.336 111.684 142.552 111.388 142.984C111.092 143.416 110.944 144.012 110.944 144.772ZM123.389 141.568V148H122.525L122.369 147.148H122.321C122.113 147.484 121.825 147.732 121.457 147.892C121.089 148.044 120.697 148.12 120.281 148.12C119.505 148.12 118.921 147.936 118.529 147.568C118.137 147.192 117.941 146.596 117.941 145.78V141.568H119.009V145.708C119.009 146.732 119.485 147.244 120.437 147.244C121.149 147.244 121.641 147.044 121.913 146.644C122.193 146.244 122.333 145.668 122.333 144.916V141.568H123.389ZM128.967 141.448C129.087 141.448 129.215 141.456 129.351 141.472C129.495 141.48 129.619 141.496 129.723 141.52L129.591 142.492C129.487 142.468 129.371 142.448 129.243 142.432C129.123 142.416 129.007 142.408 128.895 142.408C128.567 142.408 128.259 142.5 127.971 142.684C127.683 142.86 127.451 143.112 127.275 143.44C127.107 143.76 127.023 144.136 127.023 144.568V148H125.967V141.568H126.831L126.951 142.744H126.999C127.207 142.392 127.475 142.088 127.803 141.832C128.131 141.576 128.519 141.448 128.967 141.448ZM133.56 144.712C133.56 145.68 133.416 146.612 133.128 147.508C132.848 148.396 132.404 149.192 131.796 149.896H130.812C131.364 149.144 131.78 148.324 132.06 147.436C132.348 146.54 132.492 145.628 132.492 144.7C132.492 143.748 132.348 142.82 132.06 141.916C131.78 141.012 131.36 140.184 130.8 139.432H131.796C132.404 140.16 132.848 140.98 133.128 141.892C133.416 142.796 133.56 143.736 133.56 144.712ZM137.693 144.712C137.693 145.68 137.549 146.612 137.261 147.508C136.981 148.396 136.537 149.192 135.929 149.896H134.945C135.497 149.144 135.913 148.324 136.193 147.436C136.481 146.54 136.625 145.628 136.625 144.7C136.625 143.748 136.481 142.82 136.193 141.916C135.913 141.012 135.493 140.184 134.933 139.432H135.929C136.537 140.16 136.981 140.98 137.261 141.892C137.549 142.796 137.693 143.736 137.693 144.712ZM139.57 147.352C139.57 147.056 139.642 146.848 139.786 146.728C139.93 146.608 140.102 146.548 140.302 146.548C140.51 146.548 140.686 146.608 140.83 146.728C140.982 146.848 141.058 147.056 141.058 147.352C141.058 147.64 140.982 147.848 140.83 147.976C140.686 148.104 140.51 148.168 140.302 148.168C140.102 148.168 139.93 148.104 139.786 147.976C139.642 147.848 139.57 147.64 139.57 147.352Z" fill="black"/>
<path d="M15 0.5H344C352.008 0.5 358.5 6.99187 358.5 15V231.5H0.5V15C0.5 6.99187 6.99187 0.5 15 0.5Z" stroke="#BBBDBF"/>
</g>
<defs>
<filter id="filter0_d" x="0" y="0" width="367" height="240" filterUnits="userSpaceOnUse" color-interpolation-filters="sRGB">
<feFlood flood-opacity="0" result="BackgroundImageFix"/>
<feColorMatrix in="SourceAlpha" type="matrix" values="0 0 0 0 0 0 0 0 0 0 0 0 0 0 0 0 0 0 127 0"/>
<feOffset dx="4" dy="4"/>
<feGaussianBlur stdDeviation="2"/>
<feColorMatrix type="matrix" values="0 0 0 0 0 0 0 0 0 0 0 0 0 0 0 0 0 0 0.1 0"/>
<feBlend mode="normal" in2="BackgroundImageFix" result="effect1_dropShadow"/>
<feBlend mode="normal" in="SourceGraphic" in2="effect1_dropShadow" result="shape"/>
</filter>
<filter id="filter1_d" x="18" y="176" width="65" height="28" filterUnits="userSpaceOnUse" color-interpolation-filters="sRGB">
<feFlood flood-opacity="0" result="BackgroundImageFix"/>
<feColorMatrix in="SourceAlpha" type="matrix" values="0 0 0 0 0 0 0 0 0 0 0 0 0 0 0 0 0 0 127 0"/>
<feOffset dy="2"/>
<feColorMatrix type="matrix" values="0 0 0 0 0 0 0 0 0 0 0 0 0 0 0 0 0 0 1 0"/>
<feBlend mode="normal" in2="BackgroundImageFix" result="effect1_dropShadow"/>
<feBlend mode="normal" in="SourceGraphic" in2="effect1_dropShadow" result="shape"/>
</filter>
</defs>
</svg>
