<?xml version="1.0" encoding="utf-8"?>
<!-- Generator: Adobe Illustrator 22.1.0, SVG Export Plug-In . SVG Version: 6.00 Build 0)  -->
<svg version="1.1" id="Layer_1" xmlns="http://www.w3.org/2000/svg" xmlns:xlink="http://www.w3.org/1999/xlink" x="0px" y="0px"
	 viewBox="0 0 364.5 98.5" style="enable-background:new 0 0 364.5 98.5;" xml:space="preserve">
<style type="text/css">
	.st0{fill:none;}
	.st1{fill:#FFFFFF;}
	.st2{fill:#006BB6;}
	.st3{fill:#FFD200;}
	.st4{fill:#E32726;}
</style>
<rect x="-35.2" y="-36.9" class="st0" width="435.4" height="168.3"/>
<g>
	<g>
		<path class="st1" d="M246,55.3c0.1,0,0.3,0,0.4,0c-0.4-0.4-0.9-0.9-1.6-1.4c-3-3.2-11.1-13.7-11.7-35.5c0,0-0.1-8-0.8-10.5
			c0,0-15.5-2.6-26.7,1c-11.2,3.6-12.8,6.9-33.1-0.7c-20.3-7.7-50.7-5.8-53.9-5.7c2.6,5.1,2.6,5.1,6.4,11.7c0,0,14.1,23.4,16.6,39
			c0.6,3.9,0.8,7.1,0.8,7.1c0.7-0.4,13.6-3.8,13.6-3.8s17.1-5.3,25.5-6.2c9.7-1,10,2.2,21.6,2.3c6.6,0,9.2-2.3,17.6-1.4c0,0,0,0,0,0
			c0,0,9.9,1.2,19.5,4.7C241,55.6,242.8,55.3,246,55.3z"/>
		<g>
			<path class="st2" d="M170.4,30.7c0,0-2.5-6-3.8-13.4c-27.8-16.5-48-14.9-48-14.9c2.6,5.1,2.6,5.1,6.4,11.7
				c31.1,5.6,42.6,16.9,42.6,16.9c-16,7.6-26,22-26,22c0.6,3.9,0.8,7.1,0.8,7.1c0.7-0.4,13.6-3.8,13.6-3.8
				c7.1-11.4,18.7-16.3,21.3-17.2C174.9,37.4,172.1,34.7,170.4,30.7z"/>
			<g>
				<path class="st2" d="M246,55.3c0.1,0,0.3,0,0.4,0h0c-3.5-3.6-16.8-13.2-47.7-25.1c0,0,7-8.9,34.4-11.8c0,0-0.1-8-0.8-10.5
					c0,0-16.9-1.9-38.6,11.4c-0.2,1.9-0.1,5.6,1.6,10.2c0,0,2.8,5.8-0.7,10.7c1.6,0.4,11.4,2.6,26,10.9c0,0,9.9,1.2,19.5,4.7
					C241,55.6,242.8,55.3,246,55.3z"/>
			</g>
		</g>
		<path class="st3" d="M195.4,29.5c-1.8-4.5-1.8-8.3-1.6-10.2c0,0,0,0,0,0c-1.1,0.3-2.9,0.2-3,0.2c-2.6-0.1-5.3-1-5.3-1
			c-5.5-1.6-8.9-2-8.9-2c-5.7-0.7-10,0.7-10,0.7c0,0,0,0,0,0c1.3,7.4,3.8,13.4,3.8,13.4c1.7,4,4.4,6.7,6.9,8.5
			c2.8,2,5.2,2.8,5.2,2.8c4.6,1.9,5.4,2.8,5.4,2.8c3.2-1.2,5.3-2.7,6.6-4.4c0.1-0.1,0.2-0.2,0.3-0.3
			C198.3,35.3,195.4,29.5,195.4,29.5z"/>
		<path class="st4" d="M183.3,37.5c0,0-1.9-2.2,1.1-1.5c0,0,0.3,0,0.3,0c0.3,0,0.5,0,0.6,0.3c0.3,0.6,0.5,1,1.1,1.2
			c0,0,0.6,0.3,1.8,0.2c0,0-0.2,0.8-0.9,1.3c0,0-0.6,0.2-0.5,1.3c0,0-0.5,0.2-1.2-0.3c0,0-0.9-0.3-0.9,0.5c0,0,0.8-0.2,1,0.1
			c0,0-1,0.3-0.5,1.2c0,0,0.8,0.3,1.6-0.9c0,0,0.2,0.1,0.2,0.2c0,0-1,0.2,0.7,1.5c0,0-0.3-1.3,0.3-1.3c0,0,0.7,0.2,0.9,0.9
			c0,0,0.2-0.9,0.5-1c0,0-1.2-1.1,0.2-0.9c0,0,0.2-0.1-0.3-0.5c0,0,0.6-0.3,0.9,0c0,0-0.2-0.2-0.1-0.4h0.9c0,0-1.2-0.5,0.5-1.2
			c0,0-0.8-0.4,0-0.5c0,0,0.3,0,0.2-0.9c0,0-2.4,1.4-2.9-1.4c0,0,1.5-0.5,2,0.9c0,0,0.3-0.2-0.1-1.1c0,0,1.1-0.5,0.4-3.2
			c0,0-0.1-0.2,0.6-0.6c0,0,1.2-0.7-1-1.4c0,0,0.9,1-0.1,1.3c0,0-2.5-3-1.3-5.7c0,0,0.6-1.5,0.2-2.9c-0.3-1.1-2-2.7-3.9-1.7
			c0,0,1.5,0.4,1.4,1.6c-0.1,0.8-1,1.8-0.3,4c0.4,1.2,1.1,2.4,2.1,3.5c0,0,0.6,0.7,0.9,1.4c0,0-0.5-0.3-1-0.3c0,0-1.5-0.2,0.1,1.4
			c-0.2-0.2-0.9-1,1.2-0.5c0,0,1.3,2.4-0.2,2.7c0,0-1,0.1-1.7-0.8c0,0-1.4-1.6-1.8-2.2c0,0-1.9-1.6-1.9-3.9c0,0-0.1-0.9,0.6-1.1v0
			c0,0,0-0.1,0-0.1c-1.6-1.6-0.6-2.6-0.6-2.6c0.3,0,0.4-0.2,0.4-0.2s-0.9-1-1-1.2c0-0.2,0.4-0.4,0.4-0.4l-0.5-0.6
			c-0.5-0.2-0.6-1.5-0.6-1.5l-0.4,0.1c-0.3-0.6-1.1-1.2-1.1-1.2c0,0.7-1.3,0.8-1.3,0.8c-0.7-0.3-1.5,0-1.5,0c-0.8-0.1,0,0.8,0,0.8
			c0.2,0.5,1.2,0.9,1.2,0.9l0.9,0.5c-0.1,0.2-0.6,0.1-0.6,0.1c-0.8-0.5-1.6-0.3-1.6-0.3c-0.7,0.3-0.8-0.4-0.8-0.4
			c-0.5,0.9,1.2,0.9,1.2,0.9c1.2,0,1.5,0.5,1.5,0.5c-1-0.1-1,0.4-1,0.4c-0.8-0.1-1,0.6-1,0.6c-0.5,0.2-0.2,0.9-0.2,0.9
			c1.1,1.2,0.1,0.9-0.9,0.7l-0.6-0.2c0.2-0.9-0.8-2.6-0.8-2.6c-1.4-2-0.8-2.4-0.8-2.4c0.9-1-0.2-1.3-0.2-1.3
			c0.3,0.5-0.1,0.7-0.1,0.7c-0.8-1.1-1.5-1-1.5-1c1,0.9,0.5,1.2,0.5,1.2c-1.3-1.2-1.9-0.6-1.9-0.6c0.7,0.1,0.7,0.7,0.7,0.7
			c0.2,0.5,0.6,0.3,0.6,0.3c0.7,0.5,0,0.6,0,0.6c-0.2-0.3-0.4-0.1-0.4-0.1c-0.3,0-0.6,0-0.6,0c0.2,0.9,1.6,0.8,1.6,0.8
			c1.1,1.7,0.3,2.3,0.3,2.3c0.9,1.7,0,1.6,0,1.6c0.5,0.1,0.8,0.5,0.8,0.5c0.2,0.6-0.6,0.5-0.6,0.5c0.5,0.5,1.6,0.5,1.6,0.5
			c0.6,0.4,0.9,0.6,1,0.7c0.4,0.2,1,0.4,1.6,0.3c0,0.1,0,0.1,0.1,0.2c0,0-1.8,1.2-3.6,1.2c0,0-0.2-0.2-0.6-0.6c0,0-0.6-0.5-0.8,0
			c0,0,0.8,0.3,0.7,0.7l-1.1-0.2c0,0,0.2,0.2,0.3,0.4c0,0,0.2,0.5,1.2,0.3c0,0,0.2,0.2,0.1,0.3c0,0-0.5,0.2-0.3,0.7
			c0,0,0.5,0,0.7-0.1c0,0,0.2-0.1,0.2-0.4h0.5c0,0,0.8-0.1,0.4,0.6c0,0,0.3,0.2,0.6-0.6c0,0,0.5-0.3,0.7,0.4c0,0,0.2-0.7,0.9-0.5
			c0,0,0,0.2-0.2,0.3c0,0,0.4,0.2,0.6-0.2c0,0,0.6-0.3,0.7,0.2c0,0,0.3-0.7,0.3-0.9c0,0,1,0.4,0.9,0.7c0,0,0.2,0.2,0.5,0.1
			c0,0,1.1,1.2,2.6,2.2c-0.8,0-1.2,0-1.4,0.1c0,0-0.4-0.1-0.4-0.1c0,0-0.9-0.2-1.1,0.2c0,0-0.8,0.4-0.3,1.7c0,0-0.3,0.8-0.7,0.4
			c0,0-0.8-0.5-1.6-0.6c0,0-1.1-0.4-1.4-1.1c0,0-0.5-0.8-1.3,0c0,0,0.6,0.1,0.7,0.5c0,0,0.3,0.3,0.7,0.3c0,0,0.2,0.2,0.1,0.3
			c0,0-1.7-0.2-1.1,0.8c0,0,0.2-0.4,0.8,0.1c0,0,0.5,0.1,0.6-0.3c0,0,0.7,0.4-0.1,1c0,0,0.6,0.4,1.1-0.5c0,0,0.7,0.1,1,1.2
			c0,0,0.7-1,1.1,0.1c0,0,0.3-0.6,0.6,0.4c0,0,0.5,0.3,0.9,0C182.2,37.4,182.4,37.7,183.3,37.5z"/>
	</g>
	<g>
		<polygon class="st1" points="120.8,78.9 120.8,78.9 120.8,78.9 120.8,78.9 		"/>
		<path class="st1" d="M43.3,58.2c0-1.1-0.7-1.6-2.1-1.6l-2.5,0.1l-2.5,0l-5.1-0.1c-0.8,0-2.6,0-2.6,1.7c0,1.4,1.2,1.5,2,1.5l0.6,0
			c1.2,0.2,2.2,0.5,2.7,1.7c0.4,0.9,0.4,2.8,0.4,3.8c0,0,0,10.3,0,12.5c-1.5-1.9-15.4-19.1-15.4-19.1l-0.4-0.5
			c-1.1-1.4-1.3-1.6-3.5-1.6H5c-0.8,0-2.4,0-2.4,1.5c0,1.6,1.5,1.6,2.3,1.6l0.3,0c2,0.1,2.2,1.6,2.2,4l0,0.5v17.7l0,0.8
			c0,1.8,0,4.3-0.5,5.8c-0.4,1-0.8,1.3-2,1.4c0,0-0.3,0-0.3,0c-0.9,0-2.4,0.1-2.4,1.7c0,1,0.8,1.7,2,1.7l5.4-0.2l5.3,0.2
			c1.4,0,2.2-0.6,2.2-1.7c0-1.5-1.7-1.6-2.5-1.7l-0.3,0c-1.5-0.1-2.4-0.4-2.9-1.8c-0.4-1.1-0.4-4.1-0.4-5.4c0,0,0-15.1,0-17.4
			c1.6,1.9,21.6,27,21.6,27c0,0,0.2,0.3,0.2,0.3c0.7,1,1.6,2.1,3.1,2.1c0.8,0,1.3-0.2,1.7-0.5c0.4-0.4,0.5-0.9,0.5-1.6
			c0-0.2,0-0.3,0-0.5l0-0.5V64.6l0-0.7c0-0.2,0-0.4,0-0.6c0-2.1,0.2-3.3,1.9-3.5c0,0,0.7,0,0.7,0c0.8,0,1.7,0,2.2-0.5
			C43.2,59,43.3,58.6,43.3,58.2z"/>
		<path class="st1" d="M62.5,55.7c-5.7,0-10.5,1.9-14.4,5.7c-3.7,3.6-5.9,8.5-5.9,13.5c0,5.5,2.6,11,6.7,14.2
			c3.6,2.8,9.4,4.7,14.6,4.7C75,93.8,84,85.4,84,74.7C84,62.3,72.9,55.7,62.5,55.7z M64.2,90.8c-4.5,0-7.3-4.1-8.6-6.5
			c-1.6-3.2-2.5-7.1-2.5-11.1c0-5,1.9-14.6,9.1-14.6c8.4,0,11.1,11.8,11.1,17.5C73.2,81.2,71.3,90.8,64.2,90.8z"/>
		<path class="st1" d="M114.8,63.2c0.7-1.7,1.3-3.2,3.2-3.4c0,0,0.5,0,0.5,0c0.8,0,2.2-0.1,2.2-1.5c0-0.5-0.2-1.7-2.1-1.7l-4.8,0.1
			l-4.9-0.1c-0.6,0-2.3,0-2.3,1.6c0,1.5,1.4,1.6,2.3,1.6l0.6,0c0.6,0.1,1.7,0.4,1.7,1.5c0,0.8-0.5,2.3-1,3.4c0,0-5.5,13.4-6.3,15.3
			c-0.8-1.9-7.2-17.3-7.2-17.3c-0.2-0.6-0.6-1.5-0.6-2c0-0.5,0.5-0.9,0.9-0.9c0,0,0.7,0,0.7,0c1,0,2.7,0,2.7-1.6
			c0-0.4-0.1-0.7-0.4-1c-0.5-0.5-1.5-0.5-2.2-0.5l-0.2,0l-6.6,0.2l-8.1-0.2l-0.3,0c-0.7,0-1.5,0-2,0.5c-0.3,0.2-0.4,0.6-0.4,1
			c0,1.6,1.3,1.7,1.8,1.7c0,0,0.1,0,0.1,0c0.9,0.1,1.4,0.2,1.9,0.7c0.6,0.8,1.5,2.7,1.7,3.3c0,0,11.9,27.6,11.9,27.6
			c0,0,0.2,0.5,0.2,0.5c0.4,1.1,0.8,1.9,2.5,1.9c1.4,0,1.8-0.8,2.2-1.8c0,0,11.8-27.8,11.8-27.8C114.3,64.2,114.8,63.2,114.8,63.2z"
			/>
		<path class="st1" d="M175.9,69.1c0,0-2.9-1-2.9-1c-2.4-0.8-4.9-1.8-4.9-4.5c0-2.9,3.1-4.6,5.9-4.6c2.8,0,4.7,1.8,6.1,5.9
			c0.2,0.5,0.6,1.9,2,1.9c0.5,0,0.8-0.1,1.1-0.4c0.5-0.5,0.5-1.3,0.5-2v-4.1l0-0.4c0-0.9,0-2-1.2-2.6c-1.9-1-5.7-1.5-7.6-1.5
			c-7.3,0-15.2,4.6-15.2,11.9c0,6.3,6.4,8.9,10.3,10.5c0,0,1.2,0.5,1.2,0.5c3.3,1.3,7,2.7,7,6.5c0,4.1-4.3,5.5-7.3,5.5
			c-1.6,0-3.9-0.3-5.6-1.9c-1.2-1.2-1.6-2.6-2.1-4.3l-0.1-0.5c-0.3-1-0.7-2.7-2.3-2.7c-0.4,0-0.8,0.1-1,0.4
			c-0.6,0.7-0.6,1.9-0.6,2.8l0,0.3v3.1l0,0.4c0,1.6,0,2.5,1.9,3.5c2.5,1.2,6.9,1.9,9.8,1.9c4.3,0,7.9-1.2,10.8-3.5
			c3-2.5,4.7-6,4.7-9.5C186.4,73.4,180.8,70.6,175.9,69.1z"/>
		<path class="st1" d="M222.7,82.1c-1.1,0-1.6,0.8-1.8,1.5c-0.9,1.7-1.9,3.7-3.6,5.1c-1.7,1.3-3.6,2-5.7,2c-3.6,0-7-2-9.3-5.5
			c-1.8-2.8-2.8-6.6-2.8-10.6c0-4.1,1.1-8,3-10.7c2.2-3.1,5.6-4.9,9-4.9c4.6,0,6.3,2.5,7.7,4.5c0.8,1.2,1.6,2.3,2.8,2.3
			c0.9,0,1.6-0.6,1.6-1.4l-0.2-1.6l0-0.1c0,0-0.4-2.9-0.4-2.9c0,0,0-0.1,0-0.1c-0.3-1.6-0.4-2-2.1-2.5c-2.6-0.7-6-1.2-8.7-1.2
			c-6,0-12.1,1.8-16.2,4.9c-4.8,3.6-7.5,8.8-7.5,14.5c0,5.5,2.8,11,7.4,14.5c3.6,2.7,9.2,4.3,15.2,4.3c3.1,0,7.5-0.5,11.2-2.7
			c1.9-1.1,1.9-2,2-3.7l0-0.3c0,0,0.2-2.4,0.2-2.4c0-0.2,0-0.4,0-0.6c0-0.5-0.1-1.2-0.5-1.6C223.6,82.2,223.2,82.1,222.7,82.1z"/>
		<path class="st1" d="M301.7,58.2l-0.6,6.1c-0.1,0.9-0.2,2.4-1.7,2.4c-0.7,0-1.6-0.4-2.2-2c-1.6-3.9-2.1-4.8-6.7-4.8
			c-1.1,0-1.1,0-1.1,1.2v24l0,0.6c0,2.9,0,3.8,3,4.2c0.7,0.1,2.2,0.4,2.2,1.8c0,0.5-0.2,1.6-1.8,1.6l-8.7-0.2l-8.2,0.2
			c-1.5,0-1.8-0.8-1.8-1.6c0-0.7,0.3-1.5,1.9-1.8c3-0.5,3.2-1,3.2-3.9c0-0.1,0-24.8,0-24.8v-0.2c0-0.4,0-0.9-0.1-0.9
			c-0.1-0.1-0.7-0.1-1-0.1c-3.5,0-5,1.3-7.1,4.4c-1,1.5-1.9,2.2-2.7,2.2c-0.9,0-1.5-0.7-1.5-1.7l0.2-1.1c0,0,0.1-0.2,0.1-0.2
			l1.5-5.7c0,0,0.4-1.2,2-1.2c3.5-0.1,8,0.6,29.7,0.1C300.1,56.6,301.9,56.6,301.7,58.2z"/>
		<path class="st1" d="M246.5,55.3L246.5,55.3c-0.2,0-0.3,0-0.4,0c-3.3,0-5.1,0.3-5.8,0.5c-0.3,0.1-0.4,0.1-0.4,0.1
			c-3.5,0.8-6.6,2.5-9.3,5.1c-3.7,3.6-5.9,8.5-5.9,13.5c0,5.5,2.6,11,6.7,14.2c3.6,2.8,9.4,4.7,14.6,4.7c11.5,0,20.5-8.4,20.5-19.1
			C266.4,62.6,256.4,56,246.5,55.3z M246.6,90.4c-4.5,0-7.3-4.1-8.6-6.5c-1.6-3.2-2.5-7.1-2.5-11.1c0-5,1.9-14.6,9.1-14.6
			c8.4,0,11.1,11.8,11.1,17.5C255.7,80.8,253.8,90.4,246.6,90.4z"/>
		<path class="st1" d="M147.4,89.9l-0.4,0c-1,0-1.3-0.3-2-1.2c-0.5-0.8-1.1-2.2-1.4-2.8c0,0-11.7-27.6-11.7-27.6
			c0,0-0.3-0.6-0.3-0.6c-0.5-1.3-0.8-1.9-2.7-1.9c-2.3,0-2.7,1-3.3,2.5l-0.3,0.7l-6.6,15.6l-3.1,7.9l-0.6,1.5
			c-0.6,1.5-1.3,3.4-1.8,4.4c-0.7,1.3-1.1,1.4-2.7,1.7c-0.8,0.1-2,0.3-2,1.7c0,0.8,0.4,1.7,2.2,1.7l5.3-0.1l5.3,0.1
			c2,0,2.3-1,2.3-1.7c0-1.5-1.5-1.8-2.7-1.9c-1.8-0.3-3.2-0.4-3.1-2.1c0.1-0.8,0.4-1.8,0.6-2.3c0,0,0.2-0.5,0.2-0.5
			c0,0,0.1-0.3,0.1-0.3c0.4-1.1,0.6-1.9,2.2-1.9h8.1c2.2-0.1,2.2,1,2.7,2.2l0.1,0.3c0,0,0.9,2.1,0.9,2.1c0.2,0.5,0.5,1.3,0.5,2
			c0,0.5-0.4,0.6-1.6,0.8c-1,0.1-2.4,0.2-2.4,1.6c0,1.1,0.8,1.7,2.3,1.7l8.3-0.2l6.9,0.2c0.6,0,2.4,0,2.4-1.7
			C149.5,89.9,148.2,89.9,147.4,89.9z M130,78.9h-9.2l4.6-11.3L130,78.9z"/>
		<path class="st1" d="M360.1,89.9l-0.4,0c-1,0-1.4-0.3-2-1.2c-0.5-0.8-1.1-2.2-1.4-2.8c0,0-11.7-27.6-11.7-27.6
			c0,0-0.3-0.6-0.3-0.6c-0.5-1.3-0.8-1.9-2.7-1.9c-2.3,0-2.7,1-3.3,2.5l-0.3,0.7l-6.6,15.6l-3.1,7.8l-0.6,1.5
			c-0.6,1.5-1.3,3.4-1.8,4.4c-0.7,1.3-1.2,1.6-2.6,1.7c-0.2,0-0.3,0-0.5,0c-0.3,0-0.4,0-0.5-0.1c-3-0.5-3-1.3-3-4.2l0-0.6V64.9
			l0-0.7c0-3.2,0-3.9,3.2-4.4c0.7-0.1,2-0.3,2-1.6c0-1-0.6-1.6-1.9-1.6l-4,0.1l-4.1,0.1l-8.8-0.2c-0.5,0-1.8,0-1.8,1.6
			c0,1.3,1.3,1.5,2,1.6l0.2,0c2.9,0.5,2.9,1.4,2.9,4.3l0,0.8l0,20.6c0,3.3,0,3.8-3.2,4.3c-1.6,0.3-1.9,1.1-1.9,1.8
			c0,0.7,0.3,1.6,1.8,1.6l8.2-0.2l8.7,0.2v0c0.2,0,0.5,0,0.8,0l5.3-0.1l5.3,0.1c2,0,2.3-1,2.3-1.7c0-1.5-1.5-1.8-2.7-1.9
			c-1.8-0.3-3.2-0.4-3.1-2.1c0.1-0.8,0.5-1.8,0.6-2.3c0,0,0.2-0.5,0.2-0.5c0,0,0.1-0.3,0.1-0.3c0.4-1.1,0.6-1.9,2.2-1.9h8.1
			c2.2-0.1,2.2,1,2.7,2.2l0.1,0.3c0,0,0.9,2.1,0.9,2.1c0.2,0.5,0.5,1.3,0.5,2c0,0.5-0.4,0.6-1.6,0.8c-1,0.1-2.4,0.2-2.4,1.6
			c0,1.1,0.8,1.7,2.3,1.7l8.3-0.2l6.9,0.2c0.6,0,2.4,0,2.4-1.7C362.2,89.9,360.9,89.9,360.1,89.9z M333.5,78.9l4.6-11.3l4.6,11.3
			H333.5z"/>
	</g>
</g>
</svg>
