<svg width="40" height="34" viewBox="0 0 40 34" fill="none" xmlns="http://www.w3.org/2000/svg">
<path d="M23 15H30C30.8125 15 31.5625 15.5625 31.8125 16.3125C32.125 17.125 31.9375 18 31.3125 18.5625L15.3125 32.5625C14.5625 33.125 13.5625 33.1875 12.8125 32.625C12.0625 32.125 11.75 31.125 12.125 30.25L16.9375 19H9.9375C9.125 19 8.375 18.5 8.125 17.75C7.8125 16.9375 8 16.0625 8.625 15.5L24.625 1.5C25.375 0.9375 26.375 0.875 27.125 1.4375C27.875 1.9375 28.1875 2.9375 27.8125 3.8125L23 15Z" fill="#29A35A"/>
</svg>
