<svg width="31" height="36" viewBox="0 0 31 36" fill="none" xmlns="http://www.w3.org/2000/svg">
<path d="M26.1816 21.498L27.8223 17.1914C28.0957 16.5078 27.6172 15.6875 26.7969 15.6875H22.832C23.584 14.457 24.0625 12.9531 24.0625 11.3125C26.7285 10.7656 28.4375 10.0137 28.4375 9.125C28.4375 8.23633 26.5234 7.41602 23.6523 6.86914C22.9688 4.68164 21.8066 2.42578 20.8496 1.26367C20.166 0.443359 19.0723 0.169922 18.1152 0.648438L16.2695 1.60547C15.6543 1.87891 14.9023 1.87891 14.2871 1.60547L12.4414 0.648438C11.4844 0.169922 10.3906 0.443359 9.70703 1.26367C8.81836 2.42578 7.58789 4.68164 6.97266 6.86914C4.0332 7.41602 2.1875 8.23633 2.1875 9.125C2.1875 10.0137 3.82812 10.7656 6.5625 11.3125C6.5625 12.9531 6.97266 14.457 7.72461 15.6875H3.82812C3.00781 15.6875 2.5293 16.5078 2.80273 17.2598L4.58008 21.3613C1.8457 22.9336 0 25.873 0 29.291V32.3672C0 34.0078 1.36719 35.375 3.00781 35.375H27.5488C29.1895 35.375 30.625 34.0078 30.625 32.3672V29.291C30.625 25.9414 28.8477 23.0703 26.1816 21.498ZM12.0312 33.1875L9.16016 20.0625L12.5781 22.25L14.2188 24.9844L12.0312 33.1875ZM18.5938 33.1875L16.4062 24.9844L18.0469 22.25L21.3965 20.0625L18.5938 33.1875ZM21.3965 12.8164C21.123 13.6367 20.918 14.5254 20.3027 15.0723C19.6191 15.7559 17.0215 16.6445 15.9277 13.3633C15.7227 12.8164 14.834 12.8164 14.6289 13.3633C13.4668 16.8496 10.8008 15.6191 10.2539 15.0723C9.63867 14.5254 9.43359 13.6367 9.16016 12.8164C9.0918 12.6113 8.75 12.4062 8.75 12.4062V11.6543C10.6641 11.9277 12.9199 12.0645 15.3125 12.0645C17.7051 12.0645 19.8926 11.9277 21.875 11.6543V12.4062C21.875 12.4062 21.4648 12.6113 21.3965 12.8164Z" fill="#00823B"/>
</svg>
