<svg width="32" height="37" viewBox="0 0 32 37" fill="none" xmlns="http://www.w3.org/2000/svg">
<path d="M28.125 16.25H26.4375V11.1875C26.4375 5.35156 21.5859 0.5 15.75 0.5C9.84375 0.5 5.0625 5.35156 5.0625 11.1875V16.25H3.375C1.47656 16.25 0 17.7969 0 19.625V33.125C0 35.0234 1.47656 36.5 3.375 36.5H28.125C29.9531 36.5 31.5 35.0234 31.5 33.125V19.625C31.5 17.7969 29.9531 16.25 28.125 16.25ZM20.8125 16.25H10.6875V11.1875C10.6875 8.44531 12.9375 6.125 15.75 6.125C18.4922 6.125 20.8125 8.44531 20.8125 11.1875V16.25Z" fill="#00823B"/>
</svg>
