<svg width="40" height="32" viewBox="0 0 40 32" fill="none" xmlns="http://www.w3.org/2000/svg">
<path d="M20 2C11.125 2 4 7.875 4 15C4 18.125 5.3125 20.9375 7.5625 23.1875C6.75 26.375 4.125 29.125 4.125 29.1875C4 29.3125 3.9375 29.5625 4 29.75C4.0625 29.9375 4.25 30 4.5 30C8.625 30 11.75 28.0625 13.25 26.8125C15.3125 27.5625 17.5625 28 20 28C28.8125 28 36 22.1875 36 15C36 7.875 28.8125 2 20 2ZM14.4375 17C14.1875 18.25 13.125 19 11.5625 19C11.3125 19 11 19 10.75 18.9375C10.3125 18.875 9.75 18.6875 9.3125 18.5625C8.8125 18.375 8.4375 17.75 8.625 17.25C8.8125 16.6875 9.3125 16.375 9.8125 16.5625C10.25 16.75 10.6875 16.9375 11.125 17C11.8125 17.125 12.4375 16.9375 12.4375 16.6875C12.5 16.3125 11.75 16.1875 10.9375 15.9375C10.1875 15.6875 8.125 15.125 8.5 13.0625C8.75 11.5625 10.1875 10.8125 12.125 11.0625C12.5 11.125 12.9375 11.25 13.3125 11.375C13.8125 11.5625 14.0625 12.125 13.9375 12.6875C13.75 13.1875 13.1875 13.5 12.625 13.3125C12.375 13.1875 12.0625 13.125 11.8125 13.0625C11.125 12.9375 10.5 13.125 10.5 13.375C10.4375 13.75 11.0625 13.875 11.75 14.0625C12.8125 14.375 14.8125 14.9375 14.4375 17ZM24 18C24 18.5625 23.5 19 23 19C22.4375 19 22 18.5625 22 18V15L20.75 16.625C20.375 17.125 19.5625 17.125 19.1875 16.625L18 15V18C18 18.5625 17.5 19 17 19C16.4375 19 16 18.5625 16 18V12C16 11.625 16.25 11.25 16.625 11.0625C17.0625 10.9375 17.5 11.0625 17.75 11.4375L20 14.375L22.1875 11.4375C22.4375 11.0625 22.875 10.9375 23.3125 11.0625C23.6875 11.1875 24 11.625 24 12V18ZM31.4375 17C31.1875 18.25 30.125 19 28.5625 19C28.3125 19 28 19 27.75 18.9375C27.25 18.875 26.6875 18.6875 26.25 18.5625C25.75 18.375 25.375 17.75 25.5625 17.25C25.75 16.6875 26.25 16.375 26.75 16.5625C27.1875 16.75 27.6875 16.9375 28.0625 17C28.75 17.125 29.375 16.9375 29.375 16.6875C29.5 16.3125 28.75 16.1875 27.875 15.9375C27.125 15.6875 25.125 15.125 25.4375 13.0625C25.6875 11.5625 27.1875 10.8125 29.0625 11.125C29.4375 11.125 29.875 11.25 30.25 11.375C30.75 11.5625 31.0625 12.125 30.875 12.6875C30.6875 13.1875 30.125 13.5 29.5625 13.3125C29.3125 13.1875 29 13.125 28.75 13.0625C28.0625 12.9375 27.5 13.125 27.4375 13.375C27.4375 13.75 28.0625 13.875 28.75 14.0625C29.8125 14.375 31.8125 14.9375 31.4375 17Z" fill="#29A35A"/>
</svg>
