<svg width="40" height="32" viewBox="0 0 40 32" fill="none" xmlns="http://www.w3.org/2000/svg">
<path d="M29.5625 21.1875L31.875 15.375C32.1875 14.75 31.6875 14 30.9375 14H27.3125C27.75 13.125 28 12.0625 28 11C28 10.75 27.9375 10.5 27.875 10.25C30.375 9.75 32 8.9375 32 8C32 7 30 6.125 26.9375 5.625C26.1875 2.875 25 0 23.3125 0C22.6875 0 22.0625 0.3125 21.625 0.6875C20.625 1.4375 19.3125 1.4375 18.375 0.6875C17.875 0.3125 17.3125 0 16.625 0C14.9375 0 13.75 2.875 13 5.5625C9.9375 6.125 8 7 8 8C8 8.9375 9.5625 9.75 12.0625 10.25C12 10.5 12 10.75 12 11C12 12.0625 12.1875 13.125 12.5625 14H9C8.25 14 7.75 14.75 8.0625 15.375L10.375 21.1875C7.6875 23.1875 6 26.3125 6 29.875C6 31.0625 6.9375 32 8.125 32H31.8125C33 32 34 31.0625 34 29.875C34 26.3125 32.25 23.1875 29.5625 21.1875ZM17 30L14 18L18 20L19 22L17 30ZM22.9375 30L21 22L22 20L26 18L22.9375 30ZM26 11.625C26 12.9375 24.875 14 23.5625 14H22.8125C21.75 14 20.875 13.375 20.5625 12.5C20.5 12.1875 20.25 12 20 12C19.6875 12 19.4375 12.1875 19.375 12.4375C19.0625 13.375 18.1875 14 17.125 14H16.375C15.0625 14 14 12.9375 14 11.625V10.625C15.75 10.875 17.75 11 20 11C22.1875 11 24.1875 10.875 26 10.625V11.625Z" fill="#29A35A"/>
</svg>
