<svg width="40" height="32" viewBox="0 0 40 32" fill="none" xmlns="http://www.w3.org/2000/svg">
<path d="M35.375 10.625L25.375 0.625C25 0.25 24.5 0 24 0C23.4375 0 22.9375 0.25 22.5625 0.625C21.75 1.375 21.75 2.6875 22.5625 3.4375L23 3.875L6 20.8125C3.625 23.25 3.1875 27.1875 5.4375 29.8125C6.75 31.25 8.5 32 10.3125 32C12 32 13.625 31.4375 14.875 30.125L32.125 13L32.5625 13.4375C32.9375 13.8125 33.4375 14 34 14C34.5 14 35 13.8125 35.375 13.4375C36.1875 12.6875 36.1875 11.375 35.375 10.625ZM23.375 16H16.5L25.8125 6.6875L29.25 10.1875L23.375 16Z" fill="#29A35A"/>
</svg>
