<svg width="40" height="34" viewBox="0 0 40 34" fill="none" xmlns="http://www.w3.org/2000/svg">
<path d="M17.5 1.3125C17.5625 1.125 17.75 1 18 1C18.1875 1 18.375 1.125 18.4375 1.3125L19.3125 3.6875L21.6875 4.5625C21.875 4.625 22 4.8125 22 5C22 5.25 21.875 5.4375 21.6875 5.5L19.3125 6.375L18.4375 8.6875C18.375 8.875 18.1875 9 18 9C17.75 9 17.5625 8.875 17.5 8.6875L16.625 6.375L14.25 5.5C14.0625 5.4375 14 5.25 14 5C14 4.8125 14.0625 4.625 14.25 4.5625L16.625 3.6875L17.5 1.3125ZM28.6875 1.9375C29.875 0.75 31.75 0.75 32.9375 1.9375L35.0625 4.0625C36.25 5.25 36.25 7.125 35.0625 8.3125L11.25 32.125C10.0625 33.3125 8.1875 33.3125 7 32.125L4.875 30C3.6875 28.8125 3.6875 26.9375 4.875 25.75L28.6875 1.9375ZM30.8125 4.75L24.25 11.3125L25.6875 12.75L32.25 6.1875L30.8125 4.75ZM2.4375 8.375L6 7L7.3125 3.5C7.375 3.1875 7.6875 3 8 3C8.25 3 8.5625 3.1875 8.625 3.5L10 7L13.5 8.375C13.8125 8.4375 14 8.75 14 9C14 9.3125 13.8125 9.625 13.5 9.6875L10 11L8.625 14.5625C8.5625 14.8125 8.25 15 8 15C7.6875 15 7.375 14.8125 7.3125 14.5625L6 11L2.4375 9.6875C2.125 9.625 2 9.3125 2 9C2 8.75 2.125 8.4375 2.4375 8.375ZM24.4375 24.375L28 23L29.3125 19.5C29.375 19.1875 29.6875 19 30 19C30.25 19 30.5625 19.1875 30.625 19.5L32 23L35.5 24.375C35.8125 24.4375 36 24.75 36 25C36 25.3125 35.8125 25.625 35.5 25.6875L32 27L30.625 30.5625C30.5625 30.8125 30.25 31 30 31C29.6875 31 29.375 30.8125 29.3125 30.5625L28 27L24.4375 25.6875C24.125 25.625 24 25.3125 24 25C24 24.75 24.125 24.4375 24.4375 24.375Z" fill="#29A35A"/>
</svg>
