<svg width="960" height="640" xmlns="http://www.w3.org/2000/svg">
 <metadata id="metadata4087">image/svg+xml</metadata>

 <style>.st0{fill:#FFD419;} .st1{fill:#004A1E;} .st2{fill:#DADADA;} .st3{fill:#FFFFFF;} .st4{fill:#0B0B0B;} .st5{fill:#00823B;} .st6{fill:#8C8C8C;}</style>Sauvegarder
 <g>
  <title>background</title>
  <rect fill="none" id="canvas_background" height="402" width="582" y="-1" x="-1"/>
 </g>
 <g>
  <title>Layer 1</title>
  <path id="path4052" d="m587,266.9l0,215.7l-533.9,0l0,-215.7l533.9,0m4,-4l-541.9,0l0,223.7l541.9,0l0,-223.7z" class="st0"/>
  <path id="path4054" d="m55,541l190.9,0l0,60.7l-190.9,0l0,-60.7z" class="st1"/>
  <path id="path4058" d="m0,40l0,-30c0,-5.5 4.5,-10 10,-10l940,0c5.5,0 10,4.5 10,10l0,30" class="st2"/>
  <circle id="circle4060" r="8.5" cy="20" cx="25.4" class="st3"/>
  <circle id="circle4062" r="8.5" cy="20" cx="49.1" class="st3"/>
  <circle id="circle4064" r="8.5" cy="20" cx="72.9" class="st3"/>
  <path id="path4066" d="m1,40l958,0l0,65l-958,0l0,-65z" class="st4"/>
  <path id="path4068" d="m55,534l190.9,0l0,60.7l-190.9,0l0,-60.7z" class="st5"/>
  <path id="path4076" d="m585,268.9l0,211.7l-529.9,0l0,-211.7l529.9,0m2,-2l-533.9,0l0,215.7l533.9,0l0,-215.7z" class="st6"/>
  <path id="path4078" d="m0,636l960,0l0,4l-960,0l0,-4z" class="st2"/>
  <path id="path4080" d="m4,640l0,-600l952,0l0,600l4,0l0,-604l-960,0l0,604l4,0z" class="st2"/>
  <text font-style="normal" font-weight="normal" font-size="40px" font-family="sans-serif" fill="#000000" id="text68" y="155.2957" x="51.169716" xml:space="preserve">
   <tspan id="tspan62" y="155.2957" x="51.169716">
    <tspan font-style="normal" font-weight="bold" font-size="32px" font-family="Arial" id="tspan58" y="155.2957" x="51.169716">Modèle d'ajout de message texte</tspan>
    <tspan font-style="normal" font-weight="bold" font-size="32px" font-family="Arial" id="tspan60" y="155.2957" x="549.91974" dx="0"/>
   </tspan>
   <tspan id="tspan66" y="155.2957" x="51.169716">
    <tspan font-style="normal" font-weight="bold" font-size="32px" font-family="Arial" id="tspan64" y="205.2957" x="51.169716"/>
   </tspan>
  </text>
  <text font-style="normal" font-weight="normal" font-size="40px" font-family="sans-serif" fill="#000000" id="text4123" y="250.50119" x="54.988068" xml:space="preserve">
   <tspan font-size="32px" font-family="Arial" font-weight="normal" font-style="normal" y="250.50119" x="54.988068" id="tspan4121">Message</tspan>
  </text>
  <rect fill="#ffd419" stroke-width="0.544393" rx="4.892123" ry="14.415292" y="297.16949" x="143.41766" height="28.830584" width="55.369949" id="rect5053"/>
  <rect fill="#ffd419" stroke-width="0.52138" rx="4.487257" ry="14.415292" y="375.79233" x="181.79474" height="28.830584" width="50.787605" id="rect5053-6"/>
  <rect fill="#ffd419" stroke-width="0.710521" rx="8.333476" ry="14.415292" y="414.74222" x="120.40572" height="28.830584" width="94.319824" id="rect5053-6-8"/>
  <text font-style="normal" font-weight="normal" font-size="40px" font-family="sans-serif" fill="#000000" id="text94" y="574.81451" x="79.553757" xml:space="preserve">
   <tspan id="tspan92" y="574.81451" x="79.553757">
    <tspan font-size="24px" fill="#ffffff" id="tspan90" y="574.81451" x="79.553757">Sauvegarder</tspan>
   </tspan>
  </text>
  <text font-style="normal" font-weight="normal" font-size="40px" font-family="sans-serif" fill="#000000" id="text88" y="316.73279" x="71.013931" xml:space="preserve">
   <tspan id="tspan74" y="316.73279" x="71.013931">
    <tspan font-size="24px" id="tspan70" y="316.73279" x="71.013931">Salut ((nom)),</tspan>
    <tspan font-size="24px" id="tspan72" y="316.73279" x="245.998305" dx="0"/>
   </tspan>
   <tspan id="tspan78" y="356.73279" x="71.013931">
    <tspan font-size="24px" id="tspan76" y="356.73279" x="71.013931">J'essaie Notification. Aujourd'hui nous</tspan>
   </tspan>
   <tspan id="tspan82" y="396.73279" x="71.013931">
    <tspan font-size="24px" id="tspan80" y="396.73279" x="71.013931">sommes ((jour)) et ma couleur préférée</tspan>
   </tspan>
   <tspan id="tspan86" y="436.73279" x="71.013931">
    <tspan font-size="24px" id="tspan84" y="436.73279" x="71.013931">est ((couleur)).</tspan>
   </tspan>
  </text>
 </g></svg>