<?xml version="1.0" encoding="UTF-8" standalone="no"?>
<svg
   xmlns:dc="http://purl.org/dc/elements/1.1/"
   xmlns:cc="http://creativecommons.org/ns#"
   xmlns:rdf="http://www.w3.org/1999/02/22-rdf-syntax-ns#"
   xmlns:svg="http://www.w3.org/2000/svg"
   xmlns="http://www.w3.org/2000/svg"
   xmlns:sodipodi="http://sodipodi.sourceforge.net/DTD/sodipodi-0.dtd"
   xmlns:inkscape="http://www.inkscape.org/namespaces/inkscape"
   id="Layer_1"
   viewBox="0 0 960 640"
   style="zoom: 1;"
   version="1.1"
   sodipodi:docname="03-spreadsheet.svg"
   inkscape:version="0.92.4 (f8dce91, 2019-08-02)">
  <metadata
     id="metadata93">
    <rdf:RDF>
      <cc:Work
         rdf:about="">
        <dc:format>image/svg+xml</dc:format>
        <dc:type
           rdf:resource="http://purl.org/dc/dcmitype/StillImage" />
      </cc:Work>
    </rdf:RDF>
  </metadata>
  <defs
     id="defs91" />
  <sodipodi:namedview
     pagecolor="#ffffff"
     bordercolor="#666666"
     borderopacity="1"
     objecttolerance="10"
     gridtolerance="10"
     guidetolerance="10"
     inkscape:pageopacity="0"
     inkscape:pageshadow="2"
     inkscape:window-width="1920"
     inkscape:window-height="1043"
     id="namedview89"
     showgrid="false"
     inkscape:zoom="0.7375"
     inkscape:cx="470.27437"
     inkscape:cy="212.09066"
     inkscape:window-x="0"
     inkscape:window-y="0"
     inkscape:window-maximized="1"
     inkscape:current-layer="Layer_1" />
  <style
     id="style2">.st0{fill:#B4B4B4;} .st1{fill:none;stroke:#DADADA;stroke-width:4;stroke-miterlimit:10;} .st2{fill:#DADADA;} .st3{fill:#FFFFFF;} .st4{fill:#0B0B0B;} .st5{fill:#004A1E;} .st6{fill:#00823B;} .st7{fill:#4B4B4B;} .st8{fill:#C8C8C8;} .st9{fill:#8C8C8C;}</style>
  <path
     class="st0"
     d="M113.6 352.9h6.6v4.3h-6.6z"
     id="path4" />
  <path
     class="st0"
     d="M57 290.2h59.2V636H57z"
     id="path6" />
  <path
     class="st0"
     d="M57 290h899v65.2H57z"
     id="path8" />
  <path
     class="st1"
     d="M57 420.4h899M505.6 287.8v350.4m233.2-350.4v350.4M57 485.6h899m0 130.4H57m0-65.2h899"
     id="path10" />
  <path
     class="st2"
     d="M0 40V10C0 4.5 4.5 0 10 0h940c5.5 0 10 4.5 10 10v30"
     id="path12" />
  <circle
     class="st3"
     cx="25.4"
     cy="20"
     r="8.5"
     id="circle14" />
  <circle
     class="st3"
     cx="49.1"
     cy="20"
     r="8.5"
     id="circle16" />
  <circle
     class="st3"
     cx="72.9"
     cy="20"
     r="8.5"
     id="circle18" />
  <path
     class="st4"
     d="M1,40 h958 v65 H1  z "
     id="path20" />
  <path
     class="st5"
     d="M55 154.9h309.9v60.7H55z"
     id="path22" />
  <path
     class="st6"
     d="M55 147.9h309.9v60.7H55z"
     id="path24" />
  <path
     class="st7"
     d="M155.5 330.3h-9l-1.5 5.1h-2.9L149 313h4l7 22.4h-3l-1.5-5.1zm-8.3-2.3h7.6l-3.7-12.5h-.3l-3.6 12.5zm390.4-15c3.5 0 6.2 2.2 6.2 5.6 0 2.2-1.5 4.3-3.5 5 2.3.3 4.8 2.2 4.8 5.4 0 4.4-3.5 6.3-7.7 6.3h-8.5V313h8.7zm3.4 5.9c0-2-1.2-3.7-4.4-3.7h-4.9v7.4h4.9c3.1.1 4.4-1.6 4.4-3.7zm-3.6 6.2h-5.8v8h5.8c2.6 0 4.8-1.2 4.8-4.1 0-2.9-2.2-3.9-4.8-3.9zm233.1-12.4c4.2 0 7 2.3 8.4 5.8l-2.6.9c-.7-2-2.6-4.3-5.7-4.3-4.7 0-6.8 4.3-6.8 8.9v.4c0 4.6 2.2 8.9 6.8 8.9 3.1 0 5.1-2.2 5.7-4.3l2.6.9c-1.3 3.5-4.2 5.8-8.4 5.8-6 0-9.8-5.1-9.8-11.5s3.7-11.5 9.8-11.5z"
     id="path30" />
  <path
     class="st7"
     d="M86.3 378.4v-.2H89v22.4h-2.8v-16.4H82v-2.4h.4c3 0 3.9-1 3.9-3.4zm-7.2 87.4v-2.7c1.7-1.5 6.4-5.4 8.1-6.9 1.8-1.6 3.4-3.6 3.4-6.2 0-2.8-1.8-4.4-4.4-4.4-2.8 0-4.2 1.9-4.4 4.7l-2.9-.2c.1-4.4 3-6.9 7.3-6.9 4.4 0 7.3 2.6 7.3 7 0 3.3-1.7 5.4-6.7 9.7l-4.1 3.5h11v2.5H79.1zm1.8 59.4c.8 2.1 2.3 3.6 5.2 3.6 3.3 0 4.8-1.9 4.8-4.2 0-2.5-1.9-3.9-5.2-3.9h-1v-2.4h.5c2.9 0 5.3-1 5.3-3.9 0-2.6-2-3.9-4.4-3.9-2.5 0-4.1 1.4-4.9 3.4l-2.5-1c1.2-3.3 4.2-4.8 7.5-4.8 3.9 0 7.2 2.5 7.2 6 0 2.4-1.4 4.5-4.2 5.2 3.2.7 4.6 2.8 4.6 5.4 0 4.4-3.6 6.4-7.7 6.4-3.6 0-6.6-1.7-7.9-5.2l2.7-.7zm7.5 71v-5.8H77.1v-2.8l10.1-13.9h3.9V588h3.7v2.3h-3.7v5.8h-2.7zm0-8.1v-12l-8.6 12h8.6z"
     id="path34" />
  <circle
     class="st3"
     cx="78.4"
     cy="270"
     r="8.5"
     id="circle38" />
  <circle
     class="st3"
     cx="102.1"
     cy="270"
     r="8.5"
     id="circle40" />
  <circle
     class="st3"
     cx="125.9"
     cy="270"
     r="8.5"
     id="circle42" />
  <path
     class="st2"
     d="M956 250H63c-5.5 0-10 4.5-10 10v30h903v-40z"
     id="path44" />
  <circle
     class="st3"
     cx="78.4"
     cy="270"
     r="8.5"
     id="circle46" />
  <circle
     class="st3"
     cx="102.1"
     cy="270"
     r="8.5"
     id="circle48" />
  <circle
     class="st3"
     cx="125.9"
     cy="270"
     r="8.5"
     id="circle50" />
  <path
     class="st8"
     d="M505.6 290H120.2v67.2l4-4V294h377.4z"
     id="path52" />
  <path
     class="st9"
     d="M501.6 294v59.2H124.2l-4 4h385.4V290z"
     id="path54" />
  <path
     class="st8"
     d="M120.2 357.2H53v63.2l4-4v-55.2h59.2z"
     id="path56" />
  <path
     class="st9"
     d="M116.2 361.2v55.2H57l-4 4h67.2v-63.2zm-55.2-4V294h59.2v-4H57v67.2z"
     id="path58" />
  <path
     class="st8"
     d="M120.2 420.4H53v65.2l4-4v-57.2h59.2z"
     id="path60" />
  <path
     class="st9"
     d="M116.2 424.4v57.2H57l-4 4h67.2v-65.2z"
     id="path62" />
  <path
     class="st8"
     d="M120.2 485.6H53v65.2l4-4v-57.2h59.2z"
     id="path64" />
  <path
     class="st9"
     d="M116.2 489.6v57.2H57l-4 4h67.2v-65.2z"
     id="path66" />
  <path
     class="st8"
     d="M120.2 550.8H53V616l4-4v-57.2h59.2z"
     id="path68" />
  <path
     class="st9"
     d="M116.2 554.8V612H57l-4 4h67.2v-65.2z"
     id="path70" />
  <path
     class="st8"
     d="M120.2 616H53v20h4v-16h59.2z"
     id="path72" />
  <path
     class="st9"
     d="M116.2 620v16h4v-20z"
     id="path74" />
  <path
     class="st8"
     d="M738.8 290H505.6v67.2l4-4V294h225.2z"
     id="path76" />
  <path
     class="st9"
     d="M734.8 294v59.2H509.6l-4 4h233.2V290z"
     id="path78" />
  <path
     class="st8"
     d="M960 290H738.8v67.2l4-4V294H956z"
     id="path80" />
  <path
     class="st9"
     d="M948 353.2H742.8l-4 4h219v-4z"
     id="path82" />
  <path
     class="st2"
     d="M0 36v551h54.7v-4H4V40h952v547h4V36z"
     id="path84" />
  <path
     class="st2"
     d="M53 286v354h907V286H53zm4 350V290h899v346H57z"
     id="path86" />
  <text
     xml:space="preserve"
     style="font-style:normal;font-weight:normal;font-size:40px;line-height:1.25;font-family:sans-serif;letter-spacing:0px;word-spacing:0px;fill:#000000;fill-opacity:1;stroke:none"
     x="76.610168"
     y="189.15256"
     id="text3800"><tspan
       sodipodi:role="line"
       id="tspan3798"
       x="76.610168"
       y="189.15256"
       style="font-style:normal;font-variant:normal;font-weight:normal;font-stretch:normal;font-size:24px;font-family:Arial;-inkscape-font-specification:Arial;fill:#ffffff">Ajouter des destinataires</tspan></text>
  <flowRoot
     xml:space="preserve"
     id="flowRoot3802"
     style="font-style:normal;font-variant:normal;font-weight:normal;font-stretch:normal;font-size:40px;line-height:1.25;font-family:Arial;-inkscape-font-specification:Arial;letter-spacing:0px;word-spacing:0px;fill:#000000;fill-opacity:1;stroke:none"><flowRegion
       id="flowRegion3804"><rect
         id="rect3806"
         width="230.50847"
         height="41.355934"
         x="134.23729"
         y="368.13559" /></flowRegion><flowPara
       id="flowPara3808">A</flowPara></flowRoot>  <text
     xml:space="preserve"
     style="font-style:normal;font-variant:normal;font-weight:normal;font-stretch:normal;font-size:40px;line-height:1.25;font-family:Arial;-inkscape-font-specification:Arial;letter-spacing:0px;word-spacing:0px;fill:#000000;fill-opacity:1;stroke:none"
     x="143.05084"
     y="399.32205"
     id="text3812"><tspan
       sodipodi:role="line"
       id="tspan3810"
       x="143.05084"
       y="399.32205"
       style="font-size:32px">Addresse courriel               Nom                   Couleur</tspan></text>
  <flowRoot
     xml:space="preserve"
     id="flowRoot3814"
     style="fill:black;fill-opacity:1;stroke:none;font-family:Arial;font-style:normal;font-weight:normal;font-size:32px;line-height:1.25;letter-spacing:0px;word-spacing:0px;-inkscape-font-specification:Arial;font-stretch:normal;font-variant:normal;"><flowRegion
       id="flowRegion3816"
       style="font-size:32px;"><rect
         id="rect3818"
         width="789.83051"
         height="177.62712"
         x="141.69492"
         y="430.50848"
         style="font-size:32px;" /></flowRegion><flowPara
       id="flowPara3820"></flowPara></flowRoot>  <text
     xml:space="preserve"
     style="font-style:normal;font-variant:normal;font-weight:normal;font-stretch:normal;font-size:32px;line-height:1.25;font-family:Arial;-inkscape-font-specification:Arial;letter-spacing:0px;word-spacing:0px;fill:#000000;fill-opacity:1;stroke:none"
     x="140.33899"
     y="461.01694"
     id="text3824"><tspan
       sodipodi:role="line"
       x="140.33899"
       y="461.01694"
       id="tspan3828">Josh@example.com          Josh                    Rouge</tspan></text>
  <text
     xml:space="preserve"
     style="font-style:normal;font-variant:normal;font-weight:normal;font-stretch:normal;font-size:32px;line-height:1.25;font-family:Arial;-inkscape-font-specification:Arial;letter-spacing:0px;word-spacing:0px;fill:#000000;fill-opacity:1;stroke:none"
     x="137.07706"
     y="527.6189"
     id="text3824-3"><tspan
       sodipodi:role="line"
       x="137.07706"
       y="527.6189"
       id="tspan3828-3">Amala@example.com        Amala                 Vert</tspan></text>
  <text
     xml:space="preserve"
     style="font-style:normal;font-variant:normal;font-weight:normal;font-stretch:normal;font-size:32px;line-height:1.25;font-family:Arial;-inkscape-font-specification:Arial;letter-spacing:0px;word-spacing:0px;fill:#000000;fill-opacity:1;stroke:none"
     x="137.75502"
     y="592.70367"
     id="text3824-3-8"><tspan
       sodipodi:role="line"
       x="137.75502"
       y="592.70367"
       id="tspan3828-3-0">Roman@example.com      Roman                Bleu</tspan></text>
</svg>
